<?xml version="1.0" encoding="UTF-8"?>
<svg xmlns="http://www.w3.org/2000/svg" xmlns:xlink="http://www.w3.org/1999/xlink" width="720pt" height="720pt" viewBox="0 0 720 720" version="1.1">
<g id="surface342">
<path style=" stroke:none;fill-rule:nonzero;fill:rgb(95.686275%,95.686275%,95.686275%);fill-opacity:1;" d="M 540.449219 555.519531 L 538.320312 554.207031 L 536.082031 552.574219 L 533.78125 550.683594 L 531.484375 548.609375 L 529.222656 546.4375 L 527 544.226562 L 524.8125 541.992188 L 522.765625 539.65625 L 521.003906 537.183594 L 519.652344 534.585938 L 518.816406 531.90625 L 518.566406 529.429688 L 518.871094 526.695312 L 519.765625 524.003906 L 521.175781 521.398438 L 522.992188 518.925781 L 525.074219 516.589844 L 527.285156 514.34375 L 529.527344 512.128906 L 531.8125 509.976562 L 534.128906 507.984375 L 536.4375 506.238281 L 538.679688 504.824219 L 540.449219 503.949219 L 542.808594 503.195312 L 544.917969 503.019531 L 546.75 503.347656 L 548.316406 504.054688 L 549.71875 504.960938 L 551.113281 505.933594 L 552.636719 507.039062 L 554.335938 508.34375 L 556.207031 509.859375 L 558.066406 511.449219 L 560.035156 513.203125 L 562.050781 515.066406 L 564.054688 516.980469 L 566.003906 518.886719 L 567.882812 520.757812 L 569.730469 522.621094 L 571.46875 524.558594 L 572.949219 526.628906 L 574.039062 528.808594 L 574.625 531.0625 L 574.710938 532.300781 L 574.421875 534.59375 L 573.578125 536.839844 L 572.273438 538.992188 L 570.632812 541.011719 L 568.808594 542.917969 L 566.929688 544.792969 L 565 546.667969 L 563 548.523438 L 560.964844 550.285156 L 558.949219 551.886719 L 558.066406 552.539062 L 556.011719 553.917969 L 554.101562 555.015625 L 552.378906 555.832031 L 550.835938 556.421875 L 549.410156 556.882812 L 547.933594 557.261719 L 546.25 557.382812 L 544.273438 557.09375 L 542.007812 556.296875 Z M 540.449219 555.519531 "/>
<path style=" stroke:none;fill-rule:nonzero;fill:rgb(95.686275%,95.686275%,95.686275%);fill-opacity:1;" d="M 368.96875 139.070312 L 366.523438 139.347656 L 364.066406 139.21875 L 361.664062 138.730469 L 359.359375 137.960938 L 357.160156 137.019531 L 355 136.015625 L 352.761719 134.917969 L 350.359375 133.628906 L 347.785156 132.09375 L 345.070312 130.304688 L 342.664062 128.570312 L 340.164062 126.628906 L 337.667969 124.550781 L 335.21875 122.382812 L 332.859375 120.1875 L 330.605469 118.003906 L 328.433594 115.847656 L 326.300781 113.691406 L 324.273438 111.453125 L 322.480469 109.089844 L 321.042969 106.601562 L 320.066406 104.023438 L 319.621094 101.398438 L 319.597656 100.648438 L 319.863281 98.113281 L 320.636719 95.605469 L 321.867188 93.171875 L 323.464844 90.84375 L 325.335938 88.636719 L 327.355469 86.527344 L 329.425781 84.464844 L 331.554688 82.46875 L 333.792969 80.65625 L 336.152344 79.140625 L 338.605469 78.019531 L 341.121094 77.371094 L 343.023438 77.21875 L 345.652344 77.503906 L 348.246094 78.335938 L 350.761719 79.644531 L 353.15625 81.347656 L 355.425781 83.316406 L 357.597656 85.429688 L 359.746094 87.578125 L 361.941406 89.777344 L 364.195312 92.046875 L 366.480469 94.355469 L 368.757812 96.671875 L 370.976562 98.9375 L 371.628906 99.605469 L 374.0625 102.121094 L 376.3125 104.46875 L 378.339844 106.601562 L 380.140625 108.519531 L 381.769531 110.265625 L 383.335938 111.96875 L 384.792969 113.757812 L 385.996094 115.679688 L 386.8125 117.730469 L 387.15625 119.867188 L 387.132812 120.90625 L 386.679688 123.125 L 385.714844 125.328125 L 384.324219 127.457031 L 382.632812 129.472656 L 380.78125 131.390625 L 378.882812 133.269531 L 376.867188 135.066406 L 374.679688 136.671875 L 372.324219 137.972656 L 369.84375 138.867188 Z M 368.96875 139.070312 "/>
<path style=" stroke:none;fill-rule:nonzero;fill:rgb(95.686275%,95.686275%,95.686275%);fill-opacity:1;" d="M 420.738281 624.707031 L 418.394531 624.40625 L 416.097656 623.542969 L 413.898438 622.199219 L 411.835938 620.511719 L 409.886719 618.640625 L 407.980469 616.722656 L 406.105469 614.75 L 404.347656 612.71875 L 402.792969 610.664062 L 401.527344 608.652344 L 401.148438 607.941406 L 400.292969 605.867188 L 399.867188 603.972656 L 399.820312 602.28125 L 400.050781 600.789062 L 400.414062 599.410156 L 400.859375 597.964844 L 401.535156 596.320312 L 402.539062 594.429688 L 403.898438 592.3125 L 404.46875 591.511719 L 406.003906 589.515625 L 407.75 587.4375 L 409.648438 585.335938 L 411.621094 583.257812 L 413.613281 581.234375 L 415.605469 579.246094 L 417.65625 577.335938 L 419.832031 575.640625 L 422.136719 574.304688 L 424.535156 573.453125 L 426.972656 573.15625 L 426.976562 573.15625 L 429.457031 573.460938 L 431.894531 574.34375 L 434.234375 575.722656 L 436.441406 577.46875 L 438.523438 579.425781 L 440.546875 581.453125 L 442.53125 583.515625 L 444.398438 585.636719 L 446.039062 587.777344 L 447.359375 589.882812 L 448.148438 591.511719 L 448.800781 593.648438 L 448.945312 595.585938 L 448.648438 597.292969 L 448.027344 598.777344 L 447.25 600.132812 L 446.410156 601.519531 L 445.394531 603.066406 L 444.140625 604.816406 L 442.636719 606.75 L 441.65625 607.941406 L 439.976562 609.882812 L 438.160156 611.886719 L 436.265625 613.894531 L 434.355469 615.859375 L 432.46875 617.761719 L 430.585938 619.625 L 428.625 621.386719 L 426.535156 622.894531 L 424.328125 624.007812 L 422.046875 624.613281 Z M 420.738281 624.707031 "/>
<path style=" stroke:none;fill-rule:nonzero;fill:rgb(95.686275%,95.686275%,95.686275%);fill-opacity:1;" d="M 620.984375 316.773438 L 618.273438 316.472656 L 615.601562 315.589844 L 613.015625 314.203125 L 610.558594 312.414062 L 608.234375 310.351562 L 606.007812 308.164062 L 603.804688 305.941406 L 601.632812 303.675781 L 599.566406 301.371094 L 597.683594 299.066406 L 596.054688 296.816406 L 594.828125 294.820312 L 593.664062 292.378906 L 593.011719 290.191406 L 592.828125 288.285156 L 593 286.644531 L 593.363281 285.167969 L 593.785156 283.675781 L 594.378906 282.039062 L 595.21875 280.21875 L 596.351562 278.230469 L 597.371094 276.679688 L 598.863281 274.65625 L 600.554688 272.59375 L 602.375 270.546875 L 604.257812 268.5625 L 606.148438 266.648438 L 608.042969 264.769531 L 610.019531 263.003906 L 612.125 261.5 L 614.347656 260.398438 L 616.644531 259.808594 L 617.859375 259.726562 L 620.148438 260.011719 L 622.398438 260.839844 L 624.550781 262.128906 L 626.578125 263.75 L 628.488281 265.566406 L 630.359375 267.4375 L 632.261719 269.359375 L 634.1875 271.355469 L 636.097656 273.394531 L 637.929688 275.429688 L 639.015625 276.679688 L 640.707031 278.707031 L 642.203125 280.601562 L 643.480469 282.335938 L 644.5625 283.894531 L 645.515625 285.328125 L 646.402344 286.769531 L 647.09375 288.375 L 647.417969 290.230469 L 647.246094 292.355469 L 646.515625 294.722656 L 646.472656 294.820312 L 645.378906 296.992188 L 643.902344 299.265625 L 642.109375 301.589844 L 640.082031 303.910156 L 637.917969 306.1875 L 635.699219 308.421875 L 633.445312 310.621094 L 631.089844 312.667969 L 628.59375 314.425781 L 625.976562 315.753906 L 623.277344 316.558594 Z M 620.984375 316.773438 "/>
<path style=" stroke:none;fill-rule:nonzero;fill:rgb(95.686275%,95.686275%,95.686275%);fill-opacity:1;" d="M 246.304688 591.855469 L 243.613281 591.558594 L 240.964844 590.691406 L 238.398438 589.324219 L 235.957031 587.554688 L 233.644531 585.519531 L 231.433594 583.347656 L 229.25 581.136719 L 227.125 578.820312 L 225.144531 576.363281 L 223.394531 573.761719 L 221.964844 571.058594 L 220.914062 568.300781 L 220.894531 568.238281 L 220.242188 565.316406 L 220.03125 562.421875 L 220.226562 559.617188 L 220.753906 556.941406 L 221.511719 554.40625 L 222.371094 551.953125 L 223.277344 549.480469 L 224.285156 546.921875 L 225.445312 544.289062 L 226.757812 541.625 L 228.222656 538.992188 L 228.910156 537.851562 L 230.65625 535.210938 L 232.5 532.726562 L 234.386719 530.445312 L 236.261719 528.378906 L 238.097656 526.492188 L 239.917969 524.679688 L 241.804688 522.953125 L 243.808594 521.445312 L 245.929688 520.296875 L 248.128906 519.613281 L 249.871094 519.445312 L 252.160156 519.734375 L 254.402344 520.570312 L 256.554688 521.871094 L 258.574219 523.507812 L 260.480469 525.328125 L 262.347656 527.203125 L 264.226562 529.136719 L 266.085938 531.148438 L 267.863281 533.210938 L 269.484375 535.273438 L 270.199219 536.25 L 271.75 538.605469 L 272.957031 540.796875 L 273.835938 542.769531 L 274.464844 544.539062 L 275.007812 546.234375 L 275.535156 548.007812 L 276.015625 549.898438 L 276.410156 551.867188 L 276.621094 553.261719 L 276.820312 555.269531 L 276.886719 557.183594 L 276.847656 558.953125 L 276.738281 560.578125 L 276.582031 562.175781 L 276.179688 563.996094 L 275.316406 566.183594 L 273.878906 568.75 L 273.042969 570.007812 L 271.496094 572.109375 L 269.695312 574.320312 L 267.699219 576.597656 L 265.574219 578.875 L 263.390625 581.121094 L 261.195312 583.328125 L 258.976562 585.503906 L 256.664062 587.546875 L 254.214844 589.320312 L 251.644531 590.691406 L 248.984375 591.558594 Z M 246.304688 591.855469 "/>
<path style=" stroke:none;fill-rule:nonzero;fill:rgb(95.686275%,95.686275%,95.686275%);fill-opacity:1;" d="M 522.820312 164.191406 L 520.933594 164.574219 L 519.261719 164.425781 L 517.828125 163.828125 L 516.605469 162.921875 L 515.484375 161.890625 L 514.296875 160.773438 L 512.914062 159.457031 L 511.292969 157.898438 L 509.445312 156.101562 L 509.003906 155.671875 L 507.195312 153.894531 L 505.289062 152.011719 L 503.34375 150.082031 L 501.414062 148.160156 L 499.527344 146.273438 L 497.671875 144.398438 L 495.921875 142.441406 L 494.429688 140.359375 L 493.339844 138.15625 L 492.757812 135.886719 L 492.675781 134.679688 L 492.984375 132.308594 L 493.878906 129.988281 L 495.257812 127.773438 L 496.980469 125.695312 L 498.878906 123.734375 L 500.820312 121.808594 L 502.808594 119.972656 L 504.820312 118.339844 L 506.808594 117.03125 L 508.707031 116.128906 L 509.003906 116.027344 L 510.890625 115.65625 L 512.5625 115.820312 L 513.996094 116.4375 L 515.21875 117.359375 L 516.335938 118.414062 L 517.515625 119.550781 L 518.890625 120.882812 L 520.5 122.453125 L 522.332031 124.253906 L 522.820312 124.730469 L 524.625 126.515625 L 526.527344 128.402344 L 528.464844 130.332031 L 530.386719 132.25 L 532.265625 134.128906 L 534.117188 135.996094 L 535.855469 137.949219 L 537.335938 140.027344 L 538.414062 142.222656 L 538.980469 144.488281 L 539.054688 145.632812 L 538.746094 147.992188 L 537.855469 150.304688 L 536.476562 152.511719 L 534.757812 154.582031 L 532.863281 156.535156 L 530.929688 158.453125 L 528.949219 160.28125 L 526.9375 161.90625 L 524.957031 163.210938 L 523.066406 164.105469 Z M 522.820312 164.191406 "/>
<path style="fill:none;stroke-width:0.75;stroke-linecap:round;stroke-linejoin:round;stroke:rgb(66.27451%,66.27451%,66.27451%);stroke-opacity:1;stroke-miterlimit:10;" d="M 552.355469 531.367188 L 554.746094 531.8125 "/>
<path style="fill:none;stroke-width:0.75;stroke-linecap:round;stroke-linejoin:round;stroke:rgb(66.27451%,66.27451%,66.27451%);stroke-opacity:1;stroke-miterlimit:10;" d="M 353.214844 108.023438 L 353.386719 108.144531 "/>
<path style="fill:none;stroke-width:0.75;stroke-linecap:round;stroke-linejoin:round;stroke:rgb(66.27451%,66.27451%,66.27451%);stroke-opacity:1;stroke-miterlimit:10;" d="M 359.277344 112.621094 L 367.382812 119.0625 "/>
<path style="fill:none;stroke-width:0.75;stroke-linecap:round;stroke-linejoin:round;stroke:rgb(66.27451%,66.27451%,66.27451%);stroke-opacity:1;stroke-miterlimit:10;" d="M 424.878906 597.472656 L 421.910156 604.371094 "/>
<path style="fill:none;stroke-width:0.75;stroke-linecap:round;stroke-linejoin:round;stroke:rgb(66.27451%,66.27451%,66.27451%);stroke-opacity:1;stroke-miterlimit:10;" d="M 618.957031 282.984375 L 618.4375 280.3125 "/>
<path style="fill:none;stroke-width:0.75;stroke-linecap:round;stroke-linejoin:round;stroke:rgb(66.27451%,66.27451%,66.27451%);stroke-opacity:1;stroke-miterlimit:10;" d="M 252.039062 557.039062 L 251.519531 558.066406 "/>
<path style="fill:none;stroke-width:0.75;stroke-linecap:round;stroke-linejoin:round;stroke:rgb(66.27451%,66.27451%,66.27451%);stroke-opacity:1;stroke-miterlimit:10;" d="M 252.910156 549.5 L 250.5 539.460938 "/>
<path style="fill:none;stroke-width:0.75;stroke-linecap:round;stroke-linejoin:round;stroke:rgb(66.27451%,66.27451%,66.27451%);stroke-opacity:1;stroke-miterlimit:10;" d="M 519.777344 143.8125 L 512.15625 136.589844 "/>
<path style=" stroke:none;fill-rule:nonzero;fill:rgb(3.137255%,81.960784%,81.960784%);fill-opacity:1;" d="M 573.808594 407.800781 C 573.808594 413.863281 564.710938 413.863281 564.710938 407.800781 C 564.710938 401.734375 573.808594 401.734375 573.808594 407.800781 "/>
<path style=" stroke:none;fill-rule:nonzero;fill:rgb(3.137255%,81.960784%,81.960784%);fill-opacity:1;" d="M 408.261719 189.140625 C 408.261719 193.976562 401.011719 193.976562 401.011719 189.140625 C 401.011719 184.304688 408.261719 184.304688 408.261719 189.140625 "/>
<path style=" stroke:none;fill-rule:nonzero;fill:rgb(3.137255%,81.960784%,81.960784%);fill-opacity:1;" d="M 400.457031 480.328125 C 400.457031 484.222656 394.617188 484.222656 394.617188 480.328125 C 394.617188 476.4375 400.457031 476.4375 400.457031 480.328125 "/>
<path style=" stroke:none;fill-rule:nonzero;fill:rgb(3.137255%,81.960784%,81.960784%);fill-opacity:1;" d="M 585.675781 269.261719 C 585.675781 272.832031 580.316406 272.832031 580.316406 269.261719 C 580.316406 265.6875 585.675781 265.6875 585.675781 269.261719 "/>
<path style=" stroke:none;fill-rule:nonzero;fill:rgb(3.137255%,81.960784%,81.960784%);fill-opacity:1;" d="M 637.394531 381.234375 C 637.394531 384.910156 634.414062 387.890625 630.738281 387.890625 C 627.058594 387.890625 624.078125 384.910156 624.078125 381.234375 C 624.078125 377.554688 627.058594 374.574219 630.738281 374.574219 C 634.414062 374.574219 637.394531 377.554688 637.394531 381.234375 "/>
<path style=" stroke:none;fill-rule:nonzero;fill:rgb(3.137255%,81.960784%,81.960784%);fill-opacity:1;" d="M 533.6875 483.863281 C 533.6875 487.460938 528.292969 487.460938 528.292969 483.863281 C 528.292969 480.269531 533.6875 480.269531 533.6875 483.863281 "/>
<path style=" stroke:none;fill-rule:nonzero;fill:rgb(3.137255%,81.960784%,81.960784%);fill-opacity:1;" d="M 568.875 339.902344 L 589.597656 339.902344 L 589.597656 360.625 L 568.875 360.625 Z M 568.875 339.902344 "/>
<path style=" stroke:none;fill-rule:nonzero;fill:rgb(3.137255%,81.960784%,81.960784%);fill-opacity:1;" d="M 547.214844 457.332031 C 547.214844 460.90625 541.855469 460.90625 541.855469 457.332031 C 541.855469 453.757812 547.214844 453.757812 547.214844 457.332031 "/>
<path style=" stroke:none;fill-rule:nonzero;fill:rgb(3.137255%,81.960784%,81.960784%);fill-opacity:1;" d="M 239.460938 344.125 C 239.460938 347.898438 233.800781 347.898438 233.800781 344.125 C 233.800781 340.351562 239.460938 340.351562 239.460938 344.125 "/>
<path style=" stroke:none;fill-rule:nonzero;fill:rgb(3.137255%,81.960784%,81.960784%);fill-opacity:1;" d="M 259.800781 409.6875 C 259.800781 413.15625 254.589844 413.15625 254.589844 409.6875 C 254.589844 406.214844 259.800781 406.214844 259.800781 409.6875 "/>
<path style=" stroke:none;fill-rule:nonzero;fill:rgb(3.137255%,81.960784%,81.960784%);fill-opacity:1;" d="M 179.558594 372.980469 C 179.558594 376.769531 173.875 376.769531 173.875 372.980469 C 173.875 369.1875 179.558594 369.1875 179.558594 372.980469 "/>
<path style=" stroke:none;fill-rule:nonzero;fill:rgb(3.137255%,81.960784%,81.960784%);fill-opacity:1;" d="M 400.5 326.0625 C 400.5 329.597656 395.195312 329.597656 395.195312 326.0625 C 395.195312 322.527344 400.5 322.527344 400.5 326.0625 "/>
<path style=" stroke:none;fill-rule:nonzero;fill:rgb(3.137255%,81.960784%,81.960784%);fill-opacity:1;" d="M 431 352.800781 C 431 356.351562 425.667969 356.351562 425.667969 352.800781 C 425.667969 349.246094 431 349.246094 431 352.800781 "/>
<path style=" stroke:none;fill-rule:nonzero;fill:rgb(3.137255%,81.960784%,81.960784%);fill-opacity:1;" d="M 465.664062 299.34375 C 465.664062 302.824219 460.449219 302.824219 460.449219 299.34375 C 460.449219 295.867188 465.664062 295.867188 465.664062 299.34375 "/>
<path style=" stroke:none;fill-rule:nonzero;fill:rgb(3.137255%,81.960784%,81.960784%);fill-opacity:1;" d="M 579.683594 190.550781 C 579.683594 194.035156 574.457031 194.035156 574.457031 190.550781 C 574.457031 187.066406 579.683594 187.066406 579.683594 190.550781 "/>
<path style=" stroke:none;fill-rule:nonzero;fill:rgb(3.137255%,81.960784%,81.960784%);fill-opacity:1;" d="M 521.042969 205.03125 C 521.042969 208.613281 515.667969 208.613281 515.667969 205.03125 C 515.667969 201.449219 521.042969 201.449219 521.042969 205.03125 "/>
<path style=" stroke:none;fill-rule:nonzero;fill:rgb(3.137255%,81.960784%,81.960784%);fill-opacity:1;" d="M 434.359375 136.425781 C 434.359375 139.945312 429.074219 139.945312 429.074219 136.425781 C 429.074219 132.902344 434.359375 132.902344 434.359375 136.425781 "/>
<path style=" stroke:none;fill-rule:nonzero;fill:rgb(3.137255%,81.960784%,81.960784%);fill-opacity:1;" d="M 279.171875 522.644531 C 279.171875 526.15625 273.898438 526.15625 273.898438 522.644531 C 273.898438 519.128906 279.171875 519.128906 279.171875 522.644531 "/>
<path style=" stroke:none;fill-rule:nonzero;fill:rgb(3.137255%,81.960784%,81.960784%);fill-opacity:1;" d="M 435.132812 487.859375 C 435.132812 494.136719 425.714844 494.136719 425.714844 487.859375 C 425.714844 481.582031 435.132812 481.582031 435.132812 487.859375 "/>
<path style=" stroke:none;fill-rule:nonzero;fill:rgb(3.137255%,81.960784%,81.960784%);fill-opacity:1;" d="M 428.105469 423.613281 C 428.105469 427.3125 422.554688 427.3125 422.554688 423.613281 C 422.554688 419.914062 428.105469 419.914062 428.105469 423.613281 "/>
<path style=" stroke:none;fill-rule:nonzero;fill:rgb(3.137255%,81.960784%,81.960784%);fill-opacity:1;" d="M 358.539062 223.792969 C 358.539062 227.742188 352.617188 227.742188 352.617188 223.792969 C 352.617188 219.84375 358.539062 219.84375 358.539062 223.792969 "/>
<path style=" stroke:none;fill-rule:nonzero;fill:rgb(3.137255%,81.960784%,81.960784%);fill-opacity:1;" d="M 309.921875 504.816406 L 330.644531 504.816406 L 330.644531 525.539062 L 309.921875 525.539062 Z M 309.921875 504.816406 "/>
<path style=" stroke:none;fill-rule:nonzero;fill:rgb(3.137255%,81.960784%,81.960784%);fill-opacity:1;" d="M 532.84375 297.820312 C 532.84375 301.347656 527.550781 301.347656 527.550781 297.820312 C 527.550781 294.289062 532.84375 294.289062 532.84375 297.820312 "/>
<path style=" stroke:none;fill-rule:nonzero;fill:rgb(3.137255%,81.960784%,81.960784%);fill-opacity:1;" d="M 318.089844 102.203125 C 318.089844 105.695312 312.851562 105.695312 312.851562 102.203125 C 312.851562 98.710938 318.089844 98.710938 318.089844 102.203125 "/>
<path style=" stroke:none;fill-rule:nonzero;fill:rgb(3.137255%,81.960784%,81.960784%);fill-opacity:1;" d="M 437.566406 259.570312 L 458.289062 259.570312 L 458.289062 280.292969 L 437.566406 280.292969 Z M 437.566406 259.570312 "/>
<path style=" stroke:none;fill-rule:nonzero;fill:rgb(3.137255%,81.960784%,81.960784%);fill-opacity:1;" d="M 162.066406 302.460938 L 182.789062 302.460938 L 182.789062 323.183594 L 162.066406 323.183594 Z M 162.066406 302.460938 "/>
<path style=" stroke:none;fill-rule:nonzero;fill:rgb(3.137255%,81.960784%,81.960784%);fill-opacity:1;" d="M 447.847656 416.710938 L 468.570312 416.710938 L 468.570312 437.433594 L 447.847656 437.433594 Z M 447.847656 416.710938 "/>
<path style=" stroke:none;fill-rule:nonzero;fill:rgb(3.137255%,81.960784%,81.960784%);fill-opacity:1;" d="M 493.496094 432.386719 C 493.496094 435.847656 488.308594 435.847656 488.308594 432.386719 C 488.308594 428.925781 493.496094 428.925781 493.496094 432.386719 "/>
<path style=" stroke:none;fill-rule:nonzero;fill:rgb(3.137255%,81.960784%,81.960784%);fill-opacity:1;" d="M 402.171875 584.820312 C 402.171875 588.296875 396.957031 588.296875 396.957031 584.820312 C 396.957031 581.34375 402.171875 581.34375 402.171875 584.820312 "/>
<path style=" stroke:none;fill-rule:nonzero;fill:rgb(3.137255%,81.960784%,81.960784%);fill-opacity:1;" d="M 409.140625 107.90625 C 409.140625 111.527344 403.707031 111.527344 403.707031 107.90625 C 403.707031 104.285156 409.140625 104.285156 409.140625 107.90625 "/>
<path style=" stroke:none;fill-rule:nonzero;fill:rgb(3.137255%,81.960784%,81.960784%);fill-opacity:1;" d="M 168.199219 247.855469 C 168.199219 251.554688 162.652344 251.554688 162.652344 247.855469 C 162.652344 244.160156 168.199219 244.160156 168.199219 247.855469 "/>
<path style=" stroke:none;fill-rule:nonzero;fill:rgb(3.137255%,81.960784%,81.960784%);fill-opacity:1;" d="M 461.523438 557.128906 C 461.523438 560.597656 456.316406 560.597656 456.316406 557.128906 C 456.316406 553.65625 461.523438 553.65625 461.523438 557.128906 "/>
<path style=" stroke:none;fill-rule:nonzero;fill:rgb(74.901961%,43.921569%,13.333333%);fill-opacity:1;" d="M 220.296875 468.222656 C 220.296875 471.707031 215.066406 471.707031 215.066406 468.222656 C 215.066406 464.734375 220.296875 464.734375 220.296875 468.222656 "/>
<path style=" stroke:none;fill-rule:nonzero;fill:rgb(74.901961%,43.921569%,13.333333%);fill-opacity:1;" d="M 397.554688 406.257812 C 397.554688 409.757812 392.304688 409.757812 392.304688 406.257812 C 392.304688 402.757812 397.554688 402.757812 397.554688 406.257812 "/>
<path style=" stroke:none;fill-rule:nonzero;fill:rgb(18.039216%,73.72549%,50.980392%);fill-opacity:1;" d="M 346 585.800781 C 346 590.230469 339.355469 590.230469 339.355469 585.800781 C 339.355469 581.371094 346 581.371094 346 585.800781 "/>
<path style=" stroke:none;fill-rule:nonzero;fill:rgb(18.039216%,56.862745%,73.72549%);fill-opacity:1;" d="M 271.960938 444.621094 C 271.960938 448.175781 266.636719 448.175781 266.636719 444.621094 C 266.636719 441.070312 271.960938 441.070312 271.960938 444.621094 "/>
<path style=" stroke:none;fill-rule:nonzero;fill:rgb(18.039216%,35.294118%,73.72549%);fill-opacity:1;" d="M 190.195312 226.117188 C 190.195312 229.636719 184.914062 229.636719 184.914062 226.117188 C 184.914062 222.597656 190.195312 222.597656 190.195312 226.117188 "/>
<path style=" stroke:none;fill-rule:nonzero;fill:rgb(18.039216%,35.294118%,73.72549%);fill-opacity:1;" d="M 186.375 411.292969 C 186.375 418.277344 175.898438 418.277344 175.898438 411.292969 C 175.898438 404.3125 186.375 404.3125 186.375 411.292969 "/>
<path style=" stroke:none;fill-rule:nonzero;fill:rgb(18.039216%,35.294118%,73.72549%);fill-opacity:1;" d="M 481.890625 463.105469 C 481.890625 466.710938 476.480469 466.710938 476.480469 463.105469 C 476.480469 459.5 481.890625 459.5 481.890625 463.105469 "/>
<path style=" stroke:none;fill-rule:nonzero;fill:rgb(18.039216%,35.294118%,73.72549%);fill-opacity:1;" d="M 555.269531 222.296875 C 555.269531 229.449219 549.46875 235.25 542.316406 235.25 C 535.160156 235.25 529.363281 229.449219 529.363281 222.296875 C 529.363281 215.144531 535.160156 209.34375 542.316406 209.34375 C 549.46875 209.34375 555.269531 215.144531 555.269531 222.296875 "/>
<path style=" stroke:none;fill-rule:nonzero;fill:rgb(18.039216%,35.294118%,73.72549%);fill-opacity:1;" d="M 462.898438 334.128906 C 462.898438 337.757812 457.457031 337.757812 457.457031 334.128906 C 457.457031 330.503906 462.898438 330.503906 462.898438 334.128906 "/>
<path style=" stroke:none;fill-rule:nonzero;fill:rgb(18.039216%,35.294118%,73.72549%);fill-opacity:1;" d="M 305.277344 325.109375 C 305.277344 328.652344 299.960938 328.652344 299.960938 325.109375 C 299.960938 321.566406 305.277344 321.566406 305.277344 325.109375 "/>
<path style=" stroke:none;fill-rule:nonzero;fill:rgb(18.039216%,35.294118%,73.72549%);fill-opacity:1;" d="M 440.257812 522.984375 C 440.257812 526.46875 435.03125 526.46875 435.03125 522.984375 C 435.03125 519.5 440.257812 519.5 440.257812 522.984375 "/>
<path style=" stroke:none;fill-rule:nonzero;fill:rgb(18.039216%,35.294118%,73.72549%);fill-opacity:1;" d="M 607.917969 368.074219 C 607.917969 371.535156 602.726562 371.535156 602.726562 368.074219 C 602.726562 364.613281 607.917969 364.613281 607.917969 368.074219 "/>
<path style=" stroke:none;fill-rule:nonzero;fill:rgb(18.039216%,35.294118%,73.72549%);fill-opacity:1;" d="M 172.296875 344.5625 C 172.296875 348.039062 167.085938 348.039062 167.085938 344.5625 C 167.085938 341.089844 172.296875 341.089844 172.296875 344.5625 "/>
<path style=" stroke:none;fill-rule:nonzero;fill:rgb(18.039216%,35.294118%,73.72549%);fill-opacity:1;" d="M 371.9375 427.835938 L 392.660156 427.835938 L 392.660156 448.558594 L 371.9375 448.558594 Z M 371.9375 427.835938 "/>
<path style=" stroke:none;fill-rule:nonzero;fill:rgb(18.039216%,35.294118%,73.72549%);fill-opacity:1;" d="M 499.03125 298.484375 C 499.03125 302.011719 493.734375 302.011719 493.734375 298.484375 C 493.734375 294.953125 499.03125 294.953125 499.03125 298.484375 "/>
<path style=" stroke:none;fill-rule:nonzero;fill:rgb(18.039216%,35.294118%,73.72549%);fill-opacity:1;" d="M 339.53125 246.164062 C 339.53125 250.628906 335.914062 254.246094 331.449219 254.246094 C 326.984375 254.246094 323.367188 250.628906 323.367188 246.164062 C 323.367188 241.703125 326.984375 238.082031 331.449219 238.082031 C 335.914062 238.082031 339.53125 241.703125 339.53125 246.164062 "/>
<path style=" stroke:none;fill-rule:nonzero;fill:rgb(18.039216%,35.294118%,73.72549%);fill-opacity:1;" d="M 175.824219 491.503906 C 175.824219 494.992188 170.59375 494.992188 170.59375 491.503906 C 170.59375 488.019531 175.824219 488.019531 175.824219 491.503906 "/>
<path style=" stroke:none;fill-rule:nonzero;fill:rgb(18.039216%,35.294118%,73.72549%);fill-opacity:1;" d="M 366.878906 172.046875 C 366.878906 177.710938 358.382812 177.710938 358.382812 172.046875 C 358.382812 166.382812 366.878906 166.382812 366.878906 172.046875 "/>
<path style=" stroke:none;fill-rule:nonzero;fill:rgb(18.039216%,35.294118%,73.72549%);fill-opacity:1;" d="M 192.460938 470.589844 C 192.460938 474.0625 187.25 474.0625 187.25 470.589844 C 187.25 467.117188 192.460938 467.117188 192.460938 470.589844 "/>
<path style=" stroke:none;fill-rule:nonzero;fill:rgb(18.039216%,35.294118%,73.72549%);fill-opacity:1;" d="M 532.910156 174.308594 C 532.910156 178.214844 529.742188 181.382812 525.832031 181.382812 C 521.925781 181.382812 518.757812 178.214844 518.757812 174.308594 C 518.757812 170.398438 521.925781 167.230469 525.832031 167.230469 C 529.742188 167.230469 532.910156 170.398438 532.910156 174.308594 "/>
<path style=" stroke:none;fill-rule:nonzero;fill:rgb(18.039216%,35.294118%,73.72549%);fill-opacity:1;" d="M 391.085938 289.40625 C 391.085938 295.996094 381.203125 295.996094 381.203125 289.40625 C 381.203125 282.816406 391.085938 282.816406 391.085938 289.40625 "/>
<path style=" stroke:none;fill-rule:nonzero;fill:rgb(18.039216%,35.294118%,73.72549%);fill-opacity:1;" d="M 462.542969 370.023438 C 462.542969 373.671875 457.070312 373.671875 457.070312 370.023438 C 457.070312 366.375 462.542969 366.375 462.542969 370.023438 "/>
<path style=" stroke:none;fill-rule:nonzero;fill:rgb(18.039216%,35.294118%,73.72549%);fill-opacity:1;" d="M 261.304688 500.15625 C 261.304688 503.621094 256.109375 503.621094 256.109375 500.15625 C 256.109375 496.691406 261.304688 496.691406 261.304688 500.15625 "/>
<path style=" stroke:none;fill-rule:nonzero;fill:rgb(18.039216%,35.294118%,73.72549%);fill-opacity:1;" d="M 500.492188 531.71875 L 521.214844 531.71875 L 521.214844 552.441406 L 500.492188 552.441406 Z M 500.492188 531.71875 "/>
<path style=" stroke:none;fill-rule:nonzero;fill:rgb(18.039216%,35.294118%,73.72549%);fill-opacity:1;" d="M 598.691406 484.25 C 598.691406 487.910156 593.203125 487.910156 593.203125 484.25 C 593.203125 480.589844 598.691406 480.589844 598.691406 484.25 "/>
<path style=" stroke:none;fill-rule:nonzero;fill:rgb(18.039216%,35.294118%,73.72549%);fill-opacity:1;" d="M 494.351562 520.875 C 494.351562 525.066406 488.070312 525.066406 488.070312 520.875 C 488.070312 516.6875 494.351562 516.6875 494.351562 520.875 "/>
<path style=" stroke:none;fill-rule:nonzero;fill:rgb(3.529412%,80.784314%,55.294118%);fill-opacity:1;" d="M 491.578125 146.683594 C 491.578125 149.914062 488.960938 152.53125 485.730469 152.53125 C 482.503906 152.53125 479.886719 149.914062 479.886719 146.683594 C 479.886719 143.457031 482.503906 140.839844 485.730469 140.839844 C 488.960938 140.839844 491.578125 143.457031 491.578125 146.683594 "/>
<path style=" stroke:none;fill-rule:nonzero;fill:rgb(87.843137%,65.098039%,3.137255%);fill-opacity:1;" d="M 550.363281 347.886719 C 550.363281 351.421875 545.0625 351.421875 545.0625 347.886719 C 545.0625 344.351562 550.363281 344.351562 550.363281 347.886719 "/>
<path style=" stroke:none;fill-rule:nonzero;fill:rgb(87.843137%,65.098039%,3.137255%);fill-opacity:1;" d="M 204.882812 501.074219 C 204.882812 504.734375 199.390625 504.734375 199.390625 501.074219 C 199.390625 497.410156 204.882812 497.410156 204.882812 501.074219 "/>
<path style=" stroke:none;fill-rule:nonzero;fill:rgb(3.529412%,44.705882%,39.607843%);fill-opacity:1;" d="M 257.714844 258.359375 C 257.714844 261.851562 252.476562 261.851562 252.476562 258.359375 C 252.476562 254.867188 257.714844 254.867188 257.714844 258.359375 "/>
<path style=" stroke:none;fill-rule:nonzero;fill:rgb(3.529412%,44.705882%,39.607843%);fill-opacity:1;" d="M 148.917969 307.929688 C 148.917969 311.773438 143.152344 311.773438 143.152344 307.929688 C 143.152344 304.085938 148.917969 304.085938 148.917969 307.929688 "/>
<path style=" stroke:none;fill-rule:nonzero;fill:rgb(3.529412%,44.705882%,39.607843%);fill-opacity:1;" d="M 567.671875 375.863281 C 567.671875 379.519531 562.1875 379.519531 562.1875 375.863281 C 562.1875 372.207031 567.671875 372.207031 567.671875 375.863281 "/>
<path style=" stroke:none;fill-rule:nonzero;fill:rgb(3.529412%,44.705882%,39.607843%);fill-opacity:1;" d="M 181.652344 444.894531 C 181.652344 448.550781 176.171875 448.550781 176.171875 444.894531 C 176.171875 441.242188 181.652344 441.242188 181.652344 444.894531 "/>
<path style=" stroke:none;fill-rule:nonzero;fill:rgb(67.058824%,33.72549%,84.705882%);fill-opacity:1;" d="M 531.628906 519.066406 L 552.351562 519.066406 L 552.351562 539.789062 L 531.628906 539.789062 Z M 531.628906 519.066406 "/>
<path style=" stroke:none;fill-rule:nonzero;fill:rgb(67.058824%,33.72549%,84.705882%);fill-opacity:1;" d="M 360.101562 110.253906 C 360.101562 115.324219 352.492188 115.324219 352.492188 110.253906 C 352.492188 105.179688 360.101562 105.179688 360.101562 110.253906 "/>
<path style=" stroke:none;fill-rule:nonzero;fill:rgb(67.058824%,33.72549%,84.705882%);fill-opacity:1;" d="M 388.578125 609.023438 C 388.578125 615.027344 379.574219 615.027344 379.574219 609.023438 C 379.574219 603.019531 388.578125 603.019531 388.578125 609.023438 "/>
<path style=" stroke:none;fill-rule:nonzero;fill:rgb(67.058824%,33.72549%,84.705882%);fill-opacity:1;" d="M 432.277344 592.605469 C 432.277344 599.671875 421.671875 599.671875 421.671875 592.605469 C 421.671875 585.535156 432.277344 585.535156 432.277344 592.605469 "/>
<path style=" stroke:none;fill-rule:nonzero;fill:rgb(67.058824%,33.72549%,84.705882%);fill-opacity:1;" d="M 249.78125 286.773438 C 249.78125 290.3125 244.472656 290.3125 244.472656 286.773438 C 244.472656 283.234375 249.78125 283.234375 249.78125 286.773438 "/>
<path style=" stroke:none;fill-rule:nonzero;fill:rgb(67.058824%,33.72549%,84.705882%);fill-opacity:1;" d="M 599.988281 219.59375 C 599.988281 223.21875 594.550781 223.21875 594.550781 219.59375 C 594.550781 215.96875 599.988281 215.96875 599.988281 219.59375 "/>
<path style=" stroke:none;fill-rule:nonzero;fill:rgb(67.058824%,33.72549%,84.705882%);fill-opacity:1;" d="M 404.523438 372.429688 C 404.523438 376.132812 398.964844 376.132812 398.964844 372.429688 C 398.964844 368.722656 404.523438 368.722656 404.523438 372.429688 "/>
<path style=" stroke:none;fill-rule:nonzero;fill:rgb(67.058824%,33.72549%,84.705882%);fill-opacity:1;" d="M 155.566406 459.707031 C 155.566406 463.726562 149.542969 463.726562 149.542969 459.707031 C 149.542969 455.691406 155.566406 455.691406 155.566406 459.707031 "/>
<path style=" stroke:none;fill-rule:nonzero;fill:rgb(67.058824%,33.72549%,84.705882%);fill-opacity:1;" d="M 176.433594 517.453125 C 176.433594 522.300781 169.15625 522.300781 169.15625 517.453125 C 169.15625 512.601562 176.433594 512.601562 176.433594 517.453125 "/>
<path style=" stroke:none;fill-rule:nonzero;fill:rgb(3.921569%,62.745098%,12.156863%);fill-opacity:1;" d="M 530.796875 245.519531 C 530.796875 249.390625 524.984375 249.390625 524.984375 245.519531 C 524.984375 241.644531 530.796875 241.644531 530.796875 245.519531 "/>
<path style=" stroke:none;fill-rule:nonzero;fill:rgb(3.921569%,62.745098%,12.156863%);fill-opacity:1;" d="M 254.734375 123.214844 C 254.734375 126.863281 249.261719 126.863281 249.261719 123.214844 C 249.261719 119.5625 254.734375 119.5625 254.734375 123.214844 "/>
<path style=" stroke:none;fill-rule:nonzero;fill:rgb(3.921569%,62.745098%,12.156863%);fill-opacity:1;" d="M 283.308594 181.253906 C 283.308594 185.332031 277.195312 185.332031 277.195312 181.253906 C 277.195312 177.179688 283.308594 177.179688 283.308594 181.253906 "/>
<path style=" stroke:none;fill-rule:nonzero;fill:rgb(3.921569%,62.745098%,12.156863%);fill-opacity:1;" d="M 291.601562 235.203125 C 291.601562 239.496094 285.160156 239.496094 285.160156 235.203125 C 285.160156 230.90625 291.601562 230.90625 291.601562 235.203125 "/>
<path style=" stroke:none;fill-rule:nonzero;fill:rgb(3.921569%,62.745098%,12.156863%);fill-opacity:1;" d="M 291.007812 265.070312 C 291.007812 268.875 285.300781 268.875 285.300781 265.070312 C 285.300781 261.265625 291.007812 261.265625 291.007812 265.070312 "/>
<path style=" stroke:none;fill-rule:nonzero;fill:rgb(3.921569%,62.745098%,12.156863%);fill-opacity:1;" d="M 138.726562 251.988281 C 138.726562 257.183594 130.933594 257.183594 130.933594 251.988281 C 130.933594 246.792969 138.726562 246.792969 138.726562 251.988281 "/>
<path style=" stroke:none;fill-rule:nonzero;fill:rgb(3.921569%,62.745098%,12.156863%);fill-opacity:1;" d="M 196.03125 256.863281 C 196.03125 260.671875 190.316406 260.671875 190.316406 256.863281 C 190.316406 253.054688 196.03125 253.054688 196.03125 256.863281 "/>
<path style=" stroke:none;fill-rule:nonzero;fill:rgb(3.921569%,62.745098%,12.156863%);fill-opacity:1;" d="M 455.914062 587.667969 C 455.914062 591.601562 450.011719 591.601562 450.011719 587.667969 C 450.011719 583.734375 455.914062 583.734375 455.914062 587.667969 "/>
<path style=" stroke:none;fill-rule:nonzero;fill:rgb(3.921569%,62.745098%,12.156863%);fill-opacity:1;" d="M 610.621094 282.984375 L 631.34375 282.984375 L 631.34375 303.707031 L 610.621094 303.707031 Z M 610.621094 282.984375 "/>
<path style=" stroke:none;fill-rule:nonzero;fill:rgb(3.921569%,62.745098%,12.156863%);fill-opacity:1;" d="M 257.894531 553.429688 C 257.894531 558.816406 249.8125 558.816406 249.8125 553.429688 C 249.8125 548.042969 257.894531 548.042969 257.894531 553.429688 "/>
<path style=" stroke:none;fill-rule:nonzero;fill:rgb(3.921569%,62.745098%,12.156863%);fill-opacity:1;" d="M 524.339844 145.632812 C 524.339844 149.15625 519.050781 149.15625 519.050781 145.632812 C 519.050781 142.105469 524.339844 142.105469 524.339844 145.632812 "/>
<path style=" stroke:none;fill-rule:nonzero;fill:rgb(3.921569%,62.745098%,12.156863%);fill-opacity:1;" d="M 496.40625 365.832031 C 496.40625 371.28125 488.230469 371.28125 488.230469 365.832031 C 488.230469 360.378906 496.40625 360.378906 496.40625 365.832031 "/>
<path style=" stroke:none;fill-rule:nonzero;fill:rgb(3.921569%,62.745098%,12.156863%);fill-opacity:1;" d="M 625.398438 406.316406 C 625.398438 410.195312 619.582031 410.195312 619.582031 406.316406 C 619.582031 402.441406 625.398438 402.441406 625.398438 406.316406 "/>
<path style=" stroke:none;fill-rule:nonzero;fill:rgb(3.921569%,62.745098%,12.156863%);fill-opacity:1;" d="M 462.425781 201.949219 C 462.425781 209.125 451.667969 209.125 451.667969 201.949219 C 451.667969 194.777344 462.425781 194.777344 462.425781 201.949219 "/>
<path style=" stroke:none;fill-rule:nonzero;fill:rgb(3.921569%,62.745098%,12.156863%);fill-opacity:1;" d="M 296.636719 597.324219 C 296.636719 602.492188 288.882812 602.492188 288.882812 597.324219 C 288.882812 592.15625 296.636719 592.15625 296.636719 597.324219 "/>
<path style=" stroke:none;fill-rule:nonzero;fill:rgb(3.921569%,62.745098%,12.156863%);fill-opacity:1;" d="M 121.832031 394.054688 C 121.832031 397.539062 116.605469 397.539062 116.605469 394.054688 C 116.605469 390.570312 121.832031 390.570312 121.832031 394.054688 "/>
<path style=" stroke:none;fill-rule:nonzero;fill:rgb(3.921569%,62.745098%,12.156863%);fill-opacity:1;" d="M 221.277344 173.984375 C 221.277344 177.585938 215.875 177.585938 215.875 173.984375 C 215.875 170.382812 221.277344 170.382812 221.277344 173.984375 "/>
<path style=" stroke:none;fill-rule:nonzero;fill:rgb(3.921569%,62.745098%,12.156863%);fill-opacity:1;" d="M 592.9375 295.800781 C 592.9375 299.667969 587.136719 299.667969 587.136719 295.800781 C 587.136719 291.929688 592.9375 291.929688 592.9375 295.800781 "/>
<path style=" stroke:none;fill-rule:nonzero;fill:rgb(3.921569%,62.745098%,12.156863%);fill-opacity:1;" d="M 195.480469 165.867188 C 195.480469 169.601562 189.878906 169.601562 189.878906 165.867188 C 189.878906 162.132812 195.480469 162.132812 195.480469 165.867188 "/>
<path style=" stroke:none;fill-rule:nonzero;fill:rgb(3.921569%,62.745098%,12.156863%);fill-opacity:1;" d="M 346.328125 405.703125 L 367.050781 405.703125 L 367.050781 426.425781 L 346.328125 426.425781 Z M 346.328125 405.703125 "/>
<path style=" stroke:none;fill-rule:nonzero;fill:rgb(3.921569%,62.745098%,12.156863%);fill-opacity:1;" d="M 227.199219 410.828125 C 227.199219 415.007812 220.929688 415.007812 220.929688 410.828125 C 220.929688 406.652344 227.199219 406.652344 227.199219 410.828125 "/>
<path style=" stroke:none;fill-rule:nonzero;fill:rgb(3.921569%,62.745098%,12.156863%);fill-opacity:1;" d="M 197.851562 533.320312 C 197.851562 538.019531 190.804688 538.019531 190.804688 533.320312 C 190.804688 528.625 197.851562 528.625 197.851562 533.320312 "/>
<path style=" stroke:none;fill-rule:nonzero;fill:rgb(3.921569%,62.745098%,12.156863%);fill-opacity:1;" d="M 355.136719 611.847656 C 355.136719 615.328125 349.914062 615.328125 349.914062 611.847656 C 349.914062 608.367188 355.136719 608.367188 355.136719 611.847656 "/>
<path style=" stroke:none;fill-rule:nonzero;fill:rgb(3.921569%,62.745098%,12.156863%);fill-opacity:1;" d="M 233.917969 377.976562 C 233.917969 381.535156 228.578125 381.535156 228.578125 377.976562 C 228.578125 374.414062 233.917969 374.414062 233.917969 377.976562 "/>
<path style=" stroke:none;fill-rule:nonzero;fill:rgb(3.921569%,62.745098%,12.156863%);fill-opacity:1;" d="M 275.136719 155.300781 C 275.136719 162 265.089844 162 265.089844 155.300781 C 265.089844 148.605469 275.136719 148.605469 275.136719 155.300781 "/>
<path style=" stroke:none;fill-rule:nonzero;fill:rgb(3.921569%,62.745098%,12.156863%);fill-opacity:1;" d="M 434.59375 98.9375 C 434.59375 105.390625 424.914062 105.390625 424.914062 98.9375 C 424.914062 92.484375 434.59375 92.484375 434.59375 98.9375 "/>
<path style=" stroke:none;fill-rule:nonzero;fill:rgb(3.921569%,62.745098%,12.156863%);fill-opacity:1;" d="M 153.3125 276.125 C 153.3125 281.753906 144.871094 281.753906 144.871094 276.125 C 144.871094 270.496094 153.3125 270.496094 153.3125 276.125 "/>
<path style=" stroke:none;fill-rule:nonzero;fill:rgb(3.921569%,62.745098%,12.156863%);fill-opacity:1;" d="M 384.058594 151.644531 C 384.058594 155.230469 378.679688 155.230469 378.679688 151.644531 C 378.679688 148.058594 384.058594 148.058594 384.058594 151.644531 "/>
<path style=" stroke:none;fill-rule:nonzero;fill:rgb(3.921569%,62.745098%,12.156863%);fill-opacity:1;" d="M 592.359375 321.171875 C 592.359375 326.359375 584.582031 326.359375 584.582031 321.171875 C 584.582031 315.988281 592.359375 315.988281 592.359375 321.171875 "/>
<path style=" stroke:none;fill-rule:nonzero;fill:rgb(3.921569%,62.745098%,12.156863%);fill-opacity:1;" d="M 440.097656 239.023438 C 440.097656 242.609375 434.714844 242.609375 434.714844 239.023438 C 434.714844 235.433594 440.097656 235.433594 440.097656 239.023438 "/>
<path style=" stroke:none;fill-rule:nonzero;fill:rgb(3.921569%,62.745098%,12.156863%);fill-opacity:1;" d="M 524.3125 271.089844 C 524.3125 276.785156 519.691406 281.40625 513.992188 281.40625 C 508.296875 281.40625 503.675781 276.785156 503.675781 271.089844 C 503.675781 265.390625 508.296875 260.769531 513.992188 260.769531 C 519.691406 260.769531 524.3125 265.390625 524.3125 271.089844 "/>
<path style=" stroke:none;fill-rule:nonzero;fill:rgb(3.921569%,62.745098%,12.156863%);fill-opacity:1;" d="M 218.152344 560.792969 C 218.152344 564.261719 212.945312 564.261719 212.945312 560.792969 C 212.945312 557.324219 218.152344 557.324219 218.152344 560.792969 "/>
<path style=" stroke:none;fill-rule:nonzero;fill:rgb(3.921569%,62.745098%,12.156863%);fill-opacity:1;" d="M 281.46875 379.910156 L 302.191406 379.910156 L 302.191406 400.632812 L 281.46875 400.632812 Z M 281.46875 379.910156 "/>
<path style=" stroke:none;fill-rule:nonzero;fill:rgb(3.921569%,62.745098%,12.156863%);fill-opacity:1;" d="M 292.019531 108.164062 C 292.019531 111.679688 286.746094 111.679688 286.746094 108.164062 C 286.746094 104.648438 292.019531 104.648438 292.019531 108.164062 "/>
<path style=" stroke:none;fill-rule:nonzero;fill:rgb(3.921569%,62.745098%,12.156863%);fill-opacity:1;" d="M 122.480469 312.378906 C 122.480469 316.46875 116.347656 316.46875 116.347656 312.378906 C 116.347656 308.292969 122.480469 308.292969 122.480469 312.378906 "/>
<path style=" stroke:none;fill-rule:nonzero;fill:rgb(3.921569%,62.745098%,12.156863%);fill-opacity:1;" d="M 230.257812 312.964844 C 230.257812 316.460938 225.011719 316.460938 225.011719 312.964844 C 225.011719 309.464844 230.257812 309.464844 230.257812 312.964844 "/>
<path style=" stroke:none;fill-rule:nonzero;fill:rgb(3.921569%,62.745098%,12.156863%);fill-opacity:1;" d="M 276.296875 346.308594 C 276.296875 350.109375 270.59375 350.109375 270.59375 346.308594 C 270.59375 342.503906 276.296875 342.503906 276.296875 346.308594 "/>
<path style=" stroke:none;fill-rule:nonzero;fill:rgb(3.921569%,62.745098%,12.156863%);fill-opacity:1;" d="M 500.441406 176.96875 C 500.441406 180.492188 495.15625 180.492188 495.15625 176.96875 C 495.15625 173.449219 500.441406 173.449219 500.441406 176.96875 "/>
<path style=" stroke:none;fill-rule:nonzero;fill:rgb(3.921569%,62.745098%,12.156863%);fill-opacity:1;" d="M 331.964844 385.59375 C 331.964844 389.117188 326.675781 389.117188 326.675781 385.59375 C 326.675781 382.066406 331.964844 382.066406 331.964844 385.59375 "/>
<path style=" stroke:none;fill-rule:nonzero;fill:rgb(3.921569%,62.745098%,12.156863%);fill-opacity:1;" d="M 223.765625 267.644531 C 223.765625 271.179688 218.457031 271.179688 218.457031 267.644531 C 218.457031 264.105469 223.765625 264.105469 223.765625 267.644531 "/>
<path style=" stroke:none;fill-rule:nonzero;fill:rgb(3.921569%,62.745098%,12.156863%);fill-opacity:1;" d="M 249.667969 472.859375 C 249.667969 478.257812 241.570312 478.257812 241.570312 472.859375 C 241.570312 467.464844 249.667969 467.464844 249.667969 472.859375 "/>
<path style=" stroke:none;fill-rule:nonzero;fill:rgb(3.921569%,62.745098%,12.156863%);fill-opacity:1;" d="M 383.851562 530.148438 C 383.851562 534.054688 377.992188 534.054688 377.992188 530.148438 C 377.992188 526.242188 383.851562 526.242188 383.851562 530.148438 "/>
<path style=" stroke:none;fill-rule:nonzero;fill:rgb(3.921569%,62.745098%,12.156863%);fill-opacity:1;" d="M 342.222656 346.640625 C 342.222656 350.792969 335.992188 350.792969 335.992188 346.640625 C 335.992188 342.488281 342.222656 342.488281 342.222656 346.640625 "/>
<path style=" stroke:none;fill-rule:nonzero;fill:rgb(3.921569%,62.745098%,12.156863%);fill-opacity:1;" d="M 373.800781 498.164062 C 373.800781 501.734375 368.449219 501.734375 368.449219 498.164062 C 368.449219 494.597656 373.800781 494.597656 373.800781 498.164062 "/>
<path style=" stroke:none;fill-rule:nonzero;fill:rgb(3.921569%,62.745098%,12.156863%);fill-opacity:1;" d="M 147.636719 369.867188 C 147.636719 373.796875 141.746094 373.796875 141.746094 369.867188 C 141.746094 365.9375 147.636719 365.9375 147.636719 369.867188 "/>
<path style=" stroke:none;fill-rule:nonzero;fill:rgb(3.921569%,62.745098%,12.156863%);fill-opacity:1;" d="M 542.230469 394.742188 C 542.230469 398.21875 537.015625 398.21875 537.015625 394.742188 C 537.015625 391.265625 542.230469 391.265625 542.230469 394.742188 "/>
<path style=" stroke:none;fill-rule:nonzero;fill:rgb(3.921569%,62.745098%,12.156863%);fill-opacity:1;" d="M 250.644531 306.195312 L 271.367188 306.195312 L 271.367188 326.917969 L 250.644531 326.917969 Z M 250.644531 306.195312 "/>
<path style=" stroke:none;fill-rule:nonzero;fill:rgb(3.921569%,62.745098%,12.156863%);fill-opacity:1;" d="M 416.730469 453.128906 C 416.730469 458.121094 409.242188 458.121094 409.242188 453.128906 C 409.242188 448.136719 416.730469 448.136719 416.730469 453.128906 "/>
<path style=" stroke:none;fill-rule:nonzero;fill:rgb(3.921569%,62.745098%,12.156863%);fill-opacity:1;" d="M 552.101562 191.835938 C 552.101562 195.328125 546.859375 195.328125 546.859375 191.835938 C 546.859375 188.34375 552.101562 188.34375 552.101562 191.835938 "/>
<path style=" stroke:none;fill-rule:nonzero;fill:rgb(3.921569%,62.745098%,12.156863%);fill-opacity:1;" d="M 252.804688 231.121094 C 252.804688 234.921875 247.105469 234.921875 247.105469 231.121094 C 247.105469 227.324219 252.804688 227.324219 252.804688 231.121094 "/>
<path style=" stroke:none;fill-rule:nonzero;fill:rgb(3.921569%,62.745098%,12.156863%);fill-opacity:1;" d="M 203.949219 389.65625 C 203.949219 393.179688 198.667969 393.179688 198.667969 389.65625 C 198.667969 386.132812 203.949219 386.132812 203.949219 389.65625 "/>
<path style=" stroke:none;fill-rule:nonzero;fill:rgb(3.921569%,62.745098%,12.156863%);fill-opacity:1;" d="M 523.132812 329.398438 C 523.132812 332.941406 517.820312 332.941406 517.820312 329.398438 C 517.820312 325.855469 523.132812 325.855469 523.132812 329.398438 "/>
<path style=" stroke:none;fill-rule:nonzero;fill:rgb(3.921569%,62.745098%,12.156863%);fill-opacity:1;" d="M 322.988281 129.800781 C 322.988281 133.6875 317.160156 133.6875 317.160156 129.800781 C 317.160156 125.914062 322.988281 125.914062 322.988281 129.800781 "/>
<path style=" stroke:none;fill-rule:nonzero;fill:rgb(3.921569%,62.745098%,12.156863%);fill-opacity:1;" d="M 294.96875 566.316406 C 294.96875 572.847656 285.175781 572.847656 285.175781 566.316406 C 285.175781 559.789062 294.96875 559.789062 294.96875 566.316406 "/>
<path style=" stroke:none;fill-rule:nonzero;fill:rgb(3.921569%,62.745098%,12.156863%);fill-opacity:1;" d="M 612.464844 248.835938 C 612.464844 252.480469 606.996094 252.480469 606.996094 248.835938 C 606.996094 245.1875 612.464844 245.1875 612.464844 248.835938 "/>
<path style=" stroke:none;fill-rule:nonzero;fill:rgb(3.921569%,62.745098%,12.156863%);fill-opacity:1;" d="M 359.050781 551.417969 C 359.050781 554.917969 353.804688 554.917969 353.804688 551.417969 C 353.804688 547.921875 359.050781 547.921875 359.050781 551.417969 "/>
<path style=" stroke:none;fill-rule:nonzero;fill:rgb(3.921569%,62.745098%,12.156863%);fill-opacity:1;" d="M 157.914062 427.773438 C 157.914062 431.257812 152.6875 431.257812 152.6875 427.773438 C 152.6875 424.289062 157.914062 424.289062 157.914062 427.773438 "/>
<path style=" stroke:none;fill-rule:nonzero;fill:rgb(3.921569%,62.745098%,12.156863%);fill-opacity:1;" d="M 165.765625 203.773438 C 165.765625 207.25 160.550781 207.25 160.550781 203.773438 C 160.550781 200.300781 165.765625 200.300781 165.765625 203.773438 "/>
<path style=" stroke:none;fill-rule:nonzero;fill:rgb(3.921569%,62.745098%,12.156863%);fill-opacity:1;" d="M 308.222656 561.726562 L 328.945312 561.726562 L 328.945312 582.449219 L 308.222656 582.449219 Z M 308.222656 561.726562 "/>
<path style=" stroke:none;fill-rule:nonzero;fill:rgb(3.921569%,62.745098%,12.156863%);fill-opacity:1;" d="M 422.335938 286.101562 C 422.335938 289.5625 417.144531 289.5625 417.144531 286.101562 C 417.144531 282.644531 422.335938 282.644531 422.335938 286.101562 "/>
<path style=" stroke:none;fill-rule:nonzero;fill:rgb(3.921569%,62.745098%,12.156863%);fill-opacity:1;" d="M 421.570312 549.722656 L 442.292969 549.722656 L 442.292969 570.445312 L 421.570312 570.445312 Z M 421.570312 549.722656 "/>
<path style=" stroke:none;fill-rule:nonzero;fill:rgb(3.921569%,62.745098%,12.156863%);fill-opacity:1;" d="M 560.007812 319.472656 C 560.007812 323.761719 553.574219 323.761719 553.574219 319.472656 C 553.574219 315.179688 560.007812 315.179688 560.007812 319.472656 "/>
<path style=" stroke:none;fill-rule:nonzero;fill:rgb(3.921569%,62.745098%,12.156863%);fill-opacity:1;" d="M 118.90625 340.125 C 118.90625 344.867188 111.796875 344.867188 111.796875 340.125 C 111.796875 335.386719 118.90625 335.386719 118.90625 340.125 "/>
<path style=" stroke:none;fill-rule:nonzero;fill:rgb(3.921569%,62.745098%,12.156863%);fill-opacity:1;" d="M 303.492188 151.371094 C 303.492188 155.03125 298 155.03125 298 151.371094 C 298 147.707031 303.492188 147.707031 303.492188 151.371094 "/>
<path style=" stroke:none;fill-rule:nonzero;fill:rgb(3.921569%,62.745098%,12.156863%);fill-opacity:1;" d="M 352.292969 518.21875 C 352.292969 521.777344 346.953125 521.777344 346.953125 518.21875 C 346.953125 514.664062 352.292969 514.664062 352.292969 518.21875 "/>
<path style=" stroke:none;fill-rule:nonzero;fill:rgb(3.921569%,62.745098%,12.156863%);fill-opacity:1;" d="M 455.058594 112.742188 C 455.058594 116.351562 449.644531 116.351562 449.644531 112.742188 C 449.644531 109.132812 455.058594 109.132812 455.058594 112.742188 "/>
<path style=" stroke:none;fill-rule:nonzero;fill:rgb(3.921569%,62.745098%,12.156863%);fill-opacity:1;" d="M 342.511719 195.378906 C 342.511719 198.894531 337.238281 198.894531 337.238281 195.378906 C 337.238281 191.863281 342.511719 191.863281 342.511719 195.378906 "/>
<path style=" stroke:none;fill-rule:nonzero;fill:rgb(3.921569%,62.745098%,12.156863%);fill-opacity:1;" d="M 398.789062 224.484375 C 398.789062 228.148438 393.292969 228.148438 393.292969 224.484375 C 393.292969 220.820312 398.789062 220.820312 398.789062 224.484375 "/>
<path style=" stroke:none;fill-rule:nonzero;fill:rgb(3.921569%,62.745098%,12.156863%);fill-opacity:1;" d="M 389.851562 560.140625 C 389.851562 563.609375 384.644531 563.609375 384.644531 560.140625 C 384.644531 556.667969 389.851562 556.667969 389.851562 560.140625 "/>
<path style=" stroke:none;fill-rule:nonzero;fill:rgb(3.921569%,62.745098%,12.156863%);fill-opacity:1;" d="M 366.988281 382.714844 C 366.988281 386.917969 360.683594 386.917969 360.683594 382.714844 C 360.683594 378.511719 366.988281 378.511719 366.988281 382.714844 "/>
<path style=" stroke:none;fill-rule:nonzero;fill:rgb(15.294118%,28.627451%,27.058824%);fill-opacity:1;" d="M 540.457031 418.644531 L 561.179688 418.644531 L 561.179688 439.367188 L 540.457031 439.367188 Z M 540.457031 418.644531 "/>
<path style=" stroke:none;fill-rule:nonzero;fill:rgb(15.294118%,28.627451%,27.058824%);fill-opacity:1;" d="M 411.402344 512.320312 C 411.402344 517.152344 404.15625 517.152344 404.15625 512.320312 C 404.15625 507.488281 411.402344 507.488281 411.402344 512.320312 "/>
<path style=" stroke:none;fill-rule:nonzero;fill:rgb(15.294118%,28.627451%,27.058824%);fill-opacity:1;" d="M 497.332031 490.839844 C 497.332031 494.875 491.273438 494.875 491.273438 490.839844 C 491.273438 486.800781 497.332031 486.800781 497.332031 490.839844 "/>
<path style=" stroke:none;fill-rule:nonzero;fill:rgb(15.294118%,28.627451%,27.058824%);fill-opacity:1;" d="M 270.863281 585.71875 C 270.863281 589.433594 265.289062 589.433594 265.289062 585.71875 C 265.289062 582 270.863281 582 270.863281 585.71875 "/>
<path style=" stroke:none;fill-rule:nonzero;fill:rgb(15.294118%,28.627451%,27.058824%);fill-opacity:1;" d="M 450.621094 481.386719 L 471.34375 481.386719 L 471.34375 502.109375 L 450.621094 502.109375 Z M 450.621094 481.386719 "/>
<path style=" stroke:none;fill-rule:nonzero;fill:rgb(15.294118%,28.627451%,27.058824%);fill-opacity:1;" d="M 235.941406 558.066406 L 256.664062 558.066406 L 256.664062 578.789062 L 235.941406 578.789062 Z M 235.941406 558.066406 "/>
<path style=" stroke:none;fill-rule:nonzero;fill:rgb(15.294118%,28.627451%,27.058824%);fill-opacity:1;" d="M 620.863281 277.367188 C 620.863281 281.371094 614.859375 281.371094 614.859375 277.367188 C 614.859375 273.363281 620.863281 273.363281 620.863281 277.367188 "/>
<path style=" stroke:none;fill-rule:nonzero;fill:rgb(15.294118%,28.627451%,27.058824%);fill-opacity:1;" d="M 514.46875 460.632812 C 514.46875 464.324219 508.929688 464.324219 508.929688 460.632812 C 508.929688 456.941406 514.46875 456.941406 514.46875 460.632812 "/>
<path style=" stroke:none;fill-rule:nonzero;fill:rgb(15.294118%,28.627451%,27.058824%);fill-opacity:1;" d="M 312.84375 190.792969 C 312.84375 194.125 310.140625 196.828125 306.808594 196.828125 C 303.476562 196.828125 300.773438 194.125 300.773438 190.792969 C 300.773438 187.460938 303.476562 184.757812 306.808594 184.757812 C 310.140625 184.757812 312.84375 187.460938 312.84375 190.792969 "/>
<path style=" stroke:none;fill-rule:nonzero;fill:rgb(15.294118%,28.627451%,27.058824%);fill-opacity:1;" d="M 483.257812 266.164062 C 483.257812 269.644531 478.035156 269.644531 478.035156 266.164062 C 478.035156 262.683594 483.257812 262.683594 483.257812 266.164062 "/>
<path style=" stroke:none;fill-rule:nonzero;fill:rgb(15.294118%,28.627451%,27.058824%);fill-opacity:1;" d="M 524.242188 427.71875 C 524.242188 431.582031 518.445312 431.582031 518.445312 427.71875 C 518.445312 423.855469 524.242188 423.855469 524.242188 427.71875 "/>
<path style=" stroke:none;fill-rule:nonzero;fill:rgb(30.588235%,22.352941%,47.843137%);fill-opacity:1;" d="M 218.84375 493.730469 L 239.566406 493.730469 L 239.566406 514.453125 L 218.84375 514.453125 Z M 218.84375 493.730469 "/>
<path style=" stroke:none;fill-rule:nonzero;fill:rgb(70.196078%,14.901961%,35.686275%);fill-opacity:1;" d="M 513.558594 355.421875 L 534.28125 355.421875 L 534.28125 376.144531 L 513.558594 376.144531 Z M 513.558594 355.421875 "/>
<path style=" stroke:none;fill-rule:nonzero;fill:rgb(18.039216%,73.72549%,27.058824%);fill-opacity:1;" d="M 275.234375 209.0625 C 275.234375 212.976562 269.367188 212.976562 269.367188 209.0625 C 269.367188 205.152344 275.234375 205.152344 275.234375 209.0625 "/>
<path style=" stroke:none;fill-rule:nonzero;fill:rgb(18.039216%,73.72549%,27.058824%);fill-opacity:1;" d="M 208.132812 435.109375 C 208.132812 438.589844 202.910156 438.589844 202.910156 435.109375 C 202.910156 431.628906 208.132812 431.628906 208.132812 435.109375 "/>
<path style=" stroke:none;fill-rule:nonzero;fill:rgb(18.039216%,73.72549%,27.058824%);fill-opacity:1;" d="M 432.449219 317.113281 C 432.449219 320.613281 427.195312 320.613281 427.195312 317.113281 C 427.195312 313.609375 432.449219 313.609375 432.449219 317.113281 "/>
<path style=" stroke:none;fill-rule:nonzero;fill:rgb(18.039216%,73.72549%,27.058824%);fill-opacity:1;" d="M 310.152344 458.226562 C 310.152344 461.769531 304.839844 461.769531 304.839844 458.226562 C 304.839844 454.683594 310.152344 454.683594 310.152344 458.226562 "/>
<path style=" stroke:none;fill-rule:nonzero;fill:rgb(18.039216%,73.72549%,27.058824%);fill-opacity:1;" d="M 558.5625 497.160156 C 558.5625 500.671875 553.292969 500.671875 553.292969 497.160156 C 553.292969 493.648438 558.5625 493.648438 558.5625 497.160156 "/>
<path style=" stroke:none;fill-rule:nonzero;fill:rgb(18.039216%,73.72549%,27.058824%);fill-opacity:1;" d="M 122.003906 367.53125 C 122.003906 374.363281 111.761719 374.363281 111.761719 367.53125 C 111.761719 360.703125 122.003906 360.703125 122.003906 367.53125 "/>
<path style=" stroke:none;fill-rule:nonzero;fill:rgb(18.039216%,73.72549%,27.058824%);fill-opacity:1;" d="M 608.34375 458.632812 C 608.34375 462.09375 603.152344 462.09375 603.152344 458.632812 C 603.152344 455.171875 608.34375 455.171875 608.34375 458.632812 "/>
<path style=" stroke:none;fill-rule:nonzero;fill:rgb(18.039216%,73.72549%,27.058824%);fill-opacity:1;" d="M 195.621094 345.476562 L 216.34375 345.476562 L 216.34375 366.199219 L 195.621094 366.199219 Z M 195.621094 345.476562 "/>
<path style=" stroke:none;fill-rule:nonzero;fill:rgb(18.039216%,73.72549%,27.058824%);fill-opacity:1;" d="M 132.546875 416.527344 C 132.546875 420.144531 127.117188 420.144531 127.117188 416.527344 C 127.117188 412.90625 132.546875 412.90625 132.546875 416.527344 "/>
<path style=" stroke:none;fill-rule:nonzero;fill:rgb(18.039216%,73.72549%,27.058824%);fill-opacity:1;" d="M 309.304688 591.957031 L 330.027344 591.957031 L 330.027344 612.679688 L 309.304688 612.679688 Z M 309.304688 591.957031 "/>
<path style=" stroke:none;fill-rule:nonzero;fill:rgb(18.039216%,73.72549%,27.058824%);fill-opacity:1;" d="M 512.917969 134.679688 C 512.917969 138.386719 507.359375 138.386719 507.359375 134.679688 C 507.359375 130.972656 512.917969 130.972656 512.917969 134.679688 "/>
<path style=" stroke:none;fill-rule:nonzero;fill:rgb(18.039216%,73.72549%,27.058824%);fill-opacity:1;" d="M 252.566406 536.84375 C 252.566406 540.433594 247.175781 540.433594 247.175781 536.84375 C 247.175781 533.25 252.566406 533.25 252.566406 536.84375 "/>
<path style=" stroke:none;fill-rule:nonzero;fill:rgb(18.039216%,73.72549%,27.058824%);fill-opacity:1;" d="M 159.320312 396.140625 C 159.320312 402.546875 149.714844 402.546875 149.714844 396.140625 C 149.714844 389.738281 159.320312 389.738281 159.320312 396.140625 "/>
<path style=" stroke:none;fill-rule:nonzero;fill:rgb(18.039216%,73.72549%,27.058824%);fill-opacity:1;" d="M 152.929688 226.113281 C 152.929688 230.574219 146.238281 230.574219 146.238281 226.113281 C 146.238281 221.65625 152.929688 221.65625 152.929688 226.113281 "/>
<path style=" stroke:none;fill-rule:nonzero;fill:rgb(18.039216%,73.72549%,27.058824%);fill-opacity:1;" d="M 468.574219 107.503906 L 489.296875 107.503906 L 489.296875 128.226562 L 468.574219 128.226562 Z M 468.574219 107.503906 "/>
<path style=" stroke:none;fill-rule:nonzero;fill:rgb(18.039216%,73.72549%,27.058824%);fill-opacity:1;" d="M 268.941406 463.953125 L 289.664062 463.953125 L 289.664062 484.675781 L 268.941406 484.675781 Z M 268.941406 463.953125 "/>
<path style=" stroke:none;fill-rule:nonzero;fill:rgb(18.039216%,73.72549%,27.058824%);fill-opacity:1;" d="M 383.863281 198.152344 C 383.863281 202.394531 380.421875 205.835938 376.179688 205.835938 C 371.933594 205.835938 368.492188 202.394531 368.492188 198.152344 C 368.492188 193.90625 371.933594 190.464844 376.179688 190.464844 C 380.421875 190.464844 383.863281 193.90625 383.863281 198.152344 "/>
<path style=" stroke:none;fill-rule:nonzero;fill:rgb(18.039216%,73.72549%,27.058824%);fill-opacity:1;" d="M 633.105469 319.855469 C 633.105469 325.265625 624.996094 325.265625 624.996094 319.855469 C 624.996094 314.449219 633.105469 314.449219 633.105469 319.855469 "/>
<path style=" stroke:none;fill-rule:nonzero;fill:rgb(18.039216%,73.72549%,27.058824%);fill-opacity:1;" d="M 284.539062 129.339844 C 284.539062 136.046875 274.480469 136.046875 274.480469 129.339844 C 274.480469 122.636719 284.539062 122.636719 284.539062 129.339844 "/>
<path style=" stroke:none;fill-rule:nonzero;fill:rgb(18.039216%,73.72549%,27.058824%);fill-opacity:1;" d="M 367.273438 467.023438 C 367.273438 470.589844 361.925781 470.589844 361.925781 467.023438 C 361.925781 463.460938 367.273438 463.460938 367.273438 467.023438 "/>
<path style=" stroke:none;fill-rule:nonzero;fill:rgb(18.039216%,73.72549%,27.058824%);fill-opacity:1;" d="M 240.714844 440.445312 C 240.714844 444.558594 234.546875 444.558594 234.546875 440.445312 C 234.546875 436.332031 240.714844 436.332031 240.714844 440.445312 "/>
<path style=" stroke:none;fill-rule:nonzero;fill:rgb(18.039216%,73.72549%,27.058824%);fill-opacity:1;" d="M 265.414062 375.945312 C 265.414062 380.574219 258.476562 380.574219 258.476562 375.945312 C 258.476562 371.320312 265.414062 371.320312 265.414062 375.945312 "/>
<path style=" stroke:none;fill-rule:nonzero;fill:rgb(18.039216%,73.72549%,27.058824%);fill-opacity:1;" d="M 585.414062 242.859375 C 585.414062 245.972656 582.890625 248.496094 579.777344 248.496094 C 576.664062 248.496094 574.140625 245.972656 574.140625 242.859375 C 574.140625 239.75 576.664062 237.226562 579.777344 237.226562 C 582.890625 237.226562 585.414062 239.75 585.414062 242.859375 "/>
<path style=" stroke:none;fill-rule:nonzero;fill:rgb(18.039216%,73.72549%,27.058824%);fill-opacity:1;" d="M 449.980469 458.226562 C 449.980469 462.109375 444.160156 462.109375 444.160156 458.226562 C 444.160156 454.34375 449.980469 454.34375 449.980469 458.226562 "/>
<path style=" stroke:none;fill-rule:nonzero;fill:rgb(18.039216%,73.72549%,27.058824%);fill-opacity:1;" d="M 479.730469 589.242188 C 479.730469 592.828125 474.355469 592.828125 474.355469 589.242188 C 474.355469 585.660156 479.730469 585.660156 479.730469 589.242188 "/>
<path style=" stroke:none;fill-rule:nonzero;fill:rgb(18.039216%,73.72549%,27.058824%);fill-opacity:1;" d="M 623.167969 434.890625 C 623.167969 438.585938 617.625 438.585938 617.625 434.890625 C 617.625 431.199219 623.167969 431.199219 623.167969 434.890625 "/>
<path style=" stroke:none;fill-rule:nonzero;fill:rgb(18.039216%,73.72549%,27.058824%);fill-opacity:1;" d="M 582.726562 509.019531 C 582.726562 512.8125 577.039062 512.8125 577.039062 509.019531 C 577.039062 505.226562 582.726562 505.226562 582.726562 509.019531 "/>
<path style=" stroke:none;fill-rule:nonzero;fill:rgb(18.039216%,73.72549%,27.058824%);fill-opacity:1;" d="M 611.757812 338.609375 C 611.757812 342.277344 606.253906 342.277344 606.253906 338.609375 C 606.253906 334.9375 611.757812 334.9375 611.757812 338.609375 "/>
<path style=" stroke:none;fill-rule:nonzero;fill:rgb(18.039216%,73.72549%,27.058824%);fill-opacity:1;" d="M 371.289062 582.652344 C 371.289062 586.15625 366.035156 586.15625 366.035156 582.652344 C 366.035156 579.152344 371.289062 579.152344 371.289062 582.652344 "/>
<path style=" stroke:none;fill-rule:nonzero;fill:rgb(18.039216%,73.72549%,27.058824%);fill-opacity:1;" d="M 436.261719 391.714844 C 436.261719 395.203125 431.03125 395.203125 431.03125 391.714844 C 431.03125 388.226562 436.261719 388.226562 436.261719 391.714844 "/>
<path style=" stroke:none;fill-rule:nonzero;fill:rgb(18.039216%,73.72549%,27.058824%);fill-opacity:1;" d="M 596.285156 391.886719 C 596.285156 395.804688 590.410156 395.804688 590.410156 391.886719 C 590.410156 387.972656 596.285156 387.972656 596.285156 391.886719 "/>
<path style=" stroke:none;fill-rule:nonzero;fill:rgb(18.039216%,73.72549%,27.058824%);fill-opacity:1;" d="M 344.347656 448.328125 C 344.347656 455.457031 333.65625 455.457031 333.65625 448.328125 C 333.65625 441.199219 344.347656 441.199219 344.347656 448.328125 "/>
<path style=" stroke:none;fill-rule:nonzero;fill:rgb(18.039216%,73.72549%,27.058824%);fill-opacity:1;" d="M 330.730469 546.707031 C 330.730469 550.714844 324.71875 550.714844 324.71875 546.707031 C 324.71875 542.699219 330.730469 542.699219 330.730469 546.707031 "/>
<path style=" stroke:none;fill-rule:nonzero;fill:rgb(18.039216%,73.72549%,27.058824%);fill-opacity:1;" d="M 150.925781 484.511719 C 150.925781 488.101562 145.542969 488.101562 145.542969 484.511719 C 145.542969 480.925781 150.925781 480.925781 150.925781 484.511719 "/>
<path style=" stroke:none;fill-rule:nonzero;fill:rgb(18.039216%,73.72549%,27.058824%);fill-opacity:1;" d="M 554.972656 259.363281 C 554.972656 262.851562 549.738281 262.851562 549.738281 259.363281 C 549.738281 255.875 554.972656 255.875 554.972656 259.363281 "/>
<path style=" stroke:none;fill-rule:nonzero;fill:rgb(18.039216%,73.72549%,27.058824%);fill-opacity:1;" d="M 510.703125 397.898438 C 510.703125 401.503906 505.292969 401.503906 505.292969 397.898438 C 505.292969 394.292969 510.703125 394.292969 510.703125 397.898438 "/>
<path style=" stroke:none;fill-rule:nonzero;fill:rgb(18.039216%,73.72549%,27.058824%);fill-opacity:1;" d="M 598.652344 422.765625 C 598.652344 426.238281 593.445312 426.238281 593.445312 422.765625 C 593.445312 419.296875 598.652344 419.296875 598.652344 422.765625 "/>
<path style=" stroke:none;fill-rule:nonzero;fill:rgb(18.039216%,73.72549%,27.058824%);fill-opacity:1;" d="M 573.8125 472.179688 C 573.8125 475.667969 568.578125 475.667969 568.578125 472.179688 C 568.578125 468.6875 573.8125 468.6875 573.8125 472.179688 "/>
<path style=" stroke:none;fill-rule:nonzero;fill:rgb(18.039216%,73.72549%,27.058824%);fill-opacity:1;" d="M 328.300781 165.933594 C 328.300781 169.429688 323.058594 169.429688 323.058594 165.933594 C 323.058594 162.441406 328.300781 162.441406 328.300781 165.933594 "/>
<path style=" stroke:none;fill-rule:nonzero;fill:rgb(18.039216%,73.72549%,27.058824%);fill-opacity:1;" d="M 132.476562 444.914062 C 132.476562 448.730469 126.75 448.730469 126.75 444.914062 C 126.75 441.097656 132.476562 441.097656 132.476562 444.914062 "/>
<path style=" stroke:none;fill-rule:nonzero;fill:rgb(18.039216%,73.72549%,27.058824%);fill-opacity:1;" d="M 223.160156 532.636719 C 223.160156 537.585938 215.734375 537.585938 215.734375 532.636719 C 215.734375 527.6875 223.160156 527.6875 223.160156 532.636719 "/>
<path style=" stroke:none;fill-rule:nonzero;fill:rgb(18.039216%,73.72549%,27.058824%);fill-opacity:1;" d="M 126.011719 283.308594 C 126.011719 286.789062 120.792969 286.789062 120.792969 283.308594 C 120.792969 279.828125 126.011719 279.828125 126.011719 283.308594 "/>
<path style=" stroke:none;fill-rule:nonzero;fill:rgb(18.039216%,73.72549%,27.058824%);fill-opacity:1;" d="M 304.648438 209.511719 L 325.371094 209.511719 L 325.371094 230.234375 L 304.648438 230.234375 Z M 304.648438 209.511719 "/>
<path style=" stroke:none;fill-rule:nonzero;fill:rgb(18.039216%,73.72549%,27.058824%);fill-opacity:1;" d="M 238.320312 205.75 C 238.320312 209.214844 233.121094 209.214844 233.121094 205.75 C 233.121094 202.28125 238.320312 202.28125 238.320312 205.75 "/>
<path style=" stroke:none;fill-rule:nonzero;fill:rgb(18.039216%,73.72549%,27.058824%);fill-opacity:1;" d="M 533.628906 559.523438 C 533.628906 563.660156 527.421875 563.660156 527.421875 559.523438 C 527.421875 555.382812 533.628906 555.382812 533.628906 559.523438 "/>
<path style=" stroke:none;fill-rule:nonzero;fill:rgb(18.039216%,73.72549%,27.058824%);fill-opacity:1;" d="M 522.628906 509.859375 C 522.628906 513.363281 517.371094 513.363281 517.371094 509.859375 C 517.371094 506.355469 522.628906 506.355469 522.628906 509.859375 "/>
<path style=" stroke:none;fill-rule:nonzero;fill:rgb(18.039216%,73.72549%,27.058824%);fill-opacity:1;" d="M 379.125 350.671875 C 379.125 357.34375 369.121094 357.34375 369.121094 350.671875 C 369.121094 344.003906 379.125 344.003906 379.125 350.671875 "/>
<path style=" stroke:none;fill-rule:nonzero;fill:rgb(18.039216%,73.72549%,27.058824%);fill-opacity:1;" d="M 321.515625 275.277344 C 321.515625 279.515625 315.15625 279.515625 315.15625 275.277344 C 315.15625 271.039062 321.515625 271.039062 321.515625 275.277344 "/>
<path style=" stroke:none;fill-rule:nonzero;fill:rgb(18.039216%,73.72549%,27.058824%);fill-opacity:1;" d="M 477.769531 399.804688 C 477.769531 403.488281 472.246094 403.488281 472.246094 399.804688 C 472.246094 396.121094 477.769531 396.121094 477.769531 399.804688 "/>
<path style=" stroke:none;fill-rule:nonzero;fill:rgb(18.039216%,73.72549%,27.058824%);fill-opacity:1;" d="M 325.367188 419.757812 C 325.367188 425.011719 317.488281 425.011719 317.488281 419.757812 C 317.488281 414.503906 325.367188 414.503906 325.367188 419.757812 "/>
<path style=" stroke:none;fill-rule:nonzero;fill:rgb(18.039216%,73.72549%,27.058824%);fill-opacity:1;" d="M 492.992188 565.46875 L 513.714844 565.46875 L 513.714844 586.191406 L 492.992188 586.191406 Z M 492.992188 565.46875 "/>
<path style=" stroke:none;fill-rule:nonzero;fill:rgb(18.039216%,73.72549%,27.058824%);fill-opacity:1;" d="M 387.21875 93.753906 C 387.21875 97.363281 381.800781 97.363281 381.800781 93.753906 C 381.800781 90.140625 387.21875 90.140625 387.21875 93.753906 "/>
<path style=" stroke:none;fill-rule:nonzero;fill:rgb(18.039216%,73.72549%,27.058824%);fill-opacity:1;" d="M 487.78125 555.917969 C 487.78125 559.539062 482.347656 559.539062 482.347656 555.917969 C 482.347656 552.292969 487.78125 552.292969 487.78125 555.917969 "/>
<path style=" stroke:none;fill-rule:nonzero;fill:rgb(18.039216%,73.72549%,27.058824%);fill-opacity:1;" d="M 493.683594 332.289062 C 493.683594 335.859375 488.328125 335.859375 488.328125 332.289062 C 488.328125 328.71875 493.683594 328.71875 493.683594 332.289062 "/>
<path style=" stroke:none;fill-rule:nonzero;fill:rgb(18.039216%,73.72549%,27.058824%);fill-opacity:1;" d="M 361.925781 277.34375 C 361.925781 282.097656 358.070312 285.953125 353.3125 285.953125 C 348.558594 285.953125 344.703125 282.097656 344.703125 277.34375 C 344.703125 272.585938 348.558594 268.730469 353.3125 268.730469 C 358.070312 268.730469 361.925781 272.585938 361.925781 277.34375 "/>
<path style=" stroke:none;fill-rule:nonzero;fill:rgb(18.039216%,73.72549%,27.058824%);fill-opacity:1;" d="M 200.792969 327.238281 C 200.792969 330.703125 195.601562 330.703125 195.601562 327.238281 C 195.601562 323.777344 200.792969 323.777344 200.792969 327.238281 "/>
<path style=" stroke:none;fill-rule:nonzero;fill:rgb(18.039216%,73.72549%,27.058824%);fill-opacity:1;" d="M 402.171875 152.203125 L 422.894531 152.203125 L 422.894531 172.925781 L 402.171875 172.925781 Z M 402.171875 152.203125 "/>
<path style=" stroke:none;fill-rule:nonzero;fill:rgb(18.039216%,73.72549%,27.058824%);fill-opacity:1;" d="M 375.976562 251.425781 C 375.976562 255.042969 370.550781 255.042969 370.550781 251.425781 C 370.550781 247.808594 375.976562 247.808594 375.976562 251.425781 "/>
<path style=" stroke:none;fill-rule:nonzero;fill:rgb(18.039216%,73.72549%,27.058824%);fill-opacity:1;" d="M 636.09375 351.449219 C 636.09375 354.980469 630.800781 354.980469 630.800781 351.449219 C 630.800781 347.917969 636.09375 347.917969 636.09375 351.449219 "/>
<path style=" stroke:none;fill-rule:nonzero;fill:rgb(18.039216%,73.72549%,27.058824%);fill-opacity:1;" d="M 560.554688 288.886719 C 560.554688 292.394531 555.289062 292.394531 555.289062 288.886719 C 555.289062 285.375 560.554688 285.375 560.554688 288.886719 "/>
<path style=" stroke:none;fill-rule:nonzero;fill:rgb(18.039216%,73.72549%,27.058824%);fill-opacity:1;" d="M 332.664062 90.285156 L 353.386719 90.285156 L 353.386719 111.007812 L 332.664062 111.007812 Z M 332.664062 90.285156 "/>
<path style=" stroke:none;fill-rule:nonzero;fill:rgb(18.039216%,73.72549%,27.058824%);fill-opacity:1;" d="M 560 532.300781 C 560 535.832031 554.699219 535.832031 554.699219 532.300781 C 554.699219 528.769531 560 528.769531 560 532.300781 "/>
<path style=" stroke:none;fill-rule:nonzero;fill:rgb(18.039216%,73.72549%,27.058824%);fill-opacity:1;" d="M 581.011719 444.890625 C 581.011719 448.367188 575.796875 448.367188 575.796875 444.890625 C 575.796875 441.417969 581.011719 441.417969 581.011719 444.890625 "/>
<path style=" stroke:none;fill-rule:nonzero;fill:rgb(18.039216%,73.72549%,27.058824%);fill-opacity:1;" d="M 210.953125 203.871094 C 210.953125 208.222656 204.425781 208.222656 204.425781 203.871094 C 204.425781 199.515625 210.953125 199.515625 210.953125 203.871094 "/>
<path style=" stroke:none;fill-rule:nonzero;fill:rgb(18.039216%,73.72549%,27.058824%);fill-opacity:1;" d="M 442.042969 173.863281 C 442.042969 177.535156 436.535156 177.535156 436.535156 173.863281 C 436.535156 170.191406 442.042969 170.191406 442.042969 173.863281 "/>
<path style=" stroke:none;fill-rule:nonzero;fill:rgb(18.039216%,73.72549%,27.058824%);fill-opacity:1;" d="M 558.226562 207.644531 L 578.949219 207.644531 L 578.949219 228.367188 L 558.226562 228.367188 Z M 558.226562 207.644531 "/>
<path style=" stroke:none;fill-rule:nonzero;fill:rgb(18.039216%,73.72549%,27.058824%);fill-opacity:1;" d="M 491.621094 205.726562 C 491.621094 210.785156 484.035156 210.785156 484.035156 205.726562 C 484.035156 200.671875 491.621094 200.671875 491.621094 205.726562 "/>
<path style=" stroke:none;fill-rule:nonzero;fill:rgb(18.039216%,73.72549%,27.058824%);fill-opacity:1;" d="M 410.433594 255.101562 C 410.433594 258.949219 404.65625 258.949219 404.65625 255.101562 C 404.65625 251.25 410.433594 251.25 410.433594 255.101562 "/>
<path style=" stroke:none;fill-rule:nonzero;fill:rgb(18.039216%,73.72549%,27.058824%);fill-opacity:1;" d="M 144.847656 339.335938 C 144.847656 342.828125 139.609375 342.828125 139.609375 339.335938 C 139.609375 335.84375 144.847656 335.84375 144.847656 339.335938 "/>
<path style=" stroke:none;fill-rule:nonzero;fill:rgb(18.039216%,73.72549%,27.058824%);fill-opacity:1;" d="M 205.644531 293.480469 C 205.644531 297.25 199.992188 297.25 199.992188 293.480469 C 199.992188 289.710938 205.644531 289.710938 205.644531 293.480469 "/>
<path style=" stroke:none;fill-rule:nonzero;fill:rgb(18.039216%,73.72549%,27.058824%);fill-opacity:1;" d="M 429.914062 210.390625 C 429.914062 214.011719 424.476562 214.011719 424.476562 210.390625 C 424.476562 206.765625 429.914062 206.765625 429.914062 210.390625 "/>
<path style=" stroke:none;fill-rule:nonzero;fill:rgb(18.039216%,73.72549%,27.058824%);fill-opacity:1;" d="M 554.519531 163.878906 C 554.519531 167.390625 549.246094 167.390625 549.246094 163.878906 C 549.246094 160.363281 554.519531 160.363281 554.519531 163.878906 "/>
<path style=" stroke:none;fill-rule:nonzero;fill:rgb(18.039216%,73.72549%,27.058824%);fill-opacity:1;" d="M 232.617188 139.566406 L 253.339844 139.566406 L 253.339844 160.289062 L 232.617188 160.289062 Z M 232.617188 139.566406 "/>
<path style=" stroke:none;fill-rule:nonzero;fill:rgb(49.803922%,27.058824%,38.039216%);fill-opacity:1;" d="M 223.175781 144.117188 C 223.175781 150.738281 213.242188 150.738281 213.242188 144.117188 C 213.242188 137.496094 223.175781 137.496094 223.175781 144.117188 "/>
<path style=" stroke:none;fill-rule:nonzero;fill:rgb(80.784314%,49.411765%,0%);fill-opacity:1;" d="M 335.65625 483.769531 C 335.65625 487.359375 330.269531 487.359375 330.269531 483.769531 C 330.269531 480.179688 335.65625 480.179688 335.65625 483.769531 "/>
<path style=" stroke:none;fill-rule:nonzero;fill:rgb(80.784314%,49.411765%,0%);fill-opacity:1;" d="M 173.851562 180.445312 L 194.574219 180.445312 L 194.574219 201.167969 L 173.851562 201.167969 Z M 173.851562 180.445312 "/>
<path style=" stroke:none;fill-rule:nonzero;fill:rgb(73.72549%,18.039216%,63.137255%);fill-opacity:1;" d="M 471.308594 234.0625 C 471.308594 237.652344 465.929688 237.652344 465.929688 234.0625 C 465.929688 230.476562 471.308594 230.476562 471.308594 234.0625 "/>
<path style=" stroke:none;fill-rule:nonzero;fill:rgb(73.72549%,18.039216%,63.137255%);fill-opacity:1;" d="M 467.246094 525.460938 C 467.246094 528.953125 462.003906 528.953125 462.003906 525.460938 C 462.003906 521.964844 467.246094 521.964844 467.246094 525.460938 "/>
<path style=" stroke:none;fill-rule:nonzero;fill:rgb(73.72549%,18.039216%,63.137255%);fill-opacity:1;" d="M 489.691406 225.21875 L 510.414062 225.21875 L 510.414062 245.941406 L 489.691406 245.941406 Z M 489.691406 225.21875 "/>
<path style=" stroke:none;fill-rule:nonzero;fill:rgb(41.568627%,32.156863%,77.647059%);fill-opacity:1;" d="M 406.046875 134.164062 C 406.046875 138.058594 400.203125 138.058594 400.203125 134.164062 C 400.203125 130.265625 406.046875 130.265625 406.046875 134.164062 "/>
<path style=" stroke:none;fill-rule:nonzero;fill:rgb(41.568627%,32.156863%,77.647059%);fill-opacity:1;" d="M 414.71875 544.230469 C 414.71875 547.878906 409.246094 547.878906 409.246094 544.230469 C 409.246094 540.578125 414.71875 540.578125 414.71875 544.230469 "/>
<path style=" stroke:none;fill-rule:nonzero;fill:rgb(41.568627%,32.156863%,77.647059%);fill-opacity:1;" d="M 293.257812 423.433594 C 293.257812 427.121094 287.722656 427.121094 287.722656 423.433594 C 287.722656 419.742188 293.257812 419.742188 293.257812 423.433594 "/>
<path style=" stroke:none;fill-rule:nonzero;fill:rgb(41.568627%,32.156863%,77.647059%);fill-opacity:1;" d="M 289.03125 295.824219 C 289.03125 299.507812 283.507812 299.507812 283.507812 295.824219 C 283.507812 292.144531 289.03125 292.144531 289.03125 295.824219 "/>
<path style=" stroke:none;fill-rule:nonzero;fill:rgb(41.568627%,32.156863%,77.647059%);fill-opacity:1;" d="M 250.625 180.347656 C 250.625 183.808594 245.433594 183.808594 245.433594 180.347656 C 245.433594 176.886719 250.625 176.886719 250.625 180.347656 "/>
<path style=" stroke:none;fill-rule:nonzero;fill:rgb(41.568627%,32.156863%,77.647059%);fill-opacity:1;" d="M 471.492188 172.511719 C 471.492188 176.054688 466.175781 176.054688 466.175781 172.511719 C 466.175781 168.96875 471.492188 168.96875 471.492188 172.511719 "/>
<path style=" stroke:none;fill-rule:nonzero;fill:rgb(41.568627%,32.156863%,77.647059%);fill-opacity:1;" d="M 365.09375 316.292969 C 365.09375 319.902344 359.679688 319.902344 359.679688 316.292969 C 359.679688 312.683594 365.09375 312.683594 365.09375 316.292969 "/>
<path style=" stroke:none;fill-rule:nonzero;fill:rgb(41.568627%,32.156863%,77.647059%);fill-opacity:1;" d="M 220.480469 235.878906 C 220.480469 239.359375 215.257812 239.359375 215.257812 235.878906 C 215.257812 232.398438 220.480469 232.398438 220.480469 235.878906 "/>
<path style=" stroke:none;fill-rule:nonzero;fill:rgb(41.568627%,32.156863%,77.647059%);fill-opacity:1;" d="M 309.453125 359.171875 C 309.453125 362.9375 303.808594 362.9375 303.808594 359.171875 C 303.808594 355.40625 309.453125 355.40625 309.453125 359.171875 "/>
<path style=" stroke:none;fill-rule:nonzero;fill:rgb(41.568627%,32.156863%,77.647059%);fill-opacity:1;" d="M 423.703125 607.097656 C 423.703125 611.050781 417.769531 611.050781 417.769531 607.097656 C 417.769531 603.140625 423.703125 603.140625 423.703125 607.097656 "/>
<path style=" stroke:none;fill-rule:nonzero;fill:rgb(41.568627%,32.156863%,77.647059%);fill-opacity:1;" d="M 372.050781 120.691406 C 372.050781 124.183594 366.816406 124.183594 366.816406 120.691406 C 366.816406 117.203125 372.050781 117.203125 372.050781 120.691406 "/>
<path style=" stroke:none;fill-rule:nonzero;fill:rgb(41.568627%,32.156863%,77.647059%);fill-opacity:1;" d="M 332.566406 307.433594 C 332.566406 311 327.21875 311 327.21875 307.433594 C 327.21875 303.867188 332.566406 303.867188 332.566406 307.433594 "/>
<path style=" stroke:none;fill-rule:nonzero;fill:rgb(67.843137%,55.294118%,55.294118%);fill-opacity:1;" d="M 178.34375 281.914062 C 178.34375 285.367188 173.164062 285.367188 173.164062 281.914062 C 173.164062 278.457031 178.34375 278.457031 178.34375 281.914062 "/>
<path style=" stroke:none;fill-rule:nonzero;fill:rgb(67.843137%,55.294118%,55.294118%);fill-opacity:1;" d="M 301.21875 496.242188 C 301.21875 499.773438 295.921875 499.773438 295.921875 496.242188 C 295.921875 492.714844 301.21875 492.714844 301.21875 496.242188 "/>
<path style=" stroke:none;fill-rule:nonzero;fill:rgb(67.843137%,55.294118%,55.294118%);fill-opacity:1;" d="M 462.144531 143.015625 C 462.144531 148.875 453.355469 148.875 453.355469 143.015625 C 453.355469 137.15625 462.144531 137.15625 462.144531 143.015625 "/>
<path style=" stroke:none;fill-rule:nonzero;fill:rgb(67.843137%,55.294118%,55.294118%);fill-opacity:1;" d="M 349.164062 146.289062 C 349.164062 149.832031 343.847656 149.832031 343.847656 146.289062 C 343.847656 142.742188 349.164062 142.742188 349.164062 146.289062 "/>
<path style=" stroke:none;fill-rule:nonzero;fill:rgb(81.176471%,90.588235%,12.156863%);fill-opacity:1;" d="M 287.953125 528.21875 L 308.675781 528.21875 L 308.675781 548.941406 L 287.953125 548.941406 Z M 287.953125 528.21875 "/>
</g>
</svg>
