<?xml version="1.0" encoding="UTF-8"?>
<svg xmlns="http://www.w3.org/2000/svg" xmlns:xlink="http://www.w3.org/1999/xlink" width="720pt" height="720pt" viewBox="0 0 720 720" version="1.1">
<g id="surface26">
<path style=" stroke:none;fill-rule:nonzero;fill:rgb(95.686275%,95.686275%,95.686275%);fill-opacity:1;" d="M 569.488281 213.175781 L 566.851562 212.890625 L 564.246094 212.054688 L 561.722656 210.730469 L 559.316406 209.019531 L 557.039062 207.035156 L 554.863281 204.914062 L 552.703125 202.753906 L 550.507812 200.542969 L 548.273438 198.273438 L 546.03125 195.96875 L 543.828125 193.667969 L 541.71875 191.425781 L 541.210938 190.882812 L 538.882812 188.339844 L 536.792969 185.992188 L 534.964844 183.875 L 533.390625 181.996094 L 531.984375 180.285156 L 530.652344 178.585938 L 529.503906 176.738281 L 528.730469 174.65625 L 528.472656 172.339844 L 528.816406 169.824219 L 528.921875 169.4375 L 529.808594 167.132812 L 531.132812 164.753906 L 532.832031 162.359375 L 534.808594 160 L 536.957031 157.703125 L 539.183594 155.460938 L 541.441406 153.257812 L 543.808594 151.207031 L 546.3125 149.457031 L 548.941406 148.132812 L 551.652344 147.347656 L 553.859375 147.144531 L 556.5 147.433594 L 559.105469 148.269531 L 561.628906 149.589844 L 564.035156 151.304688 L 566.3125 153.285156 L 568.488281 155.410156 L 570.648438 157.570312 L 572.84375 159.777344 L 575.078125 162.046875 L 577.320312 164.355469 L 579.523438 166.652344 L 581.632812 168.894531 L 582.140625 169.4375 L 584.464844 171.980469 L 586.558594 174.328125 L 588.386719 176.445312 L 589.960938 178.324219 L 591.363281 180.035156 L 592.699219 181.734375 L 593.847656 183.582031 L 594.621094 185.664062 L 594.878906 187.980469 L 594.535156 190.496094 L 594.429688 190.882812 L 593.542969 193.1875 L 592.21875 195.566406 L 590.519531 197.960938 L 588.542969 200.320312 L 586.390625 202.617188 L 584.167969 204.859375 L 581.910156 207.0625 L 579.542969 209.113281 L 577.039062 210.867188 L 574.410156 212.1875 L 571.699219 212.976562 Z M 569.488281 213.175781 "/>
<path style=" stroke:none;fill-rule:nonzero;fill:rgb(95.686275%,95.686275%,95.686275%);fill-opacity:1;" d="M 264.191406 608.800781 L 261.847656 609 L 259.679688 608.582031 L 257.734375 607.640625 L 256.003906 606.324219 L 254.425781 604.8125 L 252.835938 603.238281 L 251.097656 601.511719 L 249.140625 599.566406 L 246.972656 597.410156 L 244.820312 595.265625 L 242.722656 593.171875 L 240.5625 591.015625 L 238.390625 588.847656 L 232.171875 582.628906 L 230.195312 580.582031 L 228.375 578.429688 L 226.851562 576.148438 L 225.742188 573.757812 L 225.136719 571.304688 L 225.039062 569.863281 L 225.351562 567.28125 L 226.25 564.742188 L 227.652344 562.300781 L 229.441406 559.992188 L 231.464844 557.816406 L 233.566406 555.707031 L 235.714844 553.648438 L 237.925781 551.746094 L 240.191406 550.121094 L 242.457031 548.878906 L 244.660156 548.101562 L 244.820312 548.066406 L 247.164062 547.835938 L 249.328125 548.210938 L 251.277344 549.101562 L 253.007812 550.367188 L 254.597656 551.8125 L 256.199219 553.324219 L 257.964844 555.003906 L 259.957031 556.914062 L 262.164062 559.046875 L 264.191406 561.023438 L 266.300781 563.089844 L 268.472656 565.234375 L 270.65625 567.398438 L 272.808594 569.539062 L 274.898438 571.625 L 276.9375 573.664062 L 278.9375 575.730469 L 280.785156 577.898438 L 282.34375 580.195312 L 283.492188 582.601562 L 284.140625 585.078125 L 284.261719 586.710938 L 283.949219 589.320312 L 283.050781 591.882812 L 281.640625 594.347656 L 279.84375 596.683594 L 277.808594 598.882812 L 275.683594 601.011719 L 273.523438 603.089844 L 271.292969 605.015625 L 269.015625 606.667969 L 266.738281 607.929688 L 264.519531 608.726562 Z M 264.191406 608.800781 "/>
<path style=" stroke:none;fill-rule:nonzero;fill:rgb(95.686275%,95.686275%,95.686275%);fill-opacity:1;" d="M 495.320312 592.222656 L 492.871094 590.898438 L 490.402344 589.265625 L 487.957031 587.382812 L 485.582031 585.324219 L 483.300781 583.171875 L 481.09375 580.984375 L 478.921875 578.773438 L 476.878906 576.464844 L 475.105469 574.027344 L 473.726562 571.460938 L 472.847656 568.8125 L 472.539062 566.125 L 472.535156 566.0625 L 472.839844 563.351562 L 473.71875 560.683594 L 475.105469 558.097656 L 476.894531 555.640625 L 478.957031 553.316406 L 481.144531 551.089844 L 483.371094 548.890625 L 485.675781 546.753906 L 488.070312 544.765625 L 490.535156 543.015625 L 493.027344 541.589844 L 495.320312 540.609375 L 498.097656 539.882812 L 500.746094 539.699219 L 503.203125 539.996094 L 505.453125 540.660156 L 507.539062 541.539062 L 509.597656 542.484375 L 511.746094 543.53125 L 514.027344 544.757812 L 516.414062 546.183594 L 518.84375 547.796875 L 519.5625 548.304688 L 521.886719 550.054688 L 524.148438 551.910156 L 526.304688 553.8125 L 528.320312 555.710938 L 530.214844 557.574219 L 532.050781 559.421875 L 533.796875 561.339844 L 535.308594 563.382812 L 536.449219 565.539062 L 537.109375 567.773438 L 537.25 569.371094 L 536.960938 571.652344 L 536.136719 573.890625 L 534.851562 576.035156 L 533.230469 578.054688 L 531.421875 579.957031 L 529.554688 581.820312 L 527.601562 583.6875 L 525.511719 585.527344 L 523.289062 587.277344 L 520.976562 588.871094 L 519.5625 589.730469 L 517.300781 590.917969 L 515.058594 591.886719 L 512.886719 592.628906 L 510.820312 593.175781 L 508.867188 593.574219 L 506.964844 593.910156 L 504.996094 594.167969 L 502.871094 594.21875 L 500.566406 593.964844 L 498.101562 593.34375 L 495.523438 592.320312 Z M 495.320312 592.222656 "/>
<path style=" stroke:none;fill-rule:nonzero;fill:rgb(95.686275%,95.686275%,95.686275%);fill-opacity:1;" d="M 573.300781 501.046875 L 570.710938 500.722656 L 568.183594 500.257812 L 565.777344 499.679688 L 563.527344 499.03125 L 561.410156 498.347656 L 559.316406 497.640625 L 557.132812 496.828125 L 554.820312 495.832031 L 552.410156 494.621094 L 549.964844 493.195312 L 549.21875 492.71875 L 546.871094 491.09375 L 544.589844 489.324219 L 542.429688 487.476562 L 540.417969 485.605469 L 538.53125 483.757812 L 536.699219 481.910156 L 534.96875 479.992188 L 533.480469 477.949219 L 532.375 475.789062 L 531.761719 473.554688 L 531.652344 472.171875 L 531.941406 469.898438 L 532.769531 467.671875 L 534.054688 465.535156 L 535.675781 463.527344 L 537.480469 461.636719 L 539.34375 459.78125 L 541.296875 457.929688 L 543.394531 456.121094 L 545.636719 454.429688 L 547.972656 452.921875 L 549.21875 452.222656 L 551.726562 451.046875 L 554.207031 450.15625 L 556.601562 449.546875 L 558.867188 449.164062 L 561.019531 448.921875 L 563.171875 448.71875 L 565.449219 448.558594 L 567.890625 448.484375 L 570.46875 448.527344 L 573.117188 448.699219 L 573.300781 448.71875 L 575.886719 449.023438 L 578.429688 449.441406 L 580.878906 449.953125 L 583.183594 450.523438 L 585.367188 451.117188 L 587.519531 451.730469 L 589.761719 452.445312 L 592.125 453.339844 L 594.582031 454.457031 L 597.074219 455.792969 L 598.023438 456.363281 L 600.417969 457.949219 L 602.726562 459.6875 L 604.90625 461.515625 L 606.929688 463.378906 L 608.820312 465.226562 L 610.652344 467.074219 L 612.386719 468.996094 L 613.875 471.042969 L 614.980469 473.203125 L 615.597656 475.4375 L 615.707031 476.824219 L 615.417969 479.09375 L 614.59375 481.316406 L 613.316406 483.449219 L 611.699219 485.453125 L 609.898438 487.34375 L 608.042969 489.195312 L 606.09375 491.042969 L 603.988281 492.863281 L 601.734375 494.578125 L 599.371094 496.128906 L 598.023438 496.894531 L 595.496094 498.113281 L 592.984375 499.066406 L 590.542969 499.753906 L 588.226562 500.222656 L 586.015625 500.546875 L 583.820312 500.832031 L 581.519531 501.070312 L 579.070312 501.214844 L 576.503906 501.230469 L 573.878906 501.097656 Z M 573.300781 501.046875 "/>
<path style=" stroke:none;fill-rule:nonzero;fill:rgb(95.686275%,95.686275%,95.686275%);fill-opacity:1;" d="M 418.34375 626.367188 L 416.019531 626.066406 L 413.738281 625.210938 L 411.554688 623.878906 L 409.503906 622.207031 L 407.570312 620.351562 L 405.675781 618.441406 L 403.839844 616.4375 L 402.15625 614.292969 L 400.730469 612.019531 L 399.652344 609.667969 L 399.335938 608.730469 L 398.8125 606.257812 L 398.71875 603.828125 L 399.007812 601.5 L 399.578125 599.308594 L 400.304688 597.234375 L 401.085938 595.15625 L 402 592.964844 L 403.128906 590.628906 L 404.496094 588.179688 L 406.089844 585.679688 L 406.109375 585.652344 L 407.777344 583.335938 L 409.585938 581.066406 L 411.476562 578.890625 L 413.386719 576.84375 L 415.277344 574.917969 L 417.160156 573.042969 L 419.109375 571.253906 L 421.179688 569.695312 L 423.371094 568.503906 L 425.644531 567.789062 L 427.472656 567.609375 L 429.835938 567.910156 L 432.15625 568.773438 L 434.375 570.113281 L 436.464844 571.800781 L 438.433594 573.679688 L 440.355469 575.617188 L 442.222656 577.640625 L 443.9375 579.800781 L 445.386719 582.082031 L 446.488281 584.441406 L 446.886719 585.652344 L 447.367188 588.140625 L 447.394531 590.578125 L 447.027344 592.90625 L 446.363281 595.09375 L 445.535156 597.160156 L 444.65625 599.222656 L 443.652344 601.398438 L 442.453125 603.707031 L 441.035156 606.121094 L 439.410156 608.582031 L 439.304688 608.730469 L 437.597656 611.035156 L 435.773438 613.285156 L 433.886719 615.433594 L 431.992188 617.453125 L 430.128906 619.347656 L 428.273438 621.1875 L 426.347656 622.933594 L 424.300781 624.445312 L 422.136719 625.582031 L 419.894531 626.234375 Z M 418.34375 626.367188 "/>
<path style=" stroke:none;fill-rule:nonzero;fill:rgb(95.686275%,95.686275%,95.686275%);fill-opacity:1;" d="M 142.007812 467.234375 L 139.617188 466.09375 L 137.285156 464.644531 L 135.058594 462.960938 L 132.972656 461.125 L 131.011719 459.226562 L 129.109375 457.308594 L 127.304688 455.308594 L 125.757812 453.183594 L 124.605469 450.9375 L 123.960938 448.613281 L 123.84375 447.15625 L 124.132812 444.835938 L 124.964844 442.554688 L 126.261719 440.367188 L 127.898438 438.308594 L 129.734375 436.367188 L 131.632812 434.472656 L 133.609375 432.578125 L 135.71875 430.71875 L 137.957031 428.964844 L 140.292969 427.382812 L 142.007812 426.382812 L 144.574219 425.140625 L 147.097656 424.207031 L 149.515625 423.566406 L 151.789062 423.167969 L 153.949219 422.914062 L 156.109375 422.714844 L 158.382812 422.664062 L 160.792969 422.878906 L 163.296875 423.421875 L 165.730469 424.285156 L 168.109375 425.464844 L 170.425781 426.933594 L 172.621094 428.617188 L 174.667969 430.433594 L 176.585938 432.300781 L 178.453125 434.1875 L 180.207031 436.15625 L 181.699219 438.257812 L 182.78125 440.472656 L 183.347656 442.761719 L 183.417969 443.886719 L 183.132812 446.167969 L 182.308594 448.402344 L 181.023438 450.546875 L 179.402344 452.5625 L 177.597656 454.464844 L 175.730469 456.324219 L 173.777344 458.1875 L 171.6875 460.023438 L 169.457031 461.765625 L 167.132812 463.351562 L 165.730469 464.1875 L 163.203125 465.480469 L 160.707031 466.492188 L 158.308594 467.234375 L 156.042969 467.75 L 153.886719 468.128906 L 151.734375 468.453125 L 149.460938 468.621094 L 147.042969 468.515625 L 144.523438 468.058594 Z M 142.007812 467.234375 "/>
<path style=" stroke:none;fill-rule:nonzero;fill:rgb(95.686275%,95.686275%,95.686275%);fill-opacity:1;" d="M 331.40625 319.324219 L 328.621094 319.023438 L 325.871094 318.144531 L 323.207031 316.757812 L 320.667969 314.960938 L 318.261719 312.875 L 315.960938 310.636719 L 313.695312 308.359375 L 311.46875 306.011719 L 309.351562 303.574219 L 307.433594 301.050781 L 305.785156 298.484375 L 304.484375 295.925781 L 304.140625 295.09375 L 303.253906 292.191406 L 302.890625 289.417969 L 303 286.828125 L 303.480469 284.449219 L 304.191406 282.242188 L 304.976562 280.085938 L 305.851562 277.851562 L 306.898438 275.492188 L 308.144531 273.035156 L 309.59375 270.535156 L 310.460938 269.183594 L 312.148438 266.777344 L 313.960938 264.449219 L 315.847656 262.246094 L 317.746094 260.195312 L 319.621094 258.28125 L 321.484375 256.425781 L 323.414062 254.660156 L 325.464844 253.121094 L 327.636719 251.945312 L 329.886719 251.246094 L 331.660156 251.074219 L 333.941406 251.355469 L 336.179688 252.167969 L 338.328125 253.4375 L 340.351562 255.039062 L 342.257812 256.839844 L 344.121094 258.703125 L 346.003906 260.644531 L 347.898438 262.730469 L 349.765625 264.96875 L 351.539062 267.324219 L 352.808594 269.183594 L 354.335938 271.6875 L 355.660156 274.179688 L 356.773438 276.601562 L 357.691406 278.90625 L 358.472656 281.097656 L 359.195312 283.261719 L 359.777344 285.542969 L 360.054688 288.027344 L 359.910156 290.714844 L 359.269531 293.5625 L 358.722656 295.09375 L 357.527344 297.640625 L 355.972656 300.207031 L 354.125 302.75 L 352.058594 305.21875 L 349.859375 307.59375 L 347.601562 309.886719 L 345.320312 312.140625 L 342.957031 314.292969 L 340.460938 316.199219 L 337.835938 317.734375 L 335.113281 318.792969 L 332.339844 319.289062 Z M 331.40625 319.324219 "/>
<path style=" stroke:none;fill-rule:nonzero;fill:rgb(95.686275%,95.686275%,95.686275%);fill-opacity:1;" d="M 349.976562 635.179688 L 347.300781 635.929688 L 344.734375 636.183594 L 342.339844 635.996094 L 340.132812 635.472656 L 338.074219 634.761719 L 336.023438 633.988281 L 333.859375 633.089844 L 331.550781 631.980469 L 329.132812 630.636719 L 326.664062 629.066406 L 326.542969 628.980469 L 324.234375 627.320312 L 321.976562 625.519531 L 319.8125 623.636719 L 317.773438 621.734375 L 315.855469 619.851562 L 313.992188 617.976562 L 312.21875 616.03125 L 310.675781 613.964844 L 309.503906 611.78125 L 308.816406 609.515625 L 308.65625 607.800781 L 308.945312 605.484375 L 309.785156 603.207031 L 311.089844 601.027344 L 312.734375 598.976562 L 314.570312 597.039062 L 316.46875 595.148438 L 318.445312 593.269531 L 320.554688 591.445312 L 322.78125 589.753906 L 325.09375 588.273438 L 326.542969 587.484375 L 329.050781 586.382812 L 331.511719 585.617188 L 333.859375 585.164062 L 336.058594 584.964844 L 338.144531 584.90625 L 340.242188 584.910156 L 342.496094 585.105469 L 344.949219 585.617188 L 347.574219 586.515625 L 349.976562 587.652344 L 352.359375 589.058594 L 354.742188 590.730469 L 357.085938 592.605469 L 359.339844 594.609375 L 361.496094 596.675781 L 363.582031 598.757812 L 365.621094 600.871094 L 367.492188 603.097656 L 369.058594 605.457031 L 370.1875 607.925781 L 370.792969 610.460938 L 370.878906 611.847656 L 370.578125 614.425781 L 369.707031 616.960938 L 368.339844 619.40625 L 366.589844 621.722656 L 364.59375 623.910156 L 362.5 626.019531 L 360.363281 628.105469 L 358.136719 630.109375 L 355.804688 631.945312 L 353.40625 633.523438 L 350.996094 634.765625 Z M 349.976562 635.179688 "/>
<path style=" stroke:none;fill-rule:nonzero;fill:rgb(95.686275%,95.686275%,95.686275%);fill-opacity:1;" d="M 203.035156 561.269531 L 200.789062 560.988281 L 198.582031 560.175781 L 196.46875 558.914062 L 194.476562 557.324219 L 192.601562 555.542969 L 190.761719 553.703125 L 188.886719 551.796875 L 186.964844 549.78125 L 185.023438 547.660156 L 183.125 545.484375 L 181.9375 544.0625 L 180.078125 541.726562 L 178.382812 539.457031 L 176.886719 537.316406 L 175.574219 535.324219 L 174.386719 533.449219 L 173.253906 531.5625 L 172.296875 529.554688 L 171.667969 527.390625 L 171.476562 525.109375 L 171.714844 523.09375 L 172.351562 521.019531 L 173.363281 518.964844 L 174.691406 516.976562 L 176.246094 515.078125 L 177.933594 513.28125 L 179.671875 511.539062 L 181.453125 509.851562 L 183.335938 508.328125 L 185.332031 507.097656 L 187.414062 506.261719 L 189.542969 505.890625 L 190.050781 505.875 L 192.300781 506.15625 L 194.507812 506.964844 L 196.621094 508.226562 L 198.613281 509.820312 L 200.492188 511.601562 L 202.332031 513.441406 L 204.207031 515.347656 L 206.132812 517.367188 L 208.070312 519.488281 L 209.96875 521.664062 L 211.164062 523.09375 L 213.023438 525.433594 L 214.714844 527.703125 L 216.210938 529.84375 L 217.515625 531.835938 L 218.703125 533.710938 L 219.832031 535.597656 L 220.78125 537.609375 L 221.410156 539.773438 L 221.597656 542.054688 L 221.359375 544.0625 L 220.71875 546.136719 L 219.707031 548.1875 L 218.378906 550.179688 L 216.824219 552.074219 L 215.136719 553.871094 L 213.402344 555.613281 L 211.621094 557.300781 L 209.738281 558.820312 L 207.742188 560.050781 L 205.660156 560.886719 L 203.535156 561.253906 Z M 203.035156 561.269531 "/>
<path style=" stroke:none;fill-rule:nonzero;fill:rgb(95.686275%,95.686275%,95.686275%);fill-opacity:1;" d="M 185.625 259.53125 L 183.203125 259.289062 L 180.808594 258.582031 L 178.476562 257.453125 L 176.234375 255.976562 L 174.101562 254.234375 L 172.070312 252.328125 L 170.09375 250.359375 L 168.125 248.332031 L 166.183594 246.148438 L 164.320312 243.746094 L 162.582031 241.109375 L 161.027344 238.25 L 159.703125 235.191406 L 159.296875 234.070312 L 158.335938 230.839844 L 157.632812 227.5 L 157.179688 224.105469 L 156.953125 220.71875 L 156.921875 217.390625 L 157.019531 214.140625 L 157.1875 210.941406 L 157.378906 207.730469 L 157.640625 204.472656 L 158.011719 201.1875 L 158.527344 197.917969 L 159.199219 194.722656 L 160.027344 191.675781 L 160.535156 190.121094 L 161.761719 187.019531 L 163.164062 184.230469 L 164.695312 181.769531 L 166.304688 179.644531 L 167.945312 177.804688 L 169.589844 176.132812 L 171.25 174.507812 L 172.988281 172.988281 L 174.828125 171.683594 L 176.757812 170.6875 L 178.75 170.078125 L 180.535156 169.902344 L 182.792969 170.183594 L 185.011719 171.003906 L 187.136719 172.277344 L 189.136719 173.882812 L 191.023438 175.675781 L 192.871094 177.527344 L 194.730469 179.460938 L 196.585938 181.539062 L 198.382812 183.753906 L 200.054688 186.066406 L 200.972656 187.46875 L 202.386719 189.917969 L 203.574219 192.34375 L 204.527344 194.679688 L 205.277344 196.894531 L 205.890625 198.996094 L 206.472656 201.082031 L 207.082031 203.277344 L 207.722656 205.628906 L 208.394531 208.117188 L 209.074219 210.679688 L 209.253906 211.363281 L 209.925781 213.945312 L 210.574219 216.484375 L 211.191406 218.921875 L 211.757812 221.214844 L 212.292969 223.386719 L 212.796875 225.542969 L 213.140625 227.832031 L 213.171875 230.324219 L 212.785156 233 L 211.917969 235.820312 L 211.582031 236.632812 L 210.332031 239.125 L 208.753906 241.632812 L 206.90625 244.101562 L 204.867188 246.488281 L 202.71875 248.777344 L 200.53125 250.988281 L 198.316406 253.160156 L 196.007812 255.203125 L 193.5625 256.976562 L 190.996094 258.351562 L 188.34375 259.226562 L 185.652344 259.53125 Z M 185.625 259.53125 "/>
<path style=" stroke:none;fill-rule:nonzero;fill:rgb(95.686275%,95.686275%,95.686275%);fill-opacity:1;" d="M 293.828125 508.101562 L 291.316406 508.765625 L 288.832031 509.03125 L 286.4375 508.945312 L 284.175781 508.585938 L 282.023438 508.074219 L 279.875 507.511719 L 277.617188 506.816406 L 275.214844 505.898438 L 272.710938 504.722656 L 270.160156 503.292969 L 269.964844 503.171875 L 267.601562 501.601562 L 265.292969 499.859375 L 263.085938 498.007812 L 261.019531 496.105469 L 259.074219 494.207031 L 257.191406 492.316406 L 255.390625 490.355469 L 253.820312 488.273438 L 252.617188 486.070312 L 251.894531 483.78125 L 251.710938 481.917969 L 252.007812 479.554688 L 252.863281 477.238281 L 254.195312 475.015625 L 255.875 472.925781 L 257.75 470.953125 L 259.683594 469.03125 L 261.703125 467.152344 L 263.863281 465.402344 L 266.160156 463.882812 L 268.542969 462.6875 L 269.964844 462.160156 L 272.503906 461.5625 L 275.003906 461.390625 L 277.402344 461.597656 L 279.664062 462.089844 L 281.804688 462.742188 L 283.9375 463.449219 L 286.175781 464.277344 L 288.542969 465.304688 L 291.007812 466.5625 L 293.503906 468.042969 L 293.828125 468.25 L 296.179688 469.871094 L 298.460938 471.640625 L 300.628906 473.492188 L 302.652344 475.367188 L 304.546875 477.222656 L 306.386719 479.078125 L 308.128906 481.003906 L 309.628906 483.050781 L 310.75 485.21875 L 311.386719 487.460938 L 311.503906 488.925781 L 311.210938 491.234375 L 310.359375 493.5 L 309.042969 495.667969 L 307.386719 497.703125 L 305.542969 499.628906 L 303.648438 501.507812 L 301.65625 503.34375 L 299.511719 505.054688 L 297.230469 506.539062 L 294.851562 507.710938 Z M 293.828125 508.101562 "/>
<path style=" stroke:none;fill-rule:nonzero;fill:rgb(95.686275%,95.686275%,95.686275%);fill-opacity:1;" d="M 390.453125 160.9375 L 387.980469 161.460938 L 385.546875 161.558594 L 383.214844 161.273438 L 381.019531 160.707031 L 378.941406 159.988281 L 376.859375 159.214844 L 374.664062 158.308594 L 372.328125 157.191406 L 369.886719 155.84375 L 367.425781 154.285156 L 365.113281 152.628906 L 362.855469 150.839844 L 360.703125 148.972656 L 358.679688 147.082031 L 356.777344 145.214844 L 354.929688 143.355469 L 353.175781 141.421875 L 351.664062 139.367188 L 350.527344 137.195312 L 349.875 134.945312 L 349.742188 133.40625 L 350.042969 131.074219 L 350.902344 128.789062 L 352.230469 126.601562 L 353.90625 124.546875 L 355.765625 122.605469 L 357.679688 120.710938 L 359.683594 118.871094 L 361.832031 117.1875 L 364.105469 115.761719 L 366.460938 114.683594 L 367.425781 114.359375 L 369.902344 113.847656 L 372.335938 113.765625 L 374.667969 114.070312 L 376.863281 114.660156 L 378.941406 115.40625 L 381.019531 116.203125 L 383.210938 117.132812 L 385.539062 118.269531 L 387.96875 119.628906 L 390.4375 121.207031 L 390.453125 121.21875 L 392.761719 122.878906 L 395.011719 124.675781 L 397.160156 126.542969 L 399.175781 128.425781 L 401.070312 130.289062 L 402.90625 132.140625 L 404.652344 134.066406 L 406.152344 136.117188 L 407.273438 138.28125 L 407.910156 140.523438 L 408.03125 141.992188 L 407.734375 144.316406 L 406.875 146.59375 L 405.546875 148.769531 L 403.875 150.816406 L 402.023438 152.746094 L 400.117188 154.632812 L 398.117188 156.464844 L 395.972656 158.144531 L 393.699219 159.5625 L 391.347656 160.632812 Z M 390.453125 160.9375 "/>
<path style=" stroke:none;fill-rule:nonzero;fill:rgb(95.686275%,95.686275%,95.686275%);fill-opacity:1;" d="M 133.117188 331.234375 L 130.84375 330.945312 L 128.617188 330.117188 L 126.480469 328.832031 L 124.472656 327.214844 L 122.578125 325.40625 L 120.722656 323.546875 L 118.867188 321.59375 L 117.050781 319.503906 L 115.335938 317.277344 L 113.800781 314.953125 L 113.066406 313.691406 L 111.828125 311.171875 L 110.878906 308.679688 L 110.210938 306.289062 L 109.773438 304.03125 L 109.46875 301.886719 L 109.222656 299.734375 L 109.132812 297.464844 L 109.316406 295.054688 L 109.84375 292.542969 L 110.652344 290.21875 L 111.816406 287.84375 L 113.273438 285.53125 L 114.957031 283.332031 L 116.78125 281.273438 L 118.660156 279.339844 L 120.558594 277.460938 L 122.535156 275.6875 L 124.648438 274.179688 L 126.875 273.078125 L 129.171875 272.488281 L 130.390625 272.40625 L 132.6875 272.695312 L 134.941406 273.527344 L 137.105469 274.816406 L 139.136719 276.449219 L 141.054688 278.269531 L 142.929688 280.152344 L 144.800781 282.113281 L 146.632812 284.214844 L 148.351562 286.449219 L 149.886719 288.777344 L 150.710938 290.21875 L 151.921875 292.761719 L 152.824219 295.265625 L 153.4375 297.667969 L 153.804688 299.929688 L 154.039062 302.078125 L 154.214844 304.230469 L 154.238281 306.503906 L 153.992188 308.910156 L 153.417969 311.40625 L 152.585938 313.691406 L 151.398438 316.058594 L 149.929688 318.359375 L 148.246094 320.542969 L 146.4375 322.582031 L 144.574219 324.492188 L 142.695312 326.347656 L 140.730469 328.089844 L 138.636719 329.566406 L 136.425781 330.628906 L 134.148438 331.175781 Z M 133.117188 331.234375 "/>
<path style=" stroke:none;fill-rule:nonzero;fill:rgb(95.686275%,95.686275%,95.686275%);fill-opacity:1;" d="M 630.363281 351.792969 L 628.109375 351.515625 L 625.894531 350.707031 L 623.773438 349.453125 L 621.769531 347.863281 L 619.882812 346.082031 L 618.042969 344.238281 L 616.164062 342.324219 L 614.238281 340.277344 L 612.292969 338.105469 L 610.386719 335.84375 L 609.027344 334.132812 L 607.234375 331.734375 L 605.597656 329.371094 L 604.136719 327.101562 L 602.855469 324.957031 L 601.703125 322.929688 L 600.605469 320.921875 L 599.664062 318.78125 L 599.046875 316.441406 L 598.894531 313.902344 L 599.28125 311.203125 L 599.550781 310.234375 L 600.535156 307.777344 L 601.921875 305.292969 L 603.652344 302.832031 L 605.640625 300.441406 L 607.78125 298.140625 L 609.988281 295.914062 L 612.226562 293.722656 L 614.570312 291.675781 L 617.046875 289.914062 L 619.652344 288.566406 L 622.335938 287.742188 L 624.765625 287.5 L 627.449219 287.796875 L 630.09375 288.65625 L 632.65625 290.019531 L 635.09375 291.78125 L 637.398438 293.8125 L 639.605469 295.976562 L 641.792969 298.175781 L 643.953125 300.449219 L 646.039062 302.808594 L 647.972656 305.238281 L 649.683594 307.6875 L 651.113281 310.113281 L 651.175781 310.234375 L 652.367188 312.816406 L 653.171875 315.285156 L 653.617188 317.585938 L 653.761719 319.703125 L 653.691406 321.65625 L 653.542969 323.542969 L 653.328125 325.476562 L 652.960938 327.523438 L 652.382812 329.683594 L 651.558594 331.914062 L 650.503906 334.132812 L 649.128906 336.46875 L 647.527344 338.75 L 645.769531 340.921875 L 643.921875 342.957031 L 642.054688 344.871094 L 640.175781 346.734375 L 638.21875 348.488281 L 636.132812 349.992188 L 633.933594 351.097656 L 631.660156 351.703125 Z M 630.363281 351.792969 "/>
<path style=" stroke:none;fill-rule:nonzero;fill:rgb(95.686275%,95.686275%,95.686275%);fill-opacity:1;" d="M 486.859375 193.625 L 484.050781 194.550781 L 481.355469 194.992188 L 478.832031 194.996094 L 476.5 194.652344 L 474.335938 194.09375 L 472.207031 193.46875 L 469.976562 192.726562 L 467.585938 191.769531 L 465.046875 190.542969 L 462.410156 189.039062 L 461.210938 188.28125 L 458.785156 186.589844 L 456.378906 184.726562 L 454.046875 182.746094 L 451.816406 180.707031 L 449.707031 178.660156 L 447.667969 176.628906 L 445.675781 174.5625 L 443.847656 172.390625 L 442.320312 170.089844 L 441.214844 167.679688 L 440.621094 165.207031 L 440.53125 163.832031 L 440.824219 161.320312 L 441.675781 158.84375 L 443.007812 156.457031 L 444.714844 154.195312 L 446.660156 152.0625 L 448.703125 150.003906 L 450.792969 147.957031 L 452.984375 145.945312 L 455.296875 144.03125 L 457.699219 142.292969 L 460.148438 140.792969 L 461.210938 140.234375 L 463.664062 139.148438 L 466.0625 138.375 L 468.359375 137.898438 L 470.519531 137.675781 L 472.546875 137.636719 L 474.503906 137.683594 L 476.503906 137.789062 L 478.640625 138.066406 L 480.945312 138.605469 L 483.402344 139.453125 L 485.96875 140.628906 L 486.859375 141.109375 L 489.339844 142.617188 L 491.828125 144.382812 L 494.285156 146.347656 L 496.65625 148.441406 L 498.929688 150.601562 L 501.128906 152.78125 L 503.285156 154.972656 L 505.324219 157.257812 L 507.105469 159.671875 L 508.503906 162.210938 L 509.414062 164.839844 L 509.769531 167.507812 L 509.773438 167.789062 L 509.476562 170.484375 L 508.605469 173.140625 L 507.230469 175.714844 L 505.457031 178.160156 L 503.414062 180.472656 L 501.238281 182.691406 L 499.023438 184.882812 L 496.730469 187.027344 L 494.339844 189.054688 L 491.863281 190.878906 L 489.351562 192.425781 Z M 486.859375 193.625 "/>
<path style=" stroke:none;fill-rule:nonzero;fill:rgb(95.686275%,95.686275%,95.686275%);fill-opacity:1;" d="M 133.007812 418.597656 L 130.761719 417.699219 L 128.53125 416.417969 L 126.378906 414.835938 L 124.339844 413.050781 L 122.398438 411.167969 L 120.503906 409.257812 L 118.679688 407.285156 L 117.042969 405.226562 L 115.703125 403.113281 L 114.761719 401.003906 L 114.484375 400.074219 L 114.199219 397.785156 L 114.480469 395.636719 L 115.234375 393.679688 L 116.308594 391.917969 L 117.511719 390.253906 L 118.78125 388.53125 L 120.1875 386.648438 L 121.742188 384.605469 L 123.417969 382.445312 L 123.761719 382.007812 L 125.277344 380.089844 L 126.816406 378.175781 L 128.339844 376.304688 L 129.8125 374.511719 L 131.226562 372.804688 L 132.625 371.125 L 134.125 369.34375 L 135.824219 367.375 L 137.753906 365.195312 L 139.902344 362.824219 L 141.484375 361.113281 L 143.605469 358.855469 L 145.820312 356.542969 L 148.074219 354.21875 L 150.324219 351.929688 L 152.53125 349.703125 L 154.695312 347.539062 L 156.851562 345.40625 L 159.09375 343.375 L 161.457031 341.582031 L 163.945312 340.148438 L 166.527344 339.171875 L 169.15625 338.730469 L 169.886719 338.710938 L 172.621094 339.019531 L 175.316406 339.914062 L 177.921875 341.324219 L 180.394531 343.140625 L 182.734375 345.226562 L 184.980469 347.441406 L 187.195312 349.6875 L 189.320312 352 L 191.253906 354.378906 L 192.890625 356.792969 L 194.148438 359.191406 L 194.851562 361.113281 L 195.300781 363.679688 L 195.160156 366.070312 L 194.496094 368.246094 L 193.445312 370.199219 L 192.171875 371.980469 L 190.828125 373.734375 L 189.339844 375.628906 L 187.613281 377.75 L 185.617188 380.101562 L 183.367188 382.652344 L 182.667969 383.429688 L 180.644531 385.636719 L 178.511719 387.90625 L 176.324219 390.195312 L 174.121094 392.457031 L 171.941406 394.660156 L 169.800781 396.804688 L 167.679688 398.929688 L 165.515625 401.0625 L 163.292969 403.207031 L 161.011719 405.320312 L 158.71875 407.359375 L 156.449219 409.265625 L 154.851562 410.535156 L 152.113281 412.558594 L 149.578125 414.238281 L 147.285156 415.570312 L 145.242188 416.605469 L 143.363281 417.457031 L 141.480469 418.242188 L 139.472656 418.855469 L 137.304688 419.15625 L 135.011719 419.050781 Z M 133.007812 418.597656 "/>
<path style=" stroke:none;fill-rule:nonzero;fill:rgb(95.686275%,95.686275%,95.686275%);fill-opacity:1;" d="M 542.800781 348.667969 L 540.421875 347.527344 L 538.109375 346.085938 L 535.910156 344.414062 L 533.859375 342.601562 L 531.933594 340.730469 L 530.0625 338.839844 L 528.304688 336.863281 L 526.8125 334.757812 L 525.730469 332.535156 L 525.164062 330.242188 L 525.097656 329.128906 L 525.382812 326.847656 L 526.210938 324.605469 L 527.5 322.457031 L 529.121094 320.4375 L 530.933594 318.53125 L 532.804688 316.667969 L 534.757812 314.804688 L 536.851562 312.972656 L 539.082031 311.242188 L 541.40625 309.679688 L 542.800781 308.859375 L 545.332031 307.601562 L 547.832031 306.628906 L 550.234375 305.941406 L 552.5 305.480469 L 554.652344 305.160156 L 556.808594 304.894531 L 559.078125 304.78125 L 561.484375 304.933594 L 563.988281 305.429688 L 566.359375 306.230469 L 568.734375 307.375 L 571.046875 308.820312 L 573.242188 310.492188 L 575.285156 312.300781 L 577.207031 314.167969 L 579.070312 316.058594 L 580.824219 318.027344 L 582.308594 320.132812 L 583.378906 322.347656 L 583.9375 324.636719 L 584 325.707031 L 583.714844 327.984375 L 582.886719 330.21875 L 581.601562 332.359375 L 579.980469 334.375 L 578.171875 336.273438 L 576.304688 338.132812 L 574.355469 339.996094 L 572.261719 341.824219 L 570.03125 343.554688 L 567.710938 345.117188 L 566.359375 345.910156 L 563.832031 347.179688 L 561.335938 348.160156 L 558.933594 348.863281 L 556.671875 349.335938 L 554.523438 349.675781 L 552.367188 349.957031 L 550.09375 350.085938 L 547.6875 349.949219 L 545.183594 349.464844 Z M 542.800781 348.667969 "/>
<path style="fill:none;stroke-width:0.75;stroke-linecap:round;stroke-linejoin:round;stroke:rgb(66.27451%,66.27451%,66.27451%);stroke-opacity:1;stroke-miterlimit:10;" d="M 562.304688 180.933594 L 561.046875 179.386719 "/>
<path style="fill:none;stroke-width:0.75;stroke-linecap:round;stroke-linejoin:round;stroke:rgb(66.27451%,66.27451%,66.27451%);stroke-opacity:1;stroke-miterlimit:10;" d="M 257.894531 581.589844 L 250.765625 574.691406 "/>
<path style="fill:none;stroke-width:0.75;stroke-linecap:round;stroke-linejoin:round;stroke:rgb(66.27451%,66.27451%,66.27451%);stroke-opacity:1;stroke-miterlimit:10;" d="M 506.328125 567.503906 L 516.882812 568.976562 "/>
<path style="fill:none;stroke-width:0.75;stroke-linecap:round;stroke-linejoin:round;stroke:rgb(66.27451%,66.27451%,66.27451%);stroke-opacity:1;stroke-miterlimit:10;" d="M 581.035156 475.558594 L 595.726562 476.632812 "/>
<path style="fill:none;stroke-width:0.75;stroke-linecap:round;stroke-linejoin:round;stroke:rgb(66.27451%,66.27451%,66.27451%);stroke-opacity:1;stroke-miterlimit:10;" d="M 565.402344 474.078125 L 551.585938 472.472656 "/>
<path style="fill:none;stroke-width:0.75;stroke-linecap:round;stroke-linejoin:round;stroke:rgb(66.27451%,66.27451%,66.27451%);stroke-opacity:1;stroke-miterlimit:10;" d="M 419.398438 606.152344 L 426.203125 588.847656 "/>
<path style="fill:none;stroke-width:0.75;stroke-linecap:round;stroke-linejoin:round;stroke:rgb(66.27451%,66.27451%,66.27451%);stroke-opacity:1;stroke-miterlimit:10;" d="M 145.386719 446.679688 L 163.121094 444.269531 "/>
<path style="fill:none;stroke-width:0.75;stroke-linecap:round;stroke-linejoin:round;stroke:rgb(66.27451%,66.27451%,66.27451%);stroke-opacity:1;stroke-miterlimit:10;" d="M 331.628906 272.070312 L 331.527344 282.246094 "/>
<path style="fill:none;stroke-width:0.75;stroke-linecap:round;stroke-linejoin:round;stroke:rgb(66.27451%,66.27451%,66.27451%);stroke-opacity:1;stroke-miterlimit:10;" d="M 341.949219 610.515625 L 329.726562 608.367188 "/>
<path style="fill:none;stroke-width:0.75;stroke-linecap:round;stroke-linejoin:round;stroke:rgb(66.27451%,66.27451%,66.27451%);stroke-opacity:1;stroke-miterlimit:10;" d="M 201.632812 541.683594 L 191.464844 525.492188 "/>
<path style="fill:none;stroke-width:0.75;stroke-linecap:round;stroke-linejoin:round;stroke:rgb(66.27451%,66.27451%,66.27451%);stroke-opacity:1;stroke-miterlimit:10;" d="M 185.925781 208.203125 L 181.195312 189.828125 "/>
<path style="fill:none;stroke-width:0.75;stroke-linecap:round;stroke-linejoin:round;stroke:rgb(66.27451%,66.27451%,66.27451%);stroke-opacity:1;stroke-miterlimit:10;" d="M 186.578125 214.449219 L 186.082031 225.742188 "/>
<path style="fill:none;stroke-width:0.75;stroke-linecap:round;stroke-linejoin:round;stroke:rgb(66.27451%,66.27451%,66.27451%);stroke-opacity:1;stroke-miterlimit:10;" d="M 273.332031 482.929688 L 291.371094 488.152344 "/>
<path style="fill:none;stroke-width:0.75;stroke-linecap:round;stroke-linejoin:round;stroke:rgb(66.27451%,66.27451%,66.27451%);stroke-opacity:1;stroke-miterlimit:10;" d="M 387.945312 141.027344 L 370.089844 134.421875 "/>
<path style="fill:none;stroke-width:0.75;stroke-linecap:round;stroke-linejoin:round;stroke:rgb(66.27451%,66.27451%,66.27451%);stroke-opacity:1;stroke-miterlimit:10;" d="M 130.738281 293.101562 L 132.816406 311.246094 "/>
<path style="fill:none;stroke-width:0.75;stroke-linecap:round;stroke-linejoin:round;stroke:rgb(66.27451%,66.27451%,66.27451%);stroke-opacity:1;stroke-miterlimit:10;" d="M 629.6875 331.421875 L 627.253906 321.289062 "/>
<path style="fill:none;stroke-width:0.75;stroke-linecap:round;stroke-linejoin:round;stroke:rgb(66.27451%,66.27451%,66.27451%);stroke-opacity:1;stroke-miterlimit:10;" d="M 468.363281 164.941406 L 475.984375 166.148438 "/>
<path style="fill:none;stroke-width:0.75;stroke-linecap:round;stroke-linejoin:round;stroke:rgb(66.27451%,66.27451%,66.27451%);stroke-opacity:1;stroke-miterlimit:10;" d="M 135.539062 397.5625 L 145.304688 389.414062 "/>
<path style="fill:none;stroke-width:0.75;stroke-linecap:round;stroke-linejoin:round;stroke:rgb(66.27451%,66.27451%,66.27451%);stroke-opacity:1;stroke-miterlimit:10;" d="M 563.796875 326.097656 L 545.464844 328.722656 "/>
<path style="fill:none;stroke-width:0.75;stroke-linecap:round;stroke-linejoin:round;stroke:rgb(66.27451%,66.27451%,66.27451%);stroke-opacity:1;stroke-miterlimit:10;" d="M 160.683594 373.683594 L 161.628906 372.5 "/>
<path style=" stroke:none;fill-rule:nonzero;fill:rgb(3.137255%,81.960784%,81.960784%);fill-opacity:1;" d="M 385.953125 375.511719 C 385.953125 379.425781 380.085938 379.425781 380.085938 375.511719 C 380.085938 371.601562 385.953125 371.601562 385.953125 375.511719 "/>
<path style=" stroke:none;fill-rule:nonzero;fill:rgb(3.137255%,81.960784%,81.960784%);fill-opacity:1;" d="M 343.109375 175.890625 C 343.109375 179.871094 337.136719 179.871094 337.136719 175.890625 C 337.136719 171.90625 343.109375 171.90625 343.109375 175.890625 "/>
<path style=" stroke:none;fill-rule:nonzero;fill:rgb(3.137255%,81.960784%,81.960784%);fill-opacity:1;" d="M 526.875 200.960938 C 526.875 204.480469 521.59375 204.480469 521.59375 200.960938 C 521.59375 197.4375 526.875 197.4375 526.875 200.960938 "/>
<path style=" stroke:none;fill-rule:nonzero;fill:rgb(3.137255%,81.960784%,81.960784%);fill-opacity:1;" d="M 543.5 160.210938 L 564.222656 160.210938 L 564.222656 180.933594 L 543.5 180.933594 Z M 543.5 160.210938 "/>
<path style=" stroke:none;fill-rule:nonzero;fill:rgb(3.137255%,81.960784%,81.960784%);fill-opacity:1;" d="M 539.351562 529.71875 C 539.351562 533.238281 534.074219 533.238281 534.074219 529.71875 C 534.074219 526.199219 539.351562 526.199219 539.351562 529.71875 "/>
<path style=" stroke:none;fill-rule:nonzero;fill:rgb(3.137255%,81.960784%,81.960784%);fill-opacity:1;" d="M 270.558594 586.710938 C 270.558594 590.78125 267.257812 594.078125 263.191406 594.078125 C 259.121094 594.078125 255.824219 590.78125 255.824219 586.710938 C 255.824219 582.644531 259.121094 579.34375 263.191406 579.34375 C 267.257812 579.34375 270.558594 582.644531 270.558594 586.710938 "/>
<path style=" stroke:none;fill-rule:nonzero;fill:rgb(3.137255%,81.960784%,81.960784%);fill-opacity:1;" d="M 523.464844 136.113281 C 523.464844 139.105469 521.039062 141.53125 518.046875 141.53125 C 515.054688 141.53125 512.632812 139.105469 512.632812 136.113281 C 512.632812 133.125 515.054688 130.699219 518.046875 130.699219 C 521.039062 130.699219 523.464844 133.125 523.464844 136.113281 "/>
<path style=" stroke:none;fill-rule:nonzero;fill:rgb(3.137255%,81.960784%,81.960784%);fill-opacity:1;" d="M 316.277344 221.546875 C 316.277344 228.648438 305.625 228.648438 305.625 221.546875 C 305.625 214.445312 316.277344 214.445312 316.277344 221.546875 "/>
<path style=" stroke:none;fill-rule:nonzero;fill:rgb(3.137255%,81.960784%,81.960784%);fill-opacity:1;" d="M 485.601562 555.699219 L 506.324219 555.699219 L 506.324219 576.421875 L 485.601562 576.421875 Z M 485.601562 555.699219 "/>
<path style=" stroke:none;fill-rule:nonzero;fill:rgb(3.137255%,81.960784%,81.960784%);fill-opacity:1;" d="M 581.054688 474.984375 C 581.054688 479.324219 577.539062 482.839844 573.203125 482.839844 C 568.863281 482.839844 565.347656 479.324219 565.347656 474.984375 C 565.347656 470.648438 568.863281 467.132812 573.203125 467.132812 C 577.539062 467.132812 581.054688 470.648438 581.054688 474.984375 "/>
<path style=" stroke:none;fill-rule:nonzero;fill:rgb(3.137255%,81.960784%,81.960784%);fill-opacity:1;" d="M 421.21875 608.828125 C 421.21875 612.65625 415.472656 612.65625 415.472656 608.828125 C 415.472656 604.996094 421.21875 604.996094 421.21875 608.828125 "/>
<path style=" stroke:none;fill-rule:nonzero;fill:rgb(3.137255%,81.960784%,81.960784%);fill-opacity:1;" d="M 426.917969 406.667969 C 426.917969 410.15625 421.6875 410.15625 421.6875 406.667969 C 421.6875 403.179688 426.917969 403.179688 426.917969 406.667969 "/>
<path style=" stroke:none;fill-rule:nonzero;fill:rgb(3.137255%,81.960784%,81.960784%);fill-opacity:1;" d="M 235.691406 446.183594 C 235.691406 449.675781 230.453125 449.675781 230.453125 446.183594 C 230.453125 442.695312 235.691406 442.695312 235.691406 446.183594 "/>
<path style=" stroke:none;fill-rule:nonzero;fill:rgb(3.137255%,81.960784%,81.960784%);fill-opacity:1;" d="M 145.417969 447.15625 C 145.417969 451.855469 138.371094 451.855469 138.371094 447.15625 C 138.371094 442.457031 145.417969 442.457031 145.417969 447.15625 "/>
<path style=" stroke:none;fill-rule:nonzero;fill:rgb(3.137255%,81.960784%,81.960784%);fill-opacity:1;" d="M 372.386719 204.855469 C 372.386719 208.625 366.730469 208.625 366.730469 204.855469 C 366.730469 201.082031 372.386719 201.082031 372.386719 204.855469 "/>
<path style=" stroke:none;fill-rule:nonzero;fill:rgb(3.137255%,81.960784%,81.960784%);fill-opacity:1;" d="M 334.863281 268.871094 C 334.863281 273.140625 328.460938 273.140625 328.460938 268.871094 C 328.460938 264.601562 334.863281 264.601562 334.863281 268.871094 "/>
<path style=" stroke:none;fill-rule:nonzero;fill:rgb(3.137255%,81.960784%,81.960784%);fill-opacity:1;" d="M 168.746094 443.886719 C 168.746094 447.65625 163.09375 447.65625 163.09375 443.886719 C 163.09375 440.121094 168.746094 440.121094 168.746094 443.886719 "/>
<path style=" stroke:none;fill-rule:nonzero;fill:rgb(18.039216%,73.72549%,50.980392%);fill-opacity:1;" d="M 245.199219 307.652344 C 245.199219 311.191406 239.890625 311.191406 239.890625 307.652344 C 239.890625 304.117188 245.199219 304.117188 245.199219 307.652344 "/>
<path style=" stroke:none;fill-rule:nonzero;fill:rgb(18.039216%,56.862745%,73.72549%);fill-opacity:1;" d="M 249.460938 196.046875 C 249.460938 200.699219 242.484375 200.699219 242.484375 196.046875 C 242.484375 191.394531 249.460938 191.394531 249.460938 196.046875 "/>
<path style=" stroke:none;fill-rule:nonzero;fill:rgb(18.039216%,35.294118%,73.72549%);fill-opacity:1;" d="M 623.085938 377.035156 L 643.808594 377.035156 L 643.808594 397.757812 L 623.085938 397.757812 Z M 623.085938 377.035156 "/>
<path style=" stroke:none;fill-rule:nonzero;fill:rgb(18.039216%,35.294118%,73.72549%);fill-opacity:1;" d="M 471.039062 310.09375 C 471.039062 313.566406 465.824219 313.566406 465.824219 310.09375 C 465.824219 306.617188 471.039062 306.617188 471.039062 310.09375 "/>
<path style=" stroke:none;fill-rule:nonzero;fill:rgb(18.039216%,35.294118%,73.72549%);fill-opacity:1;" d="M 354.691406 413.421875 C 354.691406 417.324219 348.835938 417.324219 348.835938 413.421875 C 348.835938 409.519531 354.691406 409.519531 354.691406 413.421875 "/>
<path style=" stroke:none;fill-rule:nonzero;fill:rgb(18.039216%,35.294118%,73.72549%);fill-opacity:1;" d="M 357.246094 611.847656 C 357.246094 616.105469 353.796875 619.554688 349.539062 619.554688 C 345.28125 619.554688 341.832031 616.105469 341.832031 611.847656 C 341.832031 607.589844 345.28125 604.140625 349.539062 604.140625 C 353.796875 604.140625 357.246094 607.589844 357.246094 611.847656 "/>
<path style=" stroke:none;fill-rule:nonzero;fill:rgb(18.039216%,35.294118%,73.72549%);fill-opacity:1;" d="M 347.695312 550.699219 C 347.695312 554.296875 342.300781 554.296875 342.300781 550.699219 C 342.300781 547.105469 347.695312 547.105469 347.695312 550.699219 "/>
<path style=" stroke:none;fill-rule:nonzero;fill:rgb(18.039216%,35.294118%,73.72549%);fill-opacity:1;" d="M 349.230469 508.152344 C 349.230469 511.734375 343.855469 511.734375 343.855469 508.152344 C 343.855469 504.570312 349.230469 504.570312 349.230469 508.152344 "/>
<path style=" stroke:none;fill-rule:nonzero;fill:rgb(18.039216%,35.294118%,73.72549%);fill-opacity:1;" d="M 402.40625 496.925781 C 402.40625 500.855469 396.511719 500.855469 396.511719 496.925781 C 396.511719 492.996094 402.40625 492.996094 402.40625 496.925781 "/>
<path style=" stroke:none;fill-rule:nonzero;fill:rgb(3.529412%,80.784314%,55.294118%);fill-opacity:1;" d="M 240.746094 134.382812 C 240.746094 138.285156 234.890625 138.285156 234.890625 134.382812 C 234.890625 130.476562 240.746094 130.476562 240.746094 134.382812 "/>
<path style=" stroke:none;fill-rule:nonzero;fill:rgb(3.529412%,44.705882%,39.607843%);fill-opacity:1;" d="M 293.125 182.570312 C 293.125 186.757812 289.730469 190.152344 285.542969 190.152344 C 281.355469 190.152344 277.957031 186.757812 277.957031 182.570312 C 277.957031 178.382812 281.355469 174.984375 285.542969 174.984375 C 289.730469 174.984375 293.125 178.382812 293.125 182.570312 "/>
<path style=" stroke:none;fill-rule:nonzero;fill:rgb(3.529412%,44.705882%,39.607843%);fill-opacity:1;" d="M 469.179688 212.84375 C 469.179688 217.992188 461.457031 217.992188 461.457031 212.84375 C 461.457031 207.695312 469.179688 207.695312 469.179688 212.84375 "/>
<path style=" stroke:none;fill-rule:nonzero;fill:rgb(3.529412%,44.705882%,39.607843%);fill-opacity:1;" d="M 556.785156 421.21875 C 556.785156 425.148438 550.894531 425.148438 550.894531 421.21875 C 550.894531 417.289062 556.785156 417.289062 556.785156 421.21875 "/>
<path style=" stroke:none;fill-rule:nonzero;fill:rgb(67.058824%,33.72549%,84.705882%);fill-opacity:1;" d="M 510.847656 428.058594 C 510.847656 432.574219 504.074219 432.574219 504.074219 428.058594 C 504.074219 423.542969 510.847656 423.542969 510.847656 428.058594 "/>
<path style=" stroke:none;fill-rule:nonzero;fill:rgb(67.058824%,33.72549%,84.705882%);fill-opacity:1;" d="M 519.746094 287.542969 C 519.746094 291.117188 514.378906 291.117188 514.378906 287.542969 C 514.378906 283.964844 519.746094 283.964844 519.746094 287.542969 "/>
<path style=" stroke:none;fill-rule:nonzero;fill:rgb(67.058824%,33.72549%,84.705882%);fill-opacity:1;" d="M 205.671875 543.914062 C 205.671875 547.429688 200.398438 547.429688 200.398438 543.914062 C 200.398438 540.398438 205.671875 540.398438 205.671875 543.914062 "/>
<path style=" stroke:none;fill-rule:nonzero;fill:rgb(67.058824%,33.72549%,84.705882%);fill-opacity:1;" d="M 220.664062 354.125 L 241.386719 354.125 L 241.386719 374.847656 L 220.664062 374.847656 Z M 220.664062 354.125 "/>
<path style=" stroke:none;fill-rule:nonzero;fill:rgb(67.058824%,33.72549%,84.705882%);fill-opacity:1;" d="M 303.730469 386.371094 C 303.730469 389.921875 298.402344 389.921875 298.402344 386.371094 C 298.402344 382.820312 303.730469 382.820312 303.730469 386.371094 "/>
<path style=" stroke:none;fill-rule:nonzero;fill:rgb(3.921569%,62.745098%,12.156863%);fill-opacity:1;" d="M 451.425781 491.289062 C 451.425781 495.402344 445.257812 495.402344 445.257812 491.289062 C 445.257812 487.179688 451.425781 487.179688 451.425781 491.289062 "/>
<path style=" stroke:none;fill-rule:nonzero;fill:rgb(3.921569%,62.745098%,12.156863%);fill-opacity:1;" d="M 242.785156 517.269531 C 242.785156 522.300781 235.238281 522.300781 235.238281 517.269531 C 235.238281 512.238281 242.785156 512.238281 242.785156 517.269531 "/>
<path style=" stroke:none;fill-rule:nonzero;fill:rgb(3.921569%,62.745098%,12.156863%);fill-opacity:1;" d="M 312.941406 103.335938 C 312.941406 110.476562 302.230469 110.476562 302.230469 103.335938 C 302.230469 96.195312 312.941406 96.195312 312.941406 103.335938 "/>
<path style=" stroke:none;fill-rule:nonzero;fill:rgb(3.921569%,62.745098%,12.156863%);fill-opacity:1;" d="M 405.925781 97.867188 C 405.925781 101.695312 400.1875 101.695312 400.1875 97.867188 C 400.1875 94.042969 405.925781 94.042969 405.925781 97.867188 "/>
<path style=" stroke:none;fill-rule:nonzero;fill:rgb(3.921569%,62.745098%,12.156863%);fill-opacity:1;" d="M 189.890625 211.277344 C 189.890625 215.511719 183.539062 215.511719 183.539062 211.277344 C 183.539062 207.042969 189.890625 207.042969 189.890625 211.277344 "/>
<path style=" stroke:none;fill-rule:nonzero;fill:rgb(3.921569%,62.745098%,12.156863%);fill-opacity:1;" d="M 483.515625 392.667969 C 483.515625 398.335938 478.917969 402.933594 473.25 402.933594 C 467.578125 402.933594 462.984375 398.335938 462.984375 392.667969 C 462.984375 386.996094 467.578125 382.402344 473.25 382.402344 C 478.917969 382.402344 483.515625 386.996094 483.515625 392.667969 "/>
<path style=" stroke:none;fill-rule:nonzero;fill:rgb(3.921569%,62.745098%,12.156863%);fill-opacity:1;" d="M 192.707031 523.242188 C 192.707031 526.785156 187.394531 526.785156 187.394531 523.242188 C 187.394531 519.699219 192.707031 519.699219 192.707031 523.242188 "/>
<path style=" stroke:none;fill-rule:nonzero;fill:rgb(3.921569%,62.745098%,12.156863%);fill-opacity:1;" d="M 559.96875 250.84375 C 559.96875 257.121094 550.550781 257.121094 550.550781 250.84375 C 550.550781 244.566406 559.96875 244.566406 559.96875 250.84375 "/>
<path style=" stroke:none;fill-rule:nonzero;fill:rgb(3.921569%,62.745098%,12.156863%);fill-opacity:1;" d="M 477.230469 511.589844 L 497.953125 511.589844 L 497.953125 532.3125 L 477.230469 532.3125 Z M 477.230469 511.589844 "/>
<path style=" stroke:none;fill-rule:nonzero;fill:rgb(3.921569%,62.745098%,12.156863%);fill-opacity:1;" d="M 273.476562 481.917969 C 273.476562 486.757812 266.214844 486.757812 266.214844 481.917969 C 266.214844 477.078125 273.476562 477.078125 273.476562 481.917969 "/>
<path style=" stroke:none;fill-rule:nonzero;fill:rgb(3.921569%,62.745098%,12.156863%);fill-opacity:1;" d="M 507.601562 481.160156 C 507.601562 484.773438 502.183594 484.773438 502.183594 481.160156 C 502.183594 477.546875 507.601562 477.546875 507.601562 481.160156 "/>
<path style=" stroke:none;fill-rule:nonzero;fill:rgb(3.921569%,62.745098%,12.156863%);fill-opacity:1;" d="M 183.183594 187.265625 C 183.183594 190.796875 177.886719 190.796875 177.886719 187.265625 C 177.886719 183.730469 183.183594 183.730469 183.183594 187.265625 "/>
<path style=" stroke:none;fill-rule:nonzero;fill:rgb(3.921569%,62.745098%,12.156863%);fill-opacity:1;" d="M 393.347656 141.992188 C 393.347656 145.710938 387.773438 145.710938 387.773438 141.992188 C 387.773438 138.277344 393.347656 138.277344 393.347656 141.992188 "/>
<path style=" stroke:none;fill-rule:nonzero;fill:rgb(3.921569%,62.745098%,12.156863%);fill-opacity:1;" d="M 595.261719 407.183594 C 595.261719 410.75 589.910156 410.75 589.910156 407.183594 C 589.910156 403.617188 595.261719 403.617188 595.261719 407.183594 "/>
<path style=" stroke:none;fill-rule:nonzero;fill:rgb(3.921569%,62.745098%,12.156863%);fill-opacity:1;" d="M 624.613281 260.097656 C 624.613281 263.566406 621.796875 266.382812 618.328125 266.382812 C 614.855469 266.382812 612.042969 263.566406 612.042969 260.097656 C 612.042969 256.625 614.855469 253.8125 618.328125 253.8125 C 621.796875 253.8125 624.613281 256.625 624.613281 260.097656 "/>
<path style=" stroke:none;fill-rule:nonzero;fill:rgb(3.921569%,62.745098%,12.156863%);fill-opacity:1;" d="M 133.4375 290.078125 C 133.4375 294.136719 127.347656 294.136719 127.347656 290.078125 C 127.347656 286.019531 133.4375 286.019531 133.4375 290.078125 "/>
<path style=" stroke:none;fill-rule:nonzero;fill:rgb(3.921569%,62.745098%,12.156863%);fill-opacity:1;" d="M 188.816406 317.128906 L 209.539062 317.128906 L 209.539062 337.851562 L 188.816406 337.851562 Z M 188.816406 317.128906 "/>
<path style=" stroke:none;fill-rule:nonzero;fill:rgb(3.921569%,62.745098%,12.156863%);fill-opacity:1;" d="M 633.257812 334.238281 C 633.257812 338.097656 627.46875 338.097656 627.46875 334.238281 C 627.46875 330.375 633.257812 330.375 633.257812 334.238281 "/>
<path style=" stroke:none;fill-rule:nonzero;fill:rgb(3.921569%,62.745098%,12.156863%);fill-opacity:1;" d="M 146.199219 243.808594 C 146.199219 249.160156 138.167969 249.160156 138.167969 243.808594 C 138.167969 238.453125 146.199219 238.453125 146.199219 243.808594 "/>
<path style=" stroke:none;fill-rule:nonzero;fill:rgb(3.921569%,62.745098%,12.156863%);fill-opacity:1;" d="M 220.109375 165.042969 C 220.109375 168.496094 214.929688 168.496094 214.929688 165.042969 C 214.929688 161.589844 220.109375 161.589844 220.109375 165.042969 "/>
<path style=" stroke:none;fill-rule:nonzero;fill:rgb(3.921569%,62.745098%,12.156863%);fill-opacity:1;" d="M 468.449219 163.832031 C 468.449219 167.742188 465.28125 170.90625 461.375 170.90625 C 457.46875 170.90625 454.300781 167.742188 454.300781 163.832031 C 454.300781 159.925781 457.46875 156.761719 461.375 156.761719 C 465.28125 156.761719 468.449219 159.925781 468.449219 163.832031 "/>
<path style=" stroke:none;fill-rule:nonzero;fill:rgb(3.921569%,62.745098%,12.156863%);fill-opacity:1;" d="M 136.246094 399.507812 C 136.246094 403.558594 130.167969 403.558594 130.167969 399.507812 C 130.167969 395.457031 136.246094 395.457031 136.246094 399.507812 "/>
<path style=" stroke:none;fill-rule:nonzero;fill:rgb(3.921569%,62.745098%,12.156863%);fill-opacity:1;" d="M 224.1875 268.152344 C 224.1875 272.09375 220.988281 275.292969 217.042969 275.292969 C 213.101562 275.292969 209.902344 272.09375 209.902344 268.152344 C 209.902344 264.207031 213.101562 261.007812 217.042969 261.007812 C 220.988281 261.007812 224.1875 264.207031 224.1875 268.152344 "/>
<path style=" stroke:none;fill-rule:nonzero;fill:rgb(3.921569%,62.745098%,12.156863%);fill-opacity:1;" d="M 569.3125 325.707031 C 569.3125 329.402344 563.765625 329.402344 563.765625 325.707031 C 563.765625 322.007812 569.3125 322.007812 569.3125 325.707031 "/>
<path style=" stroke:none;fill-rule:nonzero;fill:rgb(3.921569%,62.745098%,12.156863%);fill-opacity:1;" d="M 600.988281 476.824219 C 600.988281 480.339844 595.71875 480.339844 595.71875 476.824219 C 595.71875 473.3125 600.988281 473.3125 600.988281 476.824219 "/>
<path style=" stroke:none;fill-rule:nonzero;fill:rgb(3.921569%,62.745098%,12.156863%);fill-opacity:1;" d="M 353.5 462.683594 C 353.5 466.445312 347.855469 466.445312 347.855469 462.683594 C 347.855469 458.917969 353.5 458.917969 353.5 462.683594 "/>
<path style=" stroke:none;fill-rule:nonzero;fill:rgb(3.921569%,62.745098%,12.156863%);fill-opacity:1;" d="M 281.53125 337.910156 C 281.53125 341.609375 275.980469 341.609375 275.980469 337.910156 C 275.980469 334.207031 281.53125 334.207031 281.53125 337.910156 "/>
<path style=" stroke:none;fill-rule:nonzero;fill:rgb(3.921569%,62.745098%,12.156863%);fill-opacity:1;" d="M 164.851562 382.328125 C 164.851562 388.433594 159.902344 393.386719 153.796875 393.386719 C 147.6875 393.386719 142.738281 388.433594 142.738281 382.328125 C 142.738281 376.222656 147.6875 371.273438 153.796875 371.273438 C 159.902344 371.273438 164.851562 376.222656 164.851562 382.328125 "/>
<path style=" stroke:none;fill-rule:nonzero;fill:rgb(3.921569%,62.745098%,12.156863%);fill-opacity:1;" d="M 252.71875 569.863281 C 252.71875 573.699219 249.613281 576.808594 245.777344 576.808594 C 241.941406 576.808594 238.835938 573.699219 238.835938 569.863281 C 238.835938 566.03125 241.941406 562.921875 245.777344 562.921875 C 249.613281 562.921875 252.71875 566.03125 252.71875 569.863281 "/>
<path style=" stroke:none;fill-rule:nonzero;fill:rgb(3.921569%,62.745098%,12.156863%);fill-opacity:1;" d="M 397.527344 542.183594 C 397.527344 545.726562 392.214844 545.726562 392.214844 542.183594 C 392.214844 538.640625 397.527344 538.640625 397.527344 542.183594 "/>
<path style=" stroke:none;fill-rule:nonzero;fill:rgb(3.921569%,62.745098%,12.156863%);fill-opacity:1;" d="M 159.523438 351.773438 L 180.246094 351.773438 L 180.246094 372.496094 L 159.523438 372.496094 Z M 159.523438 351.773438 "/>
<path style=" stroke:none;fill-rule:nonzero;fill:rgb(3.921569%,62.745098%,12.156863%);fill-opacity:1;" d="M 404.859375 448.816406 C 404.859375 452.570312 399.230469 452.570312 399.230469 448.816406 C 399.230469 445.0625 404.859375 445.0625 404.859375 448.816406 "/>
<path style=" stroke:none;fill-rule:nonzero;fill:rgb(3.921569%,62.745098%,12.156863%);fill-opacity:1;" d="M 484.722656 339.941406 L 505.445312 339.941406 L 505.445312 360.664062 L 484.722656 360.664062 Z M 484.722656 339.941406 "/>
<path style=" stroke:none;fill-rule:nonzero;fill:rgb(3.921569%,62.745098%,12.156863%);fill-opacity:1;" d="M 470.921875 597.171875 C 470.921875 600.878906 465.359375 600.878906 465.359375 597.171875 C 465.359375 593.464844 470.921875 593.464844 470.921875 597.171875 "/>
<path style=" stroke:none;fill-rule:nonzero;fill:rgb(3.921569%,62.745098%,12.156863%);fill-opacity:1;" d="M 289.59375 426.363281 L 310.316406 426.363281 L 310.316406 447.085938 L 289.59375 447.085938 Z M 289.59375 426.363281 "/>
<path style=" stroke:none;fill-rule:nonzero;fill:rgb(3.921569%,62.745098%,12.156863%);fill-opacity:1;" d="M 281.652344 274.785156 C 281.652344 278.492188 276.089844 278.492188 276.089844 274.785156 C 276.089844 271.078125 281.652344 271.078125 281.652344 274.785156 "/>
<path style=" stroke:none;fill-rule:nonzero;fill:rgb(3.921569%,62.745098%,12.156863%);fill-opacity:1;" d="M 540.335938 379.820312 C 540.335938 384.171875 533.8125 384.171875 533.8125 379.820312 C 533.8125 375.472656 540.335938 375.472656 540.335938 379.820312 "/>
<path style=" stroke:none;fill-rule:nonzero;fill:rgb(15.294118%,28.627451%,27.058824%);fill-opacity:1;" d="M 514.320312 239.824219 C 514.320312 244.226562 507.71875 244.226562 507.71875 239.824219 C 507.71875 235.421875 514.320312 235.421875 514.320312 239.824219 "/>
<path style=" stroke:none;fill-rule:nonzero;fill:rgb(15.294118%,28.627451%,27.058824%);fill-opacity:1;" d="M 559.128906 179.386719 L 579.851562 179.386719 L 579.851562 200.109375 L 559.128906 200.109375 Z M 559.128906 179.386719 "/>
<path style=" stroke:none;fill-rule:nonzero;fill:rgb(15.294118%,28.627451%,27.058824%);fill-opacity:1;" d="M 257.214844 237 C 257.214844 242.042969 249.652344 242.042969 249.652344 237 C 249.652344 231.957031 257.214844 231.957031 257.214844 237 "/>
<path style=" stroke:none;fill-rule:nonzero;fill:rgb(15.294118%,28.627451%,27.058824%);fill-opacity:1;" d="M 551.601562 472.171875 C 551.601562 475.65625 546.375 475.65625 546.375 472.171875 C 546.375 468.683594 551.601562 468.683594 551.601562 472.171875 "/>
<path style=" stroke:none;fill-rule:nonzero;fill:rgb(18.039216%,73.72549%,27.058824%);fill-opacity:1;" d="M 430.945312 585.617188 C 430.945312 590.246094 424.003906 590.246094 424.003906 585.617188 C 424.003906 580.992188 430.945312 580.992188 430.945312 585.617188 "/>
<path style=" stroke:none;fill-rule:nonzero;fill:rgb(18.039216%,73.72549%,27.058824%);fill-opacity:1;" d="M 335.890625 348.972656 C 335.890625 353.289062 329.414062 353.289062 329.414062 348.972656 C 329.414062 344.65625 335.890625 344.65625 335.890625 348.972656 "/>
<path style=" stroke:none;fill-rule:nonzero;fill:rgb(18.039216%,73.72549%,27.058824%);fill-opacity:1;" d="M 206.394531 476.785156 C 206.394531 480.890625 200.238281 480.890625 200.238281 476.785156 C 200.238281 472.683594 206.394531 472.683594 206.394531 476.785156 "/>
<path style=" stroke:none;fill-rule:nonzero;fill:rgb(18.039216%,73.72549%,27.058824%);fill-opacity:1;" d="M 343.609375 294.449219 C 343.609375 301.1875 338.144531 306.652344 331.40625 306.652344 C 324.664062 306.652344 319.203125 301.1875 319.203125 294.449219 C 319.203125 287.710938 324.664062 282.246094 331.40625 282.246094 C 338.144531 282.246094 343.609375 287.710938 343.609375 294.449219 "/>
<path style=" stroke:none;fill-rule:nonzero;fill:rgb(18.039216%,73.72549%,27.058824%);fill-opacity:1;" d="M 464.117188 109.183594 L 484.839844 109.183594 L 484.839844 129.90625 L 464.117188 129.90625 Z M 464.117188 109.183594 "/>
<path style=" stroke:none;fill-rule:nonzero;fill:rgb(18.039216%,73.72549%,27.058824%);fill-opacity:1;" d="M 428.933594 98.4375 L 449.65625 98.4375 L 449.65625 119.160156 L 428.933594 119.160156 Z M 428.933594 98.4375 "/>
<path style=" stroke:none;fill-rule:nonzero;fill:rgb(18.039216%,73.72549%,27.058824%);fill-opacity:1;" d="M 595.445312 225.820312 C 595.445312 229.472656 589.96875 229.472656 589.96875 225.820312 C 589.96875 222.171875 595.445312 222.171875 595.445312 225.820312 "/>
<path style=" stroke:none;fill-rule:nonzero;fill:rgb(18.039216%,73.72549%,27.058824%);fill-opacity:1;" d="M 329.773438 607.800781 C 329.773438 612.160156 323.238281 612.160156 323.238281 607.800781 C 323.238281 603.441406 329.773438 603.441406 329.773438 607.800781 "/>
<path style=" stroke:none;fill-rule:nonzero;fill:rgb(18.039216%,73.72549%,27.058824%);fill-opacity:1;" d="M 447 349.910156 C 447 357.0625 441.203125 362.863281 434.046875 362.863281 C 426.894531 362.863281 421.09375 357.0625 421.09375 349.910156 C 421.09375 342.757812 426.894531 336.957031 434.046875 336.957031 C 441.203125 336.957031 447 342.757812 447 349.910156 "/>
<path style=" stroke:none;fill-rule:nonzero;fill:rgb(18.039216%,73.72549%,27.058824%);fill-opacity:1;" d="M 121.019531 354.496094 C 121.019531 357.625 118.480469 360.164062 115.351562 360.164062 C 112.222656 360.164062 109.6875 357.625 109.6875 354.496094 C 109.6875 351.367188 112.222656 348.828125 115.351562 348.828125 C 118.480469 348.828125 121.019531 351.367188 121.019531 354.496094 "/>
<path style=" stroke:none;fill-rule:nonzero;fill:rgb(18.039216%,73.72549%,27.058824%);fill-opacity:1;" d="M 382.011719 251.207031 C 382.011719 254.847656 376.546875 254.847656 376.546875 251.207031 C 376.546875 247.566406 382.011719 247.566406 382.011719 251.207031 "/>
<path style=" stroke:none;fill-rule:nonzero;fill:rgb(18.039216%,73.72549%,27.058824%);fill-opacity:1;" d="M 178.1875 289.75 C 178.1875 293.238281 172.957031 293.238281 172.957031 289.75 C 172.957031 286.265625 178.1875 286.265625 178.1875 289.75 "/>
<path style=" stroke:none;fill-rule:nonzero;fill:rgb(18.039216%,73.72549%,27.058824%);fill-opacity:1;" d="M 356.9375 93.753906 C 356.9375 100.492188 346.828125 100.492188 346.828125 93.753906 C 346.828125 87.011719 356.9375 87.011719 356.9375 93.753906 "/>
<path style=" stroke:none;fill-rule:nonzero;fill:rgb(18.039216%,73.72549%,27.058824%);fill-opacity:1;" d="M 421.910156 288.34375 C 421.910156 292.179688 416.15625 292.179688 416.15625 288.34375 C 416.15625 284.507812 421.910156 284.507812 421.910156 288.34375 "/>
<path style=" stroke:none;fill-rule:nonzero;fill:rgb(18.039216%,73.72549%,27.058824%);fill-opacity:1;" d="M 308.613281 574.128906 C 308.613281 580.214844 299.480469 580.214844 299.480469 574.128906 C 299.480469 568.039062 308.613281 568.039062 308.613281 574.128906 "/>
<path style=" stroke:none;fill-rule:nonzero;fill:rgb(18.039216%,73.72549%,27.058824%);fill-opacity:1;" d="M 258.234375 404.789062 C 258.234375 408.535156 252.613281 408.535156 252.613281 404.789062 C 252.613281 401.042969 258.234375 401.042969 258.234375 404.789062 "/>
<path style=" stroke:none;fill-rule:nonzero;fill:rgb(18.039216%,73.72549%,27.058824%);fill-opacity:1;" d="M 446 539.609375 C 446 543.214844 440.589844 543.214844 440.589844 539.609375 C 440.589844 536 446 536 446 539.609375 "/>
<path style=" stroke:none;fill-rule:nonzero;fill:rgb(18.039216%,73.72549%,27.058824%);fill-opacity:1;" d="M 588.167969 283.058594 C 588.167969 287.828125 581.011719 287.828125 581.011719 283.058594 C 581.011719 278.285156 588.167969 278.285156 588.167969 283.058594 "/>
<path style=" stroke:none;fill-rule:nonzero;fill:rgb(18.039216%,73.72549%,27.058824%);fill-opacity:1;" d="M 175.261719 225.742188 L 195.984375 225.742188 L 195.984375 246.464844 L 175.261719 246.464844 Z M 175.261719 225.742188 "/>
<path style=" stroke:none;fill-rule:nonzero;fill:rgb(18.039216%,73.72549%,27.058824%);fill-opacity:1;" d="M 577.277344 526.0625 C 577.277344 529.960938 571.429688 529.960938 571.429688 526.0625 C 571.429688 522.164062 577.277344 522.164062 577.277344 526.0625 "/>
<path style=" stroke:none;fill-rule:nonzero;fill:rgb(18.039216%,73.72549%,27.058824%);fill-opacity:1;" d="M 522.582031 569.371094 C 522.582031 573.1875 516.855469 573.1875 516.855469 569.371094 C 516.855469 565.554688 522.582031 565.554688 522.582031 569.371094 "/>
<path style=" stroke:none;fill-rule:nonzero;fill:rgb(18.039216%,73.72549%,27.058824%);fill-opacity:1;" d="M 292.199219 534.917969 C 292.199219 538.613281 286.65625 538.613281 286.65625 534.917969 C 286.65625 531.222656 292.199219 531.222656 292.199219 534.917969 "/>
<path style=" stroke:none;fill-rule:nonzero;fill:rgb(18.039216%,73.72549%,27.058824%);fill-opacity:1;" d="M 611.035156 426 L 631.757812 426 L 631.757812 446.722656 L 611.035156 446.722656 Z M 611.035156 426 "/>
<path style=" stroke:none;fill-rule:nonzero;fill:rgb(18.039216%,73.72549%,27.058824%);fill-opacity:1;" d="M 391.703125 322.441406 C 391.703125 327.042969 387.972656 330.777344 383.367188 330.777344 C 378.761719 330.777344 375.03125 327.042969 375.03125 322.441406 C 375.03125 317.835938 378.761719 314.101562 383.367188 314.101562 C 387.972656 314.101562 391.703125 317.835938 391.703125 322.441406 "/>
<path style=" stroke:none;fill-rule:nonzero;fill:rgb(18.039216%,73.72549%,27.058824%);fill-opacity:1;" d="M 370.269531 133.40625 C 370.269531 137.320312 364.394531 137.320312 364.394531 133.40625 C 364.394531 129.488281 370.269531 129.488281 370.269531 133.40625 "/>
<path style=" stroke:none;fill-rule:nonzero;fill:rgb(18.039216%,73.72549%,27.058824%);fill-opacity:1;" d="M 280.734375 130.609375 C 280.734375 134.582031 277.511719 137.800781 273.542969 137.800781 C 269.570312 137.800781 266.351562 134.582031 266.351562 130.609375 C 266.351562 126.636719 269.570312 123.417969 273.542969 123.417969 C 277.511719 123.417969 280.734375 126.636719 280.734375 130.609375 "/>
<path style=" stroke:none;fill-rule:nonzero;fill:rgb(18.039216%,73.72549%,27.058824%);fill-opacity:1;" d="M 135.761719 313.875 C 135.761719 317.402344 130.472656 317.402344 130.472656 313.875 C 130.472656 310.347656 135.761719 310.347656 135.761719 313.875 "/>
<path style=" stroke:none;fill-rule:nonzero;fill:rgb(18.039216%,73.72549%,27.058824%);fill-opacity:1;" d="M 584.796875 353.207031 L 605.519531 353.207031 L 605.519531 373.929688 L 584.796875 373.929688 Z M 584.796875 353.207031 "/>
<path style=" stroke:none;fill-rule:nonzero;fill:rgb(18.039216%,73.72549%,27.058824%);fill-opacity:1;" d="M 614.40625 300.5625 L 635.128906 300.5625 L 635.128906 321.285156 L 614.40625 321.285156 Z M 614.40625 300.5625 "/>
<path style=" stroke:none;fill-rule:nonzero;fill:rgb(73.72549%,18.039216%,63.137255%);fill-opacity:1;" d="M 160.804688 491.683594 C 160.804688 496.503906 153.574219 496.503906 153.574219 491.683594 C 153.574219 486.859375 160.804688 486.859375 160.804688 491.683594 "/>
<path style=" stroke:none;fill-rule:nonzero;fill:rgb(41.568627%,32.156863%,77.647059%);fill-opacity:1;" d="M 475.984375 157.425781 L 496.707031 157.425781 L 496.707031 178.148438 L 475.984375 178.148438 Z M 475.984375 157.425781 "/>
<path style=" stroke:none;fill-rule:nonzero;fill:rgb(41.568627%,32.156863%,77.647059%);fill-opacity:1;" d="M 382.898438 586.589844 C 382.898438 590.269531 377.378906 590.269531 377.378906 586.589844 C 377.378906 582.910156 382.898438 582.910156 382.898438 586.589844 "/>
<path style=" stroke:none;fill-rule:nonzero;fill:rgb(41.568627%,32.156863%,77.647059%);fill-opacity:1;" d="M 545.496094 329.128906 C 545.496094 332.949219 539.761719 332.949219 539.761719 329.128906 C 539.761719 325.308594 545.496094 325.308594 545.496094 329.128906 "/>
<path style=" stroke:none;fill-rule:nonzero;fill:rgb(41.568627%,32.156863%,77.647059%);fill-opacity:1;" d="M 419.261719 177.503906 C 419.261719 181.828125 412.777344 181.828125 412.777344 177.503906 C 412.777344 173.179688 419.261719 173.179688 419.261719 177.503906 "/>
<path style=" stroke:none;fill-rule:nonzero;fill:rgb(41.568627%,32.156863%,77.647059%);fill-opacity:1;" d="M 205.023438 408.839844 C 205.023438 412.351562 199.753906 412.351562 199.753906 408.839844 C 199.753906 405.324219 205.023438 405.324219 205.023438 408.839844 "/>
<path style=" stroke:none;fill-rule:nonzero;fill:rgb(41.568627%,32.156863%,77.647059%);fill-opacity:1;" d="M 296.820312 488.925781 C 296.820312 492.628906 291.261719 492.628906 291.261719 488.925781 C 291.261719 485.21875 296.820312 485.21875 296.820312 488.925781 "/>
<path style=" stroke:none;fill-rule:nonzero;fill:rgb(67.843137%,55.294118%,55.294118%);fill-opacity:1;" d="M 316.0625 144.355469 C 316.0625 148.179688 310.324219 148.179688 310.324219 144.355469 C 310.324219 140.535156 316.0625 140.535156 316.0625 144.355469 "/>
<path style=" stroke:none;fill-rule:nonzero;fill:rgb(67.843137%,55.294118%,55.294118%);fill-opacity:1;" d="M 468.824219 261.277344 C 468.824219 265.539062 462.429688 265.539062 462.429688 261.277344 C 462.429688 257.015625 468.824219 257.015625 468.824219 261.277344 "/>
<path style=" stroke:none;fill-rule:nonzero;fill:rgb(67.843137%,55.294118%,55.294118%);fill-opacity:1;" d="M 465.214844 447.769531 C 465.214844 451.71875 459.289062 451.71875 459.289062 447.769531 C 459.289062 443.816406 465.214844 443.816406 465.214844 447.769531 "/>
<path style=" stroke:none;fill-rule:nonzero;fill:rgb(81.176471%,90.588235%,12.156863%);fill-opacity:1;" d="M 423.539062 228.429688 C 423.539062 232.203125 417.882812 232.203125 417.882812 228.429688 C 417.882812 224.660156 423.539062 224.660156 423.539062 228.429688 "/>
</g>
</svg>
