<?xml version="1.0" encoding="UTF-8"?>
<svg xmlns="http://www.w3.org/2000/svg" xmlns:xlink="http://www.w3.org/1999/xlink" width="720pt" height="720pt" viewBox="0 0 720 720" version="1.1">
<g id="surface3911">
<path style=" stroke:none;fill-rule:nonzero;fill:rgb(95.686275%,95.686275%,95.686275%);fill-opacity:1;" d="M 393.320312 139.261719 L 390.667969 138.972656 L 388.058594 138.132812 L 385.523438 136.800781 L 383.113281 135.078125 L 380.828125 133.085938 L 378.644531 130.953125 L 376.480469 128.78125 L 374.296875 126.554688 L 372.109375 124.246094 L 369.957031 121.875 L 367.898438 119.488281 L 365.988281 117.132812 L 365.621094 116.660156 L 363.800781 114.195312 L 362.222656 111.855469 L 360.902344 109.679688 L 359.820312 107.6875 L 358.925781 105.859375 L 358.117188 104.109375 L 357.378906 102.308594 L 356.839844 100.355469 L 356.613281 98.21875 L 356.789062 95.910156 L 357.40625 93.46875 L 357.601562 92.929688 L 358.699219 90.527344 L 360.167969 88.085938 L 361.953125 85.65625 L 363.964844 83.28125 L 366.113281 80.992188 L 368.316406 78.765625 L 370.550781 76.582031 L 372.886719 74.535156 L 375.355469 72.769531 L 377.953125 71.417969 L 380.628906 70.582031 L 383.121094 70.324219 L 385.769531 70.613281 L 388.382812 71.457031 L 390.914062 72.789062 L 393.328125 74.511719 L 395.609375 76.503906 L 397.796875 78.636719 L 399.960938 80.804688 L 402.144531 83.035156 L 404.332031 85.34375 L 406.484375 87.710938 L 408.542969 90.097656 L 410.449219 92.453125 L 410.820312 92.929688 L 412.640625 95.394531 L 414.21875 97.734375 L 415.539062 99.910156 L 416.621094 101.898438 L 417.515625 103.730469 L 418.324219 105.476562 L 419.0625 107.28125 L 419.601562 109.234375 L 419.824219 111.371094 L 419.652344 113.675781 L 419.035156 116.117188 L 418.839844 116.660156 L 417.742188 119.058594 L 416.273438 121.5 L 414.488281 123.933594 L 412.476562 126.304688 L 410.328125 128.597656 L 408.125 130.820312 L 405.890625 133.007812 L 403.554688 135.054688 L 401.085938 136.820312 L 398.488281 138.171875 L 395.8125 139.007812 Z M 393.320312 139.261719 "/>
<path style=" stroke:none;fill-rule:nonzero;fill:rgb(95.686275%,95.686275%,95.686275%);fill-opacity:1;" d="M 333.105469 587.421875 L 330.625 587.136719 L 328.179688 586.304688 L 325.824219 585 L 323.589844 583.324219 L 321.480469 581.414062 L 319.449219 579.402344 L 317.414062 577.347656 L 315.359375 575.207031 L 313.304688 572.96875 L 311.308594 570.65625 L 309.425781 568.320312 L 308.480469 567.074219 L 306.65625 564.480469 L 305.082031 561.992188 L 303.777344 559.65625 L 302.710938 557.5 L 301.800781 555.488281 L 300.957031 553.488281 L 300.269531 551.359375 L 299.902344 549.046875 L 299.960938 546.566406 L 300.511719 543.96875 L 300.65625 543.523438 L 301.667969 541.132812 L 303.058594 538.730469 L 304.761719 536.378906 L 306.6875 534.117188 L 308.734375 531.957031 L 310.828125 529.859375 L 312.964844 527.824219 L 315.222656 525.976562 L 317.617188 524.464844 L 320.117188 523.417969 L 322.675781 522.921875 L 323.519531 522.886719 L 326.023438 523.175781 L 328.492188 524.007812 L 330.871094 525.320312 L 333.132812 527.003906 L 335.265625 528.929688 L 337.316406 530.960938 L 339.367188 533.03125 L 341.4375 535.183594 L 343.5 537.4375 L 345.496094 539.757812 L 347.371094 542.105469 L 348.433594 543.523438 L 350.230469 546.144531 L 351.761719 548.660156 L 353.007812 551.007812 L 354.007812 553.171875 L 354.84375 555.191406 L 355.617188 557.199219 L 356.226562 559.335938 L 356.527344 561.652344 L 356.402344 564.136719 L 355.796875 566.726562 L 355.679688 567.074219 L 354.648438 569.460938 L 353.246094 571.851562 L 351.539062 574.1875 L 349.621094 576.429688 L 347.585938 578.566406 L 345.515625 580.644531 L 343.390625 582.65625 L 341.144531 584.472656 L 338.769531 585.945312 L 336.285156 586.953125 L 333.75 587.402344 Z M 333.105469 587.421875 "/>
<path style=" stroke:none;fill-rule:nonzero;fill:rgb(95.686275%,95.686275%,95.686275%);fill-opacity:1;" d="M 449.359375 211.03125 L 446.824219 210.769531 L 444.316406 209.992188 L 441.882812 208.765625 L 439.554688 207.164062 L 437.347656 205.296875 L 435.238281 203.273438 L 433.175781 201.203125 L 431.179688 199.074219 L 429.367188 196.835938 L 427.851562 194.480469 L 426.730469 192.023438 L 426.082031 189.507812 L 425.929688 187.605469 L 426.222656 184.941406 L 427.074219 182.3125 L 428.421875 179.769531 L 430.160156 177.34375 L 432.171875 175.050781 L 434.316406 172.855469 L 436.5 170.679688 L 438.738281 168.496094 L 441.042969 166.332031 L 443.394531 164.234375 L 445.738281 162.273438 L 448.03125 160.496094 L 448.332031 160.273438 L 450.816406 158.554688 L 453.140625 157.152344 L 455.261719 156.054688 L 457.171875 155.238281 L 458.910156 154.609375 L 460.597656 154.054688 L 462.355469 153.585938 L 464.246094 153.324219 L 466.269531 153.351562 L 468.382812 153.722656 L 469.757812 154.152344 L 471.984375 155.15625 L 474.199219 156.507812 L 476.339844 158.136719 L 478.371094 159.9375 L 480.300781 161.820312 L 482.191406 163.726562 L 484.003906 165.679688 L 485.628906 167.695312 L 486.941406 169.730469 L 487.851562 171.722656 L 488.085938 172.480469 L 488.355469 174.585938 L 488.050781 176.503906 L 487.265625 178.203125 L 486.164062 179.695312 L 484.9375 181.089844 L 483.582031 182.597656 L 481.941406 184.386719 L 479.949219 186.515625 L 477.609375 188.964844 L 477.320312 189.261719 L 475.339844 191.308594 L 473.226562 193.46875 L 471.03125 195.699219 L 468.804688 197.941406 L 466.597656 200.15625 L 464.417969 202.335938 L 462.234375 204.488281 L 459.960938 206.523438 L 457.558594 208.308594 L 455.035156 209.71875 L 452.421875 210.648438 L 449.761719 211.027344 Z M 449.359375 211.03125 "/>
<path style=" stroke:none;fill-rule:nonzero;fill:rgb(95.686275%,95.686275%,95.686275%);fill-opacity:1;" d="M 565.335938 272.109375 L 563.078125 271.824219 L 560.863281 271.007812 L 558.742188 269.734375 L 556.742188 268.132812 L 554.859375 266.339844 L 553.015625 264.492188 L 551.164062 262.550781 L 549.328125 260.449219 L 547.570312 258.191406 L 545.949219 255.808594 L 545.082031 254.359375 L 543.765625 251.832031 L 542.691406 249.300781 L 541.851562 246.835938 L 541.222656 244.484375 L 540.734375 242.242188 L 540.292969 240.019531 L 539.921875 237.699219 L 539.707031 235.234375 L 539.707031 232.640625 L 539.957031 229.984375 L 540.125 228.960938 L 540.710938 226.414062 L 541.523438 223.921875 L 542.511719 221.542969 L 543.625 219.304688 L 544.800781 217.203125 L 545.992188 215.152344 L 547.253906 213.042969 L 548.652344 210.820312 L 550.203125 208.5 L 551.894531 206.125 L 553.371094 204.175781 L 555.269531 201.816406 L 557.222656 199.535156 L 559.179688 197.378906 L 561.089844 195.371094 L 562.9375 193.5 L 564.761719 191.683594 L 566.652344 189.957031 L 568.667969 188.460938 L 570.796875 187.324219 L 573 186.660156 L 574.636719 186.511719 L 576.929688 186.804688 L 579.175781 187.644531 L 581.328125 188.953125 L 583.351562 190.597656 L 585.257812 192.421875 L 587.128906 194.304688 L 588.960938 196.289062 L 590.6875 198.425781 L 592.214844 200.714844 L 593.460938 203.113281 L 593.902344 204.175781 L 594.675781 206.707031 L 595.085938 209.222656 L 595.167969 211.660156 L 594.992188 213.972656 L 594.664062 216.175781 L 594.300781 218.375 L 593.910156 220.691406 L 593.484375 223.171875 L 593.023438 225.796875 L 592.539062 228.496094 L 592.453125 228.960938 L 591.964844 231.601562 L 591.472656 234.207031 L 590.988281 236.707031 L 590.519531 239.070312 L 590.074219 241.300781 L 589.628906 243.5 L 589.082031 245.78125 L 588.359375 248.179688 L 587.410156 250.664062 L 586.21875 253.183594 L 585.578125 254.359375 L 584.074219 256.792969 L 582.394531 259.128906 L 580.597656 261.328125 L 578.75 263.359375 L 576.902344 265.25 L 575.050781 267.085938 L 573.125 268.816406 L 571.078125 270.304688 L 568.910156 271.402344 L 566.671875 272.007812 Z M 565.335938 272.109375 "/>
<path style=" stroke:none;fill-rule:nonzero;fill:rgb(95.686275%,95.686275%,95.686275%);fill-opacity:1;" d="M 156.105469 297.667969 L 153.898438 297.648438 L 151.808594 297.0625 L 149.875 296.003906 L 148.113281 294.605469 L 146.476562 293.042969 L 144.832031 291.421875 L 143.0625 289.679688 L 141.128906 287.765625 L 139.046875 285.707031 L 137.035156 283.707031 L 134.96875 281.652344 L 132.890625 279.585938 L 130.851562 277.550781 L 128.890625 275.59375 L 127.015625 273.71875 L 125.1875 271.878906 L 123.441406 269.96875 L 121.925781 267.9375 L 120.777344 265.789062 L 120.101562 263.566406 L 119.941406 261.882812 L 120.199219 259.71875 L 120.945312 257.59375 L 122.113281 255.546875 L 123.597656 253.609375 L 125.285156 251.785156 L 127.046875 250.019531 L 128.84375 248.296875 L 130.722656 246.714844 L 132.675781 245.378906 L 134.667969 244.382812 L 136.660156 243.800781 L 137.035156 243.738281 L 139.234375 243.71875 L 141.324219 244.246094 L 143.261719 245.238281 L 145.027344 246.554688 L 146.679688 248.03125 L 148.347656 249.566406 L 150.148438 251.238281 L 152.125 253.09375 L 154.261719 255.121094 L 156.105469 256.890625 L 158.183594 258.902344 L 160.277344 260.953125 L 162.34375 262.992188 L 164.335938 264.96875 L 166.242188 266.871094 L 168.105469 268.742188 L 169.886719 270.675781 L 171.449219 272.730469 L 172.65625 274.902344 L 173.394531 277.160156 L 173.601562 279.121094 L 173.34375 281.316406 L 172.59375 283.480469 L 171.417969 285.5625 L 169.914062 287.535156 L 168.207031 289.394531 L 166.421875 291.191406 L 164.597656 292.945312 L 162.699219 294.5625 L 160.730469 295.933594 L 158.71875 296.960938 L 156.714844 297.574219 Z M 156.105469 297.667969 "/>
<path style=" stroke:none;fill-rule:nonzero;fill:rgb(95.686275%,95.686275%,95.686275%);fill-opacity:1;" d="M 288.101562 372.957031 L 285.652344 373.378906 L 283.265625 373.332031 L 281.003906 372.875 L 278.890625 372.109375 L 276.902344 371.1875 L 274.90625 370.210938 L 272.792969 369.097656 L 270.535156 367.789062 L 268.164062 366.261719 L 265.890625 364.648438 L 263.636719 362.902344 L 261.421875 361.050781 L 259.296875 359.144531 L 257.292969 357.246094 L 255.402344 355.382812 L 253.5625 353.53125 L 251.816406 351.605469 L 250.3125 349.558594 L 249.179688 347.394531 L 248.535156 345.15625 L 248.40625 343.632812 L 248.707031 341.304688 L 249.566406 339.019531 L 250.90625 336.832031 L 252.582031 334.78125 L 254.441406 332.84375 L 256.355469 330.949219 L 258.359375 329.117188 L 260.496094 327.449219 L 262.75 326.050781 L 265.0625 325.015625 L 265.890625 324.746094 L 268.324219 324.265625 L 270.703125 324.234375 L 272.96875 324.601562 L 275.082031 325.253906 L 277.085938 326.0625 L 279.097656 326.925781 L 281.238281 327.933594 L 283.53125 329.164062 L 285.945312 330.632812 L 288.101562 332.101562 L 290.371094 333.804688 L 292.605469 335.636719 L 294.761719 337.542969 L 296.804688 339.464844 L 298.734375 341.363281 L 300.609375 343.246094 L 302.398438 345.199219 L 303.960938 347.273438 L 305.160156 349.464844 L 305.878906 351.742188 L 306.0625 353.59375 L 305.761719 355.964844 L 304.894531 358.292969 L 303.546875 360.523438 L 301.851562 362.617188 L 299.960938 364.59375 L 298.015625 366.523438 L 295.988281 368.394531 L 293.835938 370.097656 L 291.570312 371.527344 L 289.246094 372.589844 Z M 288.101562 372.957031 "/>
<path style=" stroke:none;fill-rule:nonzero;fill:rgb(95.686275%,95.686275%,95.686275%);fill-opacity:1;" d="M 361.070312 220.125 L 358.316406 219.832031 L 355.601562 218.972656 L 352.96875 217.617188 L 350.453125 215.855469 L 348.070312 213.808594 L 345.792969 211.605469 L 343.546875 209.359375 L 341.28125 207.085938 L 338.996094 204.789062 L 336.726562 202.503906 L 334.535156 200.277344 L 332.46875 198.164062 L 331.53125 197.199219 L 329.300781 194.890625 L 327.390625 192.875 L 325.808594 191.183594 L 324.519531 189.777344 L 323.417969 188.558594 L 322.382812 187.347656 L 321.507812 186.003906 L 320.945312 184.472656 L 320.800781 182.75 L 321.125 180.90625 L 321.898438 178.988281 L 323.085938 176.992188 L 324.613281 174.976562 L 326.375 172.996094 L 328.25 171.070312 L 330.164062 169.167969 L 332.152344 167.296875 L 334.257812 165.53125 L 336.464844 163.964844 L 338.722656 162.679688 L 339.882812 162.144531 L 342.078125 161.390625 L 344.210938 160.972656 L 346.242188 160.863281 L 348.144531 161.003906 L 349.921875 161.308594 L 351.664062 161.675781 L 353.503906 162.152344 L 355.546875 162.867188 L 357.8125 163.898438 L 360.28125 165.285156 L 362.203125 166.53125 L 364.546875 168.226562 L 366.953125 170.140625 L 369.375 172.230469 L 371.769531 174.425781 L 374.101562 176.667969 L 376.367188 178.917969 L 378.605469 181.171875 L 380.746094 183.503906 L 382.660156 185.960938 L 384.222656 188.546875 L 385.320312 191.234375 L 385.882812 193.980469 L 385.945312 195.25 L 385.675781 197.867188 L 384.898438 200.457031 L 383.660156 202.980469 L 382.039062 205.394531 L 380.136719 207.691406 L 378.0625 209.878906 L 375.929688 212.015625 L 373.75 214.101562 L 371.464844 216.027344 L 369.0625 217.683594 L 366.550781 218.96875 L 363.96875 219.796875 L 361.347656 220.121094 Z M 361.070312 220.125 "/>
<path style=" stroke:none;fill-rule:nonzero;fill:rgb(95.686275%,95.686275%,95.686275%);fill-opacity:1;" d="M 594.222656 346.691406 L 591.753906 345.527344 L 589.300781 344.027344 L 586.910156 342.261719 L 584.625 340.304688 L 582.457031 338.246094 L 580.355469 336.15625 L 578.308594 334.027344 L 576.4375 331.785156 L 574.882812 329.40625 L 573.773438 326.917969 L 573.199219 324.363281 L 573.128906 323.136719 L 573.425781 320.582031 L 574.28125 318.070312 L 575.625 315.644531 L 577.347656 313.34375 L 579.316406 311.175781 L 581.386719 309.085938 L 583.5 307.007812 L 585.714844 304.976562 L 588.042969 303.050781 L 590.457031 301.3125 L 592.910156 299.832031 L 594.222656 299.164062 L 596.976562 298.058594 L 599.640625 297.367188 L 602.15625 297.054688 L 604.496094 297.050781 L 606.6875 297.226562 L 608.863281 297.460938 L 611.140625 297.820312 L 613.554688 298.402344 L 616.0625 299.257812 L 618.609375 300.40625 L 619.082031 300.648438 L 621.480469 302.058594 L 623.8125 303.683594 L 626.023438 305.460938 L 628.089844 307.320312 L 630.019531 309.203125 L 631.894531 311.089844 L 633.675781 313.050781 L 635.210938 315.136719 L 636.367188 317.34375 L 637.027344 319.625 L 637.160156 321.191406 L 636.875 323.484375 L 636.054688 325.734375 L 634.777344 327.894531 L 633.160156 329.929688 L 631.347656 331.847656 L 629.472656 333.71875 L 627.519531 335.605469 L 625.425781 337.484375 L 623.191406 339.304688 L 620.847656 341.003906 L 619.082031 342.144531 L 616.554688 343.570312 L 614.050781 344.753906 L 611.632812 345.695312 L 609.34375 346.421875 L 607.167969 347.007812 L 605.007812 347.539062 L 602.726562 347.917969 L 600.269531 348.011719 L 597.65625 347.710938 L 594.941406 346.960938 Z M 594.222656 346.691406 "/>
<path style=" stroke:none;fill-rule:nonzero;fill:rgb(95.686275%,95.686275%,95.686275%);fill-opacity:1;" d="M 177.046875 534.042969 L 174.84375 534.046875 L 172.738281 533.503906 L 170.777344 532.503906 L 168.976562 531.179688 L 167.296875 529.695312 L 165.601562 528.15625 L 163.785156 526.492188 L 161.804688 524.652344 L 159.683594 522.65625 L 157.757812 520.828125 L 155.675781 518.820312 L 153.589844 516.789062 L 151.546875 514.78125 L 149.59375 512.84375 L 147.730469 510.980469 L 145.910156 509.148438 L 144.179688 507.246094 L 142.683594 505.21875 L 141.5625 503.074219 L 140.917969 500.859375 L 140.785156 499.324219 L 141.042969 497.175781 L 141.785156 495.0625 L 142.949219 493.03125 L 144.429688 491.105469 L 146.109375 489.292969 L 147.859375 487.539062 L 149.648438 485.832031 L 151.523438 484.269531 L 153.480469 482.957031 L 155.480469 481.992188 L 157.480469 481.445312 L 157.757812 481.40625 L 159.964844 481.402344 L 162.070312 481.941406 L 164.03125 482.941406 L 165.832031 484.261719 L 167.511719 485.742188 L 169.207031 487.277344 L 171.027344 488.941406 L 173.007812 490.777344 L 175.132812 492.769531 L 177.046875 494.59375 L 179.132812 496.597656 L 181.21875 498.628906 L 183.261719 500.636719 L 185.214844 502.578125 L 187.082031 504.4375 L 188.90625 506.273438 L 190.636719 508.179688 L 192.132812 510.207031 L 193.257812 512.347656 L 193.902344 514.566406 L 194.035156 516.109375 L 193.78125 518.261719 L 193.035156 520.375 L 191.875 522.410156 L 190.390625 524.332031 L 188.710938 526.144531 L 186.960938 527.902344 L 185.167969 529.609375 L 183.292969 531.175781 L 181.339844 532.488281 L 179.335938 533.453125 L 177.335938 534 Z M 177.046875 534.042969 "/>
<path style=" stroke:none;fill-rule:nonzero;fill:rgb(95.686275%,95.686275%,95.686275%);fill-opacity:1;" d="M 257.441406 304.484375 L 255.433594 304.261719 L 253.457031 303.609375 L 251.542969 302.582031 L 249.71875 301.257812 L 248 299.730469 L 246.347656 298.109375 L 244.710938 296.429688 L 243.089844 294.550781 L 241.515625 292.34375 L 240.042969 289.757812 L 238.726562 286.789062 L 237.671875 283.691406 L 236.886719 280.652344 L 236.257812 277.417969 L 235.789062 274.042969 L 235.464844 270.59375 L 235.273438 267.128906 L 235.175781 263.695312 L 235.132812 260.300781 L 235.113281 256.90625 L 235.160156 253.457031 L 235.332031 249.945312 L 235.671875 246.394531 L 236.210938 242.859375 L 236.964844 239.394531 L 237.941406 236.058594 L 238.128906 235.511719 L 239.433594 232.21875 L 240.957031 229.152344 L 242.664062 226.335938 L 244.503906 223.796875 L 246.421875 221.511719 L 248.375 219.4375 L 250.332031 217.46875 L 252.320312 215.539062 L 254.394531 213.730469 L 256.574219 212.140625 L 258.855469 210.863281 L 261.210938 209.972656 L 263.605469 209.523438 L 264.6875 209.476562 L 267.125 209.71875 L 269.535156 210.4375 L 271.882812 211.578125 L 274.136719 213.074219 L 276.28125 214.832031 L 278.320312 216.753906 L 280.3125 218.738281 L 282.277344 220.792969 L 284.164062 223.027344 L 285.902344 225.519531 L 287.414062 228.289062 L 288.636719 231.328125 L 289.523438 234.605469 L 289.699219 235.511719 L 290.101562 238.777344 L 290.195312 242.179688 L 290 245.664062 L 289.546875 249.171875 L 288.878906 252.652344 L 288.0625 256.070312 L 287.160156 259.433594 L 286.230469 262.78125 L 285.265625 266.160156 L 284.226562 269.574219 L 283.101562 272.992188 L 281.890625 276.355469 L 280.601562 279.601562 L 279.246094 282.671875 L 278.757812 283.691406 L 276.914062 287.21875 L 275.019531 290.332031 L 273.125 293 L 271.273438 295.242188 L 269.480469 297.15625 L 267.726562 298.914062 L 265.921875 300.613281 L 264.015625 302.128906 L 261.996094 303.347656 L 259.890625 304.152344 L 257.742188 304.480469 Z M 257.441406 304.484375 "/>
<path style=" stroke:none;fill-rule:nonzero;fill:rgb(95.686275%,95.686275%,95.686275%);fill-opacity:1;" d="M 238.429688 154.273438 L 236.101562 153.398438 L 233.804688 152.128906 L 231.589844 150.535156 L 229.5 148.726562 L 227.519531 146.808594 L 225.589844 144.859375 L 223.769531 142.828125 L 222.226562 140.660156 L 221.09375 138.371094 L 220.492188 136.011719 L 220.414062 134.78125 L 220.695312 132.464844 L 221.519531 130.195312 L 222.800781 128.015625 L 224.425781 125.957031 L 226.25 124.019531 L 228.140625 122.128906 L 230.09375 120.222656 L 232.164062 118.300781 L 234.339844 116.410156 L 236.585938 114.617188 L 238.429688 113.261719 L 240.90625 111.621094 L 243.3125 110.222656 L 245.589844 109.070312 L 247.707031 108.136719 L 249.707031 107.339844 L 251.71875 106.601562 L 253.855469 106.035156 L 256.140625 105.78125 L 258.535156 105.929688 L 260.539062 106.390625 L 262.855469 107.308594 L 265.125 108.605469 L 267.304688 110.199219 L 269.347656 111.988281 L 271.28125 113.867188 L 273.164062 115.777344 L 274.921875 117.78125 L 276.394531 119.914062 L 277.433594 122.167969 L 277.941406 124.480469 L 277.976562 125.304688 L 277.695312 127.566406 L 276.878906 129.785156 L 275.613281 131.914062 L 274.011719 133.914062 L 272.21875 135.804688 L 270.371094 137.652344 L 268.449219 139.527344 L 266.402344 141.429688 L 264.246094 143.316406 L 262.015625 145.125 L 260.539062 146.246094 L 258.121094 147.9375 L 255.761719 149.429688 L 253.515625 150.703125 L 251.417969 151.777344 L 249.433594 152.722656 L 247.4375 153.613281 L 245.316406 154.328125 L 243.042969 154.726562 L 240.644531 154.703125 Z M 238.429688 154.273438 "/>
<path style=" stroke:none;fill-rule:nonzero;fill:rgb(95.686275%,95.686275%,95.686275%);fill-opacity:1;" d="M 132.347656 414.488281 L 130.09375 414.207031 L 127.882812 413.398438 L 125.761719 412.140625 L 123.765625 410.546875 L 121.882812 408.765625 L 120.039062 406.925781 L 118.148438 405.027344 L 116.1875 403.042969 L 114.175781 400.988281 L 112.160156 398.910156 L 110.785156 397.472656 L 108.695312 395.269531 L 106.742188 393.175781 L 104.964844 391.238281 L 103.363281 389.472656 L 101.878906 387.824219 L 100.457031 386.152344 L 99.238281 384.34375 L 98.390625 382.359375 L 98.035156 380.222656 L 98.132812 378.601562 L 98.65625 376.625 L 99.59375 374.632812 L 100.882812 372.667969 L 102.433594 370.777344 L 104.140625 368.960938 L 105.902344 367.195312 L 107.710938 365.480469 L 109.625 363.941406 L 111.652344 362.699219 L 113.769531 361.859375 L 115.929688 361.496094 L 116.390625 361.484375 L 118.652344 361.761719 L 120.871094 362.574219 L 123 363.835938 L 125.007812 365.433594 L 126.902344 367.21875 L 128.75 369.066406 L 130.644531 370.972656 L 132.613281 372.960938 L 134.621094 375.019531 L 136.628906 377.101562 L 138.054688 378.601562 L 140.136719 380.816406 L 142.078125 382.921875 L 143.835938 384.863281 L 145.414062 386.632812 L 146.871094 388.285156 L 148.265625 389.960938 L 149.457031 391.777344 L 150.28125 393.769531 L 150.609375 395.90625 L 150.503906 397.472656 L 149.972656 399.445312 L 149.03125 401.433594 L 147.738281 403.390625 L 146.191406 405.277344 L 144.492188 407.082031 L 142.734375 408.84375 L 140.929688 410.546875 L 139.023438 412.074219 L 137 413.304688 L 134.894531 414.132812 L 132.742188 414.480469 Z M 132.347656 414.488281 "/>
<path style=" stroke:none;fill-rule:nonzero;fill:rgb(95.686275%,95.686275%,95.686275%);fill-opacity:1;" d="M 382.058594 631.675781 L 379.507812 632.59375 L 376.984375 633.15625 L 374.5625 633.386719 L 372.273438 633.355469 L 370.097656 633.179688 L 367.921875 632.953125 L 365.636719 632.582031 L 363.214844 631.976562 L 360.707031 631.085938 L 358.230469 629.929688 L 355.859375 628.546875 L 353.558594 626.945312 L 351.378906 625.191406 L 349.351562 623.355469 L 347.453125 621.5 L 345.605469 619.636719 L 343.867188 617.691406 L 342.386719 615.621094 L 341.300781 613.433594 L 340.71875 611.175781 L 340.640625 609.972656 L 340.929688 607.683594 L 341.765625 605.441406 L 343.066406 603.296875 L 344.703125 601.277344 L 346.523438 599.375 L 348.398438 597.507812 L 350.371094 595.664062 L 352.488281 593.902344 L 354.746094 592.304688 L 357.105469 590.949219 L 358.230469 590.414062 L 360.765625 589.464844 L 363.273438 588.859375 L 365.695312 588.570312 L 367.980469 588.53125 L 370.15625 588.636719 L 372.332031 588.796875 L 374.625 589.101562 L 377.054688 589.652344 L 379.582031 590.496094 L 382.058594 591.617188 L 384.4375 592.976562 L 386.75 594.566406 L 388.945312 596.324219 L 390.996094 598.171875 L 392.917969 600.046875 L 394.785156 601.925781 L 396.550781 603.886719 L 398.066406 605.972656 L 399.191406 608.179688 L 399.816406 610.457031 L 399.921875 611.847656 L 399.628906 614.160156 L 398.789062 616.425781 L 397.480469 618.597656 L 395.835938 620.640625 L 393.996094 622.570312 L 392.105469 624.453125 L 390.121094 626.316406 L 387.992188 628.09375 L 385.726562 629.699219 L 383.367188 631.0625 Z M 382.058594 631.675781 "/>
<path style=" stroke:none;fill-rule:nonzero;fill:rgb(95.686275%,95.686275%,95.686275%);fill-opacity:1;" d="M 341.839844 149.765625 L 339.585938 149.488281 L 337.371094 148.679688 L 335.246094 147.421875 L 333.246094 145.832031 L 331.359375 144.050781 L 329.515625 142.207031 L 327.640625 140.285156 L 325.726562 138.226562 L 323.8125 136.023438 L 321.949219 133.71875 L 320.640625 131.980469 L 318.9375 129.539062 L 317.402344 127.117188 L 316.050781 124.773438 L 314.878906 122.550781 L 313.839844 120.441406 L 312.855469 118.355469 L 312.011719 116.148438 L 311.476562 113.753906 L 311.375 111.167969 L 311.785156 108.433594 L 312.152344 107.160156 L 313.179688 104.664062 L 314.601562 102.152344 L 316.351562 99.675781 L 318.34375 97.273438 L 320.484375 94.976562 L 322.6875 92.75 L 324.917969 90.566406 L 327.25 88.519531 L 329.71875 86.753906 L 332.3125 85.398438 L 334.988281 84.558594 L 337.5 84.300781 L 340.183594 84.597656 L 342.828125 85.460938 L 345.390625 86.824219 L 347.828125 88.585938 L 350.136719 90.617188 L 352.34375 92.78125 L 354.53125 94.984375 L 356.6875 97.261719 L 358.757812 99.636719 L 360.664062 102.085938 L 362.339844 104.574219 L 363.71875 107.046875 L 363.773438 107.160156 L 364.964844 110.015625 L 365.699219 112.738281 L 366.007812 115.277344 L 365.980469 117.609375 L 365.753906 119.777344 L 365.460938 121.921875 L 365.050781 124.167969 L 364.421875 126.546875 L 363.527344 129.019531 L 362.355469 131.527344 L 362.113281 131.980469 L 360.6875 134.359375 L 359.054688 136.671875 L 357.277344 138.859375 L 355.429688 140.902344 L 353.5625 142.8125 L 351.691406 144.667969 L 349.746094 146.421875 L 347.671875 147.929688 L 345.480469 149.042969 L 343.214844 149.664062 Z M 341.839844 149.765625 "/>
<path style=" stroke:none;fill-rule:nonzero;fill:rgb(95.686275%,95.686275%,95.686275%);fill-opacity:1;" d="M 547.546875 184.238281 L 545.210938 184.917969 L 542.972656 185.183594 L 540.871094 185.078125 L 538.933594 184.667969 L 537.140625 184.058594 L 535.40625 183.371094 L 533.601562 182.605469 L 531.628906 181.644531 L 529.460938 180.429688 L 527.117188 178.9375 L 524.667969 177.195312 L 522.34375 175.382812 L 519.972656 173.398438 L 517.605469 171.289062 L 515.28125 169.117188 L 513.035156 166.933594 L 510.855469 164.761719 L 508.703125 162.582031 L 506.671875 160.316406 L 504.882812 157.917969 L 503.46875 155.402344 L 502.53125 152.792969 L 502.140625 150.140625 L 502.132812 149.675781 L 502.441406 146.949219 L 503.332031 144.257812 L 504.738281 141.65625 L 506.550781 139.183594 L 508.632812 136.847656 L 510.839844 134.605469 L 513.085938 132.394531 L 515.398438 130.269531 L 517.789062 128.332031 L 520.226562 126.683594 L 522.660156 125.410156 L 524.667969 124.679688 L 527.300781 124.210938 L 529.777344 124.328125 L 532.046875 124.957031 L 534.097656 125.976562 L 535.980469 127.214844 L 537.832031 128.523438 L 539.800781 129.953125 L 541.949219 131.582031 L 544.265625 133.429688 L 546.71875 135.476562 L 547.546875 136.191406 L 549.8125 138.195312 L 552.09375 140.285156 L 554.347656 142.40625 L 556.523438 144.519531 L 558.613281 146.582031 L 560.636719 148.605469 L 562.621094 150.652344 L 564.449219 152.804688 L 565.984375 155.085938 L 567.113281 157.476562 L 567.738281 159.929688 L 567.847656 161.476562 L 567.546875 164.027344 L 566.675781 166.535156 L 565.308594 168.953125 L 563.5625 171.238281 L 561.578125 173.398438 L 559.503906 175.480469 L 557.382812 177.539062 L 555.175781 179.511719 L 552.875 181.300781 L 550.527344 182.816406 L 548.183594 183.988281 Z M 547.546875 184.238281 "/>
<path style=" stroke:none;fill-rule:nonzero;fill:rgb(95.686275%,95.686275%,95.686275%);fill-opacity:1;" d="M 589.730469 462.234375 L 587.128906 462.109375 L 584.570312 461.957031 L 582.105469 461.785156 L 579.785156 461.597656 L 577.585938 461.402344 L 575.417969 461.195312 L 573.136719 460.859375 L 570.667969 460.261719 L 568.015625 459.328125 L 565.222656 458.023438 L 563.867188 457.273438 L 561.375 455.703125 L 558.875 453.898438 L 556.417969 451.90625 L 554.042969 449.796875 L 551.769531 447.632812 L 549.578125 445.460938 L 547.421875 443.273438 L 545.386719 440.996094 L 543.601562 438.589844 L 542.195312 436.058594 L 541.273438 433.441406 L 540.90625 430.777344 L 540.898438 430.421875 L 541.195312 427.746094 L 542.050781 425.109375 L 543.40625 422.554688 L 545.15625 420.125 L 547.179688 417.824219 L 549.332031 415.625 L 551.527344 413.445312 L 553.796875 411.285156 L 556.171875 409.195312 L 558.632812 407.242188 L 561.140625 405.5 L 563.644531 404.027344 L 563.867188 403.910156 L 566.726562 402.605469 L 569.476562 401.71875 L 572.054688 401.21875 L 574.4375 401.042969 L 576.660156 401.066406 L 578.84375 401.152344 L 581.128906 401.316406 L 583.558594 401.621094 L 586.109375 402.109375 L 588.726562 402.804688 L 589.730469 403.125 L 592.214844 404.042969 L 594.640625 405.117188 L 596.96875 406.304688 L 599.152344 407.558594 L 601.207031 408.835938 L 603.207031 410.117188 L 605.261719 411.460938 L 607.425781 412.929688 L 609.699219 414.550781 L 612.035156 416.308594 L 614.222656 418.042969 L 616.566406 419.996094 L 618.84375 421.996094 L 621.007812 423.988281 L 623.027344 425.925781 L 624.921875 427.796875 L 626.753906 429.636719 L 628.503906 431.539062 L 630.035156 433.558594 L 631.214844 435.699219 L 631.929688 437.917969 L 632.121094 439.796875 L 631.832031 442.097656 L 631 444.355469 L 629.703125 446.519531 L 628.066406 448.554688 L 626.238281 450.476562 L 624.355469 452.351562 L 622.382812 454.21875 L 620.261719 456.023438 L 618.003906 457.695312 L 615.640625 459.152344 L 614.222656 459.886719 L 611.6875 460.949219 L 609.171875 461.6875 L 606.746094 462.132812 L 604.453125 462.328125 L 602.273438 462.382812 L 600.097656 462.398438 L 597.800781 462.40625 L 595.339844 462.386719 L 592.742188 462.332031 L 590.066406 462.246094 Z M 589.730469 462.234375 "/>
<path style=" stroke:none;fill-rule:nonzero;fill:rgb(95.686275%,95.686275%,95.686275%);fill-opacity:1;" d="M 550.085938 336.921875 L 547.839844 336.640625 L 545.632812 335.835938 L 543.511719 334.578125 L 541.519531 332.988281 L 539.636719 331.210938 L 537.796875 329.375 L 535.90625 327.480469 L 533.9375 325.503906 L 531.902344 323.457031 L 529.855469 321.390625 L 528.425781 319.945312 L 526.285156 317.769531 L 524.265625 315.707031 L 522.410156 313.804688 L 520.722656 312.070312 L 519.15625 310.453125 L 517.644531 308.820312 L 516.332031 307.050781 L 515.378906 305.109375 L 514.917969 303.015625 L 514.957031 301.28125 L 515.433594 299.316406 L 516.339844 297.328125 L 517.613281 295.371094 L 519.152344 293.480469 L 520.859375 291.667969 L 522.621094 289.902344 L 524.433594 288.191406 L 526.351562 286.65625 L 528.382812 285.421875 L 530.5 284.597656 L 532.660156 284.25 L 533.039062 284.242188 L 535.292969 284.523438 L 537.507812 285.328125 L 539.632812 286.585938 L 541.632812 288.179688 L 543.519531 289.960938 L 545.363281 291.804688 L 547.253906 293.699219 L 549.230469 295.679688 L 551.261719 297.730469 L 553.304688 299.796875 L 554.761719 301.28125 L 556.898438 303.464844 L 558.910156 305.53125 L 560.757812 307.441406 L 562.429688 309.175781 L 563.984375 310.796875 L 565.476562 312.433594 L 566.773438 314.207031 L 567.710938 316.148438 L 568.15625 318.242188 L 568.109375 319.945312 L 567.625 321.910156 L 566.714844 323.890625 L 565.445312 325.847656 L 563.90625 327.734375 L 562.203125 329.542969 L 560.445312 331.304688 L 558.636719 333.007812 L 556.722656 334.535156 L 554.695312 335.761719 L 552.582031 336.578125 L 550.425781 336.914062 Z M 550.085938 336.921875 "/>
<path style="fill:none;stroke-width:0.75;stroke-linecap:round;stroke-linejoin:round;stroke:rgb(66.27451%,66.27451%,66.27451%);stroke-opacity:1;stroke-miterlimit:10;" d="M 388.535156 105.472656 L 387.90625 104.113281 "/>
<path style="fill:none;stroke-width:0.75;stroke-linecap:round;stroke-linejoin:round;stroke:rgb(66.27451%,66.27451%,66.27451%);stroke-opacity:1;stroke-miterlimit:10;" d="M 326.382812 550.746094 L 330.40625 560.289062 "/>
<path style="fill:none;stroke-width:0.75;stroke-linecap:round;stroke-linejoin:round;stroke:rgb(66.27451%,66.27451%,66.27451%);stroke-opacity:1;stroke-miterlimit:10;" d="M 459.722656 180.277344 L 467.191406 174.992188 "/>
<path style="fill:none;stroke-width:0.75;stroke-linecap:round;stroke-linejoin:round;stroke:rgb(66.27451%,66.27451%,66.27451%);stroke-opacity:1;stroke-miterlimit:10;" d="M 568.035156 221.507812 L 573.710938 206.332031 "/>
<path style="fill:none;stroke-width:0.75;stroke-linecap:round;stroke-linejoin:round;stroke:rgb(66.27451%,66.27451%,66.27451%);stroke-opacity:1;stroke-miterlimit:10;" d="M 565.300781 236.714844 L 565.328125 252.160156 "/>
<path style="fill:none;stroke-width:0.75;stroke-linecap:round;stroke-linejoin:round;stroke:rgb(66.27451%,66.27451%,66.27451%);stroke-opacity:1;stroke-miterlimit:10;" d="M 139.5625 263.863281 L 153.078125 276.726562 "/>
<path style="fill:none;stroke-width:0.75;stroke-linecap:round;stroke-linejoin:round;stroke:rgb(66.27451%,66.27451%,66.27451%);stroke-opacity:1;stroke-miterlimit:10;" d="M 284.800781 352.144531 L 268.484375 344.792969 "/>
<path style="fill:none;stroke-width:0.75;stroke-linecap:round;stroke-linejoin:round;stroke:rgb(66.27451%,66.27451%,66.27451%);stroke-opacity:1;stroke-miterlimit:10;" d="M 342.757812 183.613281 L 350.769531 188.703125 "/>
<path style="fill:none;stroke-width:0.75;stroke-linecap:round;stroke-linejoin:round;stroke:rgb(66.27451%,66.27451%,66.27451%);stroke-opacity:1;stroke-miterlimit:10;" d="M 602.152344 322.535156 L 616.050781 321.445312 "/>
<path style="fill:none;stroke-width:0.75;stroke-linecap:round;stroke-linejoin:round;stroke:rgb(66.27451%,66.27451%,66.27451%);stroke-opacity:1;stroke-miterlimit:10;" d="M 160.089844 501.09375 L 174.699219 514.328125 "/>
<path style="fill:none;stroke-width:0.75;stroke-linecap:round;stroke-linejoin:round;stroke:rgb(66.27451%,66.27451%,66.27451%);stroke-opacity:1;stroke-miterlimit:10;" d="M 259.238281 263.246094 L 257.640625 284.480469 "/>
<path style="fill:none;stroke-width:0.75;stroke-linecap:round;stroke-linejoin:round;stroke:rgb(66.27451%,66.27451%,66.27451%);stroke-opacity:1;stroke-miterlimit:10;" d="M 260.074219 256.960938 L 262.699219 243.265625 "/>
<path style="fill:none;stroke-width:0.75;stroke-linecap:round;stroke-linejoin:round;stroke:rgb(66.27451%,66.27451%,66.27451%);stroke-opacity:1;stroke-miterlimit:10;" d="M 241.878906 133.339844 L 257.960938 126.40625 "/>
<path style="fill:none;stroke-width:0.75;stroke-linecap:round;stroke-linejoin:round;stroke:rgb(66.27451%,66.27451%,66.27451%);stroke-opacity:1;stroke-miterlimit:10;" d="M 130.496094 394.933594 L 118.339844 381.265625 "/>
<path style="fill:none;stroke-width:0.75;stroke-linecap:round;stroke-linejoin:round;stroke:rgb(66.27451%,66.27451%,66.27451%);stroke-opacity:1;stroke-miterlimit:10;" d="M 379.214844 611.613281 L 360.636719 610.175781 "/>
<path style="fill:none;stroke-width:0.75;stroke-linecap:round;stroke-linejoin:round;stroke:rgb(66.27451%,66.27451%,66.27451%);stroke-opacity:1;stroke-miterlimit:10;" d="M 341.335938 129.359375 L 339.335938 118.089844 "/>
<path style="fill:none;stroke-width:0.75;stroke-linecap:round;stroke-linejoin:round;stroke:rgb(66.27451%,66.27451%,66.27451%);stroke-opacity:1;stroke-miterlimit:10;" d="M 540.808594 158.066406 L 535.921875 155.378906 "/>
<path style="fill:none;stroke-width:0.75;stroke-linecap:round;stroke-linejoin:round;stroke:rgb(66.27451%,66.27451%,66.27451%);stroke-opacity:1;stroke-miterlimit:10;" d="M 611.558594 438.882812 L 600.367188 435.347656 "/>
<path style="fill:none;stroke-width:0.75;stroke-linecap:round;stroke-linejoin:round;stroke:rgb(66.27451%,66.27451%,66.27451%);stroke-opacity:1;stroke-miterlimit:10;" d="M 548.164062 317.464844 L 535.027344 303.839844 "/>
<path style="fill:none;stroke-width:0.75;stroke-linecap:round;stroke-linejoin:round;stroke:rgb(66.27451%,66.27451%,66.27451%);stroke-opacity:1;stroke-miterlimit:10;" d="M 578.789062 431.328125 L 574.6875 431.070312 "/>
<path style=" stroke:none;fill-rule:nonzero;fill:rgb(3.137255%,81.960784%,81.960784%);fill-opacity:1;" d="M 170.527344 422.164062 C 170.527344 426.078125 164.65625 426.078125 164.65625 422.164062 C 164.65625 418.253906 170.527344 418.253906 170.527344 422.164062 "/>
<path style=" stroke:none;fill-rule:nonzero;fill:rgb(3.137255%,81.960784%,81.960784%);fill-opacity:1;" d="M 449.914062 133.835938 C 449.914062 137.820312 443.941406 137.820312 443.941406 133.835938 C 443.941406 129.855469 449.914062 129.855469 449.914062 133.835938 "/>
<path style=" stroke:none;fill-rule:nonzero;fill:rgb(3.137255%,81.960784%,81.960784%);fill-opacity:1;" d="M 544.703125 552.273438 C 544.703125 555.792969 539.421875 555.792969 539.421875 552.273438 C 539.421875 548.75 544.703125 548.75 544.703125 552.273438 "/>
<path style=" stroke:none;fill-rule:nonzero;fill:rgb(3.137255%,81.960784%,81.960784%);fill-opacity:1;" d="M 382.957031 105.472656 L 403.679688 105.472656 L 403.679688 126.195312 L 382.957031 126.195312 Z M 382.957031 105.472656 "/>
<path style=" stroke:none;fill-rule:nonzero;fill:rgb(3.137255%,81.960784%,81.960784%);fill-opacity:1;" d="M 315.519531 288.675781 C 315.519531 292.195312 310.238281 292.195312 310.238281 288.675781 C 310.238281 285.15625 315.519531 285.15625 315.519531 288.675781 "/>
<path style=" stroke:none;fill-rule:nonzero;fill:rgb(3.137255%,81.960784%,81.960784%);fill-opacity:1;" d="M 330.886719 543.960938 C 330.886719 548.027344 327.589844 551.328125 323.519531 551.328125 C 319.453125 551.328125 316.152344 548.027344 316.152344 543.960938 C 316.152344 539.890625 319.453125 536.59375 323.519531 536.59375 C 327.589844 536.59375 330.886719 539.890625 330.886719 543.960938 "/>
<path style=" stroke:none;fill-rule:nonzero;fill:rgb(3.137255%,81.960784%,81.960784%);fill-opacity:1;" d="M 482.382812 491.433594 C 482.382812 494.425781 479.960938 496.851562 476.96875 496.851562 C 473.976562 496.851562 471.550781 494.425781 471.550781 491.433594 C 471.550781 488.441406 473.976562 486.019531 476.96875 486.019531 C 479.960938 486.019531 482.382812 488.441406 482.382812 491.433594 "/>
<path style=" stroke:none;fill-rule:nonzero;fill:rgb(3.137255%,81.960784%,81.960784%);fill-opacity:1;" d="M 520.617188 354.183594 C 520.617188 361.285156 509.960938 361.285156 509.960938 354.183594 C 509.960938 347.078125 520.617188 347.078125 520.617188 354.183594 "/>
<path style=" stroke:none;fill-rule:nonzero;fill:rgb(3.137255%,81.960784%,81.960784%);fill-opacity:1;" d="M 438.996094 177.242188 L 459.71875 177.242188 L 459.71875 197.964844 L 438.996094 197.964844 Z M 438.996094 177.242188 "/>
<path style=" stroke:none;fill-rule:nonzero;fill:rgb(3.137255%,81.960784%,81.960784%);fill-opacity:1;" d="M 573.136719 228.863281 C 573.136719 233.199219 569.621094 236.714844 565.285156 236.714844 C 560.949219 236.714844 557.433594 233.199219 557.433594 228.863281 C 557.433594 224.523438 560.949219 221.007812 565.285156 221.007812 C 569.621094 221.007812 573.136719 224.523438 573.136719 228.863281 "/>
<path style=" stroke:none;fill-rule:nonzero;fill:rgb(3.137255%,81.960784%,81.960784%);fill-opacity:1;" d="M 140.355469 261.882812 C 140.355469 265.714844 134.609375 265.714844 134.609375 261.882812 C 134.609375 258.050781 140.355469 258.050781 140.355469 261.882812 "/>
<path style=" stroke:none;fill-rule:nonzero;fill:rgb(3.137255%,81.960784%,81.960784%);fill-opacity:1;" d="M 208.488281 552.625 C 208.488281 556.113281 203.253906 556.113281 203.253906 552.625 C 203.253906 549.136719 208.488281 549.136719 208.488281 552.625 "/>
<path style=" stroke:none;fill-rule:nonzero;fill:rgb(3.137255%,81.960784%,81.960784%);fill-opacity:1;" d="M 431.847656 416.628906 C 431.847656 420.121094 426.613281 420.121094 426.613281 416.628906 C 426.613281 413.136719 431.847656 413.136719 431.847656 416.628906 "/>
<path style=" stroke:none;fill-rule:nonzero;fill:rgb(3.137255%,81.960784%,81.960784%);fill-opacity:1;" d="M 291.535156 353.59375 C 291.535156 358.289062 284.488281 358.289062 284.488281 353.59375 C 284.488281 348.894531 291.535156 348.894531 291.535156 353.59375 "/>
<path style=" stroke:none;fill-rule:nonzero;fill:rgb(3.137255%,81.960784%,81.960784%);fill-opacity:1;" d="M 118.179688 305.996094 C 118.179688 309.765625 112.523438 309.765625 112.523438 305.996094 C 112.523438 302.222656 118.179688 302.222656 118.179688 305.996094 "/>
<path style=" stroke:none;fill-rule:nonzero;fill:rgb(3.137255%,81.960784%,81.960784%);fill-opacity:1;" d="M 343.257812 181.894531 C 343.257812 186.164062 336.851562 186.164062 336.851562 181.894531 C 336.851562 177.625 343.257812 177.625 343.257812 181.894531 "/>
<path style=" stroke:none;fill-rule:nonzero;fill:rgb(3.137255%,81.960784%,81.960784%);fill-opacity:1;" d="M 268.730469 343.632812 C 268.730469 347.398438 263.082031 347.398438 263.082031 343.632812 C 263.082031 339.867188 268.730469 339.867188 268.730469 343.632812 "/>
<path style=" stroke:none;fill-rule:nonzero;fill:rgb(18.039216%,73.72549%,50.980392%);fill-opacity:1;" d="M 284.003906 573.351562 C 284.003906 576.886719 278.695312 576.886719 278.695312 573.351562 C 278.695312 569.8125 284.003906 569.8125 284.003906 573.351562 "/>
<path style=" stroke:none;fill-rule:nonzero;fill:rgb(18.039216%,56.862745%,73.72549%);fill-opacity:1;" d="M 404.910156 161.339844 C 404.910156 165.992188 397.933594 165.992188 397.933594 161.339844 C 397.933594 156.6875 404.910156 156.6875 404.910156 161.339844 "/>
<path style=" stroke:none;fill-rule:nonzero;fill:rgb(18.039216%,35.294118%,73.72549%);fill-opacity:1;" d="M 501.210938 250.742188 L 521.933594 250.742188 L 521.933594 271.464844 L 501.210938 271.464844 Z M 501.210938 250.742188 "/>
<path style=" stroke:none;fill-rule:nonzero;fill:rgb(18.039216%,35.294118%,73.72549%);fill-opacity:1;" d="M 390.8125 341.730469 C 390.8125 345.203125 385.597656 345.203125 385.597656 341.730469 C 385.597656 338.253906 390.8125 338.253906 390.8125 341.730469 "/>
<path style=" stroke:none;fill-rule:nonzero;fill:rgb(18.039216%,35.294118%,73.72549%);fill-opacity:1;" d="M 471.671875 594.972656 C 471.671875 598.875 465.820312 598.875 465.820312 594.972656 C 465.820312 591.070312 471.671875 591.070312 471.671875 594.972656 "/>
<path style=" stroke:none;fill-rule:nonzero;fill:rgb(18.039216%,35.294118%,73.72549%);fill-opacity:1;" d="M 602.175781 323.136719 C 602.175781 327.390625 598.726562 330.84375 594.46875 330.84375 C 590.214844 330.84375 586.761719 327.390625 586.761719 323.136719 C 586.761719 318.878906 590.214844 315.429688 594.46875 315.429688 C 598.726562 315.429688 602.175781 318.878906 602.175781 323.136719 "/>
<path style=" stroke:none;fill-rule:nonzero;fill:rgb(18.039216%,35.294118%,73.72549%);fill-opacity:1;" d="M 254.648438 177.902344 C 254.648438 181.496094 249.253906 181.496094 249.253906 177.902344 C 249.253906 174.304688 254.648438 174.304688 254.648438 177.902344 "/>
<path style=" stroke:none;fill-rule:nonzero;fill:rgb(18.039216%,35.294118%,73.72549%);fill-opacity:1;" d="M 479.214844 379.789062 C 479.214844 383.375 473.839844 383.375 473.839844 379.789062 C 473.839844 376.207031 479.214844 376.207031 479.214844 379.789062 "/>
<path style=" stroke:none;fill-rule:nonzero;fill:rgb(18.039216%,35.294118%,73.72549%);fill-opacity:1;" d="M 153.210938 219.761719 C 153.210938 223.6875 147.316406 223.6875 147.316406 219.761719 C 147.316406 215.832031 153.210938 215.832031 153.210938 219.761719 "/>
<path style=" stroke:none;fill-rule:nonzero;fill:rgb(3.529412%,80.784314%,55.294118%);fill-opacity:1;" d="M 201.796875 161.203125 C 201.796875 165.109375 195.941406 165.109375 195.941406 161.203125 C 195.941406 157.300781 201.796875 157.300781 201.796875 161.203125 "/>
<path style=" stroke:none;fill-rule:nonzero;fill:rgb(3.529412%,44.705882%,39.607843%);fill-opacity:1;" d="M 557.617188 482.226562 C 557.617188 486.414062 554.21875 489.808594 550.03125 489.808594 C 545.84375 489.808594 542.449219 486.414062 542.449219 482.226562 C 542.449219 478.039062 545.84375 474.644531 550.03125 474.644531 C 554.21875 474.644531 557.617188 478.039062 557.617188 482.226562 "/>
<path style=" stroke:none;fill-rule:nonzero;fill:rgb(3.529412%,44.705882%,39.607843%);fill-opacity:1;" d="M 212.609375 406.433594 C 212.609375 411.582031 204.886719 411.582031 204.886719 406.433594 C 204.886719 401.289062 212.609375 401.289062 212.609375 406.433594 "/>
<path style=" stroke:none;fill-rule:nonzero;fill:rgb(3.529412%,44.705882%,39.607843%);fill-opacity:1;" d="M 492.203125 121.902344 C 492.203125 125.828125 486.308594 125.828125 486.308594 121.902344 C 486.308594 117.972656 492.203125 117.972656 492.203125 121.902344 "/>
<path style=" stroke:none;fill-rule:nonzero;fill:rgb(67.058824%,33.72549%,84.705882%);fill-opacity:1;" d="M 435.445312 515.023438 C 435.445312 519.539062 428.671875 519.539062 428.671875 515.023438 C 428.671875 510.507812 435.445312 510.507812 435.445312 515.023438 "/>
<path style=" stroke:none;fill-rule:nonzero;fill:rgb(67.058824%,33.72549%,84.705882%);fill-opacity:1;" d="M 327.730469 422.09375 C 327.730469 425.671875 322.367188 425.671875 322.367188 422.09375 C 322.367188 418.519531 327.730469 418.519531 327.730469 422.09375 "/>
<path style=" stroke:none;fill-rule:nonzero;fill:rgb(67.058824%,33.72549%,84.705882%);fill-opacity:1;" d="M 160.773438 499.324219 C 160.773438 502.839844 155.5 502.839844 155.5 499.324219 C 155.5 495.808594 160.773438 495.808594 160.773438 499.324219 "/>
<path style=" stroke:none;fill-rule:nonzero;fill:rgb(67.058824%,33.72549%,84.705882%);fill-opacity:1;" d="M 496.121094 565.742188 L 516.84375 565.742188 L 516.84375 586.464844 L 496.121094 586.464844 Z M 496.121094 565.742188 "/>
<path style=" stroke:none;fill-rule:nonzero;fill:rgb(67.058824%,33.72549%,84.705882%);fill-opacity:1;" d="M 359.78125 256.378906 C 359.78125 259.929688 354.457031 259.929688 354.457031 256.378906 C 354.457031 252.828125 359.78125 252.828125 359.78125 256.378906 "/>
<path style=" stroke:none;fill-rule:nonzero;fill:rgb(3.921569%,62.745098%,12.156863%);fill-opacity:1;" d="M 245.574219 537.558594 C 245.574219 541.667969 239.40625 541.667969 239.40625 537.558594 C 239.40625 533.445312 245.574219 533.445312 245.574219 537.558594 "/>
<path style=" stroke:none;fill-rule:nonzero;fill:rgb(3.921569%,62.745098%,12.156863%);fill-opacity:1;" d="M 407.464844 262.035156 C 407.464844 267.066406 399.917969 267.066406 399.917969 262.035156 C 399.917969 257.003906 407.464844 257.003906 407.464844 262.035156 "/>
<path style=" stroke:none;fill-rule:nonzero;fill:rgb(3.921569%,62.745098%,12.156863%);fill-opacity:1;" d="M 138.710938 338.613281 C 138.710938 345.75 128 345.75 128 338.613281 C 128 331.472656 138.710938 331.472656 138.710938 338.613281 "/>
<path style=" stroke:none;fill-rule:nonzero;fill:rgb(3.921569%,62.745098%,12.156863%);fill-opacity:1;" d="M 216.84375 489.269531 C 216.84375 493.097656 211.105469 493.097656 211.105469 489.269531 C 211.105469 485.445312 216.84375 485.445312 216.84375 489.269531 "/>
<path style=" stroke:none;fill-rule:nonzero;fill:rgb(3.921569%,62.745098%,12.156863%);fill-opacity:1;" d="M 262.652344 260.082031 C 262.652344 264.316406 256.300781 264.316406 256.300781 260.082031 C 256.300781 255.84375 262.652344 255.84375 262.652344 260.082031 "/>
<path style=" stroke:none;fill-rule:nonzero;fill:rgb(3.921569%,62.745098%,12.156863%);fill-opacity:1;" d="M 628.171875 280.382812 C 628.171875 286.050781 623.574219 290.648438 617.90625 290.648438 C 612.238281 290.648438 607.640625 286.050781 607.640625 280.382812 C 607.640625 274.714844 612.238281 270.117188 617.90625 270.117188 C 623.574219 270.117188 628.171875 274.714844 628.171875 280.382812 "/>
<path style=" stroke:none;fill-rule:nonzero;fill:rgb(3.921569%,62.745098%,12.156863%);fill-opacity:1;" d="M 179.324219 516.109375 C 179.324219 519.652344 174.011719 519.652344 174.011719 516.109375 C 174.011719 512.566406 179.324219 512.566406 179.324219 516.109375 "/>
<path style=" stroke:none;fill-rule:nonzero;fill:rgb(3.921569%,62.745098%,12.156863%);fill-opacity:1;" d="M 519.054688 458.691406 C 519.054688 464.964844 509.636719 464.964844 509.636719 458.691406 C 509.636719 452.414062 519.054688 452.414062 519.054688 458.691406 "/>
<path style=" stroke:none;fill-rule:nonzero;fill:rgb(3.921569%,62.745098%,12.156863%);fill-opacity:1;" d="M 211.609375 198.828125 L 232.332031 198.828125 L 232.332031 219.550781 L 211.609375 219.550781 Z M 211.609375 198.828125 "/>
<path style=" stroke:none;fill-rule:nonzero;fill:rgb(3.921569%,62.745098%,12.156863%);fill-opacity:1;" d="M 242.175781 134.78125 C 242.175781 139.621094 234.914062 139.621094 234.914062 134.78125 C 234.914062 129.9375 242.175781 129.9375 242.175781 134.78125 "/>
<path style=" stroke:none;fill-rule:nonzero;fill:rgb(3.921569%,62.745098%,12.156863%);fill-opacity:1;" d="M 212.859375 296.578125 C 212.859375 300.1875 207.441406 300.1875 207.441406 296.578125 C 207.441406 292.964844 212.859375 292.964844 212.859375 296.578125 "/>
<path style=" stroke:none;fill-rule:nonzero;fill:rgb(3.921569%,62.745098%,12.156863%);fill-opacity:1;" d="M 260.089844 287.125 C 260.089844 290.65625 254.792969 290.65625 254.792969 287.125 C 254.792969 283.589844 260.089844 283.589844 260.089844 287.125 "/>
<path style=" stroke:none;fill-rule:nonzero;fill:rgb(3.921569%,62.745098%,12.156863%);fill-opacity:1;" d="M 135.132812 397.019531 C 135.132812 400.734375 129.5625 400.734375 129.5625 397.019531 C 129.5625 393.300781 135.132812 393.300781 135.132812 397.019531 "/>
<path style=" stroke:none;fill-rule:nonzero;fill:rgb(3.921569%,62.745098%,12.156863%);fill-opacity:1;" d="M 354.324219 313.035156 C 354.324219 316.601562 348.976562 316.601562 348.976562 313.035156 C 348.976562 309.46875 354.324219 309.46875 354.324219 313.035156 "/>
<path style=" stroke:none;fill-rule:nonzero;fill:rgb(3.921569%,62.745098%,12.156863%);fill-opacity:1;" d="M 485.730469 542.445312 C 485.730469 545.917969 482.917969 548.730469 479.445312 548.730469 C 475.976562 548.730469 473.160156 545.917969 473.160156 542.445312 C 473.160156 538.972656 475.976562 536.160156 479.445312 536.160156 C 482.917969 536.160156 485.730469 538.972656 485.730469 542.445312 "/>
<path style=" stroke:none;fill-rule:nonzero;fill:rgb(3.921569%,62.745098%,12.156863%);fill-opacity:1;" d="M 385.292969 611.847656 C 385.292969 615.90625 379.203125 615.90625 379.203125 611.847656 C 379.203125 607.789062 385.292969 607.789062 385.292969 611.847656 "/>
<path style=" stroke:none;fill-rule:nonzero;fill:rgb(3.921569%,62.745098%,12.156863%);fill-opacity:1;" d="M 520.953125 387.664062 L 541.675781 387.664062 L 541.675781 408.386719 L 520.953125 408.386719 Z M 520.953125 387.664062 "/>
<path style=" stroke:none;fill-rule:nonzero;fill:rgb(3.921569%,62.745098%,12.156863%);fill-opacity:1;" d="M 344.734375 132.210938 C 344.734375 136.070312 338.945312 136.070312 338.945312 132.210938 C 338.945312 128.347656 344.734375 128.347656 344.734375 132.210938 "/>
<path style=" stroke:none;fill-rule:nonzero;fill:rgb(3.921569%,62.745098%,12.156863%);fill-opacity:1;" d="M 249.339844 584.628906 C 249.339844 589.984375 241.308594 589.984375 241.308594 584.628906 C 241.308594 579.277344 249.339844 579.277344 249.339844 584.628906 "/>
<path style=" stroke:none;fill-rule:nonzero;fill:rgb(3.921569%,62.745098%,12.156863%);fill-opacity:1;" d="M 479.699219 312.933594 C 479.699219 316.386719 474.515625 316.386719 474.515625 312.933594 C 474.515625 309.480469 479.699219 309.480469 479.699219 312.933594 "/>
<path style=" stroke:none;fill-rule:nonzero;fill:rgb(3.921569%,62.745098%,12.156863%);fill-opacity:1;" d="M 554.082031 161.476562 C 554.082031 165.382812 550.914062 168.550781 547.007812 168.550781 C 543.101562 168.550781 539.933594 165.382812 539.933594 161.476562 C 539.933594 157.570312 543.101562 154.402344 547.007812 154.402344 C 550.914062 154.402344 554.082031 157.570312 554.082031 161.476562 "/>
<path style=" stroke:none;fill-rule:nonzero;fill:rgb(3.921569%,62.745098%,12.156863%);fill-opacity:1;" d="M 617.492188 439.796875 C 617.492188 443.847656 611.417969 443.847656 611.417969 439.796875 C 611.417969 435.746094 617.492188 435.746094 617.492188 439.796875 "/>
<path style=" stroke:none;fill-rule:nonzero;fill:rgb(3.921569%,62.745098%,12.156863%);fill-opacity:1;" d="M 188.226562 197.375 C 188.226562 201.320312 185.027344 204.515625 181.082031 204.515625 C 177.140625 204.515625 173.941406 201.320312 173.941406 197.375 C 173.941406 193.429688 177.140625 190.234375 181.082031 190.234375 C 185.027344 190.234375 188.226562 193.429688 188.226562 197.375 "/>
<path style=" stroke:none;fill-rule:nonzero;fill:rgb(3.921569%,62.745098%,12.156863%);fill-opacity:1;" d="M 552.859375 319.460938 C 552.859375 323.160156 547.316406 323.160156 547.316406 319.460938 C 547.316406 315.765625 552.859375 315.765625 552.859375 319.460938 "/>
<path style=" stroke:none;fill-rule:nonzero;fill:rgb(3.921569%,62.745098%,12.156863%);fill-opacity:1;" d="M 577.269531 203.863281 C 577.269531 207.378906 572 207.378906 572 203.863281 C 572 200.347656 577.269531 200.347656 577.269531 203.863281 "/>
<path style=" stroke:none;fill-rule:nonzero;fill:rgb(3.921569%,62.745098%,12.156863%);fill-opacity:1;" d="M 458.21875 258.632812 C 458.21875 262.394531 452.574219 262.394531 452.574219 258.632812 C 452.574219 254.867188 458.21875 254.867188 458.21875 258.632812 "/>
<path style=" stroke:none;fill-rule:nonzero;fill:rgb(3.921569%,62.745098%,12.156863%);fill-opacity:1;" d="M 339.796875 370.484375 C 339.796875 374.1875 334.246094 374.1875 334.246094 370.484375 C 334.246094 366.785156 339.796875 366.785156 339.796875 370.484375 "/>
<path style=" stroke:none;fill-rule:nonzero;fill:rgb(3.921569%,62.745098%,12.156863%);fill-opacity:1;" d="M 600.878906 432.019531 C 600.878906 438.125 595.929688 443.074219 589.824219 443.074219 C 583.71875 443.074219 578.769531 438.125 578.769531 432.019531 C 578.769531 425.914062 583.71875 420.964844 589.824219 420.964844 C 595.929688 420.964844 600.878906 425.914062 600.878906 432.019531 "/>
<path style=" stroke:none;fill-rule:nonzero;fill:rgb(3.921569%,62.745098%,12.156863%);fill-opacity:1;" d="M 340.046875 566.683594 C 340.046875 570.519531 336.9375 573.625 333.105469 573.625 C 329.269531 573.625 326.160156 570.519531 326.160156 566.683594 C 326.160156 562.851562 329.269531 559.742188 333.105469 559.742188 C 336.9375 559.742188 340.046875 562.851562 340.046875 566.683594 "/>
<path style=" stroke:none;fill-rule:nonzero;fill:rgb(3.921569%,62.745098%,12.156863%);fill-opacity:1;" d="M 440.5 462.410156 C 440.5 465.953125 435.1875 465.953125 435.1875 462.410156 C 435.1875 458.867188 440.5 458.867188 440.5 462.410156 "/>
<path style=" stroke:none;fill-rule:nonzero;fill:rgb(3.921569%,62.745098%,12.156863%);fill-opacity:1;" d="M 553.964844 420.058594 L 574.6875 420.058594 L 574.6875 440.78125 L 553.964844 440.78125 Z M 553.964844 420.058594 "/>
<path style=" stroke:none;fill-rule:nonzero;fill:rgb(3.921569%,62.745098%,12.156863%);fill-opacity:1;" d="M 197.9375 248.605469 C 197.9375 252.359375 192.308594 252.359375 192.308594 248.605469 C 192.308594 244.851562 197.9375 244.851562 197.9375 248.605469 "/>
<path style=" stroke:none;fill-rule:nonzero;fill:rgb(3.921569%,62.745098%,12.156863%);fill-opacity:1;" d="M 475 214.6875 L 495.722656 214.6875 L 495.722656 235.410156 L 475 235.410156 Z M 475 214.6875 "/>
<path style=" stroke:none;fill-rule:nonzero;fill:rgb(3.921569%,62.745098%,12.156863%);fill-opacity:1;" d="M 183.117188 323.804688 C 183.117188 327.511719 177.554688 327.511719 177.554688 323.804688 C 177.554688 320.097656 183.117188 320.097656 183.117188 323.804688 "/>
<path style=" stroke:none;fill-rule:nonzero;fill:rgb(3.921569%,62.745098%,12.156863%);fill-opacity:1;" d="M 381.441406 479.152344 L 402.164062 479.152344 L 402.164062 499.875 L 381.441406 499.875 Z M 381.441406 479.152344 "/>
<path style=" stroke:none;fill-rule:nonzero;fill:rgb(3.921569%,62.745098%,12.156863%);fill-opacity:1;" d="M 487.152344 428.121094 C 487.152344 431.828125 481.59375 431.828125 481.59375 428.121094 C 481.59375 424.414062 487.152344 424.414062 487.152344 428.121094 "/>
<path style=" stroke:none;fill-rule:nonzero;fill:rgb(3.921569%,62.745098%,12.156863%);fill-opacity:1;" d="M 385.515625 399.207031 C 385.515625 403.554688 378.992188 403.554688 378.992188 399.207031 C 378.992188 394.855469 385.515625 394.855469 385.515625 399.207031 "/>
<path style=" stroke:none;fill-rule:nonzero;fill:rgb(15.294118%,28.627451%,27.058824%);fill-opacity:1;" d="M 373.660156 448.835938 C 373.660156 453.238281 367.058594 453.238281 367.058594 448.835938 C 367.058594 444.4375 373.660156 444.4375 373.660156 448.835938 "/>
<path style=" stroke:none;fill-rule:nonzero;fill:rgb(15.294118%,28.627451%,27.058824%);fill-opacity:1;" d="M 372.761719 83.390625 L 393.484375 83.390625 L 393.484375 104.113281 L 372.761719 104.113281 Z M 372.761719 83.390625 "/>
<path style=" stroke:none;fill-rule:nonzero;fill:rgb(15.294118%,28.627451%,27.058824%);fill-opacity:1;" d="M 375.730469 528.757812 C 375.730469 533.800781 368.167969 533.800781 368.167969 528.757812 C 368.167969 523.714844 375.730469 523.714844 375.730469 528.757812 "/>
<path style=" stroke:none;fill-rule:nonzero;fill:rgb(15.294118%,28.627451%,27.058824%);fill-opacity:1;" d="M 567.949219 254.773438 C 567.949219 258.261719 562.71875 258.261719 562.71875 254.773438 C 562.71875 251.289062 567.949219 251.289062 567.949219 254.773438 "/>
<path style=" stroke:none;fill-rule:nonzero;fill:rgb(18.039216%,73.72549%,27.058824%);fill-opacity:1;" d="M 159.0625 279.121094 C 159.0625 283.75 152.121094 283.75 152.121094 279.121094 C 152.121094 274.492188 159.0625 274.492188 159.0625 279.121094 "/>
<path style=" stroke:none;fill-rule:nonzero;fill:rgb(18.039216%,73.72549%,27.058824%);fill-opacity:1;" d="M 441.785156 97.394531 C 441.785156 101.710938 435.308594 101.710938 435.308594 97.394531 C 435.308594 93.078125 441.785156 93.078125 441.785156 97.394531 "/>
<path style=" stroke:none;fill-rule:nonzero;fill:rgb(18.039216%,73.72549%,27.058824%);fill-opacity:1;" d="M 397.117188 566.519531 C 397.117188 570.621094 390.960938 570.621094 390.960938 566.519531 C 390.960938 562.414062 397.117188 562.414062 397.117188 566.519531 "/>
<path style=" stroke:none;fill-rule:nonzero;fill:rgb(18.039216%,73.72549%,27.058824%);fill-opacity:1;" d="M 373.273438 195.25 C 373.273438 201.988281 367.808594 207.453125 361.070312 207.453125 C 354.328125 207.453125 348.867188 201.988281 348.867188 195.25 C 348.867188 188.507812 354.328125 183.046875 361.070312 183.046875 C 367.808594 183.046875 373.273438 188.507812 373.273438 195.25 "/>
<path style=" stroke:none;fill-rule:nonzero;fill:rgb(18.039216%,73.72549%,27.058824%);fill-opacity:1;" d="M 623.085938 348.875 L 643.808594 348.875 L 643.808594 369.597656 L 623.085938 369.597656 Z M 623.085938 348.875 "/>
<path style=" stroke:none;fill-rule:nonzero;fill:rgb(18.039216%,73.72549%,27.058824%);fill-opacity:1;" d="M 163.257812 356.792969 L 183.980469 356.792969 L 183.980469 377.515625 L 163.257812 377.515625 Z M 163.257812 356.792969 "/>
<path style=" stroke:none;fill-rule:nonzero;fill:rgb(18.039216%,73.72549%,27.058824%);fill-opacity:1;" d="M 316.167969 225.851562 C 316.167969 229.503906 310.691406 229.503906 310.691406 225.851562 C 310.691406 222.203125 316.167969 222.203125 316.167969 225.851562 "/>
<path style=" stroke:none;fill-rule:nonzero;fill:rgb(18.039216%,73.72549%,27.058824%);fill-opacity:1;" d="M 622.578125 321.191406 C 622.578125 325.550781 616.039062 325.550781 616.039062 321.191406 C 616.039062 316.832031 622.578125 316.832031 622.578125 321.191406 "/>
<path style=" stroke:none;fill-rule:nonzero;fill:rgb(18.039216%,73.72549%,27.058824%);fill-opacity:1;" d="M 267.574219 487.902344 C 267.574219 495.054688 261.777344 500.855469 254.625 500.855469 C 247.46875 500.855469 241.671875 495.054688 241.671875 487.902344 C 241.671875 480.75 247.46875 474.949219 254.625 474.949219 C 261.777344 474.949219 267.574219 480.75 267.574219 487.902344 "/>
<path style=" stroke:none;fill-rule:nonzero;fill:rgb(18.039216%,73.72549%,27.058824%);fill-opacity:1;" d="M 297.507812 458.328125 C 297.507812 461.457031 294.972656 463.992188 291.839844 463.992188 C 288.710938 463.992188 286.175781 461.457031 286.175781 458.328125 C 286.175781 455.199219 288.710938 452.660156 291.839844 452.660156 C 294.972656 452.660156 297.507812 455.199219 297.507812 458.328125 "/>
<path style=" stroke:none;fill-rule:nonzero;fill:rgb(18.039216%,73.72549%,27.058824%);fill-opacity:1;" d="M 300.472656 109.40625 C 300.472656 113.046875 295.011719 113.046875 295.011719 109.40625 C 295.011719 105.761719 300.472656 105.761719 300.472656 109.40625 "/>
<path style=" stroke:none;fill-rule:nonzero;fill:rgb(18.039216%,73.72549%,27.058824%);fill-opacity:1;" d="M 578.992188 371.96875 C 578.992188 375.457031 573.761719 375.457031 573.761719 371.96875 C 573.761719 368.480469 578.992188 368.480469 578.992188 371.96875 "/>
<path style=" stroke:none;fill-rule:nonzero;fill:rgb(18.039216%,73.72549%,27.058824%);fill-opacity:1;" d="M 338.003906 487.175781 C 338.003906 493.917969 327.894531 493.917969 327.894531 487.175781 C 327.894531 480.4375 338.003906 480.4375 338.003906 487.175781 "/>
<path style=" stroke:none;fill-rule:nonzero;fill:rgb(18.039216%,73.72549%,27.058824%);fill-opacity:1;" d="M 575.195312 521.3125 C 575.195312 525.148438 569.441406 525.148438 569.441406 521.3125 C 569.441406 517.476562 575.195312 517.476562 575.195312 521.3125 "/>
<path style=" stroke:none;fill-rule:nonzero;fill:rgb(18.039216%,73.72549%,27.058824%);fill-opacity:1;" d="M 431.914062 304.839844 C 431.914062 310.929688 422.78125 310.929688 422.78125 304.839844 C 422.78125 298.75 431.914062 298.75 431.914062 304.839844 "/>
<path style=" stroke:none;fill-rule:nonzero;fill:rgb(18.039216%,73.72549%,27.058824%);fill-opacity:1;" d="M 522.082031 198.542969 C 522.082031 202.292969 516.460938 202.292969 516.460938 198.542969 C 516.460938 194.796875 522.082031 194.796875 522.082031 198.542969 "/>
<path style=" stroke:none;fill-rule:nonzero;fill:rgb(18.039216%,73.72549%,27.058824%);fill-opacity:1;" d="M 599.730469 485.1875 C 599.730469 488.796875 594.320312 488.796875 594.320312 485.1875 C 594.320312 481.582031 599.730469 481.582031 599.730469 485.1875 "/>
<path style=" stroke:none;fill-rule:nonzero;fill:rgb(18.039216%,73.72549%,27.058824%);fill-opacity:1;" d="M 180.824219 460.652344 C 180.824219 465.425781 173.667969 465.425781 173.667969 460.652344 C 173.667969 455.882812 180.824219 455.882812 180.824219 460.652344 "/>
<path style=" stroke:none;fill-rule:nonzero;fill:rgb(18.039216%,73.72549%,27.058824%);fill-opacity:1;" d="M 254.324219 222.539062 L 275.046875 222.539062 L 275.046875 243.261719 L 254.324219 243.261719 Z M 254.324219 222.539062 "/>
<path style=" stroke:none;fill-rule:nonzero;fill:rgb(18.039216%,73.72549%,27.058824%);fill-opacity:1;" d="M 411.417969 214.335938 C 411.417969 218.234375 405.570312 218.234375 405.570312 214.335938 C 405.570312 210.4375 411.417969 210.4375 411.417969 214.335938 "/>
<path style=" stroke:none;fill-rule:nonzero;fill:rgb(18.039216%,73.72549%,27.058824%);fill-opacity:1;" d="M 472.390625 173.339844 C 472.390625 177.15625 466.667969 177.15625 466.667969 173.339844 C 466.667969 169.523438 472.390625 169.523438 472.390625 173.339844 "/>
<path style=" stroke:none;fill-rule:nonzero;fill:rgb(18.039216%,73.72549%,27.058824%);fill-opacity:1;" d="M 437.363281 360.140625 C 437.363281 363.835938 431.816406 363.835938 431.816406 360.140625 C 431.816406 356.445312 437.363281 356.445312 437.363281 360.140625 "/>
<path style=" stroke:none;fill-rule:nonzero;fill:rgb(18.039216%,73.72549%,27.058824%);fill-opacity:1;" d="M 601.335938 229.691406 L 622.058594 229.691406 L 622.058594 250.414062 L 601.335938 250.414062 Z M 601.335938 229.691406 "/>
<path style=" stroke:none;fill-rule:nonzero;fill:rgb(18.039216%,73.72549%,27.058824%);fill-opacity:1;" d="M 436.332031 606.347656 C 436.332031 610.953125 432.601562 614.6875 427.996094 614.6875 C 423.390625 614.6875 419.660156 610.953125 419.660156 606.347656 C 419.660156 601.746094 423.390625 598.011719 427.996094 598.011719 C 432.601562 598.011719 436.332031 601.746094 436.332031 606.347656 "/>
<path style=" stroke:none;fill-rule:nonzero;fill:rgb(18.039216%,73.72549%,27.058824%);fill-opacity:1;" d="M 119.328125 379.070312 C 119.328125 382.988281 113.449219 382.988281 113.449219 379.070312 C 113.449219 375.15625 119.328125 375.15625 119.328125 379.070312 "/>
<path style=" stroke:none;fill-rule:nonzero;fill:rgb(18.039216%,73.72549%,27.058824%);fill-opacity:1;" d="M 630.289062 395.765625 C 630.289062 399.734375 627.070312 402.957031 623.097656 402.957031 C 619.125 402.957031 615.90625 399.734375 615.90625 395.765625 C 615.90625 391.792969 619.125 388.574219 623.097656 388.574219 C 627.070312 388.574219 630.289062 391.792969 630.289062 395.765625 "/>
<path style=" stroke:none;fill-rule:nonzero;fill:rgb(18.039216%,73.72549%,27.058824%);fill-opacity:1;" d="M 360.644531 609.972656 C 360.644531 613.5 355.351562 613.5 355.351562 609.972656 C 355.351562 606.445312 360.644531 606.445312 360.644531 609.972656 "/>
<path style=" stroke:none;fill-rule:nonzero;fill:rgb(18.039216%,73.72549%,27.058824%);fill-opacity:1;" d="M 211.507812 351.71875 L 232.230469 351.71875 L 232.230469 372.441406 L 211.507812 372.441406 Z M 211.507812 351.71875 "/>
<path style=" stroke:none;fill-rule:nonzero;fill:rgb(18.039216%,73.72549%,27.058824%);fill-opacity:1;" d="M 327.136719 97.367188 L 347.859375 97.367188 L 347.859375 118.089844 L 327.136719 118.089844 Z M 327.136719 97.367188 "/>
<path style=" stroke:none;fill-rule:nonzero;fill:rgb(73.72549%,18.039216%,63.137255%);fill-opacity:1;" d="M 275.191406 407.039062 C 275.191406 411.859375 267.957031 411.859375 267.957031 407.039062 C 267.957031 402.21875 275.191406 402.21875 275.191406 407.039062 "/>
<path style=" stroke:none;fill-rule:nonzero;fill:rgb(41.568627%,32.156863%,77.647059%);fill-opacity:1;" d="M 515.199219 139.316406 L 535.921875 139.316406 L 535.921875 160.039062 L 515.199219 160.039062 Z M 515.199219 139.316406 "/>
<path style=" stroke:none;fill-rule:nonzero;fill:rgb(41.568627%,32.156863%,77.647059%);fill-opacity:1;" d="M 297.253906 168.1875 C 297.253906 171.863281 291.738281 171.863281 291.738281 168.1875 C 291.738281 164.507812 297.253906 164.507812 297.253906 168.1875 "/>
<path style=" stroke:none;fill-rule:nonzero;fill:rgb(41.568627%,32.156863%,77.647059%);fill-opacity:1;" d="M 535.90625 301.773438 C 535.90625 305.597656 530.171875 305.597656 530.171875 301.773438 C 530.171875 297.953125 535.90625 297.953125 535.90625 301.773438 "/>
<path style=" stroke:none;fill-rule:nonzero;fill:rgb(41.568627%,32.156863%,77.647059%);fill-opacity:1;" d="M 289.984375 517.566406 C 289.984375 521.890625 283.5 521.890625 283.5 517.566406 C 283.5 513.242188 289.984375 513.242188 289.984375 517.566406 "/>
<path style=" stroke:none;fill-rule:nonzero;fill:rgb(41.568627%,32.156863%,77.647059%);fill-opacity:1;" d="M 439.953125 559.664062 C 439.953125 563.179688 434.683594 563.179688 434.683594 559.664062 C 434.683594 556.152344 439.953125 556.152344 439.953125 559.664062 "/>
<path style=" stroke:none;fill-rule:nonzero;fill:rgb(41.568627%,32.156863%,77.647059%);fill-opacity:1;" d="M 263.292969 125.304688 C 263.292969 129.011719 257.734375 129.011719 257.734375 125.304688 C 257.734375 121.601562 263.292969 121.601562 263.292969 125.304688 "/>
<path style=" stroke:none;fill-rule:nonzero;fill:rgb(67.843137%,55.294118%,55.294118%);fill-opacity:1;" d="M 309.6875 608.121094 C 309.6875 611.945312 303.949219 611.945312 303.949219 608.121094 C 303.949219 604.296875 309.6875 604.296875 309.6875 608.121094 "/>
<path style=" stroke:none;fill-rule:nonzero;fill:rgb(67.843137%,55.294118%,55.294118%);fill-opacity:1;" d="M 520.996094 516.105469 C 520.996094 520.367188 514.601562 520.367188 514.601562 516.105469 C 514.601562 511.84375 520.996094 511.84375 520.996094 516.105469 "/>
<path style=" stroke:none;fill-rule:nonzero;fill:rgb(67.843137%,55.294118%,55.294118%);fill-opacity:1;" d="M 238.84375 441.097656 C 238.84375 445.050781 232.917969 445.050781 232.917969 441.097656 C 232.917969 437.148438 238.84375 437.148438 238.84375 441.097656 "/>
<path style=" stroke:none;fill-rule:nonzero;fill:rgb(81.176471%,90.588235%,12.156863%);fill-opacity:1;" d="M 131.507812 447.308594 C 131.507812 451.082031 125.847656 451.082031 125.847656 447.308594 C 125.847656 443.539062 131.507812 443.539062 131.507812 447.308594 "/>
</g>
</svg>
