<?xml version="1.0" encoding="UTF-8"?>
<svg xmlns="http://www.w3.org/2000/svg" xmlns:xlink="http://www.w3.org/1999/xlink" width="720pt" height="720pt" viewBox="0 0 720 720" version="1.1">
<g id="surface3393">
<path style=" stroke:none;fill-rule:nonzero;fill:rgb(95.686275%,95.686275%,95.686275%);fill-opacity:1;" d="M 271.394531 409.820312 L 268.992188 408.570312 L 266.671875 407.058594 L 264.476562 405.355469 L 262.4375 403.535156 L 260.53125 401.679688 L 258.675781 399.808594 L 256.9375 397.851562 L 255.460938 395.769531 L 254.386719 393.570312 L 253.824219 391.304688 L 253.753906 390.1875 L 254.027344 387.964844 L 254.824219 385.777344 L 256.0625 383.679688 L 257.632812 381.703125 L 259.390625 379.839844 L 261.210938 378.019531 L 263.105469 376.15625 L 265.144531 374.214844 L 267.324219 372.222656 L 269.617188 370.226562 L 271.394531 368.742188 L 273.773438 366.84375 L 276.144531 365.050781 L 278.445312 363.394531 L 280.636719 361.886719 L 282.71875 360.5 L 284.761719 359.171875 L 286.898438 357.953125 L 289.210938 357.011719 L 291.707031 356.480469 L 294.351562 356.460938 L 296.375 356.8125 L 298.890625 357.667969 L 301.421875 358.964844 L 303.917969 360.640625 L 306.328125 362.597656 L 308.640625 364.730469 L 310.875 366.941406 L 313.066406 369.1875 L 315.117188 371.535156 L 316.875 374.019531 L 318.214844 376.632812 L 319.027344 379.324219 L 319.261719 381.6875 L 318.964844 384.359375 L 318.109375 386.992188 L 316.757812 389.542969 L 315.011719 391.972656 L 312.992188 394.269531 L 310.839844 396.472656 L 308.648438 398.648438 L 306.386719 400.8125 L 304.023438 402.917969 L 301.582031 404.902344 L 299.101562 406.695312 L 296.628906 408.238281 L 296.375 408.382812 L 293.515625 409.804688 L 290.78125 410.816406 L 288.226562 411.445312 L 285.882812 411.75 L 283.699219 411.863281 L 281.539062 411.914062 L 279.28125 411.84375 L 276.898438 411.546875 L 274.425781 410.957031 L 271.921875 410.054688 Z M 271.394531 409.820312 "/>
<path style=" stroke:none;fill-rule:nonzero;fill:rgb(95.686275%,95.686275%,95.686275%);fill-opacity:1;" d="M 567.035156 504.582031 L 563.074219 504.691406 L 559.035156 504.503906 L 554.96875 504.039062 L 550.921875 503.316406 L 546.929688 502.382812 L 543.03125 501.277344 L 539.230469 500.058594 L 535.507812 498.777344 L 531.796875 497.476562 L 528.066406 496.148438 L 524.3125 494.773438 L 520.566406 493.347656 L 516.871094 491.871094 L 513.289062 490.363281 L 509.867188 488.828125 L 506.65625 487.292969 L 505.710938 486.816406 L 501.6875 484.652344 L 498.210938 482.539062 L 495.308594 480.515625 L 492.941406 478.617188 L 491 476.835938 L 489.277344 475.125 L 487.609375 473.390625 L 486.089844 471.558594 L 484.828125 469.621094 L 483.929688 467.59375 L 483.472656 465.511719 L 483.421875 464.558594 L 483.652344 462.507812 L 484.332031 460.488281 L 485.398438 458.539062 L 486.769531 456.6875 L 488.34375 454.941406 L 490.003906 453.261719 L 491.738281 451.53125 L 493.714844 449.585938 L 496.0625 447.308594 L 498.828125 444.664062 L 502.011719 441.65625 L 504.417969 439.402344 L 507.085938 436.921875 L 509.914062 434.304688 L 512.867188 431.585938 L 515.902344 428.804688 L 518.976562 425.992188 L 522.054688 423.191406 L 525.105469 420.417969 L 528.132812 417.671875 L 531.15625 414.941406 L 534.246094 412.265625 L 537.460938 409.71875 L 540.832031 407.386719 L 544.355469 405.347656 L 548.015625 403.675781 L 551.777344 402.425781 L 555.609375 401.644531 L 557.503906 401.4375 L 561.421875 401.394531 L 565.335938 401.84375 L 569.210938 402.757812 L 573.007812 404.085938 L 576.691406 405.773438 L 580.246094 407.734375 L 583.671875 409.886719 L 587.011719 412.140625 L 590.328125 414.417969 L 593.667969 416.722656 L 597.035156 419.066406 L 600.410156 421.441406 L 603.75 423.824219 L 607.007812 426.1875 L 610.136719 428.5 L 613.09375 430.734375 L 614.019531 431.449219 L 617.695312 434.335938 L 620.925781 436.988281 L 623.6875 439.367188 L 626.003906 441.472656 L 627.945312 443.335938 L 629.679688 445.0625 L 631.363281 446.792969 L 632.921875 448.609375 L 634.246094 450.527344 L 635.230469 452.542969 L 635.800781 454.617188 L 635.929688 456.144531 L 635.679688 458.292969 L 634.953125 460.40625 L 633.8125 462.445312 L 632.355469 464.378906 L 630.691406 466.199219 L 628.945312 467.960938 L 627.117188 469.761719 L 625.042969 471.710938 L 622.636719 473.847656 L 619.863281 476.171875 L 616.742188 478.652344 L 615.316406 479.746094 L 612.644531 481.738281 L 609.828125 483.769531 L 606.914062 485.816406 L 603.945312 487.847656 L 600.972656 489.839844 L 598.027344 491.78125 L 595.117188 493.675781 L 592.230469 495.542969 L 589.273438 497.382812 L 586.148438 499.140625 L 582.796875 500.75 L 579.207031 502.144531 L 575.390625 503.277344 L 571.378906 504.09375 L 567.207031 504.570312 Z M 567.035156 504.582031 "/>
<path style=" stroke:none;fill-rule:nonzero;fill:rgb(95.686275%,95.686275%,95.686275%);fill-opacity:1;" d="M 143.847656 365.566406 L 141.324219 365.621094 L 138.832031 365.316406 L 136.425781 364.703125 L 134.148438 363.851562 L 131.988281 362.867188 L 129.867188 361.835938 L 127.667969 360.722656 L 125.347656 359.445312 L 122.925781 357.988281 L 120.449219 356.355469 L 119.019531 355.339844 L 116.726562 353.597656 L 114.496094 351.769531 L 112.371094 349.902344 L 110.382812 348.050781 L 108.523438 346.234375 L 106.734375 344.445312 L 104.949219 342.609375 L 103.175781 340.636719 L 101.460938 338.5 L 99.863281 336.214844 L 98.445312 333.820312 L 98.097656 333.160156 L 97.007812 330.816406 L 96.128906 328.453125 L 95.453125 326.121094 L 94.960938 323.859375 L 94.621094 321.691406 L 94.359375 319.589844 L 94.148438 317.433594 L 94.109375 314.929688 L 94.375 311.871094 L 95.03125 308.144531 L 96.132812 303.722656 L 97.539062 299.105469 L 98.761719 295.554688 L 100.15625 291.769531 L 101.71875 287.792969 L 103.414062 283.664062 L 105.222656 279.433594 L 107.117188 275.152344 L 109.0625 270.863281 L 111.035156 266.585938 L 113.023438 262.335938 L 115.011719 258.097656 L 117.015625 253.84375 L 119.042969 249.574219 L 121.097656 245.3125 L 123.164062 241.09375 L 125.226562 236.964844 L 127.265625 232.980469 L 129.257812 229.183594 L 131.1875 225.625 L 132.335938 223.566406 L 134.96875 219.042969 L 137.382812 215.167969 L 139.554688 211.960938 L 141.476562 209.382812 L 143.175781 207.339844 L 144.71875 205.652344 L 146.21875 204.066406 L 147.765625 202.429688 L 149.402344 200.703125 L 151.132812 198.890625 L 152.9375 197.007812 L 154.792969 195.089844 L 155.789062 194.0625 L 157.964844 191.832031 L 160.113281 189.644531 L 162.1875 187.546875 L 164.148438 185.574219 L 166.003906 183.714844 L 167.820312 181.90625 L 169.695312 180.183594 L 171.691406 178.675781 L 173.800781 177.523438 L 175.988281 176.828125 L 177.792969 176.644531 L 179.894531 176.890625 L 181.957031 177.597656 L 183.953125 178.714844 L 185.839844 180.140625 L 187.621094 181.761719 L 189.339844 183.46875 L 191.089844 185.285156 L 192.949219 187.425781 L 194.945312 190.035156 L 197.0625 193.167969 L 199.261719 196.824219 L 200.214844 198.527344 L 201.800781 201.53125 L 203.390625 204.742188 L 204.96875 208.117188 L 206.519531 211.601562 L 208.03125 215.144531 L 209.488281 218.699219 L 210.894531 222.234375 L 212.269531 225.742188 L 213.628906 229.257812 L 214.933594 232.871094 L 216.125 236.640625 L 217.144531 240.601562 L 217.941406 244.746094 L 218.472656 249.050781 L 218.703125 253.472656 L 218.613281 257.972656 L 218.546875 259 L 218.085938 263.304688 L 217.339844 267.617188 L 216.328125 271.898438 L 215.078125 276.105469 L 213.628906 280.207031 L 212.023438 284.175781 L 210.3125 288.007812 L 208.535156 291.734375 L 206.738281 295.410156 L 204.921875 299.097656 L 203.078125 302.804688 L 201.191406 306.519531 L 199.277344 310.210938 L 197.351562 313.832031 L 195.425781 317.332031 L 193.53125 320.660156 L 191.679688 323.773438 L 191.390625 324.253906 L 188.914062 328.164062 L 186.589844 331.566406 L 184.449219 334.441406 L 182.503906 336.808594 L 180.738281 338.75 L 179.101562 340.421875 L 177.480469 342.039062 L 175.792969 343.699219 L 174.003906 345.425781 L 172.105469 347.195312 L 170.128906 348.988281 L 168.101562 350.761719 L 167.628906 351.164062 L 165.300781 353.105469 L 162.996094 354.949219 L 160.765625 356.660156 L 158.652344 358.230469 L 156.648438 359.671875 L 154.6875 361.0625 L 152.648438 362.40625 L 150.472656 363.613281 L 148.152344 364.597656 L 145.734375 365.277344 Z M 143.847656 365.566406 "/>
<path style=" stroke:none;fill-rule:nonzero;fill:rgb(95.686275%,95.686275%,95.686275%);fill-opacity:1;" d="M 458.824219 261.066406 L 456.132812 260.769531 L 453.480469 259.898438 L 450.914062 258.53125 L 448.46875 256.761719 L 446.160156 254.722656 L 443.945312 252.550781 L 441.757812 250.339844 L 439.613281 248.046875 L 437.582031 245.648438 L 435.75 243.152344 L 434.191406 240.605469 L 432.96875 238.058594 L 432.949219 238.019531 L 432.007812 235.15625 L 431.542969 232.390625 L 431.503906 229.78125 L 431.808594 227.359375 L 432.328125 225.097656 L 432.914062 222.882812 L 433.59375 220.589844 L 434.445312 218.183594 L 435.511719 215.683594 L 436.800781 213.152344 L 437.5625 211.828125 L 439.140625 209.386719 L 440.875 207.042969 L 442.707031 204.835938 L 444.570312 202.796875 L 446.425781 200.898438 L 448.273438 199.0625 L 450.199219 197.320312 L 452.246094 195.816406 L 454.40625 194.691406 L 456.644531 194.050781 L 458.140625 193.925781 L 460.398438 194.207031 L 462.613281 195.019531 L 464.734375 196.28125 L 466.734375 197.878906 L 468.621094 199.664062 L 470.464844 201.511719 L 472.324219 203.445312 L 474.199219 205.53125 L 476.03125 207.78125 L 477.769531 210.160156 L 478.867188 211.828125 L 480.339844 214.339844 L 481.613281 216.855469 L 482.679688 219.308594 L 483.554688 221.65625 L 484.289062 223.894531 L 484.96875 226.101562 L 485.523438 228.417969 L 485.796875 230.914062 L 485.679688 233.585938 L 485.097656 236.390625 L 484.550781 238.019531 L 483.386719 240.570312 L 481.871094 243.121094 L 480.0625 245.621094 L 478.046875 248.027344 L 475.90625 250.324219 L 473.714844 252.539062 L 471.5 254.714844 L 469.183594 256.757812 L 466.738281 258.527344 L 464.167969 259.898438 L 461.507812 260.769531 Z M 458.824219 261.066406 "/>
<path style=" stroke:none;fill-rule:nonzero;fill:rgb(95.686275%,95.686275%,95.686275%);fill-opacity:1;" d="M 627.683594 417.503906 L 625.324219 417.207031 L 623.007812 416.355469 L 620.789062 415.023438 L 618.703125 413.347656 L 616.730469 411.476562 L 614.808594 409.546875 L 612.925781 407.53125 L 611.164062 405.375 L 609.621094 403.089844 L 608.378906 400.71875 L 607.808594 399.273438 L 607.140625 396.730469 L 606.890625 394.226562 L 607.011719 391.828125 L 607.417969 389.574219 L 607.980469 387.4375 L 608.597656 385.304688 L 609.34375 383.0625 L 610.300781 380.6875 L 611.496094 378.222656 L 612.929688 375.722656 L 613.007812 375.601562 L 614.582031 373.257812 L 616.3125 370.980469 L 618.140625 368.816406 L 620.003906 366.800781 L 621.859375 364.910156 L 623.710938 363.074219 L 625.636719 361.339844 L 627.6875 359.851562 L 629.855469 358.746094 L 632.097656 358.136719 L 633.449219 358.035156 L 635.746094 358.328125 L 638 359.175781 L 640.160156 360.488281 L 642.183594 362.136719 L 644.097656 363.972656 L 645.972656 365.859375 L 647.804688 367.84375 L 649.523438 369.976562 L 651.035156 372.246094 L 652.253906 374.609375 L 652.65625 375.601562 L 653.402344 378.109375 L 653.761719 380.59375 L 653.777344 382.984375 L 653.53125 385.242188 L 653.132812 387.386719 L 652.683594 389.535156 L 652.089844 391.800781 L 651.265625 394.207031 L 650.164062 396.722656 L 648.789062 399.273438 L 647.277344 401.632812 L 645.574219 403.941406 L 643.742188 406.144531 L 641.851562 408.214844 L 639.953125 410.160156 L 638.054688 412.046875 L 636.089844 413.847656 L 633.996094 415.417969 L 631.785156 416.613281 L 629.496094 417.328125 Z M 627.683594 417.503906 "/>
<path style=" stroke:none;fill-rule:nonzero;fill:rgb(95.686275%,95.686275%,95.686275%);fill-opacity:1;" d="M 199.304688 532.453125 L 195.847656 531.386719 L 192.773438 530.105469 L 190.109375 528.648438 L 187.84375 527.074219 L 185.917969 525.429688 L 184.207031 523.765625 L 182.554688 522.089844 L 180.996094 520.339844 L 179.628906 518.496094 L 178.554688 516.554688 L 177.855469 514.542969 L 177.578125 512.5 L 177.574219 512.261719 L 177.859375 509.964844 L 178.679688 507.710938 L 179.957031 505.542969 L 181.570312 503.503906 L 183.386719 501.582031 L 185.265625 499.703125 L 187.234375 497.828125 L 189.375 495.984375 L 191.707031 494.226562 L 194.199219 492.632812 L 196.203125 491.546875 L 198.816406 490.382812 L 201.453125 489.464844 L 204.058594 488.785156 L 206.574219 488.316406 L 208.988281 488.003906 L 211.347656 487.746094 L 213.78125 487.5 L 216.363281 487.277344 L 219.089844 487.089844 L 221.925781 486.953125 L 224.742188 486.878906 L 227.636719 486.863281 L 230.476562 486.914062 L 233.207031 487.015625 L 235.777344 487.164062 L 238.203125 487.332031 L 240.5625 487.515625 L 242.972656 487.765625 L 245.488281 488.167969 L 248.089844 488.792969 L 250.714844 489.660156 L 253.097656 490.679688 L 255.667969 492.058594 L 258.113281 493.65625 L 260.386719 495.410156 L 262.464844 497.246094 L 264.382812 499.105469 L 266.234375 500.96875 L 267.992188 502.90625 L 269.507812 504.96875 L 270.640625 507.144531 L 271.289062 509.402344 L 271.414062 510.917969 L 271.195312 512.929688 L 270.546875 514.914062 L 269.527344 516.835938 L 268.210938 518.664062 L 266.6875 520.394531 L 265.066406 522.050781 L 263.390625 523.691406 L 261.515625 525.324219 L 259.308594 526.925781 L 256.695312 528.4375 L 253.671875 529.820312 L 250.253906 531.019531 L 249.972656 531.105469 L 246.835938 531.9375 L 243.488281 532.625 L 239.984375 533.167969 L 236.390625 533.570312 L 232.769531 533.851562 L 229.171875 534.039062 L 225.605469 534.164062 L 222.054688 534.269531 L 218.472656 534.332031 L 214.855469 534.316406 L 211.238281 534.179688 L 207.671875 533.898438 L 204.222656 533.457031 L 200.953125 532.847656 Z M 199.304688 532.453125 "/>
<path style=" stroke:none;fill-rule:nonzero;fill:rgb(95.686275%,95.686275%,95.686275%);fill-opacity:1;" d="M 613.273438 274.789062 L 611.015625 274.507812 L 608.800781 273.6875 L 606.675781 272.417969 L 604.679688 270.816406 L 602.796875 269.023438 L 600.953125 267.175781 L 599.09375 265.242188 L 597.238281 263.160156 L 595.441406 260.933594 L 593.769531 258.601562 L 592.839844 257.167969 L 591.40625 254.65625 L 590.203125 252.160156 L 589.238281 249.75 L 588.484375 247.464844 L 587.863281 245.289062 L 587.292969 243.121094 L 586.863281 240.851562 L 586.6875 238.453125 L 586.863281 235.957031 L 587.4375 233.433594 L 587.546875 233.09375 L 588.546875 230.671875 L 589.890625 228.328125 L 591.507812 226.109375 L 593.300781 224.046875 L 595.175781 222.113281 L 597.078125 220.234375 L 599.066406 218.472656 L 601.183594 216.984375 L 603.417969 215.910156 L 605.722656 215.359375 L 606.753906 215.300781 L 609.027344 215.585938 L 611.257812 216.40625 L 613.394531 217.679688 L 615.410156 219.289062 L 617.308594 221.089844 L 619.164062 222.953125 L 621.03125 224.894531 L 622.894531 226.980469 L 624.691406 229.210938 L 626.363281 231.542969 L 627.355469 233.09375 L 628.773438 235.621094 L 629.949219 238.128906 L 630.878906 240.546875 L 631.59375 242.835938 L 632.167969 245.015625 L 632.695312 247.183594 L 633.085938 249.457031 L 633.21875 251.855469 L 633.007812 254.347656 L 632.410156 256.867188 L 632.308594 257.167969 L 631.296875 259.585938 L 629.945312 261.921875 L 628.328125 264.128906 L 626.539062 266.179688 L 624.675781 268.097656 L 622.785156 269.960938 L 620.808594 271.707031 L 618.699219 273.175781 L 616.476562 274.222656 L 614.1875 274.742188 Z M 613.273438 274.789062 "/>
<path style=" stroke:none;fill-rule:nonzero;fill:rgb(95.686275%,95.686275%,95.686275%);fill-opacity:1;" d="M 308.253906 618.375 L 304.9375 618.183594 L 301.375 617.761719 L 297.609375 617.121094 L 293.695312 616.285156 L 289.691406 615.28125 L 285.652344 614.152344 L 281.617188 612.929688 L 277.605469 611.660156 L 273.601562 610.371094 L 269.582031 609.066406 L 265.527344 607.730469 L 261.464844 606.355469 L 257.429688 604.949219 L 253.476562 603.519531 L 249.660156 602.082031 L 246.039062 600.652344 L 243.382812 599.558594 L 239.140625 597.699219 L 235.394531 595.917969 L 232.171875 594.234375 L 229.460938 592.671875 L 227.1875 591.222656 L 225.207031 589.863281 L 223.300781 588.519531 L 221.34375 587.125 L 219.304688 585.632812 L 217.195312 584.039062 L 215.039062 582.355469 L 212.878906 580.609375 L 211.945312 579.835938 L 209.53125 577.769531 L 207.214844 575.699219 L 205.039062 573.675781 L 203.027344 571.742188 L 201.164062 569.894531 L 199.363281 568.085938 L 197.640625 566.214844 L 196.136719 564.226562 L 194.984375 562.121094 L 194.285156 559.941406 L 194.101562 558.121094 L 194.386719 555.855469 L 195.210938 553.628906 L 196.492188 551.496094 L 198.105469 549.492188 L 199.910156 547.601562 L 201.765625 545.75 L 203.726562 543.90625 L 205.847656 542.109375 L 208.140625 540.429688 L 210.5625 538.9375 L 211.945312 538.214844 L 214.382812 537.152344 L 216.828125 536.339844 L 219.226562 535.773438 L 221.535156 535.414062 L 223.738281 535.203125 L 225.898438 535.054688 L 228.1875 534.984375 L 230.796875 535.117188 L 233.796875 535.542969 L 237.195312 536.3125 L 240.871094 537.417969 L 243.863281 538.492188 L 246.992188 539.753906 L 250.21875 541.175781 L 253.480469 542.71875 L 256.734375 544.347656 L 259.941406 546.023438 L 263.101562 547.71875 L 266.238281 549.417969 L 269.402344 551.140625 L 272.609375 552.890625 L 275.839844 554.675781 L 279.050781 556.464844 L 282.1875 558.242188 L 285.199219 559.972656 L 287.351562 561.226562 L 290.753906 563.25 L 293.804688 565.117188 L 296.480469 566.804688 L 298.777344 568.304688 L 300.765625 569.648438 L 302.585938 570.898438 L 304.414062 572.167969 L 306.332031 573.535156 L 308.355469 575.027344 L 310.460938 576.648438 L 312.613281 578.375 L 313.835938 579.390625 L 316.132812 581.363281 L 318.375 583.375 L 320.511719 585.371094 L 322.515625 587.304688 L 324.398438 589.171875 L 326.222656 591.003906 L 327.964844 592.902344 L 329.484375 594.921875 L 330.644531 597.058594 L 331.339844 599.269531 L 331.515625 601.050781 L 331.324219 602.914062 L 330.765625 604.757812 L 329.875 606.550781 L 328.714844 608.265625 L 327.355469 609.898438 L 325.878906 611.453125 L 324.355469 612.96875 L 322.707031 614.445312 L 320.75 615.789062 L 318.363281 616.921875 L 315.484375 617.765625 L 312.097656 618.261719 Z M 308.253906 618.375 "/>
<path style=" stroke:none;fill-rule:nonzero;fill:rgb(95.686275%,95.686275%,95.686275%);fill-opacity:1;" d="M 615.175781 346.171875 L 613.023438 345.917969 L 610.910156 345.175781 L 608.875 344.015625 L 606.949219 342.535156 L 605.136719 340.859375 L 603.378906 339.109375 L 601.667969 337.316406 L 600.085938 335.441406 L 598.75 333.480469 L 597.746094 331.472656 L 597.144531 329.457031 L 597.078125 329.09375 L 597.019531 326.855469 L 597.492188 324.714844 L 598.421875 322.714844 L 599.671875 320.878906 L 601.078125 319.160156 L 602.539062 317.429688 L 604.136719 315.566406 L 605.910156 313.542969 L 607.847656 311.382812 L 609.582031 309.496094 L 611.550781 307.394531 L 613.558594 305.289062 L 615.554688 303.238281 L 617.488281 301.277344 L 619.351562 299.402344 L 621.191406 297.578125 L 623.101562 295.84375 L 625.132812 294.339844 L 627.28125 293.210938 L 629.503906 292.5625 L 631.0625 292.425781 L 633.210938 292.683594 L 635.324219 293.421875 L 637.359375 294.582031 L 639.28125 296.0625 L 641.097656 297.738281 L 642.851562 299.488281 L 644.566406 301.28125 L 646.144531 303.15625 L 647.480469 305.113281 L 648.484375 307.125 L 649.085938 309.136719 L 649.148438 309.496094 L 649.210938 311.734375 L 648.738281 313.875 L 647.808594 315.875 L 646.5625 317.710938 L 645.15625 319.429688 L 643.695312 321.164062 L 642.101562 323.023438 L 640.332031 325.046875 L 638.390625 327.210938 L 636.664062 329.09375 L 634.695312 331.195312 L 632.6875 333.300781 L 630.691406 335.355469 L 628.757812 337.316406 L 626.890625 339.1875 L 625.050781 341.015625 L 623.144531 342.753906 L 621.109375 344.253906 L 618.960938 345.386719 L 616.738281 346.039062 Z M 615.175781 346.171875 "/>
<path style=" stroke:none;fill-rule:nonzero;fill:rgb(95.686275%,95.686275%,95.686275%);fill-opacity:1;" d="M 280.457031 186.5 L 278.261719 186.242188 L 276.105469 185.492188 L 274.023438 184.320312 L 272.054688 182.824219 L 270.199219 181.121094 L 268.40625 179.339844 L 266.566406 177.476562 L 264.59375 175.40625 L 262.457031 173.066406 L 260.175781 170.441406 L 257.777344 167.5625 L 256.976562 166.570312 L 254.878906 163.917969 L 252.765625 161.152344 L 250.664062 158.328125 L 248.609375 155.496094 L 246.625 152.703125 L 244.710938 149.964844 L 242.839844 147.265625 L 240.996094 144.546875 L 239.246094 141.78125 L 237.675781 138.964844 L 236.359375 136.144531 L 235.367188 133.367188 L 234.75 130.6875 L 234.609375 129.609375 L 234.597656 126.703125 L 235.125 124.046875 L 236.132812 121.667969 L 237.507812 119.570312 L 239.128906 117.714844 L 240.847656 115.976562 L 242.605469 114.285156 L 244.4375 112.722656 L 246.355469 111.394531 L 248.324219 110.394531 L 250.304688 109.796875 L 251.039062 109.6875 L 253.242188 109.730469 L 255.347656 110.320312 L 257.316406 111.371094 L 259.125 112.746094 L 260.816406 114.285156 L 262.507812 115.878906 L 264.316406 117.59375 L 266.28125 119.46875 L 268.382812 121.488281 L 270.566406 123.601562 L 272.570312 125.558594 L 274.578125 127.53125 L 276.542969 129.472656 L 278.425781 131.347656 L 280.222656 133.140625 L 281.972656 134.890625 L 283.742188 136.6875 L 285.546875 138.597656 L 287.359375 140.632812 L 289.136719 142.769531 L 290.828125 144.960938 L 291.078125 145.300781 L 292.773438 147.734375 L 294.289062 150.132812 L 295.601562 152.441406 L 296.730469 154.617188 L 297.730469 156.679688 L 298.675781 158.730469 L 299.480469 160.894531 L 300 163.195312 L 300.132812 165.613281 L 299.808594 168.082031 L 299.722656 168.445312 L 298.980469 170.625 L 297.890625 172.765625 L 296.515625 174.828125 L 294.925781 176.78125 L 293.214844 178.621094 L 291.453125 180.390625 L 289.660156 182.117188 L 287.765625 183.695312 L 285.761719 185.007812 L 283.664062 185.949219 L 281.515625 186.4375 Z M 280.457031 186.5 "/>
<path style=" stroke:none;fill-rule:nonzero;fill:rgb(95.686275%,95.686275%,95.686275%);fill-opacity:1;" d="M 521.359375 385.824219 L 519.3125 385.292969 L 517.273438 384.351562 L 515.289062 383.0625 L 513.386719 381.519531 L 511.578125 379.824219 L 509.824219 378.074219 L 508.125 376.277344 L 506.59375 374.375 L 505.359375 372.363281 L 504.527344 370.261719 L 504.167969 368.117188 L 504.15625 367.667969 L 504.433594 365.421875 L 505.242188 363.214844 L 506.492188 361.101562 L 508.078125 359.105469 L 509.855469 357.226562 L 511.691406 355.390625 L 513.589844 353.503906 L 515.589844 351.546875 L 517.679688 349.535156 L 519.816406 347.519531 L 521.359375 346.09375 L 523.617188 344.050781 L 525.792969 342.128906 L 527.835938 340.371094 L 529.726562 338.78125 L 531.5 337.316406 L 533.273438 335.902344 L 535.167969 334.652344 L 537.21875 333.730469 L 539.402344 333.253906 L 541.675781 333.3125 L 541.679688 333.3125 L 543.730469 333.832031 L 545.777344 334.765625 L 547.777344 336.050781 L 549.691406 337.601562 L 551.515625 339.304688 L 553.289062 341.070312 L 555.003906 342.878906 L 556.554688 344.792969 L 557.816406 346.820312 L 558.679688 348.933594 L 559.070312 351.09375 L 559.089844 351.679688 L 558.808594 353.945312 L 558.003906 356.167969 L 556.742188 358.304688 L 555.148438 360.316406 L 553.359375 362.214844 L 551.511719 364.066406 L 549.601562 365.960938 L 547.589844 367.925781 L 545.492188 369.933594 L 543.347656 371.9375 L 541.679688 373.460938 L 539.398438 375.492188 L 537.203125 377.382812 L 535.144531 379.105469 L 533.242188 380.644531 L 531.464844 382.0625 L 529.679688 383.425781 L 527.777344 384.621094 L 525.714844 385.492188 L 523.527344 385.914062 Z M 521.359375 385.824219 "/>
<path style=" stroke:none;fill-rule:nonzero;fill:rgb(95.686275%,95.686275%,95.686275%);fill-opacity:1;" d="M 251.960938 242.675781 L 249.566406 242.390625 L 247.210938 241.566406 L 244.945312 240.28125 L 242.796875 238.636719 L 240.773438 236.769531 L 238.816406 234.824219 L 236.839844 232.832031 L 234.816406 230.757812 L 232.769531 228.597656 L 230.75 226.398438 L 228.8125 224.203125 L 228.382812 223.710938 L 226.363281 221.292969 L 224.546875 218.996094 L 222.957031 216.871094 L 221.582031 214.933594 L 220.347656 213.125 L 219.171875 211.3125 L 218.175781 209.371094 L 217.511719 207.269531 L 217.292969 205.035156 L 217.515625 203.042969 L 218.144531 201 L 219.152344 198.960938 L 220.480469 196.972656 L 222.042969 195.066406 L 223.746094 193.257812 L 225.496094 191.5 L 227.292969 189.792969 L 229.1875 188.25 L 231.199219 187 L 233.296875 186.136719 L 235.441406 185.742188 L 236.046875 185.722656 L 238.296875 186 L 240.503906 186.800781 L 242.621094 188.050781 L 244.617188 189.628906 L 246.503906 191.40625 L 248.339844 193.242188 L 250.230469 195.136719 L 252.207031 197.132812 L 254.261719 199.21875 L 256.34375 201.355469 L 257.980469 203.042969 L 260.113281 205.269531 L 262.148438 207.414062 L 264.046875 209.4375 L 265.785156 211.308594 L 267.40625 213.0625 L 268.972656 214.800781 L 270.386719 216.65625 L 271.480469 218.6875 L 272.117188 220.878906 L 272.199219 223.195312 L 272.140625 223.710938 L 271.617188 225.796875 L 270.664062 227.90625 L 269.347656 229.988281 L 267.75 232.003906 L 265.96875 233.941406 L 264.113281 235.816406 L 262.21875 237.65625 L 260.234375 239.363281 L 258.132812 240.816406 L 255.929688 241.898438 L 253.660156 242.53125 Z M 251.960938 242.675781 "/>
<path style=" stroke:none;fill-rule:nonzero;fill:rgb(95.686275%,95.686275%,95.686275%);fill-opacity:1;" d="M 553.113281 320.925781 L 550.746094 320.007812 L 548.433594 318.710938 L 546.222656 317.113281 L 544.148438 315.316406 L 542.195312 313.425781 L 540.292969 311.5 L 538.507812 309.492188 L 537 307.347656 L 535.910156 305.085938 L 535.351562 302.753906 L 535.289062 301.6875 L 535.570312 299.410156 L 536.382812 297.171875 L 537.652344 295.023438 L 539.257812 293 L 541.058594 291.089844 L 542.921875 289.226562 L 544.859375 287.339844 L 546.917969 285.425781 L 549.101562 283.527344 L 551.371094 281.699219 L 553.113281 280.394531 L 555.570312 278.710938 L 557.984375 277.230469 L 560.289062 275.960938 L 562.457031 274.894531 L 564.503906 273.960938 L 566.550781 273.078125 L 568.710938 272.351562 L 571.019531 271.914062 L 573.445312 271.875 L 575.933594 272.296875 L 576.136719 272.351562 L 578.511719 273.234375 L 580.847656 274.511719 L 583.085938 276.105469 L 585.195312 277.917969 L 587.1875 279.839844 L 589.125 281.796875 L 590.957031 283.832031 L 592.527344 286 L 593.683594 288.289062 L 594.324219 290.65625 L 594.425781 292.050781 L 594.140625 294.375 L 593.320312 296.65625 L 592.039062 298.84375 L 590.417969 300.910156 L 588.589844 302.859375 L 586.695312 304.757812 L 584.734375 306.671875 L 582.65625 308.601562 L 580.457031 310.503906 L 578.175781 312.324219 L 576.136719 313.8125 L 573.632812 315.453125 L 571.183594 316.863281 L 568.851562 318.035156 L 566.667969 318.992188 L 564.609375 319.808594 L 562.550781 320.574219 L 560.375 321.183594 L 558.058594 321.503906 L 555.636719 321.441406 L 553.164062 320.9375 Z M 553.113281 320.925781 "/>
<path style=" stroke:none;fill-rule:nonzero;fill:rgb(95.686275%,95.686275%,95.686275%);fill-opacity:1;" d="M 560.492188 188.519531 L 558.035156 188.757812 L 555.644531 188.492188 L 553.375 187.792969 L 551.257812 186.761719 L 549.265625 185.550781 L 547.300781 184.285156 L 545.238281 182.917969 L 543.039062 181.382812 L 540.726562 179.679688 L 538.355469 177.820312 L 537.613281 177.21875 L 535.34375 175.308594 L 533.117188 173.339844 L 530.980469 171.363281 L 528.972656 169.429688 L 527.078125 167.554688 L 525.242188 165.707031 L 523.488281 163.796875 L 521.957031 161.761719 L 520.789062 159.613281 L 520.089844 157.382812 L 519.914062 155.59375 L 520.164062 153.453125 L 520.890625 151.34375 L 522.03125 149.3125 L 523.488281 147.390625 L 525.148438 145.574219 L 526.890625 143.820312 L 528.671875 142.097656 L 530.554688 140.464844 L 532.554688 139.011719 L 534.644531 137.820312 L 536.789062 136.960938 L 537.613281 136.730469 L 540.039062 136.367188 L 542.417969 136.460938 L 544.691406 136.953125 L 546.824219 137.742188 L 548.839844 138.695312 L 550.851562 139.699219 L 552.980469 140.835938 L 555.265625 142.175781 L 557.683594 143.746094 L 560.179688 145.527344 L 560.492188 145.757812 L 562.792969 147.566406 L 565.070312 149.484375 L 567.273438 151.464844 L 569.371094 153.445312 L 571.355469 155.394531 L 573.28125 157.324219 L 575.140625 159.304688 L 576.796875 161.402344 L 578.121094 163.621094 L 578.988281 165.9375 L 579.324219 168.296875 L 579.324219 168.519531 L 579.070312 170.757812 L 578.332031 172.964844 L 577.164062 175.09375 L 575.667969 177.117188 L 573.953125 179.027344 L 572.136719 180.863281 L 570.289062 182.667969 L 568.355469 184.386719 L 566.316406 185.925781 L 564.191406 187.191406 L 562.015625 188.109375 Z M 560.492188 188.519531 "/>
<path style=" stroke:none;fill-rule:nonzero;fill:rgb(95.686275%,95.686275%,95.686275%);fill-opacity:1;" d="M 524.316406 267.722656 L 521.378906 267.09375 L 518.566406 266.042969 L 515.917969 264.621094 L 513.460938 262.902344 L 511.191406 260.980469 L 509.070312 258.941406 L 506.996094 256.871094 L 504.910156 254.703125 L 502.804688 252.351562 L 500.710938 249.769531 L 498.667969 246.957031 L 496.734375 243.945312 L 495.386719 241.589844 L 493.800781 238.472656 L 492.378906 235.265625 L 491.128906 232.027344 L 490.050781 228.808594 L 489.128906 225.660156 L 488.328125 222.59375 L 487.585938 219.578125 L 486.878906 216.539062 L 486.28125 213.425781 L 485.875 210.234375 L 485.714844 206.996094 L 485.847656 203.769531 L 486.300781 200.609375 L 486.582031 199.355469 L 487.488281 196.394531 L 488.699219 193.585938 L 490.175781 190.960938 L 491.859375 188.542969 L 493.691406 186.328125 L 495.601562 184.277344 L 497.546875 182.324219 L 499.539062 180.398438 L 501.683594 178.574219 L 504.046875 176.9375 L 506.65625 175.570312 L 509.511719 174.550781 L 512.582031 173.925781 L 514.316406 173.765625 L 517.421875 173.789062 L 520.640625 174.175781 L 523.929688 174.902344 L 527.234375 175.921875 L 530.503906 177.179688 L 533.714844 178.601562 L 536.867188 180.113281 L 540 181.65625 L 543.175781 183.246094 L 546.414062 184.921875 L 549.703125 186.695312 L 553.007812 188.566406 L 556.273438 190.523438 L 559.449219 192.535156 L 561.203125 193.703125 L 564.566406 196.070312 L 567.703125 198.449219 L 570.578125 200.792969 L 573.171875 203.066406 L 575.503906 205.25 L 577.640625 207.351562 L 579.707031 209.421875 L 581.699219 211.550781 L 583.511719 213.789062 L 585.027344 216.144531 L 586.148438 218.601562 L 586.800781 221.117188 L 586.949219 223.023438 L 586.675781 225.597656 L 585.878906 228.140625 L 584.617188 230.609375 L 582.972656 232.964844 L 581.058594 235.199219 L 579 237.335938 L 576.890625 239.4375 L 574.6875 241.585938 L 572.316406 243.796875 L 569.742188 246.0625 L 566.980469 248.335938 L 564.0625 250.582031 L 562.398438 251.792969 L 559.449219 253.824219 L 556.453125 255.753906 L 553.453125 257.5625 L 550.507812 259.226562 L 547.648438 260.757812 L 544.875 262.175781 L 542.152344 263.542969 L 539.390625 264.863281 L 536.539062 266.042969 L 533.601562 266.992188 L 530.605469 267.632812 L 527.605469 267.902344 L 524.652344 267.765625 Z M 524.316406 267.722656 "/>
<path style=" stroke:none;fill-rule:nonzero;fill:rgb(95.686275%,95.686275%,95.686275%);fill-opacity:1;" d="M 488.054688 555.242188 L 485.554688 554.035156 L 483.042969 552.488281 L 480.566406 550.664062 L 478.175781 548.632812 L 475.882812 546.488281 L 473.671875 544.296875 L 471.496094 542.078125 L 469.453125 539.765625 L 467.679688 537.320312 L 466.308594 534.746094 L 465.441406 532.089844 L 465.144531 529.40625 L 465.433594 526.757812 L 466.277344 524.140625 L 467.609375 521.609375 L 469.332031 519.195312 L 471.328125 516.910156 L 473.460938 514.726562 L 475.636719 512.5625 L 477.875 510.386719 L 480.214844 508.226562 L 482.640625 506.128906 L 485.109375 504.152344 L 487.574219 502.355469 L 488.054688 502.023438 L 490.605469 500.40625 L 493.066406 499.046875 L 495.398438 497.949219 L 497.566406 497.09375 L 499.582031 496.433594 L 501.507812 495.867188 L 503.464844 495.355469 L 505.546875 495.003906 L 507.792969 494.917969 L 510.1875 495.175781 L 512.695312 495.824219 L 514.0625 496.332031 L 516.566406 497.535156 L 519.078125 499.082031 L 521.550781 500.910156 L 523.945312 502.9375 L 526.238281 505.085938 L 528.449219 507.277344 L 530.625 509.492188 L 532.667969 511.808594 L 534.441406 514.253906 L 535.8125 516.828125 L 536.679688 519.484375 L 536.976562 522.167969 L 536.6875 524.816406 L 535.84375 527.429688 L 534.511719 529.964844 L 532.785156 532.378906 L 530.792969 534.664062 L 528.65625 536.847656 L 526.484375 539.011719 L 524.242188 541.1875 L 521.902344 543.347656 L 519.480469 545.445312 L 517.011719 547.421875 L 514.546875 549.21875 L 514.0625 549.546875 L 511.511719 551.167969 L 509.050781 552.527344 L 506.722656 553.625 L 504.554688 554.476562 L 502.539062 555.140625 L 500.613281 555.707031 L 498.65625 556.21875 L 496.570312 556.570312 L 494.328125 556.65625 L 491.929688 556.394531 L 489.421875 555.75 Z M 488.054688 555.242188 "/>
<path style=" stroke:none;fill-rule:nonzero;fill:rgb(95.686275%,95.686275%,95.686275%);fill-opacity:1;" d="M 444.546875 626.742188 L 441.855469 626.445312 L 439.199219 625.574219 L 436.628906 624.203125 L 434.183594 622.429688 L 431.871094 620.386719 L 429.652344 618.210938 L 427.460938 616 L 425.308594 613.71875 L 423.257812 611.351562 L 421.386719 608.914062 L 419.777344 606.460938 L 418.488281 604.039062 L 418.488281 604.035156 L 417.492188 601.507812 L 416.898438 599.097656 L 416.683594 596.847656 L 416.78125 594.773438 L 417.09375 592.863281 L 417.496094 591.03125 L 417.96875 589.144531 L 418.625 587.101562 L 419.535156 584.878906 L 420.738281 582.492188 L 422.242188 579.984375 L 422.523438 579.550781 L 424.207031 577.15625 L 426.097656 574.730469 L 428.144531 572.324219 L 430.28125 569.980469 L 432.457031 567.71875 L 434.628906 565.53125 L 436.816406 563.378906 L 439.089844 561.34375 L 441.492188 559.558594 L 444.019531 558.148438 L 446.636719 557.222656 L 449.296875 556.847656 L 449.679688 556.84375 L 452.375 557.140625 L 455.03125 558.011719 L 457.601562 559.382812 L 460.046875 561.15625 L 462.359375 563.199219 L 464.574219 565.375 L 466.765625 567.585938 L 468.921875 569.867188 L 470.972656 572.234375 L 472.839844 574.671875 L 474.449219 577.125 L 475.742188 579.546875 L 475.742188 579.550781 L 476.738281 582.078125 L 477.328125 584.488281 L 477.546875 586.738281 L 477.449219 588.808594 L 477.136719 590.722656 L 476.734375 592.554688 L 476.261719 594.441406 L 475.605469 596.484375 L 474.695312 598.707031 L 473.492188 601.09375 L 471.988281 603.601562 L 471.707031 604.035156 L 470.023438 606.429688 L 468.132812 608.855469 L 466.085938 611.261719 L 463.949219 613.605469 L 461.773438 615.867188 L 459.601562 618.054688 L 457.414062 620.207031 L 455.140625 622.242188 L 452.738281 624.027344 L 450.210938 625.433594 L 447.59375 626.363281 L 444.933594 626.738281 Z M 444.546875 626.742188 "/>
<path style=" stroke:none;fill-rule:nonzero;fill:rgb(95.686275%,95.686275%,95.686275%);fill-opacity:1;" d="M 502.351562 598.921875 L 499.972656 597.816406 L 497.660156 596.398438 L 495.472656 594.746094 L 493.429688 592.945312 L 491.515625 591.078125 L 489.652344 589.195312 L 487.90625 587.222656 L 486.433594 585.117188 L 485.375 582.902344 L 484.839844 580.613281 L 484.789062 579.636719 L 485.058594 577.417969 L 485.851562 575.238281 L 487.082031 573.148438 L 488.640625 571.175781 L 490.390625 569.316406 L 492.203125 567.503906 L 494.085938 565.632812 L 496.101562 563.667969 L 498.25 561.609375 L 500.503906 559.503906 L 502.351562 557.8125 L 504.65625 555.75 L 506.941406 553.753906 L 509.15625 551.859375 L 511.261719 550.101562 L 513.253906 548.453125 L 515.207031 546.867188 L 517.238281 545.378906 L 519.441406 544.152344 L 521.828125 543.332031 L 524.375 543.035156 L 526.671875 543.25 L 528.972656 543.902344 L 531.292969 544.964844 L 533.597656 546.390625 L 535.84375 548.105469 L 538.011719 550.019531 L 540.101562 552.042969 L 542.15625 554.101562 L 544.144531 556.21875 L 545.957031 558.441406 L 547.484375 560.78125 L 548.621094 563.222656 L 549.296875 565.722656 L 549.46875 567.773438 L 549.175781 570.433594 L 548.324219 573.0625 L 546.980469 575.605469 L 545.242188 578.027344 L 543.234375 580.320312 L 541.089844 582.515625 L 538.90625 584.6875 L 536.65625 586.859375 L 534.3125 588.996094 L 531.894531 591.042969 L 529.445312 592.929688 L 527.011719 594.609375 L 526.671875 594.824219 L 523.84375 596.460938 L 521.152344 597.722656 L 518.652344 598.621094 L 516.367188 599.214844 L 514.242188 599.621094 L 512.140625 599.960938 L 509.933594 600.171875 L 507.597656 600.136719 L 505.160156 599.773438 L 502.691406 599.050781 Z M 502.351562 598.921875 "/>
<path style=" stroke:none;fill-rule:nonzero;fill:rgb(95.686275%,95.686275%,95.686275%);fill-opacity:1;" d="M 460.941406 164.351562 L 458.101562 164.230469 L 455.222656 163.664062 L 452.351562 162.695312 L 449.53125 161.382812 L 446.796875 159.816406 L 444.152344 158.09375 L 441.558594 156.300781 L 438.9375 154.472656 L 436.234375 152.558594 L 433.441406 150.523438 L 430.582031 148.382812 L 427.699219 146.152344 L 424.84375 143.863281 L 423.867188 143.058594 L 420.949219 140.605469 L 418.152344 138.15625 L 415.511719 135.757812 L 413.050781 133.441406 L 410.777344 131.234375 L 408.640625 129.113281 L 406.558594 127.023438 L 404.558594 124.867188 L 402.746094 122.597656 L 401.25 120.207031 L 400.160156 117.722656 L 399.558594 115.179688 L 399.449219 113.558594 L 399.746094 110.875 L 400.613281 108.226562 L 401.976562 105.664062 L 403.738281 103.222656 L 405.773438 100.917969 L 407.9375 98.707031 L 410.144531 96.519531 L 412.429688 94.371094 L 414.816406 92.316406 L 417.292969 90.4375 L 419.8125 88.808594 L 422.332031 87.492188 L 422.429688 87.445312 L 425.007812 86.453125 L 427.5 85.828125 L 429.867188 85.558594 L 432.078125 85.582031 L 434.136719 85.824219 L 436.109375 86.167969 L 438.105469 86.566406 L 440.230469 87.109375 L 442.511719 87.878906 L 444.941406 88.917969 L 447.476562 90.242188 L 448.917969 91.097656 L 451.320312 92.695312 L 453.730469 94.492188 L 456.105469 96.441406 L 458.402344 98.488281 L 460.609375 100.578125 L 462.730469 102.671875 L 464.824219 104.769531 L 466.941406 106.910156 L 469.089844 109.128906 L 471.238281 111.414062 L 473.34375 113.730469 L 475.359375 116.039062 L 476.515625 117.414062 L 478.648438 120.074219 L 480.539062 122.59375 L 482.164062 124.917969 L 483.535156 127.035156 L 484.730469 128.984375 L 485.855469 130.898438 L 486.835938 132.929688 L 487.503906 135.160156 L 487.730469 137.59375 L 487.425781 140.195312 L 487.101562 141.421875 L 486.148438 143.8125 L 484.796875 146.238281 L 483.101562 148.652344 L 481.15625 151.011719 L 479.046875 153.28125 L 476.867188 155.488281 L 474.65625 157.65625 L 472.3125 159.710938 L 469.777344 161.515625 L 467.035156 162.953125 L 464.117188 163.917969 L 461.0625 164.347656 Z M 460.941406 164.351562 "/>
<path style=" stroke:none;fill-rule:nonzero;fill:rgb(95.686275%,95.686275%,95.686275%);fill-opacity:1;" d="M 340.460938 197.820312 L 338.199219 197.539062 L 335.984375 196.71875 L 333.859375 195.441406 L 331.859375 193.835938 L 329.976562 192.042969 L 328.128906 190.191406 L 326.273438 188.253906 L 324.433594 186.164062 L 322.664062 183.929688 L 321.03125 181.589844 L 320.167969 180.199219 L 318.800781 177.675781 L 317.683594 175.167969 L 316.808594 172.742188 L 316.152344 170.441406 L 315.632812 168.25 L 315.160156 166.070312 L 314.828125 163.785156 L 314.75 161.371094 L 315.007812 158.867188 L 315.648438 156.34375 L 315.746094 156.058594 L 316.785156 153.640625 L 318.15625 151.300781 L 319.785156 149.09375 L 321.574219 147.046875 L 323.433594 145.132812 L 325.320312 143.269531 L 327.296875 141.527344 L 329.398438 140.058594 L 331.621094 139.011719 L 333.90625 138.488281 L 334.835938 138.4375 L 337.097656 138.722656 L 339.3125 139.542969 L 341.4375 140.816406 L 343.4375 142.421875 L 345.324219 144.214844 L 347.167969 146.066406 L 349.023438 148.007812 L 350.863281 150.09375 L 352.632812 152.328125 L 354.265625 154.667969 L 355.128906 156.058594 L 356.496094 158.585938 L 357.613281 161.09375 L 358.488281 163.519531 L 359.144531 165.820312 L 359.664062 168.007812 L 360.136719 170.191406 L 360.46875 172.476562 L 360.546875 174.886719 L 360.289062 177.390625 L 359.648438 179.917969 L 359.550781 180.199219 L 358.507812 182.621094 L 357.140625 184.957031 L 355.511719 187.164062 L 353.722656 189.210938 L 351.859375 191.128906 L 349.976562 192.992188 L 348 194.734375 L 345.898438 196.199219 L 343.675781 197.25 L 341.390625 197.773438 Z M 340.460938 197.820312 "/>
<path style=" stroke:none;fill-rule:nonzero;fill:rgb(95.686275%,95.686275%,95.686275%);fill-opacity:1;" d="M 359.359375 581.484375 L 356.976562 581.789062 L 354.652344 581.617188 L 352.441406 581.039062 L 350.375 580.160156 L 348.421875 579.125 L 346.464844 578.035156 L 344.390625 576.816406 L 342.167969 575.398438 L 339.832031 573.78125 L 337.578125 572.09375 L 335.34375 570.296875 L 333.144531 568.402344 L 331.03125 566.476562 L 329.03125 564.570312 L 327.144531 562.703125 L 325.308594 560.855469 L 323.5625 558.933594 L 322.054688 556.890625 L 320.921875 554.730469 L 320.265625 552.496094 L 320.132812 550.9375 L 320.386719 548.800781 L 321.113281 546.699219 L 322.257812 544.671875 L 323.71875 542.753906 L 325.378906 540.949219 L 327.117188 539.199219 L 328.898438 537.484375 L 330.777344 535.871094 L 332.761719 534.457031 L 334.828125 533.320312 L 336.9375 532.535156 L 337.578125 532.371094 L 339.964844 532.082031 L 342.289062 532.277344 L 344.5 532.882812 L 346.5625 533.796875 L 348.511719 534.867188 L 350.464844 535.988281 L 352.53125 537.238281 L 354.742188 538.679688 L 357.0625 540.3125 L 359.359375 542.054688 L 361.589844 543.867188 L 363.78125 545.765625 L 365.886719 547.6875 L 367.875 549.589844 L 369.75 551.445312 L 371.574219 553.285156 L 373.304688 555.195312 L 374.792969 557.230469 L 375.910156 559.378906 L 376.539062 561.605469 L 376.65625 563.0625 L 376.40625 565.1875 L 375.679688 567.277344 L 374.539062 569.289062 L 373.082031 571.195312 L 371.429688 572.992188 L 369.703125 574.726562 L 367.929688 576.429688 L 366.058594 578.03125 L 364.078125 579.4375 L 362.015625 580.5625 L 359.910156 581.34375 Z M 359.359375 581.484375 "/>
<path style=" stroke:none;fill-rule:nonzero;fill:rgb(95.686275%,95.686275%,95.686275%);fill-opacity:1;" d="M 143.890625 492.351562 L 141.644531 492.074219 L 139.445312 491.269531 L 137.332031 490.015625 L 135.34375 488.433594 L 133.464844 486.65625 L 131.632812 484.824219 L 129.765625 482.910156 L 127.851562 480.859375 L 125.925781 478.667969 L 124.042969 476.371094 L 122.765625 474.710938 L 121.023438 472.28125 L 119.4375 469.875 L 118.027344 467.542969 L 116.792969 465.335938 L 115.6875 463.238281 L 114.632812 461.164062 L 113.714844 458.980469 L 113.082031 456.632812 L 112.863281 454.121094 L 113.128906 451.5 L 113.402344 450.371094 L 114.3125 447.90625 L 115.636719 445.449219 L 117.296875 443.054688 L 119.207031 440.765625 L 121.257812 438.589844 L 123.359375 436.480469 L 125.507812 434.429688 L 127.777344 432.566406 L 130.183594 431.039062 L 132.695312 429.972656 L 135.265625 429.457031 L 136.1875 429.417969 L 138.71875 429.710938 L 141.210938 430.554688 L 143.617188 431.882812 L 145.898438 433.589844 L 148.054688 435.535156 L 150.125 437.589844 L 152.191406 439.683594 L 154.246094 441.871094 L 156.234375 444.167969 L 158.09375 446.550781 L 159.761719 448.96875 L 160.617188 450.371094 L 162.046875 453.101562 L 163.125 455.742188 L 163.863281 458.226562 L 164.320312 460.53125 L 164.605469 462.691406 L 164.828125 464.835938 L 164.921875 467.089844 L 164.765625 469.472656 L 164.292969 471.949219 L 163.46875 474.453125 L 163.367188 474.710938 L 162.199219 477.101562 L 160.746094 479.421875 L 159.070312 481.617188 L 157.257812 483.660156 L 155.394531 485.578125 L 153.511719 487.4375 L 151.546875 489.183594 L 149.449219 490.664062 L 147.238281 491.734375 L 144.957031 492.289062 Z M 143.890625 492.351562 "/>
<path style=" stroke:none;fill-rule:nonzero;fill:rgb(95.686275%,95.686275%,95.686275%);fill-opacity:1;" d="M 400.730469 472.402344 L 398.488281 471.636719 L 396.28125 470.523438 L 394.15625 469.117188 L 392.132812 467.496094 L 390.230469 465.738281 L 388.398438 463.929688 L 386.609375 462.089844 L 384.941406 460.164062 L 383.523438 458.121094 L 382.453125 455.980469 L 381.820312 453.773438 L 381.667969 452.027344 L 381.953125 449.65625 L 382.777344 447.328125 L 384.070312 445.085938 L 385.710938 442.964844 L 387.566406 440.96875 L 389.5 439.03125 L 391.492188 437.082031 L 393.605469 435.128906 L 395.84375 433.214844 L 398.179688 431.402344 L 400.5625 429.746094 L 400.730469 429.636719 L 403.324219 428.078125 L 405.867188 426.777344 L 408.300781 425.730469 L 410.585938 424.914062 L 412.746094 424.246094 L 414.890625 423.628906 L 417.132812 423.144531 L 419.503906 422.910156 L 421.96875 423.019531 L 424.464844 423.523438 L 424.949219 423.667969 L 427.363281 424.632812 L 429.703125 425.957031 L 431.910156 427.558594 L 433.960938 429.339844 L 435.882812 431.203125 L 437.75 433.097656 L 439.492188 435.078125 L 440.957031 437.191406 L 441.996094 439.417969 L 442.507812 441.714844 L 442.550781 442.582031 L 442.269531 444.824219 L 441.464844 447.019531 L 440.210938 449.128906 L 438.625 451.117188 L 436.851562 452.988281 L 435.019531 454.820312 L 433.101562 456.683594 L 431.046875 458.582031 L 428.84375 460.484375 L 426.539062 462.328125 L 424.949219 463.515625 L 422.496094 465.203125 L 420.058594 466.726562 L 417.703125 468.0625 L 415.464844 469.21875 L 413.335938 470.246094 L 411.230469 471.222656 L 409.027344 472.070312 L 406.679688 472.652344 L 404.207031 472.855469 L 401.667969 472.613281 Z M 400.730469 472.402344 "/>
<path style=" stroke:none;fill-rule:nonzero;fill:rgb(95.686275%,95.686275%,95.686275%);fill-opacity:1;" d="M 413.617188 559.460938 L 411.484375 559.210938 L 409.382812 558.476562 L 407.363281 557.332031 L 405.449219 555.867188 L 403.644531 554.207031 L 401.898438 552.46875 L 400.191406 550.683594 L 398.609375 548.792969 L 397.253906 546.78125 L 396.210938 544.675781 L 395.550781 542.515625 L 395.453125 541.972656 L 395.332031 539.585938 L 395.695312 537.238281 L 396.480469 534.988281 L 397.570312 532.867188 L 398.832031 530.859375 L 400.136719 528.867188 L 401.511719 526.785156 L 402.988281 524.574219 L 404.546875 522.257812 L 406.152344 519.898438 L 406.574219 519.28125 L 408.136719 517.027344 L 409.675781 514.824219 L 411.160156 512.730469 L 412.5625 510.769531 L 413.886719 508.925781 L 415.1875 507.125 L 416.566406 505.246094 L 418.089844 503.242188 L 419.773438 501.109375 L 421.601562 498.894531 L 422.871094 497.402344 L 424.832031 495.175781 L 426.839844 492.980469 L 428.84375 490.859375 L 430.796875 488.847656 L 432.683594 486.945312 L 434.539062 485.097656 L 436.460938 483.328125 L 438.5 481.78125 L 440.660156 480.589844 L 442.898438 479.863281 L 444.8125 479.664062 L 446.980469 479.917969 L 449.113281 480.65625 L 451.167969 481.8125 L 453.117188 483.289062 L 454.953125 484.96875 L 456.726562 486.730469 L 458.464844 488.535156 L 460.089844 490.433594 L 461.5 492.433594 L 462.601562 494.515625 L 463.332031 496.636719 L 463.496094 497.402344 L 463.648438 499.769531 L 463.292969 502.078125 L 462.507812 504.265625 L 461.402344 506.304688 L 460.128906 508.226562 L 458.808594 510.140625 L 457.40625 512.164062 L 455.890625 514.339844 L 454.269531 516.644531 L 452.585938 519.015625 L 452.394531 519.28125 L 450.804688 521.507812 L 449.214844 523.710938 L 447.667969 525.835938 L 446.195312 527.855469 L 444.789062 529.769531 L 443.417969 531.632812 L 441.984375 533.558594 L 440.425781 535.59375 L 438.722656 537.742188 L 436.898438 539.964844 L 435.1875 541.972656 L 433.1875 544.238281 L 431.164062 546.453125 L 429.164062 548.574219 L 427.230469 550.5625 L 425.375 552.433594 L 423.546875 554.25 L 421.65625 555.980469 L 419.644531 557.484375 L 417.515625 558.628906 L 415.308594 559.304688 Z M 413.617188 559.460938 "/>
<path style=" stroke:none;fill-rule:nonzero;fill:rgb(95.686275%,95.686275%,95.686275%);fill-opacity:1;" d="M 177.980469 433.714844 L 175.738281 433.433594 L 173.539062 432.628906 L 171.429688 431.375 L 169.441406 429.789062 L 167.570312 428.015625 L 165.734375 426.183594 L 163.855469 424.289062 L 161.898438 422.300781 L 159.890625 420.230469 L 157.878906 418.121094 L 156.539062 416.695312 L 154.476562 414.464844 L 152.546875 412.328125 L 150.78125 410.335938 L 149.1875 408.5 L 147.710938 406.78125 L 146.292969 405.054688 L 145.054688 403.199219 L 144.15625 401.183594 L 143.722656 399.03125 L 143.789062 397.078125 L 144.300781 395.066406 L 145.222656 393.050781 L 146.503906 391.078125 L 148.042969 389.1875 L 149.738281 387.382812 L 151.488281 385.628906 L 153.285156 383.929688 L 155.191406 382.410156 L 157.207031 381.1875 L 159.308594 380.367188 L 161.457031 380.023438 L 161.820312 380.019531 L 164.066406 380.296875 L 166.269531 381.105469 L 168.382812 382.359375 L 170.375 383.945312 L 172.25 385.722656 L 174.085938 387.558594 L 175.972656 389.453125 L 177.929688 391.445312 L 179.9375 393.519531 L 181.945312 395.625 L 183.304688 397.078125 L 185.359375 399.3125 L 187.285156 401.449219 L 189.046875 403.449219 L 190.632812 405.285156 L 192.097656 407.003906 L 193.507812 408.734375 L 194.734375 410.589844 L 195.625 412.609375 L 196.042969 414.761719 L 195.972656 416.695312 L 195.460938 418.707031 L 194.535156 420.71875 L 193.257812 422.6875 L 191.71875 424.574219 L 190.027344 426.378906 L 188.277344 428.128906 L 186.480469 429.824219 L 184.578125 431.339844 L 182.5625 432.558594 L 180.464844 433.371094 L 178.320312 433.707031 Z M 177.980469 433.714844 "/>
<path style=" stroke:none;fill-rule:nonzero;fill:rgb(95.686275%,95.686275%,95.686275%);fill-opacity:1;" d="M 370.941406 630.855469 L 368.546875 629.917969 L 366.21875 628.609375 L 364.011719 627.011719 L 361.949219 625.226562 L 360.019531 623.351562 L 358.136719 621.445312 L 356.378906 619.453125 L 354.898438 617.328125 L 353.839844 615.085938 L 353.3125 612.777344 L 353.265625 611.847656 L 353.550781 609.582031 L 354.363281 607.359375 L 355.632812 605.230469 L 357.238281 603.222656 L 359.03125 601.332031 L 360.882812 599.480469 L 362.816406 597.613281 L 364.886719 595.730469 L 367.09375 593.890625 L 369.398438 592.148438 L 370.941406 591.085938 L 373.433594 589.542969 L 375.894531 588.21875 L 378.261719 587.121094 L 380.5 586.230469 L 382.621094 585.472656 L 384.738281 584.769531 L 386.964844 584.207031 L 389.320312 583.914062 L 391.78125 583.992188 L 394.277344 584.488281 L 394.511719 584.558594 L 396.910156 585.492188 L 399.238281 586.796875 L 401.453125 588.390625 L 403.519531 590.179688 L 405.457031 592.0625 L 407.34375 593.96875 L 409.109375 595.96875 L 410.597656 598.097656 L 411.664062 600.34375 L 412.203125 602.65625 L 412.257812 603.636719 L 411.972656 605.90625 L 411.15625 608.132812 L 409.886719 610.273438 L 408.277344 612.285156 L 406.480469 614.183594 L 404.625 616.039062 L 402.6875 617.910156 L 400.613281 619.792969 L 398.40625 621.636719 L 396.101562 623.375 L 394.511719 624.46875 L 392.015625 626.003906 L 389.546875 627.316406 L 387.175781 628.398438 L 384.9375 629.273438 L 382.8125 630.011719 L 380.695312 630.699219 L 378.46875 631.246094 L 376.109375 631.519531 L 373.652344 631.429688 L 371.160156 630.921875 Z M 370.941406 630.855469 "/>
<path style="fill:none;stroke-width:0.75;stroke-linecap:round;stroke-linejoin:round;stroke:rgb(66.27451%,66.27451%,66.27451%);stroke-opacity:1;stroke-miterlimit:10;" d="M 273.613281 389.328125 L 285.46875 385.253906 "/>
<path style="fill:none;stroke-width:0.75;stroke-linecap:round;stroke-linejoin:round;stroke:rgb(66.27451%,66.27451%,66.27451%);stroke-opacity:1;stroke-miterlimit:10;" d="M 567.34375 477.171875 L 561.875 455.738281 "/>
<path style="fill:none;stroke-width:0.75;stroke-linecap:round;stroke-linejoin:round;stroke:rgb(66.27451%,66.27451%,66.27451%);stroke-opacity:1;stroke-miterlimit:10;" d="M 155 241.527344 L 159.765625 224.011719 "/>
<path style="fill:none;stroke-width:0.75;stroke-linecap:round;stroke-linejoin:round;stroke:rgb(66.27451%,66.27451%,66.27451%);stroke-opacity:1;stroke-miterlimit:10;" d="M 156.175781 246.78125 L 165.691406 257.945312 "/>
<path style="fill:none;stroke-width:0.75;stroke-linecap:round;stroke-linejoin:round;stroke:rgb(66.27451%,66.27451%,66.27451%);stroke-opacity:1;stroke-miterlimit:10;" d="M 174.109375 289.296875 L 174.320312 278.667969 "/>
<path style="fill:none;stroke-width:0.75;stroke-linecap:round;stroke-linejoin:round;stroke:rgb(66.27451%,66.27451%,66.27451%);stroke-opacity:1;stroke-miterlimit:10;" d="M 171.78125 310.019531 L 168.359375 326.734375 "/>
<path style="fill:none;stroke-width:0.75;stroke-linecap:round;stroke-linejoin:round;stroke:rgb(66.27451%,66.27451%,66.27451%);stroke-opacity:1;stroke-miterlimit:10;" d="M 200.3125 259.148438 L 184.890625 264.628906 "/>
<path style="fill:none;stroke-width:0.75;stroke-linecap:round;stroke-linejoin:round;stroke:rgb(66.27451%,66.27451%,66.27451%);stroke-opacity:1;stroke-miterlimit:10;" d="M 564.027344 452.539062 L 589.875 449.007812 "/>
<path style="fill:none;stroke-width:0.75;stroke-linecap:round;stroke-linejoin:round;stroke:rgb(66.27451%,66.27451%,66.27451%);stroke-opacity:1;stroke-miterlimit:10;" d="M 558.320312 453.496094 L 532.851562 458.574219 "/>
<path style="fill:none;stroke-width:0.75;stroke-linecap:round;stroke-linejoin:round;stroke:rgb(66.27451%,66.27451%,66.27451%);stroke-opacity:1;stroke-miterlimit:10;" d="M 560.777344 450.058594 L 558.34375 431.660156 "/>
<path style="fill:none;stroke-width:0.75;stroke-linecap:round;stroke-linejoin:round;stroke:rgb(66.27451%,66.27451%,66.27451%);stroke-opacity:1;stroke-miterlimit:10;" d="M 458.554688 227.277344 L 458.214844 214.183594 "/>
<path style="fill:none;stroke-width:0.75;stroke-linecap:round;stroke-linejoin:round;stroke:rgb(66.27451%,66.27451%,66.27451%);stroke-opacity:1;stroke-miterlimit:10;" d="M 594.976562 449.386719 L 615.070312 455.25 "/>
<path style="fill:none;stroke-width:0.75;stroke-linecap:round;stroke-linejoin:round;stroke:rgb(66.27451%,66.27451%,66.27451%);stroke-opacity:1;stroke-miterlimit:10;" d="M 628.53125 395.839844 L 632.828125 377.972656 "/>
<path style="fill:none;stroke-width:0.75;stroke-linecap:round;stroke-linejoin:round;stroke:rgb(66.27451%,66.27451%,66.27451%);stroke-opacity:1;stroke-miterlimit:10;" d="M 250.855469 510.65625 L 227.355469 508.566406 "/>
<path style="fill:none;stroke-width:0.75;stroke-linecap:round;stroke-linejoin:round;stroke:rgb(66.27451%,66.27451%,66.27451%);stroke-opacity:1;stroke-miterlimit:10;" d="M 198.875 511.8125 L 222.183594 508.683594 "/>
<path style="fill:none;stroke-width:0.75;stroke-linecap:round;stroke-linejoin:round;stroke:rgb(66.27451%,66.27451%,66.27451%);stroke-opacity:1;stroke-miterlimit:10;" d="M 607.492188 235.640625 L 612.597656 254.890625 "/>
<path style="fill:none;stroke-width:0.75;stroke-linecap:round;stroke-linejoin:round;stroke:rgb(66.27451%,66.27451%,66.27451%);stroke-opacity:1;stroke-miterlimit:10;" d="M 311.398438 599.746094 L 296.789062 592.324219 "/>
<path style="fill:none;stroke-width:0.75;stroke-linecap:round;stroke-linejoin:round;stroke:rgb(66.27451%,66.27451%,66.27451%);stroke-opacity:1;stroke-miterlimit:10;" d="M 616.933594 326.65625 L 629.3125 311.925781 "/>
<path style="fill:none;stroke-width:0.75;stroke-linecap:round;stroke-linejoin:round;stroke:rgb(66.27451%,66.27451%,66.27451%);stroke-opacity:1;stroke-miterlimit:10;" d="M 268.332031 143.394531 L 253.417969 129.492188 "/>
<path style="fill:none;stroke-width:0.75;stroke-linecap:round;stroke-linejoin:round;stroke:rgb(66.27451%,66.27451%,66.27451%);stroke-opacity:1;stroke-miterlimit:10;" d="M 271.265625 147.535156 L 279.0625 165.3125 "/>
<path style="fill:none;stroke-width:0.75;stroke-linecap:round;stroke-linejoin:round;stroke:rgb(66.27451%,66.27451%,66.27451%);stroke-opacity:1;stroke-miterlimit:10;" d="M 538.988281 353.617188 L 523.777344 365.921875 "/>
<path style="fill:none;stroke-width:0.75;stroke-linecap:round;stroke-linejoin:round;stroke:rgb(66.27451%,66.27451%,66.27451%);stroke-opacity:1;stroke-miterlimit:10;" d="M 248.613281 219.003906 L 237.882812 205.601562 "/>
<path style="fill:none;stroke-width:0.75;stroke-linecap:round;stroke-linejoin:round;stroke:rgb(66.27451%,66.27451%,66.27451%);stroke-opacity:1;stroke-miterlimit:10;" d="M 572.546875 293.542969 L 555.996094 300.464844 "/>
<path style="fill:none;stroke-width:0.75;stroke-linecap:round;stroke-linejoin:round;stroke:rgb(66.27451%,66.27451%,66.27451%);stroke-opacity:1;stroke-miterlimit:10;" d="M 556.25 166.195312 L 540.222656 157.09375 "/>
<path style="fill:none;stroke-width:0.75;stroke-linecap:round;stroke-linejoin:round;stroke:rgb(66.27451%,66.27451%,66.27451%);stroke-opacity:1;stroke-miterlimit:10;" d="M 141.480469 345.15625 L 121.699219 335.214844 "/>
<path style="fill:none;stroke-width:0.75;stroke-linecap:round;stroke-linejoin:round;stroke:rgb(66.27451%,66.27451%,66.27451%);stroke-opacity:1;stroke-miterlimit:10;" d="M 146.308594 344.785156 L 165.507812 331.117188 "/>
<path style="fill:none;stroke-width:0.75;stroke-linecap:round;stroke-linejoin:round;stroke:rgb(66.27451%,66.27451%,66.27451%);stroke-opacity:1;stroke-miterlimit:10;" d="M 524.546875 208.675781 L 522.355469 206.757812 "/>
<path style="fill:none;stroke-width:0.75;stroke-linecap:round;stroke-linejoin:round;stroke:rgb(66.27451%,66.27451%,66.27451%);stroke-opacity:1;stroke-miterlimit:10;" d="M 530.148438 228.128906 L 527.949219 232.914062 "/>
<path style="fill:none;stroke-width:0.75;stroke-linecap:round;stroke-linejoin:round;stroke:rgb(66.27451%,66.27451%,66.27451%);stroke-opacity:1;stroke-miterlimit:10;" d="M 545.269531 219.671875 L 553.160156 221.121094 "/>
<path style="fill:none;stroke-width:0.75;stroke-linecap:round;stroke-linejoin:round;stroke:rgb(66.27451%,66.27451%,66.27451%);stroke-opacity:1;stroke-miterlimit:10;" d="M 503.1875 525.167969 L 498.933594 526.402344 "/>
<path style="fill:none;stroke-width:0.75;stroke-linecap:round;stroke-linejoin:round;stroke:rgb(66.27451%,66.27451%,66.27451%);stroke-opacity:1;stroke-miterlimit:10;" d="M 446.855469 592.953125 L 447.375 590.632812 "/>
<path style="fill:none;stroke-width:0.75;stroke-linecap:round;stroke-linejoin:round;stroke:rgb(66.27451%,66.27451%,66.27451%);stroke-opacity:1;stroke-miterlimit:10;" d="M 504.546875 578.449219 L 515.679688 572.917969 "/>
<path style="fill:none;stroke-width:0.75;stroke-linecap:round;stroke-linejoin:round;stroke:rgb(66.27451%,66.27451%,66.27451%);stroke-opacity:1;stroke-miterlimit:10;" d="M 454.683594 128.5625 L 455.710938 130.273438 "/>
<path style="fill:none;stroke-width:0.75;stroke-linecap:round;stroke-linejoin:round;stroke:rgb(66.27451%,66.27451%,66.27451%);stroke-opacity:1;stroke-miterlimit:10;" d="M 438.105469 116.320312 L 433.238281 115.4375 "/>
<path style="fill:none;stroke-width:0.75;stroke-linecap:round;stroke-linejoin:round;stroke:rgb(66.27451%,66.27451%,66.27451%);stroke-opacity:1;stroke-miterlimit:10;" d="M 335.417969 158.324219 L 339.878906 177.933594 "/>
<path style="fill:none;stroke-width:0.75;stroke-linecap:round;stroke-linejoin:round;stroke:rgb(66.27451%,66.27451%,66.27451%);stroke-opacity:1;stroke-miterlimit:10;" d="M 340.113281 552.320312 L 357.035156 561.785156 "/>
<path style="fill:none;stroke-width:0.75;stroke-linecap:round;stroke-linejoin:round;stroke:rgb(66.27451%,66.27451%,66.27451%);stroke-opacity:1;stroke-miterlimit:10;" d="M 138.480469 457.890625 L 143.066406 472.351562 "/>
<path style="fill:none;stroke-width:0.75;stroke-linecap:round;stroke-linejoin:round;stroke:rgb(66.27451%,66.27451%,66.27451%);stroke-opacity:1;stroke-miterlimit:10;" d="M 422.765625 443.523438 L 405.144531 450.316406 "/>
<path style="fill:none;stroke-width:0.75;stroke-linecap:round;stroke-linejoin:round;stroke:rgb(66.27451%,66.27451%,66.27451%);stroke-opacity:1;stroke-miterlimit:10;" d="M 284.277344 585.453125 L 268.8125 576.308594 "/>
<path style="fill:none;stroke-width:0.75;stroke-linecap:round;stroke-linejoin:round;stroke:rgb(66.27451%,66.27451%,66.27451%);stroke-opacity:1;stroke-miterlimit:10;" d="M 263.589844 574.042969 L 250.5625 570.222656 "/>
<path style="fill:none;stroke-width:0.75;stroke-linecap:round;stroke-linejoin:round;stroke:rgb(66.27451%,66.27451%,66.27451%);stroke-opacity:1;stroke-miterlimit:10;" d="M 427.496094 522.113281 L 415.164062 539.835938 "/>
<path style="fill:none;stroke-width:0.75;stroke-linecap:round;stroke-linejoin:round;stroke:rgb(66.27451%,66.27451%,66.27451%);stroke-opacity:1;stroke-miterlimit:10;" d="M 431.644531 516.191406 L 442.929688 500.1875 "/>
<path style="fill:none;stroke-width:0.75;stroke-linecap:round;stroke-linejoin:round;stroke:rgb(66.27451%,66.27451%,66.27451%);stroke-opacity:1;stroke-miterlimit:10;" d="M 213.964844 558.917969 L 225.789062 562.664062 "/>
<path style="fill:none;stroke-width:0.75;stroke-linecap:round;stroke-linejoin:round;stroke:rgb(66.27451%,66.27451%,66.27451%);stroke-opacity:1;stroke-miterlimit:10;" d="M 166.382812 210.039062 L 176.238281 196.210938 "/>
<path style="fill:none;stroke-width:0.75;stroke-linecap:round;stroke-linejoin:round;stroke:rgb(66.27451%,66.27451%,66.27451%);stroke-opacity:1;stroke-miterlimit:10;" d="M 118.355469 330.457031 L 115.738281 308.808594 "/>
<path style="fill:none;stroke-width:0.75;stroke-linecap:round;stroke-linejoin:round;stroke:rgb(66.27451%,66.27451%,66.27451%);stroke-opacity:1;stroke-miterlimit:10;" d="M 163.574219 399.46875 L 176.265625 414.351562 "/>
<path style="fill:none;stroke-width:0.75;stroke-linecap:round;stroke-linejoin:round;stroke:rgb(66.27451%,66.27451%,66.27451%);stroke-opacity:1;stroke-miterlimit:10;" d="M 391.914062 604.585938 L 373.433594 610.929688 "/>
<path style="fill:none;stroke-width:0.75;stroke-linecap:round;stroke-linejoin:round;stroke:rgb(66.27451%,66.27451%,66.27451%);stroke-opacity:1;stroke-miterlimit:10;" d="M 525.441406 460 L 503.363281 464.078125 "/>
<path style=" stroke:none;fill-rule:nonzero;fill:rgb(3.137255%,81.960784%,81.960784%);fill-opacity:1;" d="M 389.355469 203.613281 C 389.355469 207.140625 384.058594 207.140625 384.058594 203.613281 C 384.058594 200.082031 389.355469 200.082031 389.355469 203.613281 "/>
<path style=" stroke:none;fill-rule:nonzero;fill:rgb(3.137255%,81.960784%,81.960784%);fill-opacity:1;" d="M 353.269531 247.464844 C 353.269531 251.199219 347.667969 251.199219 347.667969 247.464844 C 347.667969 243.726562 353.269531 243.726562 353.269531 247.464844 "/>
<path style=" stroke:none;fill-rule:nonzero;fill:rgb(3.137255%,81.960784%,81.960784%);fill-opacity:1;" d="M 220.253906 378.46875 C 220.253906 382.453125 214.28125 382.453125 214.28125 378.46875 C 214.28125 374.488281 220.253906 374.488281 220.253906 378.46875 "/>
<path style=" stroke:none;fill-rule:nonzero;fill:rgb(3.137255%,81.960784%,81.960784%);fill-opacity:1;" d="M 273.757812 390.1875 C 273.757812 393.714844 268.46875 393.714844 268.46875 390.1875 C 268.46875 386.660156 273.757812 386.660156 273.757812 390.1875 "/>
<path style=" stroke:none;fill-rule:nonzero;fill:rgb(3.137255%,81.960784%,81.960784%);fill-opacity:1;" d="M 576.164062 484.027344 C 576.164062 487.933594 573 491.101562 569.09375 491.101562 C 565.183594 491.101562 562.019531 487.933594 562.019531 484.027344 C 562.019531 480.121094 565.183594 476.953125 569.09375 476.953125 C 573 476.953125 576.164062 480.121094 576.164062 484.027344 "/>
<path style=" stroke:none;fill-rule:nonzero;fill:rgb(3.137255%,81.960784%,81.960784%);fill-opacity:1;" d="M 402.34375 389.414062 C 402.34375 396.535156 391.660156 396.535156 391.660156 389.414062 C 391.660156 382.292969 402.34375 382.292969 402.34375 389.414062 "/>
<path style=" stroke:none;fill-rule:nonzero;fill:rgb(3.137255%,81.960784%,81.960784%);fill-opacity:1;" d="M 157.242188 244.464844 C 157.242188 248.523438 151.15625 248.523438 151.15625 244.464844 C 151.15625 240.40625 157.242188 240.40625 157.242188 244.464844 "/>
<path style=" stroke:none;fill-rule:nonzero;fill:rgb(3.137255%,81.960784%,81.960784%);fill-opacity:1;" d="M 403.605469 326.996094 L 424.328125 326.996094 L 424.328125 347.71875 L 403.605469 347.71875 Z M 403.605469 326.996094 "/>
<path style=" stroke:none;fill-rule:nonzero;fill:rgb(3.137255%,81.960784%,81.960784%);fill-opacity:1;" d="M 163.539062 289.296875 L 184.261719 289.296875 L 184.261719 310.019531 L 163.539062 310.019531 Z M 163.539062 289.296875 "/>
<path style=" stroke:none;fill-rule:nonzero;fill:rgb(3.137255%,81.960784%,81.960784%);fill-opacity:1;" d="M 205.519531 258.25 C 205.519531 261.828125 200.15625 261.828125 200.15625 258.25 C 200.15625 254.675781 205.519531 254.675781 205.519531 258.25 "/>
<path style=" stroke:none;fill-rule:nonzero;fill:rgb(3.137255%,81.960784%,81.960784%);fill-opacity:1;" d="M 564.054688 452.929688 C 564.054688 456.792969 558.261719 456.792969 558.261719 452.929688 C 558.261719 449.070312 564.054688 449.070312 564.054688 452.929688 "/>
<path style=" stroke:none;fill-rule:nonzero;fill:rgb(3.137255%,81.960784%,81.960784%);fill-opacity:1;" d="M 448.460938 227.277344 L 469.183594 227.277344 L 469.183594 248 L 448.460938 248 Z M 448.460938 227.277344 "/>
<path style=" stroke:none;fill-rule:nonzero;fill:rgb(3.137255%,81.960784%,81.960784%);fill-opacity:1;" d="M 595.082031 448.652344 C 595.082031 452.140625 589.851562 452.140625 589.851562 448.652344 C 589.851562 445.167969 595.082031 445.167969 595.082031 448.652344 "/>
<path style=" stroke:none;fill-rule:nonzero;fill:rgb(3.137255%,81.960784%,81.960784%);fill-opacity:1;" d="M 631.3125 399.371094 C 631.3125 404.210938 624.050781 404.210938 624.050781 399.371094 C 624.050781 394.527344 631.3125 394.527344 631.3125 399.371094 "/>
<path style=" stroke:none;fill-rule:nonzero;fill:rgb(3.137255%,81.960784%,81.960784%);fill-opacity:1;" d="M 229.636719 431.308594 C 229.636719 434.894531 224.261719 434.894531 224.261719 431.308594 C 224.261719 427.726562 229.636719 427.726562 229.636719 431.308594 "/>
<path style=" stroke:none;fill-rule:nonzero;fill:rgb(3.137255%,81.960784%,81.960784%);fill-opacity:1;" d="M 256.769531 510.917969 C 256.769531 514.867188 250.84375 514.867188 250.84375 510.917969 C 250.84375 506.96875 256.769531 506.96875 256.769531 510.917969 "/>
<path style=" stroke:none;fill-rule:nonzero;fill:rgb(3.137255%,81.960784%,81.960784%);fill-opacity:1;" d="M 281.78125 326.679688 C 281.78125 330.21875 276.46875 330.21875 276.46875 326.679688 C 276.46875 323.136719 281.78125 323.136719 281.78125 326.679688 "/>
<path style=" stroke:none;fill-rule:nonzero;fill:rgb(3.137255%,81.960784%,81.960784%);fill-opacity:1;" d="M 198.902344 512.261719 C 198.902344 516.777344 192.128906 516.777344 192.128906 512.261719 C 192.128906 507.746094 198.902344 507.746094 198.902344 512.261719 "/>
<path style=" stroke:none;fill-rule:nonzero;fill:rgb(3.137255%,81.960784%,81.960784%);fill-opacity:1;" d="M 505.285156 290.855469 C 505.285156 297.957031 494.628906 297.957031 494.628906 290.855469 C 494.628906 283.753906 505.285156 283.753906 505.285156 290.855469 "/>
<path style=" stroke:none;fill-rule:nonzero;fill:rgb(74.901961%,43.921569%,13.333333%);fill-opacity:1;" d="M 333.644531 312.460938 C 333.644531 317.753906 325.703125 317.753906 325.703125 312.460938 C 325.703125 307.167969 333.644531 307.167969 333.644531 312.460938 "/>
<path style=" stroke:none;fill-rule:nonzero;fill:rgb(18.039216%,56.862745%,73.72549%);fill-opacity:1;" d="M 609.640625 232.847656 C 609.640625 236.695312 603.867188 236.695312 603.867188 232.847656 C 603.867188 229 609.640625 229 609.640625 232.847656 "/>
<path style=" stroke:none;fill-rule:nonzero;fill:rgb(18.039216%,35.294118%,73.72549%);fill-opacity:1;" d="M 407.59375 250.792969 C 407.59375 254.269531 402.378906 254.269531 402.378906 250.792969 C 402.378906 247.316406 407.59375 247.316406 407.59375 250.792969 "/>
<path style=" stroke:none;fill-rule:nonzero;fill:rgb(18.039216%,35.294118%,73.72549%);fill-opacity:1;" d="M 316.851562 601.050781 C 316.851562 604.894531 311.085938 604.894531 311.085938 601.050781 C 311.085938 597.207031 316.851562 597.207031 316.851562 601.050781 "/>
<path style=" stroke:none;fill-rule:nonzero;fill:rgb(18.039216%,35.294118%,73.72549%);fill-opacity:1;" d="M 617.90625 328.746094 C 617.90625 332.386719 612.445312 332.386719 612.445312 328.746094 C 612.445312 325.105469 617.90625 325.105469 617.90625 328.746094 "/>
<path style=" stroke:none;fill-rule:nonzero;fill:rgb(18.039216%,35.294118%,73.72549%);fill-opacity:1;" d="M 272.816406 145.164062 C 272.816406 148.617188 267.632812 148.617188 267.632812 145.164062 C 267.632812 141.707031 272.816406 141.707031 272.816406 145.164062 "/>
<path style=" stroke:none;fill-rule:nonzero;fill:rgb(18.039216%,35.294118%,73.72549%);fill-opacity:1;" d="M 544.46875 351.679688 C 544.46875 355.792969 538.300781 355.792969 538.300781 351.679688 C 538.300781 347.566406 544.46875 347.566406 544.46875 351.679688 "/>
<path style=" stroke:none;fill-rule:nonzero;fill:rgb(18.039216%,35.294118%,73.72549%);fill-opacity:1;" d="M 253.796875 280.5625 C 253.796875 284.480469 247.921875 284.480469 247.921875 280.5625 C 247.921875 276.648438 253.796875 276.648438 253.796875 280.5625 "/>
<path style=" stroke:none;fill-rule:nonzero;fill:rgb(18.039216%,35.294118%,73.72549%);fill-opacity:1;" d="M 257.316406 223.183594 C 257.316406 230.324219 246.605469 230.324219 246.605469 223.183594 C 246.605469 216.046875 257.316406 216.046875 257.316406 223.183594 "/>
<path style=" stroke:none;fill-rule:nonzero;fill:rgb(18.039216%,35.294118%,73.72549%);fill-opacity:1;" d="M 579.972656 292.050781 C 579.972656 297.199219 572.25 297.199219 572.25 292.050781 C 572.25 286.90625 579.972656 286.90625 579.972656 292.050781 "/>
<path style=" stroke:none;fill-rule:nonzero;fill:rgb(3.529412%,80.784314%,55.294118%);fill-opacity:1;" d="M 565.050781 168.519531 C 565.050781 174.796875 555.636719 174.796875 555.636719 168.519531 C 555.636719 162.242188 565.050781 162.242188 565.050781 168.519531 "/>
<path style=" stroke:none;fill-rule:nonzero;fill:rgb(3.529412%,44.705882%,39.607843%);fill-opacity:1;" d="M 146.835938 346.425781 C 146.835938 350.199219 141.175781 350.199219 141.175781 346.425781 C 141.175781 342.65625 146.835938 342.65625 146.835938 346.425781 "/>
<path style=" stroke:none;fill-rule:nonzero;fill:rgb(3.529412%,44.705882%,39.607843%);fill-opacity:1;" d="M 524.546875 207.40625 L 545.269531 207.40625 L 545.269531 228.128906 L 524.546875 228.128906 Z M 524.546875 207.40625 "/>
<path style=" stroke:none;fill-rule:nonzero;fill:rgb(3.529412%,44.705882%,39.607843%);fill-opacity:1;" d="M 503.1875 511.804688 L 523.910156 511.804688 L 523.910156 532.527344 L 503.1875 532.527344 Z M 503.1875 511.804688 "/>
<path style=" stroke:none;fill-rule:nonzero;fill:rgb(3.529412%,44.705882%,39.607843%);fill-opacity:1;" d="M 434.1875 592.953125 L 454.910156 592.953125 L 454.910156 613.675781 L 434.1875 613.675781 Z M 434.1875 592.953125 "/>
<path style=" stroke:none;fill-rule:nonzero;fill:rgb(67.058824%,33.72549%,84.705882%);fill-opacity:1;" d="M 504.824219 579.636719 C 504.824219 583.1875 499.496094 583.1875 499.496094 579.636719 C 499.496094 576.082031 504.824219 576.082031 504.824219 579.636719 "/>
<path style=" stroke:none;fill-rule:nonzero;fill:rgb(67.058824%,33.72549%,84.705882%);fill-opacity:1;" d="M 438.105469 107.839844 L 458.828125 107.839844 L 458.828125 128.5625 L 438.105469 128.5625 Z M 438.105469 107.839844 "/>
<path style=" stroke:none;fill-rule:nonzero;fill:rgb(67.058824%,33.72549%,84.705882%);fill-opacity:1;" d="M 501.632812 187.304688 L 522.355469 187.304688 L 522.355469 208.027344 L 501.632812 208.027344 Z M 501.632812 187.304688 "/>
<path style=" stroke:none;fill-rule:nonzero;fill:rgb(3.921569%,62.745098%,12.156863%);fill-opacity:1;" d="M 512.828125 232.914062 L 533.550781 232.914062 L 533.550781 253.636719 L 512.828125 253.636719 Z M 512.828125 232.914062 "/>
<path style=" stroke:none;fill-rule:nonzero;fill:rgb(3.921569%,62.745098%,12.156863%);fill-opacity:1;" d="M 352.054688 419.382812 C 352.054688 422.925781 346.742188 422.925781 346.742188 419.382812 C 346.742188 415.839844 352.054688 415.839844 352.054688 419.382812 "/>
<path style=" stroke:none;fill-rule:nonzero;fill:rgb(3.921569%,62.745098%,12.156863%);fill-opacity:1;" d="M 387.675781 145.304688 C 387.675781 150.65625 379.644531 150.65625 379.644531 145.304688 C 379.644531 139.949219 387.675781 139.949219 387.675781 145.304688 "/>
<path style=" stroke:none;fill-rule:nonzero;fill:rgb(3.921569%,62.745098%,12.156863%);fill-opacity:1;" d="M 123.53125 400.3125 C 123.53125 404.613281 120.042969 408.101562 115.738281 408.101562 C 111.4375 408.101562 107.949219 404.613281 107.949219 400.3125 C 107.949219 396.011719 111.4375 392.523438 115.738281 392.523438 C 120.042969 392.523438 123.53125 396.011719 123.53125 400.3125 "/>
<path style=" stroke:none;fill-rule:nonzero;fill:rgb(3.921569%,62.745098%,12.156863%);fill-opacity:1;" d="M 337.453125 155.773438 C 337.453125 159.261719 332.21875 159.261719 332.21875 155.773438 C 332.21875 152.285156 337.453125 152.285156 337.453125 155.773438 "/>
<path style=" stroke:none;fill-rule:nonzero;fill:rgb(3.921569%,62.745098%,12.156863%);fill-opacity:1;" d="M 455.476562 380.835938 C 455.476562 385.15625 449 385.15625 449 380.835938 C 449 376.519531 455.476562 376.519531 455.476562 380.835938 "/>
<path style=" stroke:none;fill-rule:nonzero;fill:rgb(3.921569%,62.745098%,12.156863%);fill-opacity:1;" d="M 212.628906 157.714844 C 212.628906 161.601562 206.800781 161.601562 206.800781 157.714844 C 206.800781 153.828125 212.628906 153.828125 212.628906 157.714844 "/>
<path style=" stroke:none;fill-rule:nonzero;fill:rgb(3.921569%,62.745098%,12.156863%);fill-opacity:1;" d="M 340.472656 550.9375 C 340.472656 554.714844 334.808594 554.714844 334.808594 550.9375 C 334.808594 547.160156 340.472656 547.160156 340.472656 550.9375 "/>
<path style=" stroke:none;fill-rule:nonzero;fill:rgb(3.921569%,62.745098%,12.156863%);fill-opacity:1;" d="M 143.769531 450.660156 C 143.769531 454.851562 140.375 458.246094 136.1875 458.246094 C 132 458.246094 128.605469 454.851562 128.605469 450.660156 C 128.605469 446.472656 132 443.078125 136.1875 443.078125 C 140.375 443.078125 143.769531 446.472656 143.769531 450.660156 "/>
<path style=" stroke:none;fill-rule:nonzero;fill:rgb(3.921569%,62.745098%,12.156863%);fill-opacity:1;" d="M 373.101562 505.085938 C 373.101562 508.988281 367.25 508.988281 367.25 505.085938 C 367.25 501.183594 373.101562 501.183594 373.101562 505.085938 "/>
<path style=" stroke:none;fill-rule:nonzero;fill:rgb(3.921569%,62.745098%,12.156863%);fill-opacity:1;" d="M 190.484375 469.234375 C 190.484375 472.804688 185.128906 472.804688 185.128906 469.234375 C 185.128906 465.664062 190.484375 465.664062 190.484375 469.234375 "/>
<path style=" stroke:none;fill-rule:nonzero;fill:rgb(3.921569%,62.745098%,12.156863%);fill-opacity:1;" d="M 427.832031 442.582031 C 427.832031 446.078125 422.589844 446.078125 422.589844 442.582031 C 422.589844 439.089844 427.832031 439.089844 427.832031 442.582031 "/>
<path style=" stroke:none;fill-rule:nonzero;fill:rgb(3.921569%,62.745098%,12.156863%);fill-opacity:1;" d="M 297.566406 589.089844 C 297.566406 593.035156 294.367188 596.230469 290.421875 596.230469 C 286.480469 596.230469 283.28125 593.035156 283.28125 589.089844 C 283.28125 585.144531 286.480469 581.949219 290.421875 581.949219 C 294.367188 581.949219 297.566406 585.144531 297.566406 589.089844 "/>
<path style=" stroke:none;fill-rule:nonzero;fill:rgb(3.921569%,62.745098%,12.156863%);fill-opacity:1;" d="M 302.726562 268.921875 C 302.726562 272.738281 297.003906 272.738281 297.003906 268.921875 C 297.003906 265.105469 302.726562 265.105469 302.726562 268.921875 "/>
<path style=" stroke:none;fill-rule:nonzero;fill:rgb(3.921569%,62.745098%,12.156863%);fill-opacity:1;" d="M 269.214844 574.851562 C 269.214844 578.675781 263.476562 578.675781 263.476562 574.851562 C 263.476562 571.023438 269.214844 571.023438 269.214844 574.851562 "/>
<path style=" stroke:none;fill-rule:nonzero;fill:rgb(3.921569%,62.745098%,12.156863%);fill-opacity:1;" d="M 446.628906 291.054688 C 446.628906 294.566406 441.363281 294.566406 441.363281 291.054688 C 441.363281 287.546875 446.628906 287.546875 446.628906 291.054688 "/>
<path style=" stroke:none;fill-rule:nonzero;fill:rgb(3.921569%,62.745098%,12.156863%);fill-opacity:1;" d="M 433.175781 519.148438 C 433.175781 523.96875 425.945312 523.96875 425.945312 519.148438 C 425.945312 514.324219 433.175781 514.324219 433.175781 519.148438 "/>
<path style=" stroke:none;fill-rule:nonzero;fill:rgb(3.921569%,62.745098%,12.156863%);fill-opacity:1;" d="M 357.847656 359.945312 C 357.847656 363.414062 355.035156 366.230469 351.5625 366.230469 C 348.089844 366.230469 345.277344 363.414062 345.277344 359.945312 C 345.277344 356.472656 348.089844 353.660156 351.5625 353.660156 C 355.035156 353.660156 357.847656 356.472656 357.847656 359.945312 "/>
<path style=" stroke:none;fill-rule:nonzero;fill:rgb(3.921569%,62.745098%,12.156863%);fill-opacity:1;" d="M 416.324219 542.054688 C 416.324219 545.664062 410.914062 545.664062 410.914062 542.054688 C 410.914062 538.449219 416.324219 538.449219 416.324219 542.054688 "/>
<path style=" stroke:none;fill-rule:nonzero;fill:rgb(3.921569%,62.745098%,12.156863%);fill-opacity:1;" d="M 214.089844 558.121094 C 214.089844 561.636719 208.816406 561.636719 208.816406 558.121094 C 208.816406 554.605469 214.089844 554.605469 214.089844 558.121094 "/>
<path style=" stroke:none;fill-rule:nonzero;fill:rgb(3.921569%,62.745098%,12.156863%);fill-opacity:1;" d="M 169.679688 216.433594 C 169.679688 220.773438 166.164062 224.289062 161.824219 224.289062 C 157.488281 224.289062 153.972656 220.773438 153.972656 216.433594 C 153.972656 212.097656 157.488281 208.582031 161.824219 208.582031 C 166.164062 208.582031 169.679688 212.097656 169.679688 216.433594 "/>
<path style=" stroke:none;fill-rule:nonzero;fill:rgb(3.921569%,62.745098%,12.156863%);fill-opacity:1;" d="M 122.050781 333.730469 C 122.050781 338.132812 115.449219 338.132812 115.449219 333.730469 C 115.449219 329.332031 122.050781 329.332031 122.050781 333.730469 "/>
<path style=" stroke:none;fill-rule:nonzero;fill:rgb(3.921569%,62.745098%,12.156863%);fill-opacity:1;" d="M 164.519531 397.417969 C 164.519531 401.015625 159.125 401.015625 159.125 397.417969 C 159.125 393.820312 164.519531 393.820312 164.519531 397.417969 "/>
<path style=" stroke:none;fill-rule:nonzero;fill:rgb(3.921569%,62.745098%,12.156863%);fill-opacity:1;" d="M 251.085938 566.578125 C 251.085938 573.730469 245.289062 579.527344 238.136719 579.527344 C 230.980469 579.527344 225.183594 573.730469 225.183594 566.578125 C 225.183594 559.421875 230.980469 553.625 238.136719 553.625 C 245.289062 553.625 251.085938 559.421875 251.085938 566.578125 "/>
<path style=" stroke:none;fill-rule:nonzero;fill:rgb(3.921569%,62.745098%,12.156863%);fill-opacity:1;" d="M 397.601562 603.636719 C 397.601562 607.535156 391.753906 607.535156 391.753906 603.636719 C 391.753906 599.734375 397.601562 599.734375 397.601562 603.636719 "/>
<path style=" stroke:none;fill-rule:nonzero;fill:rgb(3.921569%,62.745098%,12.156863%);fill-opacity:1;" d="M 480.804688 335.203125 C 480.804688 339.554688 474.277344 339.554688 474.277344 335.203125 C 474.277344 330.851562 480.804688 330.851562 480.804688 335.203125 "/>
<path style=" stroke:none;fill-rule:nonzero;fill:rgb(3.921569%,62.745098%,12.156863%);fill-opacity:1;" d="M 227.367188 508.335938 C 227.367188 511.808594 222.160156 511.808594 222.160156 508.335938 C 222.160156 504.867188 227.367188 504.867188 227.367188 508.335938 "/>
<path style=" stroke:none;fill-rule:nonzero;fill:rgb(3.921569%,62.745098%,12.156863%);fill-opacity:1;" d="M 388.304688 93.753906 C 388.304688 98.792969 380.742188 98.792969 380.742188 93.753906 C 380.742188 88.710938 388.304688 88.710938 388.304688 93.753906 "/>
<path style=" stroke:none;fill-rule:nonzero;fill:rgb(3.921569%,62.745098%,12.156863%);fill-opacity:1;" d="M 532.925781 459.3125 C 532.925781 464.34375 525.375 464.34375 525.375 459.3125 C 525.375 454.28125 532.925781 454.28125 532.925781 459.3125 "/>
<path style=" stroke:none;fill-rule:nonzero;fill:rgb(15.294118%,28.627451%,27.058824%);fill-opacity:1;" d="M 540.621094 155.59375 C 540.621094 159.644531 534.542969 159.644531 534.542969 155.59375 C 534.542969 151.542969 540.621094 151.542969 540.621094 155.59375 "/>
<path style=" stroke:none;fill-rule:nonzero;fill:rgb(15.294118%,28.627451%,27.058824%);fill-opacity:1;" d="M 254.160156 127.609375 C 254.160156 131.289062 248.640625 131.289062 248.640625 127.609375 C 248.640625 123.933594 254.160156 123.933594 254.160156 127.609375 "/>
<path style=" stroke:none;fill-rule:nonzero;fill:rgb(15.294118%,28.627451%,27.058824%);fill-opacity:1;" d="M 285.46875 371.328125 L 306.191406 371.328125 L 306.191406 392.050781 L 285.46875 392.050781 Z M 285.46875 371.328125 "/>
<path style=" stroke:none;fill-rule:nonzero;fill:rgb(15.294118%,28.627451%,27.058824%);fill-opacity:1;" d="M 164.164062 257.945312 L 184.886719 257.945312 L 184.886719 278.667969 L 164.164062 278.667969 Z M 164.164062 257.945312 "/>
<path style=" stroke:none;fill-rule:nonzero;fill:rgb(15.294118%,28.627451%,27.058824%);fill-opacity:1;" d="M 460.929688 211.398438 C 460.929688 215.113281 455.355469 215.113281 455.355469 211.398438 C 455.355469 207.683594 460.929688 207.683594 460.929688 211.398438 "/>
<path style=" stroke:none;fill-rule:nonzero;fill:rgb(15.294118%,28.627451%,27.058824%);fill-opacity:1;" d="M 621.332031 456.144531 C 621.332031 460.40625 614.941406 460.40625 614.941406 456.144531 C 614.941406 451.882812 621.332031 451.882812 621.332031 456.144531 "/>
<path style=" stroke:none;fill-rule:nonzero;fill:rgb(30.588235%,22.352941%,47.843137%);fill-opacity:1;" d="M 382.363281 298.058594 C 382.363281 301.890625 376.617188 301.890625 376.617188 298.058594 C 376.617188 294.230469 382.363281 294.230469 382.363281 298.058594 "/>
<path style=" stroke:none;fill-rule:nonzero;fill:rgb(70.196078%,14.901961%,35.686275%);fill-opacity:1;" d="M 306.691406 105.824219 C 306.691406 109.523438 301.148438 109.523438 301.148438 105.824219 C 301.148438 102.128906 306.691406 102.128906 306.691406 105.824219 "/>
<path style=" stroke:none;fill-rule:nonzero;fill:rgb(18.039216%,73.72549%,27.058824%);fill-opacity:1;" d="M 338.523438 475.039062 C 338.523438 478.523438 333.292969 478.523438 333.292969 475.039062 C 333.292969 471.554688 338.523438 471.554688 338.523438 475.039062 "/>
<path style=" stroke:none;fill-rule:nonzero;fill:rgb(18.039216%,73.72549%,27.058824%);fill-opacity:1;" d="M 230.675781 331.878906 C 230.675781 335.476562 225.277344 335.476562 225.277344 331.878906 C 225.277344 328.28125 230.675781 328.28125 230.675781 331.878906 "/>
<path style=" stroke:none;fill-rule:nonzero;fill:rgb(18.039216%,73.72549%,27.058824%);fill-opacity:1;" d="M 615.90625 257.4375 C 615.90625 260.953125 610.636719 260.953125 610.636719 257.4375 C 610.636719 253.925781 615.90625 253.925781 615.90625 257.4375 "/>
<path style=" stroke:none;fill-rule:nonzero;fill:rgb(18.039216%,73.72549%,27.058824%);fill-opacity:1;" d="M 503.960938 129.425781 C 503.960938 133.351562 498.070312 133.351562 498.070312 129.425781 C 498.070312 125.496094 503.960938 125.496094 503.960938 129.425781 "/>
<path style=" stroke:none;fill-rule:nonzero;fill:rgb(18.039216%,73.72549%,27.058824%);fill-opacity:1;" d="M 306.578125 515.160156 C 306.578125 519.089844 300.6875 519.089844 300.6875 515.160156 C 300.6875 511.230469 306.578125 511.230469 306.578125 515.160156 "/>
<path style=" stroke:none;fill-rule:nonzero;fill:rgb(18.039216%,73.72549%,27.058824%);fill-opacity:1;" d="M 633.78125 309.84375 C 633.78125 313.46875 628.34375 313.46875 628.34375 309.84375 C 628.34375 306.21875 633.78125 306.21875 633.78125 309.84375 "/>
<path style=" stroke:none;fill-rule:nonzero;fill:rgb(18.039216%,73.72549%,27.058824%);fill-opacity:1;" d="M 283.925781 168.492188 C 283.925781 173.117188 276.984375 173.117188 276.984375 168.492188 C 276.984375 163.863281 283.925781 163.863281 283.925781 168.492188 "/>
<path style=" stroke:none;fill-rule:nonzero;fill:rgb(18.039216%,73.72549%,27.058824%);fill-opacity:1;" d="M 524.394531 367.667969 C 524.394531 371.367188 518.84375 371.367188 518.84375 367.667969 C 518.84375 363.964844 524.394531 363.964844 524.394531 367.667969 "/>
<path style=" stroke:none;fill-rule:nonzero;fill:rgb(18.039216%,73.72549%,27.058824%);fill-opacity:1;" d="M 429.160156 175.230469 C 429.160156 178.933594 423.601562 178.933594 423.601562 175.230469 C 423.601562 171.523438 429.160156 171.523438 429.160156 175.230469 "/>
<path style=" stroke:none;fill-rule:nonzero;fill:rgb(18.039216%,73.72549%,27.058824%);fill-opacity:1;" d="M 238.980469 203.308594 C 238.980469 207.222656 233.113281 207.222656 233.113281 203.308594 C 233.113281 199.398438 238.980469 199.398438 238.980469 203.308594 "/>
<path style=" stroke:none;fill-rule:nonzero;fill:rgb(18.039216%,73.72549%,27.058824%);fill-opacity:1;" d="M 556.242188 301.6875 C 556.242188 305.925781 549.886719 305.925781 549.886719 301.6875 C 549.886719 297.453125 556.242188 297.453125 556.242188 301.6875 "/>
<path style=" stroke:none;fill-rule:nonzero;fill:rgb(18.039216%,73.72549%,27.058824%);fill-opacity:1;" d="M 170.605469 329.488281 C 170.605469 333.234375 164.984375 333.234375 164.984375 329.488281 C 164.984375 325.742188 170.605469 325.742188 170.605469 329.488281 "/>
<path style=" stroke:none;fill-rule:nonzero;fill:rgb(18.039216%,73.72549%,27.058824%);fill-opacity:1;" d="M 478.207031 519.046875 L 498.929688 519.046875 L 498.929688 539.769531 L 478.207031 539.769531 Z M 478.207031 519.046875 "/>
<path style=" stroke:none;fill-rule:nonzero;fill:rgb(18.039216%,73.72549%,27.058824%);fill-opacity:1;" d="M 439.320312 569.90625 L 460.042969 569.90625 L 460.042969 590.628906 L 439.320312 590.628906 Z M 439.320312 569.90625 "/>
<path style=" stroke:none;fill-rule:nonzero;fill:rgb(18.039216%,73.72549%,27.058824%);fill-opacity:1;" d="M 553.160156 212.660156 L 573.882812 212.660156 L 573.882812 233.382812 L 553.160156 233.382812 Z M 553.160156 212.660156 "/>
<path style=" stroke:none;fill-rule:nonzero;fill:rgb(18.039216%,73.72549%,27.058824%);fill-opacity:1;" d="M 546.609375 410.933594 L 567.332031 410.933594 L 567.332031 431.65625 L 546.609375 431.65625 Z M 546.609375 410.933594 "/>
<path style=" stroke:none;fill-rule:nonzero;fill:rgb(18.039216%,73.72549%,27.058824%);fill-opacity:1;" d="M 515.679688 557.410156 L 536.402344 557.410156 L 536.402344 578.132812 L 515.679688 578.132812 Z M 515.679688 557.410156 "/>
<path style=" stroke:none;fill-rule:nonzero;fill:rgb(18.039216%,73.72549%,27.058824%);fill-opacity:1;" d="M 451.566406 130.273438 L 472.289062 130.273438 L 472.289062 150.996094 L 451.566406 150.996094 Z M 451.566406 130.273438 "/>
<path style=" stroke:none;fill-rule:nonzero;fill:rgb(18.039216%,73.72549%,27.058824%);fill-opacity:1;" d="M 412.515625 103.199219 L 433.238281 103.199219 L 433.238281 123.921875 L 412.515625 123.921875 Z M 412.515625 103.199219 "/>
<path style=" stroke:none;fill-rule:nonzero;fill:rgb(18.039216%,73.72549%,27.058824%);fill-opacity:1;" d="M 560.148438 519.949219 L 580.871094 519.949219 L 580.871094 540.671875 L 560.148438 540.671875 Z M 560.148438 519.949219 "/>
<path style=" stroke:none;fill-rule:nonzero;fill:rgb(18.039216%,73.72549%,27.058824%);fill-opacity:1;" d="M 343.074219 180.484375 C 343.074219 183.972656 337.84375 183.972656 337.84375 180.484375 C 337.84375 176.996094 343.074219 176.996094 343.074219 180.484375 "/>
<path style=" stroke:none;fill-rule:nonzero;fill:rgb(18.039216%,73.72549%,27.058824%);fill-opacity:1;" d="M 361.9375 563.0625 C 361.9375 566.554688 356.703125 566.554688 356.703125 563.0625 C 356.703125 559.574219 361.9375 559.574219 361.9375 563.0625 "/>
<path style=" stroke:none;fill-rule:nonzero;fill:rgb(18.039216%,73.72549%,27.058824%);fill-opacity:1;" d="M 146.605469 474.9375 C 146.605469 478.558594 141.171875 478.558594 141.171875 474.9375 C 141.171875 471.316406 146.605469 471.316406 146.605469 474.9375 "/>
<path style=" stroke:none;fill-rule:nonzero;fill:rgb(18.039216%,73.72549%,27.058824%);fill-opacity:1;" d="M 347.328125 104.664062 C 347.328125 108.203125 342.019531 108.203125 342.019531 104.664062 C 342.019531 101.125 347.328125 101.125 347.328125 104.664062 "/>
<path style=" stroke:none;fill-rule:nonzero;fill:rgb(18.039216%,73.72549%,27.058824%);fill-opacity:1;" d="M 405.464844 452.027344 C 405.464844 458.386719 395.929688 458.386719 395.929688 452.027344 C 395.929688 445.671875 405.464844 445.671875 405.464844 452.027344 "/>
<path style=" stroke:none;fill-rule:nonzero;fill:rgb(18.039216%,73.72549%,27.058824%);fill-opacity:1;" d="M 636.097656 375.398438 C 636.097656 378.929688 630.796875 378.929688 630.796875 375.398438 C 630.796875 371.867188 636.097656 371.867188 636.097656 375.398438 "/>
<path style=" stroke:none;fill-rule:nonzero;fill:rgb(18.039216%,73.72549%,27.058824%);fill-opacity:1;" d="M 485.957031 415.089844 C 485.957031 419.277344 479.679688 419.277344 479.679688 415.089844 C 479.679688 410.902344 485.957031 410.902344 485.957031 415.089844 "/>
<path style=" stroke:none;fill-rule:nonzero;fill:rgb(18.039216%,73.72549%,27.058824%);fill-opacity:1;" d="M 587.921875 370.398438 C 587.921875 374.011719 582.5 374.011719 582.5 370.398438 C 582.5 366.785156 587.921875 366.785156 587.921875 370.398438 "/>
<path style=" stroke:none;fill-rule:nonzero;fill:rgb(18.039216%,73.72549%,27.058824%);fill-opacity:1;" d="M 448.082031 497.515625 C 448.082031 501.875 441.542969 501.875 441.542969 497.515625 C 441.542969 493.15625 448.082031 493.15625 448.082031 497.515625 "/>
<path style=" stroke:none;fill-rule:nonzero;fill:rgb(73.72549%,18.039216%,63.137255%);fill-opacity:1;" d="M 265.578125 462.855469 C 265.578125 465.984375 263.042969 468.519531 259.914062 468.519531 C 256.785156 468.519531 254.246094 465.984375 254.246094 462.855469 C 254.246094 459.726562 256.785156 457.1875 259.914062 457.1875 C 263.042969 457.1875 265.578125 459.726562 265.578125 462.855469 "/>
<path style=" stroke:none;fill-rule:nonzero;fill:rgb(41.568627%,32.156863%,77.647059%);fill-opacity:1;" d="M 180.46875 194.027344 C 180.46875 197.597656 175.117188 197.597656 175.117188 194.027344 C 175.117188 190.460938 180.46875 190.460938 180.46875 194.027344 "/>
<path style=" stroke:none;fill-rule:nonzero;fill:rgb(41.568627%,32.156863%,77.647059%);fill-opacity:1;" d="M 180.621094 416.359375 C 180.621094 419.878906 175.339844 419.878906 175.339844 416.359375 C 175.339844 412.839844 180.621094 412.839844 180.621094 416.359375 "/>
<path style=" stroke:none;fill-rule:nonzero;fill:rgb(41.568627%,32.156863%,77.647059%);fill-opacity:1;" d="M 309.164062 219.414062 C 309.164062 224.1875 302.003906 224.1875 302.003906 219.414062 C 302.003906 214.640625 309.164062 214.640625 309.164062 219.414062 "/>
<path style=" stroke:none;fill-rule:nonzero;fill:rgb(41.568627%,32.156863%,77.647059%);fill-opacity:1;" d="M 118.554688 305.628906 C 118.554688 309.898438 112.152344 309.898438 112.152344 305.628906 C 112.152344 301.363281 118.554688 301.363281 118.554688 305.628906 "/>
<path style=" stroke:none;fill-rule:nonzero;fill:rgb(41.568627%,32.156863%,77.647059%);fill-opacity:1;" d="M 373.585938 611.847656 C 373.585938 615.609375 367.941406 615.609375 367.941406 611.847656 C 367.941406 608.085938 373.585938 608.085938 373.585938 611.847656 "/>
<path style=" stroke:none;fill-rule:nonzero;fill:rgb(67.843137%,55.294118%,55.294118%);fill-opacity:1;" d="M 308.710938 443.074219 C 308.710938 447.679688 304.976562 451.414062 300.371094 451.414062 C 295.769531 451.414062 292.035156 447.679688 292.035156 443.074219 C 292.035156 438.472656 295.769531 434.738281 300.371094 434.738281 C 304.976562 434.738281 308.710938 438.472656 308.710938 443.074219 "/>
<path style=" stroke:none;fill-rule:nonzero;fill:rgb(67.843137%,55.294118%,55.294118%);fill-opacity:1;" d="M 503.40625 464.558594 C 503.40625 468.070312 498.136719 468.070312 498.136719 464.558594 C 498.136719 461.042969 503.40625 461.042969 503.40625 464.558594 "/>
</g>
</svg>
