<?xml version="1.0" encoding="UTF-8"?>
<svg xmlns="http://www.w3.org/2000/svg" xmlns:xlink="http://www.w3.org/1999/xlink" width="720pt" height="720pt" viewBox="0 0 720 720" version="1.1">
<g id="surface3388">
<path style=" stroke:none;fill-rule:nonzero;fill:rgb(95.686275%,95.686275%,95.686275%);fill-opacity:1;" d="M 354.734375 622.410156 L 351.949219 622.160156 L 349.015625 621.570312 L 345.988281 620.675781 L 342.921875 619.519531 L 339.863281 618.171875 L 336.851562 616.691406 L 333.878906 615.152344 L 330.902344 613.589844 L 327.867188 611.964844 L 324.773438 610.25 L 321.648438 608.441406 L 318.542969 606.550781 L 315.507812 604.597656 L 313.015625 602.910156 L 309.972656 600.71875 L 307.140625 598.535156 L 304.550781 596.398438 L 302.222656 594.335938 L 300.132812 592.371094 L 298.21875 590.484375 L 296.359375 588.617188 L 294.480469 586.675781 L 292.589844 584.585938 L 290.714844 582.320312 L 288.890625 579.890625 L 287.171875 577.328125 L 286.167969 575.675781 L 284.597656 572.804688 L 283.21875 569.886719 L 282.03125 566.984375 L 281.03125 564.148438 L 280.191406 561.410156 L 279.445312 558.753906 L 278.730469 556.097656 L 278.113281 553.378906 L 277.675781 550.585938 L 277.480469 547.765625 L 277.582031 544.980469 L 277.96875 542.441406 L 278.738281 539.757812 L 279.839844 537.257812 L 281.214844 534.980469 L 282.785156 532.933594 L 284.472656 531.089844 L 286.199219 529.351562 L 287.976562 527.578125 L 289.890625 525.683594 L 291.980469 523.644531 L 294.230469 521.46875 L 296.613281 519.195312 L 297.527344 518.328125 L 299.855469 516.140625 L 302.21875 513.945312 L 304.566406 511.78125 L 306.859375 509.683594 L 309.074219 507.675781 L 311.21875 505.738281 L 313.359375 503.832031 L 315.601562 502.015625 L 318.003906 500.398438 L 320.570312 499.082031 L 323.273438 498.15625 L 326.070312 497.6875 L 326.625 497.652344 L 329.425781 497.75 L 332.234375 498.300781 L 335.007812 499.246094 L 337.6875 500.519531 L 340.257812 502.023438 L 342.734375 503.65625 L 345.1875 505.328125 L 347.691406 507.050781 L 350.261719 508.863281 L 352.886719 510.761719 L 355.511719 512.730469 L 358.082031 514.726562 L 359.226562 515.640625 L 361.742188 517.710938 L 364.105469 519.746094 L 366.285156 521.703125 L 368.265625 523.558594 L 370.0625 525.308594 L 371.742188 526.980469 L 373.394531 528.683594 L 375.019531 530.636719 L 376.570312 532.996094 L 377.988281 535.839844 L 379.210938 539.195312 L 380.175781 542.914062 L 380.765625 546.1875 L 381.203125 549.691406 L 381.484375 553.382812 L 381.625 557.199219 L 381.640625 561.070312 L 381.554688 564.949219 L 381.398438 568.804688 L 381.210938 572.632812 L 381.007812 576.472656 L 380.753906 580.339844 L 380.421875 584.21875 L 379.988281 588.066406 L 379.441406 591.824219 L 378.773438 595.421875 L 377.988281 598.804688 L 377.574219 600.320312 L 376.375 603.984375 L 375.023438 607.207031 L 373.554688 609.960938 L 372.011719 612.265625 L 370.433594 614.179688 L 368.855469 615.832031 L 367.265625 617.402344 L 365.5625 618.90625 L 363.640625 620.238281 L 361.441406 621.316406 L 358.960938 622.054688 L 356.21875 622.398438 Z M 354.734375 622.410156 "/>
<path style=" stroke:none;fill-rule:nonzero;fill:rgb(95.686275%,95.686275%,95.686275%);fill-opacity:1;" d="M 582.792969 513.765625 L 580.730469 513.527344 L 578.703125 512.84375 L 576.746094 511.769531 L 574.886719 510.386719 L 573.132812 508.804688 L 571.445312 507.132812 L 569.785156 505.398438 L 568.210938 503.453125 L 566.8125 501.203125 L 565.667969 498.617188 L 564.847656 495.703125 L 564.519531 493.703125 L 564.320312 490.84375 L 564.390625 487.820312 L 564.710938 484.691406 L 565.246094 481.519531 L 565.953125 478.363281 L 566.773438 475.246094 L 567.648438 472.167969 L 568.550781 469.074219 L 569.546875 465.898438 L 570.6875 462.636719 L 571.996094 459.316406 L 573.480469 455.980469 L 575.136719 452.695312 L 576.269531 450.644531 L 578.265625 447.382812 L 580.394531 444.285156 L 582.609375 441.386719 L 584.859375 438.710938 L 587.109375 436.257812 L 589.328125 433.980469 L 591.53125 431.777344 L 593.78125 429.636719 L 596.140625 427.664062 L 598.628906 425.976562 L 601.222656 424.683594 L 603.890625 423.867188 L 606.589844 423.582031 L 606.640625 423.582031 L 609.261719 423.839844 L 611.851562 424.601562 L 614.375 425.816406 L 616.800781 427.410156 L 619.109375 429.289062 L 621.308594 431.34375 L 623.449219 433.472656 L 625.546875 435.65625 L 627.503906 437.980469 L 629.210938 440.507812 L 630.566406 443.25 L 631.480469 446.1875 L 631.898438 449.292969 L 631.914062 450.644531 L 631.617188 453.691406 L 630.875 456.808594 L 629.726562 459.957031 L 628.226562 463.085938 L 626.453125 466.152344 L 624.488281 469.140625 L 622.421875 472.058594 L 620.328125 474.960938 L 618.203125 477.894531 L 616.023438 480.867188 L 613.796875 483.859375 L 611.550781 486.828125 L 609.320312 489.722656 L 607.136719 492.488281 L 606.15625 493.703125 L 603.53125 496.886719 L 601.078125 499.746094 L 598.832031 502.253906 L 596.8125 504.410156 L 594.980469 506.285156 L 593.246094 508.023438 L 591.484375 509.699219 L 589.625 511.222656 L 587.652344 512.46875 L 585.59375 513.328125 L 583.484375 513.738281 Z M 582.792969 513.765625 "/>
<path style=" stroke:none;fill-rule:nonzero;fill:rgb(95.686275%,95.686275%,95.686275%);fill-opacity:1;" d="M 553.03125 348.800781 L 550.433594 348.523438 L 547.875 347.714844 L 545.386719 346.433594 L 543.015625 344.765625 L 540.765625 342.832031 L 538.617188 340.75 L 536.5 338.625 L 534.367188 336.382812 L 532.234375 333.933594 L 530.136719 331.246094 L 528.132812 328.328125 L 526.277344 325.214844 L 525.488281 323.738281 L 524.003906 320.617188 L 522.699219 317.410156 L 521.585938 314.167969 L 520.65625 310.957031 L 519.894531 307.820312 L 519.253906 304.761719 L 518.667969 301.753906 L 518.125 298.71875 L 517.699219 295.605469 L 517.460938 292.410156 L 517.472656 289.175781 L 517.773438 285.953125 L 518.382812 282.800781 L 518.621094 281.902344 L 519.644531 278.894531 L 520.964844 276.039062 L 522.539062 273.375 L 524.308594 270.921875 L 526.210938 268.675781 L 528.179688 266.601562 L 530.171875 264.601562 L 532.203125 262.652344 L 534.324219 260.839844 L 536.558594 259.269531 L 538.894531 258.03125 L 541.300781 257.210938 L 543.742188 256.851562 L 544.296875 256.839844 L 546.933594 257.125 L 549.53125 257.957031 L 552.050781 259.277344 L 554.453125 260.984375 L 556.726562 262.960938 L 558.898438 265.078125 L 561.054688 267.234375 L 563.25 269.4375 L 565.496094 271.703125 L 567.761719 274.007812 L 570.003906 276.308594 L 572.167969 278.550781 L 572.738281 279.148438 L 575.085938 281.621094 L 577.230469 283.914062 L 579.140625 285.992188 L 580.816406 287.851562 L 582.320312 289.535156 L 583.765625 291.179688 L 585.160156 292.921875 L 586.429688 294.835938 L 587.488281 296.925781 L 588.261719 299.164062 L 588.519531 300.28125 L 588.800781 302.640625 L 588.761719 305.035156 L 588.441406 307.402344 L 587.902344 309.6875 L 587.230469 311.882812 L 586.515625 314.054688 L 585.679688 316.335938 L 584.609375 318.796875 L 583.25 321.441406 L 581.589844 324.222656 L 580.539062 325.800781 L 578.738281 328.289062 L 576.765625 330.777344 L 574.667969 333.226562 L 572.503906 335.589844 L 570.328125 337.851562 L 568.167969 340.027344 L 565.996094 342.171875 L 563.742188 344.203125 L 561.363281 345.992188 L 558.859375 347.417969 L 556.261719 348.371094 L 553.621094 348.785156 Z M 553.03125 348.800781 "/>
<path style=" stroke:none;fill-rule:nonzero;fill:rgb(95.686275%,95.686275%,95.686275%);fill-opacity:1;" d="M 178.019531 514.585938 L 175.296875 514.28125 L 172.609375 513.390625 L 170.015625 511.992188 L 167.546875 510.183594 L 165.214844 508.109375 L 162.976562 505.90625 L 160.769531 503.667969 L 158.648438 501.347656 L 156.714844 498.933594 L 155.070312 496.453125 L 153.800781 493.949219 L 153.054688 491.804688 L 152.609375 489.089844 L 152.730469 486.503906 L 153.347656 484.09375 L 154.347656 481.878906 L 155.578125 479.832031 L 156.878906 477.832031 L 158.261719 475.753906 L 159.789062 473.554688 L 161.472656 471.25 L 163.296875 468.890625 L 164.34375 467.585938 L 166.28125 465.28125 L 168.261719 463.039062 L 170.230469 460.90625 L 172.148438 458.910156 L 174 457.042969 L 175.824219 455.226562 L 177.714844 453.503906 L 179.730469 452.007812 L 181.855469 450.875 L 184.0625 450.214844 L 185.679688 450.070312 L 187.960938 450.359375 L 190.199219 451.191406 L 192.339844 452.488281 L 194.355469 454.121094 L 196.253906 455.933594 L 198.113281 457.804688 L 199.960938 459.769531 L 201.742188 461.875 L 203.378906 464.117188 L 204.792969 466.449219 L 205.378906 467.585938 L 206.414062 470.070312 L 207.132812 472.523438 L 207.554688 474.886719 L 207.730469 477.113281 L 207.765625 479.230469 L 207.742188 481.355469 L 207.53125 483.632812 L 207 486.128906 L 206.0625 488.824219 L 204.695312 491.664062 L 204.621094 491.804688 L 203.136719 494.238281 L 201.390625 496.699219 L 199.4375 499.132812 L 197.34375 501.496094 L 195.183594 503.769531 L 193.003906 505.96875 L 190.804688 508.128906 L 188.511719 510.167969 L 186.089844 511.949219 L 183.542969 513.339844 L 180.910156 514.242188 L 178.234375 514.585938 Z M 178.019531 514.585938 "/>
<path style=" stroke:none;fill-rule:nonzero;fill:rgb(95.686275%,95.686275%,95.686275%);fill-opacity:1;" d="M 450.804688 380.824219 L 448.535156 380.539062 L 446.3125 379.714844 L 444.179688 378.433594 L 442.175781 376.816406 L 440.285156 375.015625 L 438.4375 373.15625 L 436.589844 371.203125 L 434.792969 369.082031 L 433.109375 366.800781 L 431.613281 364.390625 L 430.898438 363.039062 L 429.769531 360.464844 L 428.917969 357.890625 L 428.339844 355.378906 L 427.988281 352.980469 L 427.777344 350.6875 L 427.621094 348.417969 L 427.578125 346.050781 L 427.757812 343.570312 L 428.230469 341.003906 L 429.03125 338.417969 L 429.324219 337.671875 L 430.519531 335.203125 L 431.996094 332.828125 L 433.675781 330.601562 L 435.484375 328.550781 L 437.339844 326.636719 L 439.210938 324.785156 L 441.167969 323.042969 L 443.25 321.558594 L 445.449219 320.480469 L 447.71875 319.914062 L 448.859375 319.839844 L 451.128906 320.128906 L 453.359375 320.953125 L 455.492188 322.234375 L 457.5 323.851562 L 459.394531 325.65625 L 461.25 327.519531 L 463.097656 329.476562 L 464.898438 331.597656 L 466.582031 333.882812 L 468.078125 336.289062 L 468.808594 337.671875 L 469.933594 340.25 L 470.777344 342.828125 L 471.347656 345.34375 L 471.6875 347.742188 L 471.886719 350.03125 L 472.03125 352.304688 L 472.0625 354.667969 L 471.871094 357.152344 L 471.390625 359.714844 L 470.585938 362.296875 L 470.292969 363.039062 L 469.09375 365.511719 L 467.617188 367.882812 L 465.933594 370.105469 L 464.128906 372.152344 L 462.277344 374.0625 L 460.40625 375.910156 L 458.453125 377.648438 L 456.375 379.125 L 454.175781 380.195312 L 451.910156 380.757812 Z M 450.804688 380.824219 "/>
<path style=" stroke:none;fill-rule:nonzero;fill:rgb(95.686275%,95.686275%,95.686275%);fill-opacity:1;" d="M 282.167969 428.070312 L 279.605469 429 L 277.066406 429.585938 L 274.605469 429.859375 L 272.277344 429.875 L 270.058594 429.746094 L 267.847656 429.5625 L 265.53125 429.25 L 263.085938 428.707031 L 260.554688 427.886719 L 257.996094 426.765625 L 257.761719 426.648438 L 255.355469 425.28125 L 253.03125 423.691406 L 250.832031 421.941406 L 248.789062 420.105469 L 246.882812 418.242188 L 245.03125 416.375 L 243.28125 414.425781 L 241.789062 412.351562 L 240.6875 410.160156 L 240.085938 407.898438 L 239.996094 406.609375 L 240.285156 404.320312 L 241.121094 402.070312 L 242.421875 399.914062 L 244.058594 397.890625 L 245.882812 395.980469 L 247.761719 394.109375 L 249.738281 392.261719 L 251.863281 390.492188 L 254.140625 388.886719 L 256.523438 387.523438 L 257.761719 386.941406 L 260.316406 386 L 262.855469 385.402344 L 265.3125 385.117188 L 267.640625 385.082031 L 269.859375 385.191406 L 272.070312 385.355469 L 274.386719 385.648438 L 276.835938 386.175781 L 279.375 386.984375 L 281.933594 388.097656 L 282.167969 388.214844 L 284.574219 389.574219 L 286.902344 391.160156 L 289.105469 392.910156 L 291.152344 394.75 L 293.070312 396.617188 L 294.925781 398.492188 L 296.683594 400.441406 L 298.1875 402.523438 L 299.296875 404.71875 L 299.910156 406.988281 L 300.007812 408.324219 L 299.71875 410.625 L 298.878906 412.878906 L 297.578125 415.039062 L 295.9375 417.074219 L 294.109375 418.988281 L 292.226562 420.863281 L 290.246094 422.71875 L 288.117188 424.488281 L 285.839844 426.097656 L 283.457031 427.464844 Z M 282.167969 428.070312 "/>
<path style=" stroke:none;fill-rule:nonzero;fill:rgb(95.686275%,95.686275%,95.686275%);fill-opacity:1;" d="M 500.59375 480.207031 L 498.261719 480.375 L 496.023438 480.015625 L 493.925781 479.207031 L 491.992188 478.074219 L 490.179688 476.777344 L 488.367188 475.421875 L 486.429688 473.941406 L 484.332031 472.273438 L 482.101562 470.425781 L 479.910156 468.539062 L 477.75 466.605469 L 475.597656 464.613281 L 473.503906 462.621094 L 471.507812 460.675781 L 469.609375 458.789062 L 467.757812 456.929688 L 465.992188 455.003906 L 464.453125 452.957031 L 463.273438 450.792969 L 462.566406 448.546875 L 462.390625 446.738281 L 462.644531 444.570312 L 463.382812 442.441406 L 464.539062 440.386719 L 466.015625 438.445312 L 467.695312 436.609375 L 469.457031 434.839844 L 471.257812 433.101562 L 473.144531 431.476562 L 475.121094 430.058594 L 477.164062 428.941406 L 479.222656 428.1875 L 479.910156 428.027344 L 482.234375 427.828125 L 484.472656 428.140625 L 486.570312 428.894531 L 488.511719 429.96875 L 490.332031 431.199219 L 492.160156 432.484375 L 494.117188 433.910156 L 496.246094 435.535156 L 498.507812 437.355469 L 500.59375 439.105469 L 502.761719 441.011719 L 504.929688 442.988281 L 507.042969 444.980469 L 509.0625 446.941406 L 510.984375 448.851562 L 512.855469 450.730469 L 514.648438 452.671875 L 516.226562 454.738281 L 517.441406 456.921875 L 518.195312 459.1875 L 518.410156 461.203125 L 518.15625 463.394531 L 517.414062 465.550781 L 516.25 467.628906 L 514.761719 469.597656 L 513.066406 471.457031 L 511.285156 473.25 L 509.46875 475.007812 L 507.566406 476.660156 L 505.578125 478.097656 L 503.527344 479.238281 L 501.457031 480.007812 Z M 500.59375 480.207031 "/>
<path style=" stroke:none;fill-rule:nonzero;fill:rgb(95.686275%,95.686275%,95.686275%);fill-opacity:1;" d="M 188.472656 198.765625 L 186.25 198.199219 L 184.015625 197.207031 L 181.808594 195.847656 L 179.671875 194.199219 L 177.617188 192.355469 L 175.636719 190.414062 L 173.6875 188.441406 L 171.832031 186.394531 L 170.195312 184.230469 L 168.882812 181.957031 L 167.992188 179.597656 L 167.589844 177.199219 L 167.570312 176.53125 L 167.835938 174.109375 L 168.605469 171.71875 L 169.824219 169.402344 L 171.402344 167.195312 L 173.230469 165.105469 L 175.179688 163.109375 L 177.175781 161.117188 L 179.300781 159.046875 L 181.628906 156.855469 L 184.191406 154.546875 L 186.972656 152.152344 L 189.933594 149.707031 L 190.503906 149.253906 L 193.316406 147.046875 L 196.203125 144.859375 L 199.125 142.71875 L 202.027344 140.664062 L 204.867188 138.699219 L 207.632812 136.824219 L 210.351562 135.003906 L 213.082031 133.210938 L 215.863281 131.5 L 218.6875 129.960938 L 221.523438 128.660156 L 224.320312 127.671875 L 227.023438 127.042969 L 228.457031 126.859375 L 231.390625 126.878906 L 234.070312 127.429688 L 236.46875 128.449219 L 238.578125 129.839844 L 240.445312 131.464844 L 242.1875 133.191406 L 243.878906 134.957031 L 245.417969 136.824219 L 246.683594 138.800781 L 247.574219 140.867188 L 248.011719 142.980469 L 248.046875 143.8125 L 247.769531 146.058594 L 246.96875 148.265625 L 245.71875 150.382812 L 244.136719 152.378906 L 242.359375 154.261719 L 238.632812 157.988281 L 236.644531 159.96875 L 234.574219 162.019531 L 232.464844 164.097656 L 230.859375 165.671875 L 228.777344 167.703125 L 226.769531 169.652344 L 224.886719 171.472656 L 223.140625 173.148438 L 221.511719 174.703125 L 219.925781 176.214844 L 218.261719 177.796875 L 216.464844 179.488281 L 214.527344 181.289062 L 212.480469 183.167969 L 211.113281 184.414062 L 208.960938 186.351562 L 206.804688 188.273438 L 204.699219 190.125 L 202.6875 191.882812 L 200.765625 193.546875 L 198.871094 195.167969 L 196.878906 196.667969 L 194.714844 197.875 L 192.382812 198.652344 L 189.914062 198.890625 Z M 188.472656 198.765625 "/>
<path style=" stroke:none;fill-rule:nonzero;fill:rgb(95.686275%,95.686275%,95.686275%);fill-opacity:1;" d="M 187.695312 423.03125 L 185.378906 423.167969 L 183.132812 422.796875 L 181.007812 421.992188 L 179.03125 420.875 L 177.171875 419.59375 L 175.3125 418.265625 L 173.339844 416.808594 L 171.214844 415.179688 L 168.960938 413.371094 L 166.640625 411.414062 L 166.578125 411.363281 L 164.390625 409.4375 L 162.222656 407.457031 L 160.125 405.476562 L 158.132812 403.542969 L 156.246094 401.667969 L 154.410156 399.820312 L 152.660156 397.90625 L 151.136719 395.867188 L 149.980469 393.714844 L 149.296875 391.480469 L 149.140625 389.78125 L 149.394531 387.625 L 150.132812 385.503906 L 151.289062 383.464844 L 152.761719 381.53125 L 154.4375 379.707031 L 156.191406 377.945312 L 157.988281 376.222656 L 159.875 374.625 L 161.863281 373.246094 L 163.921875 372.1875 L 166.007812 371.515625 L 166.578125 371.402344 L 168.894531 371.28125 L 171.144531 371.671875 L 173.265625 372.5 L 175.242188 373.644531 L 177.097656 374.953125 L 178.953125 376.3125 L 180.917969 377.792969 L 183.03125 379.441406 L 185.265625 381.265625 L 187.574219 383.226562 L 187.695312 383.332031 L 189.878906 385.269531 L 192.042969 387.253906 L 194.128906 389.234375 L 196.109375 391.164062 L 197.988281 393.027344 L 199.816406 394.867188 L 201.554688 396.773438 L 203.058594 398.804688 L 204.195312 400.949219 L 204.859375 403.171875 L 205.003906 404.785156 L 204.75 406.929688 L 204.015625 409.039062 L 202.863281 411.066406 L 201.390625 412.988281 L 199.722656 414.800781 L 197.976562 416.550781 L 196.1875 418.265625 L 194.308594 419.855469 L 192.324219 421.21875 L 190.269531 422.269531 L 188.1875 422.9375 Z M 187.695312 423.03125 "/>
<path style=" stroke:none;fill-rule:nonzero;fill:rgb(95.686275%,95.686275%,95.686275%);fill-opacity:1;" d="M 297.429688 196.710938 L 295.136719 196.429688 L 292.890625 195.613281 L 290.730469 194.34375 L 288.695312 192.734375 L 286.777344 190.929688 L 284.90625 189.058594 L 283.011719 187.117188 L 281.089844 185.046875 L 279.183594 182.851562 L 277.351562 180.5625 L 275.964844 178.683594 L 274.339844 176.273438 L 272.902344 173.898438 L 271.671875 171.613281 L 270.632812 169.460938 L 269.730469 167.421875 L 268.867188 165.414062 L 267.96875 163.308594 L 267.019531 161.054688 L 266.027344 158.664062 L 265.011719 156.179688 L 264.539062 155.003906 L 263.511719 152.429688 L 262.519531 149.886719 L 261.582031 147.441406 L 260.707031 145.136719 L 259.886719 142.953125 L 259.101562 140.785156 L 258.4375 138.523438 L 258.03125 136.136719 L 257.972656 133.660156 L 258.324219 131.148438 L 258.480469 130.523438 L 259.265625 128.292969 L 260.375 126.128906 L 261.753906 124.074219 L 263.324219 122.148438 L 265.003906 120.351562 L 266.722656 118.625 L 268.476562 116.949219 L 270.332031 115.425781 L 272.296875 114.175781 L 274.351562 113.304688 L 276.453125 112.882812 L 277.210938 112.851562 L 279.359375 113.109375 L 281.472656 113.851562 L 283.507812 115.015625 L 285.429688 116.496094 L 287.242188 118.171875 L 289 119.925781 L 290.796875 121.785156 L 292.691406 123.921875 L 294.691406 126.421875 L 296.761719 129.300781 L 298.859375 132.535156 L 299.175781 133.046875 L 300.859375 135.914062 L 302.515625 138.949219 L 304.125 142.09375 L 305.667969 145.289062 L 307.136719 148.476562 L 308.527344 151.625 L 309.875 154.738281 L 311.199219 157.851562 L 312.453125 161.011719 L 313.574219 164.207031 L 314.488281 167.410156 L 315.148438 170.554688 L 315.511719 173.589844 L 315.570312 176.019531 L 315.253906 179.191406 L 314.496094 182.058594 L 313.359375 184.582031 L 311.925781 186.773438 L 310.296875 188.683594 L 308.582031 190.429688 L 306.835938 192.125 L 305 193.699219 L 303.058594 195.03125 L 301.023438 196.019531 L 298.925781 196.589844 Z M 297.429688 196.710938 "/>
<path style=" stroke:none;fill-rule:nonzero;fill:rgb(95.686275%,95.686275%,95.686275%);fill-opacity:1;" d="M 479.289062 241.207031 L 477.042969 240.925781 L 474.835938 240.117188 L 472.71875 238.859375 L 470.726562 237.269531 L 468.847656 235.488281 L 467.011719 233.648438 L 465.152344 231.71875 L 463.277344 229.632812 L 461.433594 227.382812 L 459.679688 225.003906 L 458.574219 223.34375 L 457.089844 220.867188 L 455.789062 218.382812 L 454.683594 215.953125 L 453.761719 213.621094 L 452.976562 211.398438 L 452.242188 209.214844 L 451.503906 206.949219 L 450.769531 204.539062 L 450.058594 201.984375 L 449.402344 199.335938 L 448.953125 197.304688 L 448.421875 194.539062 L 447.980469 191.824219 L 447.636719 189.21875 L 447.375 186.769531 L 447.171875 184.453125 L 446.996094 182.171875 L 446.917969 179.8125 L 447.046875 177.335938 L 447.453125 174.777344 L 448.171875 172.199219 L 448.621094 170.992188 L 449.808594 168.496094 L 451.273438 166.105469 L 452.953125 163.867188 L 454.757812 161.808594 L 456.613281 159.894531 L 458.488281 158.039062 L 460.441406 156.296875 L 462.523438 154.8125 L 464.722656 153.730469 L 466.992188 153.15625 L 468.160156 153.078125 L 470.410156 153.359375 L 472.621094 154.171875 L 474.742188 155.433594 L 476.738281 157.03125 L 478.621094 158.8125 L 480.460938 160.65625 L 482.316406 162.59375 L 484.175781 164.691406 L 485.988281 166.957031 L 487.691406 169.355469 L 488.730469 170.992188 L 490.132812 173.496094 L 491.332031 176.011719 L 492.328125 178.476562 L 493.128906 180.839844 L 493.792969 183.097656 L 494.410156 185.316406 L 495.035156 187.617188 L 495.667969 190.058594 L 496.300781 192.640625 L 496.914062 195.308594 L 497.34375 197.304688 L 497.898438 200.074219 L 498.390625 202.789062 L 498.824219 205.378906 L 499.191406 207.808594 L 499.515625 210.101562 L 499.816406 212.359375 L 500.011719 214.699219 L 499.992188 217.15625 L 499.683594 219.699219 L 499.039062 222.265625 L 498.664062 223.34375 L 497.539062 225.828125 L 496.113281 228.214844 L 494.457031 230.449219 L 492.660156 232.507812 L 490.800781 234.421875 L 488.921875 236.28125 L 486.960938 238.027344 L 484.871094 239.507812 L 482.664062 240.578125 L 480.386719 241.140625 Z M 479.289062 241.207031 "/>
<path style=" stroke:none;fill-rule:nonzero;fill:rgb(95.686275%,95.686275%,95.686275%);fill-opacity:1;" d="M 143.238281 262.472656 L 140.175781 261.957031 L 137.339844 261.035156 L 134.761719 259.765625 L 132.457031 258.21875 L 130.394531 256.480469 L 128.503906 254.652344 L 126.664062 252.792969 L 124.914062 250.867188 L 123.367188 248.828125 L 122.121094 246.6875 L 121.273438 244.464844 L 120.882812 242.203125 L 120.859375 241.515625 L 121.144531 239.074219 L 121.96875 236.675781 L 123.261719 234.359375 L 124.917969 232.164062 L 126.804688 230.09375 L 128.785156 228.097656 L 130.804688 226.085938 L 132.902344 224.03125 L 135.082031 221.941406 L 137.308594 219.871094 L 139.53125 217.867188 L 140.488281 217.027344 L 142.871094 214.996094 L 145.132812 213.15625 L 147.230469 211.53125 L 149.144531 210.113281 L 150.921875 208.847656 L 152.671875 207.625 L 154.542969 206.425781 L 156.589844 205.308594 L 158.8125 204.328125 L 161.167969 203.542969 L 161.835938 203.367188 L 164.316406 202.871094 L 166.820312 202.609375 L 169.277344 202.558594 L 171.636719 202.671875 L 173.898438 202.886719 L 176.152344 203.140625 L 178.5 203.515625 L 180.972656 204.101562 L 183.53125 204.953125 L 186.101562 206.082031 L 186.597656 206.332031 L 189.03125 207.730469 L 191.371094 209.339844 L 193.574219 211.097656 L 195.609375 212.933594 L 197.507812 214.785156 L 199.351562 216.640625 L 201.085938 218.578125 L 202.570312 220.640625 L 203.660156 222.820312 L 204.253906 225.070312 L 204.339844 226.328125 L 204.082031 228.488281 L 203.332031 230.613281 L 202.15625 232.65625 L 200.660156 234.585938 L 198.96875 236.40625 L 197.207031 238.175781 L 195.332031 239.980469 L 193.191406 241.871094 L 190.707031 243.847656 L 187.867188 245.867188 L 184.703125 247.890625 L 184.445312 248.046875 L 181.613281 249.683594 L 178.628906 251.273438 L 175.546875 252.800781 L 172.429688 254.246094 L 169.332031 255.605469 L 166.277344 256.886719 L 163.261719 258.128906 L 160.230469 259.339844 L 157.136719 260.453125 L 153.988281 261.390625 L 150.820312 262.089844 L 147.691406 262.492188 L 144.664062 262.566406 Z M 143.238281 262.472656 "/>
<path style=" stroke:none;fill-rule:nonzero;fill:rgb(95.686275%,95.686275%,95.686275%);fill-opacity:1;" d="M 237.828125 582.367188 L 235.402344 582.546875 L 233.011719 582.246094 L 230.707031 581.539062 L 228.535156 580.523438 L 226.476562 579.335938 L 224.4375 578.101562 L 222.308594 576.804688 L 220.050781 575.417969 L 217.6875 573.945312 L 215.28125 572.425781 L 214.53125 571.949219 L 212.210938 570.457031 L 209.957031 568.988281 L 207.8125 567.574219 L 205.808594 566.238281 L 203.929688 564.972656 L 202.089844 563.730469 L 200.175781 562.410156 L 198.140625 560.941406 L 195.984375 559.316406 L 193.753906 557.550781 L 192.339844 556.382812 L 190.101562 554.464844 L 187.90625 552.496094 L 185.796875 550.523438 L 183.8125 548.605469 L 181.9375 546.746094 L 180.113281 544.910156 L 178.382812 543.007812 L 176.878906 540.984375 L 175.746094 538.84375 L 175.085938 536.625 L 174.945312 535.027344 L 175.152344 533.089844 L 175.757812 531.179688 L 176.71875 529.328125 L 177.964844 527.558594 L 179.410156 525.882812 L 180.964844 524.28125 L 182.554688 522.710938 L 184.269531 521.230469 L 186.207031 519.953125 L 188.421875 518.976562 L 190.914062 518.382812 L 193.667969 518.238281 L 194.859375 518.316406 L 197.589844 518.757812 L 200.464844 519.566406 L 203.429688 520.703125 L 206.433594 522.113281 L 209.425781 523.730469 L 212.375 525.480469 L 215.28125 527.292969 L 218.191406 529.125 L 221.144531 531.003906 L 224.140625 532.949219 L 227.148438 534.953125 L 230.113281 536.988281 L 232.984375 539.027344 L 235.480469 540.863281 L 238.613281 543.28125 L 241.449219 545.589844 L 243.945312 547.753906 L 246.113281 549.746094 L 248.011719 551.585938 L 249.773438 553.347656 L 251.480469 555.144531 L 253.023438 557.039062 L 254.277344 559.050781 L 255.140625 561.148438 L 255.535156 563.292969 L 255.554688 563.90625 L 255.304688 566.050781 L 254.574219 568.160156 L 253.429688 570.191406 L 251.964844 572.117188 L 250.300781 573.929688 L 248.558594 575.683594 L 246.769531 577.398438 L 244.875 579.003906 L 242.855469 580.398438 L 240.734375 581.492188 L 238.550781 582.21875 Z M 237.828125 582.367188 "/>
<path style=" stroke:none;fill-rule:nonzero;fill:rgb(95.686275%,95.686275%,95.686275%);fill-opacity:1;" d="M 244.167969 524.675781 L 241.824219 524.375 L 239.523438 523.507812 L 237.328125 522.160156 L 235.261719 520.472656 L 233.3125 518.601562 L 231.410156 516.675781 L 229.574219 514.660156 L 227.921875 512.519531 L 226.566406 510.269531 L 225.597656 507.964844 L 225.359375 507.15625 L 224.984375 504.75 L 225.082031 502.402344 L 225.59375 500.175781 L 226.402344 498.101562 L 227.363281 496.140625 L 228.382812 494.175781 L 229.539062 492.082031 L 230.898438 489.84375 L 232.472656 487.488281 L 234.03125 485.351562 L 235.796875 483.117188 L 237.664062 480.914062 L 239.574219 478.792969 L 241.480469 476.792969 L 243.347656 474.898438 L 245.203125 473.058594 L 247.128906 471.308594 L 249.175781 469.796875 L 251.34375 468.660156 L 253.582031 468.007812 L 255.136719 467.875 L 257.480469 468.175781 L 259.773438 469.042969 L 261.96875 470.386719 L 264.027344 472.074219 L 265.972656 473.945312 L 267.875 475.867188 L 269.707031 477.878906 L 271.355469 480.019531 L 272.707031 482.269531 L 273.675781 484.574219 L 273.902344 485.351562 L 274.28125 487.757812 L 274.191406 490.105469 L 273.691406 492.328125 L 272.890625 494.40625 L 271.9375 496.367188 L 270.929688 498.335938 L 269.78125 500.429688 L 268.429688 502.671875 L 266.863281 505.03125 L 265.320312 507.15625 L 263.558594 509.394531 L 261.695312 511.597656 L 259.78125 513.722656 L 257.871094 515.726562 L 256 517.621094 L 254.144531 519.46875 L 252.21875 521.21875 L 250.164062 522.734375 L 247.996094 523.878906 L 245.753906 524.539062 Z M 244.167969 524.675781 "/>
<path style=" stroke:none;fill-rule:nonzero;fill:rgb(95.686275%,95.686275%,95.686275%);fill-opacity:1;" d="M 216.988281 374.003906 L 214.484375 374.488281 L 212.027344 374.527344 L 209.671875 374.171875 L 207.457031 373.523438 L 205.359375 372.714844 L 203.269531 371.847656 L 201.078125 370.863281 L 198.75 369.683594 L 196.316406 368.289062 L 193.839844 366.683594 L 193.484375 366.441406 L 191.160156 364.734375 L 188.886719 362.902344 L 186.722656 361.011719 L 184.691406 359.109375 L 182.785156 357.234375 L 180.933594 355.375 L 179.171875 353.445312 L 177.644531 351.390625 L 176.488281 349.222656 L 175.808594 346.972656 L 175.65625 345.296875 L 175.953125 342.960938 L 176.808594 340.667969 L 178.140625 338.472656 L 179.816406 336.414062 L 181.679688 334.46875 L 183.59375 332.566406 L 185.605469 330.71875 L 187.757812 329.019531 L 190.046875 327.578125 L 192.414062 326.480469 L 193.484375 326.117188 L 195.972656 325.597656 L 198.425781 325.503906 L 200.78125 325.789062 L 203 326.363281 L 205.105469 327.09375 L 207.203125 327.878906 L 209.410156 328.789062 L 211.761719 329.90625 L 214.222656 331.257812 L 216.730469 332.835938 L 216.988281 333.007812 L 219.324219 334.683594 L 221.609375 336.5 L 223.796875 338.394531 L 225.851562 340.308594 L 227.789062 342.207031 L 229.664062 344.089844 L 231.457031 346.042969 L 233.027344 348.113281 L 234.230469 350.304688 L 234.960938 352.582031 L 235.15625 354.488281 L 234.855469 356.855469 L 233.996094 359.179688 L 232.65625 361.402344 L 230.96875 363.496094 L 229.085938 365.46875 L 227.148438 367.398438 L 225.121094 369.269531 L 222.957031 370.992188 L 220.664062 372.457031 L 218.289062 373.570312 Z M 216.988281 374.003906 "/>
<path style=" stroke:none;fill-rule:nonzero;fill:rgb(95.686275%,95.686275%,95.686275%);fill-opacity:1;" d="M 419.535156 176.609375 L 417.277344 176.328125 L 415.058594 175.519531 L 412.925781 174.257812 L 410.921875 172.664062 L 409.03125 170.878906 L 407.179688 169.03125 L 405.289062 167.125 L 403.324219 165.132812 L 401.316406 163.0625 L 399.3125 160.960938 L 397.875 159.4375 L 395.8125 157.203125 L 393.890625 155.074219 L 392.140625 153.097656 L 390.578125 151.289062 L 389.132812 149.597656 L 387.746094 147.890625 L 386.554688 146.050781 L 385.71875 144.039062 L 385.363281 141.886719 L 385.46875 140.15625 L 386 138.160156 L 386.941406 136.160156 L 388.234375 134.195312 L 389.777344 132.304688 L 391.476562 130.496094 L 393.234375 128.738281 L 395.035156 127.039062 L 396.941406 125.507812 L 398.960938 124.277344 L 401.066406 123.449219 L 403.214844 123.097656 L 403.621094 123.089844 L 405.875 123.371094 L 408.082031 124.179688 L 410.203125 125.4375 L 412.199219 127.027344 L 414.082031 128.804688 L 415.921875 130.644531 L 417.808594 132.542969 L 419.769531 134.53125 L 421.78125 136.597656 L 423.792969 138.691406 L 425.175781 140.15625 L 427.246094 142.375 L 429.183594 144.496094 L 430.953125 146.464844 L 432.542969 148.269531 L 434.011719 149.953125 L 435.425781 151.65625 L 436.644531 153.492188 L 437.507812 155.5 L 437.890625 157.648438 L 437.796875 159.4375 L 437.273438 161.433594 L 436.335938 163.441406 L 435.046875 165.410156 L 433.496094 167.308594 L 431.792969 169.125 L 430.03125 170.890625 L 428.222656 172.601562 L 426.3125 174.140625 L 424.285156 175.386719 L 422.171875 176.230469 L 420.015625 176.597656 Z M 419.535156 176.609375 "/>
<path style=" stroke:none;fill-rule:nonzero;fill:rgb(95.686275%,95.686275%,95.686275%);fill-opacity:1;" d="M 372.453125 340.875 L 370.082031 340.011719 L 367.765625 338.75 L 365.550781 337.171875 L 363.476562 335.382812 L 361.519531 333.484375 L 359.613281 331.558594 L 357.828125 329.542969 L 356.324219 327.394531 L 355.238281 325.125 L 354.6875 322.789062 L 354.628906 321.765625 L 354.910156 319.496094 L 355.714844 317.269531 L 356.976562 315.128906 L 358.570312 313.109375 L 360.363281 311.207031 L 362.21875 309.351562 L 364.140625 307.464844 L 366.1875 305.527344 L 368.359375 303.570312 L 370.613281 301.648438 L 372.453125 300.167969 L 374.867188 298.339844 L 377.242188 296.671875 L 379.515625 295.1875 L 381.648438 293.886719 L 383.671875 292.714844 L 385.675781 291.59375 L 387.785156 290.613281 L 390.046875 289.917969 L 392.445312 289.628906 L 394.917969 289.820312 L 395.574219 289.953125 L 397.761719 290.65625 L 399.929688 291.726562 L 402.035156 293.105469 L 404.042969 294.714844 L 405.945312 296.472656 L 407.777344 298.285156 L 409.570312 300.132812 L 411.234375 302.066406 L 412.644531 304.117188 L 413.695312 306.269531 L 414.304688 308.484375 L 414.4375 310.101562 L 414.152344 312.464844 L 413.332031 314.789062 L 412.046875 317.023438 L 410.410156 319.136719 L 408.5625 321.125 L 406.636719 323.058594 L 404.65625 325.003906 L 402.566406 326.976562 L 400.363281 328.9375 L 398.078125 330.835938 L 395.761719 332.605469 L 395.574219 332.742188 L 393.050781 334.484375 L 390.59375 336 L 388.261719 337.277344 L 386.085938 338.339844 L 384.039062 339.257812 L 382 340.125 L 379.851562 340.84375 L 377.5625 341.28125 L 375.164062 341.332031 L 372.710938 340.945312 Z M 372.453125 340.875 "/>
<path style=" stroke:none;fill-rule:nonzero;fill:rgb(95.686275%,95.686275%,95.686275%);fill-opacity:1;" d="M 162.636719 325.46875 L 160.414062 325.210938 L 158.230469 324.464844 L 156.121094 323.289062 L 154.125 321.78125 L 152.238281 320.066406 L 150.421875 318.261719 L 148.640625 316.425781 L 146.980469 314.507812 L 145.546875 312.511719 L 144.433594 310.464844 L 143.71875 308.410156 L 143.539062 307.480469 L 143.496094 305.199219 L 144.007812 303.027344 L 144.992188 301.003906 L 146.3125 299.148438 L 147.808594 297.421875 L 149.355469 295.695312 L 151.023438 293.855469 L 152.851562 291.863281 L 154.835938 289.734375 L 156.925781 287.519531 L 156.96875 287.472656 L 158.996094 285.359375 L 161.039062 283.25 L 163.054688 281.199219 L 164.992188 279.238281 L 166.855469 277.375 L 168.6875 275.554688 L 170.585938 273.824219 L 172.609375 272.324219 L 174.75 271.195312 L 176.960938 270.539062 L 178.546875 270.402344 L 180.6875 270.65625 L 182.792969 271.394531 L 184.820312 272.546875 L 186.738281 274.019531 L 188.546875 275.691406 L 190.296875 277.433594 L 192.003906 279.21875 L 193.589844 281.089844 L 194.949219 283.046875 L 195.988281 285.058594 L 196.644531 287.082031 L 196.722656 287.472656 L 196.867188 289.734375 L 196.488281 291.90625 L 195.664062 293.9375 L 194.527344 295.808594 L 193.238281 297.5625 L 191.890625 299.335938 L 190.394531 301.246094 L 188.695312 303.335938 L 186.800781 305.574219 L 185.128906 307.480469 L 183.195312 309.621094 L 181.191406 311.769531 L 179.175781 313.882812 L 177.191406 315.910156 L 175.261719 317.851562 L 173.367188 319.742188 L 171.410156 321.558594 L 169.335938 323.164062 L 167.136719 324.417969 L 164.851562 325.214844 Z M 162.636719 325.46875 "/>
<path style=" stroke:none;fill-rule:nonzero;fill:rgb(95.686275%,95.686275%,95.686275%);fill-opacity:1;" d="M 490.265625 582.800781 L 487.578125 582.886719 L 484.953125 582.921875 L 482.449219 582.917969 L 480.105469 582.882812 L 477.902344 582.824219 L 475.730469 582.75 L 473.441406 582.539062 L 470.96875 582.070312 L 468.308594 581.25 L 465.515625 580.046875 L 464.15625 579.335938 L 461.652344 577.824219 L 459.148438 576.0625 L 456.683594 574.097656 L 454.304688 572 L 452.03125 569.84375 L 449.835938 567.667969 L 447.675781 565.476562 L 445.636719 563.191406 L 443.855469 560.78125 L 442.457031 558.242188 L 441.542969 555.617188 L 441.183594 552.953125 L 441.179688 552.648438 L 441.410156 550.292969 L 442.078125 547.957031 L 443.152344 545.683594 L 444.5625 543.492188 L 446.230469 541.40625 L 448.066406 539.414062 L 449.980469 537.484375 L 451.953125 535.566406 L 454.136719 533.664062 L 456.652344 531.8125 L 459.570312 530.0625 L 462.910156 528.460938 L 466.65625 527.054688 L 469.59375 526.179688 L 473.203125 525.328125 L 477.03125 524.644531 L 481.03125 524.125 L 485.140625 523.761719 L 489.304688 523.542969 L 493.476562 523.445312 L 497.617188 523.445312 L 501.71875 523.496094 L 505.808594 523.570312 L 509.921875 523.667969 L 514.050781 523.820312 L 518.171875 524.054688 L 522.238281 524.382812 L 526.1875 524.824219 L 529.964844 525.375 L 533.507812 526.042969 L 535.351562 526.460938 L 539.4375 527.613281 L 542.984375 528.945312 L 545.976562 530.417969 L 548.425781 531.980469 L 550.425781 533.589844 L 552.128906 535.210938 L 553.742188 536.835938 L 555.28125 538.519531 L 556.65625 540.296875 L 557.769531 542.167969 L 558.546875 544.109375 L 558.933594 546.09375 L 558.96875 546.902344 L 558.6875 549.183594 L 557.875 551.425781 L 556.609375 553.574219 L 555.007812 555.601562 L 553.207031 557.515625 L 551.34375 559.378906 L 549.410156 561.269531 L 547.335938 563.1875 L 545.128906 565.097656 L 542.820312 566.945312 L 540.910156 568.351562 L 538.484375 569.992188 L 536.082031 571.449219 L 533.761719 572.714844 L 531.558594 573.796875 L 529.476562 574.742188 L 527.421875 575.640625 L 525.277344 576.542969 L 522.976562 577.441406 L 520.527344 578.304688 L 517.96875 579.101562 L 516.433594 579.527344 L 513.785156 580.175781 L 511.164062 580.714844 L 508.628906 581.140625 L 506.226562 581.464844 L 503.949219 581.722656 L 501.703125 581.957031 L 499.359375 582.1875 L 496.871094 582.40625 L 494.257812 582.59375 L 491.570312 582.746094 Z M 490.265625 582.800781 "/>
<path style=" stroke:none;fill-rule:nonzero;fill:rgb(95.686275%,95.686275%,95.686275%);fill-opacity:1;" d="M 621.691406 418.84375 L 619.570312 418.59375 L 617.484375 417.867188 L 615.472656 416.730469 L 613.570312 415.28125 L 611.777344 413.628906 L 610.042969 411.90625 L 608.339844 410.132812 L 606.738281 408.261719 L 605.320312 406.273438 L 604.179688 404.195312 L 603.378906 402.070312 L 603.222656 401.472656 L 602.890625 399.070312 L 603.019531 396.710938 L 603.550781 394.457031 L 604.378906 392.34375 L 605.363281 390.347656 L 606.402344 388.347656 L 607.566406 386.234375 L 608.921875 383.980469 L 610.484375 381.613281 L 612.234375 379.195312 L 612.265625 379.152344 L 614.046875 376.886719 L 615.925781 374.664062 L 617.847656 372.535156 L 619.753906 370.527344 L 621.621094 368.632812 L 623.472656 366.792969 L 625.394531 365.042969 L 627.441406 363.527344 L 629.601562 362.382812 L 631.84375 361.722656 L 633.449219 361.578125 L 635.585938 361.828125 L 637.691406 362.558594 L 639.71875 363.699219 L 641.636719 365.160156 L 643.449219 366.820312 L 645.199219 368.558594 L 646.917969 370.339844 L 648.535156 372.222656 L 649.964844 374.214844 L 651.117188 376.300781 L 651.929688 378.429688 L 652.117188 379.152344 L 652.425781 381.5625 L 652.265625 383.921875 L 651.695312 386.175781 L 650.824219 388.285156 L 649.789062 390.277344 L 648.707031 392.269531 L 647.5 394.371094 L 646.109375 396.609375 L 644.523438 398.957031 L 642.761719 401.355469 L 642.667969 401.472656 L 640.871094 403.730469 L 638.984375 405.945312 L 637.0625 408.0625 L 635.164062 410.054688 L 633.3125 411.929688 L 631.472656 413.757812 L 629.5625 415.484375 L 627.53125 416.976562 L 625.382812 418.089844 L 623.160156 418.722656 Z M 621.691406 418.84375 "/>
<path style=" stroke:none;fill-rule:nonzero;fill:rgb(95.686275%,95.686275%,95.686275%);fill-opacity:1;" d="M 542.644531 200.949219 L 540.488281 200.695312 L 538.367188 199.957031 L 536.324219 198.796875 L 534.394531 197.320312 L 532.570312 195.640625 L 530.808594 193.886719 L 528.992188 192.046875 L 527.03125 189.984375 L 524.886719 187.628906 L 522.574219 184.96875 L 520.132812 182.035156 L 519.5 181.253906 L 517.394531 178.605469 L 515.257812 175.835938 L 513.117188 172.996094 L 511.015625 170.136719 L 508.96875 167.304688 L 506.992188 164.519531 L 505.054688 161.777344 L 503.140625 159.023438 L 501.3125 156.222656 L 499.644531 153.378906 L 498.21875 150.523438 L 497.101562 147.707031 L 496.351562 144.988281 L 496.082031 143.355469 L 495.992188 140.621094 L 496.378906 138.109375 L 497.195312 135.84375 L 498.363281 133.832031 L 499.78125 132.050781 L 501.335938 130.421875 L 502.929688 128.84375 L 504.582031 127.34375 L 506.328125 126.007812 L 508.164062 124.9375 L 510.066406 124.199219 L 512.007812 123.851562 L 512.652344 123.828125 L 514.886719 124.105469 L 517.082031 124.910156 L 519.1875 126.15625 L 521.171875 127.734375 L 523.042969 129.503906 L 524.875 131.332031 L 526.757812 133.222656 L 528.726562 135.210938 L 530.761719 137.289062 L 532.820312 139.410156 L 534.289062 140.9375 L 536.308594 143.058594 L 538.234375 145.109375 L 540.03125 147.042969 L 541.679688 148.839844 L 543.210938 150.515625 L 544.703125 152.160156 L 546.234375 153.886719 L 547.820312 155.75 L 549.445312 157.753906 L 551.054688 159.859375 L 551.941406 161.070312 L 553.535156 163.371094 L 555.027344 165.667969 L 556.386719 167.890625 L 557.609375 170.007812 L 558.730469 172.023438 L 559.808594 174.042969 L 560.730469 176.175781 L 561.351562 178.449219 L 561.558594 180.832031 L 561.292969 183.265625 L 561.277344 183.339844 L 560.609375 185.492188 L 559.578125 187.605469 L 558.238281 189.640625 L 556.675781 191.5625 L 554.984375 193.375 L 553.242188 195.125 L 551.457031 196.824219 L 549.574219 198.367188 L 547.578125 199.628906 L 545.496094 200.503906 L 543.363281 200.921875 Z M 542.644531 200.949219 "/>
<path style=" stroke:none;fill-rule:nonzero;fill:rgb(95.686275%,95.686275%,95.686275%);fill-opacity:1;" d="M 562.199219 255.210938 L 559.613281 256.035156 L 557.035156 256.503906 L 554.527344 256.652344 L 552.140625 256.539062 L 549.867188 256.269531 L 547.613281 255.949219 L 545.265625 255.515625 L 542.800781 254.882812 L 540.246094 254 L 537.679688 252.851562 L 536.941406 252.472656 L 534.5 251.039062 L 532.152344 249.40625 L 529.945312 247.632812 L 527.90625 245.796875 L 526.011719 243.945312 L 524.171875 242.09375 L 522.4375 240.160156 L 520.953125 238.101562 L 519.859375 235.929688 L 519.257812 233.683594 L 519.164062 232.386719 L 519.453125 230.105469 L 520.292969 227.863281 L 521.589844 225.71875 L 523.222656 223.703125 L 525.039062 221.800781 L 526.914062 219.9375 L 528.890625 218.101562 L 531.03125 216.359375 L 533.335938 214.789062 L 535.757812 213.472656 L 536.941406 212.953125 L 539.507812 212.089844 L 542.074219 211.566406 L 544.574219 211.351562 L 546.957031 211.382812 L 549.234375 211.566406 L 551.492188 211.800781 L 553.847656 212.148438 L 556.324219 212.710938 L 558.894531 213.539062 L 561.488281 214.648438 L 562.199219 215.003906 L 564.652344 216.40625 L 567.015625 218.027344 L 569.242188 219.796875 L 571.308594 221.648438 L 573.234375 223.523438 L 575.097656 225.402344 L 576.867188 227.355469 L 578.394531 229.429688 L 579.539062 231.628906 L 580.195312 233.898438 L 580.320312 235.433594 L 580.03125 237.746094 L 579.191406 240.019531 L 577.882812 242.195312 L 576.234375 244.242188 L 574.398438 246.175781 L 572.5 248.0625 L 570.507812 249.921875 L 568.359375 251.6875 L 566.050781 253.273438 L 563.621094 254.597656 Z M 562.199219 255.210938 "/>
<path style=" stroke:none;fill-rule:nonzero;fill:rgb(95.686275%,95.686275%,95.686275%);fill-opacity:1;" d="M 350.085938 172.453125 L 347.644531 172.160156 L 345.242188 171.316406 L 342.929688 169.992188 L 340.746094 168.308594 L 338.683594 166.402344 L 336.6875 164.410156 L 334.703125 162.367188 L 332.761719 160.203125 L 330.929688 157.914062 L 329.285156 155.53125 L 327.890625 153.101562 L 327.714844 152.75 L 326.570312 150.074219 L 325.789062 147.460938 L 325.347656 144.972656 L 325.183594 142.640625 L 325.183594 140.4375 L 325.238281 138.25 L 325.421875 135.957031 L 325.839844 133.535156 L 326.542969 131.027344 L 327.5625 128.492188 L 327.691406 128.214844 L 328.992188 125.8125 L 330.539062 123.492188 L 332.261719 121.296875 L 334.085938 119.261719 L 335.941406 117.359375 L 337.808594 115.507812 L 339.757812 113.769531 L 341.835938 112.292969 L 344.027344 111.214844 L 346.292969 110.644531 L 347.441406 110.570312 L 349.703125 110.851562 L 351.921875 111.671875 L 354.046875 112.945312 L 356.046875 114.554688 L 357.933594 116.347656 L 359.777344 118.199219 L 361.632812 120.136719 L 363.476562 122.226562 L 365.25 124.460938 L 366.882812 126.804688 L 367.757812 128.214844 L 369.121094 130.726562 L 370.238281 133.226562 L 371.113281 135.644531 L 371.777344 137.9375 L 372.300781 140.121094 L 372.773438 142.296875 L 373.097656 144.589844 L 373.144531 147.035156 L 372.820312 149.613281 L 372.078125 152.261719 L 371.898438 152.75 L 370.761719 155.195312 L 369.300781 157.605469 L 367.582031 159.925781 L 365.6875 162.121094 L 363.703125 164.191406 L 361.695312 166.199219 L 359.628906 168.132812 L 357.441406 169.855469 L 355.125 171.222656 L 352.710938 172.117188 L 350.25 172.449219 Z M 350.085938 172.453125 "/>
<path style=" stroke:none;fill-rule:nonzero;fill:rgb(95.686275%,95.686275%,95.686275%);fill-opacity:1;" d="M 592.625 374.320312 L 590.429688 373.601562 L 588.21875 372.433594 L 586.050781 370.898438 L 583.972656 369.109375 L 581.984375 367.183594 L 580.039062 365.222656 L 578.167969 363.195312 L 576.488281 361.074219 L 575.128906 358.886719 L 574.183594 356.6875 L 573.886719 355.578125 L 573.671875 353.3125 L 573.992188 351.160156 L 574.761719 349.167969 L 575.863281 347.355469 L 577.121094 345.664062 L 578.445312 343.949219 L 579.949219 342.066406 L 581.707031 339.953125 L 583.722656 337.621094 L 585.589844 335.535156 L 587.585938 333.363281 L 589.6875 331.128906 L 591.84375 328.886719 L 594 326.683594 L 596.121094 324.542969 L 598.207031 322.457031 L 600.308594 320.40625 L 602.507812 318.496094 L 604.835938 316.859375 L 607.28125 315.625 L 609.800781 314.878906 L 611.914062 314.683594 L 614.355469 314.945312 L 616.761719 315.714844 L 619.097656 316.929688 L 621.328125 318.503906 L 623.4375 320.332031 L 625.453125 322.292969 L 627.433594 324.292969 L 629.320312 326.363281 L 630.996094 328.550781 L 632.34375 330.855469 L 633.273438 333.242188 L 633.714844 335.679688 L 633.746094 336.515625 L 633.460938 339.0625 L 632.625 341.574219 L 631.3125 344 L 629.621094 346.308594 L 627.675781 348.484375 L 625.617188 350.578125 L 623.523438 352.667969 L 621.371094 354.792969 L 619.152344 356.949219 L 616.902344 359.097656 L 614.671875 361.175781 L 612.867188 362.8125 L 610.371094 365.011719 L 608.054688 366.964844 L 605.960938 368.65625 L 604.09375 370.097656 L 602.375 371.382812 L 600.652344 372.605469 L 598.792969 373.636719 L 596.757812 374.328125 L 594.570312 374.550781 Z M 592.625 374.320312 "/>
<path style="fill:none;stroke-width:0.75;stroke-linecap:round;stroke-linejoin:round;stroke:rgb(66.27451%,66.27451%,66.27451%);stroke-opacity:1;stroke-miterlimit:10;" d="M 326.292969 517.039062 L 328.046875 538.371094 "/>
<path style="fill:none;stroke-width:0.75;stroke-linecap:round;stroke-linejoin:round;stroke:rgb(66.27451%,66.27451%,66.27451%);stroke-opacity:1;stroke-miterlimit:10;" d="M 299.496094 541.664062 L 318.539062 546.242188 "/>
<path style="fill:none;stroke-width:0.75;stroke-linecap:round;stroke-linejoin:round;stroke:rgb(66.27451%,66.27451%,66.27451%);stroke-opacity:1;stroke-miterlimit:10;" d="M 357.675781 539.109375 L 339.261719 545.269531 "/>
<path style="fill:none;stroke-width:0.75;stroke-linecap:round;stroke-linejoin:round;stroke:rgb(66.27451%,66.27451%,66.27451%);stroke-opacity:1;stroke-miterlimit:10;" d="M 583.914062 494.011719 L 592.941406 474.777344 "/>
<path style="fill:none;stroke-width:0.75;stroke-linecap:round;stroke-linejoin:round;stroke:rgb(66.27451%,66.27451%,66.27451%);stroke-opacity:1;stroke-miterlimit:10;" d="M 314.722656 570.707031 L 322.214844 559.097656 "/>
<path style="fill:none;stroke-width:0.75;stroke-linecap:round;stroke-linejoin:round;stroke:rgb(66.27451%,66.27451%,66.27451%);stroke-opacity:1;stroke-miterlimit:10;" d="M 350.332031 583.199219 L 356.441406 602.359375 "/>
<path style="fill:none;stroke-width:0.75;stroke-linecap:round;stroke-linejoin:round;stroke:rgb(66.27451%,66.27451%,66.27451%);stroke-opacity:1;stroke-miterlimit:10;" d="M 345.722656 573.683594 L 335.886719 559.097656 "/>
<path style="fill:none;stroke-width:0.75;stroke-linecap:round;stroke-linejoin:round;stroke:rgb(66.27451%,66.27451%,66.27451%);stroke-opacity:1;stroke-miterlimit:10;" d="M 558.074219 309.953125 L 556.417969 315.011719 "/>
<path style="fill:none;stroke-width:0.75;stroke-linecap:round;stroke-linejoin:round;stroke:rgb(66.27451%,66.27451%,66.27451%);stroke-opacity:1;stroke-miterlimit:10;" d="M 552.257812 289.230469 L 553.5 290.628906 "/>
<path style="fill:none;stroke-width:0.75;stroke-linecap:round;stroke-linejoin:round;stroke:rgb(66.27451%,66.27451%,66.27451%);stroke-opacity:1;stroke-miterlimit:10;" d="M 181.359375 480.796875 L 184.878906 469.890625 "/>
<path style="fill:none;stroke-width:0.75;stroke-linecap:round;stroke-linejoin:round;stroke:rgb(66.27451%,66.27451%,66.27451%);stroke-opacity:1;stroke-miterlimit:10;" d="M 449.058594 339.902344 L 450.609375 360.882812 "/>
<path style="fill:none;stroke-width:0.75;stroke-linecap:round;stroke-linejoin:round;stroke:rgb(66.27451%,66.27451%,66.27451%);stroke-opacity:1;stroke-miterlimit:10;" d="M 279.5625 408.125 L 260.246094 406.800781 "/>
<path style="fill:none;stroke-width:0.75;stroke-linecap:round;stroke-linejoin:round;stroke:rgb(66.27451%,66.27451%,66.27451%);stroke-opacity:1;stroke-miterlimit:10;" d="M 497.328125 459.082031 L 482.777344 448.605469 "/>
<path style="fill:none;stroke-width:0.75;stroke-linecap:round;stroke-linejoin:round;stroke:rgb(66.27451%,66.27451%,66.27451%);stroke-opacity:1;stroke-miterlimit:10;" d="M 209.21875 163.601562 L 195.539062 172.339844 "/>
<path style="fill:none;stroke-width:0.75;stroke-linecap:round;stroke-linejoin:round;stroke:rgb(66.27451%,66.27451%,66.27451%);stroke-opacity:1;stroke-miterlimit:10;" d="M 213.417969 160.292969 L 228.441406 145.804688 "/>
<path style="fill:none;stroke-width:0.75;stroke-linecap:round;stroke-linejoin:round;stroke:rgb(66.27451%,66.27451%,66.27451%);stroke-opacity:1;stroke-miterlimit:10;" d="M 169.152344 391.511719 L 185.296875 403.164062 "/>
<path style="fill:none;stroke-width:0.75;stroke-linecap:round;stroke-linejoin:round;stroke:rgb(66.27451%,66.27451%,66.27451%);stroke-opacity:1;stroke-miterlimit:10;" d="M 278.136719 132.707031 L 285.578125 152.695312 "/>
<path style="fill:none;stroke-width:0.75;stroke-linecap:round;stroke-linejoin:round;stroke:rgb(66.27451%,66.27451%,66.27451%);stroke-opacity:1;stroke-miterlimit:10;" d="M 296.003906 175.695312 L 287.589844 157.515625 "/>
<path style="fill:none;stroke-width:0.75;stroke-linecap:round;stroke-linejoin:round;stroke:rgb(66.27451%,66.27451%,66.27451%);stroke-opacity:1;stroke-miterlimit:10;" d="M 474.226562 202.527344 L 478.664062 221.179688 "/>
<path style="fill:none;stroke-width:0.75;stroke-linecap:round;stroke-linejoin:round;stroke:rgb(66.27451%,66.27451%,66.27451%);stroke-opacity:1;stroke-miterlimit:10;" d="M 472.046875 192.105469 L 468.640625 173.15625 "/>
<path style="fill:none;stroke-width:0.75;stroke-linecap:round;stroke-linejoin:round;stroke:rgb(66.27451%,66.27451%,66.27451%);stroke-opacity:1;stroke-miterlimit:10;" d="M 158.171875 227.472656 L 145.9375 237.527344 "/>
<path style="fill:none;stroke-width:0.75;stroke-linecap:round;stroke-linejoin:round;stroke:rgb(66.27451%,66.27451%,66.27451%);stroke-opacity:1;stroke-miterlimit:10;" d="M 165.203125 225.164062 L 184.359375 226.1875 "/>
<path style="fill:none;stroke-width:0.75;stroke-linecap:round;stroke-linejoin:round;stroke:rgb(66.27451%,66.27451%,66.27451%);stroke-opacity:1;stroke-miterlimit:10;" d="M 212.203125 548.507812 L 194.589844 536.546875 "/>
<path style="fill:none;stroke-width:0.75;stroke-linecap:round;stroke-linejoin:round;stroke:rgb(66.27451%,66.27451%,66.27451%);stroke-opacity:1;stroke-miterlimit:10;" d="M 216.605469 551.300781 L 235.421875 562.410156 "/>
<path style="fill:none;stroke-width:0.75;stroke-linecap:round;stroke-linejoin:round;stroke:rgb(66.27451%,66.27451%,66.27451%);stroke-opacity:1;stroke-miterlimit:10;" d="M 253.835938 487.992188 L 245.5 504.453125 "/>
<path style="fill:none;stroke-width:0.75;stroke-linecap:round;stroke-linejoin:round;stroke:rgb(66.27451%,66.27451%,66.27451%);stroke-opacity:1;stroke-miterlimit:10;" d="M 196.234375 346.414062 L 213.726562 353.195312 "/>
<path style="fill:none;stroke-width:0.75;stroke-linecap:round;stroke-linejoin:round;stroke:rgb(66.27451%,66.27451%,66.27451%);stroke-opacity:1;stroke-miterlimit:10;" d="M 417.617188 156.796875 L 405.4375 142.660156 "/>
<path style="fill:none;stroke-width:0.75;stroke-linecap:round;stroke-linejoin:round;stroke:rgb(66.27451%,66.27451%,66.27451%);stroke-opacity:1;stroke-miterlimit:10;" d="M 391.257812 312.226562 L 375.238281 320.332031 "/>
<path style="fill:none;stroke-width:0.75;stroke-linecap:round;stroke-linejoin:round;stroke:rgb(66.27451%,66.27451%,66.27451%);stroke-opacity:1;stroke-miterlimit:10;" d="M 176.851562 289.828125 L 165.191406 303.9375 "/>
<path style="fill:none;stroke-width:0.75;stroke-linecap:round;stroke-linejoin:round;stroke:rgb(66.27451%,66.27451%,66.27451%);stroke-opacity:1;stroke-miterlimit:10;" d="M 492.800781 560.757812 L 513.417969 558.101562 "/>
<path style="fill:none;stroke-width:0.75;stroke-linecap:round;stroke-linejoin:round;stroke:rgb(66.27451%,66.27451%,66.27451%);stroke-opacity:1;stroke-miterlimit:10;" d="M 487.644531 560.261719 L 474.96875 556.074219 "/>
<path style="fill:none;stroke-width:0.75;stroke-linecap:round;stroke-linejoin:round;stroke:rgb(66.27451%,66.27451%,66.27451%);stroke-opacity:1;stroke-miterlimit:10;" d="M 595.855469 469 L 600.480469 460.441406 "/>
<path style="fill:none;stroke-width:0.75;stroke-linecap:round;stroke-linejoin:round;stroke:rgb(66.27451%,66.27451%,66.27451%);stroke-opacity:1;stroke-miterlimit:10;" d="M 632.089844 381.730469 L 622.910156 399.191406 "/>
<path style="fill:none;stroke-width:0.75;stroke-linecap:round;stroke-linejoin:round;stroke:rgb(66.27451%,66.27451%,66.27451%);stroke-opacity:1;stroke-miterlimit:10;" d="M 541.253906 180.792969 L 531.679688 163.074219 "/>
<path style="fill:none;stroke-width:0.75;stroke-linecap:round;stroke-linejoin:round;stroke:rgb(66.27451%,66.27451%,66.27451%);stroke-opacity:1;stroke-miterlimit:10;" d="M 514.453125 143.195312 L 528.632812 158.777344 "/>
<path style="fill:none;stroke-width:0.75;stroke-linecap:round;stroke-linejoin:round;stroke:rgb(66.27451%,66.27451%,66.27451%);stroke-opacity:1;stroke-miterlimit:10;" d="M 539.128906 232.695312 L 559.453125 235.066406 "/>
<path style="fill:none;stroke-width:0.75;stroke-linecap:round;stroke-linejoin:round;stroke:rgb(66.27451%,66.27451%,66.27451%);stroke-opacity:1;stroke-miterlimit:10;" d="M 347.722656 130.542969 L 349.488281 147.082031 "/>
<path style="fill:none;stroke-width:0.75;stroke-linecap:round;stroke-linejoin:round;stroke:rgb(66.27451%,66.27451%,66.27451%);stroke-opacity:1;stroke-miterlimit:10;" d="M 538.074219 548.234375 L 519.636719 556.367188 "/>
<path style="fill:none;stroke-width:0.75;stroke-linecap:round;stroke-linejoin:round;stroke:rgb(66.27451%,66.27451%,66.27451%);stroke-opacity:1;stroke-miterlimit:10;" d="M 595.785156 352.429688 L 605.976562 342.371094 "/>
<path style=" stroke:none;fill-rule:nonzero;fill:rgb(3.137255%,81.960784%,81.960784%);fill-opacity:1;" d="M 328.726562 514.402344 C 328.726562 517.933594 323.429688 517.933594 323.429688 514.402344 C 323.429688 510.871094 328.726562 510.871094 328.726562 514.402344 "/>
<path style=" stroke:none;fill-rule:nonzero;fill:rgb(3.137255%,81.960784%,81.960784%);fill-opacity:1;" d="M 299.574219 541.007812 C 299.574219 544.742188 293.972656 544.742188 293.972656 541.007812 C 293.972656 537.273438 299.574219 537.273438 299.574219 541.007812 "/>
<path style=" stroke:none;fill-rule:nonzero;fill:rgb(3.137255%,81.960784%,81.960784%);fill-opacity:1;" d="M 363.496094 538.164062 C 363.496094 542.144531 357.519531 542.144531 357.519531 538.164062 C 357.519531 534.179688 363.496094 534.179688 363.496094 538.164062 "/>
<path style=" stroke:none;fill-rule:nonzero;fill:rgb(3.137255%,81.960784%,81.960784%);fill-opacity:1;" d="M 585.4375 496.40625 C 585.4375 499.933594 580.144531 499.933594 580.144531 496.40625 C 580.144531 492.878906 585.4375 492.878906 585.4375 496.40625 "/>
<path style=" stroke:none;fill-rule:nonzero;fill:rgb(3.137255%,81.960784%,81.960784%);fill-opacity:1;" d="M 317.964844 576.652344 C 317.964844 580.558594 314.796875 583.726562 310.890625 583.726562 C 306.984375 583.726562 303.816406 580.558594 303.816406 576.652344 C 303.816406 572.746094 306.984375 569.578125 310.890625 569.578125 C 314.796875 569.578125 317.964844 572.746094 317.964844 576.652344 "/>
<path style=" stroke:none;fill-rule:nonzero;fill:rgb(3.137255%,81.960784%,81.960784%);fill-opacity:1;" d="M 354.050781 578.113281 C 354.050781 585.234375 343.367188 585.234375 343.367188 578.113281 C 343.367188 570.992188 354.050781 570.992188 354.050781 578.113281 "/>
<path style=" stroke:none;fill-rule:nonzero;fill:rgb(3.137255%,81.960784%,81.960784%);fill-opacity:1;" d="M 385.921875 252.257812 C 385.921875 256.316406 379.835938 256.316406 379.835938 252.257812 C 379.835938 248.199219 385.921875 248.199219 385.921875 252.257812 "/>
<path style=" stroke:none;fill-rule:nonzero;fill:rgb(3.137255%,81.960784%,81.960784%);fill-opacity:1;" d="M 551.097656 289.230469 L 571.820312 289.230469 L 571.820312 309.953125 L 551.097656 309.953125 Z M 551.097656 289.230469 "/>
<path style=" stroke:none;fill-rule:nonzero;fill:rgb(3.137255%,81.960784%,81.960784%);fill-opacity:1;" d="M 167.65625 480.796875 L 188.378906 480.796875 L 188.378906 501.519531 L 167.65625 501.519531 Z M 167.65625 480.796875 "/>
<path style=" stroke:none;fill-rule:nonzero;fill:rgb(3.137255%,81.960784%,81.960784%);fill-opacity:1;" d="M 451.542969 337.230469 C 451.542969 340.804688 446.175781 340.804688 446.175781 337.230469 C 446.175781 333.652344 451.542969 333.652344 451.542969 337.230469 "/>
<path style=" stroke:none;fill-rule:nonzero;fill:rgb(3.137255%,81.960784%,81.960784%);fill-opacity:1;" d="M 285.347656 408.324219 C 285.347656 412.1875 279.554688 412.1875 279.554688 408.324219 C 279.554688 404.464844 285.347656 404.464844 285.347656 408.324219 "/>
<path style=" stroke:none;fill-rule:nonzero;fill:rgb(3.137255%,81.960784%,81.960784%);fill-opacity:1;" d="M 525.992188 492.582031 L 546.714844 492.582031 L 546.714844 513.304688 L 525.992188 513.304688 Z M 525.992188 492.582031 "/>
<path style=" stroke:none;fill-rule:nonzero;fill:rgb(3.137255%,81.960784%,81.960784%);fill-opacity:1;" d="M 188.292969 467.402344 C 188.292969 470.890625 183.066406 470.890625 183.066406 467.402344 C 183.066406 463.917969 188.292969 463.917969 188.292969 467.402344 "/>
<path style=" stroke:none;fill-rule:nonzero;fill:rgb(3.137255%,81.960784%,81.960784%);fill-opacity:1;" d="M 503.90625 461.203125 C 503.90625 466.042969 496.644531 466.042969 496.644531 461.203125 C 496.644531 456.359375 503.90625 456.359375 503.90625 461.203125 "/>
<path style=" stroke:none;fill-rule:nonzero;fill:rgb(3.137255%,81.960784%,81.960784%);fill-opacity:1;" d="M 214.171875 162.15625 C 214.171875 165.738281 208.796875 165.738281 208.796875 162.15625 C 208.796875 158.574219 214.171875 158.574219 214.171875 162.15625 "/>
<path style=" stroke:none;fill-rule:nonzero;fill:rgb(3.137255%,81.960784%,81.960784%);fill-opacity:1;" d="M 169.710938 389.78125 C 169.710938 393.730469 163.785156 393.730469 163.785156 389.78125 C 163.785156 385.828125 169.710938 385.828125 169.710938 389.78125 "/>
<path style=" stroke:none;fill-rule:nonzero;fill:rgb(3.137255%,81.960784%,81.960784%);fill-opacity:1;" d="M 279.867188 130.21875 C 279.867188 133.761719 274.554688 133.761719 274.554688 130.21875 C 274.554688 126.675781 279.867188 126.675781 279.867188 130.21875 "/>
<path style=" stroke:none;fill-rule:nonzero;fill:rgb(3.137255%,81.960784%,81.960784%);fill-opacity:1;" d="M 300.816406 178.769531 C 300.816406 183.285156 294.042969 183.285156 294.042969 178.769531 C 294.042969 174.253906 300.816406 174.253906 300.816406 178.769531 "/>
<path style=" stroke:none;fill-rule:nonzero;fill:rgb(3.137255%,81.960784%,81.960784%);fill-opacity:1;" d="M 478.320312 197.347656 C 478.320312 204.449219 467.664062 204.449219 467.664062 197.347656 C 467.664062 190.242188 478.320312 190.242188 478.320312 197.347656 "/>
<path style=" stroke:none;fill-rule:nonzero;fill:rgb(74.901961%,43.921569%,13.333333%);fill-opacity:1;" d="M 165.210938 224.953125 C 165.210938 230.246094 157.269531 230.246094 157.269531 224.953125 C 157.269531 219.660156 165.210938 219.660156 165.210938 224.953125 "/>
<path style=" stroke:none;fill-rule:nonzero;fill:rgb(18.039216%,56.862745%,73.72549%);fill-opacity:1;" d="M 306.019531 461.777344 C 306.019531 465.625 300.25 465.625 300.25 461.777344 C 300.25 457.929688 306.019531 457.929688 306.019531 461.777344 "/>
<path style=" stroke:none;fill-rule:nonzero;fill:rgb(18.039216%,35.294118%,73.72549%);fill-opacity:1;" d="M 216.964844 549.972656 C 216.964844 553.449219 211.753906 553.449219 211.753906 549.972656 C 211.753906 546.5 216.964844 546.5 216.964844 549.972656 "/>
<path style=" stroke:none;fill-rule:nonzero;fill:rgb(18.039216%,35.294118%,73.72549%);fill-opacity:1;" d="M 258.019531 485.421875 C 258.019531 489.265625 252.257812 489.265625 252.257812 485.421875 C 252.257812 481.578125 258.019531 481.578125 258.019531 485.421875 "/>
<path style=" stroke:none;fill-rule:nonzero;fill:rgb(18.039216%,35.294118%,73.72549%);fill-opacity:1;" d="M 145.257812 435.425781 C 145.257812 439.066406 139.796875 439.066406 139.796875 435.425781 C 139.796875 431.785156 145.257812 431.785156 145.257812 435.425781 "/>
<path style=" stroke:none;fill-rule:nonzero;fill:rgb(18.039216%,35.294118%,73.72549%);fill-opacity:1;" d="M 421.359375 217.382812 C 421.359375 220.835938 416.179688 220.835938 416.179688 217.382812 C 416.179688 213.929688 421.359375 213.929688 421.359375 217.382812 "/>
<path style=" stroke:none;fill-rule:nonzero;fill:rgb(18.039216%,35.294118%,73.72549%);fill-opacity:1;" d="M 196.441406 345.296875 C 196.441406 349.410156 190.273438 349.410156 190.273438 345.296875 C 190.273438 341.1875 196.441406 341.1875 196.441406 345.296875 "/>
<path style=" stroke:none;fill-rule:nonzero;fill:rgb(18.039216%,35.294118%,73.72549%);fill-opacity:1;" d="M 422.476562 159.019531 C 422.476562 162.9375 416.597656 162.9375 416.597656 159.019531 C 416.597656 155.101562 422.476562 155.101562 422.476562 159.019531 "/>
<path style=" stroke:none;fill-rule:nonzero;fill:rgb(18.039216%,35.294118%,73.72549%);fill-opacity:1;" d="M 319.066406 322.375 C 319.066406 329.515625 308.359375 329.515625 308.359375 322.375 C 308.359375 315.238281 319.066406 315.238281 319.066406 322.375 "/>
<path style=" stroke:none;fill-rule:nonzero;fill:rgb(18.039216%,35.294118%,73.72549%);fill-opacity:1;" d="M 628.472656 295.101562 C 628.472656 300.25 620.75 300.25 620.75 295.101562 C 620.75 289.953125 628.472656 289.953125 628.472656 295.101562 "/>
<path style=" stroke:none;fill-rule:nonzero;fill:rgb(3.529412%,80.784314%,55.294118%);fill-opacity:1;" d="M 400.164062 310.101562 C 400.164062 316.378906 390.75 316.378906 390.75 310.101562 C 390.75 303.824219 400.164062 303.824219 400.164062 310.101562 "/>
<path style=" stroke:none;fill-rule:nonzero;fill:rgb(3.529412%,44.705882%,39.607843%);fill-opacity:1;" d="M 331.195312 218.847656 C 331.195312 222.621094 325.535156 222.621094 325.535156 218.847656 C 325.535156 215.078125 331.195312 215.078125 331.195312 218.847656 "/>
<path style=" stroke:none;fill-rule:nonzero;fill:rgb(3.529412%,44.705882%,39.607843%);fill-opacity:1;" d="M 542.667969 315.011719 L 563.390625 315.011719 L 563.390625 335.734375 L 542.667969 335.734375 Z M 542.667969 315.011719 "/>
<path style=" stroke:none;fill-rule:nonzero;fill:rgb(3.529412%,44.705882%,39.607843%);fill-opacity:1;" d="M 475.640625 269.359375 L 496.363281 269.359375 L 496.363281 290.082031 L 475.640625 290.082031 Z M 475.640625 269.359375 "/>
<path style=" stroke:none;fill-rule:nonzero;fill:rgb(3.529412%,44.705882%,39.607843%);fill-opacity:1;" d="M 559.515625 400.144531 L 580.238281 400.144531 L 580.238281 420.867188 L 559.515625 420.867188 Z M 559.515625 400.144531 "/>
<path style=" stroke:none;fill-rule:nonzero;fill:rgb(67.058824%,33.72549%,84.705882%);fill-opacity:1;" d="M 181.210938 287.773438 C 181.210938 291.324219 175.882812 291.324219 175.882812 287.773438 C 175.882812 284.222656 181.210938 284.222656 181.210938 287.773438 "/>
<path style=" stroke:none;fill-rule:nonzero;fill:rgb(67.058824%,33.72549%,84.705882%);fill-opacity:1;" d="M 230.839844 193.839844 L 251.5625 193.839844 L 251.5625 214.5625 L 230.839844 214.5625 Z M 230.839844 193.839844 "/>
<path style=" stroke:none;fill-rule:nonzero;fill:rgb(67.058824%,33.72549%,84.705882%);fill-opacity:1;" d="M 217.453125 244.0625 L 238.175781 244.0625 L 238.175781 264.785156 L 217.453125 264.785156 Z M 217.453125 244.0625 "/>
<path style=" stroke:none;fill-rule:nonzero;fill:rgb(3.921569%,62.745098%,12.156863%);fill-opacity:1;" d="M 302.148438 89.148438 L 322.871094 89.148438 L 322.871094 109.871094 L 302.148438 109.871094 Z M 302.148438 89.148438 "/>
<path style=" stroke:none;fill-rule:nonzero;fill:rgb(3.921569%,62.745098%,12.156863%);fill-opacity:1;" d="M 492.824219 561.09375 C 492.824219 564.636719 487.511719 564.636719 487.511719 561.09375 C 487.511719 557.554688 492.824219 557.554688 492.824219 561.09375 "/>
<path style=" stroke:none;fill-rule:nonzero;fill:rgb(3.921569%,62.745098%,12.156863%);fill-opacity:1;" d="M 166.652344 307.035156 C 166.652344 312.386719 158.621094 312.386719 158.621094 307.035156 C 158.621094 301.679688 166.652344 301.679688 166.652344 307.035156 "/>
<path style=" stroke:none;fill-rule:nonzero;fill:rgb(3.921569%,62.745098%,12.156863%);fill-opacity:1;" d="M 196.765625 176.53125 C 196.765625 180.835938 193.277344 184.324219 188.972656 184.324219 C 184.671875 184.324219 181.183594 180.835938 181.183594 176.53125 C 181.183594 172.230469 184.671875 168.742188 188.972656 168.742188 C 193.277344 168.742188 196.765625 172.230469 196.765625 176.53125 "/>
<path style=" stroke:none;fill-rule:nonzero;fill:rgb(3.921569%,62.745098%,12.156863%);fill-opacity:1;" d="M 418.484375 570.652344 C 418.484375 574.140625 413.25 574.140625 413.25 570.652344 C 413.25 567.164062 418.484375 567.164062 418.484375 570.652344 "/>
<path style=" stroke:none;fill-rule:nonzero;fill:rgb(3.921569%,62.745098%,12.156863%);fill-opacity:1;" d="M 597.554688 471.847656 C 597.554688 476.164062 591.078125 476.164062 591.078125 471.847656 C 591.078125 467.53125 597.554688 467.53125 597.554688 471.847656 "/>
<path style=" stroke:none;fill-rule:nonzero;fill:rgb(3.921569%,62.745098%,12.156863%);fill-opacity:1;" d="M 636.363281 379.148438 C 636.363281 383.035156 630.535156 383.035156 630.535156 379.148438 C 630.535156 375.265625 636.363281 375.265625 636.363281 379.148438 "/>
<path style=" stroke:none;fill-rule:nonzero;fill:rgb(3.921569%,62.745098%,12.156863%);fill-opacity:1;" d="M 123.109375 365.570312 C 123.109375 369.347656 117.445312 369.347656 117.445312 365.570312 C 117.445312 361.792969 123.109375 361.792969 123.109375 365.570312 "/>
<path style=" stroke:none;fill-rule:nonzero;fill:rgb(3.921569%,62.745098%,12.156863%);fill-opacity:1;" d="M 424.933594 523.800781 C 424.933594 527.988281 421.539062 531.382812 417.351562 531.382812 C 413.164062 531.382812 409.769531 527.988281 409.769531 523.800781 C 409.769531 519.609375 413.164062 516.214844 417.351562 516.214844 C 421.539062 516.214844 424.933594 519.609375 424.933594 523.800781 "/>
<path style=" stroke:none;fill-rule:nonzero;fill:rgb(3.921569%,62.745098%,12.156863%);fill-opacity:1;" d="M 545.570312 183.367188 C 545.570312 187.269531 539.71875 187.269531 539.71875 183.367188 C 539.71875 179.46875 545.570312 179.46875 545.570312 183.367188 "/>
<path style=" stroke:none;fill-rule:nonzero;fill:rgb(3.921569%,62.745098%,12.156863%);fill-opacity:1;" d="M 515.328125 141.214844 C 515.328125 144.785156 509.972656 144.785156 509.972656 141.214844 C 509.972656 137.644531 515.328125 137.644531 515.328125 141.214844 "/>
<path style=" stroke:none;fill-rule:nonzero;fill:rgb(3.921569%,62.745098%,12.156863%);fill-opacity:1;" d="M 503.273438 333.8125 C 503.273438 337.308594 498.03125 337.308594 498.03125 333.8125 C 498.03125 330.320312 503.273438 330.320312 503.273438 333.8125 "/>
<path style=" stroke:none;fill-rule:nonzero;fill:rgb(3.921569%,62.745098%,12.156863%);fill-opacity:1;" d="M 475.023438 117.363281 C 475.023438 121.308594 471.828125 124.503906 467.882812 124.503906 C 463.9375 124.503906 460.742188 121.308594 460.742188 117.363281 C 460.742188 113.417969 463.9375 110.222656 467.882812 110.222656 C 471.828125 110.222656 475.023438 113.417969 475.023438 117.363281 "/>
<path style=" stroke:none;fill-rule:nonzero;fill:rgb(3.921569%,62.745098%,12.156863%);fill-opacity:1;" d="M 360.171875 605.085938 C 360.171875 608.90625 354.449219 608.90625 354.449219 605.085938 C 354.449219 601.269531 360.171875 601.269531 360.171875 605.085938 "/>
<path style=" stroke:none;fill-rule:nonzero;fill:rgb(3.921569%,62.745098%,12.156863%);fill-opacity:1;" d="M 122.6875 285.851562 C 122.6875 289.675781 116.949219 289.675781 116.949219 285.851562 C 116.949219 282.023438 122.6875 282.023438 122.6875 285.851562 "/>
<path style=" stroke:none;fill-rule:nonzero;fill:rgb(3.921569%,62.745098%,12.156863%);fill-opacity:1;" d="M 539.144531 232.386719 C 539.144531 235.898438 533.882812 235.898438 533.882812 232.386719 C 533.882812 228.878906 539.144531 228.878906 539.144531 232.386719 "/>
<path style=" stroke:none;fill-rule:nonzero;fill:rgb(3.921569%,62.745098%,12.156863%);fill-opacity:1;" d="M 281.875 231.617188 C 281.875 236.4375 274.644531 236.4375 274.644531 231.617188 C 274.644531 226.796875 281.875 226.796875 281.875 231.617188 "/>
<path style=" stroke:none;fill-rule:nonzero;fill:rgb(3.921569%,62.745098%,12.156863%);fill-opacity:1;" d="M 147.367188 241.515625 C 147.367188 244.988281 144.550781 247.800781 141.082031 247.800781 C 137.609375 247.800781 134.796875 244.988281 134.796875 241.515625 C 134.796875 238.042969 137.609375 235.230469 141.082031 235.230469 C 144.550781 235.230469 147.367188 238.042969 147.367188 241.515625 "/>
<path style=" stroke:none;fill-rule:nonzero;fill:rgb(3.921569%,62.745098%,12.156863%);fill-opacity:1;" d="M 195.058594 535.027344 C 195.058594 538.632812 189.644531 538.632812 189.644531 535.027344 C 189.644531 531.417969 195.058594 531.417969 195.058594 535.027344 "/>
<path style=" stroke:none;fill-rule:nonzero;fill:rgb(3.921569%,62.745098%,12.156863%);fill-opacity:1;" d="M 350.078125 127.921875 C 350.078125 131.4375 344.804688 131.4375 344.804688 127.921875 C 344.804688 124.40625 350.078125 124.40625 350.078125 127.921875 "/>
<path style=" stroke:none;fill-rule:nonzero;fill:rgb(3.921569%,62.745098%,12.156863%);fill-opacity:1;" d="M 340.828125 269.640625 C 340.828125 273.976562 337.3125 277.492188 332.976562 277.492188 C 328.640625 277.492188 325.125 273.976562 325.125 269.640625 C 325.125 265.304688 328.640625 261.789062 332.976562 261.789062 C 337.3125 261.789062 340.828125 265.304688 340.828125 269.640625 "/>
<path style=" stroke:none;fill-rule:nonzero;fill:rgb(3.921569%,62.745098%,12.156863%);fill-opacity:1;" d="M 544.394531 546.902344 C 544.394531 551.304688 537.792969 551.304688 537.792969 546.902344 C 537.792969 542.503906 544.394531 542.503906 544.394531 546.902344 "/>
<path style=" stroke:none;fill-rule:nonzero;fill:rgb(3.921569%,62.745098%,12.156863%);fill-opacity:1;" d="M 441.226562 270.292969 C 441.226562 273.890625 435.832031 273.890625 435.832031 270.292969 C 435.832031 266.699219 441.226562 266.699219 441.226562 270.292969 "/>
<path style=" stroke:none;fill-rule:nonzero;fill:rgb(3.921569%,62.745098%,12.156863%);fill-opacity:1;" d="M 619.59375 449.046875 C 619.59375 456.199219 613.792969 461.996094 606.640625 461.996094 C 599.488281 461.996094 593.6875 456.199219 593.6875 449.046875 C 593.6875 441.890625 599.488281 436.09375 606.640625 436.09375 C 613.792969 436.09375 619.59375 441.890625 619.59375 449.046875 "/>
<path style=" stroke:none;fill-rule:nonzero;fill:rgb(3.921569%,62.745098%,12.156863%);fill-opacity:1;" d="M 275.886719 598.792969 C 275.886719 602.691406 270.035156 602.691406 270.035156 598.792969 C 270.035156 594.894531 275.886719 594.894531 275.886719 598.792969 "/>
<path style=" stroke:none;fill-rule:nonzero;fill:rgb(3.921569%,62.745098%,12.156863%);fill-opacity:1;" d="M 519.914062 557.683594 C 519.914062 562.035156 513.390625 562.035156 513.390625 557.683594 C 513.390625 553.335938 519.914062 553.335938 519.914062 557.683594 "/>
<path style=" stroke:none;fill-rule:nonzero;fill:rgb(3.921569%,62.745098%,12.156863%);fill-opacity:1;" d="M 432.484375 477.753906 C 432.484375 481.222656 427.277344 481.222656 427.277344 477.753906 C 427.277344 474.28125 432.484375 474.28125 432.484375 477.753906 "/>
<path style=" stroke:none;fill-rule:nonzero;fill:rgb(3.921569%,62.745098%,12.156863%);fill-opacity:1;" d="M 596.875 355.085938 C 596.875 360.125 589.3125 360.125 589.3125 355.085938 C 589.3125 350.042969 596.875 350.042969 596.875 355.085938 "/>
<path style=" stroke:none;fill-rule:nonzero;fill:rgb(3.921569%,62.745098%,12.156863%);fill-opacity:1;" d="M 409.808594 611.847656 C 409.808594 616.878906 402.257812 616.878906 402.257812 611.847656 C 402.257812 606.816406 409.808594 606.816406 409.808594 611.847656 "/>
<path style=" stroke:none;fill-rule:nonzero;fill:rgb(15.294118%,28.627451%,27.058824%);fill-opacity:1;" d="M 121.011719 328.925781 C 121.011719 332.976562 114.9375 332.976562 114.9375 328.925781 C 114.9375 324.875 121.011719 324.875 121.011719 328.925781 "/>
<path style=" stroke:none;fill-rule:nonzero;fill:rgb(15.294118%,28.627451%,27.058824%);fill-opacity:1;" d="M 389.25 380.960938 C 389.25 384.640625 383.730469 384.640625 383.730469 380.960938 C 383.730469 377.285156 389.25 377.285156 389.25 380.960938 "/>
<path style=" stroke:none;fill-rule:nonzero;fill:rgb(15.294118%,28.627451%,27.058824%);fill-opacity:1;" d="M 318.539062 538.371094 L 339.261719 538.371094 L 339.261719 559.09375 L 318.539062 559.09375 Z M 318.539062 538.371094 "/>
<path style=" stroke:none;fill-rule:nonzero;fill:rgb(15.294118%,28.627451%,27.058824%);fill-opacity:1;" d="M 533.9375 269.90625 L 554.660156 269.90625 L 554.660156 290.628906 L 533.9375 290.628906 Z M 533.9375 269.90625 "/>
<path style=" stroke:none;fill-rule:nonzero;fill:rgb(15.294118%,28.627451%,27.058824%);fill-opacity:1;" d="M 260.253906 406.609375 C 260.253906 410.328125 254.679688 410.328125 254.679688 406.609375 C 254.679688 402.894531 260.253906 402.894531 260.253906 406.609375 "/>
<path style=" stroke:none;fill-rule:nonzero;fill:rgb(15.294118%,28.627451%,27.058824%);fill-opacity:1;" d="M 483.378906 446.738281 C 483.378906 451 476.984375 451 476.984375 446.738281 C 476.984375 442.476562 483.378906 442.476562 483.378906 446.738281 "/>
<path style=" stroke:none;fill-rule:nonzero;fill:rgb(30.588235%,22.352941%,47.843137%);fill-opacity:1;" d="M 233.382812 143.8125 C 233.382812 147.640625 227.636719 147.640625 227.636719 143.8125 C 227.636719 139.980469 233.382812 139.980469 233.382812 143.8125 "/>
<path style=" stroke:none;fill-rule:nonzero;fill:rgb(70.196078%,14.901961%,35.686275%);fill-opacity:1;" d="M 190.316406 404.785156 C 190.316406 408.480469 184.773438 408.480469 184.773438 404.785156 C 184.773438 401.089844 190.316406 401.089844 190.316406 404.785156 "/>
<path style=" stroke:none;fill-rule:nonzero;fill:rgb(18.039216%,73.72549%,27.058824%);fill-opacity:1;" d="M 289.105469 155.144531 C 289.105469 158.628906 283.878906 158.628906 283.878906 155.144531 C 283.878906 151.660156 289.105469 151.660156 289.105469 155.144531 "/>
<path style=" stroke:none;fill-rule:nonzero;fill:rgb(18.039216%,73.72549%,27.058824%);fill-opacity:1;" d="M 481.988281 223.804688 C 481.988281 227.402344 476.59375 227.402344 476.59375 223.804688 C 476.59375 220.207031 481.988281 220.207031 481.988281 223.804688 "/>
<path style=" stroke:none;fill-rule:nonzero;fill:rgb(18.039216%,73.72549%,27.058824%);fill-opacity:1;" d="M 189.625 226.328125 C 189.625 229.84375 184.355469 229.84375 184.355469 226.328125 C 184.355469 222.816406 189.625 222.816406 189.625 226.328125 "/>
<path style=" stroke:none;fill-rule:nonzero;fill:rgb(18.039216%,73.72549%,27.058824%);fill-opacity:1;" d="M 240.90625 563.90625 C 240.90625 567.835938 235.011719 567.835938 235.011719 563.90625 C 235.011719 559.980469 240.90625 559.980469 240.90625 563.90625 "/>
<path style=" stroke:none;fill-rule:nonzero;fill:rgb(18.039216%,73.72549%,27.058824%);fill-opacity:1;" d="M 247.113281 507.082031 C 247.113281 511.007812 241.222656 511.007812 241.222656 507.082031 C 241.222656 503.152344 247.113281 503.152344 247.113281 507.082031 "/>
<path style=" stroke:none;fill-rule:nonzero;fill:rgb(18.039216%,73.72549%,27.058824%);fill-opacity:1;" d="M 394.714844 435.324219 C 394.714844 438.949219 389.28125 438.949219 389.28125 435.324219 C 389.28125 431.699219 394.714844 431.699219 394.714844 435.324219 "/>
<path style=" stroke:none;fill-rule:nonzero;fill:rgb(18.039216%,73.72549%,27.058824%);fill-opacity:1;" d="M 377.917969 480.941406 C 377.917969 485.566406 370.976562 485.566406 370.976562 480.941406 C 370.976562 476.3125 377.917969 476.3125 377.917969 480.941406 "/>
<path style=" stroke:none;fill-rule:nonzero;fill:rgb(18.039216%,73.72549%,27.058824%);fill-opacity:1;" d="M 334.210938 374.171875 C 334.210938 377.875 328.660156 377.875 328.660156 374.171875 C 328.660156 370.472656 334.210938 370.472656 334.210938 374.171875 "/>
<path style=" stroke:none;fill-rule:nonzero;fill:rgb(18.039216%,73.72549%,27.058824%);fill-opacity:1;" d="M 406.402344 140.554688 C 406.402344 144.257812 400.84375 144.257812 400.84375 140.554688 C 400.84375 136.847656 406.402344 136.847656 406.402344 140.554688 "/>
<path style=" stroke:none;fill-rule:nonzero;fill:rgb(18.039216%,73.72549%,27.058824%);fill-opacity:1;" d="M 139.523438 477.085938 C 139.523438 481 133.65625 481 133.65625 477.085938 C 133.65625 473.175781 139.523438 473.175781 139.523438 477.085938 "/>
<path style=" stroke:none;fill-rule:nonzero;fill:rgb(18.039216%,73.72549%,27.058824%);fill-opacity:1;" d="M 375.582031 321.765625 C 375.582031 326.003906 369.230469 326.003906 369.230469 321.765625 C 369.230469 317.53125 375.582031 317.53125 375.582031 321.765625 "/>
<path style=" stroke:none;fill-rule:nonzero;fill:rgb(18.039216%,73.72549%,27.058824%);fill-opacity:1;" d="M 282.765625 280.511719 C 282.765625 284.257812 277.144531 284.257812 277.144531 280.511719 C 277.144531 276.765625 282.765625 276.765625 282.765625 280.511719 "/>
<path style=" stroke:none;fill-rule:nonzero;fill:rgb(18.039216%,73.72549%,27.058824%);fill-opacity:1;" d="M 415.550781 91.285156 L 436.273438 91.285156 L 436.273438 112.007812 L 415.550781 112.007812 Z M 415.550781 91.285156 "/>
<path style=" stroke:none;fill-rule:nonzero;fill:rgb(18.039216%,73.72549%,27.058824%);fill-opacity:1;" d="M 361.898438 187.46875 L 382.621094 187.46875 L 382.621094 208.191406 L 361.898438 208.191406 Z M 361.898438 187.46875 "/>
<path style=" stroke:none;fill-rule:nonzero;fill:rgb(18.039216%,73.72549%,27.058824%);fill-opacity:1;" d="M 427.847656 404.851562 L 448.570312 404.851562 L 448.570312 425.574219 L 427.847656 425.574219 Z M 427.847656 404.851562 "/>
<path style=" stroke:none;fill-rule:nonzero;fill:rgb(18.039216%,73.72549%,27.058824%);fill-opacity:1;" d="M 580.023438 193.605469 L 600.746094 193.605469 L 600.746094 214.328125 L 580.023438 214.328125 Z M 580.023438 193.605469 "/>
<path style=" stroke:none;fill-rule:nonzero;fill:rgb(18.039216%,73.72549%,27.058824%);fill-opacity:1;" d="M 599.40625 244.703125 L 620.128906 244.703125 L 620.128906 265.425781 L 599.40625 265.425781 Z M 599.40625 244.703125 "/>
<path style=" stroke:none;fill-rule:nonzero;fill:rgb(18.039216%,73.72549%,27.058824%);fill-opacity:1;" d="M 104.992188 395.226562 L 125.714844 395.226562 L 125.714844 415.949219 L 104.992188 415.949219 Z M 104.992188 395.226562 "/>
<path style=" stroke:none;fill-rule:nonzero;fill:rgb(18.039216%,73.72549%,27.058824%);fill-opacity:1;" d="M 445.4375 590.25 L 466.160156 590.25 L 466.160156 610.972656 L 445.4375 610.972656 Z M 445.4375 590.25 "/>
<path style=" stroke:none;fill-rule:nonzero;fill:rgb(18.039216%,73.72549%,27.058824%);fill-opacity:1;" d="M 454.246094 542.285156 L 474.96875 542.285156 L 474.96875 563.007812 L 454.246094 563.007812 Z M 454.246094 542.285156 "/>
<path style=" stroke:none;fill-rule:nonzero;fill:rgb(18.039216%,73.72549%,27.058824%);fill-opacity:1;" d="M 453.417969 363.492188 C 453.417969 366.976562 448.1875 366.976562 448.1875 363.492188 C 448.1875 360.003906 453.417969 360.003906 453.417969 363.492188 "/>
<path style=" stroke:none;fill-rule:nonzero;fill:rgb(18.039216%,73.72549%,27.058824%);fill-opacity:1;" d="M 624.308594 401.507812 C 624.308594 404.996094 619.070312 404.996094 619.070312 401.507812 C 619.070312 398.015625 624.308594 398.015625 624.308594 401.507812 "/>
<path style=" stroke:none;fill-rule:nonzero;fill:rgb(18.039216%,73.72549%,27.058824%);fill-opacity:1;" d="M 542.367188 377.632812 C 542.367188 381.253906 536.933594 381.253906 536.933594 377.632812 C 536.933594 374.011719 542.367188 374.011719 542.367188 377.632812 "/>
<path style=" stroke:none;fill-rule:nonzero;fill:rgb(18.039216%,73.72549%,27.058824%);fill-opacity:1;" d="M 533.070312 160.738281 C 533.070312 164.277344 527.765625 164.277344 527.765625 160.738281 C 527.765625 157.203125 533.070312 157.203125 533.070312 160.738281 "/>
<path style=" stroke:none;fill-rule:nonzero;fill:rgb(18.039216%,73.72549%,27.058824%);fill-opacity:1;" d="M 505.730469 399.015625 C 505.730469 405.375 496.195312 405.375 496.195312 399.015625 C 496.195312 392.660156 505.730469 392.660156 505.730469 399.015625 "/>
<path style=" stroke:none;fill-rule:nonzero;fill:rgb(18.039216%,73.72549%,27.058824%);fill-opacity:1;" d="M 548.761719 449.867188 C 548.761719 453.398438 543.464844 453.398438 543.464844 449.867188 C 543.464844 446.332031 548.761719 446.332031 548.761719 449.867188 "/>
<path style=" stroke:none;fill-rule:nonzero;fill:rgb(18.039216%,73.72549%,27.058824%);fill-opacity:1;" d="M 565.714844 235.433594 C 565.714844 239.617188 559.433594 239.617188 559.433594 235.433594 C 559.433594 231.246094 565.714844 231.246094 565.714844 235.433594 "/>
<path style=" stroke:none;fill-rule:nonzero;fill:rgb(18.039216%,73.72549%,27.058824%);fill-opacity:1;" d="M 470.871094 170.488281 C 470.871094 174.105469 465.449219 174.105469 465.449219 170.488281 C 465.449219 166.875 470.871094 166.875 470.871094 170.488281 "/>
<path style=" stroke:none;fill-rule:nonzero;fill:rgb(18.039216%,73.72549%,27.058824%);fill-opacity:1;" d="M 479.25 504.476562 C 479.25 508.835938 472.710938 508.835938 472.710938 504.476562 C 472.710938 500.117188 479.25 500.117188 479.25 504.476562 "/>
<path style=" stroke:none;fill-rule:nonzero;fill:rgb(73.72549%,18.039216%,63.137255%);fill-opacity:1;" d="M 355.753906 152.714844 C 355.753906 155.847656 353.21875 158.382812 350.085938 158.382812 C 346.957031 158.382812 344.421875 155.847656 344.421875 152.714844 C 344.421875 149.585938 346.957031 147.050781 350.085938 147.050781 C 353.21875 147.050781 355.753906 149.585938 355.753906 152.714844 "/>
<path style=" stroke:none;fill-rule:nonzero;fill:rgb(41.568627%,32.156863%,77.647059%);fill-opacity:1;" d="M 228.058594 442.933594 C 228.058594 446.503906 222.707031 446.503906 222.707031 442.933594 C 222.707031 439.363281 228.058594 439.363281 228.058594 442.933594 "/>
<path style=" stroke:none;fill-rule:nonzero;fill:rgb(41.568627%,32.156863%,77.647059%);fill-opacity:1;" d="M 343.785156 429.289062 C 343.785156 432.808594 338.507812 432.808594 338.507812 429.289062 C 338.507812 425.769531 343.785156 425.769531 343.785156 429.289062 "/>
<path style=" stroke:none;fill-rule:nonzero;fill:rgb(41.568627%,32.156863%,77.647059%);fill-opacity:1;" d="M 220.640625 354.488281 C 220.640625 359.261719 213.484375 359.261719 213.484375 354.488281 C 213.484375 349.714844 220.640625 349.714844 220.640625 354.488281 "/>
<path style=" stroke:none;fill-rule:nonzero;fill:rgb(41.568627%,32.156863%,77.647059%);fill-opacity:1;" d="M 379.019531 93.753906 C 379.019531 98.019531 372.617188 98.019531 372.617188 93.753906 C 372.617188 89.484375 379.019531 89.484375 379.019531 93.753906 "/>
<path style=" stroke:none;fill-rule:nonzero;fill:rgb(41.568627%,32.156863%,77.647059%);fill-opacity:1;" d="M 238.644531 301.890625 C 238.644531 305.652344 232.996094 305.652344 232.996094 301.890625 C 232.996094 298.125 238.644531 298.125 238.644531 301.890625 "/>
<path style=" stroke:none;fill-rule:nonzero;fill:rgb(67.843137%,55.294118%,55.294118%);fill-opacity:1;" d="M 620.25 336.515625 C 620.25 341.121094 616.515625 344.855469 611.914062 344.855469 C 607.308594 344.855469 603.574219 341.121094 603.574219 336.515625 C 603.574219 331.914062 607.308594 328.179688 611.914062 328.179688 C 616.515625 328.179688 620.25 331.914062 620.25 336.515625 "/>
<path style=" stroke:none;fill-rule:nonzero;fill:rgb(67.843137%,55.294118%,55.294118%);fill-opacity:1;" d="M 273.410156 348.660156 C 273.410156 352.171875 268.140625 352.171875 268.140625 348.660156 C 268.140625 345.144531 273.410156 345.144531 273.410156 348.660156 "/>
</g>
</svg>
