<?xml version="1.0" encoding="UTF-8"?>
<svg xmlns="http://www.w3.org/2000/svg" xmlns:xlink="http://www.w3.org/1999/xlink" width="720pt" height="720pt" viewBox="0 0 720 720" version="1.1">
<g id="surface2948">
<path style=" stroke:none;fill-rule:nonzero;fill:rgb(95.686275%,95.686275%,95.686275%);fill-opacity:1;" d="M 616.941406 327.082031 L 614.625 326.796875 L 612.347656 325.972656 L 610.164062 324.6875 L 608.105469 323.058594 L 606.164062 321.230469 L 604.273438 319.335938 L 602.367188 317.375 L 600.460938 315.296875 L 598.605469 313.097656 L 596.863281 310.824219 L 595.597656 308.992188 L 594.089844 306.53125 L 592.835938 304.128906 L 591.832031 301.839844 L 591.046875 299.703125 L 590.402344 297.683594 L 589.785156 295.667969 L 589.160156 293.53125 L 588.539062 291.230469 L 587.941406 288.792969 L 587.386719 286.277344 L 587.351562 286.105469 L 586.867188 283.585938 L 586.453125 281.09375 L 586.105469 278.695312 L 585.824219 276.429688 L 585.585938 274.277344 L 585.382812 272.132812 L 585.355469 269.839844 L 585.644531 267.339844 L 586.34375 264.644531 L 587.496094 261.808594 L 587.714844 261.363281 L 589.097656 258.898438 L 590.773438 256.417969 L 592.683594 253.964844 L 594.75 251.589844 L 596.90625 249.3125 L 599.089844 247.105469 L 601.296875 244.941406 L 603.59375 242.898438 L 606.027344 241.121094 L 608.582031 239.738281 L 611.222656 238.847656 L 613.902344 238.519531 L 614.042969 238.519531 L 616.472656 238.761719 L 618.875 239.472656 L 621.214844 240.605469 L 623.460938 242.09375 L 625.597656 243.84375 L 627.632812 245.753906 L 629.617188 247.730469 L 631.589844 249.761719 L 633.527344 251.949219 L 635.382812 254.34375 L 637.097656 256.964844 L 638.617188 259.792969 L 639.894531 262.804688 L 640.242188 263.785156 L 641.160156 266.980469 L 641.804688 270.277344 L 642.1875 273.617188 L 642.328125 276.933594 L 642.273438 280.191406 L 642.082031 283.363281 L 641.832031 286.484375 L 641.550781 289.628906 L 641.1875 292.824219 L 640.699219 296.054688 L 640.066406 299.273438 L 639.265625 302.417969 L 638.304688 305.425781 L 637.945312 306.390625 L 636.644531 309.417969 L 635.175781 312.175781 L 633.585938 314.636719 L 631.921875 316.792969 L 630.230469 318.683594 L 628.539062 320.40625 L 626.839844 322.082031 L 625.066406 323.660156 L 623.191406 325.035156 L 621.222656 326.113281 L 619.183594 326.8125 L 617.113281 327.082031 Z M 616.941406 327.082031 "/>
<path style=" stroke:none;fill-rule:nonzero;fill:rgb(95.686275%,95.686275%,95.686275%);fill-opacity:1;" d="M 531.257812 433.183594 L 529.011719 432.902344 L 526.808594 432.09375 L 524.695312 430.835938 L 522.707031 429.246094 L 520.832031 427.46875 L 518.996094 425.636719 L 517.113281 423.742188 L 515.15625 421.757812 L 513.15625 419.695312 L 511.15625 417.609375 L 509.855469 416.234375 L 507.796875 414.019531 L 505.875 411.910156 L 504.125 409.953125 L 502.554688 408.164062 L 501.101562 406.488281 L 499.707031 404.789062 L 498.523438 402.945312 L 497.714844 400.917969 L 497.410156 398.726562 L 497.558594 397.003906 L 498.136719 395 L 499.117188 392.972656 L 500.441406 390.96875 L 502.027344 389.027344 L 503.769531 387.160156 L 505.574219 385.347656 L 507.417969 383.578125 L 509.359375 381.960938 L 511.417969 380.621094 L 513.570312 379.664062 L 515.777344 379.175781 L 516.808594 379.117188 L 519.136719 379.402344 L 521.425781 380.222656 L 523.625 381.503906 L 525.699219 383.128906 L 527.65625 384.960938 L 529.558594 386.863281 L 531.492188 388.808594 L 533.46875 390.84375 L 535.464844 392.945312 L 537.421875 395.070312 L 539.144531 397.003906 L 541.136719 399.328125 L 542.925781 401.523438 L 544.484375 403.539062 L 545.835938 405.367188 L 547.058594 407.074219 L 548.214844 408.820312 L 549.148438 410.714844 L 549.703125 412.78125 L 549.765625 414.988281 L 549.570312 416.234375 L 548.847656 418.40625 L 547.675781 420.582031 L 546.144531 422.707031 L 544.371094 424.734375 L 542.476562 426.675781 L 540.542969 428.570312 L 538.511719 430.320312 L 536.34375 431.761719 L 534.058594 432.746094 L 531.71875 433.167969 Z M 531.257812 433.183594 "/>
<path style=" stroke:none;fill-rule:nonzero;fill:rgb(95.686275%,95.686275%,95.686275%);fill-opacity:1;" d="M 440.019531 130.53125 L 437.5 131.558594 L 435.039062 132.226562 L 432.699219 132.5625 L 430.515625 132.632812 L 428.445312 132.5625 L 426.351562 132.445312 L 424.113281 132.207031 L 421.703125 131.773438 L 419.164062 131.109375 L 417.214844 130.460938 L 414.863281 129.507812 L 412.527344 128.394531 L 410.269531 127.167969 L 408.125 125.871094 L 406.089844 124.550781 L 404.101562 123.226562 L 402.054688 121.839844 L 399.898438 120.324219 L 397.636719 118.664062 L 395.316406 116.875 L 393.285156 115.234375 L 390.957031 113.265625 L 388.695312 111.261719 L 386.550781 109.277344 L 384.550781 107.351562 L 382.679688 105.5 L 380.867188 103.675781 L 379.140625 101.785156 L 377.636719 99.777344 L 376.492188 97.652344 L 375.816406 95.449219 L 375.65625 93.753906 L 375.945312 91.464844 L 376.78125 89.222656 L 378.078125 87.078125 L 379.714844 85.058594 L 381.53125 83.152344 L 383.40625 81.289062 L 385.375 79.441406 L 387.492188 77.671875 L 389.753906 76.054688 L 392.109375 74.667969 L 393.285156 74.09375 L 395.824219 73.109375 L 398.339844 72.457031 L 400.761719 72.117188 L 403.054688 72.023438 L 405.238281 72.074219 L 407.421875 72.171875 L 409.722656 72.363281 L 412.15625 72.71875 L 414.691406 73.273438 L 417.214844 74.027344 L 419.605469 74.933594 L 421.933594 76 L 424.140625 77.179688 L 426.203125 78.417969 L 428.136719 79.675781 L 430.03125 80.945312 L 432.003906 82.296875 L 434.105469 83.796875 L 436.328125 85.460938 L 438.625 87.273438 L 440.019531 88.417969 L 442.285156 90.355469 L 444.511719 92.347656 L 446.652344 94.339844 L 448.671875 96.289062 L 450.578125 98.175781 L 452.429688 100.035156 L 454.199219 101.953125 L 455.75 103.992188 L 456.945312 106.152344 L 457.675781 108.394531 L 457.878906 110.332031 L 457.589844 112.660156 L 456.746094 114.941406 L 455.4375 117.128906 L 453.785156 119.1875 L 451.9375 121.128906 L 450.035156 123.023438 L 448.050781 124.90625 L 445.941406 126.714844 L 443.714844 128.375 L 441.410156 129.808594 Z M 440.019531 130.53125 "/>
<path style=" stroke:none;fill-rule:nonzero;fill:rgb(95.686275%,95.686275%,95.686275%);fill-opacity:1;" d="M 612.042969 380.445312 L 609.761719 379.503906 L 607.511719 378.191406 L 605.355469 376.589844 L 603.324219 374.804688 L 601.402344 372.929688 L 599.527344 371.027344 L 597.78125 369.03125 L 596.324219 366.898438 L 595.304688 364.65625 L 594.820312 362.347656 L 594.792969 361.613281 L 595.074219 359.351562 L 595.898438 357.136719 L 597.171875 355.007812 L 598.78125 353.011719 L 600.574219 351.125 L 602.425781 349.277344 L 604.351562 347.410156 L 606.398438 345.535156 L 608.550781 343.707031 L 610.769531 341.984375 L 612.042969 341.070312 L 614.472656 339.492188 L 616.832031 338.152344 L 619.066406 337.058594 L 621.148438 336.179688 L 623.117188 335.425781 L 625.113281 334.738281 L 627.242188 334.242188 L 629.527344 334.074219 L 631.921875 334.328125 L 633.527344 334.746094 L 635.8125 335.683594 L 638.0625 336.996094 L 640.222656 338.59375 L 642.257812 340.382812 L 644.179688 342.261719 L 646.058594 344.167969 L 647.808594 346.164062 L 649.265625 348.296875 L 650.292969 350.542969 L 650.78125 352.851562 L 650.8125 353.609375 L 650.527344 355.871094 L 649.707031 358.09375 L 648.429688 360.222656 L 646.820312 362.222656 L 645.023438 364.113281 L 643.171875 365.960938 L 641.242188 367.832031 L 639.195312 369.707031 L 637.042969 371.535156 L 634.824219 373.253906 L 633.527344 374.183594 L 631.097656 375.757812 L 628.734375 377.09375 L 626.496094 378.179688 L 624.417969 379.050781 L 622.449219 379.792969 L 620.453125 380.476562 L 618.320312 380.964844 L 616.035156 381.125 L 613.640625 380.863281 Z M 612.042969 380.445312 "/>
<path style=" stroke:none;fill-rule:nonzero;fill:rgb(95.686275%,95.686275%,95.686275%);fill-opacity:1;" d="M 567.878906 269.722656 L 565.5625 269.429688 L 563.292969 268.582031 L 561.117188 267.265625 L 559.074219 265.609375 L 557.144531 263.765625 L 555.257812 261.867188 L 553.410156 259.875 L 551.675781 257.734375 L 550.152344 255.453125 L 548.921875 253.078125 L 548.460938 251.929688 L 547.730469 249.394531 L 547.394531 246.886719 L 547.40625 244.46875 L 547.691406 242.1875 L 548.125 240.019531 L 548.59375 237.851562 L 549.085938 235.566406 L 549.613281 233.132812 L 550.167969 230.585938 L 550.730469 227.996094 L 550.742188 227.949219 L 551.292969 225.414062 L 551.835938 222.941406 L 552.351562 220.589844 L 552.832031 218.390625 L 553.289062 216.320312 L 553.757812 214.257812 L 554.367188 212.078125 L 555.21875 209.730469 L 556.363281 207.226562 L 557.816406 204.625 L 558.148438 204.089844 L 559.746094 201.722656 L 561.542969 199.363281 L 563.476562 197.0625 L 565.484375 194.863281 L 567.511719 192.773438 L 569.53125 190.75 L 571.59375 188.777344 L 573.765625 186.984375 L 576.066406 185.507812 L 578.472656 184.464844 L 580.9375 183.949219 L 581.933594 183.902344 L 584.453125 184.203125 L 586.933594 185.070312 L 589.320312 186.429688 L 591.578125 188.160156 L 593.707031 190.125 L 595.765625 192.179688 L 597.796875 194.28125 L 599.734375 196.488281 L 601.484375 198.808594 L 602.957031 201.203125 L 604.074219 203.617188 L 604.25 204.089844 L 604.9375 206.738281 L 605.148438 209.296875 L 604.929688 211.707031 L 604.386719 213.9375 L 603.664062 216.035156 L 602.898438 218.121094 L 602.089844 220.328125 L 601.21875 222.695312 L 600.296875 225.1875 L 599.347656 227.75 L 599.277344 227.949219 L 598.351562 230.433594 L 597.441406 232.882812 L 596.566406 235.234375 L 595.738281 237.449219 L 594.953125 239.546875 L 594.171875 241.613281 L 593.296875 243.765625 L 592.246094 246.046875 L 590.988281 248.429688 L 589.53125 250.859375 L 588.824219 251.929688 L 587.148438 254.28125 L 585.339844 256.566406 L 583.464844 258.738281 L 581.574219 260.769531 L 579.710938 262.667969 L 577.855469 264.511719 L 575.929688 266.265625 L 573.878906 267.78125 L 571.710938 268.921875 L 569.46875 269.585938 Z M 567.878906 269.722656 "/>
<path style=" stroke:none;fill-rule:nonzero;fill:rgb(95.686275%,95.686275%,95.686275%);fill-opacity:1;" d="M 310.746094 119.351562 L 308.378906 118.164062 L 306.074219 116.691406 L 303.882812 115 L 301.835938 113.179688 L 299.910156 111.308594 L 298.039062 109.417969 L 296.28125 107.445312 L 294.785156 105.34375 L 293.695312 103.121094 L 293.121094 100.832031 L 293.046875 99.675781 L 293.328125 97.402344 L 294.148438 95.171875 L 295.421875 93.03125 L 297.03125 91.019531 L 298.832031 89.121094 L 300.691406 87.265625 L 302.632812 85.390625 L 304.707031 83.519531 L 306.914062 81.695312 L 309.210938 79.984375 L 310.746094 78.953125 L 313.234375 77.460938 L 315.6875 76.203125 L 318.046875 75.183594 L 320.269531 74.375 L 322.375 73.703125 L 324.484375 73.085938 L 326.714844 72.628906 L 329.109375 72.472656 L 331.636719 72.710938 L 334.238281 73.394531 L 334.382812 73.449219 L 336.789062 74.503906 L 339.164062 75.910156 L 341.457031 77.597656 L 343.632812 79.472656 L 345.6875 81.445312 L 347.6875 83.449219 L 349.605469 85.511719 L 351.300781 87.703125 L 352.625 90.027344 L 353.464844 92.4375 L 353.734375 94.777344 L 353.445312 97.195312 L 352.605469 99.574219 L 351.292969 101.863281 L 349.621094 104.023438 L 347.730469 106.0625 L 345.757812 108.039062 L 343.730469 110.015625 L 341.59375 111.960938 L 339.335938 113.824219 L 336.996094 115.527344 L 334.625 117.015625 L 334.382812 117.152344 L 331.753906 118.472656 L 329.191406 119.460938 L 326.769531 120.125 L 324.507812 120.523438 L 322.378906 120.773438 L 320.246094 120.960938 L 317.996094 121 L 315.609375 120.773438 L 313.125 120.214844 Z M 310.746094 119.351562 "/>
<path style=" stroke:none;fill-rule:nonzero;fill:rgb(95.686275%,95.686275%,95.686275%);fill-opacity:1;" d="M 299.644531 177.855469 L 297.546875 178.132812 L 295.652344 177.816406 L 293.992188 177.007812 L 292.542969 175.878906 L 291.1875 174.632812 L 289.703125 173.246094 L 287.933594 171.574219 L 285.828125 169.554688 L 283.53125 167.324219 L 281.539062 165.375 L 279.429688 163.296875 L 277.257812 161.148438 L 275.078125 158.980469 L 272.929688 156.835938 L 270.816406 154.722656 L 268.738281 152.589844 L 266.800781 150.359375 L 265.140625 147.996094 L 263.886719 145.515625 L 263.136719 142.960938 L 262.9375 140.824219 L 263.199219 138.367188 L 263.96875 135.9375 L 265.1875 133.582031 L 266.769531 131.335938 L 268.605469 129.207031 L 270.578125 127.171875 L 272.589844 125.175781 L 274.675781 123.265625 L 276.871094 121.5625 L 279.183594 120.179688 L 281.585938 119.210938 L 284.039062 118.730469 L 285.082031 118.679688 L 287.667969 118.972656 L 290.21875 119.820312 L 292.683594 121.15625 L 295.023438 122.875 L 297.238281 124.851562 L 299.359375 126.945312 L 301.476562 129.070312 L 303.605469 131.253906 L 305.714844 133.5 L 307.753906 135.769531 L 309.660156 138.015625 L 311.070312 139.78125 L 312.820312 142.15625 L 314.277344 144.355469 L 315.433594 146.347656 L 316.328125 148.128906 L 317.046875 149.746094 L 317.703125 151.332031 L 318.242188 153.011719 L 318.546875 154.839844 L 318.515625 156.8125 L 318.101562 158.894531 L 317.859375 159.644531 L 316.894531 161.804688 L 315.566406 163.972656 L 313.945312 166.09375 L 312.136719 168.121094 L 310.242188 170.0625 L 308.324219 171.964844 L 306.359375 173.789062 L 304.335938 175.417969 L 302.308594 176.734375 L 300.332031 177.640625 Z M 299.644531 177.855469 "/>
<path style=" stroke:none;fill-rule:nonzero;fill:rgb(95.686275%,95.686275%,95.686275%);fill-opacity:1;" d="M 530.355469 218.617188 L 527.691406 218.324219 L 525.070312 217.476562 L 522.527344 216.132812 L 520.105469 214.398438 L 517.816406 212.390625 L 515.621094 210.246094 L 513.449219 208.070312 L 511.25 205.851562 L 509.046875 203.585938 L 506.878906 201.304688 L 504.800781 199.0625 L 502.871094 196.90625 L 502.59375 196.59375 L 500.390625 194 L 498.539062 191.679688 L 497.046875 189.660156 L 495.855469 187.921875 L 494.820312 186.324219 L 493.875 184.675781 L 493.1875 182.851562 L 492.90625 180.828125 L 493.136719 178.640625 L 493.328125 177.914062 L 494.15625 175.839844 L 495.390625 173.734375 L 496.949219 171.648438 L 498.726562 169.636719 L 500.613281 167.699219 L 502.527344 165.796875 L 504.511719 163.953125 L 506.589844 162.265625 L 508.730469 160.839844 L 510.882812 159.773438 L 511.808594 159.433594 L 513.886719 158.960938 L 515.867188 158.898438 L 517.714844 159.203125 L 519.40625 159.785156 L 520.976562 160.535156 L 522.523438 161.34375 L 524.191406 162.28125 L 526.074219 163.460938 L 528.1875 164.929688 L 530.515625 166.699219 L 531.605469 167.578125 L 533.800781 169.429688 L 536.078125 171.445312 L 538.382812 173.574219 L 540.671875 175.761719 L 542.90625 177.957031 L 545.089844 180.132812 L 547.242188 182.320312 L 549.277344 184.589844 L 551.0625 186.996094 L 552.472656 189.519531 L 553.398438 192.136719 L 553.773438 194.796875 L 553.78125 195.1875 L 553.515625 197.726562 L 552.742188 200.230469 L 551.515625 202.664062 L 549.914062 204.992188 L 548.042969 207.199219 L 546.023438 209.308594 L 543.953125 211.371094 L 541.824219 213.367188 L 539.585938 215.179688 L 537.226562 216.695312 L 534.773438 217.816406 L 532.257812 218.464844 Z M 530.355469 218.617188 "/>
<path style=" stroke:none;fill-rule:nonzero;fill:rgb(95.686275%,95.686275%,95.686275%);fill-opacity:1;" d="M 179.125 321.417969 L 176.976562 320.511719 L 174.75 319.191406 L 172.511719 317.527344 L 170.304688 315.617188 L 168.164062 313.566406 L 166.066406 311.472656 L 164 309.34375 L 162.054688 307.152344 L 160.335938 304.921875 L 158.945312 302.695312 L 157.960938 300.539062 L 157.8125 300.105469 L 157.359375 297.953125 L 157.402344 295.96875 L 157.886719 294.179688 L 158.707031 292.59375 L 159.730469 291.164062 L 160.816406 289.769531 L 162.03125 288.25 L 163.472656 286.515625 L 165.1875 284.53125 L 167.175781 282.308594 L 168.285156 281.101562 L 170.277344 278.964844 L 172.402344 276.730469 L 174.617188 274.445312 L 176.863281 272.15625 L 179.09375 269.90625 L 181.296875 267.699219 L 183.5 265.523438 L 185.78125 263.449219 L 188.195312 261.609375 L 190.730469 260.136719 L 193.363281 259.125 L 196.042969 258.660156 L 196.878906 258.628906 L 199.445312 258.894531 L 201.984375 259.671875 L 204.449219 260.90625 L 206.8125 262.511719 L 209.054688 264.394531 L 211.191406 266.4375 L 213.28125 268.53125 L 215.3125 270.679688 L 217.167969 272.933594 L 218.738281 275.308594 L 219.921875 277.785156 L 220.640625 280.328125 L 220.851562 282.601562 L 220.558594 285.292969 L 219.710938 287.945312 L 218.371094 290.515625 L 216.632812 292.96875 L 214.617188 295.289062 L 212.457031 297.507812 L 210.261719 299.703125 L 208.023438 301.925781 L 205.742188 304.167969 L 203.445312 306.390625 L 201.179688 308.542969 L 199 310.574219 L 198.351562 311.167969 L 196.007812 313.265625 L 193.882812 315.097656 L 192.003906 316.65625 L 190.359375 317.953125 L 188.898438 319.0625 L 187.484375 320.101562 L 185.96875 321.019531 L 184.269531 321.671875 L 182.367188 321.933594 L 180.285156 321.730469 Z M 179.125 321.417969 "/>
<path style=" stroke:none;fill-rule:nonzero;fill:rgb(95.686275%,95.686275%,95.686275%);fill-opacity:1;" d="M 136.421875 454.53125 L 134.273438 454.273438 L 132.160156 453.527344 L 130.128906 452.363281 L 128.207031 450.882812 L 126.394531 449.203125 L 124.636719 447.449219 L 122.84375 445.582031 L 120.960938 443.433594 L 118.992188 440.910156 L 116.964844 437.996094 L 114.933594 434.714844 L 114.671875 434.261719 L 113.0625 431.363281 L 111.488281 428.289062 L 109.972656 425.101562 L 108.53125 421.859375 L 107.167969 418.617188 L 105.882812 415.417969 L 104.640625 412.253906 L 103.421875 409.089844 L 102.269531 405.878906 L 101.246094 402.636719 L 100.414062 399.394531 L 99.824219 396.214844 L 99.515625 393.152344 L 99.496094 390.617188 L 99.828125 387.542969 L 100.550781 384.773438 L 101.613281 382.324219 L 102.941406 380.203125 L 104.457031 378.363281 L 106.058594 376.703125 L 107.699219 375.085938 L 109.449219 373.476562 L 111.386719 371.914062 L 113.53125 370.453125 L 115.875 369.136719 L 118.382812 368.011719 L 118.761719 367.863281 L 121.5 366.96875 L 124.335938 366.3125 L 127.199219 365.878906 L 130.03125 365.648438 L 132.792969 365.570312 L 135.492188 365.574219 L 138.207031 365.617188 L 141.007812 365.773438 L 143.917969 366.136719 L 146.902344 366.75 L 149.902344 367.648438 L 152.378906 368.621094 L 155.191406 370.007812 L 157.882812 371.640625 L 160.421875 373.457031 L 162.777344 375.402344 L 164.953125 377.410156 L 167.007812 379.433594 L 169.019531 381.484375 L 170.941406 383.671875 L 172.65625 386.085938 L 174.0625 388.75 L 175.070312 391.652344 L 175.613281 394.75 L 175.644531 395.152344 L 175.652344 398.109375 L 175.269531 401.15625 L 174.53125 404.242188 L 173.488281 407.3125 L 172.214844 410.324219 L 170.796875 413.261719 L 169.316406 416.148438 L 167.808594 419.050781 L 166.238281 422.003906 L 164.585938 424.996094 L 162.863281 427.984375 L 161.089844 430.914062 L 159.289062 433.726562 L 158.519531 434.875 L 156.34375 437.964844 L 154.210938 440.757812 L 152.164062 443.222656 L 150.230469 445.363281 L 148.414062 447.242188 L 146.652344 449.003906 L 144.84375 450.703125 L 142.929688 452.214844 L 140.902344 453.421875 L 138.792969 454.21875 L 136.640625 454.527344 Z M 136.421875 454.53125 "/>
<path style=" stroke:none;fill-rule:nonzero;fill:rgb(95.686275%,95.686275%,95.686275%);fill-opacity:1;" d="M 562.019531 512.421875 L 559.667969 511.355469 L 557.371094 509.964844 L 555.1875 508.320312 L 553.144531 506.519531 L 551.222656 504.648438 L 549.351562 502.753906 L 547.601562 500.773438 L 546.125 498.660156 L 545.066406 496.433594 L 544.53125 494.136719 L 544.480469 493.175781 L 544.742188 491 L 545.5 488.863281 L 546.683594 486.808594 L 548.191406 484.867188 L 549.890625 483.035156 L 551.664062 481.257812 L 553.523438 479.421875 L 555.578125 477.453125 L 557.867188 475.332031 L 560.386719 473.082031 L 563.097656 470.75 L 563.269531 470.601562 L 565.785156 468.511719 L 568.378906 466.414062 L 571.003906 464.347656 L 573.601562 462.347656 L 576.140625 460.425781 L 578.613281 458.578125 L 581.066406 456.757812 L 583.566406 455 L 586.132812 453.394531 L 588.746094 452.039062 L 591.363281 451.007812 L 593.933594 450.375 L 595.421875 450.199219 L 598.0625 450.289062 L 600.523438 450.882812 L 602.773438 451.925781 L 604.800781 453.316406 L 606.632812 454.933594 L 608.363281 456.644531 L 610.058594 458.394531 L 611.664062 460.226562 L 613.097656 462.160156 L 614.265625 464.164062 L 615.113281 466.203125 L 615.367188 467.09375 L 615.699219 469.457031 L 615.542969 471.75 L 614.964844 473.90625 L 614.082031 475.910156 L 613.050781 477.796875 L 611.960938 479.703125 L 610.722656 481.738281 L 609.277344 483.9375 L 607.617188 486.253906 L 606.226562 488.070312 L 604.5 490.183594 L 602.683594 492.28125 L 600.824219 494.316406 L 598.976562 496.253906 L 597.167969 498.089844 L 595.378906 499.875 L 593.542969 501.667969 L 591.589844 503.453125 L 589.511719 505.1875 L 587.339844 506.8125 L 585.117188 508.273438 L 584.972656 508.359375 L 582.46875 509.742188 L 580.003906 510.855469 L 577.648438 511.699219 L 575.4375 512.316406 L 573.339844 512.800781 L 571.230469 513.226562 L 569 513.492188 L 566.628906 513.464844 L 564.160156 513.078125 Z M 562.019531 512.421875 "/>
<path style=" stroke:none;fill-rule:nonzero;fill:rgb(95.686275%,95.686275%,95.686275%);fill-opacity:1;" d="M 309.921875 559.871094 L 307.449219 559.578125 L 305.015625 558.734375 L 302.675781 557.410156 L 300.457031 555.71875 L 298.367188 553.796875 L 296.34375 551.785156 L 294.332031 549.726562 L 292.34375 547.5625 L 290.445312 545.285156 L 288.707031 542.929688 L 287.195312 540.542969 L 286.8125 539.859375 L 285.519531 537.1875 L 284.585938 534.597656 L 284 532.15625 L 283.6875 529.886719 L 283.539062 527.753906 L 283.449219 525.621094 L 283.511719 523.375 L 283.832031 520.980469 L 284.480469 518.484375 L 285.453125 516.007812 L 286.703125 513.636719 L 288.226562 511.324219 L 289.949219 509.113281 L 291.792969 507.042969 L 293.6875 505.097656 L 295.59375 503.203125 L 297.574219 501.414062 L 299.6875 499.871094 L 301.917969 498.726562 L 304.226562 498.082031 L 305.691406 497.964844 L 307.988281 498.25 L 310.25 499.070312 L 312.414062 500.351562 L 314.457031 501.972656 L 316.382812 503.789062 L 318.261719 505.667969 L 320.152344 507.621094 L 322.046875 509.703125 L 323.890625 511.917969 L 325.625 514.222656 L 326.832031 516.007812 L 328.328125 518.515625 L 329.585938 520.984375 L 330.59375 523.347656 L 331.386719 525.574219 L 332.042969 527.683594 L 332.640625 529.789062 L 333.078125 532.023438 L 333.210938 534.429688 L 332.941406 536.980469 L 332.214844 539.621094 L 332.128906 539.859375 L 331.035156 542.273438 L 329.59375 544.671875 L 327.875 546.996094 L 325.96875 549.214844 L 323.960938 551.320312 L 321.921875 553.359375 L 319.828125 555.332031 L 317.613281 557.101562 L 315.265625 558.523438 L 312.820312 559.46875 L 310.324219 559.863281 Z M 309.921875 559.871094 "/>
<path style=" stroke:none;fill-rule:nonzero;fill:rgb(95.686275%,95.686275%,95.686275%);fill-opacity:1;" d="M 320.808594 627.683594 L 318.390625 628.167969 L 316.035156 628.191406 L 313.804688 627.816406 L 311.726562 627.148438 L 309.761719 626.335938 L 307.777344 625.464844 L 305.65625 624.4375 L 303.386719 623.1875 L 301 621.703125 L 299.175781 620.441406 L 296.941406 618.753906 L 294.734375 616.941406 L 292.613281 615.054688 L 290.605469 613.15625 L 288.707031 611.285156 L 286.855469 609.425781 L 285.101562 607.488281 L 283.589844 605.429688 L 282.457031 603.253906 L 281.808594 601 L 281.683594 599.488281 L 281.984375 597.148438 L 282.847656 594.855469 L 284.191406 592.660156 L 285.875 590.601562 L 287.742188 588.65625 L 289.660156 586.753906 L 291.667969 584.914062 L 293.804688 583.242188 L 296.042969 581.847656 L 298.335938 580.816406 L 299.175781 580.542969 L 301.597656 580.082031 L 303.957031 580.085938 L 306.1875 580.492188 L 308.265625 581.195312 L 310.226562 582.050781 L 312.207031 582.960938 L 314.3125 584.023438 L 316.574219 585.296875 L 318.941406 586.800781 L 320.808594 588.109375 L 323.039062 589.8125 L 325.238281 591.632812 L 327.351562 593.519531 L 329.34375 595.40625 L 331.230469 597.265625 L 333.066406 599.117188 L 334.804688 601.042969 L 336.296875 603.09375 L 337.410156 605.257812 L 338.03125 607.5 L 338.140625 608.902344 L 337.839844 611.226562 L 336.976562 613.507812 L 335.640625 615.683594 L 333.964844 617.730469 L 332.105469 619.664062 L 330.195312 621.554688 L 328.195312 623.378906 L 326.066406 625.039062 L 323.832031 626.421875 L 321.542969 627.445312 Z M 320.808594 627.683594 "/>
<path style=" stroke:none;fill-rule:nonzero;fill:rgb(95.686275%,95.686275%,95.686275%);fill-opacity:1;" d="M 368.289062 557.746094 L 366.339844 557.226562 L 364.371094 556.292969 L 362.425781 555.007812 L 360.546875 553.460938 L 358.746094 551.761719 L 356.988281 550.007812 L 355.285156 548.203125 L 353.761719 546.292969 L 352.542969 544.269531 L 351.726562 542.160156 L 351.394531 540.011719 L 351.386719 539.679688 L 351.667969 537.429688 L 352.476562 535.222656 L 353.734375 533.105469 L 355.324219 531.113281 L 357.105469 529.234375 L 360.835938 525.503906 L 362.8125 523.539062 L 364.851562 521.519531 L 366.90625 519.496094 L 368.289062 518.140625 L 370.464844 516.023438 L 372.519531 514.035156 L 374.410156 512.21875 L 376.128906 510.578125 L 377.730469 509.054688 L 379.359375 507.597656 L 381.128906 506.347656 L 383.082031 505.480469 L 385.1875 505.121094 L 386.683594 505.203125 L 388.636719 505.714844 L 390.613281 506.640625 L 392.566406 507.925781 L 394.457031 509.476562 L 396.269531 511.183594 L 398.039062 512.949219 L 399.75 514.761719 L 401.289062 516.679688 L 402.53125 518.710938 L 403.363281 520.828125 L 403.71875 522.992188 L 403.730469 523.414062 L 403.449219 525.675781 L 402.636719 527.894531 L 401.375 530.023438 L 399.78125 532.03125 L 397.992188 533.925781 L 396.140625 535.773438 L 394.242188 537.671875 L 392.257812 539.640625 L 390.210938 541.65625 L 388.148438 543.671875 L 386.683594 545.09375 L 384.492188 547.203125 L 382.425781 549.171875 L 380.523438 550.960938 L 378.800781 552.570312 L 377.191406 554.058594 L 375.558594 555.480469 L 373.777344 556.691406 L 371.816406 557.519531 L 369.707031 557.84375 Z M 368.289062 557.746094 "/>
<path style=" stroke:none;fill-rule:nonzero;fill:rgb(95.686275%,95.686275%,95.686275%);fill-opacity:1;" d="M 172.703125 216.257812 L 170.46875 215.359375 L 168.140625 214.023438 L 165.773438 212.316406 L 163.429688 210.332031 L 161.136719 208.175781 L 158.894531 205.949219 L 156.6875 203.6875 L 154.636719 201.316406 L 152.886719 198.804688 L 151.570312 196.167969 L 150.792969 193.453125 L 150.597656 191.292969 L 150.886719 188.648438 L 151.726562 186.039062 L 153.054688 183.511719 L 154.769531 181.101562 L 156.757812 178.820312 L 158.886719 176.640625 L 161.050781 174.480469 L 163.257812 172.277344 L 165.515625 170.042969 L 167.792969 167.796875 L 170.046875 165.601562 L 172.226562 163.496094 L 172.703125 163.039062 L 174.980469 160.875 L 177.074219 158.914062 L 178.957031 157.183594 L 180.617188 155.683594 L 182.109375 154.355469 L 183.53125 153.105469 L 185.039062 151.957031 L 186.726562 151.054688 L 188.632812 150.542969 L 190.75 150.511719 L 192.765625 150.929688 L 195 151.828125 L 197.328125 153.160156 L 199.695312 154.867188 L 202.039062 156.851562 L 204.332031 159.007812 L 206.574219 161.234375 L 208.78125 163.5 L 210.832031 165.871094 L 212.582031 168.382812 L 213.898438 171.015625 L 214.675781 173.730469 L 214.871094 175.894531 L 214.582031 178.539062 L 213.742188 181.144531 L 212.414062 183.675781 L 210.699219 186.082031 L 208.710938 188.363281 L 206.582031 190.542969 L 204.417969 192.707031 L 202.210938 194.90625 L 199.953125 197.144531 L 197.675781 199.386719 L 195.421875 201.585938 L 193.242188 203.6875 L 192.765625 204.148438 L 190.488281 206.3125 L 188.394531 208.269531 L 186.511719 210 L 184.851562 211.503906 L 183.359375 212.828125 L 181.9375 214.078125 L 180.429688 215.230469 L 178.742188 216.128906 L 176.835938 216.644531 L 174.71875 216.675781 Z M 172.703125 216.257812 "/>
<path style=" stroke:none;fill-rule:nonzero;fill:rgb(95.686275%,95.686275%,95.686275%);fill-opacity:1;" d="M 506.085938 151.316406 L 503.742188 151.621094 L 501.472656 151.429688 L 499.335938 150.816406 L 497.355469 149.898438 L 495.488281 148.832031 L 493.601562 147.710938 L 491.582031 146.4375 L 489.402344 144.957031 L 487.101562 143.269531 L 485.347656 141.902344 L 483.167969 140.097656 L 481.007812 138.203125 L 478.917969 136.273438 L 476.929688 134.363281 L 475.042969 132.496094 L 473.203125 130.644531 L 471.457031 128.71875 L 469.953125 126.671875 L 468.824219 124.507812 L 468.175781 122.269531 L 468.050781 120.75 L 468.304688 118.609375 L 469.035156 116.503906 L 470.183594 114.476562 L 471.648438 112.558594 L 473.3125 110.746094 L 475.050781 108.996094 L 476.832031 107.28125 L 478.707031 105.667969 L 480.671875 104.253906 L 482.710938 103.125 L 484.769531 102.34375 L 485.347656 102.195312 L 487.695312 101.90625 L 489.96875 102.121094 L 492.101562 102.757812 L 494.082031 103.707031 L 495.941406 104.804688 L 497.824219 105.960938 L 499.835938 107.261719 L 502 108.761719 L 504.289062 110.464844 L 506.085938 111.886719 L 508.261719 113.703125 L 510.414062 115.605469 L 512.5 117.535156 L 514.476562 119.4375 L 516.351562 121.296875 L 518.179688 123.136719 L 519.910156 125.054688 L 521.398438 127.09375 L 522.507812 129.246094 L 523.132812 131.476562 L 523.246094 132.898438 L 522.992188 135.027344 L 522.261719 137.121094 L 521.117188 139.136719 L 519.660156 141.042969 L 518.003906 142.839844 L 516.269531 144.582031 L 514.496094 146.285156 L 512.632812 147.886719 L 510.667969 149.292969 L 508.636719 150.414062 L 506.582031 151.1875 Z M 506.085938 151.316406 "/>
<path style=" stroke:none;fill-rule:nonzero;fill:rgb(95.686275%,95.686275%,95.686275%);fill-opacity:1;" d="M 615.898438 446.765625 L 613.585938 446.472656 L 611.320312 445.625 L 609.148438 444.3125 L 607.109375 442.664062 L 605.183594 440.824219 L 603.296875 438.929688 L 601.441406 436.949219 L 599.675781 434.835938 L 598.089844 432.597656 L 596.761719 430.285156 L 596.21875 429.132812 L 595.320312 426.625 L 594.800781 424.164062 L 594.621094 421.820312 L 594.710938 419.621094 L 594.9375 417.539062 L 595.226562 415.433594 L 595.683594 413.195312 L 596.40625 410.800781 L 597.445312 408.292969 L 598.464844 406.320312 L 599.902344 404 L 601.554688 401.714844 L 603.359375 399.519531 L 605.246094 397.445312 L 607.15625 395.488281 L 609.066406 393.585938 L 611.050781 391.773438 L 613.15625 390.195312 L 615.386719 388.992188 L 617.699219 388.28125 L 619.492188 388.109375 L 621.851562 388.40625 L 624.171875 389.257812 L 626.394531 390.582031 L 628.488281 392.257812 L 630.464844 394.128906 L 632.390625 396.0625 L 634.289062 398.070312 L 636.089844 400.207031 L 637.703125 402.460938 L 639.046875 404.785156 L 639.746094 406.320312 L 640.578125 408.863281 L 640.996094 411.34375 L 641.046875 413.699219 L 640.816406 415.894531 L 640.4375 417.976562 L 640 420.066406 L 639.40625 422.289062 L 638.566406 424.652344 L 637.445312 427.121094 L 636.339844 429.132812 L 634.855469 431.441406 L 633.179688 433.699219 L 631.375 435.855469 L 629.511719 437.886719 L 627.640625 439.792969 L 625.769531 441.652344 L 623.820312 443.410156 L 621.742188 444.917969 L 619.550781 446.035156 L 617.285156 446.65625 Z M 615.898438 446.765625 "/>
<path style=" stroke:none;fill-rule:nonzero;fill:rgb(95.686275%,95.686275%,95.686275%);fill-opacity:1;" d="M 424.511719 630.554688 L 422.046875 631.144531 L 419.632812 631.300781 L 417.328125 631.082031 L 415.167969 630.582031 L 413.121094 629.9375 L 411.0625 629.234375 L 408.878906 628.382812 L 406.550781 627.308594 L 404.121094 625.988281 L 402.078125 624.710938 L 399.796875 623.105469 L 397.5625 621.351562 L 395.425781 619.503906 L 393.417969 617.632812 L 391.527344 615.773438 L 389.6875 613.917969 L 387.949219 611.988281 L 386.457031 609.933594 L 385.351562 607.761719 L 384.742188 605.515625 L 384.640625 604.160156 L 384.9375 601.84375 L 385.792969 599.574219 L 387.121094 597.402344 L 388.785156 595.363281 L 390.636719 593.441406 L 392.535156 591.554688 L 394.53125 589.726562 L 396.664062 588.042969 L 398.914062 586.605469 L 401.234375 585.503906 L 402.078125 585.203125 L 404.542969 584.617188 L 406.957031 584.464844 L 409.261719 584.691406 L 411.421875 585.199219 L 413.46875 585.851562 L 415.527344 586.5625 L 417.710938 587.417969 L 420.035156 588.5 L 422.460938 589.824219 L 424.511719 591.105469 L 426.789062 592.714844 L 429.023438 594.472656 L 431.160156 596.316406 L 433.164062 598.1875 L 435.050781 600.046875 L 436.890625 601.898438 L 438.625 603.828125 L 440.113281 605.878906 L 441.214844 608.050781 L 441.820312 610.292969 L 441.917969 611.628906 L 441.621094 613.941406 L 440.765625 616.207031 L 439.4375 618.375 L 437.773438 620.414062 L 435.925781 622.335938 L 434.027344 624.21875 L 432.035156 626.046875 L 429.902344 627.726562 L 427.652344 629.160156 L 425.332031 630.257812 Z M 424.511719 630.554688 "/>
<path style=" stroke:none;fill-rule:nonzero;fill:rgb(95.686275%,95.686275%,95.686275%);fill-opacity:1;" d="M 483.769531 558.507812 L 481.40625 558.214844 L 479.085938 557.367188 L 476.859375 556.050781 L 474.761719 554.382812 L 472.78125 552.515625 L 470.855469 550.582031 L 468.945312 548.574219 L 467.117188 546.4375 L 465.445312 544.171875 L 464.011719 541.820312 L 463.148438 540.0625 L 462.207031 537.484375 L 461.640625 534.957031 L 461.425781 532.539062 L 461.480469 530.277344 L 461.6875 528.132812 L 461.949219 525.984375 L 462.359375 523.71875 L 463.007812 521.320312 L 463.941406 518.824219 L 465.078125 516.476562 L 466.480469 514.125 L 468.09375 511.835938 L 469.863281 509.660156 L 471.707031 507.628906 L 473.570312 505.722656 L 475.4375 503.871094 L 477.386719 502.125 L 479.460938 500.632812 L 481.652344 499.535156 L 483.917969 498.9375 L 485.1875 498.847656 L 487.476562 499.136719 L 489.726562 499.972656 L 491.878906 501.273438 L 493.902344 502.90625 L 495.808594 504.730469 L 497.679688 506.609375 L 499.53125 508.574219 L 501.316406 510.683594 L 502.957031 512.929688 L 504.375 515.265625 L 504.996094 516.476562 L 506.03125 519.003906 L 506.734375 521.5 L 507.128906 523.894531 L 507.273438 526.152344 L 507.277344 528.300781 L 507.226562 530.453125 L 507.015625 532.730469 L 506.539062 535.160156 L 505.734375 537.703125 L 504.695312 540.0625 L 503.363281 542.4375 L 501.78125 544.761719 L 500.011719 546.988281 L 498.136719 549.082031 L 496.21875 551.054688 L 494.292969 552.972656 L 492.300781 554.800781 L 490.179688 556.390625 L 487.9375 557.605469 L 485.609375 558.332031 Z M 483.769531 558.507812 "/>
<path style=" stroke:none;fill-rule:nonzero;fill:rgb(95.686275%,95.686275%,95.686275%);fill-opacity:1;" d="M 203.464844 571.007812 L 201.15625 569.988281 L 198.886719 568.625 L 196.714844 566.996094 L 194.671875 565.191406 L 192.742188 563.3125 L 190.863281 561.410156 L 189.105469 559.414062 L 187.625 557.289062 L 186.566406 555.046875 L 186.039062 552.738281 L 185.988281 551.804688 L 186.277344 549.527344 L 187.101562 547.292969 L 188.382812 545.152344 L 190 543.136719 L 191.808594 541.234375 L 193.671875 539.375 L 195.613281 537.503906 L 197.679688 535.640625 L 199.855469 533.84375 L 202.105469 532.183594 L 203.464844 531.273438 L 205.9375 529.808594 L 208.347656 528.613281 L 210.636719 527.6875 L 212.769531 526.980469 L 214.792969 526.40625 L 216.839844 525.894531 L 219.019531 525.566406 L 221.347656 525.554688 L 223.78125 525.933594 L 225.496094 526.453125 L 227.800781 527.480469 L 230.066406 528.84375 L 232.230469 530.476562 L 234.269531 532.273438 L 236.191406 534.148438 L 238.066406 536.046875 L 239.816406 538.035156 L 241.285156 540.15625 L 242.332031 542.394531 L 242.847656 544.695312 L 242.886719 545.574219 L 242.601562 547.84375 L 241.777344 550.070312 L 240.5 552.203125 L 238.882812 554.214844 L 237.082031 556.105469 L 235.222656 557.960938 L 233.285156 559.828125 L 231.226562 561.6875 L 229.050781 563.484375 L 226.804688 565.148438 L 225.496094 566.023438 L 223.03125 567.496094 L 220.625 568.703125 L 218.339844 569.652344 L 216.207031 570.375 L 214.1875 570.972656 L 212.140625 571.507812 L 209.964844 571.855469 L 207.632812 571.890625 L 205.199219 571.523438 Z M 203.464844 571.007812 "/>
<path style="fill:none;stroke-width:0.75;stroke-linecap:round;stroke-linejoin:round;stroke:rgb(66.27451%,66.27451%,66.27451%);stroke-opacity:1;stroke-miterlimit:10;" d="M 610.851562 289.613281 L 615.847656 305.484375 "/>
<path style="fill:none;stroke-width:0.75;stroke-linecap:round;stroke-linejoin:round;stroke:rgb(66.27451%,66.27451%,66.27451%);stroke-opacity:1;stroke-miterlimit:10;" d="M 610.402344 282.847656 L 612.238281 272.308594 "/>
<path style="fill:none;stroke-width:0.75;stroke-linecap:round;stroke-linejoin:round;stroke:rgb(66.27451%,66.27451%,66.27451%);stroke-opacity:1;stroke-miterlimit:10;" d="M 519.296875 400.703125 L 529.621094 413.761719 "/>
<path style="fill:none;stroke-width:0.75;stroke-linecap:round;stroke-linejoin:round;stroke:rgb(66.27451%,66.27451%,66.27451%);stroke-opacity:1;stroke-miterlimit:10;" d="M 395.574219 94.640625 L 407.039062 98.664062 "/>
<path style="fill:none;stroke-width:0.75;stroke-linecap:round;stroke-linejoin:round;stroke:rgb(66.27451%,66.27451%,66.27451%);stroke-opacity:1;stroke-miterlimit:10;" d="M 436.898438 109.226562 L 427.765625 105.980469 "/>
<path style="fill:none;stroke-width:0.75;stroke-linecap:round;stroke-linejoin:round;stroke:rgb(66.27451%,66.27451%,66.27451%);stroke-opacity:1;stroke-miterlimit:10;" d="M 630.964844 354.542969 L 614.558594 360.699219 "/>
<path style="fill:none;stroke-width:0.75;stroke-linecap:round;stroke-linejoin:round;stroke:rgb(66.27451%,66.27451%,66.27451%);stroke-opacity:1;stroke-miterlimit:10;" d="M 568.710938 249.316406 L 573.660156 232.527344 "/>
<path style="fill:none;stroke-width:0.75;stroke-linecap:round;stroke-linejoin:round;stroke:rgb(66.27451%,66.27451%,66.27451%);stroke-opacity:1;stroke-miterlimit:10;" d="M 313.4375 99.085938 L 329.050781 95.855469 "/>
<path style="fill:none;stroke-width:0.75;stroke-linecap:round;stroke-linejoin:round;stroke:rgb(66.27451%,66.27451%,66.27451%);stroke-opacity:1;stroke-miterlimit:10;" d="M 296.957031 156.851562 L 290.28125 147.839844 "/>
<path style="fill:none;stroke-width:0.75;stroke-linecap:round;stroke-linejoin:round;stroke:rgb(66.27451%,66.27451%,66.27451%);stroke-opacity:1;stroke-miterlimit:10;" d="M 514.550781 180.628906 L 519.992188 185.640625 "/>
<path style="fill:none;stroke-width:0.75;stroke-linecap:round;stroke-linejoin:round;stroke:rgb(66.27451%,66.27451%,66.27451%);stroke-opacity:1;stroke-miterlimit:10;" d="M 185.273438 294.011719 L 188.992188 290.355469 "/>
<path style="fill:none;stroke-width:0.75;stroke-linecap:round;stroke-linejoin:round;stroke:rgb(66.27451%,66.27451%,66.27451%);stroke-opacity:1;stroke-miterlimit:10;" d="M 134.089844 417.402344 L 136.117188 434.597656 "/>
<path style="fill:none;stroke-width:0.75;stroke-linecap:round;stroke-linejoin:round;stroke:rgb(66.27451%,66.27451%,66.27451%);stroke-opacity:1;stroke-miterlimit:10;" d="M 128.5625 403.246094 L 118.945312 389.980469 "/>
<path style="fill:none;stroke-width:0.75;stroke-linecap:round;stroke-linejoin:round;stroke:rgb(66.27451%,66.27451%,66.27451%);stroke-opacity:1;stroke-miterlimit:10;" d="M 139.289062 404.679688 L 146.757812 398.671875 "/>
<path style="fill:none;stroke-width:0.75;stroke-linecap:round;stroke-linejoin:round;stroke:rgb(66.27451%,66.27451%,66.27451%);stroke-opacity:1;stroke-miterlimit:10;" d="M 595.40625 469.675781 L 586.484375 485.390625 "/>
<path style="fill:none;stroke-width:0.75;stroke-linecap:round;stroke-linejoin:round;stroke:rgb(66.27451%,66.27451%,66.27451%);stroke-opacity:1;stroke-miterlimit:10;" d="M 564.582031 492.566406 L 582.261719 488.53125 "/>
<path style="fill:none;stroke-width:0.75;stroke-linecap:round;stroke-linejoin:round;stroke:rgb(66.27451%,66.27451%,66.27451%);stroke-opacity:1;stroke-miterlimit:10;" d="M 306.285156 519.242188 L 308.820312 533.460938 "/>
<path style="fill:none;stroke-width:0.75;stroke-linecap:round;stroke-linejoin:round;stroke:rgb(66.27451%,66.27451%,66.27451%);stroke-opacity:1;stroke-miterlimit:10;" d="M 318.269531 607.820312 L 301.957031 600.667969 "/>
<path style="fill:none;stroke-width:0.75;stroke-linecap:round;stroke-linejoin:round;stroke:rgb(66.27451%,66.27451%,66.27451%);stroke-opacity:1;stroke-miterlimit:10;" d="M 384.015625 525.414062 L 370.78125 537.824219 "/>
<path style="fill:none;stroke-width:0.75;stroke-linecap:round;stroke-linejoin:round;stroke:rgb(66.27451%,66.27451%,66.27451%);stroke-opacity:1;stroke-miterlimit:10;" d="M 181.082031 185.054688 L 184.386719 182.132812 "/>
<path style="fill:none;stroke-width:0.75;stroke-linecap:round;stroke-linejoin:round;stroke:rgb(66.27451%,66.27451%,66.27451%);stroke-opacity:1;stroke-miterlimit:10;" d="M 487.972656 122.195312 L 503.660156 131.558594 "/>
<path style="fill:none;stroke-width:0.75;stroke-linecap:round;stroke-linejoin:round;stroke:rgb(66.27451%,66.27451%,66.27451%);stroke-opacity:1;stroke-miterlimit:10;" d="M 616.351562 426.289062 L 618.902344 410.097656 "/>
<path style="fill:none;stroke-width:0.75;stroke-linecap:round;stroke-linejoin:round;stroke:rgb(66.27451%,66.27451%,66.27451%);stroke-opacity:1;stroke-miterlimit:10;" d="M 404.589844 605.007812 L 422.042969 610.792969 "/>
<path style="fill:none;stroke-width:0.75;stroke-linecap:round;stroke-linejoin:round;stroke:rgb(66.27451%,66.27451%,66.27451%);stroke-opacity:1;stroke-miterlimit:10;" d="M 485.023438 519.074219 L 484.007812 536.144531 "/>
<path style="fill:none;stroke-width:0.75;stroke-linecap:round;stroke-linejoin:round;stroke:rgb(66.27451%,66.27451%,66.27451%);stroke-opacity:1;stroke-miterlimit:10;" d="M 206.214844 551.035156 L 222.875 546.3125 "/>
<path style="fill:none;stroke-width:0.75;stroke-linecap:round;stroke-linejoin:round;stroke:rgb(66.27451%,66.27451%,66.27451%);stroke-opacity:1;stroke-miterlimit:10;" d="M 576.40625 223.203125 L 580.082031 210.679688 "/>
<path style=" stroke:none;fill-rule:nonzero;fill:rgb(3.137255%,81.960784%,81.960784%);fill-opacity:1;" d="M 416.988281 561.277344 C 416.988281 565.042969 411.335938 565.042969 411.335938 561.277344 C 411.335938 557.511719 416.988281 557.511719 416.988281 561.277344 "/>
<path style=" stroke:none;fill-rule:nonzero;fill:rgb(3.137255%,81.960784%,81.960784%);fill-opacity:1;" d="M 439.285156 520.777344 C 439.285156 525.472656 432.238281 525.472656 432.238281 520.777344 C 432.238281 516.078125 439.285156 516.078125 439.285156 520.777344 "/>
<path style=" stroke:none;fill-rule:nonzero;fill:rgb(3.137255%,81.960784%,81.960784%);fill-opacity:1;" d="M 192.644531 232.605469 C 192.644531 236.421875 186.917969 236.421875 186.917969 232.605469 C 186.917969 228.789062 192.644531 228.789062 192.644531 232.605469 "/>
<path style=" stroke:none;fill-rule:nonzero;fill:rgb(3.137255%,81.960784%,81.960784%);fill-opacity:1;" d="M 613.292969 286.285156 C 613.292969 290.9375 606.316406 290.9375 606.316406 286.285156 C 606.316406 281.632812 613.292969 281.632812 613.292969 286.285156 "/>
<path style=" stroke:none;fill-rule:nonzero;fill:rgb(3.137255%,81.960784%,81.960784%);fill-opacity:1;" d="M 520.824219 397.554688 C 520.824219 402.90625 512.792969 402.90625 512.792969 397.554688 C 512.792969 392.199219 520.824219 392.199219 520.824219 397.554688 "/>
<path style=" stroke:none;fill-rule:nonzero;fill:rgb(3.137255%,81.960784%,81.960784%);fill-opacity:1;" d="M 134.78125 290.542969 C 134.78125 297.28125 129.316406 302.746094 122.578125 302.746094 C 115.839844 302.746094 110.375 297.28125 110.375 290.542969 C 110.375 283.804688 115.839844 278.339844 122.578125 278.339844 C 129.316406 278.339844 134.78125 283.804688 134.78125 290.542969 "/>
<path style=" stroke:none;fill-rule:nonzero;fill:rgb(3.137255%,81.960784%,81.960784%);fill-opacity:1;" d="M 235.722656 250.023438 C 235.722656 254.285156 229.328125 254.285156 229.328125 250.023438 C 229.328125 245.761719 235.722656 245.761719 235.722656 250.023438 "/>
<path style=" stroke:none;fill-rule:nonzero;fill:rgb(3.137255%,81.960784%,81.960784%);fill-opacity:1;" d="M 576.902344 413.507812 C 576.902344 417.035156 571.609375 417.035156 571.609375 413.507812 C 571.609375 409.980469 576.902344 409.980469 576.902344 413.507812 "/>
<path style=" stroke:none;fill-rule:nonzero;fill:rgb(3.137255%,81.960784%,81.960784%);fill-opacity:1;" d="M 395.726562 93.753906 C 395.726562 97.328125 390.363281 97.328125 390.363281 93.753906 C 390.363281 90.175781 395.726562 90.175781 395.726562 93.753906 "/>
<path style=" stroke:none;fill-rule:nonzero;fill:rgb(3.137255%,81.960784%,81.960784%);fill-opacity:1;" d="M 443.308594 110.332031 C 443.308594 114.734375 436.707031 114.734375 436.707031 110.332031 C 436.707031 105.933594 443.308594 105.933594 443.308594 110.332031 "/>
<path style=" stroke:none;fill-rule:nonzero;fill:rgb(3.137255%,81.960784%,81.960784%);fill-opacity:1;" d="M 636.101562 353.609375 C 636.101562 357.148438 630.792969 357.148438 630.792969 353.609375 C 630.792969 350.070312 636.101562 350.070312 636.101562 353.609375 "/>
<path style=" stroke:none;fill-rule:nonzero;fill:rgb(3.137255%,81.960784%,81.960784%);fill-opacity:1;" d="M 570.816406 252.132812 C 570.816406 256.050781 564.941406 256.050781 564.941406 252.132812 C 564.941406 248.21875 570.816406 248.21875 570.816406 252.132812 "/>
<path style=" stroke:none;fill-rule:nonzero;fill:rgb(3.137255%,81.960784%,81.960784%);fill-opacity:1;" d="M 229.230469 420.492188 C 229.230469 427.234375 219.121094 427.234375 219.121094 420.492188 C 219.121094 413.753906 229.230469 413.753906 229.230469 420.492188 "/>
<path style=" stroke:none;fill-rule:nonzero;fill:rgb(3.137255%,81.960784%,81.960784%);fill-opacity:1;" d="M 313.496094 99.675781 C 313.496094 103.535156 307.707031 103.535156 307.707031 99.675781 C 307.707031 95.8125 313.496094 95.8125 313.496094 99.675781 "/>
<path style=" stroke:none;fill-rule:nonzero;fill:rgb(3.137255%,81.960784%,81.960784%);fill-opacity:1;" d="M 301.660156 159.21875 C 301.660156 163.144531 295.765625 163.144531 295.765625 159.21875 C 295.765625 155.289062 301.660156 155.289062 301.660156 159.21875 "/>
<path style=" stroke:none;fill-rule:nonzero;fill:rgb(3.137255%,81.960784%,81.960784%);fill-opacity:1;" d="M 319.453125 276.953125 C 319.453125 280.660156 313.894531 280.660156 313.894531 276.953125 C 313.894531 273.246094 319.453125 273.246094 319.453125 276.953125 "/>
<path style=" stroke:none;fill-rule:nonzero;fill:rgb(3.137255%,81.960784%,81.960784%);fill-opacity:1;" d="M 515.367188 178.539062 C 515.367188 182.652344 509.199219 182.652344 509.199219 178.539062 C 509.199219 174.429688 515.367188 174.429688 515.367188 178.539062 "/>
<path style=" stroke:none;fill-rule:nonzero;fill:rgb(3.137255%,81.960784%,81.960784%);fill-opacity:1;" d="M 516.738281 237.390625 C 516.738281 241.578125 513.34375 244.972656 509.15625 244.972656 C 504.96875 244.972656 501.570312 241.578125 501.570312 237.390625 C 501.570312 233.199219 504.96875 229.804688 509.15625 229.804688 C 513.34375 229.804688 516.738281 233.199219 516.738281 237.390625 "/>
<path style=" stroke:none;fill-rule:nonzero;fill:rgb(3.137255%,81.960784%,81.960784%);fill-opacity:1;" d="M 494.40625 592.738281 C 494.40625 596.808594 491.109375 600.105469 487.039062 600.105469 C 482.972656 600.105469 479.671875 596.808594 479.671875 592.738281 C 479.671875 588.671875 482.972656 585.371094 487.039062 585.371094 C 491.109375 585.371094 494.40625 588.671875 494.40625 592.738281 "/>
<path style=" stroke:none;fill-rule:nonzero;fill:rgb(18.039216%,73.72549%,50.980392%);fill-opacity:1;" d="M 187.324219 299.019531 C 187.324219 302.964844 184.125 306.160156 180.179688 306.160156 C 176.238281 306.160156 173.039062 302.964844 173.039062 299.019531 C 173.039062 295.074219 176.238281 291.878906 180.179688 291.878906 C 184.125 291.878906 187.324219 295.074219 187.324219 299.019531 "/>
<path style=" stroke:none;fill-rule:nonzero;fill:rgb(18.039216%,56.862745%,73.72549%);fill-opacity:1;" d="M 270.464844 325.175781 L 291.1875 325.175781 L 291.1875 345.898438 L 270.464844 345.898438 Z M 270.464844 325.175781 "/>
<path style=" stroke:none;fill-rule:nonzero;fill:rgb(18.039216%,35.294118%,73.72549%);fill-opacity:1;" d="M 550.8125 529.316406 L 571.535156 529.316406 L 571.535156 550.039062 L 550.8125 550.039062 Z M 550.8125 529.316406 "/>
<path style=" stroke:none;fill-rule:nonzero;fill:rgb(18.039216%,35.294118%,73.72549%);fill-opacity:1;" d="M 491.992188 295.058594 C 491.992188 299.878906 484.757812 299.878906 484.757812 295.058594 C 484.757812 290.238281 491.992188 290.238281 491.992188 295.058594 "/>
<path style=" stroke:none;fill-rule:nonzero;fill:rgb(18.039216%,35.294118%,73.72549%);fill-opacity:1;" d="M 536.074219 275.464844 C 536.074219 279.140625 530.554688 279.140625 530.554688 275.464844 C 530.554688 271.785156 536.074219 271.785156 536.074219 275.464844 "/>
<path style=" stroke:none;fill-rule:nonzero;fill:rgb(18.039216%,35.294118%,73.72549%);fill-opacity:1;" d="M 141.023438 409.605469 C 141.023438 413.941406 137.507812 417.457031 133.171875 417.457031 C 128.832031 417.457031 125.316406 413.941406 125.316406 409.605469 C 125.316406 405.269531 128.832031 401.75 133.171875 401.75 C 137.507812 401.75 141.023438 405.269531 141.023438 409.605469 "/>
<path style=" stroke:none;fill-rule:nonzero;fill:rgb(18.039216%,35.294118%,73.72549%);fill-opacity:1;" d="M 599.550781 467.261719 C 599.550781 470.960938 594 470.960938 594 467.261719 C 594 463.558594 599.550781 463.558594 599.550781 467.261719 "/>
<path style=" stroke:none;fill-rule:nonzero;fill:rgb(18.039216%,35.294118%,73.72549%);fill-opacity:1;" d="M 564.652344 493.175781 C 564.652344 496.824219 559.175781 496.824219 559.175781 493.175781 C 559.175781 489.523438 564.652344 489.523438 564.652344 493.175781 "/>
<path style=" stroke:none;fill-rule:nonzero;fill:rgb(3.529412%,80.784314%,55.294118%);fill-opacity:1;" d="M 620.570312 308.949219 C 620.570312 313.789062 613.308594 313.789062 613.308594 308.949219 C 613.308594 304.105469 620.570312 304.105469 620.570312 308.949219 "/>
<path style=" stroke:none;fill-rule:nonzero;fill:rgb(3.529412%,44.705882%,39.607843%);fill-opacity:1;" d="M 272.675781 288.496094 C 272.675781 291.984375 267.445312 291.984375 267.445312 288.496094 C 267.445312 285.007812 272.675781 285.007812 272.675781 288.496094 "/>
<path style=" stroke:none;fill-rule:nonzero;fill:rgb(3.529412%,44.705882%,39.607843%);fill-opacity:1;" d="M 309.078125 515.90625 C 309.078125 520.421875 302.304688 520.421875 302.304688 515.90625 C 302.304688 511.390625 309.078125 511.390625 309.078125 515.90625 "/>
<path style=" stroke:none;fill-rule:nonzero;fill:rgb(3.529412%,44.705882%,39.607843%);fill-opacity:1;" d="M 293.8125 140.824219 C 293.8125 145.648438 289.902344 149.558594 285.082031 149.558594 C 280.257812 149.558594 276.351562 145.648438 276.351562 140.824219 C 276.351562 136.003906 280.257812 132.09375 285.082031 132.09375 C 289.902344 132.09375 293.8125 136.003906 293.8125 140.824219 "/>
<path style=" stroke:none;fill-rule:nonzero;fill:rgb(67.058824%,33.72549%,84.705882%);fill-opacity:1;" d="M 346.488281 572.695312 C 346.488281 576.929688 340.136719 576.929688 340.136719 572.695312 C 340.136719 568.460938 346.488281 568.460938 346.488281 572.695312 "/>
<path style=" stroke:none;fill-rule:nonzero;fill:rgb(67.058824%,33.72549%,84.705882%);fill-opacity:1;" d="M 466.5625 251.566406 C 466.5625 255.496094 460.667969 255.496094 460.667969 251.566406 C 460.667969 247.636719 466.5625 247.636719 466.5625 251.566406 "/>
<path style=" stroke:none;fill-rule:nonzero;fill:rgb(67.058824%,33.72549%,84.705882%);fill-opacity:1;" d="M 533.25 463.710938 C 533.25 467.21875 527.984375 467.21875 527.984375 463.710938 C 527.984375 460.199219 533.25 460.199219 533.25 463.710938 "/>
<path style=" stroke:none;fill-rule:nonzero;fill:rgb(67.058824%,33.72549%,84.705882%);fill-opacity:1;" d="M 323.4375 608.902344 C 323.4375 612.5 318.042969 612.5 318.042969 608.902344 C 318.042969 605.304688 323.4375 605.304688 323.4375 608.902344 "/>
<path style=" stroke:none;fill-rule:nonzero;fill:rgb(3.921569%,62.745098%,12.156863%);fill-opacity:1;" d="M 217.949219 192.234375 L 238.671875 192.234375 L 238.671875 212.957031 L 217.949219 212.957031 Z M 217.949219 192.234375 "/>
<path style=" stroke:none;fill-rule:nonzero;fill:rgb(3.921569%,62.745098%,12.156863%);fill-opacity:1;" d="M 443.488281 568.722656 L 464.210938 568.722656 L 464.210938 589.445312 L 443.488281 589.445312 Z M 443.488281 568.722656 "/>
<path style=" stroke:none;fill-rule:nonzero;fill:rgb(3.921569%,62.745098%,12.156863%);fill-opacity:1;" d="M 301.277344 378.222656 C 301.277344 381.804688 295.902344 381.804688 295.902344 378.222656 C 295.902344 374.640625 301.277344 374.640625 301.277344 378.222656 "/>
<path style=" stroke:none;fill-rule:nonzero;fill:rgb(3.921569%,62.745098%,12.156863%);fill-opacity:1;" d="M 533.894531 415.828125 C 533.894531 419.34375 528.621094 419.34375 528.621094 415.828125 C 528.621094 412.3125 533.894531 412.3125 533.894531 415.828125 "/>
<path style=" stroke:none;fill-rule:nonzero;fill:rgb(3.921569%,62.745098%,12.156863%);fill-opacity:1;" d="M 347.453125 136.570312 C 347.453125 143.691406 336.769531 143.691406 336.769531 136.570312 C 336.769531 129.449219 347.453125 129.449219 347.453125 136.570312 "/>
<path style=" stroke:none;fill-rule:nonzero;fill:rgb(3.921569%,62.745098%,12.156863%);fill-opacity:1;" d="M 389.078125 523.414062 C 389.078125 527.3125 383.222656 527.3125 383.222656 523.414062 C 383.222656 519.511719 389.078125 519.511719 389.078125 523.414062 "/>
<path style=" stroke:none;fill-rule:nonzero;fill:rgb(3.921569%,62.745098%,12.156863%);fill-opacity:1;" d="M 181.082031 165.53125 L 201.804688 165.53125 L 201.804688 186.253906 L 181.082031 186.253906 Z M 181.082031 165.53125 "/>
<path style=" stroke:none;fill-rule:nonzero;fill:rgb(3.921569%,62.745098%,12.156863%);fill-opacity:1;" d="M 336.886719 323.964844 C 336.886719 327.699219 331.285156 327.699219 331.285156 323.964844 C 331.285156 320.230469 336.886719 320.230469 336.886719 323.964844 "/>
<path style=" stroke:none;fill-rule:nonzero;fill:rgb(3.921569%,62.745098%,12.156863%);fill-opacity:1;" d="M 378.09375 348.429688 L 398.816406 348.429688 L 398.816406 369.152344 L 378.09375 369.152344 Z M 378.09375 348.429688 "/>
<path style=" stroke:none;fill-rule:nonzero;fill:rgb(3.921569%,62.745098%,12.156863%);fill-opacity:1;" d="M 133.339844 218.535156 L 154.0625 218.535156 L 154.0625 239.257812 L 133.339844 239.257812 Z M 133.339844 218.535156 "/>
<path style=" stroke:none;fill-rule:nonzero;fill:rgb(3.921569%,62.745098%,12.156863%);fill-opacity:1;" d="M 564.164062 367.886719 C 564.164062 371.4375 558.839844 371.4375 558.839844 367.886719 C 558.839844 364.335938 564.164062 364.335938 564.164062 367.886719 "/>
<path style=" stroke:none;fill-rule:nonzero;fill:rgb(3.921569%,62.745098%,12.156863%);fill-opacity:1;" d="M 255.664062 588.808594 C 255.664062 592.867188 249.578125 592.867188 249.578125 588.808594 C 249.578125 584.75 255.664062 584.75 255.664062 588.808594 "/>
<path style=" stroke:none;fill-rule:nonzero;fill:rgb(3.921569%,62.745098%,12.156863%);fill-opacity:1;" d="M 156.046875 265.65625 C 156.046875 268.789062 153.507812 271.324219 150.378906 271.324219 C 147.25 271.324219 144.714844 268.789062 144.714844 265.65625 C 144.714844 262.527344 147.25 259.992188 150.378906 259.992188 C 153.507812 259.992188 156.046875 262.527344 156.046875 265.65625 "/>
<path style=" stroke:none;fill-rule:nonzero;fill:rgb(3.921569%,62.745098%,12.156863%);fill-opacity:1;" d="M 529.117188 517.300781 C 529.117188 521.070312 523.460938 521.070312 523.460938 517.300781 C 523.460938 513.527344 529.117188 513.527344 529.117188 517.300781 "/>
<path style=" stroke:none;fill-rule:nonzero;fill:rgb(3.921569%,62.745098%,12.156863%);fill-opacity:1;" d="M 488.371094 120.75 C 488.371094 124.515625 482.726562 124.515625 482.726562 120.75 C 482.726562 116.988281 488.371094 116.988281 488.371094 120.75 "/>
<path style=" stroke:none;fill-rule:nonzero;fill:rgb(3.921569%,62.745098%,12.156863%);fill-opacity:1;" d="M 618.824219 429.183594 C 618.824219 433.085938 612.96875 433.085938 612.96875 429.183594 C 612.96875 425.277344 618.824219 425.277344 618.824219 429.183594 "/>
<path style=" stroke:none;fill-rule:nonzero;fill:rgb(3.921569%,62.745098%,12.156863%);fill-opacity:1;" d="M 614.726562 361.613281 C 614.726562 365.089844 609.511719 365.089844 609.511719 361.613281 C 609.511719 358.136719 614.726562 358.136719 614.726562 361.613281 "/>
<path style=" stroke:none;fill-rule:nonzero;fill:rgb(3.921569%,62.745098%,12.156863%);fill-opacity:1;" d="M 197.398438 393.496094 C 197.398438 397.683594 191.121094 397.683594 191.121094 393.496094 C 191.121094 389.3125 197.398438 389.3125 197.398438 393.496094 "/>
<path style=" stroke:none;fill-rule:nonzero;fill:rgb(3.921569%,62.745098%,12.156863%);fill-opacity:1;" d="M 404.726562 604.160156 C 404.726562 607.75 399.34375 607.75 399.34375 604.160156 C 399.34375 600.570312 404.726562 600.570312 404.726562 604.160156 "/>
<path style=" stroke:none;fill-rule:nonzero;fill:rgb(3.921569%,62.745098%,12.156863%);fill-opacity:1;" d="M 242.800781 317.074219 C 242.800781 322.746094 238.207031 327.339844 232.535156 327.339844 C 226.867188 327.339844 222.273438 322.746094 222.273438 317.074219 C 222.273438 311.40625 226.867188 306.808594 232.535156 306.808594 C 238.207031 306.808594 242.800781 311.40625 242.800781 317.074219 "/>
<path style=" stroke:none;fill-rule:nonzero;fill:rgb(3.921569%,62.745098%,12.156863%);fill-opacity:1;" d="M 186.878906 450.960938 C 186.878906 455.011719 180.800781 455.011719 180.800781 450.960938 C 180.800781 446.910156 186.878906 446.910156 186.878906 450.960938 "/>
<path style=" stroke:none;fill-rule:nonzero;fill:rgb(3.921569%,62.745098%,12.156863%);fill-opacity:1;" d="M 255.453125 119.125 C 255.453125 122.691406 250.101562 122.691406 250.101562 119.125 C 250.101562 115.558594 255.453125 115.558594 255.453125 119.125 "/>
<path style=" stroke:none;fill-rule:nonzero;fill:rgb(3.921569%,62.745098%,12.156863%);fill-opacity:1;" d="M 333.15625 477.394531 C 333.15625 481.34375 327.230469 481.34375 327.230469 477.394531 C 327.230469 473.445312 333.15625 473.445312 333.15625 477.394531 "/>
<path style=" stroke:none;fill-rule:nonzero;fill:rgb(3.921569%,62.745098%,12.156863%);fill-opacity:1;" d="M 207.933594 282.601562 C 207.933594 288.710938 202.984375 293.660156 196.878906 293.660156 C 190.773438 293.660156 185.820312 288.710938 185.820312 282.601562 C 185.820312 276.496094 190.773438 271.546875 196.878906 271.546875 C 202.984375 271.546875 207.933594 276.496094 207.933594 282.601562 "/>
<path style=" stroke:none;fill-rule:nonzero;fill:rgb(3.921569%,62.745098%,12.156863%);fill-opacity:1;" d="M 487.960938 516.308594 C 487.960938 520.003906 482.414062 520.003906 482.414062 516.308594 C 482.414062 512.609375 487.960938 512.609375 487.960938 516.308594 "/>
<path style=" stroke:none;fill-rule:nonzero;fill:rgb(3.921569%,62.745098%,12.156863%);fill-opacity:1;" d="M 206.320312 551.804688 C 206.320312 555.578125 200.664062 555.578125 200.664062 551.804688 C 200.664062 548.035156 206.320312 548.035156 206.320312 551.804688 "/>
<path style=" stroke:none;fill-rule:nonzero;fill:rgb(3.921569%,62.745098%,12.156863%);fill-opacity:1;" d="M 379.886719 269.792969 C 379.886719 276.945312 374.089844 282.746094 366.933594 282.746094 C 359.78125 282.746094 353.984375 276.945312 353.984375 269.792969 C 353.984375 262.640625 359.78125 256.839844 366.933594 256.839844 C 374.089844 256.839844 379.886719 262.640625 379.886719 269.792969 "/>
<path style=" stroke:none;fill-rule:nonzero;fill:rgb(3.921569%,62.745098%,12.156863%);fill-opacity:1;" d="M 154.488281 338.117188 C 154.488281 342.101562 148.515625 342.101562 148.515625 338.117188 C 148.515625 334.136719 154.488281 334.136719 154.488281 338.117188 "/>
<path style=" stroke:none;fill-rule:nonzero;fill:rgb(3.921569%,62.745098%,12.156863%);fill-opacity:1;" d="M 204.742188 493.585938 C 204.742188 497.484375 198.894531 497.484375 198.894531 493.585938 C 198.894531 489.683594 204.742188 489.683594 204.742188 493.585938 "/>
<path style=" stroke:none;fill-rule:nonzero;fill:rgb(3.921569%,62.745098%,12.156863%);fill-opacity:1;" d="M 305.722656 209.332031 C 305.722656 213.15625 299.984375 213.15625 299.984375 209.332031 C 299.984375 205.507812 305.722656 205.507812 305.722656 209.332031 "/>
<path style=" stroke:none;fill-rule:nonzero;fill:rgb(3.921569%,62.745098%,12.156863%);fill-opacity:1;" d="M 262.898438 182.746094 C 262.898438 187.519531 255.738281 187.519531 255.738281 182.746094 C 255.738281 177.972656 262.898438 177.972656 262.898438 182.746094 "/>
<path style=" stroke:none;fill-rule:nonzero;fill:rgb(3.921569%,62.745098%,12.156863%);fill-opacity:1;" d="M 470.351562 407.90625 C 470.351562 412.175781 463.945312 412.175781 463.945312 407.90625 C 463.945312 403.636719 470.351562 403.636719 470.351562 407.90625 "/>
<path style=" stroke:none;fill-rule:nonzero;fill:rgb(3.921569%,62.745098%,12.156863%);fill-opacity:1;" d="M 579.894531 227.867188 C 579.894531 234.34375 570.175781 234.34375 570.175781 227.867188 C 570.175781 221.386719 579.894531 221.386719 579.894531 227.867188 "/>
<path style=" stroke:none;fill-rule:nonzero;fill:rgb(3.921569%,62.745098%,12.156863%);fill-opacity:1;" d="M 623.273438 406.363281 C 623.273438 411.402344 615.707031 411.402344 615.707031 406.363281 C 615.707031 401.320312 623.273438 401.320312 623.273438 406.363281 "/>
<path style=" stroke:none;fill-rule:nonzero;fill:rgb(3.921569%,62.745098%,12.156863%);fill-opacity:1;" d="M 316.207031 539.648438 C 316.207031 543.121094 313.394531 545.933594 309.921875 545.933594 C 306.449219 545.933594 303.636719 543.121094 303.636719 539.648438 C 303.636719 536.175781 306.449219 533.363281 309.921875 533.363281 C 313.394531 533.363281 316.207031 536.175781 316.207031 539.648438 "/>
<path style=" stroke:none;fill-rule:nonzero;fill:rgb(3.921569%,62.745098%,12.156863%);fill-opacity:1;" d="M 348.242188 230.332031 C 348.242188 237.46875 337.53125 237.46875 337.53125 230.332031 C 337.53125 223.191406 348.242188 223.191406 348.242188 230.332031 "/>
<path style=" stroke:none;fill-rule:nonzero;fill:rgb(3.921569%,62.745098%,12.156863%);fill-opacity:1;" d="M 173.394531 517.765625 C 173.394531 521.371094 167.984375 521.371094 167.984375 517.765625 C 167.984375 514.15625 173.394531 514.15625 173.394531 517.765625 "/>
<path style=" stroke:none;fill-rule:nonzero;fill:rgb(3.921569%,62.745098%,12.156863%);fill-opacity:1;" d="M 588.519531 204.359375 C 588.519531 207.996094 585.570312 210.945312 581.933594 210.945312 C 578.296875 210.945312 575.347656 207.996094 575.347656 204.359375 C 575.347656 200.722656 578.296875 197.773438 581.933594 197.773438 C 585.570312 197.773438 588.519531 200.722656 588.519531 204.359375 "/>
<path style=" stroke:none;fill-rule:nonzero;fill:rgb(3.921569%,62.745098%,12.156863%);fill-opacity:1;" d="M 367.535156 422.378906 C 367.535156 425.890625 362.261719 425.890625 362.261719 422.378906 C 362.261719 418.863281 367.535156 418.863281 367.535156 422.378906 "/>
<path style=" stroke:none;fill-rule:nonzero;fill:rgb(15.294118%,28.627451%,27.058824%);fill-opacity:1;" d="M 413.753906 250.84375 C 413.753906 254.382812 408.441406 254.382812 408.441406 250.84375 C 408.441406 247.300781 413.753906 247.300781 413.753906 250.84375 "/>
<path style=" stroke:none;fill-rule:nonzero;fill:rgb(15.294118%,28.627451%,27.058824%);fill-opacity:1;" d="M 339.59375 94.777344 C 339.59375 101.878906 328.941406 101.878906 328.941406 94.777344 C 328.941406 87.675781 339.59375 87.675781 339.59375 94.777344 "/>
<path style=" stroke:none;fill-rule:nonzero;fill:rgb(15.294118%,28.627451%,27.058824%);fill-opacity:1;" d="M 281.816406 240.648438 C 281.816406 244.554688 278.648438 247.722656 274.742188 247.722656 C 270.835938 247.722656 267.667969 244.554688 267.667969 240.648438 C 267.667969 236.742188 270.835938 233.574219 274.742188 233.574219 C 278.648438 233.574219 281.816406 236.742188 281.816406 240.648438 "/>
<path style=" stroke:none;fill-rule:nonzero;fill:rgb(15.294118%,28.627451%,27.058824%);fill-opacity:1;" d="M 509.671875 351.292969 C 509.671875 354.285156 507.246094 356.707031 504.253906 356.707031 C 501.261719 356.707031 498.835938 354.285156 498.835938 351.292969 C 498.835938 348.300781 501.261719 345.875 504.253906 345.875 C 507.246094 345.875 509.671875 348.300781 509.671875 351.292969 "/>
<path style=" stroke:none;fill-rule:nonzero;fill:rgb(30.588235%,22.352941%,47.843137%);fill-opacity:1;" d="M 351.605469 179.507812 C 351.605469 184.539062 344.058594 184.539062 344.058594 179.507812 C 344.058594 174.476562 351.605469 174.476562 351.605469 179.507812 "/>
<path style=" stroke:none;fill-rule:nonzero;fill:rgb(70.196078%,14.901961%,35.686275%);fill-opacity:1;" d="M 157.519531 480.140625 C 157.519531 484.109375 154.300781 487.332031 150.328125 487.332031 C 146.355469 487.332031 143.136719 484.109375 143.136719 480.140625 C 143.136719 476.167969 146.355469 472.949219 150.328125 472.949219 C 154.300781 472.949219 157.519531 476.167969 157.519531 480.140625 "/>
<path style=" stroke:none;fill-rule:nonzero;fill:rgb(18.039216%,73.72549%,27.058824%);fill-opacity:1;" d="M 226.015625 146.816406 C 226.015625 151.140625 219.527344 151.140625 219.527344 146.816406 C 219.527344 142.492188 226.015625 142.492188 226.015625 146.816406 "/>
<path style=" stroke:none;fill-rule:nonzero;fill:rgb(18.039216%,73.72549%,27.058824%);fill-opacity:1;" d="M 375.527344 476.503906 C 375.527344 479.992188 370.296875 479.992188 370.296875 476.503906 C 370.296875 473.015625 375.527344 473.015625 375.527344 476.503906 "/>
<path style=" stroke:none;fill-rule:nonzero;fill:rgb(18.039216%,73.72549%,27.058824%);fill-opacity:1;" d="M 563.507812 314.671875 L 584.230469 314.671875 L 584.230469 335.394531 L 563.507812 335.394531 Z M 563.507812 314.671875 "/>
<path style=" stroke:none;fill-rule:nonzero;fill:rgb(18.039216%,73.72549%,27.058824%);fill-opacity:1;" d="M 603.679688 251.582031 L 624.402344 251.582031 L 624.402344 272.304688 L 603.679688 272.304688 Z M 603.679688 251.582031 "/>
<path style=" stroke:none;fill-rule:nonzero;fill:rgb(18.039216%,73.72549%,27.058824%);fill-opacity:1;" d="M 407.039062 91.9375 L 427.761719 91.9375 L 427.761719 112.660156 L 407.039062 112.660156 Z M 407.039062 91.9375 "/>
<path style=" stroke:none;fill-rule:nonzero;fill:rgb(18.039216%,73.72549%,27.058824%);fill-opacity:1;" d="M 259.09375 544.402344 L 279.816406 544.402344 L 279.816406 565.125 L 259.09375 565.125 Z M 259.09375 544.402344 "/>
<path style=" stroke:none;fill-rule:nonzero;fill:rgb(18.039216%,73.72549%,27.058824%);fill-opacity:1;" d="M 519.992188 184.828125 L 540.714844 184.828125 L 540.714844 205.550781 L 519.992188 205.550781 Z M 519.992188 184.828125 "/>
<path style=" stroke:none;fill-rule:nonzero;fill:rgb(18.039216%,73.72549%,27.058824%);fill-opacity:1;" d="M 512.90625 557.25 L 533.628906 557.25 L 533.628906 577.972656 L 512.90625 577.972656 Z M 512.90625 557.25 "/>
<path style=" stroke:none;fill-rule:nonzero;fill:rgb(18.039216%,73.72549%,27.058824%);fill-opacity:1;" d="M 280.972656 471.519531 C 280.972656 475.234375 275.398438 475.234375 275.398438 471.519531 C 275.398438 467.804688 280.972656 467.804688 280.972656 471.519531 "/>
<path style=" stroke:none;fill-rule:nonzero;fill:rgb(18.039216%,73.72549%,27.058824%);fill-opacity:1;" d="M 139.039062 437.195312 C 139.039062 440.679688 133.808594 440.679688 133.808594 437.195312 C 133.808594 433.707031 139.039062 433.707031 139.039062 437.195312 "/>
<path style=" stroke:none;fill-rule:nonzero;fill:rgb(18.039216%,73.72549%,27.058824%);fill-opacity:1;" d="M 587.9375 487.890625 C 587.9375 491.722656 582.191406 491.722656 582.191406 487.890625 C 582.191406 484.058594 587.9375 484.058594 587.9375 487.890625 "/>
<path style=" stroke:none;fill-rule:nonzero;fill:rgb(18.039216%,73.72549%,27.058824%);fill-opacity:1;" d="M 458.6875 474.964844 C 458.6875 478.671875 453.125 478.671875 453.125 474.964844 C 453.125 471.257812 458.6875 471.257812 458.6875 474.964844 "/>
<path style=" stroke:none;fill-rule:nonzero;fill:rgb(18.039216%,73.72549%,27.058824%);fill-opacity:1;" d="M 317.207031 432.09375 C 317.207031 435.789062 311.660156 435.789062 311.660156 432.09375 C 311.660156 428.398438 317.207031 428.398438 317.207031 432.09375 "/>
<path style=" stroke:none;fill-rule:nonzero;fill:rgb(18.039216%,73.72549%,27.058824%);fill-opacity:1;" d="M 392.570312 311.574219 C 392.570312 315.089844 387.296875 315.089844 387.296875 311.574219 C 387.296875 308.0625 392.570312 308.0625 392.570312 311.574219 "/>
<path style=" stroke:none;fill-rule:nonzero;fill:rgb(18.039216%,73.72549%,27.058824%);fill-opacity:1;" d="M 476.980469 201.355469 C 476.980469 207.023438 468.476562 207.023438 468.476562 201.355469 C 468.476562 195.6875 476.980469 195.6875 476.980469 201.355469 "/>
<path style=" stroke:none;fill-rule:nonzero;fill:rgb(18.039216%,73.72549%,27.058824%);fill-opacity:1;" d="M 418.53125 465.898438 C 418.53125 470.527344 411.589844 470.527344 411.589844 465.898438 C 411.589844 461.273438 418.53125 461.273438 418.53125 465.898438 "/>
<path style=" stroke:none;fill-rule:nonzero;fill:rgb(18.039216%,73.72549%,27.058824%);fill-opacity:1;" d="M 196.59375 347.765625 C 196.59375 351.46875 191.035156 351.46875 191.035156 347.765625 C 191.035156 344.058594 196.59375 344.058594 196.59375 347.765625 "/>
<path style=" stroke:none;fill-rule:nonzero;fill:rgb(18.039216%,73.72549%,27.058824%);fill-opacity:1;" d="M 302.203125 599.488281 C 302.203125 603.402344 296.335938 603.402344 296.335938 599.488281 C 296.335938 595.578125 302.203125 595.578125 302.203125 599.488281 "/>
<path style=" stroke:none;fill-rule:nonzero;fill:rgb(18.039216%,73.72549%,27.058824%);fill-opacity:1;" d="M 272.25 416.738281 C 272.25 421.023438 265.828125 421.023438 265.828125 416.738281 C 265.828125 412.457031 272.25 412.457031 272.25 416.738281 "/>
<path style=" stroke:none;fill-rule:nonzero;fill:rgb(18.039216%,73.72549%,27.058824%);fill-opacity:1;" d="M 120.105469 387.707031 C 120.105469 391.453125 114.484375 391.453125 114.484375 387.707031 C 114.484375 383.957031 120.105469 383.957031 120.105469 387.707031 "/>
<path style=" stroke:none;fill-rule:nonzero;fill:rgb(18.039216%,73.72549%,27.058824%);fill-opacity:1;" d="M 371.519531 539.679688 C 371.519531 543.300781 366.085938 543.300781 366.085938 539.679688 C 366.085938 536.058594 371.519531 536.058594 371.519531 539.679688 "/>
<path style=" stroke:none;fill-rule:nonzero;fill:rgb(18.039216%,73.72549%,27.058824%);fill-opacity:1;" d="M 163.664062 180.929688 L 184.386719 180.929688 L 184.386719 201.652344 L 163.664062 201.652344 Z M 163.664062 180.929688 "/>
<path style=" stroke:none;fill-rule:nonzero;fill:rgb(18.039216%,73.72549%,27.058824%);fill-opacity:1;" d="M 402.308594 152.503906 L 423.03125 152.503906 L 423.03125 173.226562 L 402.308594 173.226562 Z M 402.308594 152.503906 "/>
<path style=" stroke:none;fill-rule:nonzero;fill:rgb(18.039216%,73.72549%,27.058824%);fill-opacity:1;" d="M 370.523438 125.210938 L 391.246094 125.210938 L 391.246094 145.933594 L 370.523438 145.933594 Z M 370.523438 125.210938 "/>
<path style=" stroke:none;fill-rule:nonzero;fill:rgb(18.039216%,73.72549%,27.058824%);fill-opacity:1;" d="M 524.632812 307.855469 L 545.355469 307.855469 L 545.355469 328.578125 L 524.632812 328.578125 Z M 524.632812 307.855469 "/>
<path style=" stroke:none;fill-rule:nonzero;fill:rgb(18.039216%,73.72549%,27.058824%);fill-opacity:1;" d="M 478.617188 441.996094 L 499.339844 441.996094 L 499.339844 462.71875 L 478.617188 462.71875 Z M 478.617188 441.996094 "/>
<path style=" stroke:none;fill-rule:nonzero;fill:rgb(18.039216%,73.72549%,27.058824%);fill-opacity:1;" d="M 420.476562 195.949219 L 441.199219 195.949219 L 441.199219 216.671875 L 420.476562 216.671875 Z M 420.476562 195.949219 "/>
<path style=" stroke:none;fill-rule:nonzero;fill:rgb(18.039216%,73.72549%,27.058824%);fill-opacity:1;" d="M 508.523438 132.898438 C 508.523438 136.390625 503.289062 136.390625 503.289062 132.898438 C 503.289062 129.40625 508.523438 129.40625 508.523438 132.898438 "/>
<path style=" stroke:none;fill-rule:nonzero;fill:rgb(18.039216%,73.72549%,27.058824%);fill-opacity:1;" d="M 366.992188 611.847656 C 366.992188 615.449219 361.585938 615.449219 361.585938 611.847656 C 361.585938 608.246094 366.992188 608.246094 366.992188 611.847656 "/>
<path style=" stroke:none;fill-rule:nonzero;fill:rgb(18.039216%,73.72549%,27.058824%);fill-opacity:1;" d="M 462.425781 157.085938 C 462.425781 163.777344 452.390625 163.777344 452.390625 157.085938 C 452.390625 150.398438 462.425781 150.398438 462.425781 157.085938 "/>
<path style=" stroke:none;fill-rule:nonzero;fill:rgb(18.039216%,73.72549%,27.058824%);fill-opacity:1;" d="M 427.207031 611.628906 C 427.207031 615.160156 421.90625 615.160156 421.90625 611.628906 C 421.90625 608.09375 427.207031 608.09375 427.207031 611.628906 "/>
<path style=" stroke:none;fill-rule:nonzero;fill:rgb(18.039216%,73.72549%,27.058824%);fill-opacity:1;" d="M 461.953125 338.363281 C 461.953125 342.207031 456.1875 342.207031 456.1875 338.363281 C 456.1875 334.523438 461.953125 334.523438 461.953125 338.363281 "/>
<path style=" stroke:none;fill-rule:nonzero;fill:rgb(18.039216%,73.72549%,27.058824%);fill-opacity:1;" d="M 243.246094 369.039062 C 243.246094 372.859375 237.515625 372.859375 237.515625 369.039062 C 237.515625 365.21875 243.246094 365.21875 243.246094 369.039062 "/>
<path style=" stroke:none;fill-rule:nonzero;fill:rgb(18.039216%,73.72549%,27.058824%);fill-opacity:1;" d="M 487.742188 540.105469 C 487.742188 545.402344 479.800781 545.402344 479.800781 540.105469 C 479.800781 534.8125 487.742188 534.8125 487.742188 540.105469 "/>
<path style=" stroke:none;fill-rule:nonzero;fill:rgb(80.784314%,49.411765%,0%);fill-opacity:1;" d="M 228.1875 545.574219 C 228.1875 549.183594 222.769531 549.183594 222.769531 545.574219 C 222.769531 541.960938 228.1875 541.960938 228.1875 545.574219 "/>
<path style=" stroke:none;fill-rule:nonzero;fill:rgb(73.72549%,18.039216%,63.137255%);fill-opacity:1;" d="M 440.199219 374.042969 C 440.199219 378.296875 436.75 381.75 432.496094 381.75 C 428.238281 381.75 424.789062 378.296875 424.789062 374.042969 C 424.789062 369.785156 428.238281 366.335938 432.496094 366.335938 C 436.75 366.335938 440.199219 369.785156 440.199219 374.042969 "/>
<path style=" stroke:none;fill-rule:nonzero;fill:rgb(41.568627%,32.156863%,77.647059%);fill-opacity:1;" d="M 387.519531 203.546875 C 387.519531 207.070312 382.238281 207.070312 382.238281 203.546875 C 382.238281 200.027344 387.519531 200.027344 387.519531 203.546875 "/>
<path style=" stroke:none;fill-rule:nonzero;fill:rgb(41.568627%,32.156863%,77.647059%);fill-opacity:1;" d="M 348.226562 376.332031 C 348.226562 380.007812 342.714844 380.007812 342.714844 376.332031 C 342.714844 372.65625 348.226562 372.65625 348.226562 376.332031 "/>
<path style=" stroke:none;fill-rule:nonzero;fill:rgb(41.568627%,32.156863%,77.647059%);fill-opacity:1;" d="M 417.574219 419.261719 C 417.574219 423.015625 411.945312 423.015625 411.945312 419.261719 C 411.945312 415.507812 417.574219 415.507812 417.574219 419.261719 "/>
<path style=" stroke:none;fill-rule:nonzero;fill:rgb(41.568627%,32.156863%,77.647059%);fill-opacity:1;" d="M 235.640625 462.96875 C 235.640625 466.5 230.347656 466.5 230.347656 462.96875 C 230.347656 459.4375 235.640625 459.4375 235.640625 462.96875 "/>
<path style=" stroke:none;fill-rule:nonzero;fill:rgb(41.568627%,32.156863%,77.647059%);fill-opacity:1;" d="M 556.347656 159.347656 C 556.347656 162.867188 551.070312 162.867188 551.070312 159.347656 C 551.070312 155.828125 556.347656 155.828125 556.347656 159.347656 "/>
<path style=" stroke:none;fill-rule:nonzero;fill:rgb(41.568627%,32.156863%,77.647059%);fill-opacity:1;" d="M 161.589844 393.445312 C 161.589844 398.050781 157.855469 401.78125 153.253906 401.78125 C 148.648438 401.78125 144.917969 398.050781 144.917969 393.445312 C 144.917969 388.839844 148.648438 385.109375 153.253906 385.109375 C 157.855469 385.109375 161.589844 388.839844 161.589844 393.445312 "/>
<path style=" stroke:none;fill-rule:nonzero;fill:rgb(67.843137%,55.294118%,55.294118%);fill-opacity:1;" d="M 251.898438 508.113281 C 251.898438 512.429688 245.421875 512.429688 245.421875 508.113281 C 245.421875 503.796875 251.898438 503.796875 251.898438 508.113281 "/>
<path style=" stroke:none;fill-rule:nonzero;fill:rgb(67.843137%,55.294118%,55.294118%);fill-opacity:1;" d="M 441.277344 295.269531 C 441.277344 301.546875 431.859375 301.546875 431.859375 295.269531 C 431.859375 288.992188 441.277344 288.992188 441.277344 295.269531 "/>
<path style=" stroke:none;fill-rule:nonzero;fill:rgb(81.176471%,90.588235%,12.156863%);fill-opacity:1;" d="M 117.941406 333.308594 C 117.941406 336.765625 112.761719 336.765625 112.761719 333.308594 C 112.761719 329.855469 117.941406 329.855469 117.941406 333.308594 "/>
</g>
</svg>
