<?xml version="1.0" encoding="UTF-8"?>
<svg xmlns="http://www.w3.org/2000/svg" xmlns:xlink="http://www.w3.org/1999/xlink" width="720pt" height="720pt" viewBox="0 0 720 720" version="1.1">
<g id="surface2928">
<path style=" stroke:none;fill-rule:nonzero;fill:rgb(95.686275%,95.686275%,95.686275%);fill-opacity:1;" d="M 332.820312 175.082031 L 330.121094 174.78125 L 327.464844 173.910156 L 324.890625 172.535156 L 322.441406 170.757812 L 320.128906 168.714844 L 317.910156 166.535156 L 315.714844 164.328125 L 313.535156 162.074219 L 311.429688 159.777344 L 309.464844 157.472656 L 307.710938 155.21875 L 306.246094 153.089844 L 304.859375 150.675781 L 303.917969 148.496094 L 303.390625 146.585938 L 303.199219 144.933594 L 303.195312 143.449219 L 303.261719 141.957031 L 303.527344 140.292969 L 304.128906 138.367188 L 305.144531 136.175781 L 306.503906 133.882812 L 308.015625 131.730469 L 309.789062 129.476562 L 311.765625 127.175781 L 313.882812 124.882812 L 316.058594 122.632812 L 318.257812 120.421875 L 320.472656 118.25 L 322.785156 116.207031 L 325.234375 114.433594 L 327.804688 113.0625 L 330.460938 112.191406 L 333.148438 111.894531 L 335.847656 112.195312 L 338.503906 113.066406 L 341.078125 114.441406 L 343.527344 116.214844 L 345.839844 118.261719 L 348.058594 120.4375 L 350.253906 122.648438 L 352.433594 124.902344 L 354.539062 127.199219 L 356.503906 129.5 L 358.257812 131.753906 L 359.722656 133.882812 L 361.109375 136.300781 L 362.050781 138.476562 L 362.578125 140.386719 L 362.769531 142.042969 L 362.773438 143.527344 L 362.707031 145.015625 L 362.441406 146.683594 L 361.839844 148.609375 L 360.824219 150.800781 L 359.464844 153.089844 L 357.953125 155.246094 L 356.179688 157.496094 L 354.199219 159.796875 L 352.085938 162.09375 L 349.90625 164.34375 L 347.710938 166.550781 L 345.496094 168.726562 L 343.183594 170.769531 L 340.734375 172.542969 L 338.164062 173.914062 L 335.507812 174.78125 Z M 332.820312 175.082031 "/>
<path style=" stroke:none;fill-rule:nonzero;fill:rgb(95.686275%,95.686275%,95.686275%);fill-opacity:1;" d="M 356.300781 239.160156 L 354.335938 238.226562 L 352.296875 236.902344 L 350.238281 235.273438 L 348.226562 233.449219 L 346.265625 231.527344 L 344.34375 229.574219 L 342.554688 227.527344 L 341.058594 225.34375 L 340.011719 223.042969 L 339.511719 220.675781 L 339.480469 219.914062 L 339.769531 217.597656 L 340.609375 215.328125 L 341.914062 213.152344 L 343.554688 211.105469 L 345.390625 209.175781 L 347.28125 207.285156 L 349.214844 205.375 L 351.203125 203.457031 L 353.207031 201.585938 L 355.167969 199.820312 L 356.300781 198.84375 L 358.324219 197.179688 L 360.160156 195.777344 L 361.773438 194.648438 L 363.1875 193.742188 L 364.484375 192.960938 L 365.839844 192.257812 L 367.367188 191.792969 L 369.113281 191.707031 L 371.058594 192.085938 L 371.824219 192.355469 L 373.78125 193.308594 L 375.8125 194.640625 L 377.855469 196.265625 L 379.855469 198.085938 L 381.796875 199.996094 L 383.699219 201.933594 L 385.46875 203.96875 L 386.933594 206.140625 L 387.945312 208.425781 L 388.40625 210.777344 L 388.425781 211.386719 L 388.136719 213.679688 L 387.300781 215.929688 L 386.003906 218.085938 L 384.371094 220.113281 L 382.546875 222.023438 L 380.671875 223.898438 L 378.75 225.796875 L 376.777344 227.707031 L 374.785156 229.578125 L 372.835938 231.347656 L 371.824219 232.234375 L 369.828125 233.917969 L 368.007812 235.355469 L 366.402344 236.535156 L 365 237.496094 L 363.703125 238.335938 L 362.359375 239.101562 L 360.839844 239.625 L 359.097656 239.773438 L 357.160156 239.445312 Z M 356.300781 239.160156 "/>
<path style=" stroke:none;fill-rule:nonzero;fill:rgb(95.686275%,95.686275%,95.686275%);fill-opacity:1;" d="M 525.476562 496.375 L 523.183594 496.085938 L 520.933594 495.242188 L 518.78125 493.933594 L 516.757812 492.289062 L 514.847656 490.460938 L 512.972656 488.582031 L 511.101562 486.644531 L 509.265625 484.632812 L 507.539062 482.578125 L 505.988281 480.535156 L 505.386719 479.664062 L 504.082031 477.550781 L 503.082031 475.574219 L 502.378906 473.78125 L 501.917969 472.167969 L 501.578125 470.667969 L 501.308594 469.132812 L 501.238281 467.441406 L 501.480469 465.5625 L 502.109375 463.523438 L 502.625 462.351562 L 503.773438 460.308594 L 505.226562 458.230469 L 506.914062 456.175781 L 508.738281 454.1875 L 510.621094 452.273438 L 512.523438 450.394531 L 514.523438 448.652344 L 516.65625 447.195312 L 518.898438 446.175781 L 521.207031 445.695312 L 521.929688 445.667969 L 524.222656 445.960938 L 526.46875 446.800781 L 528.621094 448.109375 L 530.640625 449.753906 L 532.546875 451.578125 L 534.417969 453.457031 L 536.292969 455.390625 L 538.125 457.402344 L 539.851562 459.457031 L 541.402344 461.496094 L 541.992188 462.351562 L 543.300781 464.464844 L 544.304688 466.4375 L 545.015625 468.230469 L 545.484375 469.84375 L 545.832031 471.339844 L 546.109375 472.875 L 546.1875 474.566406 L 545.949219 476.445312 L 545.324219 478.488281 L 544.808594 479.664062 L 543.664062 481.707031 L 542.210938 483.785156 L 540.527344 485.847656 L 538.699219 487.835938 L 536.816406 489.753906 L 534.910156 491.628906 L 532.910156 493.378906 L 530.777344 494.835938 L 528.53125 495.859375 L 526.21875 496.347656 Z M 525.476562 496.375 "/>
<path style=" stroke:none;fill-rule:nonzero;fill:rgb(95.686275%,95.686275%,95.686275%);fill-opacity:1;" d="M 569.585938 549.859375 L 567.464844 550.648438 L 565.546875 550.957031 L 563.859375 550.847656 L 562.386719 550.433594 L 561.03125 549.878906 L 559.625 549.246094 L 558.035156 548.402344 L 556.207031 547.265625 L 554.171875 545.816406 L 553.28125 545.136719 L 551.320312 543.535156 L 549.277344 541.75 L 547.214844 539.847656 L 545.183594 537.894531 L 543.207031 535.941406 L 541.265625 533.992188 L 539.410156 531.972656 L 537.785156 529.832031 L 536.535156 527.5625 L 535.777344 525.210938 L 535.570312 523.214844 L 535.875 520.789062 L 536.75 518.40625 L 538.113281 516.125 L 539.832031 513.972656 L 541.753906 511.945312 L 543.734375 509.96875 L 545.761719 508.023438 L 547.84375 506.191406 L 549.941406 504.566406 L 552 503.230469 L 553.28125 502.554688 L 555.398438 501.757812 L 557.316406 501.433594 L 559.003906 501.527344 L 560.480469 501.921875 L 561.832031 502.457031 L 563.242188 503.074219 L 564.839844 503.902344 L 566.667969 505.027344 L 568.71875 506.46875 L 569.585938 507.132812 L 571.554688 508.726562 L 573.597656 510.507812 L 575.664062 512.410156 L 577.699219 514.367188 L 579.679688 516.324219 L 581.628906 518.28125 L 583.492188 520.300781 L 585.125 522.449219 L 586.382812 524.71875 L 587.15625 527.078125 L 587.371094 529.125 L 587.070312 531.558594 L 586.191406 533.949219 L 584.828125 536.238281 L 583.105469 538.394531 L 581.179688 540.429688 L 579.191406 542.410156 L 577.160156 544.359375 L 575.078125 546.199219 L 572.976562 547.828125 L 570.914062 549.164062 Z M 569.585938 549.859375 "/>
<path style=" stroke:none;fill-rule:nonzero;fill:rgb(95.686275%,95.686275%,95.686275%);fill-opacity:1;" d="M 511.820312 156.082031 L 509.84375 156.550781 L 508.0625 156.511719 L 506.503906 156.035156 L 505.152344 155.253906 L 503.914062 154.335938 L 502.621094 153.34375 L 501.152344 152.164062 L 499.464844 150.742188 L 497.570312 149.074219 L 496.777344 148.359375 L 494.898438 146.625 L 492.941406 144.769531 L 490.964844 142.851562 L 489.019531 140.933594 L 487.125 139.042969 L 485.261719 137.164062 L 483.5 135.203125 L 482 133.117188 L 480.894531 130.914062 L 480.292969 128.636719 L 480.203125 127.351562 L 480.507812 124.984375 L 481.390625 122.667969 L 482.761719 120.453125 L 484.472656 118.375 L 486.367188 116.414062 L 488.304688 114.492188 L 490.292969 112.640625 L 492.324219 110.96875 L 494.355469 109.582031 L 496.316406 108.578125 L 496.777344 108.398438 L 498.746094 107.90625 L 500.527344 107.917969 L 502.085938 108.363281 L 503.4375 109.105469 L 504.683594 109.984375 L 505.980469 110.9375 L 507.464844 112.085938 L 509.171875 113.488281 L 511.089844 115.144531 L 511.820312 115.796875 L 513.703125 117.515625 L 515.667969 119.363281 L 517.65625 121.28125 L 519.613281 123.207031 L 521.519531 125.105469 L 523.398438 126.996094 L 525.171875 128.964844 L 526.695312 131.0625 L 527.824219 133.277344 L 528.453125 135.566406 L 528.558594 136.964844 L 528.25 139.34375 L 527.363281 141.679688 L 525.992188 143.90625 L 524.273438 146 L 522.371094 147.976562 L 520.421875 149.910156 L 518.425781 151.773438 L 516.382812 153.460938 L 514.34375 154.855469 L 512.371094 155.871094 Z M 511.820312 156.082031 "/>
<path style=" stroke:none;fill-rule:nonzero;fill:rgb(95.686275%,95.686275%,95.686275%);fill-opacity:1;" d="M 120.636719 320.988281 L 118.296875 320.6875 L 116 319.820312 L 113.804688 318.476562 L 111.742188 316.789062 L 109.792969 314.917969 L 107.886719 313 L 106.019531 311.023438 L 104.277344 308.980469 L 102.75 306.910156 L 101.523438 304.871094 L 101.171875 304.171875 L 100.386719 302.089844 L 100.023438 300.167969 L 100.039062 298.4375 L 100.332031 296.898438 L 100.757812 295.472656 L 101.261719 294.003906 L 101.972656 292.351562 L 102.980469 290.472656 L 104.320312 288.375 L 105.140625 287.230469 L 106.703125 285.210938 L 108.46875 283.121094 L 110.371094 281.015625 L 112.34375 278.941406 L 114.328125 276.929688 L 116.308594 274.953125 L 118.347656 273.054688 L 120.511719 271.371094 L 122.804688 270.050781 L 125.1875 269.207031 L 127.574219 268.921875 L 130.046875 269.230469 L 132.476562 270.113281 L 134.808594 271.488281 L 137.003906 273.230469 L 139.074219 275.183594 L 141.09375 277.203125 L 143.066406 279.265625 L 144.910156 281.386719 L 146.523438 283.535156 L 147.808594 285.65625 L 148.527344 287.230469 L 149.132812 289.371094 L 149.238281 291.328125 L 148.90625 293.070312 L 148.257812 294.601562 L 147.449219 296 L 146.582031 297.417969 L 145.554688 298.980469 L 144.304688 300.734375 L 142.820312 302.664062 L 141.582031 304.171875 L 139.882812 306.140625 L 138.054688 308.164062 L 136.152344 310.179688 L 134.242188 312.144531 L 132.359375 314.042969 L 130.480469 315.902344 L 128.523438 317.660156 L 126.441406 319.167969 L 124.242188 320.277344 L 121.96875 320.890625 Z M 120.636719 320.988281 "/>
<path style=" stroke:none;fill-rule:nonzero;fill:rgb(95.686275%,95.686275%,95.686275%);fill-opacity:1;" d="M 422.46875 187.171875 L 420.101562 186.875 L 417.78125 186.023438 L 415.554688 184.695312 L 413.457031 183.019531 L 411.480469 181.144531 L 409.550781 179.210938 L 407.628906 177.226562 L 405.761719 175.171875 L 404.023438 173.074219 L 402.492188 170.992188 L 401.640625 169.675781 L 400.453125 167.507812 L 399.628906 165.5 L 399.136719 163.683594 L 398.910156 162.066406 L 398.820312 160.566406 L 398.800781 159.03125 L 398.984375 157.328125 L 399.480469 155.421875 L 400.351562 153.324219 L 401.019531 152.070312 L 402.324219 150.015625 L 403.898438 147.910156 L 405.671875 145.808594 L 407.566406 143.761719 L 409.503906 141.785156 L 411.457031 139.847656 L 413.484375 138.007812 L 415.640625 136.417969 L 417.921875 135.226562 L 420.285156 134.542969 L 421.894531 134.40625 L 424.273438 134.703125 L 426.613281 135.558594 L 428.855469 136.890625 L 430.964844 138.574219 L 432.957031 140.457031 L 434.898438 142.402344 L 436.832031 144.398438 L 438.707031 146.460938 L 440.449219 148.566406 L 441.984375 150.660156 L 442.890625 152.070312 L 444.058594 154.253906 L 444.851562 156.269531 L 445.304688 158.089844 L 445.488281 159.710938 L 445.53125 161.210938 L 445.507812 162.746094 L 445.28125 164.445312 L 444.75 166.347656 L 443.851562 168.433594 L 443.175781 169.675781 L 441.855469 171.726562 L 440.277344 173.824219 L 438.5 175.917969 L 436.613281 177.949219 L 434.6875 179.914062 L 432.746094 181.839844 L 430.726562 183.664062 L 428.578125 185.230469 L 426.308594 186.398438 L 423.960938 187.054688 Z M 422.46875 187.171875 "/>
<path style=" stroke:none;fill-rule:nonzero;fill:rgb(95.686275%,95.686275%,95.686275%);fill-opacity:1;" d="M 606.699219 275.902344 L 604.398438 275.609375 L 602.140625 274.761719 L 599.980469 273.445312 L 597.953125 271.789062 L 596.039062 269.957031 L 594.160156 268.070312 L 592.289062 266.128906 L 590.476562 264.121094 L 588.789062 262.082031 L 587.308594 260.066406 L 586.796875 259.296875 L 585.574219 257.195312 L 584.695312 255.253906 L 584.136719 253.507812 L 583.828125 251.957031 L 583.640625 250.511719 L 583.535156 249.007812 L 583.652344 247.332031 L 584.105469 245.453125 L 584.945312 243.394531 L 585.328125 242.65625 L 586.550781 240.652344 L 588.058594 238.601562 L 589.777344 236.558594 L 591.621094 234.570312 L 593.511719 232.652344 L 595.417969 230.769531 L 597.417969 229.015625 L 599.550781 227.542969 L 601.796875 226.5 L 604.109375 225.988281 L 604.957031 225.949219 L 607.265625 226.246094 L 609.53125 227.09375 L 611.699219 228.414062 L 613.738281 230.070312 L 615.660156 231.914062 L 617.546875 233.804688 L 619.421875 235.75 L 621.242188 237.765625 L 622.929688 239.808594 L 624.410156 241.828125 L 624.957031 242.65625 L 626.167969 244.765625 L 627.027344 246.710938 L 627.5625 248.460938 L 627.84375 250.011719 L 628.007812 251.460938 L 628.085938 252.960938 L 627.941406 254.636719 L 627.46875 256.515625 L 626.609375 258.570312 L 626.230469 259.296875 L 624.996094 261.292969 L 623.484375 263.34375 L 621.765625 265.378906 L 619.929688 267.359375 L 618.046875 269.269531 L 616.144531 271.144531 L 614.152344 272.890625 L 612.023438 274.347656 L 609.78125 275.378906 L 607.476562 275.871094 Z M 606.699219 275.902344 "/>
<path style=" stroke:none;fill-rule:nonzero;fill:rgb(95.686275%,95.686275%,95.686275%);fill-opacity:1;" d="M 317.011719 543.558594 L 314.691406 543.257812 L 312.417969 542.398438 L 310.246094 541.066406 L 308.207031 539.394531 L 306.28125 537.539062 L 304.390625 535.640625 L 302.539062 533.675781 L 300.796875 531.636719 L 299.253906 529.558594 L 297.996094 527.496094 L 297.664062 526.847656 L 296.804688 524.734375 L 296.34375 522.757812 L 296.242188 520.960938 L 296.410156 519.347656 L 296.707031 517.847656 L 297.074219 516.308594 L 297.625 514.617188 L 298.449219 512.738281 L 299.574219 510.691406 L 300.320312 509.523438 L 301.769531 507.5 L 303.421875 505.445312 L 305.21875 503.40625 L 307.078125 501.4375 L 308.953125 499.539062 L 310.835938 497.679688 L 312.800781 495.9375 L 314.902344 494.46875 L 317.113281 493.414062 L 319.394531 492.878906 L 320.378906 492.824219 L 322.695312 493.121094 L 324.964844 493.984375 L 327.136719 495.316406 L 329.175781 496.988281 L 331.101562 498.839844 L 332.988281 500.738281 L 334.84375 502.703125 L 336.585938 504.742188 L 338.125 506.820312 L 339.382812 508.878906 L 339.714844 509.523438 L 340.574219 511.636719 L 341.035156 513.613281 L 341.140625 515.410156 L 340.976562 517.023438 L 340.679688 518.523438 L 340.316406 520.058594 L 339.769531 521.753906 L 338.949219 523.632812 L 337.820312 525.679688 L 337.078125 526.847656 L 335.632812 528.871094 L 333.976562 530.925781 L 332.183594 532.964844 L 330.320312 534.9375 L 328.445312 536.835938 L 326.5625 538.695312 L 324.59375 540.4375 L 322.496094 541.910156 L 320.28125 542.964844 L 318 543.503906 Z M 317.011719 543.558594 "/>
<path style="fill:none;stroke-width:0.75;stroke-linecap:round;stroke-linejoin:round;stroke:rgb(66.27451%,66.27451%,66.27451%);stroke-opacity:1;stroke-miterlimit:10;" d="M 332.941406 145.683594 L 333.027344 141.292969 "/>
<path style="fill:none;stroke-width:0.75;stroke-linecap:round;stroke-linejoin:round;stroke:rgb(66.27451%,66.27451%,66.27451%);stroke-opacity:1;stroke-miterlimit:10;" d="M 368.476562 212.898438 L 359.957031 218.226562 "/>
<path style="fill:none;stroke-width:0.75;stroke-linecap:round;stroke-linejoin:round;stroke:rgb(66.27451%,66.27451%,66.27451%);stroke-opacity:1;stroke-miterlimit:10;" d="M 524.90625 476.4375 L 522.492188 465.535156 "/>
<path style="fill:none;stroke-width:0.75;stroke-linecap:round;stroke-linejoin:round;stroke:rgb(66.27451%,66.27451%,66.27451%);stroke-opacity:1;stroke-miterlimit:10;" d="M 558.363281 524.898438 L 564.394531 527.402344 "/>
<path style="fill:none;stroke-width:0.75;stroke-linecap:round;stroke-linejoin:round;stroke:rgb(66.27451%,66.27451%,66.27451%);stroke-opacity:1;stroke-miterlimit:10;" d="M 508.261719 135.09375 L 500.113281 129.078125 "/>
<path style="fill:none;stroke-width:0.75;stroke-linecap:round;stroke-linejoin:round;stroke:rgb(66.27451%,66.27451%,66.27451%);stroke-opacity:1;stroke-miterlimit:10;" d="M 121.855469 300.738281 L 125.445312 292.886719 "/>
<path style="fill:none;stroke-width:0.75;stroke-linecap:round;stroke-linejoin:round;stroke:rgb(66.27451%,66.27451%,66.27451%);stroke-opacity:1;stroke-miterlimit:10;" d="M 422.039062 156.902344 L 422.332031 165.121094 "/>
<path style="fill:none;stroke-width:0.75;stroke-linecap:round;stroke-linejoin:round;stroke:rgb(66.27451%,66.27451%,66.27451%);stroke-opacity:1;stroke-miterlimit:10;" d="M 605.273438 246.164062 L 606.398438 255.945312 "/>
<path style="fill:none;stroke-width:0.75;stroke-linecap:round;stroke-linejoin:round;stroke:rgb(66.27451%,66.27451%,66.27451%);stroke-opacity:1;stroke-miterlimit:10;" d="M 319.839844 512.726562 L 317.550781 523.625 "/>
<path style=" stroke:none;fill-rule:nonzero;fill:rgb(3.137255%,81.960784%,81.960784%);fill-opacity:1;" d="M 285.550781 354.34375 C 285.550781 359.335938 278.0625 359.335938 278.0625 354.34375 C 278.0625 349.351562 285.550781 349.351562 285.550781 354.34375 "/>
<path style=" stroke:none;fill-rule:nonzero;fill:rgb(3.137255%,81.960784%,81.960784%);fill-opacity:1;" d="M 322.789062 124.960938 L 343.511719 124.960938 L 343.511719 145.683594 L 322.789062 145.683594 Z M 322.789062 124.960938 "/>
<path style=" stroke:none;fill-rule:nonzero;fill:rgb(3.137255%,81.960784%,81.960784%);fill-opacity:1;" d="M 440.296875 104.160156 C 440.296875 107.695312 434.992188 107.695312 434.992188 104.160156 C 434.992188 100.625 440.296875 100.625 440.296875 104.160156 "/>
<path style=" stroke:none;fill-rule:nonzero;fill:rgb(3.137255%,81.960784%,81.960784%);fill-opacity:1;" d="M 285.96875 513.15625 C 285.96875 516.699219 280.65625 516.699219 280.65625 513.15625 C 280.65625 509.613281 285.96875 509.613281 285.96875 513.15625 "/>
<path style=" stroke:none;fill-rule:nonzero;fill:rgb(3.137255%,81.960784%,81.960784%);fill-opacity:1;" d="M 410.359375 201.539062 C 410.359375 205.128906 404.972656 205.128906 404.972656 201.539062 C 404.972656 197.949219 410.359375 197.949219 410.359375 201.539062 "/>
<path style=" stroke:none;fill-rule:nonzero;fill:rgb(3.137255%,81.960784%,81.960784%);fill-opacity:1;" d="M 529.441406 336.972656 C 529.441406 340.636719 523.945312 340.636719 523.945312 336.972656 C 523.945312 333.308594 529.441406 333.308594 529.441406 336.972656 "/>
<path style=" stroke:none;fill-rule:nonzero;fill:rgb(3.137255%,81.960784%,81.960784%);fill-opacity:1;" d="M 373.757812 211.386719 C 373.757812 215.195312 368.042969 215.195312 368.042969 211.386719 C 368.042969 207.574219 373.757812 207.574219 373.757812 211.386719 "/>
<path style=" stroke:none;fill-rule:nonzero;fill:rgb(3.137255%,81.960784%,81.960784%);fill-opacity:1;" d="M 253.539062 183.480469 C 253.539062 187.074219 248.144531 187.074219 248.144531 183.480469 C 248.144531 179.886719 253.539062 179.886719 253.539062 183.480469 "/>
<path style=" stroke:none;fill-rule:nonzero;fill:rgb(3.137255%,81.960784%,81.960784%);fill-opacity:1;" d="M 403.292969 611.847656 C 403.292969 615.710938 397.496094 615.710938 397.496094 611.847656 C 397.496094 607.984375 403.292969 607.984375 403.292969 611.847656 "/>
<path style=" stroke:none;fill-rule:nonzero;fill:rgb(3.137255%,81.960784%,81.960784%);fill-opacity:1;" d="M 528.121094 479.019531 C 528.121094 482.542969 522.832031 482.542969 522.832031 479.019531 C 522.832031 475.492188 528.121094 475.492188 528.121094 479.019531 "/>
<path style=" stroke:none;fill-rule:nonzero;fill:rgb(3.137255%,81.960784%,81.960784%);fill-opacity:1;" d="M 227.832031 288.394531 C 227.832031 291.933594 222.523438 291.933594 222.523438 288.394531 C 222.523438 284.859375 227.832031 284.859375 227.832031 288.394531 "/>
<path style=" stroke:none;fill-rule:nonzero;fill:rgb(3.137255%,81.960784%,81.960784%);fill-opacity:1;" d="M 582.15625 429.886719 C 582.15625 433.402344 576.882812 433.402344 576.882812 429.886719 C 576.882812 426.371094 582.15625 426.371094 582.15625 429.886719 "/>
<path style=" stroke:none;fill-rule:nonzero;fill:rgb(3.137255%,81.960784%,81.960784%);fill-opacity:1;" d="M 312.179688 382.015625 C 312.179688 385.503906 306.953125 385.503906 306.953125 382.015625 C 306.953125 378.53125 312.179688 378.53125 312.179688 382.015625 "/>
<path style=" stroke:none;fill-rule:nonzero;fill:rgb(3.137255%,81.960784%,81.960784%);fill-opacity:1;" d="M 553.363281 163.34375 C 553.363281 166.867188 548.078125 166.867188 548.078125 163.34375 C 548.078125 159.816406 553.363281 159.816406 553.363281 163.34375 "/>
<path style=" stroke:none;fill-rule:nonzero;fill:rgb(3.137255%,81.960784%,81.960784%);fill-opacity:1;" d="M 589.035156 345.085938 C 589.035156 348.554688 583.832031 348.554688 583.832031 345.085938 C 583.832031 341.617188 589.035156 341.617188 589.035156 345.085938 "/>
<path style=" stroke:none;fill-rule:nonzero;fill:rgb(3.137255%,81.960784%,81.960784%);fill-opacity:1;" d="M 211.992188 360.507812 C 211.992188 364.199219 206.457031 364.199219 206.457031 360.507812 C 206.457031 356.816406 211.992188 356.816406 211.992188 360.507812 "/>
<path style=" stroke:none;fill-rule:nonzero;fill:rgb(3.137255%,81.960784%,81.960784%);fill-opacity:1;" d="M 346.402344 586.101562 C 346.402344 589.621094 341.121094 589.621094 341.121094 586.101562 C 341.121094 582.578125 346.402344 582.578125 346.402344 586.101562 "/>
<path style=" stroke:none;fill-rule:nonzero;fill:rgb(3.137255%,81.960784%,81.960784%);fill-opacity:1;" d="M 298.789062 482.261719 C 298.789062 485.75 293.5625 485.75 293.5625 482.261719 C 293.5625 478.777344 298.789062 478.777344 298.789062 482.261719 "/>
<path style=" stroke:none;fill-rule:nonzero;fill:rgb(3.137255%,81.960784%,81.960784%);fill-opacity:1;" d="M 125.085938 406.242188 L 145.808594 406.242188 L 145.808594 426.964844 L 125.085938 426.964844 Z M 125.085938 406.242188 "/>
<path style=" stroke:none;fill-rule:nonzero;fill:rgb(3.137255%,81.960784%,81.960784%);fill-opacity:1;" d="M 366.160156 418.519531 C 366.160156 421.992188 360.953125 421.992188 360.953125 418.519531 C 360.953125 415.050781 366.160156 415.050781 366.160156 418.519531 "/>
<path style=" stroke:none;fill-rule:nonzero;fill:rgb(3.137255%,81.960784%,81.960784%);fill-opacity:1;" d="M 420.835938 121.585938 C 420.835938 127.214844 412.390625 127.214844 412.390625 121.585938 C 412.390625 115.957031 420.835938 115.957031 420.835938 121.585938 "/>
<path style=" stroke:none;fill-rule:nonzero;fill:rgb(3.137255%,81.960784%,81.960784%);fill-opacity:1;" d="M 201.792969 278.121094 C 201.792969 281.816406 196.25 281.816406 196.25 278.121094 C 196.25 274.429688 201.792969 274.429688 201.792969 278.121094 "/>
<path style=" stroke:none;fill-rule:nonzero;fill:rgb(3.137255%,81.960784%,81.960784%);fill-opacity:1;" d="M 159.277344 295.636719 C 159.277344 299.210938 153.917969 299.210938 153.917969 295.636719 C 153.917969 292.066406 159.277344 292.066406 159.277344 295.636719 "/>
<path style=" stroke:none;fill-rule:nonzero;fill:rgb(3.137255%,81.960784%,81.960784%);fill-opacity:1;" d="M 389.527344 385.933594 C 389.527344 389.476562 384.210938 389.476562 384.210938 385.933594 C 384.210938 382.386719 389.527344 382.386719 389.527344 385.933594 "/>
<path style=" stroke:none;fill-rule:nonzero;fill:rgb(3.137255%,81.960784%,81.960784%);fill-opacity:1;" d="M 383.152344 452.003906 C 383.152344 455.589844 377.773438 455.589844 377.773438 452.003906 C 377.773438 448.417969 383.152344 448.417969 383.152344 452.003906 "/>
<path style=" stroke:none;fill-rule:nonzero;fill:rgb(3.137255%,81.960784%,81.960784%);fill-opacity:1;" d="M 610.558594 379.796875 C 610.558594 386.203125 600.953125 386.203125 600.953125 379.796875 C 600.953125 373.394531 610.558594 373.394531 610.558594 379.796875 "/>
<path style=" stroke:none;fill-rule:nonzero;fill:rgb(3.137255%,81.960784%,81.960784%);fill-opacity:1;" d="M 514.996094 433.585938 C 514.996094 437.148438 509.65625 437.148438 509.65625 433.585938 C 509.65625 430.027344 514.996094 430.027344 514.996094 433.585938 "/>
<path style=" stroke:none;fill-rule:nonzero;fill:rgb(3.137255%,81.960784%,81.960784%);fill-opacity:1;" d="M 558.699219 523.214844 C 558.699219 529.074219 549.910156 529.074219 549.910156 523.214844 C 549.910156 517.355469 558.699219 517.355469 558.699219 523.214844 "/>
<path style=" stroke:none;fill-rule:nonzero;fill:rgb(3.137255%,81.960784%,81.960784%);fill-opacity:1;" d="M 324.464844 235.792969 C 324.464844 239.632812 318.703125 239.632812 318.703125 235.792969 C 318.703125 231.949219 324.464844 231.949219 324.464844 235.792969 "/>
<path style=" stroke:none;fill-rule:nonzero;fill:rgb(74.901961%,43.921569%,13.333333%);fill-opacity:1;" d="M 334.351562 351.355469 C 334.351562 355.820312 330.734375 359.4375 326.269531 359.4375 C 321.804688 359.4375 318.1875 355.820312 318.1875 351.355469 C 318.1875 346.890625 321.804688 343.273438 326.269531 343.273438 C 330.734375 343.273438 334.351562 346.890625 334.351562 351.355469 "/>
<path style=" stroke:none;fill-rule:nonzero;fill:rgb(74.901961%,43.921569%,13.333333%);fill-opacity:1;" d="M 446.382812 565.441406 C 446.382812 572.421875 435.90625 572.421875 435.90625 565.441406 C 435.90625 558.457031 446.382812 558.457031 446.382812 565.441406 "/>
<path style=" stroke:none;fill-rule:nonzero;fill:rgb(18.039216%,73.72549%,50.980392%);fill-opacity:1;" d="M 271.214844 168.097656 L 291.9375 168.097656 L 291.9375 188.820312 L 271.214844 188.820312 Z M 271.214844 168.097656 "/>
<path style=" stroke:none;fill-rule:nonzero;fill:rgb(18.039216%,56.862745%,73.72549%);fill-opacity:1;" d="M 636.667969 330.390625 C 636.667969 334.6875 630.226562 334.6875 630.226562 330.390625 C 630.226562 326.09375 636.667969 326.09375 636.667969 330.390625 "/>
<path style=" stroke:none;fill-rule:nonzero;fill:rgb(18.039216%,35.294118%,73.72549%);fill-opacity:1;" d="M 427.746094 393.441406 C 427.746094 397.457031 421.722656 397.457031 421.722656 393.441406 C 421.722656 389.425781 427.746094 389.425781 427.746094 393.441406 "/>
<path style=" stroke:none;fill-rule:nonzero;fill:rgb(18.039216%,35.294118%,73.72549%);fill-opacity:1;" d="M 170.699219 408.65625 C 170.699219 415.359375 160.640625 415.359375 160.640625 408.65625 C 160.640625 401.949219 170.699219 401.949219 170.699219 408.65625 "/>
<path style=" stroke:none;fill-rule:nonzero;fill:rgb(18.039216%,35.294118%,73.72549%);fill-opacity:1;" d="M 381.464844 513.261719 L 402.1875 513.261719 L 402.1875 533.984375 L 381.464844 533.984375 Z M 381.464844 513.261719 "/>
<path style=" stroke:none;fill-rule:nonzero;fill:rgb(18.039216%,35.294118%,73.72549%);fill-opacity:1;" d="M 614.558594 445.917969 C 614.558594 449.792969 608.746094 449.792969 608.746094 445.917969 C 608.746094 442.046875 614.558594 442.046875 614.558594 445.917969 "/>
<path style=" stroke:none;fill-rule:nonzero;fill:rgb(18.039216%,35.294118%,73.72549%);fill-opacity:1;" d="M 136.894531 259.734375 C 136.894531 264.195312 130.203125 264.195312 130.203125 259.734375 C 130.203125 255.273438 136.894531 255.273438 136.894531 259.734375 "/>
<path style=" stroke:none;fill-rule:nonzero;fill:rgb(18.039216%,35.294118%,73.72549%);fill-opacity:1;" d="M 397.824219 260.878906 C 397.824219 264.371094 392.582031 264.371094 392.582031 260.878906 C 392.582031 257.386719 397.824219 257.386719 397.824219 260.878906 "/>
<path style=" stroke:none;fill-rule:nonzero;fill:rgb(18.039216%,35.294118%,73.72549%);fill-opacity:1;" d="M 295.457031 562.339844 C 295.457031 565.910156 290.101562 565.910156 290.101562 562.339844 C 290.101562 558.773438 295.457031 558.773438 295.457031 562.339844 "/>
<path style=" stroke:none;fill-rule:nonzero;fill:rgb(18.039216%,35.294118%,73.72549%);fill-opacity:1;" d="M 221.15625 438.546875 C 221.15625 442.136719 215.773438 442.136719 215.773438 438.546875 C 215.773438 434.960938 221.15625 434.960938 221.15625 438.546875 "/>
<path style=" stroke:none;fill-rule:nonzero;fill:rgb(18.039216%,35.294118%,73.72549%);fill-opacity:1;" d="M 502.613281 351.859375 C 502.613281 356.554688 495.566406 356.554688 495.566406 351.859375 C 495.566406 347.160156 502.613281 347.160156 502.613281 351.859375 "/>
<path style=" stroke:none;fill-rule:nonzero;fill:rgb(18.039216%,35.294118%,73.72549%);fill-opacity:1;" d="M 366.835938 285.886719 C 366.835938 289.578125 361.300781 289.578125 361.300781 285.886719 C 361.300781 282.199219 366.835938 282.199219 366.835938 285.886719 "/>
<path style=" stroke:none;fill-rule:nonzero;fill:rgb(18.039216%,35.294118%,73.72549%);fill-opacity:1;" d="M 474.96875 217.023438 C 474.96875 220.792969 469.3125 220.792969 469.3125 217.023438 C 469.3125 213.253906 474.96875 213.253906 474.96875 217.023438 "/>
<path style=" stroke:none;fill-rule:nonzero;fill:rgb(18.039216%,35.294118%,73.72549%);fill-opacity:1;" d="M 485.785156 424.746094 C 485.785156 429.488281 478.675781 429.488281 478.675781 424.746094 C 478.675781 420.007812 485.785156 420.007812 485.785156 424.746094 "/>
<path style=" stroke:none;fill-rule:nonzero;fill:rgb(18.039216%,35.294118%,73.72549%);fill-opacity:1;" d="M 180.304688 452.609375 C 180.304688 458.058594 172.128906 458.058594 172.128906 452.609375 C 172.128906 447.15625 180.304688 447.15625 180.304688 452.609375 "/>
<path style=" stroke:none;fill-rule:nonzero;fill:rgb(18.039216%,35.294118%,73.72549%);fill-opacity:1;" d="M 471.917969 273.472656 C 471.917969 276.925781 466.738281 276.925781 466.738281 273.472656 C 466.738281 270.019531 471.917969 270.019531 471.917969 273.472656 "/>
<path style=" stroke:none;fill-rule:nonzero;fill:rgb(18.039216%,35.294118%,73.72549%);fill-opacity:1;" d="M 573.054688 529.125 C 573.054688 535.128906 564.050781 535.128906 564.050781 529.125 C 564.050781 523.125 573.054688 523.125 573.054688 529.125 "/>
<path style=" stroke:none;fill-rule:nonzero;fill:rgb(18.039216%,35.294118%,73.72549%);fill-opacity:1;" d="M 555.867188 194.097656 C 555.867188 197.902344 550.160156 197.902344 550.160156 194.097656 C 550.160156 190.296875 555.867188 190.296875 555.867188 194.097656 "/>
<path style=" stroke:none;fill-rule:nonzero;fill:rgb(18.039216%,35.294118%,73.72549%);fill-opacity:1;" d="M 271.507812 577.277344 C 271.507812 583.902344 261.574219 583.902344 261.574219 577.277344 C 261.574219 570.65625 271.507812 570.65625 271.507812 577.277344 "/>
<path style=" stroke:none;fill-rule:nonzero;fill:rgb(18.039216%,35.294118%,73.72549%);fill-opacity:1;" d="M 214.953125 324.996094 C 214.953125 328.761719 209.308594 328.761719 209.308594 324.996094 C 209.308594 321.230469 214.953125 321.230469 214.953125 324.996094 "/>
<path style=" stroke:none;fill-rule:nonzero;fill:rgb(18.039216%,35.294118%,73.72549%);fill-opacity:1;" d="M 452.535156 299.5 C 452.535156 304.332031 445.285156 304.332031 445.285156 299.5 C 445.285156 294.664062 452.535156 294.664062 452.535156 299.5 "/>
<path style=" stroke:none;fill-rule:nonzero;fill:rgb(18.039216%,35.294118%,73.72549%);fill-opacity:1;" d="M 197.484375 390.351562 C 197.484375 394.976562 190.542969 394.976562 190.542969 390.351562 C 190.542969 385.722656 197.484375 385.722656 197.484375 390.351562 "/>
<path style=" stroke:none;fill-rule:nonzero;fill:rgb(18.039216%,35.294118%,73.72549%);fill-opacity:1;" d="M 513.953125 136.964844 C 513.953125 141.167969 507.648438 141.167969 507.648438 136.964844 C 507.648438 132.761719 513.953125 132.761719 513.953125 136.964844 "/>
<path style=" stroke:none;fill-rule:nonzero;fill:rgb(18.039216%,35.294118%,73.72549%);fill-opacity:1;" d="M 209.085938 498.578125 C 209.085938 502.617188 203.027344 502.617188 203.027344 498.578125 C 203.027344 494.542969 209.085938 494.542969 209.085938 498.578125 "/>
<path style=" stroke:none;fill-rule:nonzero;fill:rgb(3.529412%,80.784314%,55.294118%);fill-opacity:1;" d="M 475.140625 529.746094 L 495.863281 529.746094 L 495.863281 550.46875 L 475.140625 550.46875 Z M 475.140625 529.746094 "/>
<path style=" stroke:none;fill-rule:nonzero;fill:rgb(87.843137%,65.098039%,3.137255%);fill-opacity:1;" d="M 221.457031 406.699219 C 221.457031 410.652344 215.523438 410.652344 215.523438 406.699219 C 215.523438 402.742188 221.457031 402.742188 221.457031 406.699219 "/>
<path style=" stroke:none;fill-rule:nonzero;fill:rgb(87.843137%,65.098039%,3.137255%);fill-opacity:1;" d="M 123.566406 303.402344 C 123.566406 307.308594 117.707031 307.308594 117.707031 303.402344 C 117.707031 299.496094 123.566406 299.496094 123.566406 303.402344 "/>
<path style=" stroke:none;fill-rule:nonzero;fill:rgb(3.529412%,44.705882%,39.607843%);fill-opacity:1;" d="M 470.910156 461.546875 C 470.910156 466.941406 462.8125 466.941406 462.8125 461.546875 C 462.8125 456.148438 470.910156 456.148438 470.910156 461.546875 "/>
<path style=" stroke:none;fill-rule:nonzero;fill:rgb(3.529412%,44.705882%,39.607843%);fill-opacity:1;" d="M 285.296875 237.214844 C 285.296875 243.910156 275.253906 243.910156 275.253906 237.214844 C 275.253906 230.515625 285.296875 230.515625 285.296875 237.214844 "/>
<path style=" stroke:none;fill-rule:nonzero;fill:rgb(3.529412%,44.705882%,39.607843%);fill-opacity:1;" d="M 533.933594 508.746094 C 533.933594 513.695312 526.507812 513.695312 526.507812 508.746094 C 526.507812 503.796875 533.933594 503.796875 533.933594 508.746094 "/>
<path style=" stroke:none;fill-rule:nonzero;fill:rgb(3.529412%,44.705882%,39.607843%);fill-opacity:1;" d="M 414.660156 576.25 C 414.660156 579.984375 409.058594 579.984375 409.058594 576.25 C 409.058594 572.515625 414.660156 572.515625 414.660156 576.25 "/>
<path style=" stroke:none;fill-rule:nonzero;fill:rgb(67.058824%,33.72549%,84.705882%);fill-opacity:1;" d="M 332.914062 553.882812 C 332.914062 560.335938 323.234375 560.335938 323.234375 553.882812 C 323.234375 547.429688 332.914062 547.429688 332.914062 553.882812 "/>
<path style=" stroke:none;fill-rule:nonzero;fill:rgb(67.058824%,33.72549%,84.705882%);fill-opacity:1;" d="M 255.875 460.15625 C 255.875 464.050781 250.03125 464.050781 250.03125 460.15625 C 250.03125 456.265625 255.875 456.265625 255.875 460.15625 "/>
<path style=" stroke:none;fill-rule:nonzero;fill:rgb(67.058824%,33.72549%,84.705882%);fill-opacity:1;" d="M 302.792969 437.988281 L 323.515625 437.988281 L 323.515625 458.710938 L 302.792969 458.710938 Z M 302.792969 437.988281 "/>
<path style=" stroke:none;fill-rule:nonzero;fill:rgb(67.058824%,33.72549%,84.705882%);fill-opacity:1;" d="M 436.964844 129.9375 L 457.6875 129.9375 L 457.6875 150.660156 L 436.964844 150.660156 Z M 436.964844 129.9375 "/>
<path style=" stroke:none;fill-rule:nonzero;fill:rgb(67.058824%,33.72549%,84.705882%);fill-opacity:1;" d="M 586.894531 313.371094 C 586.894531 316.984375 581.480469 316.984375 581.480469 313.371094 C 581.480469 309.761719 586.894531 309.761719 586.894531 313.371094 "/>
<path style=" stroke:none;fill-rule:nonzero;fill:rgb(67.058824%,33.72549%,84.705882%);fill-opacity:1;" d="M 543.03125 217.691406 C 543.03125 221.601562 539.863281 224.769531 535.957031 224.769531 C 532.046875 224.769531 528.878906 221.601562 528.878906 217.691406 C 528.878906 213.78125 532.046875 210.613281 535.957031 210.613281 C 539.863281 210.613281 543.03125 213.78125 543.03125 217.691406 "/>
<path style=" stroke:none;fill-rule:nonzero;fill:rgb(67.058824%,33.72549%,84.705882%);fill-opacity:1;" d="M 191.667969 425.386719 C 191.667969 428.929688 186.355469 428.929688 186.355469 425.386719 C 186.355469 421.84375 191.667969 421.84375 191.667969 425.386719 "/>
<path style=" stroke:none;fill-rule:nonzero;fill:rgb(67.058824%,33.72549%,84.705882%);fill-opacity:1;" d="M 420.761719 359.660156 C 420.761719 363.59375 414.863281 363.59375 414.863281 359.660156 C 414.863281 355.726562 420.761719 355.726562 420.761719 359.660156 "/>
<path style=" stroke:none;fill-rule:nonzero;fill:rgb(67.058824%,33.72549%,84.705882%);fill-opacity:1;" d="M 202.324219 187.980469 C 202.324219 192.808594 195.078125 192.808594 195.078125 187.980469 C 195.078125 183.148438 202.324219 183.148438 202.324219 187.980469 "/>
<path style=" stroke:none;fill-rule:nonzero;fill:rgb(3.921569%,62.745098%,12.156863%);fill-opacity:1;" d="M 300.246094 413.207031 C 300.246094 420.382812 289.488281 420.382812 289.488281 413.207031 C 289.488281 406.035156 300.246094 406.035156 300.246094 413.207031 "/>
<path style=" stroke:none;fill-rule:nonzero;fill:rgb(3.921569%,62.745098%,12.156863%);fill-opacity:1;" d="M 540.472656 308.605469 C 540.472656 312.128906 535.191406 312.128906 535.191406 308.605469 C 535.191406 305.082031 540.472656 305.082031 540.472656 308.605469 "/>
<path style=" stroke:none;fill-rule:nonzero;fill:rgb(3.921569%,62.745098%,12.156863%);fill-opacity:1;" d="M 167.785156 328.351562 C 167.785156 332.703125 161.257812 332.703125 161.257812 328.351562 C 161.257812 324 167.785156 324 167.785156 328.351562 "/>
<path style=" stroke:none;fill-rule:nonzero;fill:rgb(3.921569%,62.745098%,12.156863%);fill-opacity:1;" d="M 425.933594 152.863281 C 425.933594 158.253906 417.855469 158.253906 417.855469 152.863281 C 417.855469 147.476562 425.933594 147.476562 425.933594 152.863281 "/>
<path style=" stroke:none;fill-rule:nonzero;fill:rgb(3.921569%,62.745098%,12.156863%);fill-opacity:1;" d="M 352.3125 241.925781 L 373.035156 241.925781 L 373.035156 262.648438 L 352.3125 262.648438 Z M 352.3125 241.925781 "/>
<path style=" stroke:none;fill-rule:nonzero;fill:rgb(3.921569%,62.745098%,12.156863%);fill-opacity:1;" d="M 231.464844 474.320312 C 231.464844 478.21875 225.625 478.21875 225.625 474.320312 C 225.625 470.425781 231.464844 470.425781 231.464844 474.320312 "/>
<path style=" stroke:none;fill-rule:nonzero;fill:rgb(3.921569%,62.745098%,12.156863%);fill-opacity:1;" d="M 627.785156 286.855469 C 627.785156 290.34375 622.550781 290.34375 622.550781 286.855469 C 622.550781 283.363281 627.785156 283.363281 627.785156 286.855469 "/>
<path style=" stroke:none;fill-rule:nonzero;fill:rgb(3.921569%,62.745098%,12.156863%);fill-opacity:1;" d="M 179.464844 481.367188 C 179.464844 487.957031 169.582031 487.957031 169.582031 481.367188 C 169.582031 474.777344 179.464844 474.777344 179.464844 481.367188 "/>
<path style=" stroke:none;fill-rule:nonzero;fill:rgb(3.921569%,62.745098%,12.156863%);fill-opacity:1;" d="M 488.136719 570.414062 L 508.859375 570.414062 L 508.859375 591.136719 L 488.136719 591.136719 Z M 488.136719 570.414062 "/>
<path style=" stroke:none;fill-rule:nonzero;fill:rgb(3.921569%,62.745098%,12.156863%);fill-opacity:1;" d="M 255.707031 403.75 C 255.707031 410.28125 245.914062 410.28125 245.914062 403.75 C 245.914062 397.222656 255.707031 397.222656 255.707031 403.75 "/>
<path style=" stroke:none;fill-rule:nonzero;fill:rgb(3.921569%,62.745098%,12.156863%);fill-opacity:1;" d="M 493.917969 468.269531 C 493.917969 471.757812 488.679688 471.757812 488.679688 468.269531 C 488.679688 464.777344 493.917969 464.777344 493.917969 468.269531 "/>
<path style=" stroke:none;fill-rule:nonzero;fill:rgb(3.921569%,62.745098%,12.156863%);fill-opacity:1;" d="M 231.382812 138.828125 C 231.382812 142.289062 226.191406 142.289062 226.191406 138.828125 C 226.191406 135.367188 231.382812 135.367188 231.382812 138.828125 "/>
<path style=" stroke:none;fill-rule:nonzero;fill:rgb(3.921569%,62.745098%,12.156863%);fill-opacity:1;" d="M 618.082031 313.671875 C 618.082031 318.855469 610.304688 318.855469 610.304688 313.671875 C 610.304688 308.484375 618.082031 308.484375 618.082031 313.671875 "/>
<path style=" stroke:none;fill-rule:nonzero;fill:rgb(3.921569%,62.745098%,12.156863%);fill-opacity:1;" d="M 358.144531 464.777344 C 358.144531 468.890625 351.976562 468.890625 351.976562 464.777344 C 351.976562 460.664062 358.144531 460.664062 358.144531 464.777344 "/>
<path style=" stroke:none;fill-rule:nonzero;fill:rgb(3.921569%,62.745098%,12.156863%);fill-opacity:1;" d="M 361.765625 362.664062 C 361.765625 366.285156 356.332031 366.285156 356.332031 362.664062 C 356.332031 359.039062 361.765625 359.039062 361.765625 362.664062 "/>
<path style=" stroke:none;fill-rule:nonzero;fill:rgb(3.921569%,62.745098%,12.156863%);fill-opacity:1;" d="M 384.335938 587.554688 C 384.335938 591.207031 378.855469 591.207031 378.855469 587.554688 C 378.855469 583.898438 384.335938 583.898438 384.335938 587.554688 "/>
<path style=" stroke:none;fill-rule:nonzero;fill:rgb(3.921569%,62.745098%,12.156863%);fill-opacity:1;" d="M 391.433594 178.304688 C 391.433594 185.375 380.828125 185.375 380.828125 178.304688 C 380.828125 171.238281 391.433594 171.238281 391.433594 178.304688 "/>
<path style=" stroke:none;fill-rule:nonzero;fill:rgb(3.921569%,62.745098%,12.156863%);fill-opacity:1;" d="M 267.914062 487.828125 C 267.914062 491.628906 262.214844 491.628906 262.214844 487.828125 C 262.214844 484.03125 267.914062 484.03125 267.914062 487.828125 "/>
<path style=" stroke:none;fill-rule:nonzero;fill:rgb(3.921569%,62.745098%,12.156863%);fill-opacity:1;" d="M 481.996094 382.660156 C 481.996094 386.75 475.863281 386.75 475.863281 382.660156 C 475.863281 378.574219 481.996094 378.574219 481.996094 382.660156 "/>
<path style=" stroke:none;fill-rule:nonzero;fill:rgb(3.921569%,62.745098%,12.156863%);fill-opacity:1;" d="M 502.917969 165.207031 C 502.917969 169.964844 499.0625 173.820312 494.304688 173.820312 C 489.550781 173.820312 485.695312 169.964844 485.695312 165.207031 C 485.695312 160.453125 489.550781 156.597656 494.304688 156.597656 C 499.0625 156.597656 502.917969 160.453125 502.917969 165.207031 "/>
<path style=" stroke:none;fill-rule:nonzero;fill:rgb(3.921569%,62.745098%,12.156863%);fill-opacity:1;" d="M 476.304688 140.976562 C 476.304688 144.492188 471.03125 144.492188 471.03125 140.976562 C 471.03125 137.460938 476.304688 137.460938 476.304688 140.976562 "/>
<path style=" stroke:none;fill-rule:nonzero;fill:rgb(3.921569%,62.745098%,12.156863%);fill-opacity:1;" d="M 294.324219 287.054688 C 294.324219 291.300781 290.882812 294.738281 286.640625 294.738281 C 282.394531 294.738281 278.953125 291.300781 278.953125 287.054688 C 278.953125 282.808594 282.394531 279.371094 286.640625 279.371094 C 290.882812 279.371094 294.324219 282.808594 294.324219 287.054688 "/>
<path style=" stroke:none;fill-rule:nonzero;fill:rgb(3.921569%,62.745098%,12.156863%);fill-opacity:1;" d="M 390.4375 557.355469 C 390.4375 560.980469 385.003906 560.980469 385.003906 557.355469 C 385.003906 553.734375 390.4375 553.734375 390.4375 557.355469 "/>
<path style=" stroke:none;fill-rule:nonzero;fill:rgb(3.921569%,62.745098%,12.156863%);fill-opacity:1;" d="M 630.644531 398.132812 C 630.644531 401.792969 625.152344 401.792969 625.152344 398.132812 C 625.152344 394.46875 630.644531 394.46875 630.644531 398.132812 "/>
<path style=" stroke:none;fill-rule:nonzero;fill:rgb(3.921569%,62.745098%,12.156863%);fill-opacity:1;" d="M 337.351562 97.011719 C 337.351562 100.71875 331.792969 100.71875 331.792969 97.011719 C 331.792969 93.308594 337.351562 93.308594 337.351562 97.011719 "/>
<path style=" stroke:none;fill-rule:nonzero;fill:rgb(3.921569%,62.745098%,12.156863%);fill-opacity:1;" d="M 282.03125 541.445312 C 282.03125 545.625 275.765625 545.625 275.765625 541.445312 C 275.765625 537.269531 282.03125 537.269531 282.03125 541.445312 "/>
<path style=" stroke:none;fill-rule:nonzero;fill:rgb(3.921569%,62.745098%,12.156863%);fill-opacity:1;" d="M 188.875 305.484375 C 188.875 309.09375 183.464844 309.09375 183.464844 305.484375 C 183.464844 301.875 188.875 301.875 188.875 305.484375 "/>
<path style=" stroke:none;fill-rule:nonzero;fill:rgb(3.921569%,62.745098%,12.156863%);fill-opacity:1;" d="M 550.851562 363.71875 C 550.851562 367.367188 545.378906 367.367188 545.378906 363.71875 C 545.378906 360.070312 550.851562 360.070312 550.851562 363.71875 "/>
<path style=" stroke:none;fill-rule:nonzero;fill:rgb(3.921569%,62.745098%,12.156863%);fill-opacity:1;" d="M 382.234375 492.75 C 382.234375 496.238281 377 496.238281 377 492.75 C 377 489.261719 382.234375 489.261719 382.234375 492.75 "/>
<path style=" stroke:none;fill-rule:nonzero;fill:rgb(3.921569%,62.745098%,12.156863%);fill-opacity:1;" d="M 376.171875 93.753906 C 376.171875 97.21875 370.976562 97.21875 370.976562 93.753906 C 370.976562 90.285156 376.171875 90.285156 376.171875 93.753906 "/>
<path style=" stroke:none;fill-rule:nonzero;fill:rgb(3.921569%,62.745098%,12.156863%);fill-opacity:1;" d="M 173.722656 371.449219 C 173.722656 374.949219 168.472656 374.949219 168.472656 371.449219 C 168.472656 367.949219 173.722656 367.949219 173.722656 371.449219 "/>
<path style=" stroke:none;fill-rule:nonzero;fill:rgb(3.921569%,62.745098%,12.156863%);fill-opacity:1;" d="M 151.519531 220.722656 C 151.519531 224.242188 146.242188 224.242188 146.242188 220.722656 C 146.242188 217.207031 151.519531 217.207031 151.519531 220.722656 "/>
<path style=" stroke:none;fill-rule:nonzero;fill:rgb(3.921569%,62.745098%,12.156863%);fill-opacity:1;" d="M 362.84375 535.414062 C 362.84375 538.898438 357.617188 538.898438 357.617188 535.414062 C 357.617188 531.929688 362.84375 531.929688 362.84375 535.414062 "/>
<path style=" stroke:none;fill-rule:nonzero;fill:rgb(3.921569%,62.745098%,12.156863%);fill-opacity:1;" d="M 326.128906 301.804688 C 326.128906 305.453125 320.652344 305.453125 320.652344 301.804688 C 320.652344 298.152344 326.128906 298.152344 326.128906 301.804688 "/>
<path style=" stroke:none;fill-rule:nonzero;fill:rgb(3.921569%,62.745098%,12.156863%);fill-opacity:1;" d="M 443.933594 259.292969 C 443.933594 264.988281 439.316406 269.609375 433.617188 269.609375 C 427.921875 269.609375 423.300781 264.988281 423.300781 259.292969 C 423.300781 253.59375 427.921875 248.976562 433.617188 248.976562 C 439.316406 248.976562 443.933594 253.59375 443.933594 259.292969 "/>
<path style=" stroke:none;fill-rule:nonzero;fill:rgb(3.921569%,62.745098%,12.156863%);fill-opacity:1;" d="M 156.496094 440.65625 C 156.496094 444.328125 150.992188 444.328125 150.992188 440.65625 C 150.992188 436.988281 156.496094 436.988281 156.496094 440.65625 "/>
<path style=" stroke:none;fill-rule:nonzero;fill:rgb(3.921569%,62.745098%,12.156863%);fill-opacity:1;" d="M 353.421875 323.539062 C 353.421875 327.070312 348.125 327.070312 348.125 323.539062 C 348.125 320.007812 353.421875 320.007812 353.421875 323.539062 "/>
<path style=" stroke:none;fill-rule:nonzero;fill:rgb(3.921569%,62.745098%,12.156863%);fill-opacity:1;" d="M 432.300781 520.839844 C 432.300781 524.332031 427.0625 524.332031 427.0625 520.839844 C 427.0625 517.34375 432.300781 517.34375 432.300781 520.839844 "/>
<path style=" stroke:none;fill-rule:nonzero;fill:rgb(3.921569%,62.745098%,12.156863%);fill-opacity:1;" d="M 579.261719 191.328125 C 579.261719 194.824219 574.019531 194.824219 574.019531 191.328125 C 574.019531 187.832031 579.261719 187.832031 579.261719 191.328125 "/>
<path style=" stroke:none;fill-rule:nonzero;fill:rgb(3.921569%,62.745098%,12.156863%);fill-opacity:1;" d="M 488.726562 192.140625 C 488.726562 195.613281 483.515625 195.613281 483.515625 192.140625 C 483.515625 188.664062 488.726562 188.664062 488.726562 192.140625 "/>
<path style=" stroke:none;fill-rule:nonzero;fill:rgb(3.921569%,62.745098%,12.156863%);fill-opacity:1;" d="M 344.082031 611.730469 C 344.082031 615.242188 338.8125 615.242188 338.8125 611.730469 C 338.8125 608.21875 344.082031 608.21875 344.082031 611.730469 "/>
<path style=" stroke:none;fill-rule:nonzero;fill:rgb(3.921569%,62.745098%,12.156863%);fill-opacity:1;" d="M 353.03125 181.605469 C 353.03125 185.3125 347.472656 185.3125 347.472656 181.605469 C 347.472656 177.902344 353.03125 177.902344 353.03125 181.605469 "/>
<path style=" stroke:none;fill-rule:nonzero;fill:rgb(3.921569%,62.745098%,12.156863%);fill-opacity:1;" d="M 426.261719 168.910156 C 426.261719 173.96875 418.675781 173.96875 418.675781 168.910156 C 418.675781 163.851562 426.261719 163.851562 426.261719 168.910156 "/>
<path style=" stroke:none;fill-rule:nonzero;fill:rgb(3.921569%,62.745098%,12.156863%);fill-opacity:1;" d="M 117.976562 340.496094 C 117.976562 343.996094 112.730469 343.996094 112.730469 340.496094 C 112.730469 337 117.976562 337 117.976562 340.496094 "/>
<path style=" stroke:none;fill-rule:nonzero;fill:rgb(3.921569%,62.745098%,12.156863%);fill-opacity:1;" d="M 616.371094 347.980469 C 616.371094 353.234375 608.492188 353.234375 608.492188 347.980469 C 608.492188 342.730469 616.371094 342.730469 616.371094 347.980469 "/>
<path style=" stroke:none;fill-rule:nonzero;fill:rgb(3.921569%,62.745098%,12.156863%);fill-opacity:1;" d="M 542.074219 265.199219 C 542.074219 269.390625 535.789062 269.390625 535.789062 265.199219 C 535.789062 261.011719 542.074219 261.011719 542.074219 265.199219 "/>
<path style=" stroke:none;fill-rule:nonzero;fill:rgb(3.921569%,62.745098%,12.156863%);fill-opacity:1;" d="M 592.382812 215.441406 C 592.382812 222.570312 581.691406 222.570312 581.691406 215.441406 C 581.691406 208.3125 592.382812 208.3125 592.382812 215.441406 "/>
<path style=" stroke:none;fill-rule:nonzero;fill:rgb(3.921569%,62.745098%,12.156863%);fill-opacity:1;" d="M 331.878906 202.367188 C 331.878906 205.480469 329.355469 208.003906 326.242188 208.003906 C 323.128906 208.003906 320.605469 205.480469 320.605469 202.367188 C 320.605469 199.257812 323.128906 196.734375 326.242188 196.734375 C 329.355469 196.734375 331.878906 199.257812 331.878906 202.367188 "/>
<path style=" stroke:none;fill-rule:nonzero;fill:rgb(3.921569%,62.745098%,12.156863%);fill-opacity:1;" d="M 399.148438 420.519531 C 399.148438 423.980469 393.957031 423.980469 393.957031 420.519531 C 393.957031 417.058594 399.148438 417.058594 399.148438 420.519531 "/>
<path style=" stroke:none;fill-rule:nonzero;fill:rgb(3.921569%,62.745098%,12.156863%);fill-opacity:1;" d="M 130.34375 443.363281 C 130.34375 446.96875 124.933594 446.96875 124.933594 443.363281 C 124.933594 439.757812 130.34375 439.757812 130.34375 443.363281 "/>
<path style=" stroke:none;fill-rule:nonzero;fill:rgb(3.921569%,62.745098%,12.156863%);fill-opacity:1;" d="M 454.929688 373.945312 C 454.929688 377.519531 449.570312 377.519531 449.570312 373.945312 C 449.570312 370.371094 454.929688 370.371094 454.929688 373.945312 "/>
<path style=" stroke:none;fill-rule:nonzero;fill:rgb(3.921569%,62.745098%,12.156863%);fill-opacity:1;" d="M 275.40625 317.445312 C 275.40625 321.066406 269.976562 321.066406 269.976562 317.445312 C 269.976562 313.828125 275.40625 313.828125 275.40625 317.445312 "/>
<path style=" stroke:none;fill-rule:nonzero;fill:rgb(3.921569%,62.745098%,12.156863%);fill-opacity:1;" d="M 516.027344 299.367188 C 516.027344 304.539062 508.273438 304.539062 508.273438 299.367188 C 508.273438 294.199219 516.027344 294.199219 516.027344 299.367188 "/>
<path style=" stroke:none;fill-rule:nonzero;fill:rgb(3.921569%,62.745098%,12.156863%);fill-opacity:1;" d="M 237.828125 504.71875 C 237.828125 508.34375 232.386719 508.34375 232.386719 504.71875 C 232.386719 501.09375 237.828125 501.09375 237.828125 504.71875 "/>
<path style=" stroke:none;fill-rule:nonzero;fill:rgb(3.921569%,62.745098%,12.156863%);fill-opacity:1;" d="M 251.433594 228.574219 C 251.433594 235.726562 245.632812 241.527344 238.480469 241.527344 C 231.324219 241.527344 225.527344 235.726562 225.527344 228.574219 C 225.527344 221.417969 231.324219 215.621094 238.480469 215.621094 C 245.632812 215.621094 251.433594 221.417969 251.433594 228.574219 "/>
<path style=" stroke:none;fill-rule:nonzero;fill:rgb(3.921569%,62.745098%,12.156863%);fill-opacity:1;" d="M 509.042969 214.34375 C 509.042969 217.84375 503.789062 217.84375 503.789062 214.34375 C 503.789062 210.84375 509.042969 210.84375 509.042969 214.34375 "/>
<path style=" stroke:none;fill-rule:nonzero;fill:rgb(3.921569%,62.745098%,12.156863%);fill-opacity:1;" d="M 417.652344 287.507812 C 417.652344 291.191406 412.125 291.191406 412.125 287.507812 C 412.125 283.824219 417.652344 283.824219 417.652344 287.507812 "/>
<path style=" stroke:none;fill-rule:nonzero;fill:rgb(3.921569%,62.745098%,12.156863%);fill-opacity:1;" d="M 206.382812 465.714844 C 206.382812 472.386719 196.378906 472.386719 196.378906 465.714844 C 196.378906 459.042969 206.382812 459.042969 206.382812 465.714844 "/>
<path style=" stroke:none;fill-rule:nonzero;fill:rgb(3.921569%,62.745098%,12.156863%);fill-opacity:1;" d="M 561.53125 291.878906 C 561.53125 295.335938 556.34375 295.335938 556.34375 291.878906 C 556.34375 288.417969 561.53125 288.417969 561.53125 291.878906 "/>
<path style=" stroke:none;fill-rule:nonzero;fill:rgb(3.921569%,62.745098%,12.156863%);fill-opacity:1;" d="M 219.101562 251.695312 C 219.101562 255.167969 213.890625 255.167969 213.890625 251.695312 C 213.890625 248.21875 219.101562 248.21875 219.101562 251.695312 "/>
<path style=" stroke:none;fill-rule:nonzero;fill:rgb(3.921569%,62.745098%,12.156863%);fill-opacity:1;" d="M 606.160156 474.582031 C 606.160156 478.164062 600.785156 478.164062 600.785156 474.582031 C 600.785156 471 606.160156 471 606.160156 474.582031 "/>
<path style=" stroke:none;fill-rule:nonzero;fill:rgb(3.921569%,62.745098%,12.156863%);fill-opacity:1;" d="M 257.316406 281.5625 C 257.316406 285.042969 252.097656 285.042969 252.097656 281.5625 C 252.097656 278.082031 257.316406 278.082031 257.316406 281.5625 "/>
<path style=" stroke:none;fill-rule:nonzero;fill:rgb(3.921569%,62.745098%,12.156863%);fill-opacity:1;" d="M 306.433594 327.265625 C 306.433594 331.421875 300.207031 331.421875 300.207031 327.265625 C 300.207031 323.113281 306.433594 323.113281 306.433594 327.265625 "/>
<path style=" stroke:none;fill-rule:nonzero;fill:rgb(3.921569%,62.745098%,12.156863%);fill-opacity:1;" d="M 188.183594 246 C 188.183594 249.804688 182.480469 249.804688 182.480469 246 C 182.480469 242.195312 188.183594 242.195312 188.183594 246 "/>
<path style=" stroke:none;fill-rule:nonzero;fill:rgb(3.921569%,62.745098%,12.156863%);fill-opacity:1;" d="M 607.726562 243.410156 C 607.726562 247.105469 602.183594 247.105469 602.183594 243.410156 C 602.183594 239.710938 607.726562 239.710938 607.726562 243.410156 "/>
<path style=" stroke:none;fill-rule:nonzero;fill:rgb(3.921569%,62.745098%,12.156863%);fill-opacity:1;" d="M 527.925781 161.601562 C 527.925781 165.675781 521.8125 165.675781 521.8125 161.601562 C 521.8125 157.523438 527.925781 157.523438 527.925781 161.601562 "/>
<path style=" stroke:none;fill-rule:nonzero;fill:rgb(3.921569%,62.745098%,12.156863%);fill-opacity:1;" d="M 148.5625 471.9375 C 148.5625 477.007812 140.953125 477.007812 140.953125 471.9375 C 140.953125 466.863281 148.5625 466.863281 148.5625 471.9375 "/>
<path style=" stroke:none;fill-rule:nonzero;fill:rgb(3.921569%,62.745098%,12.156863%);fill-opacity:1;" d="M 331.722656 476.519531 C 331.722656 480.105469 326.34375 480.105469 326.34375 476.519531 C 326.34375 472.933594 331.722656 472.933594 331.722656 476.519531 "/>
<path style=" stroke:none;fill-rule:nonzero;fill:rgb(3.921569%,62.745098%,12.156863%);fill-opacity:1;" d="M 276.332031 384.6875 C 276.332031 388.386719 270.785156 388.386719 270.785156 384.6875 C 270.785156 380.988281 276.332031 380.988281 276.332031 384.6875 "/>
<path style=" stroke:none;fill-rule:nonzero;fill:rgb(3.921569%,62.745098%,12.156863%);fill-opacity:1;" d="M 366.757812 152.199219 C 366.757812 155.679688 361.53125 155.679688 361.53125 152.199219 C 361.53125 148.714844 366.757812 148.714844 366.757812 152.199219 "/>
<path style=" stroke:none;fill-rule:nonzero;fill:rgb(15.294118%,28.627451%,27.058824%);fill-opacity:1;" d="M 586.546875 458.167969 C 586.546875 461.792969 581.113281 461.792969 581.113281 458.167969 C 581.113281 454.546875 586.546875 454.546875 586.546875 458.167969 "/>
<path style=" stroke:none;fill-rule:nonzero;fill:rgb(15.294118%,28.627451%,27.058824%);fill-opacity:1;" d="M 406.832031 535.160156 L 427.554688 535.160156 L 427.554688 555.882812 L 406.832031 555.882812 Z M 406.832031 535.160156 "/>
<path style=" stroke:none;fill-rule:nonzero;fill:rgb(15.294118%,28.627451%,27.058824%);fill-opacity:1;" d="M 202.628906 159.386719 C 202.628906 162.863281 197.414062 162.863281 197.414062 159.386719 C 197.414062 155.910156 202.628906 155.910156 202.628906 159.386719 "/>
<path style=" stroke:none;fill-rule:nonzero;fill:rgb(15.294118%,28.627451%,27.058824%);fill-opacity:1;" d="M 576.105469 268.015625 C 576.105469 271.550781 570.804688 271.550781 570.804688 268.015625 C 570.804688 264.484375 576.105469 264.484375 576.105469 268.015625 "/>
<path style=" stroke:none;fill-rule:nonzero;fill:rgb(15.294118%,28.627451%,27.058824%);fill-opacity:1;" d="M 389.128906 344.90625 C 389.128906 348.449219 383.816406 348.449219 383.816406 344.90625 C 383.816406 341.363281 389.128906 341.363281 389.128906 344.90625 "/>
<path style=" stroke:none;fill-rule:nonzero;fill:rgb(15.294118%,28.627451%,27.058824%);fill-opacity:1;" d="M 187.601562 513.308594 C 187.601562 518.972656 179.105469 518.972656 179.105469 513.308594 C 179.105469 507.644531 187.601562 507.644531 187.601562 513.308594 "/>
<path style=" stroke:none;fill-rule:nonzero;fill:rgb(15.294118%,28.627451%,27.058824%);fill-opacity:1;" d="M 140.253906 325.867188 C 140.253906 329.351562 135.03125 329.351562 135.03125 325.867188 C 135.03125 322.386719 140.253906 322.386719 140.253906 325.867188 "/>
<path style=" stroke:none;fill-rule:nonzero;fill:rgb(15.294118%,28.627451%,27.058824%);fill-opacity:1;" d="M 577.632812 237.925781 C 577.632812 241.875 571.710938 241.875 571.710938 237.925781 C 571.710938 233.976562 577.632812 233.976562 577.632812 237.925781 "/>
<path style=" stroke:none;fill-rule:nonzero;fill:rgb(15.294118%,28.627451%,27.058824%);fill-opacity:1;" d="M 303.785156 261.074219 C 303.785156 264.605469 298.484375 264.605469 298.484375 261.074219 C 298.484375 257.542969 303.785156 257.542969 303.785156 261.074219 "/>
<path style=" stroke:none;fill-rule:nonzero;fill:rgb(15.294118%,28.627451%,27.058824%);fill-opacity:1;" d="M 227.765625 201.503906 C 227.765625 205.042969 222.460938 205.042969 222.460938 201.503906 C 222.460938 197.964844 227.765625 197.964844 227.765625 201.503906 "/>
<path style=" stroke:none;fill-rule:nonzero;fill:rgb(15.294118%,28.627451%,27.058824%);fill-opacity:1;" d="M 450.300781 599.316406 C 450.300781 602.824219 445.039062 602.824219 445.039062 599.316406 C 445.039062 595.804688 450.300781 595.804688 450.300781 599.316406 "/>
<path style=" stroke:none;fill-rule:nonzero;fill:rgb(15.294118%,28.627451%,27.058824%);fill-opacity:1;" d="M 120.238281 398 C 120.238281 401.574219 114.882812 401.574219 114.882812 398 C 114.882812 394.429688 120.238281 394.429688 120.238281 398 "/>
<path style=" stroke:none;fill-rule:nonzero;fill:rgb(30.588235%,22.352941%,47.843137%);fill-opacity:1;" d="M 470.761719 245.480469 C 470.761719 248.964844 465.535156 248.964844 465.535156 245.480469 C 465.535156 241.996094 470.761719 241.996094 470.761719 245.480469 "/>
<path style=" stroke:none;fill-rule:nonzero;fill:rgb(70.196078%,14.901961%,35.686275%);fill-opacity:1;" d="M 457.988281 420.828125 C 457.988281 424.300781 452.777344 424.300781 452.777344 420.828125 C 452.777344 417.351562 457.988281 417.351562 457.988281 420.828125 "/>
<path style=" stroke:none;fill-rule:nonzero;fill:rgb(18.039216%,73.72549%,27.058824%);fill-opacity:1;" d="M 255.882812 253.6875 C 255.882812 257.160156 250.671875 257.160156 250.671875 253.6875 C 250.671875 250.214844 255.882812 250.214844 255.882812 253.6875 "/>
<path style=" stroke:none;fill-rule:nonzero;fill:rgb(18.039216%,73.72549%,27.058824%);fill-opacity:1;" d="M 551.917969 238.085938 C 551.917969 241.695312 546.5 241.695312 546.5 238.085938 C 546.5 234.472656 551.917969 234.472656 551.917969 238.085938 "/>
<path style=" stroke:none;fill-rule:nonzero;fill:rgb(18.039216%,73.72549%,27.058824%);fill-opacity:1;" d="M 355.824219 507.070312 C 355.824219 510.71875 350.355469 510.71875 350.355469 507.070312 C 350.355469 503.425781 355.824219 503.425781 355.824219 507.070312 "/>
<path style=" stroke:none;fill-rule:nonzero;fill:rgb(18.039216%,73.72549%,27.058824%);fill-opacity:1;" d="M 160.871094 502.109375 C 160.871094 505.605469 155.625 505.605469 155.625 502.109375 C 155.625 498.609375 160.871094 498.609375 160.871094 502.109375 "/>
<path style=" stroke:none;fill-rule:nonzero;fill:rgb(18.039216%,73.72549%,27.058824%);fill-opacity:1;" d="M 508.613281 242.28125 C 508.613281 245.832031 503.285156 245.832031 503.285156 242.28125 C 503.285156 238.730469 508.613281 238.730469 508.613281 242.28125 "/>
<path style=" stroke:none;fill-rule:nonzero;fill:rgb(18.039216%,73.72549%,27.058824%);fill-opacity:1;" d="M 357.261719 114.125 C 357.261719 118.128906 351.253906 118.128906 351.253906 114.125 C 351.253906 110.121094 357.261719 110.121094 357.261719 114.125 "/>
<path style=" stroke:none;fill-rule:nonzero;fill:rgb(18.039216%,73.72549%,27.058824%);fill-opacity:1;" d="M 466.238281 113.351562 C 466.238281 116.863281 460.96875 116.863281 460.96875 113.351562 C 460.96875 109.839844 466.238281 109.839844 466.238281 113.351562 "/>
<path style=" stroke:none;fill-rule:nonzero;fill:rgb(18.039216%,73.72549%,27.058824%);fill-opacity:1;" d="M 178.082031 215.273438 C 178.082031 219.125 172.304688 219.125 172.304688 215.273438 C 172.304688 211.425781 178.082031 211.425781 178.082031 215.273438 "/>
<path style=" stroke:none;fill-rule:nonzero;fill:rgb(18.039216%,73.72549%,27.058824%);fill-opacity:1;" d="M 517.640625 533.664062 C 517.640625 537.164062 512.390625 537.164062 512.390625 533.664062 C 512.390625 530.164062 517.640625 530.164062 517.640625 533.664062 "/>
<path style=" stroke:none;fill-rule:nonzero;fill:rgb(18.039216%,73.72549%,27.058824%);fill-opacity:1;" d="M 550.03125 321.457031 L 570.753906 321.457031 L 570.753906 342.179688 L 550.03125 342.179688 Z M 550.03125 321.457031 "/>
<path style=" stroke:none;fill-rule:nonzero;fill:rgb(18.039216%,73.72549%,27.058824%);fill-opacity:1;" d="M 285.726562 446.332031 C 285.726562 450.015625 280.203125 450.015625 280.203125 446.332031 C 280.203125 442.652344 285.726562 442.652344 285.726562 446.332031 "/>
<path style=" stroke:none;fill-rule:nonzero;fill:rgb(18.039216%,73.72549%,27.058824%);fill-opacity:1;" d="M 299.746094 97.890625 L 320.46875 97.890625 L 320.46875 118.613281 L 299.746094 118.613281 Z M 299.746094 97.890625 "/>
<path style=" stroke:none;fill-rule:nonzero;fill:rgb(18.039216%,73.72549%,27.058824%);fill-opacity:1;" d="M 487.179688 301.367188 C 487.179688 305.160156 481.488281 305.160156 481.488281 301.367188 C 481.488281 297.574219 487.179688 297.574219 487.179688 301.367188 "/>
<path style=" stroke:none;fill-rule:nonzero;fill:rgb(18.039216%,73.72549%,27.058824%);fill-opacity:1;" d="M 589.183594 497.863281 C 589.183594 501.328125 583.984375 501.328125 583.984375 497.863281 C 583.984375 494.394531 589.183594 494.394531 589.183594 497.863281 "/>
<path style=" stroke:none;fill-rule:nonzero;fill:rgb(18.039216%,73.72549%,27.058824%);fill-opacity:1;" d="M 502.496094 506.625 C 502.496094 510.105469 497.277344 510.105469 497.277344 506.625 C 497.277344 503.148438 502.496094 503.148438 502.496094 506.625 "/>
<path style=" stroke:none;fill-rule:nonzero;fill:rgb(18.039216%,73.72549%,27.058824%);fill-opacity:1;" d="M 193.089844 538.113281 C 193.089844 542.542969 186.445312 542.542969 186.445312 538.113281 C 186.445312 533.683594 193.089844 533.683594 193.089844 538.113281 "/>
<path style=" stroke:none;fill-rule:nonzero;fill:rgb(18.039216%,73.72549%,27.058824%);fill-opacity:1;" d="M 385.464844 120.09375 C 385.464844 123.570312 380.246094 123.570312 380.246094 120.09375 C 380.246094 116.613281 385.464844 116.613281 385.464844 120.09375 "/>
<path style=" stroke:none;fill-rule:nonzero;fill:rgb(18.039216%,73.72549%,27.058824%);fill-opacity:1;" d="M 255 525.9375 C 255 529.46875 249.703125 529.46875 249.703125 525.9375 C 249.703125 522.40625 255 522.40625 255 525.9375 "/>
<path style=" stroke:none;fill-rule:nonzero;fill:rgb(18.039216%,73.72549%,27.058824%);fill-opacity:1;" d="M 259.371094 122.976562 C 259.371094 126.46875 254.132812 126.46875 254.132812 122.976562 C 254.132812 119.484375 259.371094 119.484375 259.371094 122.976562 "/>
<path style=" stroke:none;fill-rule:nonzero;fill:rgb(18.039216%,73.72549%,27.058824%);fill-opacity:1;" d="M 249.351562 552.140625 C 249.351562 556.988281 242.074219 556.988281 242.074219 552.140625 C 242.074219 547.289062 249.351562 547.289062 249.351562 552.140625 "/>
<path style=" stroke:none;fill-rule:nonzero;fill:rgb(18.039216%,73.72549%,27.058824%);fill-opacity:1;" d="M 620.757812 422.011719 C 620.757812 426.148438 614.550781 426.148438 614.550781 422.011719 C 614.550781 417.875 620.757812 417.875 620.757812 422.011719 "/>
<path style=" stroke:none;fill-rule:nonzero;fill:rgb(18.039216%,73.72549%,27.058824%);fill-opacity:1;" d="M 305.710938 141.011719 C 305.710938 145.019531 299.699219 145.019531 299.699219 141.011719 C 299.699219 137.003906 305.710938 137.003906 305.710938 141.011719 "/>
<path style=" stroke:none;fill-rule:nonzero;fill:rgb(18.039216%,73.72549%,27.058824%);fill-opacity:1;" d="M 514.480469 560.796875 C 514.480469 564.34375 509.164062 564.34375 509.164062 560.796875 C 509.164062 557.253906 514.480469 557.253906 514.480469 560.796875 "/>
<path style=" stroke:none;fill-rule:nonzero;fill:rgb(18.039216%,73.72549%,27.058824%);fill-opacity:1;" d="M 609.328125 258.558594 C 609.328125 262.0625 604.070312 262.0625 604.070312 258.558594 C 604.070312 255.050781 609.328125 255.050781 609.328125 258.558594 "/>
<path style=" stroke:none;fill-rule:nonzero;fill:rgb(18.039216%,73.72549%,27.058824%);fill-opacity:1;" d="M 599.914062 287.609375 C 599.914062 291.214844 594.507812 291.214844 594.507812 287.609375 C 594.507812 284.003906 599.914062 284.003906 599.914062 287.609375 "/>
<path style=" stroke:none;fill-rule:nonzero;fill:rgb(18.039216%,73.72549%,27.058824%);fill-opacity:1;" d="M 438.269531 328.1875 L 458.992188 328.1875 L 458.992188 348.910156 L 438.269531 348.910156 Z M 438.269531 328.1875 "/>
<path style=" stroke:none;fill-rule:nonzero;fill:rgb(18.039216%,73.72549%,27.058824%);fill-opacity:1;" d="M 481.261719 332.289062 C 481.261719 335.949219 475.773438 335.949219 475.773438 332.289062 C 475.773438 328.628906 481.261719 328.628906 481.261719 332.289062 "/>
<path style=" stroke:none;fill-rule:nonzero;fill:rgb(18.039216%,73.72549%,27.058824%);fill-opacity:1;" d="M 551.632812 435.058594 C 551.632812 438.652344 546.242188 438.652344 546.242188 435.058594 C 546.242188 431.46875 551.632812 431.46875 551.632812 435.058594 "/>
<path style=" stroke:none;fill-rule:nonzero;fill:rgb(18.039216%,73.72549%,27.058824%);fill-opacity:1;" d="M 280.511719 145.042969 C 280.511719 148.523438 275.289062 148.523438 275.289062 145.042969 C 275.289062 141.558594 280.511719 141.558594 280.511719 145.042969 "/>
<path style=" stroke:none;fill-rule:nonzero;fill:rgb(18.039216%,73.72549%,27.058824%);fill-opacity:1;" d="M 243 420.773438 L 263.722656 420.773438 L 263.722656 441.496094 L 243 441.496094 Z M 243 420.773438 "/>
<path style=" stroke:none;fill-rule:nonzero;fill:rgb(18.039216%,73.72549%,27.058824%);fill-opacity:1;" d="M 188.90625 344.132812 C 188.90625 347.789062 183.421875 347.789062 183.421875 344.132812 C 183.421875 340.476562 188.90625 340.476562 188.90625 344.132812 "/>
<path style=" stroke:none;fill-rule:nonzero;fill:rgb(18.039216%,73.72549%,27.058824%);fill-opacity:1;" d="M 220.800781 530.445312 C 220.800781 534.324219 214.984375 534.324219 214.984375 530.445312 C 214.984375 526.570312 220.800781 526.570312 220.800781 530.445312 "/>
<path style=" stroke:none;fill-rule:nonzero;fill:rgb(18.039216%,73.72549%,27.058824%);fill-opacity:1;" d="M 322.996094 510.164062 C 322.996094 513.65625 317.757812 513.65625 317.757812 510.164062 C 317.757812 506.667969 322.996094 506.667969 322.996094 510.164062 "/>
<path style=" stroke:none;fill-rule:nonzero;fill:rgb(18.039216%,73.72549%,27.058824%);fill-opacity:1;" d="M 421.417969 322.007812 C 421.417969 325.671875 415.921875 325.671875 415.921875 322.007812 C 415.921875 318.34375 421.417969 318.34375 421.417969 322.007812 "/>
<path style=" stroke:none;fill-rule:nonzero;fill:rgb(18.039216%,73.72549%,27.058824%);fill-opacity:1;" d="M 476.757812 504.460938 C 476.757812 508.085938 471.316406 508.085938 471.316406 504.460938 C 471.316406 500.835938 476.757812 500.835938 476.757812 504.460938 "/>
<path style=" stroke:none;fill-rule:nonzero;fill:rgb(18.039216%,73.72549%,27.058824%);fill-opacity:1;" d="M 500.679688 127.351562 C 500.679688 131.234375 494.859375 131.234375 494.859375 127.351562 C 494.859375 123.46875 500.679688 123.46875 500.679688 127.351562 "/>
<path style=" stroke:none;fill-rule:nonzero;fill:rgb(18.039216%,73.72549%,27.058824%);fill-opacity:1;" d="M 286.179688 199.1875 L 306.902344 199.1875 L 306.902344 219.910156 L 286.179688 219.910156 Z M 286.179688 199.1875 "/>
<path style=" stroke:none;fill-rule:nonzero;fill:rgb(18.039216%,73.72549%,27.058824%);fill-opacity:1;" d="M 550.207031 481.058594 L 570.929688 481.058594 L 570.929688 501.78125 L 550.207031 501.78125 Z M 550.207031 481.058594 "/>
<path style=" stroke:none;fill-rule:nonzero;fill:rgb(18.039216%,73.72549%,27.058824%);fill-opacity:1;" d="M 442.097656 464.019531 C 442.097656 467.605469 436.71875 467.605469 436.71875 464.019531 C 436.71875 460.429688 442.097656 460.429688 442.097656 464.019531 "/>
<path style=" stroke:none;fill-rule:nonzero;fill:rgb(18.039216%,73.72549%,27.058824%);fill-opacity:1;" d="M 157.8125 245.816406 C 157.8125 249.6875 152.011719 249.6875 152.011719 245.816406 C 152.011719 241.949219 157.8125 241.949219 157.8125 245.816406 "/>
<path style=" stroke:none;fill-rule:nonzero;fill:rgb(18.039216%,73.72549%,27.058824%);fill-opacity:1;" d="M 451.128906 497.425781 C 451.128906 500.90625 445.90625 500.90625 445.90625 497.425781 C 445.90625 493.945312 451.128906 493.945312 451.128906 497.425781 "/>
<path style=" stroke:none;fill-rule:nonzero;fill:rgb(18.039216%,73.72549%,27.058824%);fill-opacity:1;" d="M 237.921875 374.984375 C 237.921875 378.472656 232.683594 378.472656 232.683594 374.984375 C 232.683594 371.492188 237.921875 371.492188 237.921875 374.984375 "/>
<path style=" stroke:none;fill-rule:nonzero;fill:rgb(18.039216%,73.72549%,27.058824%);fill-opacity:1;" d="M 359.890625 601.453125 L 380.613281 601.453125 L 380.613281 622.175781 L 359.890625 622.175781 Z M 359.890625 601.453125 "/>
<path style=" stroke:none;fill-rule:nonzero;fill:rgb(18.039216%,73.72549%,27.058824%);fill-opacity:1;" d="M 381.285156 135.785156 L 402.007812 135.785156 L 402.007812 156.507812 L 381.285156 156.507812 Z M 381.285156 135.785156 "/>
<path style=" stroke:none;fill-rule:nonzero;fill:rgb(18.039216%,73.72549%,27.058824%);fill-opacity:1;" d="M 146.945312 356.101562 C 146.945312 359.578125 141.730469 359.578125 141.730469 356.101562 C 141.730469 352.625 146.945312 352.625 146.945312 356.101562 "/>
<path style=" stroke:none;fill-rule:nonzero;fill:rgb(18.039216%,73.72549%,27.058824%);fill-opacity:1;" d="M 429.773438 429.1875 C 429.773438 432.65625 424.566406 432.65625 424.566406 429.1875 C 424.566406 425.714844 429.773438 425.714844 429.773438 429.1875 "/>
<path style=" stroke:none;fill-rule:nonzero;fill:rgb(18.039216%,73.72549%,27.058824%);fill-opacity:1;" d="M 541.289062 552.996094 C 541.289062 556.785156 535.605469 556.785156 535.605469 552.996094 C 535.605469 549.207031 541.289062 549.207031 541.289062 552.996094 "/>
<path style=" stroke:none;fill-rule:nonzero;fill:rgb(18.039216%,73.72549%,27.058824%);fill-opacity:1;" d="M 361.199219 564.484375 C 361.199219 567.96875 355.96875 567.96875 355.96875 564.484375 C 355.96875 561 361.199219 561 361.199219 564.484375 "/>
<path style=" stroke:none;fill-rule:nonzero;fill:rgb(18.039216%,73.72549%,27.058824%);fill-opacity:1;" d="M 594.457031 405.230469 C 594.457031 408.691406 589.265625 408.691406 589.265625 405.230469 C 589.265625 401.769531 594.457031 401.769531 594.457031 405.230469 "/>
<path style=" stroke:none;fill-rule:nonzero;fill:rgb(18.039216%,73.72549%,27.058824%);fill-opacity:1;" d="M 322.457031 141.292969 L 343.179688 141.292969 L 343.179688 162.015625 L 322.457031 162.015625 Z M 322.457031 141.292969 "/>
<path style=" stroke:none;fill-rule:nonzero;fill:rgb(18.039216%,73.72549%,27.058824%);fill-opacity:1;" d="M 266.238281 209.140625 C 266.238281 212.660156 260.953125 212.660156 260.953125 209.140625 C 260.953125 205.617188 266.238281 205.617188 266.238281 209.140625 "/>
<path style=" stroke:none;fill-rule:nonzero;fill:rgb(18.039216%,73.72549%,27.058824%);fill-opacity:1;" d="M 441.398438 224.421875 C 441.398438 228.09375 435.890625 228.09375 435.890625 224.421875 C 435.890625 220.75 441.398438 220.75 441.398438 224.421875 "/>
<path style=" stroke:none;fill-rule:nonzero;fill:rgb(18.039216%,73.72549%,27.058824%);fill-opacity:1;" d="M 387.617188 309.621094 C 387.617188 313.078125 382.425781 313.078125 382.425781 309.621094 C 382.425781 306.160156 387.617188 306.160156 387.617188 309.621094 "/>
<path style=" stroke:none;fill-rule:nonzero;fill:rgb(18.039216%,73.72549%,27.058824%);fill-opacity:1;" d="M 214.574219 158.480469 L 235.296875 158.480469 L 235.296875 179.203125 L 214.574219 179.203125 Z M 214.574219 158.480469 "/>
<path style=" stroke:none;fill-rule:nonzero;fill:rgb(18.039216%,73.72549%,27.058824%);fill-opacity:1;" d="M 552.085938 388.257812 L 572.808594 388.257812 L 572.808594 408.980469 L 552.085938 408.980469 Z M 552.085938 388.257812 "/>
<path style=" stroke:none;fill-rule:nonzero;fill:rgb(18.039216%,73.72549%,27.058824%);fill-opacity:1;" d="M 622.339844 356.777344 L 643.0625 356.777344 L 643.0625 377.5 L 622.339844 377.5 Z M 622.339844 356.777344 "/>
<path style=" stroke:none;fill-rule:nonzero;fill:rgb(18.039216%,73.72549%,27.058824%);fill-opacity:1;" d="M 526.019531 396.917969 L 546.742188 396.917969 L 546.742188 417.640625 L 526.019531 417.640625 Z M 526.019531 396.917969 "/>
<path style=" stroke:none;fill-rule:nonzero;fill:rgb(18.039216%,73.72549%,27.058824%);fill-opacity:1;" d="M 158.375 261.132812 L 179.097656 261.132812 L 179.097656 281.855469 L 158.375 281.855469 Z M 158.375 261.132812 "/>
<path style=" stroke:none;fill-rule:nonzero;fill:rgb(18.039216%,73.72549%,27.058824%);fill-opacity:1;" d="M 395.082031 86.625 L 415.804688 86.625 L 415.804688 107.347656 L 395.082031 107.347656 Z M 395.082031 86.625 "/>
<path style=" stroke:none;fill-rule:nonzero;fill:rgb(18.039216%,73.72549%,27.058824%);fill-opacity:1;" d="M 494.058594 390.496094 L 514.78125 390.496094 L 514.78125 411.21875 L 494.058594 411.21875 Z M 494.058594 390.496094 "/>
<path style=" stroke:none;fill-rule:nonzero;fill:rgb(18.039216%,73.72549%,27.058824%);fill-opacity:1;" d="M 408.0625 231.765625 C 408.0625 235.292969 402.769531 235.292969 402.769531 231.765625 C 402.769531 228.234375 408.0625 228.234375 408.0625 231.765625 "/>
<path style=" stroke:none;fill-rule:nonzero;fill:rgb(18.039216%,73.72549%,27.058824%);fill-opacity:1;" d="M 237.199219 336.980469 L 257.921875 336.980469 L 257.921875 357.703125 L 237.199219 357.703125 Z M 237.199219 336.980469 "/>
<path style=" stroke:none;fill-rule:nonzero;fill:rgb(18.039216%,73.72549%,27.058824%);fill-opacity:1;" d="M 360.4375 219.914062 C 360.4375 224.152344 354.082031 224.152344 354.082031 219.914062 C 354.082031 215.671875 360.4375 215.671875 360.4375 219.914062 "/>
<path style=" stroke:none;fill-rule:nonzero;fill:rgb(18.039216%,73.72549%,27.058824%);fill-opacity:1;" d="M 524.535156 462.996094 C 524.535156 466.464844 519.328125 466.464844 519.328125 462.996094 C 519.328125 459.523438 524.535156 459.523438 524.535156 462.996094 "/>
<path style=" stroke:none;fill-rule:nonzero;fill:rgb(18.039216%,73.72549%,27.058824%);fill-opacity:1;" d="M 344.8125 391.890625 C 344.8125 396.179688 338.378906 396.179688 338.378906 391.890625 C 338.378906 387.601562 344.8125 387.601562 344.8125 391.890625 "/>
<path style=" stroke:none;fill-rule:nonzero;fill:rgb(18.039216%,73.72549%,27.058824%);fill-opacity:1;" d="M 286.957031 112.570312 C 286.957031 116.484375 281.082031 116.484375 281.082031 112.570312 C 281.082031 108.65625 286.957031 108.65625 286.957031 112.570312 "/>
<path style=" stroke:none;fill-rule:nonzero;fill:rgb(18.039216%,73.72549%,27.058824%);fill-opacity:1;" d="M 581.265625 372.351562 C 581.265625 378.625 571.847656 378.625 571.847656 372.351562 C 571.847656 366.074219 581.265625 366.074219 581.265625 372.351562 "/>
<path style=" stroke:none;fill-rule:nonzero;fill:rgb(18.039216%,73.72549%,27.058824%);fill-opacity:1;" d="M 510.621094 268.890625 C 510.621094 272.511719 505.191406 272.511719 505.191406 268.890625 C 505.191406 265.273438 510.621094 265.273438 510.621094 268.890625 "/>
<path style=" stroke:none;fill-rule:nonzero;fill:rgb(18.039216%,73.72549%,27.058824%);fill-opacity:1;" d="M 335.808594 270.183594 C 335.808594 273.75 330.460938 273.75 330.460938 270.183594 C 330.460938 266.621094 335.808594 266.621094 335.808594 270.183594 "/>
<path style=" stroke:none;fill-rule:nonzero;fill:rgb(18.039216%,73.72549%,27.058824%);fill-opacity:1;" d="M 315.875 578.835938 C 315.875 582.765625 309.980469 582.765625 309.980469 578.835938 C 309.980469 574.90625 315.875 574.90625 315.875 578.835938 "/>
<path style=" stroke:none;fill-rule:nonzero;fill:rgb(18.039216%,73.72549%,27.058824%);fill-opacity:1;" d="M 415.746094 463.089844 C 415.746094 466.765625 412.765625 469.746094 409.089844 469.746094 C 405.410156 469.746094 402.429688 466.765625 402.429688 463.089844 C 402.429688 459.410156 405.410156 456.429688 409.089844 456.429688 C 412.765625 456.429688 415.746094 459.410156 415.746094 463.089844 "/>
<path style=" stroke:none;fill-rule:nonzero;fill:rgb(18.039216%,73.72549%,27.058824%);fill-opacity:1;" d="M 132.699219 288.230469 C 132.699219 295.058594 122.453125 295.058594 122.453125 288.230469 C 122.453125 281.402344 132.699219 281.402344 132.699219 288.230469 "/>
<path style=" stroke:none;fill-rule:nonzero;fill:rgb(49.803922%,27.058824%,38.039216%);fill-opacity:1;" d="M 445.4375 194.53125 C 445.4375 198.089844 440.101562 198.089844 440.101562 194.53125 C 440.101562 190.972656 445.4375 190.972656 445.4375 194.53125 "/>
<path style=" stroke:none;fill-rule:nonzero;fill:rgb(80.784314%,49.411765%,0%);fill-opacity:1;" d="M 243.832031 316.164062 C 243.832031 319.984375 238.105469 319.984375 238.105469 316.164062 C 238.105469 312.347656 243.832031 312.347656 243.832031 316.164062 "/>
<path style=" stroke:none;fill-rule:nonzero;fill:rgb(80.784314%,49.411765%,0%);fill-opacity:1;" d="M 285.984375 596.992188 C 285.984375 600.640625 280.511719 600.640625 280.511719 596.992188 C 280.511719 593.34375 285.984375 593.34375 285.984375 596.992188 "/>
<path style=" stroke:none;fill-rule:nonzero;fill:rgb(73.72549%,18.039216%,63.137255%);fill-opacity:1;" d="M 258.6875 154.042969 C 258.6875 157.269531 256.074219 159.886719 252.84375 159.886719 C 249.617188 159.886719 247 157.269531 247 154.042969 C 247 150.816406 249.617188 148.199219 252.84375 148.199219 C 256.074219 148.199219 258.6875 150.816406 258.6875 154.042969 "/>
<path style=" stroke:none;fill-rule:nonzero;fill:rgb(73.72549%,18.039216%,63.137255%);fill-opacity:1;" d="M 478.414062 592.351562 C 478.414062 595.683594 475.714844 598.386719 472.378906 598.386719 C 469.046875 598.386719 466.347656 595.683594 466.347656 592.351562 C 466.347656 589.019531 469.046875 586.316406 472.378906 586.316406 C 475.714844 586.316406 478.414062 589.019531 478.414062 592.351562 "/>
<path style=" stroke:none;fill-rule:nonzero;fill:rgb(73.72549%,18.039216%,63.137255%);fill-opacity:1;" d="M 523.328125 375.003906 C 523.328125 378.585938 517.953125 378.585938 517.953125 375.003906 C 517.953125 371.421875 523.328125 371.421875 523.328125 375.003906 "/>
<path style=" stroke:none;fill-rule:nonzero;fill:rgb(41.568627%,32.156863%,77.647059%);fill-opacity:1;" d="M 120.902344 369.269531 C 120.902344 374.46875 113.109375 374.46875 113.109375 369.269531 C 113.109375 364.074219 120.902344 364.074219 120.902344 369.269531 "/>
<path style=" stroke:none;fill-rule:nonzero;fill:rgb(41.568627%,32.156863%,77.647059%);fill-opacity:1;" d="M 312.734375 174.535156 C 312.734375 178.101562 307.382812 178.101562 307.382812 174.535156 C 307.382812 170.96875 312.734375 170.96875 312.734375 174.535156 "/>
<path style=" stroke:none;fill-rule:nonzero;fill:rgb(41.568627%,32.156863%,77.647059%);fill-opacity:1;" d="M 217.605469 558.328125 C 217.605469 561.789062 212.414062 561.789062 212.414062 558.328125 C 212.414062 554.863281 217.605469 554.863281 217.605469 558.328125 "/>
<path style=" stroke:none;fill-rule:nonzero;fill:rgb(41.568627%,32.156863%,77.647059%);fill-opacity:1;" d="M 464.160156 172.5 C 464.160156 175.957031 458.980469 175.957031 458.980469 172.5 C 458.980469 169.046875 464.160156 169.046875 464.160156 172.5 "/>
<path style=" stroke:none;fill-rule:nonzero;fill:rgb(41.568627%,32.156863%,77.647059%);fill-opacity:1;" d="M 426.574219 600.589844 C 426.574219 604.5 420.707031 604.5 420.707031 600.589844 C 420.707031 596.675781 426.574219 596.675781 426.574219 600.589844 "/>
<path style=" stroke:none;fill-rule:nonzero;fill:rgb(41.568627%,32.156863%,77.647059%);fill-opacity:1;" d="M 415.105469 494.609375 C 415.105469 498.382812 409.441406 498.382812 409.441406 494.609375 C 409.441406 490.835938 415.105469 490.835938 415.105469 494.609375 "/>
<path style=" stroke:none;fill-rule:nonzero;fill:rgb(41.568627%,32.156863%,77.647059%);fill-opacity:1;" d="M 207.773438 221.152344 C 207.773438 227.214844 198.675781 227.214844 198.675781 221.152344 C 198.675781 215.085938 207.773438 215.085938 207.773438 221.152344 "/>
<path style=" stroke:none;fill-rule:nonzero;fill:rgb(41.568627%,32.156863%,77.647059%);fill-opacity:1;" d="M 176.519531 188.074219 C 176.519531 193.480469 168.40625 193.480469 168.40625 188.074219 C 168.40625 182.667969 176.519531 182.667969 176.519531 188.074219 "/>
<path style=" stroke:none;fill-rule:nonzero;fill:rgb(41.568627%,32.156863%,77.647059%);fill-opacity:1;" d="M 242.960938 578.382812 C 242.960938 582.097656 237.382812 582.097656 237.382812 578.382812 C 237.382812 574.664062 242.960938 574.664062 242.960938 578.382812 "/>
<path style=" stroke:none;fill-rule:nonzero;fill:rgb(41.568627%,32.156863%,77.647059%);fill-opacity:1;" d="M 526.386719 188.609375 C 526.386719 192.140625 521.09375 192.140625 521.09375 188.609375 C 521.09375 185.078125 526.386719 185.078125 526.386719 188.609375 "/>
<path style=" stroke:none;fill-rule:nonzero;fill:rgb(41.568627%,32.156863%,77.647059%);fill-opacity:1;" d="M 334.699219 425.699219 C 334.699219 429.585938 328.871094 429.585938 328.871094 425.699219 C 328.871094 421.8125 334.699219 421.8125 334.699219 425.699219 "/>
<path style=" stroke:none;fill-rule:nonzero;fill:rgb(41.568627%,32.156863%,77.647059%);fill-opacity:1;" d="M 559.9375 463.566406 C 559.9375 467.171875 554.53125 467.171875 554.53125 463.566406 C 554.53125 459.964844 559.9375 459.964844 559.9375 463.566406 "/>
<path style=" stroke:none;fill-rule:nonzero;fill:rgb(67.843137%,55.294118%,55.294118%);fill-opacity:1;" d="M 148.355469 386.300781 C 148.355469 389.777344 143.144531 389.777344 143.144531 386.300781 C 143.144531 382.824219 148.355469 382.824219 148.355469 386.300781 "/>
<path style=" stroke:none;fill-rule:nonzero;fill:rgb(67.843137%,55.294118%,55.294118%);fill-opacity:1;" d="M 458.875 536.742188 C 458.875 540.296875 453.546875 540.296875 453.546875 536.742188 C 453.546875 533.191406 458.875 533.191406 458.875 536.742188 "/>
<path style=" stroke:none;fill-rule:nonzero;fill:rgb(67.843137%,55.294118%,55.294118%);fill-opacity:1;" d="M 319.644531 526.207031 C 319.644531 529.71875 314.375 529.71875 314.375 526.207031 C 314.375 522.691406 319.644531 522.691406 319.644531 526.207031 "/>
<path style=" stroke:none;fill-rule:nonzero;fill:rgb(67.843137%,55.294118%,55.294118%);fill-opacity:1;" d="M 460.160156 555.21875 L 480.882812 555.21875 L 480.882812 575.941406 L 460.160156 575.941406 Z M 460.160156 555.21875 "/>
<path style=" stroke:none;fill-rule:nonzero;fill:rgb(81.176471%,90.588235%,12.156863%);fill-opacity:1;" d="M 301.835938 594.355469 L 322.558594 594.355469 L 322.558594 615.078125 L 301.835938 615.078125 Z M 301.835938 594.355469 "/>
</g>
</svg>
