<?xml version="1.0" encoding="UTF-8"?>
<svg xmlns="http://www.w3.org/2000/svg" xmlns:xlink="http://www.w3.org/1999/xlink" width="720pt" height="720pt" viewBox="0 0 720 720" version="1.1">
<g id="surface2914">
<path style=" stroke:none;fill-rule:nonzero;fill:rgb(95.686275%,95.686275%,95.686275%);fill-opacity:1;" d="M 138.34375 454.984375 L 135.511719 455.425781 L 132.914062 455.253906 L 130.582031 454.527344 L 128.523438 453.351562 L 126.699219 451.859375 L 125.015625 450.21875 L 123.347656 448.53125 L 121.652344 446.746094 L 119.953125 444.835938 L 118.285156 442.796875 L 116.6875 440.664062 L 115.527344 438.957031 L 114.148438 436.722656 L 112.921875 434.484375 L 111.855469 432.289062 L 110.953125 430.175781 L 110.179688 428.160156 L 109.480469 426.207031 L 108.78125 424.179688 L 108.03125 421.804688 L 107.222656 418.894531 L 106.347656 415.363281 L 105.421875 411.195312 L 104.746094 407.910156 L 104.070312 404.402344 L 103.386719 400.648438 L 102.699219 396.695312 L 102.015625 392.601562 L 101.34375 388.425781 L 100.6875 384.21875 L 100.050781 380.019531 L 99.429688 375.847656 L 98.816406 371.695312 L 98.222656 367.519531 L 97.679688 363.308594 L 97.230469 359.078125 L 96.894531 354.871094 L 96.703125 350.730469 L 96.667969 346.71875 L 96.808594 342.890625 L 97.105469 339.519531 L 97.792969 335.136719 L 98.777344 331.230469 L 100.023438 327.832031 L 101.46875 324.933594 L 103.050781 322.476562 L 104.707031 320.335938 L 106.382812 318.308594 L 108.101562 316.242188 L 109.894531 314.109375 L 111.769531 311.90625 L 113.710938 309.664062 L 115.679688 307.425781 L 117.304688 305.609375 L 119.542969 303.15625 L 121.71875 300.824219 L 123.792969 298.652344 L 125.734375 296.660156 L 127.550781 294.828125 L 129.304688 293.074219 L 131.144531 291.398438 L 133.21875 289.941406 L 135.589844 288.847656 L 138.273438 288.242188 L 141.242188 288.199219 L 141.824219 288.257812 L 144.460938 288.757812 L 147.21875 289.636719 L 150.054688 290.855469 L 152.914062 292.359375 L 155.746094 294.074219 L 158.535156 295.921875 L 161.28125 297.828125 L 164.039062 299.757812 L 166.851562 301.75 L 169.722656 303.820312 L 172.625 305.960938 L 175.515625 308.144531 L 178.335938 310.34375 L 180.296875 311.914062 L 183.1875 314.300781 L 185.882812 316.617188 L 188.347656 318.824219 L 190.574219 320.898438 L 192.574219 322.832031 L 194.421875 324.667969 L 196.230469 326.480469 L 198.0625 328.375 L 199.921875 330.40625 L 201.777344 332.578125 L 203.589844 334.878906 L 205.3125 337.273438 L 205.90625 338.152344 L 207.582031 340.824219 L 209.089844 343.507812 L 210.414062 346.148438 L 211.554688 348.691406 L 212.542969 351.125 L 213.457031 353.488281 L 214.339844 355.886719 L 215.136719 358.398438 L 215.777344 361.027344 L 216.210938 363.742188 L 216.390625 366.488281 L 216.386719 367.628906 L 216.171875 370.390625 L 215.683594 373.066406 L 214.964844 375.609375 L 214.066406 377.980469 L 213.0625 380.191406 L 212.023438 382.324219 L 210.917969 384.511719 L 209.65625 386.835938 L 208.1875 389.304688 L 206.5 391.894531 L 204.617188 394.546875 L 204.292969 394.980469 L 202.5 397.285156 L 200.609375 399.574219 L 198.652344 401.808594 L 196.671875 403.957031 L 194.707031 406.003906 L 192.773438 407.960938 L 190.855469 409.878906 L 188.867188 411.859375 L 186.726562 413.984375 L 184.382812 416.289062 L 181.84375 418.765625 L 179.125 421.398438 L 176.398438 424.015625 L 173.707031 426.582031 L 170.949219 429.199219 L 168.160156 431.824219 L 165.390625 434.421875 L 162.675781 436.957031 L 160.027344 439.417969 L 157.4375 441.824219 L 154.859375 444.203125 L 152.246094 446.535156 L 149.585938 448.738281 L 146.898438 450.734375 L 144.21875 452.449219 L 141.597656 453.8125 L 139.070312 454.777344 Z M 138.34375 454.984375 "/>
<path style=" stroke:none;fill-rule:nonzero;fill:rgb(95.686275%,95.686275%,95.686275%);fill-opacity:1;" d="M 515.074219 154.339844 L 512.574219 155.273438 L 510.132812 155.824219 L 507.820312 156.027344 L 505.660156 155.964844 L 503.613281 155.769531 L 501.53125 155.507812 L 499.316406 155.066406 L 496.953125 154.355469 L 494.484375 153.328125 L 492.9375 152.53125 L 490.65625 151.140625 L 488.417969 149.53125 L 486.269531 147.765625 L 484.253906 145.921875 L 482.347656 144.058594 L 480.496094 142.183594 L 478.75 140.230469 L 477.265625 138.148438 L 476.179688 135.953125 L 475.601562 133.683594 L 475.527344 132.503906 L 475.816406 130.203125 L 476.664062 127.949219 L 477.972656 125.792969 L 479.617188 123.761719 L 481.449219 121.847656 L 483.335938 119.976562 L 485.308594 118.125 L 487.410156 116.363281 L 489.625 114.777344 L 491.910156 113.441406 L 492.9375 112.941406 L 495.433594 111.996094 L 497.867188 111.429688 L 500.179688 111.203125 L 502.339844 111.242188 L 504.390625 111.414062 L 506.46875 111.652344 L 508.6875 112.070312 L 511.054688 112.761719 L 513.527344 113.777344 L 515.074219 114.5625 L 517.359375 115.945312 L 519.601562 117.550781 L 521.753906 119.316406 L 523.777344 121.164062 L 525.6875 123.035156 L 527.550781 124.914062 L 529.304688 126.875 L 530.800781 128.960938 L 531.898438 131.164062 L 532.492188 133.441406 L 532.578125 134.683594 L 532.285156 136.992188 L 531.441406 139.253906 L 530.128906 141.421875 L 528.476562 143.457031 L 526.640625 145.378906 L 524.75 147.261719 L 522.773438 149.117188 L 520.667969 150.882812 L 518.449219 152.476562 L 516.160156 153.8125 Z M 515.074219 154.339844 "/>
<path style=" stroke:none;fill-rule:nonzero;fill:rgb(95.686275%,95.686275%,95.686275%);fill-opacity:1;" d="M 262.261719 598.34375 L 259.652344 597.828125 L 256.921875 596.925781 L 254.121094 595.675781 L 251.304688 594.140625 L 248.511719 592.390625 L 245.769531 590.511719 L 243.066406 588.570312 L 240.351562 586.605469 L 237.578125 584.578125 L 234.742188 582.464844 L 231.863281 580.277344 L 228.992188 578.042969 L 226.175781 575.789062 L 224.296875 574.25 L 221.421875 571.824219 L 218.726562 569.46875 L 216.238281 567.214844 L 213.980469 565.09375 L 211.929688 563.109375 L 210.035156 561.226562 L 208.183594 559.371094 L 206.292969 557.464844 L 204.355469 555.46875 L 202.382812 553.382812 L 200.40625 551.242188 L 198.476562 549.078125 L 197.546875 548.011719 L 195.472656 545.550781 L 193.542969 543.167969 L 191.796875 540.910156 L 190.230469 538.804688 L 188.820312 536.839844 L 187.46875 534.925781 L 186.144531 532.941406 L 184.914062 530.824219 L 183.839844 528.566406 L 182.988281 526.203125 L 182.484375 524.175781 L 182.136719 521.613281 L 182.097656 519.082031 L 182.339844 516.640625 L 182.785156 514.332031 L 183.355469 512.144531 L 183.96875 509.976562 L 184.691406 507.710938 L 185.617188 505.3125 L 186.777344 502.808594 L 188.179688 500.265625 L 188.621094 499.535156 L 190.039062 497.402344 L 191.585938 495.316406 L 193.222656 493.3125 L 194.90625 491.417969 L 196.597656 489.640625 L 198.277344 487.949219 L 199.980469 486.296875 L 201.871094 484.789062 L 204.070312 483.585938 L 206.652344 482.816406 L 209.621094 482.578125 L 212.964844 482.929688 L 213.503906 483.039062 L 216.375 483.816406 L 219.421875 484.949219 L 222.59375 486.410156 L 225.851562 488.152344 L 229.132812 490.113281 L 232.410156 492.238281 L 235.652344 494.453125 L 238.867188 496.710938 L 242.089844 498.984375 L 245.34375 501.292969 L 248.625 503.644531 L 251.898438 506.019531 L 255.121094 508.398438 L 258.242188 510.742188 L 261.210938 513.019531 L 262.953125 514.382812 L 266.324219 517.085938 L 269.324219 519.585938 L 271.933594 521.859375 L 274.15625 523.890625 L 276.050781 525.703125 L 277.738281 527.375 L 279.375 529.035156 L 280.992188 530.835938 L 282.546875 532.859375 L 283.988281 535.152344 L 285.253906 537.707031 L 286.300781 540.496094 L 286.445312 540.949219 L 287.183594 543.84375 L 287.695312 546.878906 L 287.992188 549.992188 L 288.09375 553.117188 L 288.042969 556.199219 L 287.890625 559.222656 L 287.707031 562.226562 L 287.472656 565.265625 L 287.132812 568.363281 L 286.640625 571.488281 L 285.972656 574.574219 L 285.128906 577.5625 L 284.441406 579.519531 L 283.222656 582.359375 L 281.832031 584.960938 L 280.3125 587.292969 L 278.714844 589.347656 L 277.082031 591.164062 L 275.449219 592.828125 L 273.785156 594.441406 L 271.976562 595.925781 L 269.9375 597.15625 L 267.636719 598.023438 L 265.074219 598.4375 L 262.289062 598.347656 Z M 262.261719 598.34375 "/>
<path style=" stroke:none;fill-rule:nonzero;fill:rgb(95.686275%,95.686275%,95.686275%);fill-opacity:1;" d="M 446.515625 152.695312 L 444.335938 152.429688 L 442.191406 151.667969 L 440.132812 150.472656 L 438.1875 148.957031 L 436.355469 147.246094 L 434.574219 145.46875 L 432.746094 143.589844 L 430.816406 141.492188 L 428.796875 139.125 L 426.714844 136.492188 L 424.636719 133.65625 L 422.824219 131 L 421.050781 128.238281 L 419.34375 125.429688 L 417.730469 122.632812 L 416.210938 119.890625 L 414.769531 117.207031 L 413.355469 114.546875 L 412.003906 111.839844 L 410.804688 109.066406 L 409.832031 106.253906 L 409.164062 103.457031 L 408.851562 100.730469 L 408.84375 99.261719 L 409.171875 96.523438 L 409.9375 93.992188 L 411.082031 91.695312 L 412.519531 89.644531 L 414.140625 87.808594 L 415.839844 86.089844 L 417.570312 84.402344 L 419.382812 82.808594 L 421.292969 81.398438 L 423.269531 80.253906 L 425.28125 79.445312 L 426.367188 79.164062 L 428.695312 78.945312 L 430.949219 79.234375 L 433.066406 79.953125 L 435.027344 80.984375 L 436.875 82.171875 L 438.734375 83.414062 L 440.71875 84.792969 L 442.855469 86.363281 L 445.117188 88.121094 L 447.074219 89.722656 L 449.179688 91.527344 L 451.269531 93.402344 L 453.292969 95.292969 L 455.222656 97.15625 L 457.050781 98.964844 L 458.832031 100.75 L 460.601562 102.589844 L 462.328125 104.5625 L 463.945312 106.667969 L 465.386719 108.886719 L 466.570312 111.136719 L 467.589844 113.679688 L 468.277344 116.199219 L 468.65625 118.628906 L 468.792969 120.929688 L 468.785156 123.117188 L 468.726562 125.308594 L 468.523438 127.609375 L 468.078125 130.042969 L 467.332031 132.5625 L 466.28125 135.074219 L 464.980469 137.460938 L 463.433594 139.773438 L 461.707031 141.960938 L 459.882812 143.992188 L 458.027344 145.898438 L 456.15625 147.75 L 454.207031 149.492188 L 452.125 150.96875 L 449.929688 152.050781 L 447.664062 152.621094 Z M 446.515625 152.695312 "/>
<path style=" stroke:none;fill-rule:nonzero;fill:rgb(95.686275%,95.686275%,95.686275%);fill-opacity:1;" d="M 563.464844 527.839844 L 560.921875 528.757812 L 558.410156 529.320312 L 555.992188 529.554688 L 553.714844 529.527344 L 551.546875 529.359375 L 549.375 529.136719 L 547.09375 528.773438 L 544.675781 528.167969 L 542.167969 527.277344 L 539.761719 526.152344 L 537.398438 524.773438 L 535.101562 523.175781 L 532.925781 521.421875 L 530.898438 519.585938 L 529 517.730469 L 527.15625 515.867188 L 525.417969 513.921875 L 523.9375 511.851562 L 522.859375 509.664062 L 522.28125 507.40625 L 522.203125 506.222656 L 522.492188 503.9375 L 523.332031 501.695312 L 524.632812 499.546875 L 526.269531 497.53125 L 528.089844 495.625 L 529.964844 493.761719 L 531.933594 491.921875 L 534.054688 490.164062 L 536.308594 488.570312 L 538.664062 487.222656 L 539.761719 486.699219 L 542.292969 485.761719 L 544.800781 485.164062 L 547.210938 484.890625 L 549.492188 484.867188 L 551.660156 484.988281 L 553.832031 485.160156 L 556.117188 485.480469 L 558.542969 486.046875 L 561.0625 486.90625 L 563.464844 488.007812 L 565.835938 489.371094 L 568.140625 490.960938 L 570.328125 492.714844 L 572.371094 494.558594 L 574.285156 496.425781 L 576.148438 498.300781 L 577.902344 500.257812 L 579.40625 502.339844 L 580.515625 504.539062 L 581.121094 506.8125 L 581.21875 508.125 L 580.925781 510.429688 L 580.085938 512.691406 L 578.78125 514.855469 L 577.136719 516.890625 L 575.304688 518.808594 L 573.414062 520.6875 L 571.4375 522.542969 L 569.3125 524.3125 L 567.050781 525.910156 L 564.695312 527.261719 Z M 563.464844 527.839844 "/>
<path style=" stroke:none;fill-rule:nonzero;fill:rgb(95.686275%,95.686275%,95.686275%);fill-opacity:1;" d="M 205.601562 190.757812 L 202.074219 190.921875 L 198.839844 190.585938 L 195.921875 189.792969 L 193.324219 188.597656 L 191.039062 187.089844 L 189.003906 185.363281 L 187.121094 183.53125 L 185.28125 181.664062 L 183.519531 179.738281 L 181.925781 177.71875 L 180.578125 175.601562 L 179.554688 173.402344 L 178.90625 171.152344 L 178.675781 168.878906 L 178.675781 168.808594 L 178.949219 166.257812 L 179.742188 163.738281 L 181 161.296875 L 182.632812 158.960938 L 184.53125 156.75 L 186.574219 154.636719 L 188.664062 152.554688 L 190.851562 150.421875 L 193.222656 148.214844 L 195.800781 145.953125 L 198.574219 143.667969 L 201.511719 141.402344 L 203.03125 140.292969 L 205.933594 138.273438 L 208.894531 136.335938 L 211.863281 134.511719 L 214.792969 132.8125 L 217.648438 131.242188 L 220.414062 129.773438 L 223.132812 128.367188 L 225.867188 126.957031 L 228.660156 125.546875 L 231.507812 124.15625 L 234.375 122.808594 L 237.214844 121.542969 L 239.964844 120.390625 L 241.035156 119.964844 L 244.324219 118.742188 L 247.328125 117.761719 L 250.011719 117.019531 L 252.367188 116.480469 L 254.484375 116.078125 L 256.546875 115.726562 L 258.695312 115.484375 L 260.972656 115.460938 L 263.347656 115.738281 L 265.765625 116.355469 L 266.683594 116.683594 L 269.070312 117.78125 L 271.382812 119.195312 L 273.574219 120.84375 L 275.617188 122.644531 L 277.527344 124.503906 L 279.390625 126.386719 L 281.128906 128.359375 L 282.597656 130.460938 L 283.648438 132.675781 L 284.179688 134.957031 L 284.230469 135.910156 L 283.992188 137.964844 L 283.3125 139.992188 L 282.238281 141.945312 L 280.855469 143.800781 L 279.277344 145.550781 L 277.613281 147.234375 L 275.859375 148.957031 L 273.808594 150.855469 L 271.316406 153.003906 L 268.3125 155.417969 L 264.792969 158.082031 L 262.296875 159.894531 L 259.296875 162.007812 L 256.085938 164.199219 L 252.714844 166.449219 L 249.226562 168.722656 L 245.679688 170.996094 L 242.113281 173.246094 L 238.566406 175.457031 L 235.042969 177.636719 L 231.527344 179.804688 L 227.980469 181.929688 L 224.390625 183.957031 L 220.773438 185.824219 L 217.164062 187.46875 L 213.613281 188.839844 L 210.167969 189.886719 L 206.871094 190.582031 Z M 205.601562 190.757812 "/>
<path style=" stroke:none;fill-rule:nonzero;fill:rgb(95.686275%,95.686275%,95.686275%);fill-opacity:1;" d="M 488.839844 591.296875 L 486.546875 590.039062 L 484.289062 588.511719 L 482.113281 586.78125 L 480.0625 584.9375 L 478.121094 583.042969 L 476.230469 581.136719 L 474.445312 579.152344 L 472.917969 577.039062 L 471.789062 574.804688 L 471.164062 572.496094 L 471.066406 571.136719 L 471.347656 568.851562 L 472.164062 566.605469 L 473.4375 564.449219 L 475.046875 562.417969 L 476.851562 560.503906 L 478.722656 558.636719 L 480.65625 556.742188 L 482.710938 554.816406 L 484.871094 552.902344 L 487.105469 551.058594 L 488.839844 549.71875 L 491.257812 547.992188 L 493.613281 546.46875 L 495.847656 545.164062 L 497.933594 544.058594 L 499.902344 543.089844 L 501.878906 542.175781 L 504.003906 541.457031 L 506.328125 541.089844 L 508.839844 541.195312 L 511.457031 541.828125 L 513.828125 542.835938 L 516.222656 544.230469 L 518.585938 545.941406 L 520.867188 547.882812 L 523.058594 549.957031 L 525.1875 552.078125 L 527.265625 554.242188 L 529.160156 556.523438 L 530.726562 558.941406 L 531.84375 561.46875 L 532.410156 564.0625 L 532.472656 565.230469 L 532.175781 567.792969 L 531.324219 570.320312 L 529.980469 572.761719 L 528.257812 575.074219 L 526.285156 577.261719 L 524.203125 579.363281 L 522.085938 581.457031 L 519.886719 583.527344 L 517.601562 585.519531 L 515.253906 587.371094 L 512.898438 589.007812 L 511.457031 589.890625 L 508.988281 591.171875 L 506.636719 592.117188 L 504.4375 592.738281 L 502.414062 593.082031 L 500.542969 593.238281 L 498.726562 593.328125 L 496.835938 593.335938 L 494.820312 593.15625 L 492.683594 592.726562 L 490.460938 592.003906 Z M 488.839844 591.296875 "/>
<path style=" stroke:none;fill-rule:nonzero;fill:rgb(95.686275%,95.686275%,95.686275%);fill-opacity:1;" d="M 589.03125 226.375 L 586.660156 226.628906 L 584.386719 226.355469 L 582.269531 225.625 L 580.320312 224.570312 L 578.496094 223.351562 L 576.664062 222.078125 L 574.703125 220.664062 L 572.582031 219.058594 L 570.332031 217.265625 L 568.324219 215.589844 L 566.160156 213.703125 L 564.011719 211.746094 L 561.921875 209.777344 L 559.929688 207.84375 L 558.039062 205.96875 L 556.191406 204.113281 L 554.4375 202.191406 L 552.914062 200.144531 L 551.757812 197.980469 L 551.078125 195.738281 L 550.921875 194.058594 L 551.226562 191.703125 L 552.101562 189.394531 L 553.453125 187.183594 L 555.152344 185.109375 L 557.035156 183.152344 L 558.96875 181.238281 L 560.984375 179.402344 L 563.113281 177.753906 L 565.332031 176.414062 L 567.582031 175.472656 L 568.324219 175.257812 L 570.675781 174.921875 L 572.941406 175.082031 L 575.066406 175.667969 L 577.023438 176.566406 L 578.871094 177.613281 L 580.738281 178.71875 L 582.75 179.988281 L 584.941406 181.480469 L 587.273438 183.199219 L 589.03125 184.582031 L 591.214844 186.402344 L 593.398438 188.324219 L 595.535156 190.296875 L 597.582031 192.261719 L 599.53125 194.191406 L 601.433594 196.097656 L 603.257812 198.0625 L 604.867188 200.152344 L 606.125 202.359375 L 606.914062 204.65625 L 607.164062 206.84375 L 606.90625 209.058594 L 606.164062 211.234375 L 605 213.335938 L 603.507812 215.328125 L 601.804688 217.210938 L 600.007812 219.023438 L 598.175781 220.804688 L 596.269531 222.492188 L 594.273438 223.988281 L 592.214844 225.203125 L 590.140625 226.070312 Z M 589.03125 226.375 "/>
<path style=" stroke:none;fill-rule:nonzero;fill:rgb(95.686275%,95.686275%,95.686275%);fill-opacity:1;" d="M 372.332031 636.730469 L 367.660156 636.652344 L 363.15625 636.316406 L 358.851562 635.734375 L 354.789062 634.941406 L 350.980469 633.964844 L 347.421875 632.855469 L 344.066406 631.660156 L 340.828125 630.421875 L 337.59375 629.167969 L 334.316406 627.859375 L 330.988281 626.472656 L 327.632812 624.992188 L 324.285156 623.421875 L 320.992188 621.765625 L 317.800781 620.042969 L 315.4375 618.675781 L 311.855469 616.4375 L 308.554688 614.160156 L 305.566406 611.882812 L 302.90625 609.652344 L 300.542969 607.492188 L 298.398438 605.402344 L 296.335938 603.332031 L 294.34375 601.210938 L 292.53125 598.980469 L 291.011719 596.628906 L 289.882812 594.183594 L 289.222656 591.671875 L 289.0625 589.703125 L 289.308594 587.257812 L 290.027344 584.84375 L 291.175781 582.488281 L 292.675781 580.230469 L 294.441406 578.082031 L 296.371094 576.035156 L 298.359375 574.039062 L 300.429688 571.976562 L 302.699219 569.71875 L 305.25 567.195312 L 308.113281 564.375 L 311.28125 561.269531 L 314.726562 557.910156 L 315.558594 557.101562 L 318.429688 554.3125 L 321.421875 551.414062 L 324.503906 548.4375 L 327.636719 545.417969 L 330.78125 542.390625 L 333.910156 539.382812 L 336.996094 536.421875 L 340.042969 533.5 L 343.066406 530.601562 L 346.140625 527.75 L 349.351562 525.035156 L 352.746094 522.550781 L 356.351562 520.398438 L 360.164062 518.660156 L 364.167969 517.410156 L 368.332031 516.699219 L 372.625 516.5625 L 373.214844 516.589844 L 377.226562 517.050781 L 381.296875 517.996094 L 385.402344 519.390625 L 389.5 521.203125 L 393.554688 523.375 L 397.542969 525.851562 L 401.445312 528.558594 L 405.253906 531.429688 L 408.996094 534.394531 L 412.710938 537.386719 L 416.4375 540.394531 L 420.1875 543.425781 L 423.945312 546.480469 L 427.691406 549.535156 L 431.382812 552.5625 L 434.976562 555.535156 L 438.4375 558.417969 L 441.722656 561.179688 L 444.285156 563.355469 L 448.488281 566.972656 L 452.175781 570.214844 L 455.324219 573.054688 L 457.953125 575.492188 L 460.125 577.578125 L 461.984375 579.417969 L 463.734375 581.171875 L 465.421875 582.976562 L 466.953125 584.875 L 468.230469 586.871094 L 469.171875 588.953125 L 469.710938 591.082031 L 469.832031 592.640625 L 469.621094 594.707031 L 469.011719 596.75 L 468.042969 598.738281 L 466.773438 600.648438 L 465.277344 602.464844 L 463.648438 604.195312 L 461.964844 605.882812 L 460.175781 607.597656 L 458.09375 609.382812 L 455.59375 611.257812 L 452.601562 613.207031 L 449.105469 615.203125 L 445.113281 617.222656 L 444.167969 617.667969 L 440.785156 619.175781 L 437.175781 620.671875 L 433.371094 622.136719 L 429.425781 623.566406 L 425.390625 624.945312 L 421.316406 626.269531 L 417.242188 627.539062 L 413.191406 628.765625 L 409.160156 629.964844 L 405.109375 631.15625 L 400.988281 632.308594 L 396.765625 633.386719 L 392.449219 634.363281 L 388.0625 635.207031 L 383.644531 635.882812 L 379.238281 636.371094 L 374.890625 636.660156 Z M 372.332031 636.730469 "/>
<path style=" stroke:none;fill-rule:nonzero;fill:rgb(95.686275%,95.686275%,95.686275%);fill-opacity:1;" d="M 374.207031 237.222656 L 371.679688 237.910156 L 369.183594 238.183594 L 366.792969 238.097656 L 364.539062 237.730469 L 362.402344 237.210938 L 360.265625 236.636719 L 358.019531 235.925781 L 355.636719 235.003906 L 353.15625 233.828125 L 350.640625 232.40625 L 350.574219 232.363281 L 348.226562 230.804688 L 345.941406 229.078125 L 343.765625 227.25 L 341.734375 225.375 L 339.828125 223.507812 L 337.976562 221.644531 L 336.222656 219.707031 L 334.707031 217.644531 L 333.578125 215.460938 L 332.9375 213.207031 L 332.816406 211.71875 L 333.109375 209.402344 L 333.957031 207.128906 L 335.277344 204.953125 L 336.933594 202.90625 L 338.78125 200.976562 L 340.683594 199.089844 L 342.675781 197.238281 L 344.8125 195.511719 L 347.089844 193.996094 L 349.453125 192.777344 L 350.574219 192.328125 L 353.09375 191.617188 L 355.578125 191.300781 L 357.96875 191.339844 L 360.222656 191.648438 L 362.363281 192.109375 L 364.503906 192.625 L 366.757812 193.277344 L 369.15625 194.15625 L 371.652344 195.292969 L 374.1875 196.699219 L 374.207031 196.710938 L 376.5625 198.25 L 378.859375 199.964844 L 381.046875 201.796875 L 383.097656 203.679688 L 385.023438 205.5625 L 386.894531 207.445312 L 388.671875 209.394531 L 390.214844 211.472656 L 391.378906 213.667969 L 392.058594 215.941406 L 392.207031 217.59375 L 391.910156 219.933594 L 391.058594 222.230469 L 389.734375 224.429688 L 388.066406 226.496094 L 386.207031 228.445312 L 384.289062 230.351562 L 382.285156 232.21875 L 380.140625 233.960938 L 377.859375 235.492188 L 375.492188 236.714844 Z M 374.207031 237.222656 "/>
<path style=" stroke:none;fill-rule:nonzero;fill:rgb(95.686275%,95.686275%,95.686275%);fill-opacity:1;" d="M 563.230469 474.703125 L 561.042969 474.441406 L 558.898438 473.675781 L 556.832031 472.484375 L 554.878906 470.96875 L 553.042969 469.253906 L 551.253906 467.472656 L 549.429688 465.582031 L 547.523438 463.457031 L 545.542969 461.035156 L 543.53125 458.3125 L 541.53125 455.328125 L 541.476562 455.242188 L 539.800781 452.492188 L 538.175781 449.613281 L 536.636719 446.671875 L 535.191406 443.71875 L 533.84375 440.8125 L 532.578125 437.964844 L 531.347656 435.140625 L 530.160156 432.28125 L 529.101562 429.367188 L 528.238281 426.417969 L 527.644531 423.484375 L 527.363281 420.628906 L 527.386719 418.382812 L 527.800781 415.527344 L 528.621094 412.910156 L 529.792969 410.566406 L 531.234375 408.5 L 532.847656 406.667969 L 534.53125 404.964844 L 536.246094 403.296875 L 538.03125 401.726562 L 539.898438 400.339844 L 541.820312 399.226562 L 543.757812 398.453125 L 544.796875 398.195312 L 547.042969 398.027344 L 549.191406 398.386719 L 551.1875 399.191406 L 553.019531 400.308594 L 554.738281 401.574219 L 556.480469 402.902344 L 558.378906 404.394531 L 560.46875 406.101562 L 562.71875 408.023438 L 564.382812 409.488281 L 566.449219 411.363281 L 568.542969 413.316406 L 570.613281 415.292969 L 572.613281 417.25 L 574.539062 419.160156 L 576.414062 421.03125 L 578.273438 422.945312 L 580.089844 424.96875 L 581.796875 427.117188 L 583.320312 429.375 L 584.597656 431.691406 L 584.96875 432.492188 L 585.945312 435.113281 L 586.546875 437.695312 L 586.808594 440.167969 L 586.792969 442.496094 L 586.621094 444.699219 L 586.394531 446.894531 L 586.039062 449.191406 L 585.460938 451.621094 L 584.605469 454.136719 L 583.460938 456.683594 L 583.320312 456.953125 L 581.933594 459.351562 L 580.324219 461.671875 L 578.566406 463.867188 L 576.726562 465.90625 L 574.863281 467.8125 L 572.996094 469.664062 L 571.050781 471.410156 L 568.980469 472.90625 L 566.789062 474.007812 L 564.527344 474.609375 Z M 563.230469 474.703125 "/>
<path style=" stroke:none;fill-rule:nonzero;fill:rgb(95.686275%,95.686275%,95.686275%);fill-opacity:1;" d="M 461.859375 492.203125 L 459.539062 491.90625 L 457.265625 491.046875 L 455.085938 489.71875 L 453.042969 488.054688 L 451.113281 486.203125 L 449.222656 484.296875 L 447.386719 482.296875 L 445.699219 480.160156 L 444.253906 477.894531 L 443.148438 475.554688 L 442.824219 474.636719 L 442.246094 472.15625 L 442.097656 469.722656 L 442.328125 467.394531 L 442.839844 465.210938 L 443.5 463.136719 L 444.21875 461.058594 L 445.074219 458.859375 L 446.144531 456.523438 L 447.453125 454.085938 L 448.863281 451.8125 L 450.480469 449.511719 L 452.246094 447.265625 L 454.09375 445.121094 L 455.96875 443.109375 L 457.828125 441.214844 L 459.683594 439.378906 L 461.609375 437.636719 L 463.664062 436.140625 L 465.835938 435.03125 L 468.078125 434.410156 L 469.472656 434.304688 L 471.789062 434.601562 L 474.058594 435.457031 L 476.230469 436.78125 L 478.269531 438.449219 L 480.195312 440.296875 L 482.082031 442.199219 L 483.910156 444.195312 L 485.597656 446.332031 L 487.035156 448.59375 L 488.140625 450.933594 L 488.453125 451.8125 L 489.039062 454.289062 L 489.195312 456.722656 L 488.976562 459.050781 L 488.480469 461.234375 L 487.832031 463.3125 L 487.128906 465.390625 L 486.285156 467.589844 L 485.226562 469.933594 L 483.921875 472.375 L 482.523438 474.636719 L 480.914062 476.9375 L 479.152344 479.1875 L 477.300781 481.335938 L 475.425781 483.351562 L 473.5625 485.25 L 471.703125 487.09375 L 469.773438 488.839844 L 467.714844 490.339844 L 465.542969 491.460938 L 463.292969 492.089844 Z M 461.859375 492.203125 "/>
<path style=" stroke:none;fill-rule:nonzero;fill:rgb(95.686275%,95.686275%,95.686275%);fill-opacity:1;" d="M 253.117188 430.34375 L 251.148438 430.125 L 249.207031 429.5 L 247.324219 428.507812 L 245.535156 427.226562 L 243.839844 425.742188 L 242.214844 424.15625 L 240.613281 422.515625 L 239.050781 420.621094 L 237.574219 418.285156 L 236.25 415.40625 L 235.136719 411.9375 L 234.285156 407.894531 L 234.164062 407.140625 L 233.753906 403.75 L 233.5 400.097656 L 233.390625 396.238281 L 233.425781 392.222656 L 233.578125 388.113281 L 233.832031 383.96875 L 234.164062 379.832031 L 234.535156 375.71875 L 234.925781 371.609375 L 235.339844 367.480469 L 235.816406 363.324219 L 236.375 359.167969 L 237.027344 355.054688 L 237.78125 351.050781 L 238.644531 347.207031 L 239.605469 343.585938 L 240.171875 341.71875 L 241.609375 337.675781 L 243.175781 334.105469 L 244.839844 331.035156 L 246.558594 328.449219 L 248.296875 326.289062 L 250.027344 324.441406 L 251.75 322.71875 L 253.511719 321.042969 L 255.359375 319.507812 L 257.308594 318.195312 L 259.339844 317.195312 L 261.425781 316.570312 L 263.5 316.359375 L 265.9375 316.648438 L 268.332031 317.484375 L 270.640625 318.792969 L 272.824219 320.464844 L 274.882812 322.359375 L 276.875 324.34375 L 278.867188 326.378906 L 280.835938 328.535156 L 282.738281 330.820312 L 284.5 333.214844 L 286.0625 335.664062 L 286.40625 336.265625 L 287.738281 338.898438 L 288.769531 341.488281 L 289.507812 343.96875 L 290 346.308594 L 290.328125 348.519531 L 290.605469 350.695312 L 290.894531 352.976562 L 291.199219 355.425781 L 291.519531 358.039062 L 291.839844 360.761719 L 292.003906 362.167969 L 292.316406 364.917969 L 292.617188 367.644531 L 292.902344 370.28125 L 293.167969 372.789062 L 293.417969 375.167969 L 293.652344 377.503906 L 293.808594 379.910156 L 293.800781 382.433594 L 293.550781 385.046875 L 293.027344 387.691406 L 292.527344 389.410156 L 291.566406 391.886719 L 290.367188 394.265625 L 288.980469 396.5 L 287.46875 398.570312 L 285.902344 400.488281 L 284.320312 402.335938 L 282.6875 404.234375 L 280.9375 406.238281 L 279.066406 408.351562 L 277.09375 410.539062 L 275.054688 412.757812 L 274.949219 412.878906 L 272.832031 415.136719 L 270.726562 417.347656 L 268.679688 419.457031 L 266.730469 421.4375 L 264.875 423.300781 L 263.058594 425.105469 L 261.179688 426.828125 L 259.183594 428.332031 L 257.070312 429.480469 L 254.878906 430.167969 Z M 253.117188 430.34375 "/>
<path style=" stroke:none;fill-rule:nonzero;fill:rgb(95.686275%,95.686275%,95.686275%);fill-opacity:1;" d="M 379.046875 134.574219 L 376.757812 134.285156 L 374.511719 133.449219 L 372.363281 132.15625 L 370.339844 130.523438 L 368.429688 128.703125 L 366.5625 126.828125 L 364.703125 124.867188 L 362.902344 122.765625 L 361.226562 120.539062 L 359.753906 118.222656 L 359.078125 116.976562 L 357.945312 114.453125 L 357.136719 111.964844 L 356.636719 109.589844 L 356.378906 107.355469 L 356.257812 105.230469 L 356.191406 103.09375 L 356.292969 100.832031 L 356.664062 98.429688 L 357.371094 95.929688 L 358.207031 93.867188 L 359.453125 91.519531 L 360.964844 89.230469 L 362.675781 87.050781 L 364.5 85.007812 L 366.371094 83.09375 L 368.257812 81.226562 L 370.222656 79.46875 L 372.320312 77.976562 L 374.53125 76.890625 L 376.816406 76.3125 L 377.980469 76.238281 L 380.273438 76.527344 L 382.523438 77.363281 L 384.675781 78.660156 L 386.703125 80.292969 L 388.613281 82.113281 L 390.480469 83.992188 L 392.34375 85.953125 L 394.148438 88.054688 L 395.824219 90.285156 L 397.292969 92.597656 L 397.984375 93.867188 L 399.109375 96.394531 L 399.914062 98.878906 L 400.40625 101.257812 L 400.660156 103.492188 L 400.769531 105.617188 L 400.828125 107.753906 L 400.71875 110.015625 L 400.339844 112.417969 L 399.628906 114.914062 L 398.789062 116.976562 L 397.542969 119.324219 L 396.027344 121.609375 L 394.320312 123.789062 L 392.492188 125.828125 L 390.625 127.742188 L 388.742188 129.605469 L 386.777344 131.355469 L 384.683594 132.847656 L 382.472656 133.929688 L 380.191406 134.5 Z M 379.046875 134.574219 "/>
<path style=" stroke:none;fill-rule:nonzero;fill:rgb(95.686275%,95.686275%,95.686275%);fill-opacity:1;" d="M 609.261719 276.074219 L 606.414062 277.269531 L 603.703125 277.996094 L 601.183594 278.296875 L 598.882812 278.253906 L 596.738281 278.015625 L 594.613281 277.710938 L 592.386719 277.28125 L 590.023438 276.632812 L 587.570312 275.71875 L 585.082031 274.523438 L 584.832031 274.386719 L 582.472656 272.964844 L 580.183594 271.335938 L 578.011719 269.566406 L 575.988281 267.726562 L 574.09375 265.871094 L 572.25 264.011719 L 570.511719 262.070312 L 569.03125 260.003906 L 567.945312 257.820312 L 567.363281 255.566406 L 567.28125 254.351562 L 567.558594 252.113281 L 568.367188 249.914062 L 569.621094 247.804688 L 571.203125 245.820312 L 572.976562 243.949219 L 574.808594 242.117188 L 576.71875 240.253906 L 578.769531 238.34375 L 580.957031 236.429688 L 583.246094 234.558594 L 584.832031 233.34375 L 587.246094 231.621094 L 589.640625 230.054688 L 591.949219 228.664062 L 594.140625 227.453125 L 596.21875 226.371094 L 598.28125 225.34375 L 600.460938 224.464844 L 602.839844 223.898438 L 605.410156 223.78125 L 608.132812 224.1875 L 609.261719 224.511719 L 611.742188 225.523438 L 614.242188 226.929688 L 616.714844 228.675781 L 619.109375 230.664062 L 621.410156 232.804688 L 623.636719 235.007812 L 625.824219 237.242188 L 627.871094 239.578125 L 629.632812 242.050781 L 630.984375 244.648438 L 631.820312 247.328125 L 632.074219 249.808594 L 631.777344 252.492188 L 630.910156 255.140625 L 629.546875 257.703125 L 627.785156 260.144531 L 625.75 262.449219 L 623.585938 264.660156 L 621.378906 266.847656 L 619.105469 269.003906 L 616.734375 271.074219 L 614.289062 272.980469 L 611.8125 274.652344 L 609.359375 276.027344 Z M 609.261719 276.074219 "/>
<path style=" stroke:none;fill-rule:nonzero;fill:rgb(95.686275%,95.686275%,95.686275%);fill-opacity:1;" d="M 222.546875 320.3125 L 219.84375 320.011719 L 217.175781 319.144531 L 214.59375 317.773438 L 212.136719 316.003906 L 209.8125 313.957031 L 207.585938 311.777344 L 205.386719 309.558594 L 203.21875 307.269531 L 201.148438 304.882812 L 199.257812 302.421875 L 197.617188 299.929688 L 196.285156 297.449219 L 196.195312 297.257812 L 195.101562 294.402344 L 194.492188 291.679688 L 194.324219 289.144531 L 194.507812 286.828125 L 194.894531 284.671875 L 195.34375 282.539062 L 195.910156 280.308594 L 196.683594 277.949219 L 197.703125 275.492188 L 198.980469 273.003906 L 199.242188 272.542969 L 200.742188 270.175781 L 202.421875 267.882812 L 204.222656 265.707031 L 206.074219 263.683594 L 207.929688 261.785156 L 209.785156 259.945312 L 211.71875 258.207031 L 213.78125 256.71875 L 215.957031 255.617188 L 218.203125 255.015625 L 219.519531 254.917969 L 221.765625 255.199219 L 223.96875 256.007812 L 226.085938 257.265625 L 228.074219 258.851562 L 229.953125 260.632812 L 231.789062 262.46875 L 233.652344 264.386719 L 235.550781 266.445312 L 237.441406 268.648438 L 239.269531 270.949219 L 240.441406 272.542969 L 242.097656 274.980469 L 243.578125 277.398438 L 244.867188 279.738281 L 245.972656 281.957031 L 246.949219 284.066406 L 247.871094 286.15625 L 248.640625 288.367188 L 249.09375 290.78125 L 249.105469 293.390625 L 248.601562 296.148438 L 248.25 297.257812 L 247.183594 299.75 L 245.730469 302.261719 L 243.957031 304.746094 L 241.949219 307.152344 L 239.800781 309.460938 L 237.589844 311.699219 L 235.347656 313.894531 L 233.011719 315.960938 L 230.539062 317.75 L 227.941406 319.136719 L 225.253906 320.011719 Z M 222.546875 320.3125 "/>
<path style=" stroke:none;fill-rule:nonzero;fill:rgb(95.686275%,95.686275%,95.686275%);fill-opacity:1;" d="M 619.890625 322.648438 L 617.3125 323.765625 L 614.84375 324.496094 L 612.53125 324.863281 L 610.402344 324.921875 L 608.4375 324.765625 L 606.542969 324.527344 L 604.597656 324.226562 L 602.539062 323.773438 L 600.363281 323.105469 L 598.097656 322.195312 L 595.789062 321.035156 L 595.644531 320.953125 L 593.289062 319.503906 L 590.976562 317.839844 L 588.761719 316.023438 L 586.671875 314.128906 L 584.703125 312.210938 L 582.792969 310.292969 L 580.96875 308.308594 L 579.371094 306.199219 L 578.144531 303.96875 L 577.402344 301.652344 L 577.203125 299.710938 L 577.484375 297.386719 L 578.304688 295.101562 L 579.582031 292.90625 L 581.203125 290.835938 L 583.03125 288.882812 L 584.929688 286.984375 L 586.886719 285.066406 L 588.96875 283.125 L 591.175781 281.203125 L 593.472656 279.355469 L 595.644531 277.75 L 598.132812 276.09375 L 600.570312 274.644531 L 602.90625 273.425781 L 605.097656 272.410156 L 607.167969 271.535156 L 609.226562 270.71875 L 611.421875 270.070312 L 613.824219 269.75 L 616.425781 269.882812 L 619.179688 270.539062 L 619.890625 270.789062 L 622.351562 271.902344 L 624.832031 273.382812 L 627.289062 275.171875 L 629.675781 277.183594 L 631.96875 279.328125 L 634.1875 281.527344 L 636.371094 283.753906 L 638.417969 286.082031 L 640.183594 288.546875 L 641.542969 291.132812 L 642.390625 293.804688 L 642.660156 296.359375 L 642.363281 299.046875 L 641.496094 301.695312 L 640.132812 304.257812 L 638.371094 306.699219 L 636.335938 309.003906 L 634.167969 311.214844 L 631.964844 313.402344 L 629.6875 315.558594 L 627.324219 317.632812 L 624.886719 319.542969 L 622.421875 321.21875 L 619.984375 322.601562 Z M 619.890625 322.648438 "/>
<path style=" stroke:none;fill-rule:nonzero;fill:rgb(95.686275%,95.686275%,95.686275%);fill-opacity:1;" d="M 253.730469 240.574219 L 251.402344 240.28125 L 249.121094 239.433594 L 246.9375 238.117188 L 244.878906 236.457031 L 242.941406 234.605469 L 241.046875 232.699219 L 239.183594 230.707031 L 237.429688 228.570312 L 235.871094 226.304688 L 234.597656 223.949219 L 234.0625 222.699219 L 233.285156 220.167969 L 232.898438 217.675781 L 232.859375 215.285156 L 233.097656 213.039062 L 233.480469 210.902344 L 233.921875 208.765625 L 234.503906 206.511719 L 235.324219 204.109375 L 236.417969 201.605469 L 237.742188 199.144531 L 239.246094 196.792969 L 240.941406 194.492188 L 242.769531 192.296875 L 244.652344 190.234375 L 246.546875 188.296875 L 248.4375 186.414062 L 250.402344 184.621094 L 252.488281 183.066406 L 254.695312 181.882812 L 256.984375 181.1875 L 258.710938 181.027344 L 261.058594 181.324219 L 263.363281 182.171875 L 265.570312 183.496094 L 267.644531 185.164062 L 269.605469 187.027344 L 271.519531 188.949219 L 273.398438 190.957031 L 275.167969 193.101562 L 276.738281 195.375 L 278.019531 197.734375 L 278.613281 199.144531 L 279.363281 201.6875 L 279.710938 204.183594 L 279.699219 206.578125 L 279.40625 208.824219 L 278.960938 210.957031 L 278.460938 213.089844 L 277.824219 215.339844 L 276.957031 217.726562 L 275.828125 220.214844 L 274.457031 222.699219 L 272.933594 225.042969 L 271.226562 227.332031 L 269.402344 229.511719 L 267.527344 231.554688 L 265.648438 233.476562 L 263.773438 235.339844 L 261.824219 237.109375 L 259.75 238.636719 L 257.558594 239.785156 L 255.289062 240.441406 Z M 253.730469 240.574219 "/>
<path style=" stroke:none;fill-rule:nonzero;fill:rgb(95.686275%,95.686275%,95.686275%);fill-opacity:1;" d="M 617.023438 453.933594 L 614.59375 453.691406 L 612.191406 452.976562 L 609.847656 451.84375 L 607.601562 450.355469 L 605.464844 448.605469 L 603.425781 446.691406 L 601.441406 444.714844 L 599.472656 442.671875 L 597.558594 440.464844 L 595.75 438.023438 L 594.121094 435.328125 L 592.722656 432.386719 L 591.609375 429.234375 L 591.328125 428.230469 L 590.644531 425.015625 L 590.246094 421.679688 L 590.113281 418.273438 L 590.21875 414.863281 L 590.527344 411.496094 L 590.976562 408.195312 L 591.503906 404.953125 L 592.058594 401.710938 L 592.683594 398.414062 L 593.425781 395.042969 L 594.328125 391.632812 L 595.398438 388.230469 L 596.640625 384.894531 L 598.046875 381.679688 L 599.804688 378.273438 L 601.730469 375.101562 L 603.773438 372.199219 L 605.882812 369.582031 L 608.003906 367.226562 L 610.117188 365.066406 L 612.230469 362.96875 L 614.410156 360.957031 L 616.707031 359.148438 L 619.125 357.667969 L 621.636719 356.613281 L 624.207031 356.054688 L 625.566406 355.976562 L 628.25 356.273438 L 630.894531 357.136719 L 633.453125 358.5 L 635.890625 360.257812 L 638.195312 362.289062 L 640.402344 364.453125 L 642.585938 366.65625 L 644.742188 368.933594 L 646.804688 371.320312 L 648.703125 373.792969 L 650.363281 376.3125 L 651.722656 378.828125 L 651.785156 378.960938 L 652.921875 381.820312 L 653.613281 384.566406 L 653.894531 387.148438 L 653.84375 389.539062 L 653.585938 391.765625 L 653.273438 393.957031 L 652.9375 396.246094 L 652.574219 398.683594 L 652.171875 401.253906 L 651.746094 403.902344 L 651.558594 405.023438 L 651.113281 407.636719 L 650.664062 410.199219 L 650.21875 412.652344 L 649.785156 414.957031 L 649.371094 417.132812 L 648.957031 419.269531 L 648.425781 421.507812 L 647.65625 423.925781 L 646.578125 426.53125 L 645.164062 429.273438 L 644.152344 430.96875 L 642.484375 433.453125 L 640.605469 435.945312 L 638.570312 438.394531 L 636.441406 440.765625 L 634.269531 443.03125 L 632.101562 445.21875 L 629.921875 447.367188 L 627.65625 449.402344 L 625.257812 451.1875 L 622.738281 452.601562 L 620.128906 453.539062 L 617.476562 453.925781 Z M 617.023438 453.933594 "/>
<path style="fill:none;stroke-width:0.75;stroke-linecap:round;stroke-linejoin:round;stroke:rgb(66.27451%,66.27451%,66.27451%);stroke-opacity:1;stroke-miterlimit:10;" d="M 144.457031 338.742188 L 156.722656 354.386719 "/>
<path style="fill:none;stroke-width:0.75;stroke-linecap:round;stroke-linejoin:round;stroke:rgb(66.27451%,66.27451%,66.27451%);stroke-opacity:1;stroke-miterlimit:10;" d="M 141.351562 330.628906 L 139.824219 307.511719 "/>
<path style="fill:none;stroke-width:0.75;stroke-linecap:round;stroke-linejoin:round;stroke:rgb(66.27451%,66.27451%,66.27451%);stroke-opacity:1;stroke-miterlimit:10;" d="M 137.109375 334.992188 L 118.019531 334.261719 "/>
<path style="fill:none;stroke-width:0.75;stroke-linecap:round;stroke-linejoin:round;stroke:rgb(66.27451%,66.27451%,66.27451%);stroke-opacity:1;stroke-miterlimit:10;" d="M 512.214844 134.402344 L 495.648438 132.769531 "/>
<path style="fill:none;stroke-width:0.75;stroke-linecap:round;stroke-linejoin:round;stroke:rgb(66.27451%,66.27451%,66.27451%);stroke-opacity:1;stroke-miterlimit:10;" d="M 209.886719 502.890625 L 209.824219 513.992188 "/>
<path style="fill:none;stroke-width:0.75;stroke-linecap:round;stroke-linejoin:round;stroke:rgb(66.27451%,66.27451%,66.27451%);stroke-opacity:1;stroke-miterlimit:10;" d="M 428.941406 99.15625 L 444.664062 109.433594 "/>
<path style="fill:none;stroke-width:0.75;stroke-linecap:round;stroke-linejoin:round;stroke:rgb(66.27451%,66.27451%,66.27451%);stroke-opacity:1;stroke-miterlimit:10;" d="M 219.410156 541.871094 L 215.472656 534.71875 "/>
<path style="fill:none;stroke-width:0.75;stroke-linecap:round;stroke-linejoin:round;stroke:rgb(66.27451%,66.27451%,66.27451%);stroke-opacity:1;stroke-miterlimit:10;" d="M 228.730469 550.421875 L 246.140625 558.132812 "/>
<path style="fill:none;stroke-width:0.75;stroke-linecap:round;stroke-linejoin:round;stroke:rgb(66.27451%,66.27451%,66.27451%);stroke-opacity:1;stroke-miterlimit:10;" d="M 264.589844 541.113281 L 250.941406 557.042969 "/>
<path style="fill:none;stroke-width:0.75;stroke-linecap:round;stroke-linejoin:round;stroke:rgb(66.27451%,66.27451%,66.27451%);stroke-opacity:1;stroke-miterlimit:10;" d="M 262.78125 579.46875 L 250.683594 561.898438 "/>
<path style="fill:none;stroke-width:0.75;stroke-linecap:round;stroke-linejoin:round;stroke:rgb(66.27451%,66.27451%,66.27451%);stroke-opacity:1;stroke-miterlimit:10;" d="M 542.15625 506.429688 L 560.765625 507.898438 "/>
<path style="fill:none;stroke-width:0.75;stroke-linecap:round;stroke-linejoin:round;stroke:rgb(66.27451%,66.27451%,66.27451%);stroke-opacity:1;stroke-miterlimit:10;" d="M 224.789062 153.007812 L 240.542969 142.007812 "/>
<path style="fill:none;stroke-width:0.75;stroke-linecap:round;stroke-linejoin:round;stroke:rgb(66.27451%,66.27451%,66.27451%);stroke-opacity:1;stroke-miterlimit:10;" d="M 219.773438 156.480469 L 209.996094 163.179688 "/>
<path style="fill:none;stroke-width:0.75;stroke-linecap:round;stroke-linejoin:round;stroke:rgb(66.27451%,66.27451%,66.27451%);stroke-opacity:1;stroke-miterlimit:10;" d="M 492.085938 570.285156 L 503.097656 567.320312 "/>
<path style="fill:none;stroke-width:0.75;stroke-linecap:round;stroke-linejoin:round;stroke:rgb(66.27451%,66.27451%,66.27451%);stroke-opacity:1;stroke-miterlimit:10;" d="M 585.210938 204.644531 L 571.125 195.679688 "/>
<path style="fill:none;stroke-width:0.75;stroke-linecap:round;stroke-linejoin:round;stroke:rgb(66.27451%,66.27451%,66.27451%);stroke-opacity:1;stroke-miterlimit:10;" d="M 175.207031 365.8125 L 193.539062 367.699219 "/>
<path style="fill:none;stroke-width:0.75;stroke-linecap:round;stroke-linejoin:round;stroke:rgb(66.27451%,66.27451%,66.27451%);stroke-opacity:1;stroke-miterlimit:10;" d="M 154.480469 373.757812 L 141.230469 385.277344 "/>
<path style="fill:none;stroke-width:0.75;stroke-linecap:round;stroke-linejoin:round;stroke:rgb(66.27451%,66.27451%,66.27451%);stroke-opacity:1;stroke-miterlimit:10;" d="M 169.320312 375.109375 L 174.433594 386.953125 "/>
<path style="fill:none;stroke-width:0.75;stroke-linecap:round;stroke-linejoin:round;stroke:rgb(66.27451%,66.27451%,66.27451%);stroke-opacity:1;stroke-miterlimit:10;" d="M 171.445312 354.386719 L 179.039062 342.464844 "/>
<path style="fill:none;stroke-width:0.75;stroke-linecap:round;stroke-linejoin:round;stroke:rgb(66.27451%,66.27451%,66.27451%);stroke-opacity:1;stroke-miterlimit:10;" d="M 444.453125 591.292969 L 430.152344 587.835938 "/>
<path style="fill:none;stroke-width:0.75;stroke-linecap:round;stroke-linejoin:round;stroke:rgb(66.27451%,66.27451%,66.27451%);stroke-opacity:1;stroke-miterlimit:10;" d="M 370.765625 529.523438 L 369.101562 549.40625 "/>
<path style="fill:none;stroke-width:0.75;stroke-linecap:round;stroke-linejoin:round;stroke:rgb(66.27451%,66.27451%,66.27451%);stroke-opacity:1;stroke-miterlimit:10;" d="M 353.261719 212.421875 L 371.140625 216.8125 "/>
<path style="fill:none;stroke-width:0.75;stroke-linecap:round;stroke-linejoin:round;stroke:rgb(66.27451%,66.27451%,66.27451%);stroke-opacity:1;stroke-miterlimit:10;" d="M 547.136719 418.070312 L 560.375 429.441406 "/>
<path style="fill:none;stroke-width:0.75;stroke-linecap:round;stroke-linejoin:round;stroke:rgb(66.27451%,66.27451%,66.27451%);stroke-opacity:1;stroke-miterlimit:10;" d="M 563.296875 454.449219 L 563.707031 436.929688 "/>
<path style="fill:none;stroke-width:0.75;stroke-linecap:round;stroke-linejoin:round;stroke:rgb(66.27451%,66.27451%,66.27451%);stroke-opacity:1;stroke-miterlimit:10;" d="M 245.625 139.878906 L 264.332031 136.390625 "/>
<path style="fill:none;stroke-width:0.75;stroke-linecap:round;stroke-linejoin:round;stroke:rgb(66.27451%,66.27451%,66.27451%);stroke-opacity:1;stroke-miterlimit:10;" d="M 368.855469 554.605469 L 368.589844 581.027344 "/>
<path style="fill:none;stroke-width:0.75;stroke-linecap:round;stroke-linejoin:round;stroke:rgb(66.27451%,66.27451%,66.27451%);stroke-opacity:1;stroke-miterlimit:10;" d="M 462.742188 472.050781 L 468.617188 454.308594 "/>
<path style="fill:none;stroke-width:0.75;stroke-linecap:round;stroke-linejoin:round;stroke:rgb(66.27451%,66.27451%,66.27451%);stroke-opacity:1;stroke-miterlimit:10;" d="M 264.375 341.976562 L 266.617188 356.761719 "/>
<path style="fill:none;stroke-width:0.75;stroke-linecap:round;stroke-linejoin:round;stroke:rgb(66.27451%,66.27451%,66.27451%);stroke-opacity:1;stroke-miterlimit:10;" d="M 265.984375 379.582031 L 266.984375 367.117188 "/>
<path style="fill:none;stroke-width:0.75;stroke-linecap:round;stroke-linejoin:round;stroke:rgb(66.27451%,66.27451%,66.27451%);stroke-opacity:1;stroke-miterlimit:10;" d="M 259.742188 400.304688 L 254.34375 410.628906 "/>
<path style="fill:none;stroke-width:0.75;stroke-linecap:round;stroke-linejoin:round;stroke:rgb(66.27451%,66.27451%,66.27451%);stroke-opacity:1;stroke-miterlimit:10;" d="M 378.917969 114.300781 L 378.113281 96.59375 "/>
<path style="fill:none;stroke-width:0.75;stroke-linecap:round;stroke-linejoin:round;stroke:rgb(66.27451%,66.27451%,66.27451%);stroke-opacity:1;stroke-miterlimit:10;" d="M 135.699219 436.691406 L 132.070312 419.804688 "/>
<path style="fill:none;stroke-width:0.75;stroke-linecap:round;stroke-linejoin:round;stroke:rgb(66.27451%,66.27451%,66.27451%);stroke-opacity:1;stroke-miterlimit:10;" d="M 138.449219 389.503906 L 132.65625 407.671875 "/>
<path style="fill:none;stroke-width:0.75;stroke-linecap:round;stroke-linejoin:round;stroke:rgb(66.27451%,66.27451%,66.27451%);stroke-opacity:1;stroke-miterlimit:10;" d="M 401.953125 584.632812 L 422.324219 586.535156 "/>
<path style="fill:none;stroke-width:0.75;stroke-linecap:round;stroke-linejoin:round;stroke:rgb(66.27451%,66.27451%,66.27451%);stroke-opacity:1;stroke-miterlimit:10;" d="M 396.691406 584.324219 L 371.199219 583.726562 "/>
<path style="fill:none;stroke-width:0.75;stroke-linecap:round;stroke-linejoin:round;stroke:rgb(66.27451%,66.27451%,66.27451%);stroke-opacity:1;stroke-miterlimit:10;" d="M 334.640625 587.054688 L 322.851562 588.464844 "/>
<path style="fill:none;stroke-width:0.75;stroke-linecap:round;stroke-linejoin:round;stroke:rgb(66.27451%,66.27451%,66.27451%);stroke-opacity:1;stroke-miterlimit:10;" d="M 339.941406 586.480469 L 365.941406 583.921875 "/>
<path style="fill:none;stroke-width:0.75;stroke-linecap:round;stroke-linejoin:round;stroke:rgb(66.27451%,66.27451%,66.27451%);stroke-opacity:1;stroke-miterlimit:10;" d="M 369.414062 601.484375 L 368.6875 586.296875 "/>
<path style="fill:none;stroke-width:0.75;stroke-linecap:round;stroke-linejoin:round;stroke:rgb(66.27451%,66.27451%,66.27451%);stroke-opacity:1;stroke-miterlimit:10;" d="M 587.195312 253.863281 L 598.285156 251.769531 "/>
<path style="fill:none;stroke-width:0.75;stroke-linecap:round;stroke-linejoin:round;stroke:rgb(66.27451%,66.27451%,66.27451%);stroke-opacity:1;stroke-miterlimit:10;" d="M 219.851562 274.960938 L 221.230469 286.058594 "/>
<path style="fill:none;stroke-width:0.75;stroke-linecap:round;stroke-linejoin:round;stroke:rgb(66.27451%,66.27451%,66.27451%);stroke-opacity:1;stroke-miterlimit:10;" d="M 446.847656 113.539062 L 446.554688 132.667969 "/>
<path style="fill:none;stroke-width:0.75;stroke-linecap:round;stroke-linejoin:round;stroke:rgb(66.27451%,66.27451%,66.27451%);stroke-opacity:1;stroke-miterlimit:10;" d="M 608.871094 297.832031 L 599.578125 299.148438 "/>
<path style="fill:none;stroke-width:0.75;stroke-linecap:round;stroke-linejoin:round;stroke:rgb(66.27451%,66.27451%,66.27451%);stroke-opacity:1;stroke-miterlimit:10;" d="M 254.375 219.75 L 257.992188 202.472656 "/>
<path style="fill:none;stroke-width:0.75;stroke-linecap:round;stroke-linejoin:round;stroke:rgb(66.27451%,66.27451%,66.27451%);stroke-opacity:1;stroke-miterlimit:10;" d="M 624.082031 389.769531 L 623.378906 394.679688 "/>
<path style="fill:none;stroke-width:0.75;stroke-linecap:round;stroke-linejoin:round;stroke:rgb(66.27451%,66.27451%,66.27451%);stroke-opacity:1;stroke-miterlimit:10;" d="M 619.007812 420.144531 L 619.914062 415.402344 "/>
<path style=" stroke:none;fill-rule:nonzero;fill:rgb(3.137255%,81.960784%,81.960784%);fill-opacity:1;" d="M 381.347656 316.976562 C 381.347656 321.277344 374.890625 321.277344 374.890625 316.976562 C 374.890625 312.671875 381.347656 312.671875 381.347656 316.976562 "/>
<path style=" stroke:none;fill-rule:nonzero;fill:rgb(3.137255%,81.960784%,81.960784%);fill-opacity:1;" d="M 146.195312 335.164062 C 146.195312 341.222656 137.105469 341.222656 137.105469 335.164062 C 137.105469 329.105469 146.195312 329.105469 146.195312 335.164062 "/>
<path style=" stroke:none;fill-rule:nonzero;fill:rgb(3.137255%,81.960784%,81.960784%);fill-opacity:1;" d="M 517.910156 134.683594 C 517.910156 138.488281 512.199219 138.488281 512.199219 134.683594 C 512.199219 130.878906 517.910156 130.878906 517.910156 134.683594 "/>
<path style=" stroke:none;fill-rule:nonzero;fill:rgb(3.137255%,81.960784%,81.960784%);fill-opacity:1;" d="M 213.476562 499.320312 C 213.476562 504.078125 206.335938 504.078125 206.335938 499.320312 C 206.335938 494.558594 213.476562 494.558594 213.476562 499.320312 "/>
<path style=" stroke:none;fill-rule:nonzero;fill:rgb(3.137255%,81.960784%,81.960784%);fill-opacity:1;" d="M 429.402344 97.609375 C 429.402344 101.378906 423.746094 101.378906 423.746094 97.609375 C 423.746094 93.839844 429.402344 93.839844 429.402344 97.609375 "/>
<path style=" stroke:none;fill-rule:nonzero;fill:rgb(3.137255%,81.960784%,81.960784%);fill-opacity:1;" d="M 229.304688 547.71875 C 229.304688 551.402344 226.316406 554.390625 222.628906 554.390625 C 218.945312 554.390625 215.957031 551.402344 215.957031 547.71875 C 215.957031 544.03125 218.945312 541.042969 222.628906 541.042969 C 226.316406 541.042969 229.304688 544.03125 229.304688 547.71875 "/>
<path style=" stroke:none;fill-rule:nonzero;fill:rgb(3.137255%,81.960784%,81.960784%);fill-opacity:1;" d="M 269.699219 538.765625 C 269.699219 542.890625 263.511719 542.890625 263.511719 538.765625 C 263.511719 534.640625 269.699219 534.640625 269.699219 538.765625 "/>
<path style=" stroke:none;fill-rule:nonzero;fill:rgb(3.137255%,81.960784%,81.960784%);fill-opacity:1;" d="M 267.105469 581.742188 C 267.105469 585.417969 261.589844 585.417969 261.589844 581.742188 C 261.589844 578.0625 267.105469 578.0625 267.105469 581.742188 "/>
<path style=" stroke:none;fill-rule:nonzero;fill:rgb(3.137255%,81.960784%,81.960784%);fill-opacity:1;" d="M 542.164062 506.222656 C 542.164062 509.71875 536.921875 509.71875 536.921875 506.222656 C 536.921875 502.726562 542.164062 502.726562 542.164062 506.222656 "/>
<path style=" stroke:none;fill-rule:nonzero;fill:rgb(3.137255%,81.960784%,81.960784%);fill-opacity:1;" d="M 225.339844 154.753906 C 225.339844 158.820312 219.242188 158.820312 219.242188 154.753906 C 219.242188 150.691406 225.339844 150.691406 225.339844 154.753906 "/>
<path style=" stroke:none;fill-rule:nonzero;fill:rgb(3.137255%,81.960784%,81.960784%);fill-opacity:1;" d="M 484.515625 295.183594 C 484.515625 298.816406 479.066406 298.816406 479.066406 295.183594 C 479.066406 291.550781 484.515625 291.550781 484.515625 295.183594 "/>
<path style=" stroke:none;fill-rule:nonzero;fill:rgb(3.137255%,81.960784%,81.960784%);fill-opacity:1;" d="M 492.199219 571.136719 C 492.199219 575.507812 485.644531 575.507812 485.644531 571.136719 C 485.644531 566.769531 492.199219 566.769531 492.199219 571.136719 "/>
<path style=" stroke:none;fill-rule:nonzero;fill:rgb(3.137255%,81.960784%,81.960784%);fill-opacity:1;" d="M 424.832031 208.414062 C 424.832031 211.878906 419.628906 211.878906 419.628906 208.414062 C 419.628906 204.945312 424.832031 204.945312 424.832031 208.414062 "/>
<path style=" stroke:none;fill-rule:nonzero;fill:rgb(3.137255%,81.960784%,81.960784%);fill-opacity:1;" d="M 592.757812 206.84375 C 592.757812 212.304688 584.570312 212.304688 584.570312 206.84375 C 584.570312 201.386719 592.757812 201.386719 592.757812 206.84375 "/>
<path style=" stroke:none;fill-rule:nonzero;fill:rgb(3.137255%,81.960784%,81.960784%);fill-opacity:1;" d="M 168.441406 231.273438 C 168.441406 234.726562 163.257812 234.726562 163.257812 231.273438 C 163.257812 227.820312 168.441406 227.820312 168.441406 231.273438 "/>
<path style=" stroke:none;fill-rule:nonzero;fill:rgb(3.137255%,81.960784%,81.960784%);fill-opacity:1;" d="M 442.605469 343.414062 L 463.328125 343.414062 L 463.328125 364.136719 L 442.605469 364.136719 Z M 442.605469 343.414062 "/>
<path style=" stroke:none;fill-rule:nonzero;fill:rgb(3.137255%,81.960784%,81.960784%);fill-opacity:1;" d="M 154.480469 354.386719 L 175.203125 354.386719 L 175.203125 375.109375 L 154.480469 375.109375 Z M 154.480469 354.386719 "/>
<path style=" stroke:none;fill-rule:nonzero;fill:rgb(3.137255%,81.960784%,81.960784%);fill-opacity:1;" d="M 455.777344 592.640625 C 455.777344 595.8125 453.207031 598.382812 450.035156 598.382812 C 446.863281 598.382812 444.292969 595.8125 444.292969 592.640625 C 444.292969 589.46875 446.863281 586.894531 450.035156 586.894531 C 453.207031 586.894531 455.777344 589.46875 455.777344 592.640625 "/>
<path style=" stroke:none;fill-rule:nonzero;fill:rgb(3.137255%,81.960784%,81.960784%);fill-opacity:1;" d="M 277.03125 489.640625 C 277.03125 493.140625 271.78125 493.140625 271.78125 489.640625 C 271.78125 486.140625 277.03125 486.140625 277.03125 489.640625 "/>
<path style=" stroke:none;fill-rule:nonzero;fill:rgb(3.137255%,81.960784%,81.960784%);fill-opacity:1;" d="M 374.183594 526.378906 C 374.183594 530.585938 367.875 530.585938 367.875 526.378906 C 367.875 522.171875 374.183594 522.171875 374.183594 526.378906 "/>
<path style=" stroke:none;fill-rule:nonzero;fill:rgb(3.137255%,81.960784%,81.960784%);fill-opacity:1;" d="M 498.949219 341.640625 C 498.949219 345.925781 492.519531 345.925781 492.519531 341.640625 C 492.519531 337.355469 498.949219 337.355469 498.949219 341.640625 "/>
<path style=" stroke:none;fill-rule:nonzero;fill:rgb(3.137255%,81.960784%,81.960784%);fill-opacity:1;" d="M 571.597656 194.058594 C 571.597656 198.085938 565.558594 198.085938 565.558594 194.058594 C 565.558594 190.03125 571.597656 190.03125 571.597656 194.058594 "/>
<path style=" stroke:none;fill-rule:nonzero;fill:rgb(3.137255%,81.960784%,81.960784%);fill-opacity:1;" d="M 353.34375 211.71875 C 353.34375 215.640625 347.464844 215.640625 347.464844 211.71875 C 347.464844 207.800781 353.34375 207.800781 353.34375 211.71875 "/>
<path style=" stroke:none;fill-rule:nonzero;fill:rgb(3.137255%,81.960784%,81.960784%);fill-opacity:1;" d="M 377.628906 217.59375 C 377.628906 221.984375 371.046875 221.984375 371.046875 217.59375 C 371.046875 213.207031 377.628906 213.207031 377.628906 217.59375 "/>
<path style=" stroke:none;fill-rule:nonzero;fill:rgb(3.137255%,81.960784%,81.960784%);fill-opacity:1;" d="M 547.765625 416.371094 C 547.765625 419.847656 542.550781 419.847656 542.550781 416.371094 C 542.550781 412.894531 547.765625 412.894531 547.765625 416.371094 "/>
<path style=" stroke:none;fill-rule:nonzero;fill:rgb(3.137255%,81.960784%,81.960784%);fill-opacity:1;" d="M 566.015625 457.234375 C 566.015625 460.949219 560.445312 460.949219 560.445312 457.234375 C 560.445312 453.519531 566.015625 453.519531 566.015625 457.234375 "/>
<path style=" stroke:none;fill-rule:nonzero;fill:rgb(3.137255%,81.960784%,81.960784%);fill-opacity:1;" d="M 245.671875 140.394531 C 245.671875 144.15625 240.035156 144.15625 240.035156 140.394531 C 240.035156 136.636719 245.671875 136.636719 245.671875 140.394531 "/>
<path style=" stroke:none;fill-rule:nonzero;fill:rgb(3.137255%,81.960784%,81.960784%);fill-opacity:1;" d="M 371.488281 552 C 371.488281 555.476562 366.277344 555.476562 366.277344 552 C 366.277344 548.527344 371.488281 548.527344 371.488281 552 "/>
<path style=" stroke:none;fill-rule:nonzero;fill:rgb(3.137255%,81.960784%,81.960784%);fill-opacity:1;" d="M 464.667969 474.714844 C 464.667969 478.457031 459.054688 478.457031 459.054688 474.714844 C 459.054688 470.972656 464.667969 470.972656 464.667969 474.714844 "/>
<path style=" stroke:none;fill-rule:nonzero;fill:rgb(3.137255%,81.960784%,81.960784%);fill-opacity:1;" d="M 269.324219 336.21875 C 269.324219 339.433594 266.714844 342.042969 263.5 342.042969 C 260.28125 342.042969 257.675781 339.433594 257.675781 336.21875 C 257.675781 333 260.28125 330.394531 263.5 330.394531 C 266.714844 330.394531 269.324219 333 269.324219 336.21875 "/>
<path style=" stroke:none;fill-rule:nonzero;fill:rgb(3.137255%,81.960784%,81.960784%);fill-opacity:1;" d="M 254.792969 379.582031 L 275.515625 379.582031 L 275.515625 400.304688 L 254.792969 400.304688 Z M 254.792969 379.582031 "/>
<path style=" stroke:none;fill-rule:nonzero;fill:rgb(3.137255%,81.960784%,81.960784%);fill-opacity:1;" d="M 447.566406 400.769531 C 447.566406 404.324219 442.234375 404.324219 442.234375 400.769531 C 442.234375 397.214844 447.566406 397.214844 447.566406 400.769531 "/>
<path style=" stroke:none;fill-rule:nonzero;fill:rgb(3.137255%,81.960784%,81.960784%);fill-opacity:1;" d="M 332.988281 133.988281 C 332.988281 137.484375 330.152344 140.320312 326.65625 140.320312 C 323.160156 140.320312 320.328125 137.484375 320.328125 133.988281 C 320.328125 130.492188 323.160156 127.660156 326.65625 127.660156 C 330.152344 127.660156 332.988281 130.492188 332.988281 133.988281 "/>
<path style=" stroke:none;fill-rule:nonzero;fill:rgb(3.137255%,81.960784%,81.960784%);fill-opacity:1;" d="M 197.46875 209.601562 L 218.191406 209.601562 L 218.191406 230.324219 L 197.46875 230.324219 Z M 197.46875 209.601562 "/>
<path style=" stroke:none;fill-rule:nonzero;fill:rgb(3.137255%,81.960784%,81.960784%);fill-opacity:1;" d="M 472.195312 451.722656 C 472.195312 455.355469 466.75 455.355469 466.75 451.722656 C 466.75 448.09375 472.195312 448.09375 472.195312 451.722656 "/>
<path style=" stroke:none;fill-rule:nonzero;fill:rgb(3.137255%,81.960784%,81.960784%);fill-opacity:1;" d="M 566.558594 508.125 C 566.558594 511.996094 560.753906 511.996094 560.753906 508.125 C 560.753906 504.257812 566.558594 504.257812 566.558594 508.125 "/>
<path style=" stroke:none;fill-rule:nonzero;fill:rgb(3.137255%,81.960784%,81.960784%);fill-opacity:1;" d="M 517.0625 185.929688 C 517.0625 192.296875 507.511719 192.296875 507.511719 185.929688 C 507.511719 179.5625 517.0625 179.5625 517.0625 185.929688 "/>
<path style=" stroke:none;fill-rule:nonzero;fill:rgb(74.901961%,43.921569%,13.333333%);fill-opacity:1;" d="M 199.402344 513.992188 L 220.125 513.992188 L 220.125 534.714844 L 199.402344 534.714844 Z M 199.402344 513.992188 "/>
<path style=" stroke:none;fill-rule:nonzero;fill:rgb(18.039216%,35.294118%,73.72549%);fill-opacity:1;" d="M 495.660156 132.503906 C 495.660156 136.128906 490.222656 136.128906 490.222656 132.503906 C 490.222656 128.878906 495.660156 128.878906 495.660156 132.503906 "/>
<path style=" stroke:none;fill-rule:nonzero;fill:rgb(18.039216%,35.294118%,73.72549%);fill-opacity:1;" d="M 199.613281 368.011719 C 199.613281 372.070312 193.523438 372.070312 193.523438 368.011719 C 193.523438 363.953125 199.613281 363.953125 199.613281 368.011719 "/>
<path style=" stroke:none;fill-rule:nonzero;fill:rgb(18.039216%,35.294118%,73.72549%);fill-opacity:1;" d="M 457.757812 537.054688 C 457.757812 540.445312 455.007812 543.195312 451.617188 543.195312 C 448.226562 543.195312 445.480469 540.445312 445.480469 537.054688 C 445.480469 533.664062 448.226562 530.914062 451.617188 530.914062 C 455.007812 530.914062 457.757812 533.664062 457.757812 537.054688 "/>
<path style=" stroke:none;fill-rule:nonzero;fill:rgb(18.039216%,35.294118%,73.72549%);fill-opacity:1;" d="M 322.160156 83.488281 L 342.882812 83.488281 L 342.882812 104.210938 L 322.160156 104.210938 Z M 322.160156 83.488281 "/>
<path style=" stroke:none;fill-rule:nonzero;fill:rgb(18.039216%,35.294118%,73.72549%);fill-opacity:1;" d="M 381.84375 117.09375 C 381.84375 120.824219 376.25 120.824219 376.25 117.09375 C 376.25 113.367188 381.84375 113.367188 381.84375 117.09375 "/>
<path style=" stroke:none;fill-rule:nonzero;fill:rgb(18.039216%,35.294118%,73.72549%);fill-opacity:1;" d="M 314.195312 390.925781 L 334.917969 390.925781 L 334.917969 411.648438 L 314.195312 411.648438 Z M 314.195312 390.925781 "/>
<path style=" stroke:none;fill-rule:nonzero;fill:rgb(18.039216%,35.294118%,73.72549%);fill-opacity:1;" d="M 604.140625 480.902344 C 604.140625 484.472656 598.785156 484.472656 598.785156 480.902344 C 598.785156 477.332031 604.140625 477.332031 604.140625 480.902344 "/>
<path style=" stroke:none;fill-rule:nonzero;fill:rgb(18.039216%,35.294118%,73.72549%);fill-opacity:1;" d="M 138.972656 439.335938 C 138.972656 442.941406 133.5625 442.941406 133.5625 439.335938 C 133.5625 435.730469 138.972656 435.730469 138.972656 439.335938 "/>
<path style=" stroke:none;fill-rule:nonzero;fill:rgb(18.039216%,35.294118%,73.72549%);fill-opacity:1;" d="M 141.875 387 C 141.875 390.507812 136.617188 390.507812 136.617188 387 C 136.617188 383.496094 141.875 383.496094 141.875 387 "/>
<path style=" stroke:none;fill-rule:nonzero;fill:rgb(3.529412%,80.784314%,55.294118%);fill-opacity:1;" d="M 170.429688 468.757812 C 170.429688 474.625 161.632812 474.625 161.632812 468.757812 C 161.632812 462.894531 170.429688 462.894531 170.429688 468.757812 "/>
<path style=" stroke:none;fill-rule:nonzero;fill:rgb(3.529412%,44.705882%,39.607843%);fill-opacity:1;" d="M 259.253906 266.605469 L 279.976562 266.605469 L 279.976562 287.328125 L 259.253906 287.328125 Z M 259.253906 266.605469 "/>
<path style=" stroke:none;fill-rule:nonzero;fill:rgb(3.529412%,44.705882%,39.607843%);fill-opacity:1;" d="M 401.964844 584.386719 C 401.964844 587.902344 396.691406 587.902344 396.691406 584.386719 C 396.691406 580.875 401.964844 580.875 401.964844 584.386719 "/>
<path style=" stroke:none;fill-rule:nonzero;fill:rgb(3.529412%,44.705882%,39.607843%);fill-opacity:1;" d="M 339.953125 586.738281 C 339.953125 590.292969 334.621094 590.292969 334.621094 586.738281 C 334.621094 583.183594 339.953125 583.183594 339.953125 586.738281 "/>
<path style=" stroke:none;fill-rule:nonzero;fill:rgb(3.529412%,44.705882%,39.607843%);fill-opacity:1;" d="M 359.542969 601.484375 L 380.265625 601.484375 L 380.265625 622.207031 L 359.542969 622.207031 Z M 359.542969 601.484375 "/>
<path style=" stroke:none;fill-rule:nonzero;fill:rgb(67.058824%,33.72549%,84.705882%);fill-opacity:1;" d="M 587.242188 254.351562 C 587.242188 257.847656 582 257.847656 582 254.351562 C 582 250.855469 587.242188 250.855469 587.242188 254.351562 "/>
<path style=" stroke:none;fill-rule:nonzero;fill:rgb(67.058824%,33.72549%,84.705882%);fill-opacity:1;" d="M 121.667969 243.808594 L 142.390625 243.808594 L 142.390625 264.53125 L 121.667969 264.53125 Z M 121.667969 243.808594 "/>
<path style=" stroke:none;fill-rule:nonzero;fill:rgb(67.058824%,33.72549%,84.705882%);fill-opacity:1;" d="M 430.265625 586.902344 C 430.265625 592.207031 422.308594 592.207031 422.308594 586.902344 C 422.308594 581.597656 430.265625 581.597656 430.265625 586.902344 "/>
<path style=" stroke:none;fill-rule:nonzero;fill:rgb(67.058824%,33.72549%,84.705882%);fill-opacity:1;" d="M 142.324219 304.835938 C 142.324219 308.410156 136.96875 308.410156 136.96875 304.835938 C 136.96875 301.265625 142.324219 301.265625 142.324219 304.835938 "/>
<path style=" stroke:none;fill-rule:nonzero;fill:rgb(67.058824%,33.72549%,84.705882%);fill-opacity:1;" d="M 348.960938 357.738281 C 348.960938 363.492188 340.332031 363.492188 340.332031 357.738281 C 340.332031 351.984375 348.960938 351.984375 348.960938 357.738281 "/>
<path style=" stroke:none;fill-rule:nonzero;fill:rgb(3.921569%,62.745098%,12.156863%);fill-opacity:1;" d="M 222.199219 272.304688 C 222.199219 275.875 216.839844 275.875 216.839844 272.304688 C 216.839844 268.730469 222.199219 268.730469 222.199219 272.304688 "/>
<path style=" stroke:none;fill-rule:nonzero;fill:rgb(3.921569%,62.745098%,12.156863%);fill-opacity:1;" d="M 449.542969 110.882812 C 449.542969 114.421875 444.230469 114.421875 444.230469 110.882812 C 444.230469 107.34375 449.542969 107.34375 449.542969 110.882812 "/>
<path style=" stroke:none;fill-rule:nonzero;fill:rgb(3.921569%,62.745098%,12.156863%);fill-opacity:1;" d="M 380.824219 93.753906 C 380.824219 97.542969 375.140625 97.542969 375.140625 93.753906 C 375.140625 89.960938 380.824219 89.960938 380.824219 93.753906 "/>
<path style=" stroke:none;fill-rule:nonzero;fill:rgb(3.921569%,62.745098%,12.156863%);fill-opacity:1;" d="M 269.507812 135.910156 C 269.507812 139.390625 264.289062 139.390625 264.289062 135.910156 C 264.289062 132.429688 269.507812 132.429688 269.507812 135.910156 "/>
<path style=" stroke:none;fill-rule:nonzero;fill:rgb(3.921569%,62.745098%,12.156863%);fill-opacity:1;" d="M 608.871094 286 L 629.59375 286 L 629.59375 306.722656 L 608.871094 306.722656 Z M 608.871094 286 "/>
<path style=" stroke:none;fill-rule:nonzero;fill:rgb(3.921569%,62.745098%,12.156863%);fill-opacity:1;" d="M 256.871094 222.824219 C 256.871094 227.015625 250.585938 227.015625 250.585938 222.824219 C 250.585938 218.636719 256.871094 218.636719 256.871094 222.824219 "/>
<path style=" stroke:none;fill-rule:nonzero;fill:rgb(3.921569%,62.745098%,12.156863%);fill-opacity:1;" d="M 405.234375 431.730469 L 425.957031 431.730469 L 425.957031 452.453125 L 405.234375 452.453125 Z M 405.234375 431.730469 "/>
<path style=" stroke:none;fill-rule:nonzero;fill:rgb(3.921569%,62.745098%,12.156863%);fill-opacity:1;" d="M 449.171875 135.324219 C 449.171875 138.867188 443.855469 138.867188 443.855469 135.324219 C 443.855469 131.78125 449.171875 131.78125 449.171875 135.324219 "/>
<path style=" stroke:none;fill-rule:nonzero;fill:rgb(3.921569%,62.745098%,12.156863%);fill-opacity:1;" d="M 346.988281 153.070312 L 367.710938 153.070312 L 367.710938 173.792969 L 346.988281 173.792969 Z M 346.988281 153.070312 "/>
<path style=" stroke:none;fill-rule:nonzero;fill:rgb(3.921569%,62.745098%,12.156863%);fill-opacity:1;" d="M 582.855469 377.960938 C 582.855469 383.585938 574.417969 383.585938 574.417969 377.960938 C 574.417969 372.335938 582.855469 372.335938 582.855469 377.960938 "/>
<path style=" stroke:none;fill-rule:nonzero;fill:rgb(3.921569%,62.745098%,12.156863%);fill-opacity:1;" d="M 502.257812 457.128906 L 522.980469 457.128906 L 522.980469 477.851562 L 502.257812 477.851562 Z M 502.257812 457.128906 "/>
<path style=" stroke:none;fill-rule:nonzero;fill:rgb(3.921569%,62.745098%,12.156863%);fill-opacity:1;" d="M 169.121094 194.066406 C 169.121094 197.640625 163.761719 197.640625 163.761719 194.066406 C 163.761719 190.492188 169.121094 190.492188 169.121094 194.066406 "/>
<path style=" stroke:none;fill-rule:nonzero;fill:rgb(3.921569%,62.745098%,12.156863%);fill-opacity:1;" d="M 615.203125 369.042969 L 635.925781 369.042969 L 635.925781 389.765625 L 615.203125 389.765625 Z M 615.203125 369.042969 "/>
<path style=" stroke:none;fill-rule:nonzero;fill:rgb(3.921569%,62.745098%,12.156863%);fill-opacity:1;" d="M 300.273438 520.640625 L 320.996094 520.640625 L 320.996094 541.363281 L 300.273438 541.363281 Z M 300.273438 520.640625 "/>
<path style=" stroke:none;fill-rule:nonzero;fill:rgb(3.921569%,62.745098%,12.156863%);fill-opacity:1;" d="M 606.660156 420.144531 L 627.382812 420.144531 L 627.382812 440.867188 L 606.660156 440.867188 Z M 606.660156 420.144531 "/>
<path style=" stroke:none;fill-rule:nonzero;fill:rgb(3.921569%,62.745098%,12.156863%);fill-opacity:1;" d="M 441.804688 241.710938 L 462.527344 241.710938 L 462.527344 262.433594 L 441.804688 262.433594 Z M 441.804688 241.710938 "/>
<path style=" stroke:none;fill-rule:nonzero;fill:rgb(3.921569%,62.745098%,12.156863%);fill-opacity:1;" d="M 370.246094 395.785156 L 390.96875 395.785156 L 390.96875 416.507812 L 370.246094 416.507812 Z M 370.246094 395.785156 "/>
<path style=" stroke:none;fill-rule:nonzero;fill:rgb(3.921569%,62.745098%,12.156863%);fill-opacity:1;" d="M 623.085938 326.015625 L 643.808594 326.015625 L 643.808594 346.738281 L 623.085938 346.738281 Z M 623.085938 326.015625 "/>
<path style=" stroke:none;fill-rule:nonzero;fill:rgb(3.921569%,62.745098%,12.156863%);fill-opacity:1;" d="M 611.535156 394.679688 L 632.257812 394.679688 L 632.257812 415.402344 L 611.535156 415.402344 Z M 611.535156 394.679688 "/>
<path style=" stroke:none;fill-rule:nonzero;fill:rgb(3.921569%,62.745098%,12.156863%);fill-opacity:1;" d="M 481.585938 507.671875 L 502.308594 507.671875 L 502.308594 528.394531 L 481.585938 528.394531 Z M 481.585938 507.671875 "/>
<path style=" stroke:none;fill-rule:nonzero;fill:rgb(3.921569%,62.745098%,12.156863%);fill-opacity:1;" d="M 421.449219 296.601562 L 442.171875 296.601562 L 442.171875 317.324219 L 421.449219 317.324219 Z M 421.449219 296.601562 "/>
<path style=" stroke:none;fill-rule:nonzero;fill:rgb(3.921569%,62.745098%,12.156863%);fill-opacity:1;" d="M 570.1875 327.75 L 590.910156 327.75 L 590.910156 348.472656 L 570.1875 348.472656 Z M 570.1875 327.75 "/>
<path style=" stroke:none;fill-rule:nonzero;fill:rgb(3.921569%,62.745098%,12.156863%);fill-opacity:1;" d="M 301.074219 254.492188 L 321.796875 254.492188 L 321.796875 275.214844 L 301.074219 275.214844 Z M 301.074219 254.492188 "/>
<path style=" stroke:none;fill-rule:nonzero;fill:rgb(3.921569%,62.745098%,12.156863%);fill-opacity:1;" d="M 305.082031 307.082031 L 325.804688 307.082031 L 325.804688 327.804688 L 305.082031 327.804688 Z M 305.082031 307.082031 "/>
<path style=" stroke:none;fill-rule:nonzero;fill:rgb(3.921569%,62.745098%,12.156863%);fill-opacity:1;" d="M 230.425781 449.988281 L 251.148438 449.988281 L 251.148438 470.710938 L 230.425781 470.710938 Z M 230.425781 449.988281 "/>
<path style=" stroke:none;fill-rule:nonzero;fill:rgb(3.921569%,62.745098%,12.156863%);fill-opacity:1;" d="M 293.476562 206.46875 L 314.199219 206.46875 L 314.199219 227.191406 L 293.476562 227.191406 Z M 293.476562 206.46875 "/>
<path style=" stroke:none;fill-rule:nonzero;fill:rgb(3.921569%,62.745098%,12.156863%);fill-opacity:1;" d="M 467.699219 200.089844 L 488.421875 200.089844 L 488.421875 220.8125 L 467.699219 220.8125 Z M 467.699219 200.089844 "/>
<path style=" stroke:none;fill-rule:nonzero;fill:rgb(3.921569%,62.745098%,12.156863%);fill-opacity:1;" d="M 302.125 579.339844 L 322.847656 579.339844 L 322.847656 600.0625 L 302.125 600.0625 Z M 302.125 579.339844 "/>
<path style=" stroke:none;fill-rule:nonzero;fill:rgb(15.294118%,28.627451%,27.058824%);fill-opacity:1;" d="M 118.023438 334.160156 C 118.023438 337.722656 112.679688 337.722656 112.679688 334.160156 C 112.679688 330.601562 118.023438 330.601562 118.023438 334.160156 "/>
<path style=" stroke:none;fill-rule:nonzero;fill:rgb(15.294118%,28.627451%,27.058824%);fill-opacity:1;" d="M 425.542969 508.09375 C 425.542969 512.667969 418.683594 512.667969 418.683594 508.09375 C 418.683594 503.519531 425.542969 503.519531 425.542969 508.09375 "/>
<path style=" stroke:none;fill-rule:nonzero;fill:rgb(15.294118%,28.627451%,27.058824%);fill-opacity:1;" d="M 536.804688 367.9375 C 536.804688 370.9375 534.375 373.367188 531.375 373.367188 C 528.378906 373.367188 525.945312 370.9375 525.945312 367.9375 C 525.945312 364.9375 528.378906 362.507812 531.375 362.507812 C 534.375 362.507812 536.804688 364.9375 536.804688 367.9375 "/>
<path style=" stroke:none;fill-rule:nonzero;fill:rgb(15.294118%,28.627451%,27.058824%);fill-opacity:1;" d="M 252.011719 559.371094 C 252.011719 563.460938 245.878906 563.460938 245.878906 559.371094 C 245.878906 555.285156 252.011719 555.285156 252.011719 559.371094 "/>
<path style=" stroke:none;fill-rule:nonzero;fill:rgb(15.294118%,28.627451%,27.058824%);fill-opacity:1;" d="M 211.742188 168.808594 C 211.742188 174.308594 207.285156 178.765625 201.785156 178.765625 C 196.285156 178.765625 191.828125 174.308594 191.828125 168.808594 C 191.828125 163.3125 196.285156 158.855469 201.785156 158.855469 C 207.285156 158.855469 211.742188 163.3125 211.742188 168.808594 "/>
<path style=" stroke:none;fill-rule:nonzero;fill:rgb(15.294118%,28.627451%,27.058824%);fill-opacity:1;" d="M 518.910156 565.230469 C 518.910156 569.671875 515.308594 573.273438 510.867188 573.273438 C 506.421875 573.273438 502.820312 569.671875 502.820312 565.230469 C 502.820312 560.785156 506.421875 557.183594 510.867188 557.183594 C 515.308594 557.183594 518.910156 560.785156 518.910156 565.230469 "/>
<path style=" stroke:none;fill-rule:nonzero;fill:rgb(18.039216%,73.72549%,27.058824%);fill-opacity:1;" d="M 293.652344 103.996094 C 293.652344 107.765625 288 107.765625 288 103.996094 C 288 100.226562 293.652344 100.226562 293.652344 103.996094 "/>
<path style=" stroke:none;fill-rule:nonzero;fill:rgb(18.039216%,73.72549%,27.058824%);fill-opacity:1;" d="M 546.097656 228.527344 C 546.097656 232.367188 542.984375 235.480469 539.144531 235.480469 C 535.300781 235.480469 532.1875 232.367188 532.1875 228.527344 C 532.1875 224.683594 535.300781 221.570312 539.144531 221.570312 C 542.984375 221.570312 546.097656 224.683594 546.097656 228.527344 "/>
<path style=" stroke:none;fill-rule:nonzero;fill:rgb(18.039216%,73.72549%,27.058824%);fill-opacity:1;" d="M 544.875 277.359375 C 544.875 281.339844 541.648438 284.566406 537.664062 284.566406 C 533.683594 284.566406 530.457031 281.339844 530.457031 277.359375 C 530.457031 273.375 533.683594 270.148438 537.664062 270.148438 C 541.648438 270.148438 544.875 273.375 544.875 277.359375 "/>
<path style=" stroke:none;fill-rule:nonzero;fill:rgb(18.039216%,73.72549%,27.058824%);fill-opacity:1;" d="M 306.582031 169.234375 C 306.582031 173.570312 300.078125 173.570312 300.078125 169.234375 C 300.078125 164.898438 306.582031 164.898438 306.582031 169.234375 "/>
<path style=" stroke:none;fill-rule:nonzero;fill:rgb(18.039216%,73.72549%,27.058824%);fill-opacity:1;" d="M 186.453125 394.855469 C 186.453125 399.609375 182.597656 403.460938 177.84375 403.460938 C 173.089844 403.460938 169.238281 399.609375 169.238281 394.855469 C 169.238281 390.101562 173.089844 386.246094 177.84375 386.246094 C 182.597656 386.246094 186.453125 390.101562 186.453125 394.855469 "/>
<path style=" stroke:none;fill-rule:nonzero;fill:rgb(18.039216%,73.72549%,27.058824%);fill-opacity:1;" d="M 497.265625 404.070312 C 497.265625 407.53125 492.070312 407.53125 492.070312 404.070312 C 492.070312 400.605469 497.265625 400.605469 497.265625 404.070312 "/>
<path style=" stroke:none;fill-rule:nonzero;fill:rgb(18.039216%,73.72549%,27.058824%);fill-opacity:1;" d="M 568.351562 432.398438 C 568.351562 438.441406 559.28125 438.441406 559.28125 432.398438 C 559.28125 426.351562 568.351562 426.351562 568.351562 432.398438 "/>
<path style=" stroke:none;fill-rule:nonzero;fill:rgb(18.039216%,73.72549%,27.058824%);fill-opacity:1;" d="M 187.917969 337.59375 C 187.917969 340.785156 185.332031 343.371094 182.144531 343.371094 C 178.953125 343.371094 176.367188 340.785156 176.367188 337.59375 C 176.367188 334.402344 178.953125 331.816406 182.144531 331.816406 C 185.332031 331.816406 187.917969 334.402344 187.917969 337.59375 "/>
<path style=" stroke:none;fill-rule:nonzero;fill:rgb(18.039216%,73.72549%,27.058824%);fill-opacity:1;" d="M 272.617188 361.917969 C 272.617188 368.875 262.183594 368.875 262.183594 361.917969 C 262.183594 354.964844 272.617188 354.964844 272.617188 361.917969 "/>
<path style=" stroke:none;fill-rule:nonzero;fill:rgb(18.039216%,73.72549%,27.058824%);fill-opacity:1;" d="M 552.636719 159.722656 C 552.636719 165.796875 543.527344 165.796875 543.527344 159.722656 C 543.527344 153.652344 552.636719 153.652344 552.636719 159.722656 "/>
<path style=" stroke:none;fill-rule:nonzero;fill:rgb(18.039216%,73.72549%,27.058824%);fill-opacity:1;" d="M 177.425781 271.554688 C 177.425781 277.160156 169.019531 277.160156 169.019531 271.554688 C 169.019531 265.953125 177.425781 265.953125 177.425781 271.554688 "/>
<path style=" stroke:none;fill-rule:nonzero;fill:rgb(18.039216%,73.72549%,27.058824%);fill-opacity:1;" d="M 255.769531 412.980469 C 255.769531 416.511719 250.464844 416.511719 250.464844 412.980469 C 250.464844 409.445312 255.769531 409.445312 255.769531 412.980469 "/>
<path style=" stroke:none;fill-rule:nonzero;fill:rgb(18.039216%,73.72549%,27.058824%);fill-opacity:1;" d="M 137.03125 413.660156 C 137.03125 417.132812 134.21875 419.945312 130.746094 419.945312 C 127.277344 419.945312 124.460938 417.132812 124.460938 413.660156 C 124.460938 410.1875 127.277344 407.375 130.746094 407.375 C 134.21875 407.375 137.03125 410.1875 137.03125 413.660156 "/>
<path style=" stroke:none;fill-rule:nonzero;fill:rgb(18.039216%,73.72549%,27.058824%);fill-opacity:1;" d="M 543.996094 317.890625 C 543.996094 321.03125 541.453125 323.574219 538.316406 323.574219 C 535.175781 323.574219 532.632812 321.03125 532.632812 317.890625 C 532.632812 314.753906 535.175781 312.207031 538.316406 312.207031 C 541.453125 312.207031 543.996094 314.753906 543.996094 317.890625 "/>
<path style=" stroke:none;fill-rule:nonzero;fill:rgb(18.039216%,73.72549%,27.058824%);fill-opacity:1;" d="M 371.199219 583.664062 C 371.199219 587.179688 365.925781 587.179688 365.925781 583.664062 C 365.925781 580.148438 371.199219 580.148438 371.199219 583.664062 "/>
<path style=" stroke:none;fill-rule:nonzero;fill:rgb(18.039216%,73.72549%,27.058824%);fill-opacity:1;" d="M 206.3125 442.246094 C 206.3125 448.023438 197.648438 448.023438 197.648438 442.246094 C 197.648438 436.472656 206.3125 436.472656 206.3125 442.246094 "/>
<path style=" stroke:none;fill-rule:nonzero;fill:rgb(18.039216%,73.72549%,27.058824%);fill-opacity:1;" d="M 405.433594 162.246094 C 405.433594 165.789062 400.121094 165.789062 400.121094 162.246094 C 400.121094 158.703125 405.433594 158.703125 405.433594 162.246094 "/>
<path style=" stroke:none;fill-rule:nonzero;fill:rgb(18.039216%,73.72549%,27.058824%);fill-opacity:1;" d="M 233.214844 296.644531 C 233.214844 302.535156 228.4375 307.3125 222.546875 307.3125 C 216.65625 307.3125 211.882812 302.535156 211.882812 296.644531 C 211.882812 290.753906 216.65625 285.980469 222.546875 285.980469 C 228.4375 285.980469 233.214844 290.753906 233.214844 296.644531 "/>
<path style=" stroke:none;fill-rule:nonzero;fill:rgb(18.039216%,73.72549%,27.058824%);fill-opacity:1;" d="M 599.617188 299.710938 C 599.617188 305.035156 591.628906 305.035156 591.628906 299.710938 C 591.628906 294.386719 599.617188 294.386719 599.617188 299.710938 "/>
<path style=" stroke:none;fill-rule:nonzero;fill:rgb(18.039216%,73.72549%,27.058824%);fill-opacity:1;" d="M 262.203125 199.054688 C 262.203125 203.710938 255.21875 203.710938 255.21875 199.054688 C 255.21875 194.394531 262.203125 194.394531 262.203125 199.054688 "/>
<path style=" stroke:none;fill-rule:nonzero;fill:rgb(18.039216%,73.72549%,27.058824%);fill-opacity:1;" d="M 354.125 446.609375 C 354.125 449.707031 351.613281 452.214844 348.519531 452.214844 C 345.421875 452.214844 342.914062 449.707031 342.914062 446.609375 C 342.914062 443.515625 345.421875 441.003906 348.519531 441.003906 C 351.613281 441.003906 354.125 443.515625 354.125 446.609375 "/>
<path style=" stroke:none;fill-rule:nonzero;fill:rgb(18.039216%,73.72549%,27.058824%);fill-opacity:1;" d="M 507.480469 249.675781 C 507.480469 252.90625 504.859375 255.527344 501.628906 255.527344 C 498.398438 255.527344 495.777344 252.90625 495.777344 249.675781 C 495.777344 246.445312 498.398438 243.824219 501.628906 243.824219 C 504.859375 243.824219 507.480469 246.445312 507.480469 249.675781 "/>
<path style=" stroke:none;fill-rule:nonzero;fill:rgb(18.039216%,73.72549%,27.058824%);fill-opacity:1;" d="M 169.480469 506.128906 C 169.480469 513 159.171875 513 159.171875 506.128906 C 159.171875 499.253906 169.480469 499.253906 169.480469 506.128906 "/>
<path style=" stroke:none;fill-rule:nonzero;fill:rgb(18.039216%,73.72549%,27.058824%);fill-opacity:1;" d="M 398.546875 476.96875 C 398.546875 484.125 392.75 489.921875 385.59375 489.921875 C 378.441406 489.921875 372.640625 484.125 372.640625 476.96875 C 372.640625 469.816406 378.441406 464.019531 385.59375 464.019531 C 392.75 464.019531 398.546875 469.816406 398.546875 476.96875 "/>
<path style=" stroke:none;fill-rule:nonzero;fill:rgb(18.039216%,73.72549%,27.058824%);fill-opacity:1;" d="M 299.664062 448.667969 C 299.664062 452.15625 294.433594 452.15625 294.433594 448.667969 C 294.433594 445.179688 299.664062 445.179688 299.664062 448.667969 "/>
<path style=" stroke:none;fill-rule:nonzero;fill:rgb(18.039216%,73.72549%,27.058824%);fill-opacity:1;" d="M 346.265625 263.316406 L 366.988281 263.316406 L 366.988281 284.039062 L 346.265625 284.039062 Z M 346.265625 263.316406 "/>
<path style=" stroke:none;fill-rule:nonzero;fill:rgb(18.039216%,73.72549%,27.058824%);fill-opacity:1;" d="M 395.878906 252.535156 L 416.601562 252.535156 L 416.601562 273.257812 L 395.878906 273.257812 Z M 395.878906 252.535156 "/>
<path style=" stroke:none;fill-rule:nonzero;fill:rgb(18.039216%,73.72549%,27.058824%);fill-opacity:1;" d="M 445.757812 165.382812 L 466.480469 165.382812 L 466.480469 186.105469 L 445.757812 186.105469 Z M 445.757812 165.382812 "/>
<path style=" stroke:none;fill-rule:nonzero;fill:rgb(49.803922%,27.058824%,38.039216%);fill-opacity:1;" d="M 318.207031 480.34375 L 338.929688 480.34375 L 338.929688 501.066406 L 318.207031 501.066406 Z M 318.207031 480.34375 "/>
<path style=" stroke:none;fill-rule:nonzero;fill:rgb(80.784314%,49.411765%,0%);fill-opacity:1;" d="M 391.996094 351.707031 L 412.71875 351.707031 L 412.71875 372.429688 L 391.996094 372.429688 Z M 391.996094 351.707031 "/>
<path style=" stroke:none;fill-rule:nonzero;fill:rgb(41.568627%,32.156863%,77.647059%);fill-opacity:1;" d="M 598.285156 239.445312 L 619.007812 239.445312 L 619.007812 260.167969 L 598.285156 260.167969 Z M 598.285156 239.445312 "/>
<path style=" stroke:none;fill-rule:nonzero;fill:rgb(41.568627%,32.156863%,77.647059%);fill-opacity:1;" d="M 537.480469 537.214844 L 558.203125 537.214844 L 558.203125 557.9375 L 537.480469 557.9375 Z M 537.480469 537.214844 "/>
</g>
</svg>
