<?xml version="1.0" encoding="UTF-8"?>
<svg xmlns="http://www.w3.org/2000/svg" xmlns:xlink="http://www.w3.org/1999/xlink" width="720pt" height="720pt" viewBox="0 0 720 720" version="1.1">
<g id="surface2988">
<path style=" stroke:none;fill-rule:nonzero;fill:rgb(95.686275%,95.686275%,95.686275%);fill-opacity:1;" d="M 523.238281 519.253906 L 521.136719 518.3125 L 519.011719 517.003906 L 516.925781 515.40625 L 514.921875 513.617188 L 513 511.742188 L 511.109375 509.835938 L 509.285156 507.875 L 507.621094 505.839844 L 506.226562 503.765625 L 505.195312 501.710938 L 504.898438 500.914062 L 504.445312 498.910156 L 504.425781 497.035156 L 504.789062 495.320312 L 505.441406 493.777344 L 506.25 492.355469 L 507.117188 490.933594 L 508.152344 489.355469 L 509.464844 487.527344 L 511.09375 485.429688 L 513.039062 483.09375 L 513.296875 482.792969 L 515.164062 480.671875 L 517.199219 478.449219 L 519.347656 476.175781 L 521.550781 473.898438 L 523.761719 471.65625 L 525.953125 469.457031 L 528.15625 467.289062 L 530.441406 465.234375 L 532.855469 463.429688 L 535.398438 462 L 538.03125 461.046875 L 540.707031 460.648438 L 541.203125 460.636719 L 543.753906 460.902344 L 546.273438 461.679688 L 548.722656 462.910156 L 551.066406 464.511719 L 553.289062 466.386719 L 555.410156 468.417969 L 557.484375 470.5 L 559.496094 472.636719 L 561.328125 474.882812 L 562.867188 477.246094 L 564.015625 479.710938 L 564.695312 482.238281 L 564.871094 484.304688 L 564.578125 486.984375 L 563.722656 489.628906 L 562.375 492.191406 L 560.628906 494.632812 L 558.609375 496.945312 L 556.449219 499.15625 L 554.253906 501.34375 L 552.015625 503.546875 L 549.726562 505.742188 L 547.417969 507.875 L 545.136719 509.894531 L 542.9375 511.738281 L 542.554688 512.050781 L 540.128906 513.914062 L 537.917969 515.457031 L 535.953125 516.675781 L 534.230469 517.609375 L 532.679688 518.351562 L 531.160156 519.035156 L 529.539062 519.59375 L 527.765625 519.902344 L 525.839844 519.867188 L 523.800781 519.4375 Z M 523.238281 519.253906 "/>
<path style=" stroke:none;fill-rule:nonzero;fill:rgb(95.686275%,95.686275%,95.686275%);fill-opacity:1;" d="M 271.078125 326.378906 L 268.695312 326.089844 L 266.351562 325.246094 L 264.101562 323.933594 L 261.976562 322.269531 L 259.972656 320.390625 L 258.027344 318.445312 L 256.085938 316.4375 L 254.1875 314.308594 L 252.398438 312.066406 L 250.792969 309.746094 L 249.546875 307.609375 L 248.339844 305.015625 L 247.480469 302.488281 L 246.953125 300.097656 L 246.691406 297.867188 L 246.574219 295.761719 L 246.519531 293.644531 L 246.625 291.40625 L 247 289.023438 L 247.703125 286.546875 L 248.542969 284.496094 L 249.785156 282.160156 L 251.296875 279.882812 L 253.003906 277.710938 L 254.824219 275.683594 L 256.6875 273.773438 L 258.5625 271.914062 L 260.527344 270.171875 L 262.617188 268.695312 L 264.824219 267.625 L 267.101562 267.070312 L 268.171875 267.007812 L 270.441406 267.292969 L 272.667969 268.117188 L 274.804688 269.398438 L 276.8125 271.015625 L 278.703125 272.820312 L 280.558594 274.679688 L 282.417969 276.621094 L 284.257812 278.699219 L 286.011719 280.90625 L 287.617188 283.199219 L 288.425781 284.496094 L 289.773438 286.988281 L 290.851562 289.441406 L 291.660156 291.785156 L 292.246094 293.992188 L 292.695312 296.085938 L 293.089844 298.191406 L 293.308594 300.433594 L 293.21875 302.832031 L 292.746094 305.359375 L 291.988281 307.609375 L 290.851562 309.976562 L 289.394531 312.3125 L 287.6875 314.5625 L 285.820312 316.691406 L 283.875 318.703125 L 281.910156 320.660156 L 279.875 322.53125 L 277.714844 324.167969 L 275.425781 325.421875 L 273.054688 326.179688 Z M 271.078125 326.378906 "/>
<path style=" stroke:none;fill-rule:nonzero;fill:rgb(95.686275%,95.686275%,95.686275%);fill-opacity:1;" d="M 428.210938 624.894531 L 425.988281 624.625 L 423.804688 623.847656 L 421.707031 622.628906 L 419.726562 621.082031 L 417.859375 619.335938 L 416.042969 617.523438 L 414.210938 615.597656 L 412.355469 613.417969 L 410.511719 610.933594 L 408.734375 608.140625 L 407.132812 605.179688 L 405.816406 602.339844 L 404.628906 599.363281 L 403.582031 596.316406 L 402.675781 593.265625 L 401.890625 590.257812 L 401.191406 587.3125 L 400.527344 584.386719 L 399.917969 581.421875 L 399.433594 578.394531 L 399.140625 575.34375 L 399.089844 572.320312 L 399.308594 569.390625 L 399.597656 567.605469 L 400.359375 564.726562 L 401.4375 562.09375 L 402.773438 559.730469 L 404.304688 557.648438 L 405.945312 555.804688 L 407.632812 554.09375 L 409.351562 552.433594 L 411.15625 550.898438 L 413.066406 549.601562 L 415.066406 548.652344 L 417.125 548.117188 L 418.464844 548.019531 L 420.726562 548.300781 L 422.945312 549.113281 L 425.074219 550.378906 L 427.078125 551.980469 L 428.96875 553.769531 L 430.816406 555.617188 L 432.703125 557.527344 L 434.640625 559.539062 L 436.59375 561.632812 L 438.507812 563.769531 L 439.761719 565.214844 L 441.640625 567.472656 L 443.347656 569.640625 L 444.863281 571.667969 L 446.191406 573.535156 L 447.398438 575.285156 L 448.570312 577.042969 L 449.707031 578.929688 L 450.734375 580.972656 L 451.597656 583.15625 L 452.1875 585.199219 L 452.617188 587.5625 L 452.796875 589.921875 L 452.753906 592.195312 L 452.542969 594.355469 L 452.253906 596.417969 L 451.90625 598.511719 L 451.378906 600.746094 L 450.589844 603.128906 L 449.492188 605.613281 L 448.617188 607.246094 L 447.175781 609.539062 L 445.53125 611.792969 L 443.738281 613.949219 L 441.878906 615.984375 L 440 617.898438 L 438.121094 619.765625 L 436.160156 621.53125 L 434.078125 623.042969 L 431.871094 624.167969 L 429.597656 624.789062 Z M 428.210938 624.894531 "/>
<path style=" stroke:none;fill-rule:nonzero;fill:rgb(95.686275%,95.686275%,95.686275%);fill-opacity:1;" d="M 274.171875 196.570312 L 271.605469 197.140625 L 269.160156 197.183594 L 266.894531 196.769531 L 264.820312 196.011719 L 262.882812 195.078125 L 260.941406 194.082031 L 258.875 192.945312 L 256.648438 191.597656 L 254.300781 190.027344 L 252.160156 188.464844 L 249.929688 186.703125 L 247.722656 184.828125 L 245.585938 182.898438 L 243.5625 180.96875 L 241.640625 179.074219 L 239.769531 177.195312 L 237.988281 175.25 L 236.429688 173.183594 L 235.238281 170.996094 L 234.527344 168.726562 L 234.347656 166.898438 L 234.640625 164.550781 L 235.496094 162.246094 L 236.820312 160.039062 L 238.492188 157.960938 L 240.359375 156.003906 L 242.28125 154.089844 L 244.28125 152.207031 L 246.394531 150.425781 L 248.613281 148.835938 L 250.886719 147.523438 L 252.160156 146.933594 L 254.632812 146.097656 L 257.027344 145.679688 L 259.28125 145.632812 L 261.367188 145.863281 L 263.34375 146.238281 L 265.351562 146.683594 L 267.53125 147.335938 L 269.914062 148.292969 L 272.46875 149.601562 L 274.171875 150.632812 L 276.457031 152.203125 L 278.761719 153.980469 L 281.027344 155.90625 L 283.214844 157.917969 L 285.308594 159.949219 L 287.34375 161.980469 L 289.324219 164.054688 L 291.121094 166.238281 L 292.601562 168.554688 L 293.640625 170.976562 L 294.148438 173.457031 L 294.191406 174.402344 L 293.886719 176.941406 L 293.007812 179.4375 L 291.636719 181.839844 L 289.886719 184.113281 L 287.90625 186.253906 L 285.839844 188.328125 L 283.722656 190.367188 L 281.515625 192.296875 L 279.21875 194.015625 L 276.871094 195.425781 L 274.53125 196.449219 Z M 274.171875 196.570312 "/>
<path style=" stroke:none;fill-rule:nonzero;fill:rgb(95.686275%,95.686275%,95.686275%);fill-opacity:1;" d="M 310.289062 522.414062 L 307.824219 522.117188 L 305.402344 521.25 L 303.078125 519.898438 L 300.882812 518.179688 L 298.8125 516.242188 L 296.800781 514.234375 L 294.824219 512.167969 L 292.953125 509.988281 L 291.285156 507.707031 L 289.914062 505.363281 L 288.949219 503.136719 L 288.277344 500.566406 L 288.078125 498.085938 L 288.296875 495.757812 L 288.832031 493.605469 L 289.53125 491.582031 L 290.292969 489.550781 L 291.195312 487.398438 L 292.320312 485.097656 L 293.683594 482.6875 L 295.082031 480.519531 L 296.726562 478.242188 L 298.511719 476.007812 L 300.382812 473.863281 L 302.273438 471.84375 L 304.148438 469.9375 L 306.015625 468.082031 L 307.953125 466.320312 L 310.019531 464.800781 L 312.199219 463.65625 L 314.457031 463 L 316.011719 462.867188 L 318.332031 463.164062 L 320.609375 464.011719 L 322.789062 465.328125 L 324.835938 466.984375 L 326.769531 468.828125 L 328.660156 470.730469 L 330.523438 472.714844 L 332.289062 474.832031 L 333.871094 477.0625 L 335.183594 479.363281 L 335.71875 480.519531 L 336.589844 483.007812 L 337.066406 485.441406 L 337.195312 487.753906 L 337.054688 489.910156 L 336.769531 491.957031 L 336.425781 494.027344 L 335.894531 496.246094 L 335.078125 498.644531 L 333.925781 501.183594 L 332.847656 503.136719 L 331.34375 505.453125 L 329.628906 507.757812 L 327.757812 510.003906 L 325.804688 512.148438 L 323.824219 514.183594 L 321.84375 516.164062 L 319.8125 518.078125 L 317.65625 519.785156 L 315.378906 521.152344 L 313 522.054688 L 310.578125 522.410156 Z M 310.289062 522.414062 "/>
<path style=" stroke:none;fill-rule:nonzero;fill:rgb(95.686275%,95.686275%,95.686275%);fill-opacity:1;" d="M 575.226562 369.679688 L 571.699219 368.847656 L 568.574219 367.699219 L 565.882812 366.292969 L 563.605469 364.695312 L 561.664062 362.992188 L 559.902344 361.25 L 558.148438 359.460938 L 556.390625 357.535156 L 554.660156 355.433594 L 553.003906 353.15625 L 551.480469 350.738281 L 550.792969 349.511719 L 549.535156 346.960938 L 548.46875 344.363281 L 547.597656 341.78125 L 546.910156 339.265625 L 546.367188 336.839844 L 545.894531 334.480469 L 545.457031 332.0625 L 545.117188 329.441406 L 544.933594 326.546875 L 544.960938 323.371094 L 545.226562 319.957031 L 545.464844 318.097656 L 546 314.984375 L 546.703125 311.789062 L 547.554688 308.566406 L 548.523438 305.367188 L 549.574219 302.242188 L 550.671875 299.195312 L 551.785156 296.207031 L 552.914062 293.207031 L 554.109375 290.164062 L 555.390625 287.082031 L 556.761719 284 L 558.214844 280.980469 L 559.734375 278.074219 L 560.664062 276.425781 L 562.441406 273.511719 L 564.238281 270.863281 L 566.023438 268.5 L 567.765625 266.425781 L 569.441406 264.609375 L 571.066406 262.957031 L 572.699219 261.363281 L 574.457031 259.902344 L 576.4375 258.710938 L 578.667969 257.914062 L 581.152344 257.601562 L 583.859375 257.835938 L 584.421875 257.949219 L 586.957031 258.707031 L 589.605469 259.875 L 592.324219 261.402344 L 595.066406 263.234375 L 597.785156 265.292969 L 600.460938 267.496094 L 603.089844 269.769531 L 605.722656 272.058594 L 608.398438 274.402344 L 611.136719 276.808594 L 613.914062 279.269531 L 616.695312 281.753906 L 619.433594 284.226562 L 622.085938 286.648438 L 622.335938 286.878906 L 625.21875 289.546875 L 627.90625 292.074219 L 630.375 294.433594 L 632.601562 296.597656 L 634.609375 298.578125 L 636.464844 300.429688 L 638.285156 302.257812 L 640.09375 304.167969 L 641.859375 306.207031 L 643.527344 308.375 L 645.046875 310.660156 L 646.363281 313.019531 L 646.703125 313.707031 L 647.839844 316.460938 L 648.664062 319.203125 L 649.1875 321.878906 L 649.453125 324.429688 L 649.546875 326.859375 L 649.578125 329.242188 L 649.53125 331.6875 L 649.3125 334.234375 L 648.851562 336.863281 L 648.113281 339.507812 L 647.359375 341.496094 L 646.210938 343.867188 L 644.839844 346.132812 L 643.300781 348.253906 L 641.65625 350.210938 L 639.960938 352.011719 L 638.253906 353.726562 L 636.464844 355.445312 L 634.410156 357.183594 L 631.960938 358.917969 L 629.082031 360.605469 L 625.777344 362.199219 L 623.996094 362.9375 L 620.917969 364.058594 L 617.636719 365.074219 L 614.207031 365.980469 L 610.699219 366.777344 L 607.167969 367.464844 L 603.664062 368.070312 L 600.195312 368.617188 L 596.734375 369.144531 L 593.242188 369.628906 L 589.714844 370.011719 L 586.1875 370.257812 L 582.71875 370.324219 L 579.367188 370.191406 L 576.203125 369.839844 Z M 575.226562 369.679688 "/>
<path style=" stroke:none;fill-rule:nonzero;fill:rgb(95.686275%,95.686275%,95.686275%);fill-opacity:1;" d="M 595.0625 439.300781 L 592.320312 438.453125 L 589.6875 437.289062 L 587.191406 435.847656 L 584.863281 434.183594 L 582.703125 432.371094 L 580.683594 430.46875 L 578.742188 428.535156 L 576.824219 426.550781 L 574.984375 424.417969 L 573.292969 422.078125 L 571.820312 419.507812 L 570.640625 416.722656 L 569.792969 413.742188 L 569.539062 412.417969 L 569.222656 409.28125 L 569.253906 406.039062 L 569.609375 402.742188 L 570.246094 399.453125 L 571.105469 396.222656 L 572.117188 393.0625 L 573.199219 389.957031 L 574.300781 386.84375 L 575.464844 383.6875 L 576.714844 380.496094 L 578.054688 377.308594 L 579.480469 374.183594 L 580.972656 371.183594 L 582.03125 369.222656 L 583.972656 365.949219 L 585.9375 363.015625 L 587.886719 360.457031 L 589.777344 358.257812 L 591.59375 356.347656 L 593.371094 354.570312 L 595.191406 352.859375 L 597.121094 351.328125 L 599.164062 350.101562 L 601.292969 349.292969 L 603.460938 348.972656 L 603.722656 348.96875 L 605.875 349.222656 L 607.988281 349.960938 L 610.027344 351.117188 L 611.953125 352.59375 L 613.769531 354.265625 L 615.527344 356.015625 L 617.339844 357.855469 L 619.300781 359.921875 L 621.441406 362.28125 L 623.75 364.953125 L 626.191406 367.898438 L 626.789062 368.644531 L 628.886719 371.296875 L 631.015625 374.074219 L 633.144531 376.925781 L 635.242188 379.796875 L 637.28125 382.644531 L 639.253906 385.445312 L 641.183594 388.203125 L 643.089844 390.96875 L 644.914062 393.785156 L 646.582031 396.644531 L 648.003906 399.519531 L 649.121094 402.351562 L 649.875 405.089844 L 650.15625 406.8125 L 650.234375 409.601562 L 649.824219 412.167969 L 648.96875 414.472656 L 647.757812 416.515625 L 646.296875 418.324219 L 644.699219 419.976562 L 643.058594 421.605469 L 641.292969 423.265625 L 639.320312 424.957031 L 637.109375 426.664062 L 634.671875 428.34375 L 632.027344 429.957031 L 631.609375 430.195312 L 628.859375 431.65625 L 625.988281 433.015625 L 623.058594 434.253906 L 620.136719 435.363281 L 617.261719 436.359375 L 614.453125 437.273438 L 611.660156 438.152344 L 608.800781 438.949219 L 605.84375 439.574219 L 602.796875 439.933594 L 599.714844 439.96875 L 596.652344 439.632812 Z M 595.0625 439.300781 "/>
<path style=" stroke:none;fill-rule:nonzero;fill:rgb(95.686275%,95.686275%,95.686275%);fill-opacity:1;" d="M 486.8125 206.261719 L 482.808594 206.054688 L 479.226562 205.394531 L 476.09375 204.324219 L 473.414062 202.914062 L 471.128906 201.25 L 469.136719 199.441406 L 467.269531 197.578125 L 465.433594 195.679688 L 463.691406 193.710938 L 462.117188 191.675781 L 460.785156 189.585938 L 459.753906 187.476562 L 459.074219 185.386719 L 459.054688 185.308594 L 458.734375 182.714844 L 458.992188 180.242188 L 459.746094 177.941406 L 460.871094 175.835938 L 462.203125 173.882812 L 463.589844 171.949219 L 465.058594 169.941406 L 466.644531 167.839844 L 468.339844 165.671875 L 470.109375 163.503906 L 470.488281 163.054688 L 472.253906 160.996094 L 474.011719 159.03125 L 475.714844 157.195312 L 477.339844 155.503906 L 478.882812 153.9375 L 480.410156 152.398438 L 482.027344 150.773438 L 483.785156 149.003906 L 485.6875 147.089844 L 487.703125 145.070312 L 488.640625 144.125 L 490.632812 142.128906 L 492.636719 140.121094 L 494.609375 138.144531 L 496.511719 136.242188 L 498.328125 134.421875 L 500.109375 132.648438 L 501.941406 130.878906 L 503.902344 129.144531 L 506 127.507812 L 508.210938 126.039062 L 510.496094 124.785156 L 510.613281 124.730469 L 513.171875 123.660156 L 515.710938 122.910156 L 518.164062 122.460938 L 520.484375 122.25 L 522.695312 122.183594 L 524.902344 122.167969 L 527.210938 122.261719 L 529.628906 122.550781 L 532.109375 123.085938 L 534.570312 123.882812 L 536.867188 124.882812 L 539.0625 126.089844 L 541.117188 127.445312 L 543.011719 128.890625 L 544.765625 130.367188 L 546.488281 131.855469 L 548.292969 133.429688 L 550.230469 135.144531 L 552.300781 137.007812 L 554.457031 138.988281 L 555.558594 140.015625 L 557.714844 142.050781 L 559.855469 144.105469 L 561.933594 146.125 L 563.902344 148.070312 L 565.777344 149.9375 L 567.597656 151.769531 L 569.335938 153.671875 L 570.84375 155.691406 L 571.992188 157.832031 L 572.667969 160.046875 L 572.828125 161.734375 L 572.589844 163.808594 L 571.898438 165.851562 L 570.8125 167.824219 L 569.417969 169.695312 L 567.824219 171.464844 L 566.140625 173.164062 L 564.355469 174.890625 L 562.234375 176.734375 L 559.601562 178.730469 L 556.371094 180.882812 L 552.539062 183.148438 L 549.882812 184.59375 L 546.632812 186.253906 L 543.144531 187.933594 L 539.457031 189.617188 L 535.628906 191.285156 L 531.71875 192.921875 L 527.777344 194.515625 L 523.84375 196.066406 L 519.933594 197.578125 L 516.035156 199.074219 L 512.109375 200.542969 L 508.152344 201.9375 L 504.179688 203.203125 L 500.234375 204.296875 L 496.363281 205.179688 L 492.625 205.8125 L 489.070312 206.175781 Z M 486.8125 206.261719 "/>
<path style=" stroke:none;fill-rule:nonzero;fill:rgb(95.686275%,95.686275%,95.686275%);fill-opacity:1;" d="M 333.257812 626.503906 L 330.992188 626.21875 L 328.765625 625.394531 L 326.632812 624.117188 L 324.625 622.503906 L 322.730469 620.703125 L 320.878906 618.84375 L 319.007812 616.914062 L 317.136719 614.863281 L 315.316406 612.707031 L 313.613281 610.492188 L 312.695312 609.1875 L 311.144531 606.753906 L 309.84375 604.386719 L 308.800781 602.152344 L 307.980469 600.074219 L 307.28125 598.105469 L 306.648438 596.105469 L 306.21875 593.96875 L 306.121094 591.671875 L 306.445312 589.261719 L 306.882812 587.71875 L 307.859375 585.4375 L 309.199219 583.183594 L 310.820312 581.015625 L 312.625 578.96875 L 314.511719 577.027344 L 316.429688 575.132812 L 318.433594 573.363281 L 320.574219 571.871094 L 322.828125 570.804688 L 325.152344 570.269531 L 326.105469 570.21875 L 328.390625 570.507812 L 330.632812 571.332031 L 332.785156 572.617188 L 334.808594 574.234375 L 336.71875 576.046875 L 338.582031 577.917969 L 340.464844 579.859375 L 342.34375 581.917969 L 344.164062 584.078125 L 345.867188 586.300781 L 346.855469 587.71875 L 348.386719 590.175781 L 349.65625 592.554688 L 350.65625 594.796875 L 351.429688 596.882812 L 352.078125 598.855469 L 352.664062 600.855469 L 353.046875 603 L 353.097656 605.296875 L 352.738281 607.703125 L 352.296875 609.1875 L 351.304688 611.464844 L 349.957031 613.710938 L 348.335938 615.867188 L 346.539062 617.902344 L 344.664062 619.828125 L 342.757812 621.703125 L 340.765625 623.457031 L 338.636719 624.921875 L 336.390625 625.960938 L 334.085938 626.464844 Z M 333.257812 626.503906 "/>
<path style=" stroke:none;fill-rule:nonzero;fill:rgb(95.686275%,95.686275%,95.686275%);fill-opacity:1;" d="M 396.453125 138.503906 L 393.46875 138.277344 L 390.289062 137.75 L 386.972656 136.953125 L 383.566406 135.921875 L 380.140625 134.703125 L 376.730469 133.351562 L 373.351562 131.925781 L 369.996094 130.476562 L 366.613281 129 L 363.191406 127.464844 L 359.757812 125.863281 L 356.359375 124.203125 L 353.050781 122.5 L 349.890625 120.773438 L 347.519531 119.398438 L 343.960938 117.179688 L 340.8125 115.011719 L 338.101562 112.933594 L 335.808594 110.976562 L 333.855469 109.136719 L 332.082031 107.371094 L 330.359375 105.574219 L 328.789062 103.683594 L 327.492188 101.675781 L 326.570312 99.582031 L 326.105469 97.429688 L 326.058594 96.484375 L 326.34375 94.175781 L 327.175781 91.910156 L 328.464844 89.738281 L 330.097656 87.6875 L 331.925781 85.757812 L 333.8125 83.875 L 335.777344 81.988281 L 337.878906 80.128906 L 340.105469 78.363281 L 342.421875 76.757812 L 344.046875 75.773438 L 346.566406 74.484375 L 349.042969 73.484375 L 351.417969 72.761719 L 353.648438 72.273438 L 355.761719 71.929688 L 357.875 71.621094 L 360.117188 71.359375 L 362.519531 71.1875 L 365.046875 71.140625 L 367.644531 71.238281 L 367.675781 71.242188 L 370.222656 71.484375 L 372.726562 71.855469 L 375.128906 72.332031 L 377.390625 72.882812 L 379.53125 73.464844 L 381.652344 74.070312 L 383.871094 74.789062 L 386.222656 75.703125 L 388.675781 76.851562 L 391.167969 78.238281 L 391.792969 78.621094 L 394.074219 80.144531 L 396.292969 81.816406 L 398.40625 83.585938 L 400.390625 85.394531 L 402.246094 87.199219 L 404.042969 88.992188 L 405.847656 90.832031 L 407.664062 92.777344 L 409.457031 94.832031 L 411.171875 96.964844 L 412.75 99.136719 L 412.90625 99.363281 L 414.476562 101.824219 L 415.800781 104.222656 L 416.871094 106.496094 L 417.722656 108.609375 L 418.445312 110.613281 L 419.109375 112.636719 L 419.589844 114.789062 L 419.753906 117.089844 L 419.515625 119.496094 L 419.042969 121.332031 L 418.230469 123.347656 L 417.136719 125.332031 L 415.808594 127.257812 L 414.304688 129.089844 L 412.703125 130.820312 L 411.054688 132.484375 L 409.359375 134.113281 L 407.441406 135.625 L 405.179688 136.910156 L 402.515625 137.863281 L 399.449219 138.40625 Z M 396.453125 138.503906 "/>
<path style=" stroke:none;fill-rule:nonzero;fill:rgb(95.686275%,95.686275%,95.686275%);fill-opacity:1;" d="M 260.667969 511.929688 L 258.355469 511.644531 L 256.085938 510.828125 L 253.902344 509.554688 L 251.84375 507.9375 L 249.90625 506.117188 L 248.015625 504.230469 L 246.085938 502.300781 L 244.09375 500.296875 L 242.054688 498.242188 L 240.023438 496.1875 L 238.273438 494.402344 L 236.117188 492.199219 L 234.125 490.144531 L 232.335938 488.289062 L 230.746094 486.625 L 229.273438 485.078125 L 227.875 483.496094 L 226.714844 481.75 L 225.964844 479.808594 L 225.746094 477.707031 L 225.867188 476.578125 L 226.488281 474.472656 L 227.601562 472.328125 L 229.109375 470.210938 L 230.894531 468.167969 L 232.8125 466.199219 L 234.769531 464.265625 L 236.792969 462.4375 L 238.898438 460.855469 L 241.035156 459.644531 L 243.152344 458.90625 L 243.636719 458.808594 L 245.804688 458.726562 L 247.828125 459.226562 L 249.664062 460.203125 L 251.316406 461.511719 L 252.851562 462.964844 L 254.433594 464.484375 L 256.179688 466.179688 L 258.128906 468.078125 L 260.257812 470.160156 L 261.394531 471.277344 L 263.410156 473.265625 L 265.46875 475.304688 L 267.515625 477.339844 L 269.507812 479.328125 L 271.429688 481.25 L 273.3125 483.140625 L 275.117188 485.089844 L 276.703125 487.164062 L 277.929688 489.359375 L 278.691406 491.636719 L 278.910156 493.683594 L 278.652344 495.898438 L 277.898438 498.078125 L 276.722656 500.175781 L 275.210938 502.167969 L 273.496094 504.042969 L 271.695312 505.851562 L 269.851562 507.613281 L 267.90625 509.214844 L 265.84375 510.527344 L 263.691406 511.445312 L 261.484375 511.890625 Z M 260.667969 511.929688 "/>
<path style=" stroke:none;fill-rule:nonzero;fill:rgb(95.686275%,95.686275%,95.686275%);fill-opacity:1;" d="M 180.355469 353.910156 L 177.6875 353.621094 L 175.0625 352.769531 L 172.515625 351.421875 L 170.09375 349.683594 L 167.800781 347.671875 L 165.605469 345.527344 L 163.429688 343.34375 L 161.25 341.101562 L 159.097656 338.777344 L 157.023438 336.402344 L 155.09375 334.015625 L 153.359375 331.667969 L 153.144531 331.355469 L 151.53125 328.851562 L 150.226562 326.488281 L 149.226562 324.300781 L 148.496094 322.308594 L 147.964844 320.484375 L 147.507812 318.726562 L 147.140625 316.894531 L 146.984375 314.910156 L 147.144531 312.742188 L 147.679688 310.421875 L 148.53125 308.175781 L 149.757812 305.828125 L 151.308594 303.445312 L 153.125 301.085938 L 155.125 298.792969 L 157.21875 296.589844 L 159.351562 294.449219 L 161.515625 292.355469 L 163.792969 290.421875 L 166.203125 288.792969 L 168.726562 287.597656 L 171.324219 286.933594 L 172.972656 286.8125 L 175.542969 287.101562 L 178.074219 287.941406 L 180.523438 289.265625 L 182.847656 290.972656 L 185.046875 292.929688 L 187.15625 295.007812 L 189.257812 297.121094 L 191.378906 299.304688 L 193.488281 301.570312 L 195.546875 303.898438 L 197.484375 306.234375 L 198.992188 308.175781 L 200.707031 310.578125 L 202.175781 312.867188 L 203.394531 315 L 204.382812 316.957031 L 205.191406 318.765625 L 205.925781 320.503906 L 206.574219 322.308594 L 207.007812 324.277344 L 207.105469 326.4375 L 206.796875 328.773438 L 206.03125 331.246094 L 205.988281 331.355469 L 204.851562 333.738281 L 203.347656 336.164062 L 201.546875 338.582031 L 199.523438 340.949219 L 197.371094 343.238281 L 195.167969 345.460938 L 192.9375 347.644531 L 190.605469 349.691406 L 188.136719 351.457031 L 185.542969 352.8125 L 182.867188 353.652344 Z M 180.355469 353.910156 "/>
<path style=" stroke:none;fill-rule:nonzero;fill:rgb(95.686275%,95.686275%,95.686275%);fill-opacity:1;" d="M 432.664062 448.160156 L 430.28125 446.914062 L 427.972656 445.402344 L 425.789062 443.699219 L 423.753906 441.882812 L 421.851562 440.027344 L 420 438.15625 L 418.261719 436.203125 L 416.789062 434.117188 L 415.726562 431.917969 L 415.171875 429.652344 L 415.109375 428.585938 L 415.375 426.402344 L 416.144531 424.253906 L 417.34375 422.191406 L 418.867188 420.246094 L 420.582031 418.410156 L 422.367188 416.628906 L 424.289062 414.828125 L 426.503906 413.019531 L 429.097656 411.234375 L 432.074219 409.535156 L 435.191406 408.066406 L 438.136719 406.902344 L 441.25 405.867188 L 444.476562 404.957031 L 447.746094 404.179688 L 451 403.515625 L 454.210938 402.941406 L 457.382812 402.410156 L 460.578125 401.90625 L 463.820312 401.492188 L 467.09375 401.21875 L 470.351562 401.132812 L 473.523438 401.265625 L 476.554688 401.640625 L 477.617188 401.839844 L 480.71875 402.660156 L 483.523438 403.777344 L 486 405.132812 L 488.148438 406.667969 L 490.019531 408.304688 L 491.726562 409.980469 L 493.386719 411.6875 L 494.933594 413.46875 L 496.253906 415.359375 L 497.246094 417.34375 L 497.839844 419.386719 L 497.988281 421.039062 L 497.703125 423.320312 L 496.882812 425.5625 L 495.601562 427.710938 L 493.988281 429.734375 L 492.179688 431.640625 L 490.3125 433.507812 L 488.363281 435.382812 L 486.285156 437.253906 L 484.070312 439.058594 L 481.765625 440.738281 L 480.203125 441.757812 L 477.734375 443.175781 L 475.296875 444.351562 L 472.957031 445.28125 L 470.75 445.992188 L 468.65625 446.570312 L 466.574219 447.113281 L 464.375 447.65625 L 462.023438 448.183594 L 459.542969 448.671875 L 456.996094 449.101562 L 456.605469 449.160156 L 454.003906 449.503906 L 451.445312 449.773438 L 449.003906 449.960938 L 446.710938 450.082031 L 444.539062 450.167969 L 442.367188 450.21875 L 440.085938 450.125 L 437.671875 449.785156 L 435.167969 449.136719 Z M 432.664062 448.160156 "/>
<path style=" stroke:none;fill-rule:nonzero;fill:rgb(95.686275%,95.686275%,95.686275%);fill-opacity:1;" d="M 161.816406 402.289062 L 159.472656 402.003906 L 157.171875 401.175781 L 154.960938 399.886719 L 152.875 398.246094 L 150.910156 396.402344 L 148.996094 394.492188 L 147.0625 392.523438 L 145.121094 390.460938 L 143.203125 388.304688 L 141.378906 386.105469 L 139.875 384.144531 L 138.164062 381.691406 L 136.710938 379.34375 L 135.53125 377.160156 L 134.578125 375.15625 L 133.757812 373.273438 L 133.007812 371.351562 L 132.46875 369.285156 L 132.28125 367.050781 L 132.542969 364.699219 L 132.898438 363.347656 L 133.820312 361.105469 L 135.125 358.878906 L 136.726562 356.722656 L 138.523438 354.679688 L 140.417969 352.738281 L 142.339844 350.84375 L 144.351562 349.074219 L 146.5 347.589844 L 148.765625 346.539062 L 151.097656 346.027344 L 151.949219 345.984375 L 154.21875 346.269531 L 156.449219 347.085938 L 158.589844 348.359375 L 160.605469 349.964844 L 162.503906 351.765625 L 164.359375 353.621094 L 166.246094 355.546875 L 168.164062 357.574219 L 170.074219 359.699219 L 171.921875 361.871094 L 173.105469 363.347656 L 174.890625 365.714844 L 176.464844 367.996094 L 177.820312 370.136719 L 178.964844 372.117188 L 179.992188 373.980469 L 180.949219 375.871094 L 181.699219 377.914062 L 182.085938 380.128906 L 182.003906 382.488281 L 181.652344 384.144531 L 180.789062 386.40625 L 179.515625 388.667969 L 177.917969 390.871094 L 176.089844 392.972656 L 174.152344 394.980469 L 172.175781 396.9375 L 170.121094 398.785156 L 167.929688 400.371094 L 165.617188 401.542969 L 163.226562 402.1875 Z M 161.816406 402.289062 "/>
<path style=" stroke:none;fill-rule:nonzero;fill:rgb(95.686275%,95.686275%,95.686275%);fill-opacity:1;" d="M 624.273438 271.300781 L 622.019531 271.019531 L 619.804688 270.210938 L 617.683594 268.949219 L 615.683594 267.359375 L 613.800781 265.574219 L 611.957031 263.730469 L 610.066406 261.832031 L 608.109375 259.847656 L 606.101562 257.785156 L 604.101562 255.703125 L 602.742188 254.269531 L 600.675781 252.054688 L 598.746094 249.949219 L 596.996094 248 L 595.429688 246.222656 L 593.976562 244.558594 L 592.589844 242.875 L 591.402344 241.050781 L 590.585938 239.050781 L 590.261719 236.90625 L 590.375 235.324219 L 590.910156 233.347656 L 591.851562 231.359375 L 593.144531 229.398438 L 594.691406 227.511719 L 596.394531 225.703125 L 598.148438 223.945312 L 599.953125 222.242188 L 601.859375 220.710938 L 603.882812 219.480469 L 605.992188 218.652344 L 608.144531 218.300781 L 608.546875 218.292969 L 610.800781 218.574219 L 613.015625 219.382812 L 615.136719 220.644531 L 617.136719 222.234375 L 619.019531 224.019531 L 620.863281 225.863281 L 622.753906 227.761719 L 624.714844 229.75 L 626.71875 231.808594 L 628.71875 233.890625 L 630.078125 235.324219 L 632.148438 237.542969 L 634.074219 239.648438 L 635.824219 241.597656 L 637.394531 243.375 L 638.84375 245.039062 L 640.230469 246.722656 L 641.414062 248.546875 L 642.230469 250.546875 L 642.554688 252.691406 L 642.441406 254.269531 L 641.910156 256.246094 L 640.964844 258.238281 L 639.671875 260.195312 L 638.125 262.085938 L 636.421875 263.890625 L 634.667969 265.648438 L 632.863281 267.355469 L 630.957031 268.882812 L 628.933594 270.113281 L 626.828125 270.941406 L 624.675781 271.292969 Z M 624.273438 271.300781 "/>
<path style=" stroke:none;fill-rule:nonzero;fill:rgb(95.686275%,95.686275%,95.686275%);fill-opacity:1;" d="M 126.011719 321.332031 L 123.570312 321.035156 L 121.171875 320.175781 L 118.863281 318.835938 L 116.6875 317.132812 L 114.632812 315.214844 L 112.640625 313.222656 L 110.671875 311.171875 L 108.789062 309.007812 L 107.078125 306.742188 L 105.628906 304.410156 L 104.554688 302.191406 L 103.699219 299.597656 L 103.292969 297.097656 L 103.28125 294.746094 L 103.570312 292.570312 L 104.019531 290.519531 L 104.527344 288.457031 L 105.191406 286.265625 L 106.097656 283.929688 L 107.273438 281.492188 L 108.375 279.570312 L 109.886719 277.285156 L 111.578125 275.046875 L 113.390625 272.90625 L 115.25 270.894531 L 117.109375 268.996094 L 118.972656 267.152344 L 120.914062 265.410156 L 122.980469 263.921875 L 125.164062 262.824219 L 127.417969 262.226562 L 128.699219 262.136719 L 130.992188 262.425781 L 133.238281 263.265625 L 135.390625 264.566406 L 137.414062 266.207031 L 139.320312 268.027344 L 141.191406 269.90625 L 143.042969 271.871094 L 144.828125 273.96875 L 146.460938 276.183594 L 147.875 278.46875 L 148.453125 279.570312 L 149.507812 282.058594 L 150.214844 284.496094 L 150.605469 286.816406 L 150.742188 288.984375 L 150.742188 291.042969 L 150.679688 293.128906 L 150.425781 295.367188 L 149.863281 297.78125 L 148.933594 300.335938 L 148.042969 302.191406 L 146.679688 304.519531 L 145.058594 306.832031 L 143.246094 309.078125 L 141.320312 311.222656 L 139.351562 313.253906 L 137.371094 315.234375 L 135.332031 317.136719 L 133.171875 318.828125 L 130.886719 320.164062 L 128.503906 321.023438 L 126.078125 321.332031 Z M 126.011719 321.332031 "/>
<path style=" stroke:none;fill-rule:nonzero;fill:rgb(95.686275%,95.686275%,95.686275%);fill-opacity:1;" d="M 550.597656 556.871094 L 548.105469 556.847656 L 545.777344 556.382812 L 543.636719 555.511719 L 541.699219 554.320312 L 539.953125 552.890625 L 538.339844 551.339844 L 536.769531 549.75 L 535.292969 548.0625 L 534.019531 546.210938 L 533.054688 544.167969 L 532.484375 541.941406 L 532.363281 539.558594 L 532.429688 538.703125 L 532.917969 536.269531 L 533.820312 533.761719 L 535.09375 531.222656 L 536.664062 528.707031 L 538.449219 526.246094 L 540.355469 523.847656 L 542.300781 521.476562 L 544.296875 519.058594 L 546.398438 516.542969 L 548.621094 513.921875 L 550.949219 511.222656 L 553.351562 508.492188 L 555.621094 505.960938 L 558.132812 503.210938 L 560.628906 500.535156 L 563.058594 497.980469 L 565.394531 495.570312 L 567.617188 493.316406 L 569.742188 491.183594 L 571.839844 489.097656 L 574 487.089844 L 576.277344 485.28125 L 578.675781 483.789062 L 581.171875 482.710938 L 583.722656 482.121094 L 585.265625 482.023438 L 587.800781 482.285156 L 590.304688 483.0625 L 592.742188 484.289062 L 595.070312 485.890625 L 597.277344 487.757812 L 599.386719 489.78125 L 601.449219 491.851562 L 603.441406 493.980469 L 605.253906 496.21875 L 606.769531 498.574219 L 607.894531 501.03125 L 608.542969 503.546875 L 608.691406 505.449219 L 608.421875 508.015625 L 607.628906 510.550781 L 606.371094 513.011719 L 604.738281 515.363281 L 602.835938 517.59375 L 600.785156 519.71875 L 598.683594 521.816406 L 596.503906 523.972656 L 594.175781 526.226562 L 591.679688 528.582031 L 589.03125 531.007812 L 586.269531 533.464844 L 584.582031 534.925781 L 581.796875 537.28125 L 578.992188 539.585938 L 576.214844 541.800781 L 573.507812 543.90625 L 570.902344 545.886719 L 568.390625 547.765625 L 565.921875 549.59375 L 563.421875 551.382812 L 560.863281 553.046875 L 558.253906 554.5 L 555.632812 555.664062 L 553.050781 556.46875 Z M 550.597656 556.871094 "/>
<path style=" stroke:none;fill-rule:nonzero;fill:rgb(95.686275%,95.686275%,95.686275%);fill-opacity:1;" d="M 154.089844 501.167969 L 151.824219 500.882812 L 149.601562 500.058594 L 147.472656 498.78125 L 145.46875 497.167969 L 143.578125 495.371094 L 141.726562 493.515625 L 139.855469 491.585938 L 137.980469 489.542969 L 136.148438 487.402344 L 134.433594 485.203125 L 133.515625 483.9375 L 131.929688 481.519531 L 130.589844 479.179688 L 129.507812 476.976562 L 128.640625 474.933594 L 127.898438 473 L 127.222656 471.03125 L 126.757812 468.917969 L 126.640625 466.640625 L 126.953125 464.253906 L 127.339844 462.882812 L 128.292969 460.621094 L 129.617188 458.382812 L 131.226562 456.226562 L 133.027344 454.1875 L 134.910156 452.25 L 136.828125 450.363281 L 138.832031 448.601562 L 140.972656 447.121094 L 143.226562 446.074219 L 145.546875 445.5625 L 146.398438 445.523438 L 148.679688 445.808594 L 150.914062 446.632812 L 153.054688 447.914062 L 155.074219 449.53125 L 156.972656 451.339844 L 158.835938 453.203125 L 160.714844 455.136719 L 162.59375 457.183594 L 164.421875 459.332031 L 166.136719 461.535156 L 167.105469 462.882812 L 168.679688 465.3125 L 169.996094 467.664062 L 171.050781 469.875 L 171.882812 471.917969 L 172.589844 473.855469 L 173.230469 475.828125 L 173.660156 477.945312 L 173.746094 480.222656 L 173.40625 482.609375 L 173.023438 483.9375 L 172.058594 486.195312 L 170.730469 488.425781 L 169.117188 490.574219 L 167.324219 492.605469 L 165.449219 494.53125 L 163.542969 496.40625 L 161.542969 498.15625 L 159.410156 499.617188 L 157.164062 500.644531 L 154.851562 501.136719 Z M 154.089844 501.167969 "/>
<path style=" stroke:none;fill-rule:nonzero;fill:rgb(95.686275%,95.686275%,95.686275%);fill-opacity:1;" d="M 224.113281 371.652344 L 221.804688 371.359375 L 219.542969 370.507812 L 217.375 369.191406 L 215.339844 367.539062 L 213.421875 365.699219 L 211.542969 363.804688 L 209.695312 361.824219 L 207.964844 359.707031 L 206.429688 357.46875 L 205.183594 355.15625 L 204.753906 354.164062 L 203.957031 351.671875 L 203.5625 349.226562 L 203.519531 346.902344 L 203.746094 344.722656 L 204.117188 342.652344 L 204.542969 340.566406 L 205.136719 338.34375 L 205.984375 335.976562 L 207.121094 333.5 L 208.160156 331.621094 L 209.644531 329.324219 L 211.320312 327.066406 L 213.132812 324.902344 L 215.003906 322.863281 L 216.882812 320.941406 L 218.765625 319.074219 L 220.722656 317.300781 L 222.808594 315.777344 L 225.007812 314.636719 L 227.285156 313.992188 L 228.777344 313.871094 L 231.109375 314.164062 L 233.394531 315.015625 L 235.585938 316.339844 L 237.644531 318.003906 L 239.585938 319.859375 L 241.488281 321.769531 L 243.351562 323.765625 L 245.101562 325.894531 L 246.644531 328.136719 L 247.898438 330.453125 L 248.398438 331.621094 L 249.164062 334.128906 L 249.515625 336.582031 L 249.5 338.910156 L 249.207031 341.089844 L 248.769531 343.15625 L 248.273438 345.238281 L 247.617188 347.449219 L 246.71875 349.804688 L 245.546875 352.261719 L 244.46875 354.164062 L 242.960938 356.457031 L 241.269531 358.703125 L 239.460938 360.847656 L 237.601562 362.867188 L 235.738281 364.765625 L 233.875 366.613281 L 231.929688 368.359375 L 229.863281 369.851562 L 227.679688 370.953125 L 225.421875 371.558594 Z M 224.113281 371.652344 "/>
<path style=" stroke:none;fill-rule:nonzero;fill:rgb(95.686275%,95.686275%,95.686275%);fill-opacity:1;" d="M 289.035156 150.351562 L 286.71875 150.667969 L 284.496094 150.476562 L 282.421875 149.855469 L 280.511719 148.929688 L 278.710938 147.859375 L 276.878906 146.726562 L 274.894531 145.417969 L 272.726562 143.886719 L 270.410156 142.121094 L 268.921875 140.921875 L 266.769531 139.101562 L 264.609375 137.175781 L 262.488281 135.203125 L 260.453125 133.242188 L 258.507812 131.316406 L 256.613281 129.414062 L 254.792969 127.449219 L 253.195312 125.363281 L 251.949219 123.15625 L 251.175781 120.863281 L 250.945312 118.753906 L 251.199219 116.542969 L 251.941406 114.367188 L 253.109375 112.269531 L 254.605469 110.277344 L 256.3125 108.402344 L 258.105469 106.59375 L 259.933594 104.8125 L 261.839844 103.136719 L 263.824219 101.660156 L 265.867188 100.472656 L 267.921875 99.648438 L 268.921875 99.386719 L 271.261719 99.175781 L 273.492188 99.507812 L 275.5625 100.300781 L 277.457031 101.421875 L 279.226562 102.703125 L 281.015625 104.042969 L 282.929688 105.523438 L 285.007812 107.191406 L 287.21875 109.039062 L 289.035156 110.613281 L 291.164062 112.519531 L 293.28125 114.484375 L 295.34375 116.449219 L 297.3125 118.375 L 299.183594 120.234375 L 301.011719 122.074219 L 302.742188 123.984375 L 304.238281 126.019531 L 305.355469 128.171875 L 305.992188 130.394531 L 306.117188 131.886719 L 305.8125 134.222656 L 304.9375 136.515625 L 303.585938 138.707031 L 301.890625 140.761719 L 300.019531 142.703125 L 298.097656 144.601562 L 296.089844 146.414062 L 293.972656 148.03125 L 291.777344 149.324219 L 289.5625 150.210938 Z M 289.035156 150.351562 "/>
<path style=" stroke:none;fill-rule:nonzero;fill:rgb(95.686275%,95.686275%,95.686275%);fill-opacity:1;" d="M 353.867188 175.683594 L 351.433594 176.25 L 349.074219 176.363281 L 346.84375 176.082031 L 344.773438 175.511719 L 342.8125 174.796875 L 340.824219 174.023438 L 338.695312 173.085938 L 336.414062 171.910156 L 334.023438 170.484375 L 332.480469 169.457031 L 330.257812 167.828125 L 328.066406 166.054688 L 325.957031 164.199219 L 323.960938 162.324219 L 322.074219 160.464844 L 320.238281 158.609375 L 318.5 156.679688 L 317.015625 154.625 L 315.921875 152.449219 L 315.320312 150.207031 L 315.226562 148.902344 L 315.523438 146.585938 L 316.382812 144.3125 L 317.714844 142.140625 L 319.386719 140.101562 L 321.238281 138.175781 L 323.140625 136.292969 L 325.132812 134.464844 L 327.25 132.785156 L 329.472656 131.367188 L 331.746094 130.289062 L 332.480469 130.023438 L 334.910156 129.449219 L 337.269531 129.324219 L 339.5 129.59375 L 341.570312 130.152344 L 343.535156 130.847656 L 345.523438 131.609375 L 347.65625 132.535156 L 349.941406 133.699219 L 352.339844 135.117188 L 353.867188 136.128906 L 356.089844 137.753906 L 358.285156 139.523438 L 360.402344 141.378906 L 362.398438 143.257812 L 364.289062 145.121094 L 366.132812 146.980469 L 367.875 148.914062 L 369.367188 150.972656 L 370.472656 153.152344 L 371.082031 155.402344 L 371.183594 156.746094 L 370.886719 159.066406 L 370.023438 161.34375 L 368.691406 163.523438 L 367.015625 165.566406 L 365.160156 167.5 L 363.253906 169.386719 L 361.257812 171.222656 L 359.140625 172.902344 L 356.917969 174.324219 L 354.644531 175.40625 Z M 353.867188 175.683594 "/>
<path style=" stroke:none;fill-rule:nonzero;fill:rgb(95.686275%,95.686275%,95.686275%);fill-opacity:1;" d="M 201.898438 254.011719 L 199.375 255.136719 L 196.980469 255.867188 L 194.753906 256.230469 L 192.71875 256.285156 L 190.84375 256.128906 L 189.042969 255.886719 L 187.171875 255.5625 L 185.136719 255.039062 L 182.914062 254.238281 L 180.519531 253.113281 L 177.996094 251.660156 L 177.972656 251.644531 L 175.597656 250.042969 L 173.1875 248.210938 L 170.789062 246.199219 L 168.445312 244.078125 L 166.183594 241.90625 L 163.988281 239.726562 L 161.828125 237.535156 L 159.792969 235.25 L 158.011719 232.835938 L 156.613281 230.296875 L 155.699219 227.667969 L 155.34375 225 L 155.339844 224.714844 L 155.636719 222.027344 L 156.503906 219.375 L 157.875 216.808594 L 159.640625 214.367188 L 161.679688 212.058594 L 163.847656 209.84375 L 166.054688 207.65625 L 168.328125 205.496094 L 170.683594 203.421875 L 173.101562 201.511719 L 175.527344 199.835938 L 177.917969 198.453125 L 177.972656 198.429688 L 180.496094 197.304688 L 182.890625 196.570312 L 185.117188 196.207031 L 187.152344 196.152344 L 189.027344 196.308594 L 190.828125 196.550781 L 192.699219 196.875 L 194.734375 197.398438 L 196.957031 198.199219 L 199.351562 199.324219 L 201.875 200.777344 L 201.898438 200.792969 L 204.273438 202.394531 L 206.683594 204.230469 L 209.085938 206.238281 L 211.425781 208.363281 L 213.6875 210.53125 L 215.882812 212.710938 L 218.042969 214.90625 L 220.078125 217.1875 L 221.863281 219.601562 L 223.261719 222.140625 L 224.171875 224.769531 L 224.527344 227.4375 L 224.53125 227.722656 L 224.234375 230.410156 L 223.367188 233.0625 L 221.996094 235.628906 L 220.230469 238.070312 L 218.191406 240.382812 L 216.023438 242.59375 L 213.816406 244.785156 L 211.542969 246.945312 L 209.1875 249.015625 L 206.773438 250.929688 L 204.34375 252.605469 L 201.953125 253.984375 Z M 201.898438 254.011719 "/>
<path style="fill:none;stroke-width:0.75;stroke-linecap:round;stroke-linejoin:round;stroke:rgb(66.27451%,66.27451%,66.27451%);stroke-opacity:1;stroke-miterlimit:10;" d="M 525.839844 498.328125 L 533.328125 491.496094 "/>
<path style="fill:none;stroke-width:0.75;stroke-linecap:round;stroke-linejoin:round;stroke:rgb(66.27451%,66.27451%,66.27451%);stroke-opacity:1;stroke-miterlimit:10;" d="M 270.511719 303 L 268.503906 287.039062 "/>
<path style="fill:none;stroke-width:0.75;stroke-linecap:round;stroke-linejoin:round;stroke:rgb(66.27451%,66.27451%,66.27451%);stroke-opacity:1;stroke-miterlimit:10;" d="M 431.277344 587.648438 L 428.675781 604.25 "/>
<path style="fill:none;stroke-width:0.75;stroke-linecap:round;stroke-linejoin:round;stroke:rgb(66.27451%,66.27451%,66.27451%);stroke-opacity:1;stroke-miterlimit:10;" d="M 430.125 582.558594 L 420.066406 567.867188 "/>
<path style="fill:none;stroke-width:0.75;stroke-linecap:round;stroke-linejoin:round;stroke:rgb(66.27451%,66.27451%,66.27451%);stroke-opacity:1;stroke-miterlimit:10;" d="M 267.363281 172.1875 L 255.558594 168.035156 "/>
<path style="fill:none;stroke-width:0.75;stroke-linecap:round;stroke-linejoin:round;stroke:rgb(66.27451%,66.27451%,66.27451%);stroke-opacity:1;stroke-miterlimit:10;" d="M 315.257812 483.46875 L 311.636719 497.605469 "/>
<path style="fill:none;stroke-width:0.75;stroke-linecap:round;stroke-linejoin:round;stroke:rgb(66.27451%,66.27451%,66.27451%);stroke-opacity:1;stroke-miterlimit:10;" d="M 619.292969 316.605469 L 607.390625 324.742188 "/>
<path style="fill:none;stroke-width:0.75;stroke-linecap:round;stroke-linejoin:round;stroke:rgb(66.27451%,66.27451%,66.27451%);stroke-opacity:1;stroke-miterlimit:10;" d="M 614.1875 396.589844 L 631.066406 407.441406 "/>
<path style="fill:none;stroke-width:0.75;stroke-linecap:round;stroke-linejoin:round;stroke:rgb(66.27451%,66.27451%,66.27451%);stroke-opacity:1;stroke-miterlimit:10;" d="M 610.953125 392.21875 L 604.492188 369.222656 "/>
<path style="fill:none;stroke-width:0.75;stroke-linecap:round;stroke-linejoin:round;stroke:rgb(66.27451%,66.27451%,66.27451%);stroke-opacity:1;stroke-miterlimit:10;" d="M 609.777344 397.164062 L 600.710938 407.054688 "/>
<path style="fill:none;stroke-width:0.75;stroke-linecap:round;stroke-linejoin:round;stroke:rgb(66.27451%,66.27451%,66.27451%);stroke-opacity:1;stroke-miterlimit:10;" d="M 494.253906 160.722656 L 508.417969 146.492188 "/>
<path style="fill:none;stroke-width:0.75;stroke-linecap:round;stroke-linejoin:round;stroke:rgb(66.27451%,66.27451%,66.27451%);stroke-opacity:1;stroke-miterlimit:10;" d="M 491.222656 165.039062 L 485.34375 177.464844 "/>
<path style="fill:none;stroke-width:0.75;stroke-linecap:round;stroke-linejoin:round;stroke:rgb(66.27451%,66.27451%,66.27451%);stroke-opacity:1;stroke-miterlimit:10;" d="M 332.394531 606.527344 L 327.054688 590.667969 "/>
<path style="fill:none;stroke-width:0.75;stroke-linecap:round;stroke-linejoin:round;stroke:rgb(66.27451%,66.27451%,66.27451%);stroke-opacity:1;stroke-miterlimit:10;" d="M 603.183594 363.691406 L 599.03125 342.1875 "/>
<path style="fill:none;stroke-width:0.75;stroke-linecap:round;stroke-linejoin:round;stroke:rgb(66.27451%,66.27451%,66.27451%);stroke-opacity:1;stroke-miterlimit:10;" d="M 393.058594 102.289062 L 399.136719 118.746094 "/>
<path style="fill:none;stroke-width:0.75;stroke-linecap:round;stroke-linejoin:round;stroke:rgb(66.27451%,66.27451%,66.27451%);stroke-opacity:1;stroke-miterlimit:10;" d="M 389.019531 98.777344 L 372.023438 95.0625 "/>
<path style="fill:none;stroke-width:0.75;stroke-linecap:round;stroke-linejoin:round;stroke:rgb(66.27451%,66.27451%,66.27451%);stroke-opacity:1;stroke-miterlimit:10;" d="M 246.457031 479.402344 L 258.007812 491.011719 "/>
<path style="fill:none;stroke-width:0.75;stroke-linecap:round;stroke-linejoin:round;stroke:rgb(66.27451%,66.27451%,66.27451%);stroke-opacity:1;stroke-miterlimit:10;" d="M 176.816406 320.121094 L 175.753906 317.007812 "/>
<path style="fill:none;stroke-width:0.75;stroke-linecap:round;stroke-linejoin:round;stroke:rgb(66.27451%,66.27451%,66.27451%);stroke-opacity:1;stroke-miterlimit:10;" d="M 607.390625 335.34375 L 625.007812 341.332031 "/>
<path style="fill:none;stroke-width:0.75;stroke-linecap:round;stroke-linejoin:round;stroke:rgb(66.27451%,66.27451%,66.27451%);stroke-opacity:1;stroke-miterlimit:10;" d="M 586.664062 327.78125 L 569.320312 321.015625 "/>
<path style="fill:none;stroke-width:0.75;stroke-linecap:round;stroke-linejoin:round;stroke:rgb(66.27451%,66.27451%,66.27451%);stroke-opacity:1;stroke-miterlimit:10;" d="M 595.597656 321.460938 L 593.078125 303.21875 "/>
<path style="fill:none;stroke-width:0.75;stroke-linecap:round;stroke-linejoin:round;stroke:rgb(66.27451%,66.27451%,66.27451%);stroke-opacity:1;stroke-miterlimit:10;" d="M 586.664062 339.402344 L 574.28125 348.460938 "/>
<path style="fill:none;stroke-width:0.75;stroke-linecap:round;stroke-linejoin:round;stroke:rgb(66.27451%,66.27451%,66.27451%);stroke-opacity:1;stroke-miterlimit:10;" d="M 459.785156 426.289062 L 477.410156 421.785156 "/>
<path style="fill:none;stroke-width:0.75;stroke-linecap:round;stroke-linejoin:round;stroke:rgb(66.27451%,66.27451%,66.27451%);stroke-opacity:1;stroke-miterlimit:10;" d="M 453.457031 427.285156 L 435.011719 428.425781 "/>
<path style="fill:none;stroke-width:0.75;stroke-linecap:round;stroke-linejoin:round;stroke:rgb(66.27451%,66.27451%,66.27451%);stroke-opacity:1;stroke-miterlimit:10;" d="M 153.238281 366.21875 L 160.019531 380.109375 "/>
<path style="fill:none;stroke-width:0.75;stroke-linecap:round;stroke-linejoin:round;stroke:rgb(66.27451%,66.27451%,66.27451%);stroke-opacity:1;stroke-miterlimit:10;" d="M 347.269531 96.148438 L 363.078125 94.550781 "/>
<path style="fill:none;stroke-width:0.75;stroke-linecap:round;stroke-linejoin:round;stroke:rgb(66.27451%,66.27451%,66.27451%);stroke-opacity:1;stroke-miterlimit:10;" d="M 610.386719 237.882812 L 622.4375 251.71875 "/>
<path style="fill:none;stroke-width:0.75;stroke-linecap:round;stroke-linejoin:round;stroke:rgb(66.27451%,66.27451%,66.27451%);stroke-opacity:1;stroke-miterlimit:10;" d="M 128.378906 282.226562 L 126.632812 296.773438 "/>
<path style="fill:none;stroke-width:0.75;stroke-linecap:round;stroke-linejoin:round;stroke:rgb(66.27451%,66.27451%,66.27451%);stroke-opacity:1;stroke-miterlimit:10;" d="M 566.320312 525.113281 L 551.074219 538.324219 "/>
<path style="fill:none;stroke-width:0.75;stroke-linecap:round;stroke-linejoin:round;stroke:rgb(66.27451%,66.27451%,66.27451%);stroke-opacity:1;stroke-miterlimit:10;" d="M 570.417969 521.183594 L 575.488281 515.8125 "/>
<path style="fill:none;stroke-width:0.75;stroke-linecap:round;stroke-linejoin:round;stroke:rgb(66.27451%,66.27451%,66.27451%);stroke-opacity:1;stroke-miterlimit:10;" d="M 153.164062 481.296875 L 147.390625 465.722656 "/>
<path style="fill:none;stroke-width:0.75;stroke-linecap:round;stroke-linejoin:round;stroke:rgb(66.27451%,66.27451%,66.27451%);stroke-opacity:1;stroke-miterlimit:10;" d="M 228.140625 334.699219 L 224.667969 351.507812 "/>
<path style="fill:none;stroke-width:0.75;stroke-linecap:round;stroke-linejoin:round;stroke:rgb(66.27451%,66.27451%,66.27451%);stroke-opacity:1;stroke-miterlimit:10;" d="M 553.074219 160.136719 L 540.070312 151.042969 "/>
<path style="fill:none;stroke-width:0.75;stroke-linecap:round;stroke-linejoin:round;stroke:rgb(66.27451%,66.27451%,66.27451%);stroke-opacity:1;stroke-miterlimit:10;" d="M 513.042969 144.886719 L 528.941406 146.796875 "/>
<path style="fill:none;stroke-width:0.75;stroke-linecap:round;stroke-linejoin:round;stroke:rgb(66.27451%,66.27451%,66.27451%);stroke-opacity:1;stroke-miterlimit:10;" d="M 272.648438 120.984375 L 286.546875 130.394531 "/>
<path style="fill:none;stroke-width:0.75;stroke-linecap:round;stroke-linejoin:round;stroke:rgb(66.27451%,66.27451%,66.27451%);stroke-opacity:1;stroke-miterlimit:10;" d="M 335.046875 149.816406 L 351.207031 155.800781 "/>
<path style="fill:none;stroke-width:0.75;stroke-linecap:round;stroke-linejoin:round;stroke:rgb(66.27451%,66.27451%,66.27451%);stroke-opacity:1;stroke-miterlimit:10;" d="M 590.742188 294.507812 L 583.386719 276.480469 "/>
<path style="fill:none;stroke-width:0.75;stroke-linecap:round;stroke-linejoin:round;stroke:rgb(66.27451%,66.27451%,66.27451%);stroke-opacity:1;stroke-miterlimit:10;" d="M 190.742188 226.328125 L 189.128906 226.109375 "/>
<path style=" stroke:none;fill-rule:nonzero;fill:rgb(3.137255%,81.960784%,81.960784%);fill-opacity:1;" d="M 526.582031 500.238281 C 526.582031 504.007812 520.921875 504.007812 520.921875 500.238281 C 520.921875 496.464844 526.582031 496.464844 526.582031 500.238281 "/>
<path style=" stroke:none;fill-rule:nonzero;fill:rgb(3.137255%,81.960784%,81.960784%);fill-opacity:1;" d="M 369.984375 573.996094 C 369.984375 578.421875 363.347656 578.421875 363.347656 573.996094 C 363.347656 569.570312 369.984375 569.570312 369.984375 573.996094 "/>
<path style=" stroke:none;fill-rule:nonzero;fill:rgb(3.137255%,81.960784%,81.960784%);fill-opacity:1;" d="M 275.632812 307.519531 C 275.632812 313.589844 266.523438 313.589844 266.523438 307.519531 C 266.523438 301.445312 275.632812 301.445312 275.632812 307.519531 "/>
<path style=" stroke:none;fill-rule:nonzero;fill:rgb(3.137255%,81.960784%,81.960784%);fill-opacity:1;" d="M 530.859375 390.929688 C 530.859375 394.425781 525.613281 394.425781 525.613281 390.929688 C 525.613281 387.433594 530.859375 387.433594 530.859375 390.929688 "/>
<path style=" stroke:none;fill-rule:nonzero;fill:rgb(3.137255%,81.960784%,81.960784%);fill-opacity:1;" d="M 434.519531 584.875 C 434.519531 588.617188 428.90625 588.617188 428.90625 584.875 C 428.90625 581.132812 434.519531 581.132812 434.519531 584.875 "/>
<path style=" stroke:none;fill-rule:nonzero;fill:rgb(3.137255%,81.960784%,81.960784%);fill-opacity:1;" d="M 280.335938 174.402344 C 280.335938 178.089844 277.347656 181.078125 273.660156 181.078125 C 269.976562 181.078125 266.988281 178.089844 266.988281 174.402344 C 266.988281 170.714844 269.976562 167.726562 273.660156 167.726562 C 277.347656 167.726562 280.335938 170.714844 280.335938 174.402344 "/>
<path style=" stroke:none;fill-rule:nonzero;fill:rgb(3.137255%,81.960784%,81.960784%);fill-opacity:1;" d="M 289.722656 341.625 L 310.445312 341.625 L 310.445312 362.347656 L 289.722656 362.347656 Z M 289.722656 341.625 "/>
<path style=" stroke:none;fill-rule:nonzero;fill:rgb(3.137255%,81.960784%,81.960784%);fill-opacity:1;" d="M 319.046875 480.53125 C 319.046875 484.574219 312.980469 484.574219 312.980469 480.53125 C 312.980469 476.488281 319.046875 476.488281 319.046875 480.53125 "/>
<path style=" stroke:none;fill-rule:nonzero;fill:rgb(3.137255%,81.960784%,81.960784%);fill-opacity:1;" d="M 629.925781 313.320312 C 629.925781 316.535156 627.316406 319.144531 624.101562 319.144531 C 620.882812 319.144531 618.273438 316.535156 618.273438 313.320312 C 618.273438 310.101562 620.882812 307.492188 624.101562 307.492188 C 627.316406 307.492188 629.925781 310.101562 629.925781 313.320312 "/>
<path style=" stroke:none;fill-rule:nonzero;fill:rgb(3.137255%,81.960784%,81.960784%);fill-opacity:1;" d="M 614.648438 395.015625 C 614.648438 398.894531 608.832031 398.894531 608.832031 395.015625 C 608.832031 391.140625 614.648438 391.140625 614.648438 395.015625 "/>
<path style=" stroke:none;fill-rule:nonzero;fill:rgb(3.137255%,81.960784%,81.960784%);fill-opacity:1;" d="M 170.816406 188.207031 C 170.816406 192.417969 164.503906 192.417969 164.503906 188.207031 C 164.503906 184 170.816406 184 170.816406 188.207031 "/>
<path style=" stroke:none;fill-rule:nonzero;fill:rgb(3.137255%,81.960784%,81.960784%);fill-opacity:1;" d="M 389.027344 433.003906 C 389.027344 436.539062 383.726562 436.539062 383.726562 433.003906 C 383.726562 429.472656 389.027344 429.472656 389.027344 433.003906 "/>
<path style=" stroke:none;fill-rule:nonzero;fill:rgb(3.137255%,81.960784%,81.960784%);fill-opacity:1;" d="M 368.363281 287.476562 C 368.363281 290.992188 363.089844 290.992188 363.089844 287.476562 C 363.089844 283.957031 368.363281 283.957031 368.363281 287.476562 "/>
<path style=" stroke:none;fill-rule:nonzero;fill:rgb(3.137255%,81.960784%,81.960784%);fill-opacity:1;" d="M 495.042969 162.621094 C 495.042969 166.1875 489.691406 166.1875 489.691406 162.621094 C 489.691406 159.054688 495.042969 159.054688 495.042969 162.621094 "/>
<path style=" stroke:none;fill-rule:nonzero;fill:rgb(3.137255%,81.960784%,81.960784%);fill-opacity:1;" d="M 619.335938 461.46875 C 619.335938 465.003906 614.03125 465.003906 614.03125 461.46875 C 614.03125 457.929688 619.335938 457.929688 619.335938 461.46875 "/>
<path style=" stroke:none;fill-rule:nonzero;fill:rgb(3.137255%,81.960784%,81.960784%);fill-opacity:1;" d="M 218.707031 558.132812 C 218.707031 562.140625 212.691406 562.140625 212.691406 558.132812 C 212.691406 554.121094 218.707031 554.121094 218.707031 558.132812 "/>
<path style=" stroke:none;fill-rule:nonzero;fill:rgb(3.137255%,81.960784%,81.960784%);fill-opacity:1;" d="M 592.601562 196.484375 C 592.601562 199.953125 587.398438 199.953125 587.398438 196.484375 C 587.398438 193.015625 592.601562 193.015625 592.601562 196.484375 "/>
<path style=" stroke:none;fill-rule:nonzero;fill:rgb(3.137255%,81.960784%,81.960784%);fill-opacity:1;" d="M 636.277344 408.972656 C 636.277344 412.746094 630.617188 412.746094 630.617188 408.972656 C 630.617188 405.195312 636.277344 405.195312 636.277344 408.972656 "/>
<path style=" stroke:none;fill-rule:nonzero;fill:rgb(74.901961%,43.921569%,13.333333%);fill-opacity:1;" d="M 335.96875 609.09375 C 335.96875 612.703125 330.550781 612.703125 330.550781 609.09375 C 330.550781 605.484375 335.96875 605.484375 335.96875 609.09375 "/>
<path style=" stroke:none;fill-rule:nonzero;fill:rgb(18.039216%,73.72549%,50.980392%);fill-opacity:1;" d="M 606.566406 366.484375 C 606.566406 370.273438 600.882812 370.273438 600.882812 366.484375 C 600.882812 362.691406 606.566406 362.691406 606.566406 366.484375 "/>
<path style=" stroke:none;fill-rule:nonzero;fill:rgb(18.039216%,56.862745%,73.72549%);fill-opacity:1;" d="M 297.699219 210.660156 C 297.699219 214.15625 294.863281 216.992188 291.367188 216.992188 C 287.871094 216.992188 285.035156 214.15625 285.035156 210.660156 C 285.035156 207.164062 287.871094 204.328125 291.367188 204.328125 C 294.863281 204.328125 297.699219 207.164062 297.699219 210.660156 "/>
<path style=" stroke:none;fill-rule:nonzero;fill:rgb(18.039216%,35.294118%,73.72549%);fill-opacity:1;" d="M 395.050781 99.429688 C 395.050781 103.496094 388.949219 103.496094 388.949219 99.429688 C 388.949219 95.359375 395.050781 95.359375 395.050781 99.429688 "/>
<path style=" stroke:none;fill-rule:nonzero;fill:rgb(18.039216%,35.294118%,73.72549%);fill-opacity:1;" d="M 247.363281 477.222656 C 247.363281 481.320312 241.214844 481.320312 241.214844 477.222656 C 241.214844 473.125 247.363281 473.125 247.363281 477.222656 "/>
<path style=" stroke:none;fill-rule:nonzero;fill:rgb(18.039216%,35.294118%,73.72549%);fill-opacity:1;" d="M 169.992188 320.121094 L 190.714844 320.121094 L 190.714844 340.84375 L 169.992188 340.84375 Z M 169.992188 320.121094 "/>
<path style=" stroke:none;fill-rule:nonzero;fill:rgb(18.039216%,35.294118%,73.72549%);fill-opacity:1;" d="M 586.664062 321.460938 L 607.386719 321.460938 L 607.386719 342.183594 L 586.664062 342.183594 Z M 586.664062 321.460938 "/>
<path style=" stroke:none;fill-rule:nonzero;fill:rgb(18.039216%,35.294118%,73.72549%);fill-opacity:1;" d="M 119.1875 386.332031 C 119.1875 390.457031 113 390.457031 113 386.332031 C 113 382.203125 119.1875 382.203125 119.1875 386.332031 "/>
<path style=" stroke:none;fill-rule:nonzero;fill:rgb(18.039216%,35.294118%,73.72549%);fill-opacity:1;" d="M 199.777344 489.769531 C 199.777344 492.960938 197.1875 495.546875 194 495.546875 C 190.808594 495.546875 188.222656 492.960938 188.222656 489.769531 C 188.222656 486.582031 190.808594 483.992188 194 483.992188 C 197.1875 483.992188 199.777344 486.582031 199.777344 489.769531 "/>
<path style=" stroke:none;fill-rule:nonzero;fill:rgb(18.039216%,35.294118%,73.72549%);fill-opacity:1;" d="M 209.183594 449.964844 C 209.183594 453.460938 203.9375 453.460938 203.9375 449.964844 C 203.9375 446.46875 209.183594 446.46875 209.183594 449.964844 "/>
<path style=" stroke:none;fill-rule:nonzero;fill:rgb(18.039216%,35.294118%,73.72549%);fill-opacity:1;" d="M 308.199219 95.851562 C 308.199219 99.351562 302.945312 99.351562 302.945312 95.851562 C 302.945312 92.347656 308.199219 92.347656 308.199219 95.851562 "/>
<path style=" stroke:none;fill-rule:nonzero;fill:rgb(3.529412%,80.784314%,55.294118%);fill-opacity:1;" d="M 345.171875 409.378906 C 345.171875 412.871094 339.929688 412.871094 339.929688 409.378906 C 339.929688 405.886719 345.171875 405.886719 345.171875 409.378906 "/>
<path style=" stroke:none;fill-rule:nonzero;fill:rgb(3.529412%,44.705882%,39.607843%);fill-opacity:1;" d="M 459.882812 427.085938 C 459.882812 431.375 453.453125 431.375 453.453125 427.085938 C 453.453125 422.800781 459.882812 422.800781 459.882812 427.085938 "/>
<path style=" stroke:none;fill-rule:nonzero;fill:rgb(3.529412%,44.705882%,39.607843%);fill-opacity:1;" d="M 154.890625 363.578125 C 154.890625 367.5 149.007812 367.5 149.007812 363.578125 C 149.007812 359.65625 154.890625 359.65625 154.890625 363.578125 "/>
<path style=" stroke:none;fill-rule:nonzero;fill:rgb(3.529412%,44.705882%,39.607843%);fill-opacity:1;" d="M 520.644531 568.007812 C 520.644531 571.53125 515.363281 571.53125 515.363281 568.007812 C 515.363281 564.484375 520.644531 564.484375 520.644531 568.007812 "/>
<path style=" stroke:none;fill-rule:nonzero;fill:rgb(3.529412%,44.705882%,39.607843%);fill-opacity:1;" d="M 347.285156 96.484375 C 347.285156 100.925781 340.625 100.925781 340.625 96.484375 C 340.625 92.046875 347.285156 92.046875 347.285156 96.484375 "/>
<path style=" stroke:none;fill-rule:nonzero;fill:rgb(67.058824%,33.72549%,84.705882%);fill-opacity:1;" d="M 402.808594 121.304688 C 402.808594 124.9375 397.355469 124.9375 397.355469 121.304688 C 397.355469 117.667969 402.808594 117.667969 402.808594 121.304688 "/>
<path style=" stroke:none;fill-rule:nonzero;fill:rgb(67.058824%,33.72549%,84.705882%);fill-opacity:1;" d="M 336.605469 338.101562 L 357.328125 338.101562 L 357.328125 358.824219 L 336.605469 358.824219 Z M 336.605469 338.101562 "/>
<path style=" stroke:none;fill-rule:nonzero;fill:rgb(67.058824%,33.72549%,84.705882%);fill-opacity:1;" d="M 470.167969 280.21875 C 470.167969 286.589844 460.613281 286.589844 460.613281 280.21875 C 460.613281 273.851562 470.167969 273.851562 470.167969 280.21875 "/>
<path style=" stroke:none;fill-rule:nonzero;fill:rgb(67.058824%,33.72549%,84.705882%);fill-opacity:1;" d="M 440.878906 184.464844 C 440.878906 188.128906 435.378906 188.128906 435.378906 184.464844 C 435.378906 180.796875 440.878906 180.796875 440.878906 184.464844 "/>
<path style=" stroke:none;fill-rule:nonzero;fill:rgb(67.058824%,33.72549%,84.705882%);fill-opacity:1;" d="M 357.722656 461.714844 C 357.722656 465.394531 352.207031 465.394531 352.207031 461.714844 C 352.207031 458.035156 357.722656 458.035156 357.722656 461.714844 "/>
<path style=" stroke:none;fill-rule:nonzero;fill:rgb(67.058824%,33.72549%,84.705882%);fill-opacity:1;" d="M 611.34375 235.769531 C 611.34375 239.503906 605.75 239.503906 605.75 235.769531 C 605.75 232.039062 611.34375 232.039062 611.34375 235.769531 "/>
<path style=" stroke:none;fill-rule:nonzero;fill:rgb(67.058824%,33.72549%,84.705882%);fill-opacity:1;" d="M 384.769531 381.054688 C 384.769531 384.613281 379.433594 384.613281 379.433594 381.054688 C 379.433594 377.5 384.769531 377.5 384.769531 381.054688 "/>
<path style=" stroke:none;fill-rule:nonzero;fill:rgb(3.921569%,62.745098%,12.156863%);fill-opacity:1;" d="M 270.988281 541.199219 C 270.988281 544.683594 265.765625 544.683594 265.765625 541.199219 C 265.765625 537.71875 270.988281 537.71875 270.988281 541.199219 "/>
<path style=" stroke:none;fill-rule:nonzero;fill:rgb(3.921569%,62.745098%,12.156863%);fill-opacity:1;" d="M 131.40625 279.542969 C 131.40625 283.148438 125.996094 283.148438 125.996094 279.542969 C 125.996094 275.933594 131.40625 275.933594 131.40625 279.542969 "/>
<path style=" stroke:none;fill-rule:nonzero;fill:rgb(3.921569%,62.745098%,12.156863%);fill-opacity:1;" d="M 431.234375 607.238281 C 431.234375 611.273438 425.183594 611.273438 425.183594 607.238281 C 425.183594 603.203125 431.234375 603.203125 431.234375 607.238281 "/>
<path style=" stroke:none;fill-rule:nonzero;fill:rgb(3.921569%,62.745098%,12.156863%);fill-opacity:1;" d="M 421.300781 565.527344 C 421.300781 569.304688 415.628906 569.304688 415.628906 565.527344 C 415.628906 561.746094 421.300781 561.746094 421.300781 565.527344 "/>
<path style=" stroke:none;fill-rule:nonzero;fill:rgb(3.921569%,62.745098%,12.156863%);fill-opacity:1;" d="M 571.3125 523.25 C 571.3125 527.042969 565.625 527.042969 565.625 523.25 C 565.625 519.457031 571.3125 519.457031 571.3125 523.25 "/>
<path style=" stroke:none;fill-rule:nonzero;fill:rgb(3.921569%,62.745098%,12.156863%);fill-opacity:1;" d="M 582.25 458.585938 C 582.25 462.226562 576.789062 462.226562 576.789062 458.585938 C 576.789062 454.945312 582.25 454.945312 582.25 458.585938 "/>
<path style=" stroke:none;fill-rule:nonzero;fill:rgb(3.921569%,62.745098%,12.156863%);fill-opacity:1;" d="M 410.667969 159.257812 C 410.667969 162.800781 405.359375 162.800781 405.359375 159.257812 C 405.359375 155.71875 410.667969 155.71875 410.667969 159.257812 "/>
<path style=" stroke:none;fill-rule:nonzero;fill:rgb(3.921569%,62.745098%,12.156863%);fill-opacity:1;" d="M 390.082031 536.277344 C 390.082031 539.832031 384.75 539.832031 384.75 536.277344 C 384.75 532.722656 390.082031 532.722656 390.082031 536.277344 "/>
<path style=" stroke:none;fill-rule:nonzero;fill:rgb(3.921569%,62.745098%,12.156863%);fill-opacity:1;" d="M 156.753906 483.792969 C 156.753906 487.34375 151.429688 487.34375 151.429688 483.792969 C 151.429688 480.242188 156.753906 480.242188 156.753906 483.792969 "/>
<path style=" stroke:none;fill-rule:nonzero;fill:rgb(3.921569%,62.745098%,12.156863%);fill-opacity:1;" d="M 264.4375 493.683594 C 264.4375 498.710938 256.898438 498.710938 256.898438 493.683594 C 256.898438 488.65625 264.4375 488.65625 264.4375 493.683594 "/>
<path style=" stroke:none;fill-rule:nonzero;fill:rgb(3.921569%,62.745098%,12.156863%);fill-opacity:1;" d="M 630.34375 342.210938 C 630.34375 345.867188 624.863281 345.867188 624.863281 342.210938 C 624.863281 338.558594 630.34375 338.558594 630.34375 342.210938 "/>
<path style=" stroke:none;fill-rule:nonzero;fill:rgb(3.921569%,62.745098%,12.156863%);fill-opacity:1;" d="M 444.488281 314.167969 L 465.210938 314.167969 L 465.210938 334.890625 L 444.488281 334.890625 Z M 444.488281 314.167969 "/>
<path style=" stroke:none;fill-rule:nonzero;fill:rgb(3.921569%,62.745098%,12.156863%);fill-opacity:1;" d="M 231.921875 331.621094 C 231.921875 335.8125 225.632812 335.8125 225.632812 331.621094 C 225.632812 327.429688 231.921875 327.429688 231.921875 331.621094 "/>
<path style=" stroke:none;fill-rule:nonzero;fill:rgb(3.921569%,62.745098%,12.156863%);fill-opacity:1;" d="M 201.269531 162.355469 C 201.269531 166.417969 195.175781 166.417969 195.175781 162.355469 C 195.175781 158.296875 201.269531 158.296875 201.269531 162.355469 "/>
<path style=" stroke:none;fill-rule:nonzero;fill:rgb(3.921569%,62.745098%,12.156863%);fill-opacity:1;" d="M 185.5 526.851562 C 185.5 530.765625 179.625 530.765625 179.625 526.851562 C 179.625 522.933594 185.5 522.933594 185.5 526.851562 "/>
<path style=" stroke:none;fill-rule:nonzero;fill:rgb(3.921569%,62.745098%,12.156863%);fill-opacity:1;" d="M 551.871094 425.597656 C 551.871094 429.234375 546.421875 429.234375 546.421875 425.597656 C 546.421875 421.964844 551.871094 421.964844 551.871094 425.597656 "/>
<path style=" stroke:none;fill-rule:nonzero;fill:rgb(3.921569%,62.745098%,12.156863%);fill-opacity:1;" d="M 569.566406 319.714844 C 569.566406 324.476562 562.421875 324.476562 562.421875 319.714844 C 562.421875 314.953125 569.566406 314.953125 569.566406 319.714844 "/>
<path style=" stroke:none;fill-rule:nonzero;fill:rgb(3.921569%,62.745098%,12.156863%);fill-opacity:1;" d="M 558.144531 161.734375 C 558.144531 165.449219 552.570312 165.449219 552.570312 161.734375 C 552.570312 158.019531 558.144531 158.019531 558.144531 161.734375 "/>
<path style=" stroke:none;fill-rule:nonzero;fill:rgb(3.921569%,62.745098%,12.156863%);fill-opacity:1;" d="M 513.0625 144.5625 C 513.0625 148.195312 507.617188 148.195312 507.617188 144.5625 C 507.617188 140.933594 513.0625 140.933594 513.0625 144.5625 "/>
<path style=" stroke:none;fill-rule:nonzero;fill:rgb(3.921569%,62.745098%,12.156863%);fill-opacity:1;" d="M 232.207031 196.9375 C 232.207031 200.410156 229.390625 203.226562 225.917969 203.226562 C 222.449219 203.226562 219.632812 200.410156 219.632812 196.9375 C 219.632812 193.464844 222.449219 190.652344 225.917969 190.652344 C 229.390625 190.652344 232.207031 193.464844 232.207031 196.9375 "/>
<path style=" stroke:none;fill-rule:nonzero;fill:rgb(3.921569%,62.745098%,12.156863%);fill-opacity:1;" d="M 429.09375 367.117188 C 429.09375 370.625 423.828125 370.625 423.828125 367.117188 C 423.828125 363.609375 429.09375 363.609375 429.09375 367.117188 "/>
<path style=" stroke:none;fill-rule:nonzero;fill:rgb(3.921569%,62.745098%,12.156863%);fill-opacity:1;" d="M 176.78125 268.03125 C 176.78125 271.539062 171.519531 271.539062 171.519531 268.03125 C 171.519531 264.523438 176.78125 264.523438 176.78125 268.03125 "/>
<path style=" stroke:none;fill-rule:nonzero;fill:rgb(3.921569%,62.745098%,12.156863%);fill-opacity:1;" d="M 496.601562 523.324219 C 496.601562 530.480469 490.804688 536.277344 483.648438 536.277344 C 476.496094 536.277344 470.695312 530.480469 470.695312 523.324219 C 470.695312 516.171875 476.496094 510.375 483.648438 510.375 C 490.804688 510.375 496.601562 516.171875 496.601562 523.324219 "/>
<path style=" stroke:none;fill-rule:nonzero;fill:rgb(3.921569%,62.745098%,12.156863%);fill-opacity:1;" d="M 273.332031 118.753906 C 273.332031 124.058594 265.371094 124.058594 265.371094 118.753906 C 265.371094 113.445312 273.332031 113.445312 273.332031 118.753906 "/>
<path style=" stroke:none;fill-rule:nonzero;fill:rgb(3.921569%,62.745098%,12.156863%);fill-opacity:1;" d="M 221.90625 274.988281 C 221.90625 278.492188 216.648438 278.492188 216.648438 274.988281 C 216.648438 271.484375 221.90625 271.484375 221.90625 274.988281 "/>
<path style=" stroke:none;fill-rule:nonzero;fill:rgb(3.921569%,62.745098%,12.156863%);fill-opacity:1;" d="M 291.40625 131.886719 C 291.40625 135.429688 286.089844 135.429688 286.089844 131.886719 C 286.089844 128.339844 291.40625 128.339844 291.40625 131.886719 "/>
<path style=" stroke:none;fill-rule:nonzero;fill:rgb(3.921569%,62.745098%,12.156863%);fill-opacity:1;" d="M 351.289062 528.566406 C 351.289062 533.226562 344.300781 533.226562 344.300781 528.566406 C 344.300781 523.910156 351.289062 523.910156 351.289062 528.566406 "/>
<path style=" stroke:none;fill-rule:nonzero;fill:rgb(3.921569%,62.745098%,12.156863%);fill-opacity:1;" d="M 423.207031 284.425781 C 423.207031 289.945312 414.929688 289.945312 414.929688 284.425781 C 414.929688 278.910156 423.207031 278.910156 423.207031 284.425781 "/>
<path style=" stroke:none;fill-rule:nonzero;fill:rgb(3.921569%,62.745098%,12.156863%);fill-opacity:1;" d="M 485.101562 107.980469 C 485.101562 111.644531 479.609375 111.644531 479.609375 107.980469 C 479.609375 104.320312 485.101562 104.320312 485.101562 107.980469 "/>
<path style=" stroke:none;fill-rule:nonzero;fill:rgb(3.921569%,62.745098%,12.156863%);fill-opacity:1;" d="M 118.070312 340.910156 C 118.070312 344.539062 112.632812 344.539062 112.632812 340.910156 C 112.632812 337.285156 118.070312 337.285156 118.070312 340.910156 "/>
<path style=" stroke:none;fill-rule:nonzero;fill:rgb(3.921569%,62.745098%,12.156863%);fill-opacity:1;" d="M 335.210938 148.902344 C 335.210938 152.417969 329.941406 152.417969 329.941406 148.902344 C 329.941406 145.390625 335.210938 145.390625 335.210938 148.902344 "/>
<path style=" stroke:none;fill-rule:nonzero;fill:rgb(3.921569%,62.745098%,12.156863%);fill-opacity:1;" d="M 254.136719 236.941406 C 254.136719 240.664062 248.554688 240.664062 248.554688 236.941406 C 248.554688 233.21875 254.136719 233.21875 254.136719 236.941406 "/>
<path style=" stroke:none;fill-rule:nonzero;fill:rgb(3.921569%,62.745098%,12.156863%);fill-opacity:1;" d="M 329.085938 587.84375 C 329.085938 591.820312 323.125 591.820312 323.125 587.84375 C 323.125 583.867188 329.085938 583.867188 329.085938 587.84375 "/>
<path style=" stroke:none;fill-rule:nonzero;fill:rgb(3.921569%,62.745098%,12.156863%);fill-opacity:1;" d="M 327.839844 302.542969 C 327.839844 308.296875 319.207031 308.296875 319.207031 302.542969 C 319.207031 296.789062 327.839844 296.789062 327.839844 302.542969 "/>
<path style=" stroke:none;fill-rule:nonzero;fill:rgb(3.921569%,62.745098%,12.156863%);fill-opacity:1;" d="M 477.484375 369.070312 C 477.484375 372.582031 472.222656 372.582031 472.222656 369.070312 C 472.222656 365.5625 477.484375 365.5625 477.484375 369.070312 "/>
<path style=" stroke:none;fill-rule:nonzero;fill:rgb(3.921569%,62.745098%,12.156863%);fill-opacity:1;" d="M 481.90625 593.535156 C 481.90625 597.015625 476.6875 597.015625 476.6875 593.535156 C 476.6875 590.054688 481.90625 590.054688 481.90625 593.535156 "/>
<path style=" stroke:none;fill-rule:nonzero;fill:rgb(3.921569%,62.745098%,12.156863%);fill-opacity:1;" d="M 597.003906 298.714844 C 597.003906 304.777344 587.914062 304.777344 587.914062 298.714844 C 587.914062 292.65625 597.003906 292.65625 597.003906 298.714844 "/>
<path style=" stroke:none;fill-rule:nonzero;fill:rgb(3.921569%,62.745098%,12.156863%);fill-opacity:1;" d="M 452.183594 134.003906 C 452.183594 137.484375 446.96875 137.484375 446.96875 134.003906 C 446.96875 130.527344 452.183594 130.527344 452.183594 134.003906 "/>
<path style=" stroke:none;fill-rule:nonzero;fill:rgb(15.294118%,28.627451%,27.058824%);fill-opacity:1;" d="M 627.066406 253.824219 C 627.066406 257.550781 621.476562 257.550781 621.476562 253.824219 C 621.476562 250.101562 627.066406 250.101562 627.066406 253.824219 "/>
<path style=" stroke:none;fill-rule:nonzero;fill:rgb(15.294118%,28.627451%,27.058824%);fill-opacity:1;" d="M 356.488281 156.746094 C 356.488281 160.378906 351.039062 160.378906 351.039062 156.746094 C 351.039062 153.113281 356.488281 153.113281 356.488281 156.746094 "/>
<path style=" stroke:none;fill-rule:nonzero;fill:rgb(15.294118%,28.627451%,27.058824%);fill-opacity:1;" d="M 504 207.8125 L 524.722656 207.8125 L 524.722656 228.535156 L 504 228.535156 Z M 504 207.8125 "/>
<path style=" stroke:none;fill-rule:nonzero;fill:rgb(15.294118%,28.627451%,27.058824%);fill-opacity:1;" d="M 519.058594 266.675781 C 519.058594 270.253906 513.695312 270.253906 513.695312 266.675781 C 513.695312 263.101562 519.058594 263.101562 519.058594 266.675781 "/>
<path style=" stroke:none;fill-rule:nonzero;fill:rgb(15.294118%,28.627451%,27.058824%);fill-opacity:1;" d="M 310.96875 550.222656 C 310.96875 554.242188 304.945312 554.242188 304.945312 550.222656 C 304.945312 546.207031 310.96875 546.207031 310.96875 550.222656 "/>
<path style=" stroke:none;fill-rule:nonzero;fill:rgb(15.294118%,28.627451%,27.058824%);fill-opacity:1;" d="M 190.742188 217.359375 L 211.464844 217.359375 L 211.464844 238.082031 L 190.742188 238.082031 Z M 190.742188 217.359375 "/>
<path style=" stroke:none;fill-rule:nonzero;fill:rgb(30.588235%,22.352941%,47.843137%);fill-opacity:1;" d="M 468.199219 547.308594 L 488.921875 547.308594 L 488.921875 568.03125 L 468.199219 568.03125 Z M 468.199219 547.308594 "/>
<path style=" stroke:none;fill-rule:nonzero;fill:rgb(70.196078%,14.901961%,35.686275%);fill-opacity:1;" d="M 168.40625 214.355469 L 189.128906 214.355469 L 189.128906 235.078125 L 168.40625 235.078125 Z M 168.40625 214.355469 "/>
<path style=" stroke:none;fill-rule:nonzero;fill:rgb(18.039216%,73.72549%,27.058824%);fill-opacity:1;" d="M 195.289062 388.609375 L 216.011719 388.609375 L 216.011719 409.332031 L 195.289062 409.332031 Z M 195.289062 388.609375 "/>
<path style=" stroke:none;fill-rule:nonzero;fill:rgb(18.039216%,73.72549%,27.058824%);fill-opacity:1;" d="M 425.898438 514.742188 L 446.621094 514.742188 L 446.621094 535.464844 L 425.898438 535.464844 Z M 425.898438 514.742188 "/>
<path style=" stroke:none;fill-rule:nonzero;fill:rgb(18.039216%,73.72549%,27.058824%);fill-opacity:1;" d="M 483.355469 421.039062 C 483.355469 425.066406 477.3125 425.066406 477.3125 421.039062 C 477.3125 417.011719 483.355469 417.011719 483.355469 421.039062 "/>
<path style=" stroke:none;fill-rule:nonzero;fill:rgb(18.039216%,73.72549%,27.058824%);fill-opacity:1;" d="M 387.609375 196.703125 C 387.609375 200.179688 382.394531 200.179688 382.394531 196.703125 C 382.394531 193.226562 387.609375 193.226562 387.609375 196.703125 "/>
<path style=" stroke:none;fill-rule:nonzero;fill:rgb(18.039216%,73.72549%,27.058824%);fill-opacity:1;" d="M 307.011719 252.378906 C 307.011719 255.859375 301.792969 255.859375 301.792969 252.378906 C 301.792969 248.902344 307.011719 248.902344 307.011719 252.378906 "/>
<path style=" stroke:none;fill-rule:nonzero;fill:rgb(18.039216%,73.72549%,27.058824%);fill-opacity:1;" d="M 270.84375 284.386719 C 270.84375 287.949219 265.5 287.949219 265.5 284.386719 C 265.5 280.824219 270.84375 280.824219 270.84375 284.386719 "/>
<path style=" stroke:none;fill-rule:nonzero;fill:rgb(18.039216%,73.72549%,27.058824%);fill-opacity:1;" d="M 255.753906 166.898438 C 255.753906 171.472656 248.890625 171.472656 248.890625 166.898438 C 248.890625 162.324219 255.753906 162.324219 255.753906 166.898438 "/>
<path style=" stroke:none;fill-rule:nonzero;fill:rgb(18.039216%,73.72549%,27.058824%);fill-opacity:1;" d="M 478.316406 484.296875 C 478.316406 488.367188 472.210938 488.367188 472.210938 484.296875 C 472.210938 480.222656 478.316406 480.222656 478.316406 484.296875 "/>
<path style=" stroke:none;fill-rule:nonzero;fill:rgb(18.039216%,73.72549%,27.058824%);fill-opacity:1;" d="M 315.71875 502.867188 C 315.71875 505.867188 313.285156 508.296875 310.289062 508.296875 C 307.289062 508.296875 304.855469 505.867188 304.855469 502.867188 C 304.855469 499.867188 307.289062 497.4375 310.289062 497.4375 C 313.285156 497.4375 315.71875 499.867188 315.71875 502.867188 "/>
<path style=" stroke:none;fill-rule:nonzero;fill:rgb(18.039216%,73.72549%,27.058824%);fill-opacity:1;" d="M 511 306.785156 C 511 310.398438 505.578125 310.398438 505.578125 306.785156 C 505.578125 303.167969 511 303.167969 511 306.785156 "/>
<path style=" stroke:none;fill-rule:nonzero;fill:rgb(18.039216%,73.72549%,27.058824%);fill-opacity:1;" d="M 603.941406 414.394531 C 603.941406 419.894531 599.484375 424.351562 593.988281 424.351562 C 588.488281 424.351562 584.03125 419.894531 584.03125 414.394531 C 584.03125 408.898438 588.488281 404.441406 593.988281 404.441406 C 599.484375 404.441406 603.941406 408.898438 603.941406 414.394531 "/>
<path style=" stroke:none;fill-rule:nonzero;fill:rgb(18.039216%,73.72549%,27.058824%);fill-opacity:1;" d="M 489.949219 184.738281 C 489.949219 189.183594 486.347656 192.785156 481.902344 192.785156 C 477.460938 192.785156 473.855469 189.183594 473.855469 184.738281 C 473.855469 180.292969 477.460938 176.691406 481.902344 176.691406 C 486.347656 176.691406 489.949219 180.292969 489.949219 184.738281 "/>
<path style=" stroke:none;fill-rule:nonzero;fill:rgb(18.039216%,73.72549%,27.058824%);fill-opacity:1;" d="M 249.324219 424.636719 C 249.324219 427.945312 246.644531 430.625 243.335938 430.625 C 240.03125 430.625 237.351562 427.945312 237.351562 424.636719 C 237.351562 421.332031 240.03125 418.652344 243.335938 418.652344 C 246.644531 418.652344 249.324219 421.332031 249.324219 424.636719 "/>
<path style=" stroke:none;fill-rule:nonzero;fill:rgb(18.039216%,73.72549%,27.058824%);fill-opacity:1;" d="M 477.050781 237.128906 C 477.050781 240.722656 471.660156 240.722656 471.660156 237.128906 C 471.660156 233.535156 477.050781 233.535156 477.050781 237.128906 "/>
<path style=" stroke:none;fill-rule:nonzero;fill:rgb(18.039216%,73.72549%,27.058824%);fill-opacity:1;" d="M 556.28125 243.132812 C 556.28125 247.714844 549.40625 247.714844 549.40625 243.132812 C 549.40625 238.550781 556.28125 238.550781 556.28125 243.132812 "/>
<path style=" stroke:none;fill-rule:nonzero;fill:rgb(18.039216%,73.72549%,27.058824%);fill-opacity:1;" d="M 516.941406 450.863281 C 516.941406 455.203125 510.4375 455.203125 510.4375 450.863281 C 510.4375 446.527344 516.941406 446.527344 516.941406 450.863281 "/>
<path style=" stroke:none;fill-rule:nonzero;fill:rgb(18.039216%,73.72549%,27.058824%);fill-opacity:1;" d="M 558.199219 203.660156 C 558.199219 209.792969 549 209.792969 549 203.660156 C 549 197.527344 558.199219 197.527344 558.199219 203.660156 "/>
<path style=" stroke:none;fill-rule:nonzero;fill:rgb(18.039216%,73.72549%,27.058824%);fill-opacity:1;" d="M 181.582031 308.863281 C 181.582031 313.617188 177.726562 317.46875 172.972656 317.46875 C 168.21875 317.46875 164.367188 313.617188 164.367188 308.863281 C 164.367188 304.109375 168.21875 300.253906 172.972656 300.253906 C 177.726562 300.253906 181.582031 304.109375 181.582031 308.863281 "/>
<path style=" stroke:none;fill-rule:nonzero;fill:rgb(18.039216%,73.72549%,27.058824%);fill-opacity:1;" d="M 574.902344 350.367188 C 574.902344 354.671875 568.445312 354.671875 568.445312 350.367188 C 568.445312 346.0625 574.902344 346.0625 574.902344 350.367188 "/>
<path style=" stroke:none;fill-rule:nonzero;fill:rgb(18.039216%,73.72549%,27.058824%);fill-opacity:1;" d="M 304.128906 402 C 304.128906 405.828125 298.382812 405.828125 298.382812 402 C 298.382812 398.167969 304.128906 398.167969 304.128906 402 "/>
<path style=" stroke:none;fill-rule:nonzero;fill:rgb(18.039216%,73.72549%,27.058824%);fill-opacity:1;" d="M 230.582031 522.871094 C 230.582031 527.996094 222.898438 527.996094 222.898438 522.871094 C 222.898438 517.75 230.582031 517.75 230.582031 522.871094 "/>
<path style=" stroke:none;fill-rule:nonzero;fill:rgb(18.039216%,73.72549%,27.058824%);fill-opacity:1;" d="M 350.109375 240.035156 C 350.109375 243.503906 344.910156 243.503906 344.910156 240.035156 C 344.910156 236.570312 350.109375 236.570312 350.109375 240.035156 "/>
<path style=" stroke:none;fill-rule:nonzero;fill:rgb(18.039216%,73.72549%,27.058824%);fill-opacity:1;" d="M 435.015625 428.585938 C 435.015625 432.039062 429.835938 432.039062 429.835938 428.585938 C 429.835938 425.128906 435.015625 425.128906 435.015625 428.585938 "/>
<path style=" stroke:none;fill-rule:nonzero;fill:rgb(18.039216%,73.72549%,27.058824%);fill-opacity:1;" d="M 165.910156 383.789062 C 165.910156 389.25 157.722656 389.25 157.722656 383.789062 C 157.722656 378.332031 165.910156 378.332031 165.910156 383.789062 "/>
<path style=" stroke:none;fill-rule:nonzero;fill:rgb(18.039216%,73.72549%,27.058824%);fill-opacity:1;" d="M 372.128906 94.09375 C 372.128906 100.140625 363.058594 100.140625 363.058594 94.09375 C 363.058594 88.046875 372.128906 88.046875 372.128906 94.09375 "/>
<path style=" stroke:none;fill-rule:nonzero;fill:rgb(18.039216%,73.72549%,27.058824%);fill-opacity:1;" d="M 397.976562 327.46875 C 397.976562 331.351562 392.152344 331.351562 392.152344 327.46875 C 392.152344 323.585938 397.976562 323.585938 397.976562 327.46875 "/>
<path style=" stroke:none;fill-rule:nonzero;fill:rgb(18.039216%,73.72549%,27.058824%);fill-opacity:1;" d="M 131.230469 301.953125 C 131.230469 308.90625 120.796875 308.90625 120.796875 301.953125 C 120.796875 294.996094 131.230469 294.996094 131.230469 301.953125 "/>
<path style=" stroke:none;fill-rule:nonzero;fill:rgb(18.039216%,73.72549%,27.058824%);fill-opacity:1;" d="M 551.714844 540.039062 C 551.714844 543.539062 546.46875 543.539062 546.46875 540.039062 C 546.46875 536.542969 551.714844 536.542969 551.714844 540.039062 "/>
<path style=" stroke:none;fill-rule:nonzero;fill:rgb(18.039216%,73.72549%,27.058824%);fill-opacity:1;" d="M 149.253906 463.046875 C 149.253906 466.851562 143.546875 466.851562 143.546875 463.046875 C 143.546875 459.238281 149.253906 459.238281 149.253906 463.046875 "/>
<path style=" stroke:none;fill-rule:nonzero;fill:rgb(18.039216%,73.72549%,27.058824%);fill-opacity:1;" d="M 390.566406 492.910156 C 390.566406 496.429688 385.292969 496.429688 385.292969 492.910156 C 385.292969 489.394531 390.566406 489.394531 390.566406 492.910156 "/>
<path style=" stroke:none;fill-rule:nonzero;fill:rgb(18.039216%,73.72549%,27.058824%);fill-opacity:1;" d="M 226.867188 354.207031 C 226.867188 357.878906 221.355469 357.878906 221.355469 354.207031 C 221.355469 350.53125 226.867188 350.53125 226.867188 354.207031 "/>
<path style=" stroke:none;fill-rule:nonzero;fill:rgb(18.039216%,73.72549%,27.058824%);fill-opacity:1;" d="M 131.191406 424.898438 C 131.191406 428.617188 125.617188 428.617188 125.617188 424.898438 C 125.617188 421.179688 131.191406 421.179688 131.191406 424.898438 "/>
<path style=" stroke:none;fill-rule:nonzero;fill:rgb(18.039216%,73.72549%,27.058824%);fill-opacity:1;" d="M 336.390625 197.75 C 336.390625 202.140625 329.804688 202.140625 329.804688 197.75 C 329.804688 193.359375 336.390625 193.359375 336.390625 197.75 "/>
<path style=" stroke:none;fill-rule:nonzero;fill:rgb(18.039216%,73.72549%,27.058824%);fill-opacity:1;" d="M 541.175781 147.527344 C 541.175781 150.917969 538.429688 153.664062 535.039062 153.664062 C 531.648438 153.664062 528.898438 150.917969 528.898438 147.527344 C 528.898438 144.136719 531.648438 141.386719 535.039062 141.386719 C 538.429688 141.386719 541.175781 144.136719 541.175781 147.527344 "/>
<path style=" stroke:none;fill-rule:nonzero;fill:rgb(18.039216%,73.72549%,27.058824%);fill-opacity:1;" d="M 395.082031 242.929688 C 395.082031 246.714844 389.410156 246.714844 389.410156 242.929688 C 389.410156 239.148438 395.082031 239.148438 395.082031 242.929688 "/>
<path style=" stroke:none;fill-rule:nonzero;fill:rgb(18.039216%,73.72549%,27.058824%);fill-opacity:1;" d="M 228.34375 132.441406 C 228.34375 136.027344 222.960938 136.027344 222.960938 132.441406 C 222.960938 128.851562 228.34375 128.851562 228.34375 132.441406 "/>
<path style=" stroke:none;fill-rule:nonzero;fill:rgb(18.039216%,73.72549%,27.058824%);fill-opacity:1;" d="M 177.214844 428.023438 C 177.214844 431.160156 174.671875 433.707031 171.53125 433.707031 C 168.394531 433.707031 165.847656 431.160156 165.847656 428.023438 C 165.847656 424.882812 168.394531 422.339844 171.53125 422.339844 C 174.671875 422.339844 177.214844 424.882812 177.214844 428.023438 "/>
<path style=" stroke:none;fill-rule:nonzero;fill:rgb(18.039216%,73.72549%,27.058824%);fill-opacity:1;" d="M 253.398438 577.476562 C 253.398438 581.15625 247.878906 581.15625 247.878906 577.476562 C 247.878906 573.796875 253.398438 573.796875 253.398438 577.476562 "/>
<path style=" stroke:none;fill-rule:nonzero;fill:rgb(18.039216%,73.72549%,27.058824%);fill-opacity:1;" d="M 442.78125 93.753906 C 442.78125 97.3125 437.4375 97.3125 437.4375 93.753906 C 437.4375 90.191406 442.78125 90.191406 442.78125 93.753906 "/>
<path style=" stroke:none;fill-rule:nonzero;fill:rgb(18.039216%,73.72549%,27.058824%);fill-opacity:1;" d="M 515.464844 349.21875 C 515.464844 352.753906 510.160156 352.753906 510.160156 349.21875 C 510.160156 345.679688 515.464844 345.679688 515.464844 349.21875 "/>
<path style=" stroke:none;fill-rule:nonzero;fill:rgb(73.72549%,18.039216%,63.137255%);fill-opacity:1;" d="M 585.117188 273.90625 C 585.117188 277.617188 579.550781 277.617188 579.550781 273.90625 C 579.550781 270.191406 585.117188 270.191406 585.117188 273.90625 "/>
<path style=" stroke:none;fill-rule:nonzero;fill:rgb(41.568627%,32.156863%,77.647059%);fill-opacity:1;" d="M 551.871094 484.304688 C 551.871094 490.195312 547.09375 494.96875 541.203125 494.96875 C 535.3125 494.96875 530.539062 490.195312 530.539062 484.304688 C 530.539062 478.414062 535.3125 473.636719 541.203125 473.636719 C 547.09375 473.636719 551.871094 478.414062 551.871094 484.304688 "/>
<path style=" stroke:none;fill-rule:nonzero;fill:rgb(41.568627%,32.156863%,77.647059%);fill-opacity:1;" d="M 435.257812 228.328125 C 435.257812 231.902344 429.898438 231.902344 429.898438 228.328125 C 429.898438 224.757812 435.257812 224.757812 435.257812 228.328125 "/>
<path style=" stroke:none;fill-rule:nonzero;fill:rgb(41.568627%,32.156863%,77.647059%);fill-opacity:1;" d="M 129.179688 225.628906 L 149.902344 225.628906 L 149.902344 246.351562 L 129.179688 246.351562 Z M 129.179688 225.628906 "/>
<path style=" stroke:none;fill-rule:nonzero;fill:rgb(41.568627%,32.156863%,77.647059%);fill-opacity:1;" d="M 274.585938 582.140625 L 295.308594 582.140625 L 295.308594 602.863281 L 274.585938 602.863281 Z M 274.585938 582.140625 "/>
<path style=" stroke:none;fill-rule:nonzero;fill:rgb(41.568627%,32.156863%,77.647059%);fill-opacity:1;" d="M 574.902344 495.085938 L 595.625 495.085938 L 595.625 515.808594 L 574.902344 515.808594 Z M 574.902344 495.085938 "/>
<path style=" stroke:none;fill-rule:nonzero;fill:rgb(41.568627%,32.156863%,77.647059%);fill-opacity:1;" d="M 276.972656 432.929688 L 297.695312 432.929688 L 297.695312 453.652344 L 276.972656 453.652344 Z M 276.972656 432.929688 "/>
<path style=" stroke:none;fill-rule:nonzero;fill:rgb(67.843137%,55.294118%,55.294118%);fill-opacity:1;" d="M 370.621094 601.484375 L 391.34375 601.484375 L 391.34375 622.207031 L 370.621094 622.207031 Z M 370.621094 601.484375 "/>
<path style=" stroke:none;fill-rule:nonzero;fill:rgb(67.843137%,55.294118%,55.294118%);fill-opacity:1;" d="M 250.128906 371.464844 L 270.851562 371.464844 L 270.851562 392.1875 L 250.128906 392.1875 Z M 250.128906 371.464844 "/>
<path style=" stroke:none;fill-rule:nonzero;fill:rgb(81.176471%,90.588235%,12.156863%);fill-opacity:1;" d="M 418.917969 471.175781 L 439.640625 471.175781 L 439.640625 491.898438 L 418.917969 491.898438 Z M 418.917969 471.175781 "/>
</g>
</svg>
