<?xml version="1.0" encoding="UTF-8"?>
<svg xmlns="http://www.w3.org/2000/svg" xmlns:xlink="http://www.w3.org/1999/xlink" width="720pt" height="720pt" viewBox="0 0 720 720" version="1.1">
<g id="surface6">
<path style=" stroke:none;fill-rule:nonzero;fill:rgb(95.686275%,95.686275%,95.686275%);fill-opacity:1;" d="M 358.660156 449.1875 L 356.390625 448.90625 L 354.164062 448.085938 L 352.027344 446.8125 L 350.019531 445.207031 L 348.121094 443.40625 L 346.265625 441.550781 L 344.371094 439.644531 L 342.421875 437.660156 L 340.457031 435.628906 L 338.527344 433.59375 L 337.320312 432.296875 L 335.300781 430.089844 L 333.476562 428.027344 L 331.867188 426.160156 L 330.464844 424.488281 L 329.171875 422.914062 L 327.976562 421.273438 L 327.066406 419.441406 L 326.621094 417.386719 L 326.746094 415.140625 L 326.886719 414.511719 L 327.660156 412.398438 L 328.878906 410.234375 L 330.460938 408.078125 L 332.296875 405.980469 L 334.261719 403.953125 L 336.265625 401.964844 L 338.355469 400.089844 L 340.582031 398.488281 L 342.933594 397.308594 L 345.363281 396.667969 L 346.730469 396.570312 L 349.09375 396.859375 L 351.417969 397.691406 L 353.652344 398.992188 L 355.757812 400.640625 L 357.742188 402.5 L 359.675781 404.425781 L 361.625 406.394531 L 363.605469 408.433594 L 365.570312 410.523438 L 367.46875 412.609375 L 369.125 414.511719 L 371.054688 416.851562 L 372.710938 419.007812 L 374.085938 420.933594 L 375.214844 422.644531 L 376.234375 424.253906 L 377.136719 425.949219 L 377.738281 427.839844 L 377.886719 429.933594 L 377.488281 432.191406 L 377.457031 432.296875 L 376.605469 434.378906 L 375.34375 436.496094 L 373.757812 438.589844 L 371.957031 440.609375 L 370.054688 442.554688 L 368.117188 444.460938 L 366.082031 446.226562 L 363.910156 447.691406 L 361.625 448.707031 L 359.277344 449.167969 Z M 358.660156 449.1875 "/>
<path style=" stroke:none;fill-rule:nonzero;fill:rgb(95.686275%,95.686275%,95.686275%);fill-opacity:1;" d="M 477.214844 291.953125 L 474.871094 291.648438 L 472.570312 290.773438 L 470.375 289.421875 L 468.316406 287.726562 L 466.371094 285.851562 L 464.464844 283.929688 L 462.625 281.9375 L 460.953125 279.863281 L 459.558594 277.738281 L 458.53125 275.632812 L 458.320312 275.058594 L 457.824219 272.976562 L 457.761719 271.011719 L 458.089844 269.203125 L 458.699219 267.566406 L 459.464844 266.050781 L 460.285156 264.53125 L 461.238281 262.890625 L 462.398438 261.078125 L 463.785156 259.109375 L 465.324219 257.109375 L 467.003906 255.070312 L 468.820312 253.003906 L 470.707031 250.96875 L 472.605469 249 L 474.480469 247.109375 L 476.347656 245.257812 L 478.292969 243.511719 L 480.363281 242.019531 L 482.554688 240.921875 L 484.816406 240.324219 L 486.09375 240.234375 L 488.433594 240.539062 L 490.730469 241.410156 L 492.925781 242.761719 L 494.984375 244.457031 L 496.929688 246.332031 L 498.832031 248.253906 L 500.671875 250.246094 L 502.339844 252.320312 L 503.734375 254.4375 L 504.757812 256.546875 L 504.964844 257.109375 L 505.46875 259.191406 L 505.53125 261.15625 L 505.207031 262.960938 L 504.601562 264.597656 L 503.839844 266.113281 L 503.023438 267.632812 L 502.074219 269.277344 L 500.917969 271.089844 L 499.53125 273.0625 L 498.003906 275.058594 L 496.324219 277.097656 L 494.507812 279.164062 L 492.621094 281.203125 L 490.722656 283.171875 L 488.847656 285.0625 L 486.980469 286.914062 L 485.03125 288.664062 L 482.957031 290.15625 L 480.765625 291.257812 L 478.503906 291.859375 Z M 477.214844 291.953125 "/>
<path style=" stroke:none;fill-rule:nonzero;fill:rgb(95.686275%,95.686275%,95.686275%);fill-opacity:1;" d="M 378.601562 149.144531 L 376.375 148.871094 L 374.191406 148.078125 L 372.097656 146.839844 L 370.121094 145.277344 L 368.257812 143.519531 L 366.441406 141.699219 L 364.617188 139.757812 L 362.800781 137.574219 L 361.042969 135.105469 L 359.414062 132.363281 L 358.265625 130.0625 L 357.101562 127.277344 L 356.113281 124.382812 L 355.304688 121.433594 L 354.660156 118.507812 L 354.15625 115.640625 L 353.730469 112.835938 L 353.335938 110.03125 L 353.027344 107.171875 L 352.878906 104.246094 L 352.941406 101.300781 L 353.261719 98.398438 L 353.851562 95.609375 L 353.890625 95.457031 L 354.8125 92.734375 L 356.003906 90.214844 L 357.414062 87.9375 L 358.976562 85.902344 L 360.628906 84.085938 L 362.308594 82.390625 L 364.015625 80.738281 L 365.8125 79.214844 L 367.714844 77.9375 L 369.707031 77.003906 L 371.757812 76.492188 L 373.003906 76.402344 L 375.273438 76.6875 L 377.496094 77.515625 L 379.628906 78.796875 L 381.632812 80.410156 L 383.523438 82.214844 L 385.378906 84.070312 L 387.257812 85.988281 L 389.148438 87.996094 L 391.011719 90.074219 L 392.773438 92.171875 L 393.683594 93.316406 L 395.394531 95.613281 L 396.859375 97.792969 L 398.070312 99.796875 L 399.058594 101.617188 L 399.9375 103.339844 L 400.789062 105.109375 L 401.582031 107.03125 L 402.25 109.101562 L 402.742188 111.277344 L 402.851562 111.945312 L 403.074219 114.195312 L 403.09375 116.417969 L 402.9375 118.550781 L 402.65625 120.554688 L 402.324219 122.484375 L 401.90625 124.476562 L 401.269531 126.640625 L 400.328125 128.96875 L 399.058594 131.40625 L 398.71875 131.984375 L 397.273438 134.175781 L 395.625 136.347656 L 393.835938 138.453125 L 391.984375 140.453125 L 390.117188 142.351562 L 388.242188 144.207031 L 386.289062 145.949219 L 384.207031 147.429688 L 382.007812 148.503906 L 379.738281 149.074219 Z M 378.601562 149.144531 "/>
<path style=" stroke:none;fill-rule:nonzero;fill:rgb(95.686275%,95.686275%,95.686275%);fill-opacity:1;" d="M 117.582031 385.160156 L 115.304688 384.871094 L 113.066406 384.039062 L 110.925781 382.746094 L 108.914062 381.121094 L 107.015625 379.308594 L 105.15625 377.445312 L 103.28125 375.511719 L 101.425781 373.480469 L 99.640625 371.371094 L 98 369.234375 L 97.230469 368.144531 L 95.855469 365.996094 L 94.726562 363.933594 L 93.835938 362 L 93.160156 360.222656 L 92.617188 358.5625 L 92.132812 356.914062 L 91.792969 355.140625 L 91.738281 353.179688 L 92.058594 351.035156 L 92.804688 348.742188 L 93.007812 348.265625 L 94.164062 346.050781 L 95.648438 343.800781 L 97.402344 341.5625 L 99.335938 339.386719 L 101.355469 337.289062 L 103.402344 335.242188 L 105.507812 333.265625 L 107.738281 331.496094 L 110.097656 330.085938 L 112.558594 329.152344 L 115.066406 328.785156 L 115.351562 328.78125 L 117.847656 329.078125 L 120.300781 329.941406 L 122.664062 331.285156 L 124.898438 333.003906 L 127.003906 334.949219 L 129.042969 336.980469 L 131.070312 339.054688 L 133.046875 341.203125 L 134.902344 343.421875 L 136.5625 345.660156 L 137.953125 347.871094 L 138.171875 348.265625 L 139.285156 350.605469 L 140.011719 352.800781 L 140.378906 354.816406 L 140.460938 356.636719 L 140.371094 358.3125 L 140.226562 359.976562 L 139.953125 361.753906 L 139.453125 363.683594 L 138.667969 365.753906 L 137.585938 367.914062 L 137.457031 368.144531 L 136.101562 370.289062 L 134.507812 372.433594 L 132.753906 374.523438 L 130.90625 376.519531 L 129.035156 378.421875 L 127.152344 380.28125 L 125.1875 382.023438 L 123.089844 383.5 L 120.875 384.558594 L 118.59375 385.101562 Z M 117.582031 385.160156 "/>
<path style=" stroke:none;fill-rule:nonzero;fill:rgb(95.686275%,95.686275%,95.686275%);fill-opacity:1;" d="M 200.632812 305.085938 L 197.8125 305.890625 L 194.890625 306.433594 L 191.9375 306.726562 L 189.015625 306.804688 L 186.167969 306.71875 L 183.386719 306.539062 L 180.601562 306.332031 L 177.757812 306.039062 L 174.84375 305.601562 L 171.914062 304.976562 L 169.03125 304.148438 L 166.378906 303.167969 L 163.738281 301.941406 L 161.285156 300.539062 L 159.054688 299.003906 L 157.054688 297.394531 L 155.257812 295.75 L 153.589844 294.101562 L 151.964844 292.429688 L 150.449219 290.636719 L 149.144531 288.675781 L 148.15625 286.535156 L 147.554688 284.230469 L 147.386719 282.132812 L 147.617188 279.644531 L 148.269531 277.097656 L 149.296875 274.546875 L 150.621094 272.042969 L 152.144531 269.613281 L 153.765625 267.253906 L 155.417969 264.890625 L 157.144531 262.460938 L 158.96875 259.957031 L 160.882812 257.40625 L 162.859375 254.859375 L 164.828125 252.421875 L 167.019531 249.808594 L 169.171875 247.355469 L 171.238281 245.101562 L 173.1875 243.058594 L 175.023438 241.195312 L 176.8125 239.414062 L 178.65625 237.703125 L 180.609375 236.195312 L 182.679688 235.019531 L 184.832031 234.28125 L 186.878906 234.046875 L 189.078125 234.316406 L 191.238281 235.097656 L 193.316406 236.3125 L 195.273438 237.851562 L 197.117188 239.585938 L 198.917969 241.382812 L 200.757812 243.277344 L 202.671875 245.371094 L 204.644531 247.695312 L 206.628906 250.238281 L 208.316406 252.578125 L 210.054688 255.171875 L 211.710938 257.84375 L 213.261719 260.527344 L 214.6875 263.167969 L 216.003906 265.734375 L 217.246094 268.234375 L 218.453125 270.742188 L 219.546875 273.328125 L 220.429688 275.996094 L 221.015625 278.707031 L 221.234375 281.40625 L 221.117188 283.566406 L 220.558594 286.257812 L 219.5625 288.796875 L 218.203125 291.132812 L 216.574219 293.257812 L 214.789062 295.195312 L 212.941406 297.046875 L 211.011719 298.878906 L 208.878906 300.65625 L 206.492188 302.308594 L 203.855469 303.765625 L 201.007812 304.957031 Z M 200.632812 305.085938 "/>
<path style=" stroke:none;fill-rule:nonzero;fill:rgb(95.686275%,95.686275%,95.686275%);fill-opacity:1;" d="M 506.363281 368.835938 L 504.230469 367.917969 L 502.078125 366.613281 L 499.964844 365.003906 L 497.933594 363.195312 L 495.984375 361.292969 L 494.078125 359.355469 L 492.300781 357.328125 L 490.8125 355.167969 L 489.765625 352.886719 L 489.261719 350.542969 L 489.226562 349.742188 L 489.515625 347.449219 L 490.339844 345.203125 L 491.628906 343.046875 L 493.253906 341.019531 L 495.070312 339.105469 L 496.941406 337.234375 L 498.871094 335.339844 L 500.890625 333.429688 L 502.96875 331.550781 L 505.0625 329.769531 L 506.363281 328.722656 L 508.703125 326.964844 L 510.902344 325.472656 L 512.90625 324.253906 L 514.722656 323.261719 L 516.441406 322.378906 L 518.238281 321.601562 L 520.21875 321.109375 L 522.398438 321.050781 L 524.726562 321.511719 L 525.011719 321.605469 L 527.144531 322.519531 L 529.300781 323.824219 L 531.417969 325.433594 L 533.453125 327.242188 L 535.402344 329.148438 L 537.3125 331.085938 L 539.09375 333.113281 L 540.582031 335.277344 L 541.636719 337.5625 L 542.144531 339.910156 L 542.183594 340.734375 L 541.898438 343.027344 L 541.070312 345.28125 L 539.78125 347.4375 L 538.15625 349.46875 L 536.335938 351.386719 L 534.460938 353.261719 L 532.527344 355.15625 L 530.511719 357.070312 L 528.429688 358.945312 L 526.335938 360.726562 L 525.011719 361.789062 L 522.667969 363.542969 L 520.46875 365.027344 L 518.457031 366.242188 L 516.644531 367.222656 L 514.925781 368.09375 L 513.125 368.863281 L 511.140625 369.34375 L 508.960938 369.394531 L 506.636719 368.925781 Z M 506.363281 368.835938 "/>
<path style=" stroke:none;fill-rule:nonzero;fill:rgb(95.686275%,95.686275%,95.686275%);fill-opacity:1;" d="M 429.4375 447.5 L 427.128906 447.207031 L 424.859375 446.367188 L 422.6875 445.058594 L 420.640625 443.410156 L 418.714844 441.574219 L 416.828125 439.683594 L 414.945312 437.722656 L 413.101562 435.667969 L 411.375 433.542969 L 409.835938 431.390625 L 409.09375 430.226562 L 407.886719 428.027344 L 406.976562 425.929688 L 406.351562 423.972656 L 405.960938 422.179688 L 405.714844 420.503906 L 405.519531 418.832031 L 405.464844 417.042969 L 405.664062 415.097656 L 406.1875 413.011719 L 407.066406 410.828125 L 407.097656 410.765625 L 408.285156 408.609375 L 409.769531 406.453125 L 411.464844 404.351562 L 413.296875 402.339844 L 415.175781 400.421875 L 417.074219 398.546875 L 419.0625 396.796875 L 421.183594 395.320312 L 423.417969 394.265625 L 425.71875 393.742188 L 426.644531 393.691406 L 428.9375 393.984375 L 431.1875 394.824219 L 433.339844 396.125 L 435.367188 397.765625 L 437.277344 399.589844 L 439.152344 401.46875 L 441.023438 403.414062 L 442.851562 405.460938 L 444.574219 407.582031 L 446.117188 409.722656 L 446.789062 410.765625 L 448.015625 412.945312 L 448.960938 415.035156 L 449.628906 416.984375 L 450.070312 418.773438 L 450.367188 420.449219 L 450.617188 422.117188 L 450.71875 423.90625 L 450.5625 425.855469 L 450.078125 427.945312 L 449.230469 430.140625 L 449.1875 430.226562 L 448.015625 432.386719 L 446.542969 434.550781 L 444.84375 436.667969 L 443.003906 438.691406 L 441.113281 440.628906 L 439.199219 442.519531 L 437.199219 444.292969 L 435.070312 445.792969 L 432.820312 446.878906 L 430.503906 447.4375 Z M 429.4375 447.5 "/>
<path style=" stroke:none;fill-rule:nonzero;fill:rgb(95.686275%,95.686275%,95.686275%);fill-opacity:1;" d="M 133.582031 461.429688 L 131.164062 461.175781 L 128.839844 460.402344 L 126.660156 459.183594 L 124.644531 457.636719 L 122.769531 455.894531 L 120.960938 454.082031 L 119.144531 452.15625 L 117.335938 449.992188 L 115.589844 447.539062 L 113.964844 444.800781 L 112.679688 442.195312 L 111.542969 439.390625 L 110.582031 436.460938 L 109.796875 433.480469 L 109.179688 430.511719 L 108.703125 427.601562 L 108.304688 424.753906 L 107.941406 421.914062 L 107.652344 419.015625 L 107.515625 416.054688 L 107.582031 413.074219 L 107.894531 410.132812 L 108.472656 407.296875 L 108.609375 406.78125 L 109.527344 404.074219 L 110.703125 401.570312 L 112.085938 399.300781 L 113.617188 397.273438 L 115.238281 395.464844 L 116.886719 393.785156 L 118.566406 392.148438 L 120.363281 390.589844 L 122.332031 389.207031 L 124.484375 388.082031 L 126.796875 387.285156 L 128.957031 386.894531 L 131.535156 386.832031 L 134.175781 387.164062 L 136.816406 387.847656 L 139.402344 388.8125 L 141.90625 389.964844 L 144.347656 391.203125 L 146.804688 392.476562 L 149.335938 393.839844 L 151.949219 395.328125 L 154.59375 396.941406 L 157.21875 398.65625 L 158.90625 399.828125 L 161.550781 401.789062 L 164.035156 403.785156 L 166.3125 405.757812 L 168.378906 407.675781 L 170.261719 409.519531 L 172.066406 411.328125 L 173.792969 413.195312 L 175.3125 415.179688 L 176.488281 417.28125 L 177.21875 419.464844 L 177.429688 421.433594 L 177.164062 423.640625 L 176.382812 425.808594 L 175.167969 427.894531 L 173.628906 429.859375 L 171.890625 431.714844 L 170.089844 433.519531 L 168.210938 435.382812 L 166.1875 437.363281 L 164 439.464844 L 161.675781 441.648438 L 159.460938 443.6875 L 157.105469 445.816406 L 154.738281 447.914062 L 152.410156 449.9375 L 150.167969 451.859375 L 148.019531 453.675781 L 145.933594 455.425781 L 143.820312 457.132812 L 141.621094 458.691406 L 139.324219 459.984375 L 136.96875 460.90625 L 134.601562 461.378906 Z M 133.582031 461.429688 "/>
<path style=" stroke:none;fill-rule:nonzero;fill:rgb(95.686275%,95.686275%,95.686275%);fill-opacity:1;" d="M 131.089844 285.757812 L 128.589844 285.453125 L 126.132812 284.574219 L 123.773438 283.203125 L 121.546875 281.457031 L 119.445312 279.496094 L 117.40625 277.457031 L 115.402344 275.371094 L 113.523438 273.203125 L 111.867188 270.976562 L 110.53125 268.734375 L 109.632812 266.671875 L 109.066406 264.433594 L 108.960938 262.328125 L 109.265625 260.394531 L 109.886719 258.644531 L 110.691406 257.035156 L 111.554688 255.453125 L 112.519531 253.773438 L 113.667969 251.941406 L 115.023438 249.957031 L 116.582031 247.867188 L 117.148438 247.140625 L 118.878906 245.035156 L 120.734375 242.917969 L 122.648438 240.839844 L 124.570312 238.839844 L 126.460938 236.929688 L 128.339844 235.0625 L 130.292969 233.289062 L 132.367188 231.75 L 134.5625 230.59375 L 136.835938 229.925781 L 138.445312 229.785156 L 140.792969 230.082031 L 143.097656 230.945312 L 145.300781 232.28125 L 147.375 233.960938 L 149.328125 235.832031 L 151.242188 237.753906 L 153.121094 239.746094 L 154.882812 241.832031 L 156.4375 243.984375 L 157.699219 246.148438 L 158.167969 247.140625 L 158.933594 249.308594 L 159.3125 251.371094 L 159.347656 253.289062 L 159.113281 255.042969 L 158.722656 256.675781 L 158.277344 258.304688 L 157.691406 260.058594 L 156.859375 262 L 155.730469 264.128906 L 154.300781 266.398438 L 154.117188 266.671875 L 152.539062 268.828125 L 150.761719 271.023438 L 148.847656 273.203125 L 146.859375 275.328125 L 144.855469 277.375 L 142.855469 279.375 L 140.804688 281.308594 L 138.632812 283.042969 L 136.332031 284.433594 L 133.9375 285.363281 L 131.488281 285.75 Z M 131.089844 285.757812 "/>
<path style=" stroke:none;fill-rule:nonzero;fill:rgb(95.686275%,95.686275%,95.686275%);fill-opacity:1;" d="M 236.78125 174.800781 L 234.296875 174.5 L 231.859375 173.636719 L 229.511719 172.285156 L 227.296875 170.5625 L 225.207031 168.621094 L 223.179688 166.597656 L 221.171875 164.53125 L 219.238281 162.382812 L 217.453125 160.164062 L 215.90625 157.921875 L 214.667969 155.710938 L 214.609375 155.589844 L 213.671875 153.273438 L 213.140625 151.089844 L 212.984375 149.082031 L 213.117188 147.257812 L 213.421875 145.578125 L 213.78125 143.910156 L 214.265625 142.136719 L 214.957031 140.210938 L 215.910156 138.148438 L 217.125 135.996094 L 217.34375 135.648438 L 218.804688 133.507812 L 220.46875 131.367188 L 222.261719 129.28125 L 224.121094 127.296875 L 225.988281 125.398438 L 227.859375 123.546875 L 229.8125 121.808594 L 231.898438 120.335938 L 234.097656 119.265625 L 236.363281 118.710938 L 237.453125 118.644531 L 239.738281 118.933594 L 241.984375 119.773438 L 244.128906 121.074219 L 246.148438 122.714844 L 248.050781 124.535156 L 249.917969 126.410156 L 251.78125 128.355469 L 253.601562 130.402344 L 255.300781 132.527344 L 256.8125 134.675781 L 257.417969 135.648438 L 258.597656 137.820312 L 259.496094 139.902344 L 260.121094 141.855469 L 260.515625 143.65625 L 260.769531 145.335938 L 260.96875 147.011719 L 261.019531 148.816406 L 260.796875 150.804688 L 260.21875 152.972656 L 259.25 155.277344 L 259.09375 155.589844 L 257.816406 157.792969 L 256.25 160.03125 L 254.453125 162.25 L 252.515625 164.398438 L 250.511719 166.46875 L 248.488281 168.488281 L 246.410156 170.4375 L 244.207031 172.171875 L 241.875 173.554688 L 239.445312 174.457031 L 236.96875 174.796875 Z M 236.78125 174.800781 "/>
<path style=" stroke:none;fill-rule:nonzero;fill:rgb(95.686275%,95.686275%,95.686275%);fill-opacity:1;" d="M 532.078125 568.515625 L 529.875 567.359375 L 527.617188 565.859375 L 525.359375 564.089844 L 523.148438 562.132812 L 521.011719 560.074219 L 518.917969 557.988281 L 516.890625 555.851562 L 515.054688 553.59375 L 513.558594 551.203125 L 512.53125 548.707031 L 512.058594 546.152344 L 512.03125 545.410156 L 512.328125 542.871094 L 513.191406 540.367188 L 514.546875 537.957031 L 516.277344 535.671875 L 518.25 533.519531 L 520.316406 531.4375 L 522.417969 529.371094 L 524.585938 527.34375 L 526.816406 525.425781 L 529.066406 523.6875 L 531.277344 522.207031 L 532.078125 521.734375 L 534.4375 520.554688 L 536.632812 519.773438 L 538.625 519.363281 L 540.410156 519.253906 L 542.042969 519.320312 L 543.671875 519.441406 L 545.417969 519.703125 L 547.335938 520.210938 L 549.402344 521.019531 L 551.585938 522.148438 L 551.664062 522.191406 L 553.792969 523.558594 L 555.941406 525.164062 L 558.050781 526.945312 L 560.078125 528.820312 L 562.019531 530.726562 L 563.921875 532.640625 L 565.71875 534.636719 L 567.261719 536.761719 L 568.402344 539.003906 L 569.039062 541.324219 L 569.144531 542.734375 L 568.855469 545.054688 L 568.019531 547.332031 L 566.722656 549.515625 L 565.082031 551.574219 L 563.246094 553.515625 L 561.347656 555.410156 L 559.394531 557.316406 L 557.351562 559.21875 L 555.238281 561.058594 L 553.109375 562.773438 L 551.664062 563.84375 L 549.503906 565.296875 L 547.453125 566.496094 L 545.550781 567.449219 L 543.8125 568.1875 L 542.199219 568.777344 L 540.589844 569.316406 L 538.851562 569.695312 L 536.910156 569.773438 L 534.769531 569.453125 L 532.457031 568.683594 Z M 532.078125 568.515625 "/>
<path style=" stroke:none;fill-rule:nonzero;fill:rgb(95.686275%,95.686275%,95.686275%);fill-opacity:1;" d="M 274.570312 170.472656 L 272.53125 170.242188 L 270.519531 169.566406 L 268.578125 168.511719 L 266.730469 167.148438 L 264.988281 165.585938 L 263.3125 163.933594 L 261.65625 162.222656 L 260.042969 160.308594 L 258.542969 158.101562 L 257.21875 155.558594 L 256.128906 152.683594 L 255.492188 150.324219 L 254.964844 147.382812 L 254.664062 144.273438 L 254.578125 141.054688 L 254.683594 137.792969 L 254.941406 134.542969 L 255.304688 131.339844 L 255.714844 128.171875 L 256.152344 124.984375 L 256.679688 121.734375 L 257.335938 118.433594 L 258.148438 115.125 L 259.132812 111.871094 L 260.285156 108.734375 L 260.800781 107.496094 L 262.390625 104.191406 L 264.15625 101.160156 L 266.042969 98.441406 L 267.992188 96.039062 L 269.957031 93.910156 L 271.910156 91.9375 L 273.886719 90.015625 L 275.964844 88.242188 L 278.164062 86.742188 L 280.472656 85.628906 L 282.84375 84.996094 L 284.476562 84.871094 L 286.949219 85.160156 L 289.382812 86.003906 L 291.726562 87.328125 L 293.945312 89.019531 L 296.039062 90.941406 L 298.0625 92.949219 L 300.09375 94.992188 L 302.148438 97.078125 L 304.191406 99.1875 L 306.167969 101.273438 L 308.019531 103.277344 L 308.546875 103.859375 L 310.617188 106.21875 L 312.347656 108.300781 L 313.730469 110.074219 L 314.839844 111.589844 L 315.847656 113.015625 L 316.757812 114.542969 L 317.449219 116.238281 L 317.804688 118.09375 L 317.816406 119.4375 L 317.503906 121.359375 L 316.84375 123.296875 L 315.902344 125.175781 L 314.796875 126.964844 L 313.632812 128.699219 L 312.417969 130.496094 L 311.117188 132.414062 L 309.742188 134.429688 L 308.332031 136.480469 L 308.285156 136.554688 L 306.9375 138.5 L 305.628906 140.378906 L 304.394531 142.144531 L 303.246094 143.777344 L 302.15625 145.324219 L 301.011719 146.921875 L 299.6875 148.683594 L 298.140625 150.632812 L 296.375 152.746094 L 295.554688 153.695312 L 293.761719 155.707031 L 291.871094 157.75 L 289.945312 159.769531 L 288.03125 161.722656 L 286.164062 163.601562 L 284.304688 165.445312 L 282.371094 167.183594 L 280.3125 168.671875 L 278.136719 169.769531 L 275.890625 170.375 Z M 274.570312 170.472656 "/>
<path style=" stroke:none;fill-rule:nonzero;fill:rgb(95.686275%,95.686275%,95.686275%);fill-opacity:1;" d="M 303.890625 475.023438 L 301.582031 474.730469 L 299.324219 473.878906 L 297.160156 472.5625 L 295.128906 470.90625 L 293.210938 469.066406 L 291.332031 467.175781 L 289.480469 465.210938 L 287.722656 463.136719 L 286.144531 460.984375 L 284.824219 458.800781 L 284.390625 457.945312 L 283.492188 455.746094 L 282.941406 453.632812 L 282.703125 451.644531 L 282.714844 449.808594 L 282.875 448.089844 L 283.082031 446.382812 L 283.421875 444.566406 L 283.980469 442.597656 L 284.8125 440.496094 L 285.9375 438.304688 L 286.101562 438.019531 L 287.492188 435.851562 L 289.105469 433.695312 L 290.871094 431.597656 L 292.722656 429.597656 L 294.589844 427.695312 L 296.46875 425.835938 L 298.433594 424.09375 L 300.527344 422.613281 L 302.734375 421.546875 L 305.011719 420.992188 L 306.082031 420.925781 L 308.386719 421.222656 L 310.648438 422.074219 L 312.8125 423.390625 L 314.84375 425.046875 L 316.761719 426.886719 L 318.644531 428.777344 L 320.496094 430.746094 L 322.253906 432.820312 L 323.835938 434.972656 L 325.15625 437.15625 L 325.59375 438.019531 L 326.488281 440.214844 L 327.039062 442.332031 L 327.273438 444.320312 L 327.261719 446.15625 L 327.097656 447.875 L 326.882812 449.582031 L 326.542969 451.398438 L 325.984375 453.367188 L 325.148438 455.46875 L 324.023438 457.65625 L 323.859375 457.945312 L 322.46875 460.109375 L 320.855469 462.269531 L 319.085938 464.367188 L 317.238281 466.363281 L 315.367188 468.265625 L 313.488281 470.121094 L 311.527344 471.863281 L 309.4375 473.339844 L 307.226562 474.410156 L 304.953125 474.960938 Z M 303.890625 475.023438 "/>
<path style="fill:none;stroke-width:0.75;stroke-linecap:round;stroke-linejoin:round;stroke:rgb(66.27451%,66.27451%,66.27451%);stroke-opacity:1;stroke-miterlimit:10;" d="M 356.980469 429.359375 L 349.324219 418.863281 "/>
<path style="fill:none;stroke-width:0.75;stroke-linecap:round;stroke-linejoin:round;stroke:rgb(66.27451%,66.27451%,66.27451%);stroke-opacity:1;stroke-miterlimit:10;" d="M 484.804688 260.125 L 478.515625 272.015625 "/>
<path style="fill:none;stroke-width:0.75;stroke-linecap:round;stroke-linejoin:round;stroke:rgb(66.27451%,66.27451%,66.27451%);stroke-opacity:1;stroke-miterlimit:10;" d="M 374.03125 96.175781 L 379.015625 107.917969 "/>
<path style="fill:none;stroke-width:0.75;stroke-linecap:round;stroke-linejoin:round;stroke:rgb(66.27451%,66.27451%,66.27451%);stroke-opacity:1;stroke-miterlimit:10;" d="M 378.871094 129.101562 L 380.214844 115.84375 "/>
<path style="fill:none;stroke-width:0.75;stroke-linecap:round;stroke-linejoin:round;stroke:rgb(66.27451%,66.27451%,66.27451%);stroke-opacity:1;stroke-miterlimit:10;" d="M 116.09375 355.246094 L 117.269531 365.15625 "/>
<path style="fill:none;stroke-width:0.75;stroke-linecap:round;stroke-linejoin:round;stroke:rgb(66.27451%,66.27451%,66.27451%);stroke-opacity:1;stroke-miterlimit:10;" d="M 167.105469 281.972656 L 179.75 275.546875 "/>
<path style="fill:none;stroke-width:0.75;stroke-linecap:round;stroke-linejoin:round;stroke:rgb(66.27451%,66.27451%,66.27451%);stroke-opacity:1;stroke-miterlimit:10;" d="M 521.753906 342.132812 L 509.570312 348.363281 "/>
<path style="fill:none;stroke-width:0.75;stroke-linecap:round;stroke-linejoin:round;stroke:rgb(66.27451%,66.27451%,66.27451%);stroke-opacity:1;stroke-miterlimit:10;" d="M 198.933594 282.675781 L 187.777344 275.859375 "/>
<path style="fill:none;stroke-width:0.75;stroke-linecap:round;stroke-linejoin:round;stroke:rgb(66.27451%,66.27451%,66.27451%);stroke-opacity:1;stroke-miterlimit:10;" d="M 427.050781 413.863281 L 428.988281 426.804688 "/>
<path style="fill:none;stroke-width:0.75;stroke-linecap:round;stroke-linejoin:round;stroke:rgb(66.27451%,66.27451%,66.27451%);stroke-opacity:1;stroke-miterlimit:10;" d="M 135.242188 418.242188 L 129.265625 407.441406 "/>
<path style="fill:none;stroke-width:0.75;stroke-linecap:round;stroke-linejoin:round;stroke:rgb(66.27451%,66.27451%,66.27451%);stroke-opacity:1;stroke-miterlimit:10;" d="M 144.328125 423 L 157.179688 421.710938 "/>
<path style="fill:none;stroke-width:0.75;stroke-linecap:round;stroke-linejoin:round;stroke:rgb(66.27451%,66.27451%,66.27451%);stroke-opacity:1;stroke-miterlimit:10;" d="M 136.71875 429.566406 L 133.769531 441.273438 "/>
<path style="fill:none;stroke-width:0.75;stroke-linecap:round;stroke-linejoin:round;stroke:rgb(66.27451%,66.27451%,66.27451%);stroke-opacity:1;stroke-miterlimit:10;" d="M 133.238281 260.574219 L 137.242188 250.601562 "/>
<path style="fill:none;stroke-width:0.75;stroke-linecap:round;stroke-linejoin:round;stroke:rgb(66.27451%,66.27451%,66.27451%);stroke-opacity:1;stroke-miterlimit:10;" d="M 237.359375 138.597656 L 236.988281 149.054688 "/>
<path style="fill:none;stroke-width:0.75;stroke-linecap:round;stroke-linejoin:round;stroke:rgb(66.27451%,66.27451%,66.27451%);stroke-opacity:1;stroke-miterlimit:10;" d="M 184.476562 268.90625 L 186.523438 253.960938 "/>
<path style="fill:none;stroke-width:0.75;stroke-linecap:round;stroke-linejoin:round;stroke:rgb(66.27451%,66.27451%,66.27451%);stroke-opacity:1;stroke-miterlimit:10;" d="M 540.113281 544.359375 L 547.761719 543.234375 "/>
<path style="fill:none;stroke-width:0.75;stroke-linecap:round;stroke-linejoin:round;stroke:rgb(66.27451%,66.27451%,66.27451%);stroke-opacity:1;stroke-miterlimit:10;" d="M 287.550781 134.367188 L 295.589844 121.839844 "/>
<path style="fill:none;stroke-width:0.75;stroke-linecap:round;stroke-linejoin:round;stroke:rgb(66.27451%,66.27451%,66.27451%);stroke-opacity:1;stroke-miterlimit:10;" d="M 284.480469 138.945312 L 276.109375 150.890625 "/>
<path style="fill:none;stroke-width:0.75;stroke-linecap:round;stroke-linejoin:round;stroke:rgb(66.27451%,66.27451%,66.27451%);stroke-opacity:1;stroke-miterlimit:10;" d="M 305.78125 440.976562 L 304.1875 455.003906 "/>
<path style="fill:none;stroke-width:0.75;stroke-linecap:round;stroke-linejoin:round;stroke:rgb(66.27451%,66.27451%,66.27451%);stroke-opacity:1;stroke-miterlimit:10;" d="M 288.785156 109.765625 L 295.121094 116.59375 "/>
<path style=" stroke:none;fill-rule:nonzero;fill:rgb(3.137255%,81.960784%,81.960784%);fill-opacity:1;" d="M 361.515625 431.664062 C 361.515625 435.472656 355.804688 435.472656 355.804688 431.664062 C 355.804688 427.859375 361.515625 427.859375 361.515625 431.664062 "/>
<path style=" stroke:none;fill-rule:nonzero;fill:rgb(3.137255%,81.960784%,81.960784%);fill-opacity:1;" d="M 413.535156 230.082031 C 413.535156 233.75 408.03125 233.75 408.03125 230.082031 C 408.03125 226.414062 413.535156 226.414062 413.535156 230.082031 "/>
<path style=" stroke:none;fill-rule:nonzero;fill:rgb(3.137255%,81.960784%,81.960784%);fill-opacity:1;" d="M 441.433594 113.070312 L 462.15625 113.070312 L 462.15625 133.792969 L 441.433594 133.792969 Z M 441.433594 113.070312 "/>
<path style=" stroke:none;fill-rule:nonzero;fill:rgb(3.137255%,81.960784%,81.960784%);fill-opacity:1;" d="M 383.449219 443.226562 L 404.171875 443.226562 L 404.171875 463.949219 L 383.449219 463.949219 Z M 383.449219 443.226562 "/>
<path style=" stroke:none;fill-rule:nonzero;fill:rgb(3.137255%,81.960784%,81.960784%);fill-opacity:1;" d="M 551.097656 205.667969 C 551.097656 209.441406 545.441406 209.441406 545.441406 205.667969 C 545.441406 201.898438 551.097656 201.898438 551.097656 205.667969 "/>
<path style=" stroke:none;fill-rule:nonzero;fill:rgb(3.137255%,81.960784%,81.960784%);fill-opacity:1;" d="M 488.851562 257.683594 C 488.851562 261.363281 483.332031 261.363281 483.332031 257.683594 C 483.332031 254.003906 488.851562 254.003906 488.851562 257.683594 "/>
<path style=" stroke:none;fill-rule:nonzero;fill:rgb(3.137255%,81.960784%,81.960784%);fill-opacity:1;" d="M 375.636719 93.753906 C 375.636719 97.261719 370.371094 97.261719 370.371094 93.753906 C 370.371094 90.242188 375.636719 90.242188 375.636719 93.753906 "/>
<path style=" stroke:none;fill-rule:nonzero;fill:rgb(3.137255%,81.960784%,81.960784%);fill-opacity:1;" d="M 381.277344 131.761719 C 381.277344 135.332031 375.925781 135.332031 375.925781 131.761719 C 375.925781 128.195312 381.277344 128.195312 381.277344 131.761719 "/>
<path style=" stroke:none;fill-rule:nonzero;fill:rgb(3.137255%,81.960784%,81.960784%);fill-opacity:1;" d="M 419.632812 152.785156 C 419.632812 156.003906 417.023438 158.613281 413.804688 158.613281 C 410.589844 158.613281 407.980469 156.003906 407.980469 152.785156 C 407.980469 149.570312 410.589844 146.960938 413.804688 146.960938 C 417.023438 146.960938 419.632812 149.570312 419.632812 152.785156 "/>
<path style=" stroke:none;fill-rule:nonzero;fill:rgb(3.137255%,81.960784%,81.960784%);fill-opacity:1;" d="M 616.183594 252.5625 C 616.183594 258.1875 607.746094 258.1875 607.746094 252.5625 C 607.746094 246.9375 616.183594 246.9375 616.183594 252.5625 "/>
<path style=" stroke:none;fill-rule:nonzero;fill:rgb(3.137255%,81.960784%,81.960784%);fill-opacity:1;" d="M 121.640625 349.003906 C 121.640625 352.476562 118.824219 355.292969 115.351562 355.292969 C 111.878906 355.292969 109.066406 352.476562 109.066406 349.003906 C 109.066406 345.53125 111.878906 342.71875 115.351562 342.71875 C 118.824219 342.71875 121.640625 345.53125 121.640625 349.003906 "/>
<path style=" stroke:none;fill-rule:nonzero;fill:rgb(3.137255%,81.960784%,81.960784%);fill-opacity:1;" d="M 430.734375 197.039062 C 430.734375 200.546875 425.472656 200.546875 425.472656 197.039062 C 425.472656 193.53125 430.734375 193.53125 430.734375 197.039062 "/>
<path style=" stroke:none;fill-rule:nonzero;fill:rgb(3.137255%,81.960784%,81.960784%);fill-opacity:1;" d="M 322.511719 267.703125 C 322.511719 271.492188 316.824219 271.492188 316.824219 267.703125 C 316.824219 263.910156 322.511719 263.910156 322.511719 267.703125 "/>
<path style=" stroke:none;fill-rule:nonzero;fill:rgb(3.137255%,81.960784%,81.960784%);fill-opacity:1;" d="M 573.929688 511.644531 C 573.929688 515.933594 567.496094 515.933594 567.496094 511.644531 C 567.496094 507.355469 573.929688 507.355469 573.929688 511.644531 "/>
<path style=" stroke:none;fill-rule:nonzero;fill:rgb(3.137255%,81.960784%,81.960784%);fill-opacity:1;" d="M 167.390625 283.171875 C 167.390625 286.707031 162.089844 286.707031 162.089844 283.171875 C 162.089844 279.636719 167.390625 279.636719 167.390625 283.171875 "/>
<path style=" stroke:none;fill-rule:nonzero;fill:rgb(3.137255%,81.960784%,81.960784%);fill-opacity:1;" d="M 446.691406 299.285156 C 446.691406 303.625 440.183594 303.625 440.183594 299.285156 C 440.183594 294.945312 446.691406 294.945312 446.691406 299.285156 "/>
<path style=" stroke:none;fill-rule:nonzero;fill:rgb(3.137255%,81.960784%,81.960784%);fill-opacity:1;" d="M 308.253906 228.746094 C 308.253906 232.632812 302.429688 232.632812 302.429688 228.746094 C 302.429688 224.863281 308.253906 224.863281 308.253906 228.746094 "/>
<path style=" stroke:none;fill-rule:nonzero;fill:rgb(3.137255%,81.960784%,81.960784%);fill-opacity:1;" d="M 527.5625 340.734375 C 527.5625 344.832031 521.414062 344.832031 521.414062 340.734375 C 521.414062 336.636719 527.5625 336.636719 527.5625 340.734375 "/>
<path style=" stroke:none;fill-rule:nonzero;fill:rgb(3.137255%,81.960784%,81.960784%);fill-opacity:1;" d="M 242.914062 489.9375 C 242.914062 493.460938 237.628906 493.460938 237.628906 489.9375 C 237.628906 486.414062 242.914062 486.414062 242.914062 489.9375 "/>
<path style=" stroke:none;fill-rule:nonzero;fill:rgb(18.039216%,73.72549%,50.980392%);fill-opacity:1;" d="M 248.921875 560.121094 C 248.921875 563.753906 243.480469 563.753906 243.480469 560.121094 C 243.480469 556.492188 248.921875 556.492188 248.921875 560.121094 "/>
<path style=" stroke:none;fill-rule:nonzero;fill:rgb(18.039216%,56.862745%,73.72549%);fill-opacity:1;" d="M 141.511719 325.238281 C 141.511719 331.609375 131.957031 331.609375 131.957031 325.238281 C 131.957031 318.871094 141.511719 318.871094 141.511719 325.238281 "/>
<path style=" stroke:none;fill-rule:nonzero;fill:rgb(18.039216%,35.294118%,73.72549%);fill-opacity:1;" d="M 223.734375 248.832031 L 244.457031 248.832031 L 244.457031 269.554688 L 223.734375 269.554688 Z M 223.734375 248.832031 "/>
<path style=" stroke:none;fill-rule:nonzero;fill:rgb(18.039216%,35.294118%,73.72549%);fill-opacity:1;" d="M 469.683594 103.140625 L 490.40625 103.140625 L 490.40625 123.863281 L 469.683594 123.863281 Z M 469.683594 103.140625 "/>
<path style=" stroke:none;fill-rule:nonzero;fill:rgb(18.039216%,35.294118%,73.72549%);fill-opacity:1;" d="M 205.921875 284.640625 C 205.921875 289.667969 198.382812 289.667969 198.382812 284.640625 C 198.382812 279.613281 205.921875 279.613281 205.921875 284.640625 "/>
<path style=" stroke:none;fill-rule:nonzero;fill:rgb(18.039216%,35.294118%,73.72549%);fill-opacity:1;" d="M 512.089844 569.8125 C 512.089844 573.410156 506.695312 573.410156 506.695312 569.8125 C 506.695312 566.214844 512.089844 566.214844 512.089844 569.8125 "/>
<path style=" stroke:none;fill-rule:nonzero;fill:rgb(18.039216%,35.294118%,73.72549%);fill-opacity:1;" d="M 352.179688 472.4375 C 352.179688 476.097656 346.6875 476.097656 346.6875 472.4375 C 346.6875 468.773438 352.179688 468.773438 352.179688 472.4375 "/>
<path style=" stroke:none;fill-rule:nonzero;fill:rgb(18.039216%,35.294118%,73.72549%);fill-opacity:1;" d="M 237.683594 431.1875 C 237.683594 434.644531 232.503906 434.644531 232.503906 431.1875 C 232.503906 427.734375 237.683594 427.734375 237.683594 431.1875 "/>
<path style=" stroke:none;fill-rule:nonzero;fill:rgb(18.039216%,35.294118%,73.72549%);fill-opacity:1;" d="M 515.175781 423.332031 C 515.175781 427.347656 509.152344 427.347656 509.152344 423.332031 C 509.152344 419.3125 515.175781 419.3125 515.175781 423.332031 "/>
<path style=" stroke:none;fill-rule:nonzero;fill:rgb(18.039216%,35.294118%,73.72549%);fill-opacity:1;" d="M 353.6875 576.660156 C 353.6875 579.660156 351.257812 582.089844 348.257812 582.089844 C 345.261719 582.089844 342.828125 579.660156 342.828125 576.660156 C 342.828125 573.660156 345.261719 571.230469 348.257812 571.230469 C 351.257812 571.230469 353.6875 573.660156 353.6875 576.660156 "/>
<path style=" stroke:none;fill-rule:nonzero;fill:rgb(18.039216%,35.294118%,73.72549%);fill-opacity:1;" d="M 561.386719 358.832031 C 561.386719 362.464844 555.933594 362.464844 555.933594 358.832031 C 555.933594 355.195312 561.386719 355.195312 561.386719 358.832031 "/>
<path style=" stroke:none;fill-rule:nonzero;fill:rgb(18.039216%,35.294118%,73.72549%);fill-opacity:1;" d="M 286.335938 193.414062 C 286.335938 198.617188 282.117188 202.835938 276.910156 202.835938 C 271.707031 202.835938 267.488281 198.617188 267.488281 193.414062 C 267.488281 188.210938 271.707031 183.992188 276.910156 183.992188 C 282.117188 183.992188 286.335938 188.210938 286.335938 193.414062 "/>
<path style=" stroke:none;fill-rule:nonzero;fill:rgb(18.039216%,35.294118%,73.72549%);fill-opacity:1;" d="M 429.398438 411.140625 C 429.398438 414.8125 423.886719 414.8125 423.886719 411.140625 C 423.886719 407.464844 429.398438 407.464844 429.398438 411.140625 "/>
<path style=" stroke:none;fill-rule:nonzero;fill:rgb(18.039216%,35.294118%,73.72549%);fill-opacity:1;" d="M 177.320312 522.347656 C 177.320312 525.828125 172.097656 525.828125 172.097656 522.347656 C 172.097656 518.867188 177.320312 518.867188 177.320312 522.347656 "/>
<path style=" stroke:none;fill-rule:nonzero;fill:rgb(18.039216%,35.294118%,73.72549%);fill-opacity:1;" d="M 120.238281 367.792969 C 120.238281 371.332031 114.925781 371.332031 114.925781 367.792969 C 114.925781 364.25 120.238281 364.25 120.238281 367.792969 "/>
<path style=" stroke:none;fill-rule:nonzero;fill:rgb(18.039216%,35.294118%,73.72549%);fill-opacity:1;" d="M 178.683594 320.929688 C 178.683594 326.425781 174.226562 330.886719 168.726562 330.886719 C 163.230469 330.886719 158.769531 326.425781 158.769531 320.929688 C 158.769531 315.429688 163.230469 310.972656 168.726562 310.972656 C 174.226562 310.972656 178.683594 315.429688 178.683594 320.929688 "/>
<path style=" stroke:none;fill-rule:nonzero;fill:rgb(18.039216%,35.294118%,73.72549%);fill-opacity:1;" d="M 590.546875 428.613281 C 590.546875 434.367188 581.914062 434.367188 581.914062 428.613281 C 581.914062 422.859375 590.546875 422.859375 590.546875 428.613281 "/>
<path style=" stroke:none;fill-rule:nonzero;fill:rgb(18.039216%,35.294118%,73.72549%);fill-opacity:1;" d="M 354.222656 194.230469 C 354.222656 199.355469 346.542969 199.355469 346.542969 194.230469 C 346.542969 189.109375 354.222656 189.109375 354.222656 194.230469 "/>
<path style=" stroke:none;fill-rule:nonzero;fill:rgb(3.529412%,80.784314%,55.294118%);fill-opacity:1;" d="M 438.875 556.320312 C 438.875 562.382812 429.785156 562.382812 429.785156 556.320312 C 429.785156 550.261719 438.875 550.261719 438.875 556.320312 "/>
<path style=" stroke:none;fill-rule:nonzero;fill:rgb(87.843137%,65.098039%,3.137255%);fill-opacity:1;" d="M 511.8125 481.996094 C 511.8125 485.558594 506.46875 485.558594 506.46875 481.996094 C 506.46875 478.433594 511.8125 478.433594 511.8125 481.996094 "/>
<path style=" stroke:none;fill-rule:nonzero;fill:rgb(3.529412%,44.705882%,39.607843%);fill-opacity:1;" d="M 508.867188 136.511719 C 508.867188 140.105469 503.476562 140.105469 503.476562 136.511719 C 503.476562 132.917969 508.867188 132.917969 508.867188 136.511719 "/>
<path style=" stroke:none;fill-rule:nonzero;fill:rgb(3.529412%,44.705882%,39.607843%);fill-opacity:1;" d="M 536.847656 147.5 C 536.847656 151.695312 530.554688 151.695312 530.554688 147.5 C 530.554688 143.300781 536.847656 143.300781 536.847656 147.5 "/>
<path style=" stroke:none;fill-rule:nonzero;fill:rgb(3.529412%,44.705882%,39.607843%);fill-opacity:1;" d="M 200.101562 312.257812 L 220.824219 312.257812 L 220.824219 332.980469 L 200.101562 332.980469 Z M 200.101562 312.257812 "/>
<path style=" stroke:none;fill-rule:nonzero;fill:rgb(3.529412%,44.705882%,39.607843%);fill-opacity:1;" d="M 220.183594 213.703125 L 240.90625 213.703125 L 240.90625 234.425781 L 220.183594 234.425781 Z M 220.183594 213.703125 "/>
<path style=" stroke:none;fill-rule:nonzero;fill:rgb(67.058824%,33.72549%,84.705882%);fill-opacity:1;" d="M 484.480469 591.074219 C 484.480469 594.867188 478.792969 594.867188 478.792969 591.074219 C 478.792969 587.285156 484.480469 587.285156 484.480469 591.074219 "/>
<path style=" stroke:none;fill-rule:nonzero;fill:rgb(67.058824%,33.72549%,84.705882%);fill-opacity:1;" d="M 451.921875 591.476562 C 451.921875 596.804688 443.933594 596.804688 443.933594 591.476562 C 443.933594 586.148438 451.921875 586.148438 451.921875 591.476562 "/>
<path style=" stroke:none;fill-rule:nonzero;fill:rgb(67.058824%,33.72549%,84.705882%);fill-opacity:1;" d="M 562.605469 381.792969 L 583.328125 381.792969 L 583.328125 402.515625 L 562.605469 402.515625 Z M 562.605469 381.792969 "/>
<path style=" stroke:none;fill-rule:nonzero;fill:rgb(67.058824%,33.72549%,84.705882%);fill-opacity:1;" d="M 144.355469 423.613281 C 144.355469 427.003906 141.609375 429.753906 138.21875 429.753906 C 134.828125 429.753906 132.078125 427.003906 132.078125 423.613281 C 132.078125 420.222656 134.828125 417.476562 138.21875 417.476562 C 141.609375 417.476562 144.355469 420.222656 144.355469 423.613281 "/>
<path style=" stroke:none;fill-rule:nonzero;fill:rgb(67.058824%,33.72549%,84.705882%);fill-opacity:1;" d="M 316.648438 163.554688 C 316.648438 167.332031 310.988281 167.332031 310.988281 163.554688 C 310.988281 159.78125 316.648438 159.78125 316.648438 163.554688 "/>
<path style=" stroke:none;fill-rule:nonzero;fill:rgb(67.058824%,33.72549%,84.705882%);fill-opacity:1;" d="M 640.121094 382.609375 C 640.121094 386.296875 637.132812 389.285156 633.449219 389.285156 C 629.761719 389.285156 626.773438 386.296875 626.773438 382.609375 C 626.773438 378.921875 629.761719 375.933594 633.449219 375.933594 C 637.132812 375.933594 640.121094 378.921875 640.121094 382.609375 "/>
<path style=" stroke:none;fill-rule:nonzero;fill:rgb(67.058824%,33.72549%,84.705882%);fill-opacity:1;" d="M 136.867188 265.9375 C 136.867188 269.128906 134.277344 271.714844 131.089844 271.714844 C 127.898438 271.714844 125.3125 269.128906 125.3125 265.9375 C 125.3125 262.746094 127.898438 260.160156 131.089844 260.160156 C 134.277344 260.160156 136.867188 262.746094 136.867188 265.9375 "/>
<path style=" stroke:none;fill-rule:nonzero;fill:rgb(67.058824%,33.72549%,84.705882%);fill-opacity:1;" d="M 444.414062 250.554688 C 444.414062 254.125 439.054688 254.125 439.054688 250.554688 C 439.054688 246.980469 444.414062 246.980469 444.414062 250.554688 "/>
<path style=" stroke:none;fill-rule:nonzero;fill:rgb(3.921569%,62.745098%,12.156863%);fill-opacity:1;" d="M 240.070312 135.980469 C 240.070312 139.472656 234.835938 139.472656 234.835938 135.980469 C 234.835938 132.492188 240.070312 132.492188 240.070312 135.980469 "/>
<path style=" stroke:none;fill-rule:nonzero;fill:rgb(3.921569%,62.745098%,12.156863%);fill-opacity:1;" d="M 125.46875 300.210938 C 125.46875 306.261719 116.398438 306.261719 116.398438 300.210938 C 116.398438 294.164062 125.46875 294.164062 125.46875 300.210938 "/>
<path style=" stroke:none;fill-rule:nonzero;fill:rgb(3.921569%,62.745098%,12.156863%);fill-opacity:1;" d="M 547.632812 476.34375 C 547.632812 480.125 541.964844 480.125 541.964844 476.34375 C 541.964844 472.5625 547.632812 472.5625 547.632812 476.34375 "/>
<path style=" stroke:none;fill-rule:nonzero;fill:rgb(3.921569%,62.745098%,12.156863%);fill-opacity:1;" d="M 256.164062 287.828125 C 256.164062 291.484375 250.679688 291.484375 250.679688 287.828125 C 250.679688 284.171875 256.164062 284.171875 256.164062 287.828125 "/>
<path style=" stroke:none;fill-rule:nonzero;fill:rgb(3.921569%,62.745098%,12.156863%);fill-opacity:1;" d="M 581.96875 192.027344 C 581.96875 197.203125 574.203125 197.203125 574.203125 192.027344 C 574.203125 186.847656 581.96875 186.847656 581.96875 192.027344 "/>
<path style=" stroke:none;fill-rule:nonzero;fill:rgb(3.921569%,62.745098%,12.156863%);fill-opacity:1;" d="M 611.339844 397.722656 C 611.339844 403.5 602.671875 403.5 602.671875 397.722656 C 602.671875 391.945312 611.339844 391.945312 611.339844 397.722656 "/>
<path style=" stroke:none;fill-rule:nonzero;fill:rgb(3.921569%,62.745098%,12.156863%);fill-opacity:1;" d="M 615.332031 455.144531 C 615.332031 458.644531 610.082031 458.644531 610.082031 455.144531 C 610.082031 451.644531 615.332031 451.644531 615.332031 455.144531 "/>
<path style=" stroke:none;fill-rule:nonzero;fill:rgb(3.921569%,62.745098%,12.156863%);fill-opacity:1;" d="M 188.449219 273.464844 C 188.449219 279.597656 179.25 279.597656 179.25 273.464844 C 179.25 267.332031 188.449219 267.332031 188.449219 273.464844 "/>
<path style=" stroke:none;fill-rule:nonzero;fill:rgb(3.921569%,62.745098%,12.156863%);fill-opacity:1;" d="M 498.949219 206.316406 C 498.949219 209.851562 493.644531 209.851562 493.644531 206.316406 C 493.644531 202.78125 498.949219 202.78125 498.949219 206.316406 "/>
<path style=" stroke:none;fill-rule:nonzero;fill:rgb(3.921569%,62.745098%,12.156863%);fill-opacity:1;" d="M 200.578125 216.554688 C 200.578125 220.167969 195.164062 220.167969 195.164062 216.554688 C 195.164062 212.945312 200.578125 212.945312 200.578125 216.554688 "/>
<path style=" stroke:none;fill-rule:nonzero;fill:rgb(3.921569%,62.745098%,12.156863%);fill-opacity:1;" d="M 205.472656 185.808594 C 205.472656 189.535156 199.886719 189.535156 199.886719 185.808594 C 199.886719 182.085938 205.472656 182.085938 205.472656 185.808594 "/>
<path style=" stroke:none;fill-rule:nonzero;fill:rgb(3.921569%,62.745098%,12.156863%);fill-opacity:1;" d="M 540.1875 545.410156 C 540.1875 549.394531 536.960938 552.621094 532.980469 552.621094 C 528.996094 552.621094 525.769531 549.394531 525.769531 545.410156 C 525.769531 541.429688 528.996094 538.203125 532.980469 538.203125 C 536.960938 538.203125 540.1875 541.429688 540.1875 545.410156 "/>
<path style=" stroke:none;fill-rule:nonzero;fill:rgb(3.921569%,62.745098%,12.156863%);fill-opacity:1;" d="M 548.277344 304.707031 C 548.277344 308.316406 542.867188 308.316406 542.867188 304.707031 C 542.867188 301.101562 548.277344 301.101562 548.277344 304.707031 "/>
<path style=" stroke:none;fill-rule:nonzero;fill:rgb(3.921569%,62.745098%,12.156863%);fill-opacity:1;" d="M 635.882812 349.980469 C 635.882812 353.605469 630.441406 353.605469 630.441406 349.980469 C 630.441406 346.351562 635.882812 346.351562 635.882812 349.980469 "/>
<path style=" stroke:none;fill-rule:nonzero;fill:rgb(3.921569%,62.745098%,12.156863%);fill-opacity:1;" d="M 206.921875 524.679688 C 206.921875 528.363281 201.398438 528.363281 201.398438 524.679688 C 201.398438 520.996094 206.921875 520.996094 206.921875 524.679688 "/>
<path style=" stroke:none;fill-rule:nonzero;fill:rgb(3.921569%,62.745098%,12.156863%);fill-opacity:1;" d="M 141.671875 247.601562 C 141.671875 251.910156 135.214844 251.910156 135.214844 247.601562 C 135.214844 243.296875 141.671875 243.296875 141.671875 247.601562 "/>
<path style=" stroke:none;fill-rule:nonzero;fill:rgb(3.921569%,62.745098%,12.156863%);fill-opacity:1;" d="M 447.578125 163.488281 C 447.578125 167.613281 441.386719 167.613281 441.386719 163.488281 C 441.386719 159.359375 447.578125 159.359375 447.578125 163.488281 "/>
<path style=" stroke:none;fill-rule:nonzero;fill:rgb(3.921569%,62.745098%,12.156863%);fill-opacity:1;" d="M 594.046875 294.035156 C 594.046875 297.679688 588.582031 297.679688 588.582031 294.035156 C 588.582031 290.394531 594.046875 290.394531 594.046875 294.035156 "/>
<path style=" stroke:none;fill-rule:nonzero;fill:rgb(3.921569%,62.745098%,12.156863%);fill-opacity:1;" d="M 452.382812 375.480469 C 452.382812 379.191406 446.8125 379.191406 446.8125 375.480469 C 446.8125 371.765625 452.382812 371.765625 452.382812 375.480469 "/>
<path style=" stroke:none;fill-rule:nonzero;fill:rgb(3.921569%,62.745098%,12.156863%);fill-opacity:1;" d="M 417.933594 84.359375 L 438.65625 84.359375 L 438.65625 105.082031 L 417.933594 105.082031 Z M 417.933594 84.359375 "/>
<path style=" stroke:none;fill-rule:nonzero;fill:rgb(3.921569%,62.745098%,12.156863%);fill-opacity:1;" d="M 476.050781 533.371094 C 476.050781 536.996094 470.613281 536.996094 470.613281 533.371094 C 470.613281 529.742188 476.050781 529.742188 476.050781 533.371094 "/>
<path style=" stroke:none;fill-rule:nonzero;fill:rgb(3.921569%,62.745098%,12.156863%);fill-opacity:1;" d="M 554.960938 447.457031 C 554.960938 450.96875 549.691406 450.96875 549.691406 447.457031 C 549.691406 443.941406 554.960938 443.941406 554.960938 447.457031 "/>
<path style=" stroke:none;fill-rule:nonzero;fill:rgb(3.921569%,62.745098%,12.156863%);fill-opacity:1;" d="M 244.003906 190.015625 C 244.003906 194.019531 238 194.019531 238 190.015625 C 238 186.011719 244.003906 186.011719 244.003906 190.015625 "/>
<path style=" stroke:none;fill-rule:nonzero;fill:rgb(3.921569%,62.745098%,12.156863%);fill-opacity:1;" d="M 352.796875 511.804688 C 352.796875 515.683594 346.980469 515.683594 346.980469 511.804688 C 346.980469 507.925781 352.796875 507.925781 352.796875 511.804688 "/>
<path style=" stroke:none;fill-rule:nonzero;fill:rgb(3.921569%,62.745098%,12.156863%);fill-opacity:1;" d="M 597.855469 492.9375 C 597.855469 496.574219 592.402344 496.574219 592.402344 492.9375 C 592.402344 489.304688 597.855469 489.304688 597.855469 492.9375 "/>
<path style=" stroke:none;fill-rule:nonzero;fill:rgb(3.921569%,62.745098%,12.156863%);fill-opacity:1;" d="M 404.246094 316.425781 C 404.246094 321.886719 396.058594 321.886719 396.058594 316.425781 C 396.058594 310.964844 404.246094 310.964844 404.246094 316.425781 "/>
<path style=" stroke:none;fill-rule:nonzero;fill:rgb(3.921569%,62.745098%,12.156863%);fill-opacity:1;" d="M 189.488281 251.378906 C 189.488281 254.855469 184.269531 254.855469 184.269531 251.378906 C 184.269531 247.898438 189.488281 247.898438 189.488281 251.378906 "/>
<path style=" stroke:none;fill-rule:nonzero;fill:rgb(3.921569%,62.745098%,12.156863%);fill-opacity:1;" d="M 394.480469 176.921875 C 394.480469 180.5625 389.019531 180.5625 389.019531 176.921875 C 389.019531 173.28125 394.480469 173.28125 394.480469 176.921875 "/>
<path style=" stroke:none;fill-rule:nonzero;fill:rgb(3.921569%,62.745098%,12.156863%);fill-opacity:1;" d="M 233.941406 383.34375 L 254.664062 383.34375 L 254.664062 404.066406 L 233.941406 404.066406 Z M 233.941406 383.34375 "/>
<path style=" stroke:none;fill-rule:nonzero;fill:rgb(3.921569%,62.745098%,12.156863%);fill-opacity:1;" d="M 255.253906 218.171875 L 275.976562 218.171875 L 275.976562 238.894531 L 255.253906 238.894531 Z M 255.253906 218.171875 "/>
<path style=" stroke:none;fill-rule:nonzero;fill:rgb(3.921569%,62.745098%,12.156863%);fill-opacity:1;" d="M 252.171875 322.707031 C 252.171875 326.738281 246.121094 326.738281 246.121094 322.707031 C 246.121094 318.671875 252.171875 318.671875 252.171875 322.707031 "/>
<path style=" stroke:none;fill-rule:nonzero;fill:rgb(3.921569%,62.745098%,12.156863%);fill-opacity:1;" d="M 331.265625 305.785156 C 331.265625 309.226562 328.480469 312.011719 325.039062 312.011719 C 321.601562 312.011719 318.8125 309.226562 318.8125 305.785156 C 318.8125 302.347656 321.601562 299.558594 325.039062 299.558594 C 328.480469 299.558594 331.265625 302.347656 331.265625 305.785156 "/>
<path style=" stroke:none;fill-rule:nonzero;fill:rgb(3.921569%,62.745098%,12.156863%);fill-opacity:1;" d="M 288.820312 136.6875 C 288.820312 140.363281 283.304688 140.363281 283.304688 136.6875 C 283.304688 133.011719 288.820312 133.011719 288.820312 136.6875 "/>
<path style=" stroke:none;fill-rule:nonzero;fill:rgb(3.921569%,62.745098%,12.156863%);fill-opacity:1;" d="M 518.871094 177.832031 C 518.871094 181.375 513.554688 181.375 513.554688 177.832031 C 513.554688 174.285156 518.871094 174.285156 518.871094 177.832031 "/>
<path style=" stroke:none;fill-rule:nonzero;fill:rgb(3.921569%,62.745098%,12.156863%);fill-opacity:1;" d="M 308.761719 438.3125 C 308.761719 441.886719 303.402344 441.886719 303.402344 438.3125 C 303.402344 434.742188 308.761719 434.742188 308.761719 438.3125 "/>
<path style=" stroke:none;fill-rule:nonzero;fill:rgb(3.921569%,62.745098%,12.156863%);fill-opacity:1;" d="M 529.160156 385.90625 C 529.160156 389.375 523.957031 389.375 523.957031 385.90625 C 523.957031 382.4375 529.160156 382.4375 529.160156 385.90625 "/>
<path style=" stroke:none;fill-rule:nonzero;fill:rgb(3.921569%,62.745098%,12.156863%);fill-opacity:1;" d="M 290.808594 105.125 C 290.808594 108.625 287.976562 111.457031 284.476562 111.457031 C 280.980469 111.457031 278.148438 108.625 278.148438 105.125 C 278.148438 101.628906 280.980469 98.796875 284.476562 98.796875 C 287.976562 98.796875 290.808594 101.628906 290.808594 105.125 "/>
<path style=" stroke:none;fill-rule:nonzero;fill:rgb(3.921569%,62.745098%,12.156863%);fill-opacity:1;" d="M 391.777344 396.464844 C 391.777344 400.554688 385.640625 400.554688 385.640625 396.464844 C 385.640625 392.375 391.777344 392.375 391.777344 396.464844 "/>
<path style=" stroke:none;fill-rule:nonzero;fill:rgb(3.921569%,62.745098%,12.156863%);fill-opacity:1;" d="M 520.089844 227.269531 C 520.089844 230.984375 514.519531 230.984375 514.519531 227.269531 C 514.519531 223.554688 520.089844 223.554688 520.089844 227.269531 "/>
<path style=" stroke:none;fill-rule:nonzero;fill:rgb(3.921569%,62.745098%,12.156863%);fill-opacity:1;" d="M 289.757812 310.40625 C 289.757812 314.152344 284.140625 314.152344 284.140625 310.40625 C 284.140625 306.664062 289.757812 306.664062 289.757812 310.40625 "/>
<path style=" stroke:none;fill-rule:nonzero;fill:rgb(3.921569%,62.745098%,12.156863%);fill-opacity:1;" d="M 203.109375 447.65625 L 223.832031 447.65625 L 223.832031 468.378906 L 203.109375 468.378906 Z M 203.109375 447.65625 "/>
<path style=" stroke:none;fill-rule:nonzero;fill:rgb(3.921569%,62.745098%,12.156863%);fill-opacity:1;" d="M 515.617188 527.378906 C 515.617188 533.269531 510.84375 538.042969 504.953125 538.042969 C 499.0625 538.042969 494.285156 533.269531 494.285156 527.378906 C 494.285156 521.488281 499.0625 516.710938 504.953125 516.710938 C 510.84375 516.710938 515.617188 521.488281 515.617188 527.378906 "/>
<path style=" stroke:none;fill-rule:nonzero;fill:rgb(3.921569%,62.745098%,12.156863%);fill-opacity:1;" d="M 317.71875 495.332031 C 317.71875 499.253906 311.835938 499.253906 311.835938 495.332031 C 311.835938 491.414062 317.71875 491.414062 317.71875 495.332031 "/>
<path style=" stroke:none;fill-rule:nonzero;fill:rgb(3.921569%,62.745098%,12.156863%);fill-opacity:1;" d="M 364.21875 333.136719 C 364.21875 336.695312 358.878906 336.695312 358.878906 333.136719 C 358.878906 329.578125 364.21875 329.578125 364.21875 333.136719 "/>
<path style=" stroke:none;fill-rule:nonzero;fill:rgb(3.921569%,62.745098%,12.156863%);fill-opacity:1;" d="M 550.222656 240.5625 C 550.222656 244.535156 544.261719 244.535156 544.261719 240.5625 C 544.261719 236.585938 550.222656 236.585938 550.222656 240.5625 "/>
<path style=" stroke:none;fill-rule:nonzero;fill:rgb(3.921569%,62.745098%,12.156863%);fill-opacity:1;" d="M 427.527344 478.496094 C 427.527344 481.976562 422.308594 481.976562 422.308594 478.496094 C 422.308594 475.019531 427.527344 475.019531 427.527344 478.496094 "/>
<path style=" stroke:none;fill-rule:nonzero;fill:rgb(3.921569%,62.745098%,12.156863%);fill-opacity:1;" d="M 403.5625 359.46875 C 403.5625 363.410156 397.648438 363.410156 397.648438 359.46875 C 397.648438 355.527344 403.5625 355.527344 403.5625 359.46875 "/>
<path style=" stroke:none;fill-rule:nonzero;fill:rgb(3.921569%,62.745098%,12.156863%);fill-opacity:1;" d="M 300.714844 119.035156 C 300.714844 123.476562 294.058594 123.476562 294.058594 119.035156 C 294.058594 114.597656 300.714844 114.597656 300.714844 119.035156 "/>
<path style=" stroke:none;fill-rule:nonzero;fill:rgb(3.921569%,62.745098%,12.156863%);fill-opacity:1;" d="M 237.671875 528.921875 C 237.671875 532.441406 232.398438 532.441406 232.398438 528.921875 C 232.398438 525.40625 237.671875 525.40625 237.671875 528.921875 "/>
<path style=" stroke:none;fill-rule:nonzero;fill:rgb(3.921569%,62.745098%,12.156863%);fill-opacity:1;" d="M 444.769531 518.839844 C 444.769531 522.414062 439.410156 522.414062 439.410156 518.839844 C 439.410156 515.269531 444.769531 515.269531 444.769531 518.839844 "/>
<path style=" stroke:none;fill-rule:nonzero;fill:rgb(3.921569%,62.745098%,12.156863%);fill-opacity:1;" d="M 461.941406 468.171875 C 461.941406 472.597656 455.300781 472.597656 455.300781 468.171875 C 455.300781 463.746094 461.941406 463.746094 461.941406 468.171875 "/>
<path style=" stroke:none;fill-rule:nonzero;fill:rgb(3.921569%,62.745098%,12.156863%);fill-opacity:1;" d="M 464.136719 218.695312 C 464.136719 222.886719 457.847656 222.886719 457.847656 218.695312 C 457.847656 214.507812 464.136719 214.507812 464.136719 218.695312 "/>
<path style=" stroke:none;fill-rule:nonzero;fill:rgb(3.921569%,62.745098%,12.156863%);fill-opacity:1;" d="M 409.042969 567.910156 C 409.042969 571.589844 403.523438 571.589844 403.523438 567.910156 C 403.523438 564.230469 409.042969 564.230469 409.042969 567.910156 "/>
<path style=" stroke:none;fill-rule:nonzero;fill:rgb(3.921569%,62.745098%,12.156863%);fill-opacity:1;" d="M 351.132812 415.308594 C 351.132812 421.175781 342.332031 421.175781 342.332031 415.308594 C 342.332031 409.445312 351.132812 409.445312 351.132812 415.308594 "/>
<path style=" stroke:none;fill-rule:nonzero;fill:rgb(3.921569%,62.745098%,12.156863%);fill-opacity:1;" d="M 328.144531 604.175781 C 328.144531 608.929688 324.292969 612.78125 319.535156 612.78125 C 314.78125 612.78125 310.929688 608.929688 310.929688 604.175781 C 310.929688 599.421875 314.78125 595.566406 319.535156 595.566406 C 324.292969 595.566406 328.144531 599.421875 328.144531 604.175781 "/>
<path style=" stroke:none;fill-rule:nonzero;fill:rgb(3.921569%,62.745098%,12.156863%);fill-opacity:1;" d="M 497.78125 452.464844 C 497.78125 455.945312 492.554688 455.945312 492.554688 452.464844 C 492.554688 448.980469 497.78125 448.980469 497.78125 452.464844 "/>
<path style=" stroke:none;fill-rule:nonzero;fill:rgb(3.921569%,62.745098%,12.156863%);fill-opacity:1;" d="M 627.625 423.789062 C 627.625 427.574219 621.949219 427.574219 621.949219 423.789062 C 621.949219 420.007812 627.625 420.007812 627.625 423.789062 "/>
<path style=" stroke:none;fill-rule:nonzero;fill:rgb(15.294118%,28.627451%,27.058824%);fill-opacity:1;" d="M 265.667969 587.953125 C 265.667969 594.910156 255.234375 594.910156 255.234375 587.953125 C 255.234375 580.996094 265.667969 580.996094 265.667969 587.953125 "/>
<path style=" stroke:none;fill-rule:nonzero;fill:rgb(15.294118%,28.627451%,27.058824%);fill-opacity:1;" d="M 386.167969 492.667969 C 386.167969 496.15625 380.933594 496.15625 380.933594 492.667969 C 380.933594 489.179688 386.167969 489.179688 386.167969 492.667969 "/>
<path style=" stroke:none;fill-rule:nonzero;fill:rgb(15.294118%,28.627451%,27.058824%);fill-opacity:1;" d="M 162.988281 221.246094 C 162.988281 224.742188 157.742188 224.742188 157.742188 221.246094 C 157.742188 217.75 162.988281 217.75 162.988281 221.246094 "/>
<path style=" stroke:none;fill-rule:nonzero;fill:rgb(15.294118%,28.627451%,27.058824%);fill-opacity:1;" d="M 237.902344 354.824219 C 237.902344 358.34375 232.625 358.34375 232.625 354.824219 C 232.625 351.308594 237.902344 351.308594 237.902344 354.824219 "/>
<path style=" stroke:none;fill-rule:nonzero;fill:rgb(15.294118%,28.627451%,27.058824%);fill-opacity:1;" d="M 382.894531 583.664062 C 382.894531 587.269531 377.484375 587.269531 377.484375 583.664062 C 377.484375 580.058594 382.894531 580.058594 382.894531 583.664062 "/>
<path style=" stroke:none;fill-rule:nonzero;fill:rgb(15.294118%,28.627451%,27.058824%);fill-opacity:1;" d="M 413.6875 276.75 C 413.6875 280.734375 407.710938 280.734375 407.710938 276.75 C 407.710938 272.765625 413.6875 272.765625 413.6875 276.75 "/>
<path style=" stroke:none;fill-rule:nonzero;fill:rgb(15.294118%,28.627451%,27.058824%);fill-opacity:1;" d="M 392.863281 611.847656 C 392.863281 615.34375 387.617188 615.34375 387.617188 611.847656 C 387.617188 608.351562 392.863281 608.351562 392.863281 611.847656 "/>
<path style=" stroke:none;fill-rule:nonzero;fill:rgb(30.588235%,22.352941%,47.843137%);fill-opacity:1;" d="M 163.125 480.074219 L 183.847656 480.074219 L 183.847656 500.796875 L 163.125 500.796875 Z M 163.125 480.074219 "/>
<path style=" stroke:none;fill-rule:nonzero;fill:rgb(70.196078%,14.901961%,35.686275%);fill-opacity:1;" d="M 480.003906 274.480469 C 480.003906 278.199219 474.425781 278.199219 474.425781 274.480469 C 474.425781 270.761719 480.003906 270.761719 480.003906 274.480469 "/>
<path style=" stroke:none;fill-rule:nonzero;fill:rgb(18.039216%,73.72549%,27.058824%);fill-opacity:1;" d="M 384.773438 111.726562 C 384.773438 117.246094 376.496094 117.246094 376.496094 111.726562 C 376.496094 106.210938 384.773438 106.210938 384.773438 111.726562 "/>
<path style=" stroke:none;fill-rule:nonzero;fill:rgb(18.039216%,73.72549%,27.058824%);fill-opacity:1;" d="M 530.332031 270.488281 C 530.332031 274.101562 524.910156 274.101562 524.910156 270.488281 C 524.910156 266.875 530.332031 266.875 530.332031 270.488281 "/>
<path style=" stroke:none;fill-rule:nonzero;fill:rgb(18.039216%,73.72549%,27.058824%);fill-opacity:1;" d="M 347.398438 97.8125 C 347.398438 104.964844 341.601562 110.765625 334.445312 110.765625 C 327.292969 110.765625 321.496094 104.964844 321.496094 97.8125 C 321.496094 90.660156 327.292969 84.859375 334.445312 84.859375 C 341.601562 84.859375 347.398438 90.660156 347.398438 97.8125 "/>
<path style=" stroke:none;fill-rule:nonzero;fill:rgb(18.039216%,73.72549%,27.058824%);fill-opacity:1;" d="M 422.484375 120 C 422.484375 125.308594 414.527344 125.308594 414.527344 120 C 414.527344 114.695312 422.484375 114.695312 422.484375 120 "/>
<path style=" stroke:none;fill-rule:nonzero;fill:rgb(18.039216%,73.72549%,27.058824%);fill-opacity:1;" d="M 283.183594 403.492188 C 283.183594 409.097656 274.777344 409.097656 274.777344 403.492188 C 274.777344 397.890625 283.183594 397.890625 283.183594 403.492188 "/>
<path style=" stroke:none;fill-rule:nonzero;fill:rgb(18.039216%,73.72549%,27.058824%);fill-opacity:1;" d="M 439.242188 340.660156 C 439.242188 344.378906 433.667969 344.378906 433.667969 340.660156 C 433.667969 336.945312 439.242188 336.945312 439.242188 340.660156 "/>
<path style=" stroke:none;fill-rule:nonzero;fill:rgb(18.039216%,73.72549%,27.058824%);fill-opacity:1;" d="M 509.902344 349.742188 C 509.902344 353.769531 503.859375 353.769531 503.859375 349.742188 C 503.859375 345.710938 509.902344 345.710938 509.902344 349.742188 "/>
<path style=" stroke:none;fill-rule:nonzero;fill:rgb(18.039216%,73.72549%,27.058824%);fill-opacity:1;" d="M 319.394531 559.679688 C 319.394531 563.742188 313.304688 563.742188 313.304688 559.679688 C 313.304688 555.621094 319.394531 555.621094 319.394531 559.679688 "/>
<path style=" stroke:none;fill-rule:nonzero;fill:rgb(18.039216%,73.72549%,27.058824%);fill-opacity:1;" d="M 185.859375 350.28125 C 185.859375 353.882812 180.457031 353.882812 180.457031 350.28125 C 180.457031 346.679688 185.859375 346.679688 185.859375 350.28125 "/>
<path style=" stroke:none;fill-rule:nonzero;fill:rgb(18.039216%,73.72549%,27.058824%);fill-opacity:1;" d="M 399.667969 507.136719 L 420.390625 507.136719 L 420.390625 527.859375 L 399.667969 527.859375 Z M 399.667969 507.136719 "/>
<path style=" stroke:none;fill-rule:nonzero;fill:rgb(18.039216%,73.72549%,27.058824%);fill-opacity:1;" d="M 492.1875 385.96875 C 492.1875 389.8125 489.074219 392.925781 485.234375 392.925781 C 481.394531 392.925781 478.277344 389.8125 478.277344 385.96875 C 478.277344 382.128906 481.394531 379.015625 485.234375 379.015625 C 489.074219 379.015625 492.1875 382.128906 492.1875 385.96875 "/>
<path style=" stroke:none;fill-rule:nonzero;fill:rgb(18.039216%,73.72549%,27.058824%);fill-opacity:1;" d="M 209.277344 490.167969 C 209.277344 493.851562 203.75 493.851562 203.75 490.167969 C 203.75 486.484375 209.277344 486.484375 209.277344 490.167969 "/>
<path style=" stroke:none;fill-rule:nonzero;fill:rgb(18.039216%,73.72549%,27.058824%);fill-opacity:1;" d="M 600.5 218.125 C 600.5 221.640625 595.230469 221.640625 595.230469 218.125 C 595.230469 214.613281 600.5 214.613281 600.5 218.125 "/>
<path style=" stroke:none;fill-rule:nonzero;fill:rgb(18.039216%,73.72549%,27.058824%);fill-opacity:1;" d="M 281.175781 358.136719 C 281.175781 364.210938 272.0625 364.210938 272.0625 358.136719 C 272.0625 352.066406 281.175781 352.066406 281.175781 358.136719 "/>
<path style=" stroke:none;fill-rule:nonzero;fill:rgb(18.039216%,73.72549%,27.058824%);fill-opacity:1;" d="M 507.507812 302.628906 C 507.507812 306.144531 502.230469 306.144531 502.230469 302.628906 C 502.230469 299.113281 507.507812 299.113281 507.507812 302.628906 "/>
<path style=" stroke:none;fill-rule:nonzero;fill:rgb(18.039216%,73.72549%,27.058824%);fill-opacity:1;" d="M 354.878906 370.21875 C 354.878906 373.714844 349.632812 373.714844 349.632812 370.21875 C 349.632812 366.722656 354.878906 366.722656 354.878906 370.21875 "/>
<path style=" stroke:none;fill-rule:nonzero;fill:rgb(18.039216%,73.72549%,27.058824%);fill-opacity:1;" d="M 473.265625 423.226562 C 473.265625 426.722656 468.023438 426.722656 468.023438 423.226562 C 468.023438 419.734375 473.265625 419.734375 473.265625 423.226562 "/>
<path style=" stroke:none;fill-rule:nonzero;fill:rgb(18.039216%,73.72549%,27.058824%);fill-opacity:1;" d="M 536.855469 405.09375 L 557.578125 405.09375 L 557.578125 425.816406 L 536.855469 425.816406 Z M 536.855469 405.09375 "/>
<path style=" stroke:none;fill-rule:nonzero;fill:rgb(18.039216%,73.72549%,27.058824%);fill-opacity:1;" d="M 271.070312 522.695312 C 271.070312 526.738281 265.007812 526.738281 265.007812 522.695312 C 265.007812 518.652344 271.070312 518.652344 271.070312 522.695312 "/>
<path style=" stroke:none;fill-rule:nonzero;fill:rgb(18.039216%,73.72549%,27.058824%);fill-opacity:1;" d="M 212.886719 378.0625 C 212.886719 382.824219 205.742188 382.824219 205.742188 378.0625 C 205.742188 373.300781 212.886719 373.300781 212.886719 378.0625 "/>
<path style=" stroke:none;fill-rule:nonzero;fill:rgb(18.039216%,73.72549%,27.058824%);fill-opacity:1;" d="M 205.054688 418.945312 C 205.054688 422.535156 199.671875 422.535156 199.671875 418.945312 C 199.671875 415.359375 205.054688 415.359375 205.054688 418.945312 "/>
<path style=" stroke:none;fill-rule:nonzero;fill:rgb(18.039216%,73.72549%,27.058824%);fill-opacity:1;" d="M 570.316406 273.027344 C 570.316406 276.761719 564.714844 276.761719 564.714844 273.027344 C 564.714844 269.292969 570.316406 269.292969 570.316406 273.027344 "/>
<path style=" stroke:none;fill-rule:nonzero;fill:rgb(18.039216%,73.72549%,27.058824%);fill-opacity:1;" d="M 284.238281 262.820312 C 284.238281 266.582031 278.59375 266.582031 278.59375 262.820312 C 278.59375 259.0625 284.238281 259.0625 284.238281 262.820312 "/>
<path style=" stroke:none;fill-rule:nonzero;fill:rgb(18.039216%,73.72549%,27.058824%);fill-opacity:1;" d="M 304.558594 334.609375 L 325.28125 334.609375 L 325.28125 355.332031 L 304.558594 355.332031 Z M 304.558594 334.609375 "/>
<path style=" stroke:none;fill-rule:nonzero;fill:rgb(18.039216%,73.72549%,27.058824%);fill-opacity:1;" d="M 180.253906 454.273438 C 180.253906 457.90625 174.808594 457.90625 174.808594 454.273438 C 174.808594 450.640625 180.253906 450.640625 180.253906 454.273438 "/>
<path style=" stroke:none;fill-rule:nonzero;fill:rgb(18.039216%,73.72549%,27.058824%);fill-opacity:1;" d="M 582.816406 241.800781 C 582.816406 245.304688 577.554688 245.304688 577.554688 241.800781 C 577.554688 238.292969 582.816406 238.292969 582.816406 241.800781 "/>
<path style=" stroke:none;fill-rule:nonzero;fill:rgb(18.039216%,73.72549%,27.058824%);fill-opacity:1;" d="M 130.707031 404.992188 C 130.707031 408.722656 125.109375 408.722656 125.109375 404.992188 C 125.109375 401.261719 130.707031 401.261719 130.707031 404.992188 "/>
<path style=" stroke:none;fill-rule:nonzero;fill:rgb(18.039216%,73.72549%,27.058824%);fill-opacity:1;" d="M 181.210938 389.964844 C 181.210938 395.265625 173.257812 395.265625 173.257812 389.964844 C 173.257812 384.664062 181.210938 384.664062 181.210938 389.964844 "/>
<path style=" stroke:none;fill-rule:nonzero;fill:rgb(18.039216%,73.72549%,27.058824%);fill-opacity:1;" d="M 171.796875 190.675781 C 171.796875 194.449219 166.140625 194.449219 166.140625 190.675781 C 166.140625 186.90625 171.796875 186.90625 171.796875 190.675781 "/>
<path style=" stroke:none;fill-rule:nonzero;fill:rgb(18.039216%,73.72549%,27.058824%);fill-opacity:1;" d="M 357.449219 609.585938 C 357.449219 616.457031 347.140625 616.457031 347.140625 609.585938 C 347.140625 602.710938 357.449219 602.710938 357.449219 609.585938 "/>
<path style=" stroke:none;fill-rule:nonzero;fill:rgb(18.039216%,73.72549%,27.058824%);fill-opacity:1;" d="M 242.640625 154.910156 C 242.640625 158.148438 240.015625 160.773438 236.78125 160.773438 C 233.542969 160.773438 230.917969 158.148438 230.917969 154.910156 C 230.917969 151.675781 233.542969 149.050781 236.78125 149.050781 C 240.015625 149.050781 242.640625 151.675781 242.640625 154.910156 "/>
<path style=" stroke:none;fill-rule:nonzero;fill:rgb(18.039216%,73.72549%,27.058824%);fill-opacity:1;" d="M 587.792969 466.335938 C 587.792969 469.476562 585.25 472.019531 582.109375 472.019531 C 578.972656 472.019531 576.425781 469.476562 576.425781 466.335938 C 576.425781 463.199219 578.972656 460.652344 582.109375 460.652344 C 585.25 460.652344 587.792969 463.199219 587.792969 466.335938 "/>
<path style=" stroke:none;fill-rule:nonzero;fill:rgb(18.039216%,73.72549%,27.058824%);fill-opacity:1;" d="M 538.769531 506.570312 C 538.769531 510.136719 533.417969 510.136719 533.417969 506.570312 C 533.417969 503.003906 538.769531 503.003906 538.769531 506.570312 "/>
<path style=" stroke:none;fill-rule:nonzero;fill:rgb(18.039216%,73.72549%,27.058824%);fill-opacity:1;" d="M 479.332031 498.289062 C 479.332031 501.902344 473.910156 501.902344 473.910156 498.289062 C 473.910156 494.671875 479.332031 494.671875 479.332031 498.289062 "/>
<path style=" stroke:none;fill-rule:nonzero;fill:rgb(18.039216%,73.72549%,27.058824%);fill-opacity:1;" d="M 473.703125 562.800781 C 473.703125 566.71875 467.828125 566.71875 467.828125 562.800781 C 467.828125 558.886719 473.703125 558.886719 473.703125 562.800781 "/>
<path style=" stroke:none;fill-rule:nonzero;fill:rgb(18.039216%,73.72549%,27.058824%);fill-opacity:1;" d="M 215.988281 557.945312 C 215.988281 561.957031 209.972656 561.957031 209.972656 557.945312 C 209.972656 553.9375 215.988281 553.9375 215.988281 557.945312 "/>
<path style=" stroke:none;fill-rule:nonzero;fill:rgb(18.039216%,73.72549%,27.058824%);fill-opacity:1;" d="M 554.601562 542.734375 C 554.601562 547.316406 547.726562 547.316406 547.726562 542.734375 C 547.726562 538.148438 554.601562 538.148438 554.601562 542.734375 "/>
<path style=" stroke:none;fill-rule:nonzero;fill:rgb(18.039216%,73.72549%,27.058824%);fill-opacity:1;" d="M 555.394531 171.796875 C 555.394531 175.261719 550.199219 175.261719 550.199219 171.796875 C 550.199219 168.332031 555.394531 168.332031 555.394531 171.796875 "/>
<path style=" stroke:none;fill-rule:nonzero;fill:rgb(18.039216%,73.72549%,27.058824%);fill-opacity:1;" d="M 484.675781 150.335938 C 484.675781 153.640625 481.996094 156.320312 478.691406 156.320312 C 475.382812 156.320312 472.703125 153.640625 472.703125 150.335938 C 472.703125 147.03125 475.382812 144.351562 478.691406 144.351562 C 481.996094 144.351562 484.675781 147.03125 484.675781 150.335938 "/>
<path style=" stroke:none;fill-rule:nonzero;fill:rgb(18.039216%,73.72549%,27.058824%);fill-opacity:1;" d="M 387.347656 539.441406 C 387.347656 544.246094 380.140625 544.246094 380.140625 539.441406 C 380.140625 534.640625 387.347656 534.640625 387.347656 539.441406 "/>
<path style=" stroke:none;fill-rule:nonzero;fill:rgb(18.039216%,73.72549%,27.058824%);fill-opacity:1;" d="M 339.066406 130.453125 C 339.066406 133.957031 333.808594 133.957031 333.808594 130.453125 C 333.808594 126.949219 339.066406 126.949219 339.066406 130.453125 "/>
<path style=" stroke:none;fill-rule:nonzero;fill:rgb(18.039216%,73.72549%,27.058824%);fill-opacity:1;" d="M 365.671875 291.4375 C 365.671875 295.828125 359.085938 295.828125 359.085938 291.4375 C 359.085938 287.046875 365.671875 287.046875 365.671875 291.4375 "/>
<path style=" stroke:none;fill-rule:nonzero;fill:rgb(18.039216%,73.72549%,27.058824%);fill-opacity:1;" d="M 475.296875 329.386719 C 475.296875 332.921875 469.992188 332.921875 469.992188 329.386719 C 469.992188 325.847656 475.296875 325.847656 475.296875 329.386719 "/>
<path style=" stroke:none;fill-rule:nonzero;fill:rgb(18.039216%,73.72549%,27.058824%);fill-opacity:1;" d="M 334.699219 227.335938 L 355.421875 227.335938 L 355.421875 248.058594 L 334.699219 248.058594 Z M 334.699219 227.335938 "/>
<path style=" stroke:none;fill-rule:nonzero;fill:rgb(18.039216%,73.72549%,27.058824%);fill-opacity:1;" d="M 318.722656 196.203125 C 318.722656 200.410156 312.410156 200.410156 312.410156 196.203125 C 312.410156 191.996094 318.722656 191.996094 318.722656 196.203125 "/>
<path style=" stroke:none;fill-rule:nonzero;fill:rgb(18.039216%,73.72549%,27.058824%);fill-opacity:1;" d="M 206.472656 156.703125 C 206.472656 163.382812 196.453125 163.382812 196.453125 156.703125 C 196.453125 150.023438 206.472656 150.023438 206.472656 156.703125 "/>
<path style=" stroke:none;fill-rule:nonzero;fill:rgb(18.039216%,73.72549%,27.058824%);fill-opacity:1;" d="M 297.964844 589.226562 C 297.964844 593.296875 291.855469 593.296875 291.855469 589.226562 C 291.855469 585.152344 297.964844 585.152344 297.964844 589.226562 "/>
<path style=" stroke:none;fill-rule:nonzero;fill:rgb(18.039216%,73.72549%,27.058824%);fill-opacity:1;" d="M 623.953125 281.507812 C 623.953125 284.988281 618.730469 284.988281 618.730469 281.507812 C 618.730469 278.027344 623.953125 278.027344 623.953125 281.507812 "/>
<path style=" stroke:none;fill-rule:nonzero;fill:rgb(18.039216%,73.72549%,27.058824%);fill-opacity:1;" d="M 277.253906 153.085938 C 277.253906 156.660156 271.890625 156.660156 271.890625 153.085938 C 271.890625 149.511719 277.253906 149.511719 277.253906 153.085938 "/>
<path style=" stroke:none;fill-rule:nonzero;fill:rgb(18.039216%,73.72549%,27.058824%);fill-opacity:1;" d="M 306.550781 457.652344 C 306.550781 461.203125 301.226562 461.203125 301.226562 457.652344 C 301.226562 454.101562 306.550781 454.101562 306.550781 457.652344 "/>
<path style=" stroke:none;fill-rule:nonzero;fill:rgb(18.039216%,73.72549%,27.058824%);fill-opacity:1;" d="M 358.605469 159.945312 C 358.605469 164.605469 351.621094 164.605469 351.621094 159.945312 C 351.621094 155.289062 358.605469 155.289062 358.605469 159.945312 "/>
<path style=" stroke:none;fill-rule:nonzero;fill:rgb(18.039216%,73.72549%,27.058824%);fill-opacity:1;" d="M 432.488281 429.820312 C 432.488281 433.886719 426.390625 433.886719 426.390625 429.820312 C 426.390625 425.753906 432.488281 425.753906 432.488281 429.820312 "/>
<path style=" stroke:none;fill-rule:nonzero;fill:rgb(18.039216%,73.72549%,27.058824%);fill-opacity:1;" d="M 162.75 421.433594 C 162.75 425.152344 157.164062 425.152344 157.164062 421.433594 C 157.164062 417.710938 162.75 417.710938 162.75 421.433594 "/>
<path style=" stroke:none;fill-rule:nonzero;fill:rgb(34.509804%,73.72549%,18.039216%);fill-opacity:1;" d="M 276.476562 485.644531 C 276.476562 489.296875 270.996094 489.296875 270.996094 485.644531 C 270.996094 481.988281 276.476562 481.988281 276.476562 485.644531 "/>
<path style=" stroke:none;fill-rule:nonzero;fill:rgb(73.72549%,18.039216%,63.137255%);fill-opacity:1;" d="M 475.84375 182.929688 C 475.84375 186.429688 470.589844 186.429688 470.589844 182.929688 C 470.589844 179.425781 475.84375 179.425781 475.84375 182.929688 "/>
<path style=" stroke:none;fill-rule:nonzero;fill:rgb(73.72549%,18.039216%,63.137255%);fill-opacity:1;" d="M 412.03125 594.0625 L 432.753906 594.0625 L 432.753906 614.785156 L 412.03125 614.785156 Z M 412.03125 594.0625 "/>
<path style=" stroke:none;fill-rule:nonzero;fill:rgb(41.568627%,32.156863%,77.647059%);fill-opacity:1;" d="M 382.980469 256.78125 C 382.980469 259.878906 380.46875 262.390625 377.375 262.390625 C 374.277344 262.390625 371.765625 259.878906 371.765625 256.78125 C 371.765625 253.6875 374.277344 251.175781 377.375 251.175781 C 380.46875 251.175781 382.980469 253.6875 382.980469 256.78125 "/>
<path style=" stroke:none;fill-rule:nonzero;fill:rgb(41.568627%,32.156863%,77.647059%);fill-opacity:1;" d="M 283.050781 558.589844 C 283.050781 562.066406 277.835938 562.066406 277.835938 558.589844 C 277.835938 555.109375 283.050781 555.109375 283.050781 558.589844 "/>
<path style=" stroke:none;fill-rule:nonzero;fill:rgb(41.568627%,32.156863%,77.647059%);fill-opacity:1;" d="M 149.335938 478.429688 C 149.335938 481.984375 144.003906 481.984375 144.003906 478.429688 C 144.003906 474.875 149.335938 474.875 149.335938 478.429688 "/>
<path style=" stroke:none;fill-rule:nonzero;fill:rgb(41.568627%,32.156863%,77.647059%);fill-opacity:1;" d="M 318.074219 386.304688 C 318.074219 389.480469 315.503906 392.050781 312.332031 392.050781 C 309.15625 392.050781 306.585938 389.480469 306.585938 386.304688 C 306.585938 383.132812 309.15625 380.5625 312.332031 380.5625 C 315.503906 380.5625 318.074219 383.132812 318.074219 386.304688 "/>
<path style=" stroke:none;fill-rule:nonzero;fill:rgb(41.568627%,32.156863%,77.647059%);fill-opacity:1;" d="M 622.054688 301.773438 L 642.777344 301.773438 L 642.777344 322.496094 L 622.054688 322.496094 Z M 622.054688 301.773438 "/>
<path style=" stroke:none;fill-rule:nonzero;fill:rgb(41.568627%,32.156863%,77.647059%);fill-opacity:1;" d="M 350.125 544.347656 C 350.125 547.910156 344.78125 547.910156 344.78125 544.347656 C 344.78125 540.785156 350.125 540.785156 350.125 544.347656 "/>
<path style=" stroke:none;fill-rule:nonzero;fill:rgb(41.568627%,32.156863%,77.647059%);fill-opacity:1;" d="M 576.457031 325.621094 C 576.457031 329.355469 570.851562 329.355469 570.851562 325.621094 C 570.851562 321.882812 576.457031 321.882812 576.457031 325.621094 "/>
<path style=" stroke:none;fill-rule:nonzero;fill:rgb(41.568627%,32.156863%,77.647059%);fill-opacity:1;" d="M 386.046875 211.914062 C 386.046875 215.148438 383.425781 217.765625 380.195312 217.765625 C 376.960938 217.765625 374.34375 215.148438 374.34375 211.914062 C 374.34375 208.683594 376.960938 206.0625 380.195312 206.0625 C 383.425781 206.0625 386.046875 208.683594 386.046875 211.914062 "/>
<path style=" stroke:none;fill-rule:nonzero;fill:rgb(41.568627%,32.156863%,77.647059%);fill-opacity:1;" d="M 598.839844 362.417969 C 598.839844 365.914062 593.59375 365.914062 593.59375 362.417969 C 593.59375 358.921875 598.839844 358.921875 598.839844 362.417969 "/>
<path style=" stroke:none;fill-rule:nonzero;fill:rgb(41.568627%,32.156863%,77.647059%);fill-opacity:1;" d="M 135.886719 443.988281 C 135.886719 447.71875 130.289062 447.71875 130.289062 443.988281 C 130.289062 440.253906 135.886719 440.253906 135.886719 443.988281 "/>
<path style=" stroke:none;fill-rule:nonzero;fill:rgb(67.843137%,55.294118%,55.294118%);fill-opacity:1;" d="M 307.894531 526.277344 C 307.894531 532.066406 299.207031 532.066406 299.207031 526.277344 C 299.207031 520.488281 307.894531 520.488281 307.894531 526.277344 "/>
<path style=" stroke:none;fill-rule:nonzero;fill:rgb(67.843137%,55.294118%,55.294118%);fill-opacity:1;" d="M 252.46875 437.011719 L 273.191406 437.011719 L 273.191406 457.734375 L 252.46875 457.734375 Z M 252.46875 437.011719 "/>
<path style=" stroke:none;fill-rule:nonzero;fill:rgb(67.843137%,55.294118%,55.294118%);fill-opacity:1;" d="M 159.949219 365.984375 C 159.949219 370.429688 156.347656 374.03125 151.902344 374.03125 C 147.460938 374.03125 143.859375 370.429688 143.859375 365.984375 C 143.859375 361.542969 147.460938 357.941406 151.902344 357.941406 C 156.347656 357.941406 159.949219 361.542969 159.949219 365.984375 "/>
<path style=" stroke:none;fill-rule:nonzero;fill:rgb(81.176471%,90.588235%,12.156863%);fill-opacity:1;" d="M 609.628906 329.449219 C 609.628906 333.28125 603.882812 333.28125 603.882812 329.449219 C 603.882812 325.621094 609.628906 325.621094 609.628906 329.449219 "/>
</g>
</svg>
