<?xml version="1.0" encoding="UTF-8"?>
<svg xmlns="http://www.w3.org/2000/svg" xmlns:xlink="http://www.w3.org/1999/xlink" width="720pt" height="720pt" viewBox="0 0 720 720" version="1.1">
<g id="surface2924">
<path style=" stroke:none;fill-rule:nonzero;fill:rgb(95.686275%,95.686275%,95.686275%);fill-opacity:1;" d="M 541.882812 248.765625 L 538.886719 248.816406 L 536.054688 248.261719 L 533.429688 247.171875 L 531.03125 245.640625 L 528.84375 243.808594 L 526.796875 241.816406 L 524.773438 239.78125 L 522.703125 237.636719 L 520.589844 235.335938 L 518.46875 232.871094 L 516.378906 230.269531 L 514.371094 227.574219 L 514.246094 227.394531 L 512.339844 224.601562 L 510.578125 221.792969 L 508.980469 219.027344 L 507.554688 216.351562 L 506.28125 213.785156 L 505.101562 211.304688 L 503.957031 208.824219 L 502.921875 206.269531 L 502.09375 203.625 L 501.558594 200.929688 L 501.378906 198.234375 L 501.550781 195.847656 L 502.082031 193.441406 L 502.949219 191.144531 L 504.117188 188.992188 L 505.519531 187.003906 L 507.082031 185.171875 L 508.726562 183.460938 L 510.410156 181.789062 L 512.226562 180.125 L 514.324219 178.488281 L 516.78125 176.921875 L 519.625 175.476562 L 522.84375 174.199219 L 525.007812 173.507812 L 528.207031 172.683594 L 531.613281 172.015625 L 535.167969 171.503906 L 538.8125 171.140625 L 542.480469 170.90625 L 546.132812 170.777344 L 549.742188 170.714844 L 553.335938 170.675781 L 556.957031 170.671875 L 560.617188 170.746094 L 564.296875 170.941406 L 567.9375 171.28125 L 571.484375 171.78125 L 574.871094 172.449219 L 577.324219 173.078125 L 580.824219 174.238281 L 583.96875 175.605469 L 586.730469 177.144531 L 589.113281 178.800781 L 591.160156 180.519531 L 592.980469 182.265625 L 594.71875 184.015625 L 596.390625 185.820312 L 597.894531 187.726562 L 599.128906 189.730469 L 600.015625 191.816406 L 600.488281 193.945312 L 600.558594 195.132812 L 600.300781 197.40625 L 599.554688 199.652344 L 598.378906 201.820312 L 596.867188 203.878906 L 595.128906 205.824219 L 593.285156 207.691406 L 591.394531 209.582031 L 589.34375 211.605469 L 587.058594 213.824219 L 584.527344 216.246094 L 581.765625 218.847656 L 579.386719 221.058594 L 576.78125 223.449219 L 574.089844 225.898438 L 571.351562 228.359375 L 568.617188 230.800781 L 565.921875 233.183594 L 563.289062 235.503906 L 560.703125 237.773438 L 558.113281 240.019531 L 555.46875 242.183594 L 552.75 244.171875 L 549.976562 245.902344 L 547.183594 247.285156 L 544.417969 248.261719 Z M 541.882812 248.765625 "/>
<path style=" stroke:none;fill-rule:nonzero;fill:rgb(95.686275%,95.686275%,95.686275%);fill-opacity:1;" d="M 250.855469 146.984375 L 248.632812 145.914062 L 246.390625 144.496094 L 244.191406 142.804688 L 242.078125 140.933594 L 240.054688 138.972656 L 238.078125 136.988281 L 236.191406 134.929688 L 234.550781 132.738281 L 233.300781 130.421875 L 232.554688 128.023438 L 232.375 126.140625 L 232.667969 123.742188 L 233.511719 121.386719 L 234.832031 119.121094 L 236.507812 116.988281 L 238.394531 114.972656 L 240.351562 113.015625 L 242.359375 111.058594 L 244.460938 109.132812 L 246.636719 107.304688 L 248.851562 105.644531 L 250.855469 104.328125 L 253.140625 103.066406 L 255.316406 102.117188 L 257.34375 101.464844 L 259.195312 101.0625 L 260.917969 100.8125 L 262.625 100.621094 L 264.433594 100.550781 L 266.386719 100.710938 L 268.472656 101.171875 L 270.648438 101.96875 L 271.117188 102.183594 L 273.304688 103.371094 L 275.480469 104.847656 L 277.59375 106.539062 L 279.597656 108.363281 L 281.507812 110.234375 L 283.375 112.121094 L 285.117188 114.101562 L 286.578125 116.214844 L 287.617188 118.441406 L 288.128906 120.730469 L 288.171875 121.597656 L 287.882812 123.867188 L 287.054688 126.097656 L 285.769531 128.230469 L 284.152344 130.234375 L 282.34375 132.128906 L 280.488281 133.980469 L 278.558594 135.851562 L 276.523438 137.714844 L 274.402344 139.511719 L 272.246094 141.179688 L 271.117188 141.980469 L 268.957031 143.382812 L 266.867188 144.558594 L 264.898438 145.507812 L 263.078125 146.25 L 261.371094 146.855469 L 259.6875 147.410156 L 257.894531 147.835938 L 255.941406 148.011719 L 253.832031 147.835938 L 251.601562 147.261719 Z M 250.855469 146.984375 "/>
<path style=" stroke:none;fill-rule:nonzero;fill:rgb(95.686275%,95.686275%,95.686275%);fill-opacity:1;" d="M 577.757812 428.785156 L 575.519531 427.570312 L 573.257812 426.046875 L 571.015625 424.277344 L 568.851562 422.34375 L 566.769531 420.335938 L 564.738281 418.304688 L 562.777344 416.214844 L 561.027344 414.003906 L 559.636719 411.660156 L 558.722656 409.21875 L 558.367188 406.734375 L 558.363281 406.492188 L 558.660156 404.011719 L 559.519531 401.566406 L 560.867188 399.21875 L 562.585938 396.996094 L 564.523438 394.902344 L 566.546875 392.871094 L 568.617188 390.859375 L 570.769531 388.90625 L 572.996094 387.085938 L 575.257812 385.488281 L 577.496094 384.171875 L 577.757812 384.035156 L 580.097656 383.023438 L 582.316406 382.394531 L 584.367188 382.125 L 586.238281 382.140625 L 587.964844 382.328125 L 589.671875 382.574219 L 591.476562 382.933594 L 593.425781 383.5 L 595.507812 384.324219 L 597.679688 385.429688 L 598.238281 385.75 L 600.410156 387.15625 L 602.574219 388.78125 L 604.671875 390.554688 L 606.667969 392.402344 L 608.5625 394.269531 L 610.417969 396.140625 L 612.15625 398.101562 L 613.628906 400.1875 L 614.691406 402.390625 L 615.242188 404.660156 L 615.304688 405.714844 L 615.015625 407.996094 L 614.183594 410.230469 L 612.886719 412.371094 L 611.257812 414.382812 L 609.445312 416.28125 L 607.578125 418.140625 L 605.640625 420.007812 L 603.59375 421.84375 L 601.460938 423.582031 L 599.289062 425.15625 L 598.238281 425.847656 L 596.058594 427.109375 L 593.957031 428.113281 L 591.976562 428.867188 L 590.136719 429.40625 L 588.417969 429.800781 L 586.71875 430.144531 L 584.898438 430.351562 L 582.90625 430.296875 L 580.738281 429.890625 L 578.433594 429.089844 Z M 577.757812 428.785156 "/>
<path style=" stroke:none;fill-rule:nonzero;fill:rgb(95.686275%,95.686275%,95.686275%);fill-opacity:1;" d="M 319.917969 258.957031 L 317.191406 259.148438 L 314.355469 259.007812 L 311.464844 258.566406 L 308.589844 257.878906 L 305.773438 257.007812 L 303.015625 256.039062 L 300.269531 255.039062 L 297.46875 253.972656 L 294.601562 252.796875 L 291.691406 251.492188 L 288.804688 250.058594 L 286 248.511719 L 285.085938 247.972656 L 282.183594 246.117188 L 279.5 244.1875 L 277.074219 242.242188 L 274.910156 240.320312 L 272.96875 238.449219 L 271.128906 236.609375 L 269.355469 234.722656 L 267.769531 232.722656 L 266.507812 230.601562 L 265.675781 228.398438 L 265.347656 226.148438 L 265.34375 225.90625 L 265.609375 223.671875 L 266.378906 221.472656 L 267.585938 219.359375 L 269.125 217.359375 L 270.867188 215.46875 L 272.6875 213.640625 L 274.578125 211.769531 L 276.636719 209.78125 L 278.898438 207.667969 L 281.355469 205.449219 L 283.96875 203.167969 L 284.476562 202.734375 L 286.988281 200.632812 L 289.546875 198.550781 L 292.113281 196.519531 L 294.628906 194.578125 L 297.066406 192.730469 L 299.433594 190.960938 L 301.792969 189.222656 L 304.214844 187.566406 L 306.714844 186.101562 L 309.273438 184.925781 L 311.847656 184.121094 L 314.378906 183.738281 L 314.960938 183.71875 L 317.40625 183.90625 L 319.730469 184.539062 L 321.902344 185.566406 L 323.894531 186.910156 L 325.726562 188.472656 L 327.445312 190.144531 L 329.136719 191.855469 L 330.835938 193.695312 L 332.515625 195.730469 L 334.136719 197.996094 L 335.644531 200.484375 L 337 203.15625 L 337.171875 203.539062 L 338.320312 206.378906 L 339.273438 209.332031 L 340.039062 212.324219 L 340.621094 215.296875 L 341.058594 218.203125 L 341.410156 221.046875 L 341.726562 223.878906 L 341.96875 226.769531 L 342.0625 229.71875 L 341.953125 232.695312 L 341.605469 235.625 L 341 238.445312 L 340.867188 238.929688 L 339.9375 241.601562 L 338.765625 244.074219 L 337.394531 246.316406 L 335.882812 248.320312 L 334.289062 250.109375 L 332.664062 251.765625 L 331.007812 253.382812 L 329.21875 254.933594 L 327.222656 256.339844 L 324.988281 257.519531 L 322.535156 258.410156 Z M 319.917969 258.957031 "/>
<path style=" stroke:none;fill-rule:nonzero;fill:rgb(95.686275%,95.686275%,95.686275%);fill-opacity:1;" d="M 508.5625 548.789062 L 506.367188 547.835938 L 504.15625 546.503906 L 501.984375 544.867188 L 499.898438 543.027344 L 497.902344 541.089844 L 495.949219 539.121094 L 494.105469 537.070312 L 492.523438 534.882812 L 491.355469 532.574219 L 490.714844 530.191406 L 490.609375 528.785156 L 490.898438 526.433594 L 491.734375 524.125 L 493.039062 521.90625 L 494.691406 519.816406 L 496.546875 517.84375 L 498.464844 515.921875 L 500.441406 513.992188 L 502.503906 512.066406 L 504.640625 510.203125 L 506.808594 508.464844 L 508.5625 507.175781 L 510.78125 505.722656 L 512.890625 504.527344 L 514.851562 503.589844 L 516.644531 502.878906 L 518.308594 502.3125 L 519.957031 501.800781 L 521.710938 501.417969 L 523.617188 501.28125 L 525.660156 501.480469 L 527.796875 502.058594 L 528.207031 502.210938 L 530.375 503.238281 L 532.542969 504.609375 L 534.65625 506.25 L 536.667969 508.054688 L 538.589844 509.933594 L 540.464844 511.839844 L 542.210938 513.835938 L 543.667969 515.96875 L 544.6875 518.214844 L 545.167969 520.527344 L 545.199219 521.25 L 544.914062 523.515625 L 544.089844 525.738281 L 542.808594 527.867188 L 541.195312 529.871094 L 539.394531 531.761719 L 537.542969 533.613281 L 535.621094 535.488281 L 533.601562 537.375 L 531.507812 539.230469 L 529.382812 540.988281 L 528.207031 541.898438 L 525.855469 543.59375 L 523.617188 545.042969 L 521.542969 546.234375 L 519.640625 547.207031 L 517.847656 548.066406 L 515.988281 548.832031 L 513.949219 549.339844 L 511.71875 549.433594 L 509.332031 549.027344 Z M 508.5625 548.789062 "/>
<path style=" stroke:none;fill-rule:nonzero;fill:rgb(95.686275%,95.686275%,95.686275%);fill-opacity:1;" d="M 214.984375 526.4375 L 212.6875 526.835938 L 210.578125 526.679688 L 208.691406 526.03125 L 207.03125 525 L 205.542969 523.738281 L 204.113281 522.398438 L 202.609375 520.984375 L 200.960938 519.421875 L 199.160156 517.695312 L 197.222656 515.828125 L 195.761719 514.410156 L 193.710938 512.40625 L 191.628906 510.355469 L 189.5625 508.3125 L 187.558594 506.316406 L 185.628906 504.390625 L 183.742188 502.5 L 181.933594 500.546875 L 180.339844 498.476562 L 179.09375 496.285156 L 178.316406 494.003906 L 178.074219 491.855469 L 178.371094 489.472656 L 179.230469 487.136719 L 180.570312 484.894531 L 182.261719 482.785156 L 184.152344 480.796875 L 186.097656 478.855469 L 188.101562 476.9375 L 190.1875 475.109375 L 192.324219 473.460938 L 194.460938 472.070312 L 195.761719 471.371094 L 197.914062 470.472656 L 199.9375 469.957031 L 201.792969 469.789062 L 203.46875 469.890625 L 205.019531 470.148438 L 206.574219 470.464844 L 208.296875 470.972656 L 210.269531 471.789062 L 212.5 472.984375 L 214.953125 474.578125 L 214.984375 474.601562 L 217.167969 476.21875 L 219.4375 478.070312 L 221.746094 480.097656 L 224.039062 482.234375 L 226.285156 484.414062 L 228.484375 486.605469 L 230.652344 488.808594 L 232.695312 491.109375 L 234.472656 493.539062 L 235.855469 496.09375 L 236.746094 498.738281 L 237.070312 501.421875 L 237.074219 501.554688 L 236.761719 504.300781 L 235.859375 507.003906 L 234.4375 509.617188 L 232.609375 512.101562 L 230.511719 514.449219 L 228.289062 516.703125 L 226.03125 518.921875 L 223.726562 521.046875 L 221.371094 522.972656 L 219.011719 524.585938 L 216.703125 525.804688 Z M 214.984375 526.4375 "/>
<path style=" stroke:none;fill-rule:nonzero;fill:rgb(95.686275%,95.686275%,95.686275%);fill-opacity:1;" d="M 457.582031 543.308594 L 455.046875 543.042969 L 452.542969 542.269531 L 450.109375 541.039062 L 447.777344 539.4375 L 445.570312 537.570312 L 443.464844 535.550781 L 441.398438 533.480469 L 439.40625 531.351562 L 437.59375 529.113281 L 436.078125 526.753906 L 434.957031 524.300781 L 434.304688 521.78125 L 434.15625 519.878906 L 434.453125 517.199219 L 435.3125 514.558594 L 436.671875 512 L 438.425781 509.566406 L 440.453125 507.265625 L 442.613281 505.058594 L 444.808594 502.871094 L 447.046875 500.683594 L 449.332031 498.527344 L 451.625 496.464844 L 453.882812 494.554688 L 456.046875 492.855469 L 456.1875 492.75 L 458.621094 491.050781 L 460.820312 489.726562 L 462.761719 488.769531 L 464.445312 488.117188 L 465.960938 487.652344 L 467.472656 487.25 L 469.109375 487.003906 L 470.929688 487.039062 L 472.917969 487.4375 L 474.992188 488.214844 L 477.082031 489.335938 L 479.210938 490.78125 L 481.320312 492.476562 L 483.367188 494.328125 L 485.335938 496.253906 L 487.273438 498.199219 L 489.152344 500.175781 L 490.878906 502.1875 L 492.34375 504.183594 L 493.457031 506.109375 L 493.894531 507.121094 L 494.378906 509.015625 L 494.34375 510.691406 L 493.863281 512.121094 L 493.070312 513.335938 L 492.136719 514.429688 L 491.109375 515.59375 L 489.832031 517.003906 L 488.207031 518.75 L 486.226562 520.835938 L 485.265625 521.832031 L 483.378906 523.777344 L 481.332031 525.871094 L 479.171875 528.058594 L 476.964844 530.28125 L 474.757812 532.496094 L 472.570312 534.683594 L 470.371094 536.847656 L 468.078125 538.886719 L 465.65625 540.667969 L 463.113281 542.058594 L 460.480469 542.960938 L 457.804688 543.304688 Z M 457.582031 543.308594 "/>
<path style=" stroke:none;fill-rule:nonzero;fill:rgb(95.686275%,95.686275%,95.686275%);fill-opacity:1;" d="M 396.101562 167.925781 L 393.828125 167.640625 L 391.597656 166.8125 L 389.460938 165.53125 L 387.449219 163.914062 L 385.554688 162.109375 L 383.699219 160.246094 L 381.828125 158.3125 L 379.96875 156.253906 L 378.175781 154.09375 L 376.515625 151.875 L 375.65625 150.613281 L 374.191406 148.199219 L 372.988281 145.851562 L 372.050781 143.636719 L 371.332031 141.570312 L 370.742188 139.621094 L 370.167969 137.648438 L 369.59375 135.546875 L 369.039062 133.296875 L 368.523438 130.941406 L 368.191406 129.234375 L 367.785156 126.800781 L 367.460938 124.417969 L 367.210938 122.152344 L 367.027344 120.03125 L 366.882812 118.011719 L 366.796875 115.953125 L 366.929688 113.730469 L 367.398438 111.320312 L 368.269531 108.765625 L 368.953125 107.273438 L 370.253906 104.96875 L 371.828125 102.667969 L 373.617188 100.421875 L 375.539062 98.273438 L 377.519531 96.230469 L 379.511719 94.238281 L 381.5625 92.324219 L 383.738281 90.621094 L 386.042969 89.277344 L 388.4375 88.414062 L 390.878906 88.105469 L 390.941406 88.101562 L 393.308594 88.378906 L 395.636719 89.183594 L 397.882812 90.445312 L 400.007812 92.058594 L 402.015625 93.894531 L 403.953125 95.816406 L 405.882812 97.820312 L 407.796875 100.035156 L 409.640625 102.53125 L 411.351562 105.316406 L 412.863281 108.363281 L 413.363281 109.542969 L 414.425781 112.511719 L 415.285156 115.601562 L 415.941406 118.75 L 416.410156 121.890625 L 416.71875 124.972656 L 416.929688 127.988281 L 417.097656 130.976562 L 417.21875 134.003906 L 417.230469 137.089844 L 417.074219 140.199219 L 416.722656 143.277344 L 416.152344 146.253906 L 415.609375 148.296875 L 414.570312 151.195312 L 413.300781 153.839844 L 411.84375 156.203125 L 410.265625 158.28125 L 408.617188 160.113281 L 406.949219 161.800781 L 405.261719 163.445312 L 403.488281 164.972656 L 401.609375 166.265625 L 399.640625 167.234375 L 397.613281 167.796875 Z M 396.101562 167.925781 "/>
<path style=" stroke:none;fill-rule:nonzero;fill:rgb(95.686275%,95.686275%,95.686275%);fill-opacity:1;" d="M 466.714844 153.675781 L 464.351562 153.378906 L 462.035156 152.523438 L 459.816406 151.195312 L 457.726562 149.515625 L 455.757812 147.644531 L 453.832031 145.710938 L 451.929688 143.714844 L 450.121094 141.617188 L 448.484375 139.441406 L 447.109375 137.238281 L 446.4375 135.9375 L 445.550781 133.703125 L 445.027344 131.558594 L 444.839844 129.558594 L 444.914062 127.722656 L 445.144531 126.003906 L 445.425781 124.304688 L 445.832031 122.496094 L 446.449219 120.539062 L 447.335938 118.445312 L 448.496094 116.261719 L 448.722656 115.882812 L 450.148438 113.71875 L 451.789062 111.5625 L 453.570312 109.464844 L 455.425781 107.46875 L 457.296875 105.5625 L 459.175781 103.707031 L 461.136719 101.957031 L 463.226562 100.472656 L 465.433594 99.394531 L 467.707031 98.828125 L 468.835938 98.757812 L 471.144531 99.050781 L 473.402344 99.898438 L 475.566406 101.214844 L 477.601562 102.867188 L 479.519531 104.707031 L 481.398438 106.597656 L 483.257812 108.5625 L 485.03125 110.632812 L 486.644531 112.78125 L 488.007812 114.964844 L 488.5 115.882812 L 489.453125 118.082031 L 490.078125 120.199219 L 490.398438 122.1875 L 490.46875 124.019531 L 490.390625 125.738281 L 490.265625 127.445312 L 490.007812 129.265625 L 489.511719 131.246094 L 488.726562 133.375 L 487.628906 135.601562 L 487.441406 135.9375 L 486.066406 138.117188 L 484.453125 140.304688 L 482.667969 142.441406 L 480.789062 144.484375 L 478.875 146.4375 L 476.957031 148.34375 L 474.960938 150.152344 L 472.835938 151.714844 L 470.589844 152.882812 L 468.269531 153.546875 Z M 466.714844 153.675781 "/>
<path style=" stroke:none;fill-rule:nonzero;fill:rgb(95.686275%,95.686275%,95.686275%);fill-opacity:1;" d="M 153.160156 316.550781 L 150.703125 317.613281 L 148.332031 318.292969 L 146.113281 318.628906 L 144.066406 318.699219 L 142.121094 318.648438 L 140.113281 318.515625 L 137.945312 318.160156 L 135.609375 317.480469 L 133.167969 316.441406 L 132.441406 316.070312 L 130.226562 314.75 L 128.035156 313.183594 L 125.914062 311.441406 L 123.902344 309.601562 L 121.992188 307.730469 L 120.132812 305.847656 L 118.382812 303.878906 L 116.902344 301.78125 L 115.832031 299.570312 L 115.277344 297.285156 L 115.210938 296.214844 L 115.503906 293.914062 L 116.347656 291.65625 L 117.660156 289.496094 L 119.308594 287.46875 L 121.140625 285.550781 L 123.027344 283.675781 L 124.992188 281.820312 L 127.070312 280.039062 L 129.242188 278.417969 L 131.460938 277.035156 L 132.441406 276.515625 L 134.90625 275.460938 L 137.277344 274.796875 L 139.496094 274.484375 L 141.546875 274.433594 L 143.492188 274.503906 L 145.496094 274.660156 L 147.664062 275.039062 L 149.996094 275.730469 L 152.433594 276.78125 L 153.160156 277.15625 L 155.371094 278.484375 L 157.558594 280.054688 L 159.675781 281.796875 L 161.679688 283.632812 L 163.582031 285.5 L 165.4375 287.375 L 167.179688 289.339844 L 168.648438 291.429688 L 169.707031 293.640625 L 170.25 295.914062 L 170.308594 296.929688 L 170.015625 299.226562 L 169.171875 301.472656 L 167.863281 303.625 L 166.21875 305.648438 L 164.390625 307.558594 L 162.507812 309.429688 L 160.546875 311.28125 L 158.472656 313.054688 L 156.304688 314.671875 L 154.089844 316.054688 Z M 153.160156 316.550781 "/>
<path style=" stroke:none;fill-rule:nonzero;fill:rgb(95.686275%,95.686275%,95.686275%);fill-opacity:1;" d="M 629.515625 339.296875 L 627.292969 339.03125 L 625.105469 338.257812 L 623.003906 337.050781 L 621.019531 335.515625 L 619.144531 333.777344 L 617.328125 331.96875 L 615.460938 330.085938 L 613.46875 328.046875 L 611.335938 325.820312 L 609.097656 323.425781 L 606.789062 320.902344 L 606.546875 320.632812 L 604.386719 318.210938 L 602.234375 315.753906 L 600.132812 313.308594 L 598.121094 310.925781 L 596.203125 308.628906 L 594.355469 306.402344 L 592.542969 304.171875 L 590.839844 301.867188 L 589.363281 299.464844 L 588.214844 296.980469 L 587.484375 294.464844 L 587.230469 291.960938 L 587.230469 291.953125 L 587.527344 289.253906 L 588.398438 286.664062 L 589.757812 284.234375 L 591.484375 281.988281 L 593.429688 279.902344 L 595.441406 277.890625 L 597.503906 275.925781 L 599.644531 274.109375 L 601.84375 272.546875 L 604.046875 271.339844 L 605.921875 270.636719 L 608.316406 270.234375 L 610.542969 270.410156 L 612.558594 271.078125 L 614.367188 272.085938 L 616.050781 273.25 L 617.785156 274.484375 L 619.679688 275.894531 L 621.753906 277.527344 L 623.976562 279.367188 L 624.917969 280.175781 L 626.917969 281.945312 L 628.9375 283.796875 L 630.917969 285.675781 L 632.832031 287.535156 L 634.660156 289.351562 L 636.453125 291.144531 L 638.25 292.984375 L 640.042969 294.917969 L 641.785156 296.953125 L 643.417969 299.042969 L 644.847656 301.082031 L 646.320312 303.507812 L 647.5 305.847656 L 648.398438 308.03125 L 649.058594 310.046875 L 649.601562 311.953125 L 650.0625 313.917969 L 650.285156 316.046875 L 650.144531 318.347656 L 649.558594 320.777344 L 649.226562 321.691406 L 648.15625 323.921875 L 646.753906 326.144531 L 645.089844 328.300781 L 643.261719 330.355469 L 641.359375 332.308594 L 639.433594 334.214844 L 637.421875 336.007812 L 635.277344 337.53125 L 633.011719 338.640625 L 630.675781 339.222656 Z M 629.515625 339.296875 "/>
<path style=" stroke:none;fill-rule:nonzero;fill:rgb(95.686275%,95.686275%,95.686275%);fill-opacity:1;" d="M 429.90625 316.027344 L 427.484375 316.78125 L 425.152344 317.09375 L 422.980469 317.011719 L 420.976562 316.648438 L 419.078125 316.164062 L 417.117188 315.59375 L 414.996094 314.816406 L 412.707031 313.757812 L 410.300781 312.394531 L 409.574219 311.933594 L 407.398438 310.414062 L 405.234375 308.71875 L 403.132812 306.902344 L 401.140625 305.035156 L 399.246094 303.171875 L 397.394531 301.300781 L 395.652344 299.351562 L 394.167969 297.277344 L 393.082031 295.085938 L 392.503906 292.820312 L 392.425781 291.625 L 392.722656 289.308594 L 393.578125 287.039062 L 394.90625 284.867188 L 396.574219 282.828125 L 398.421875 280.902344 L 400.324219 279.015625 L 402.304688 277.175781 L 404.398438 275.460938 L 406.578125 273.964844 L 408.792969 272.78125 L 409.574219 272.445312 L 412 271.699219 L 414.332031 271.398438 L 416.503906 271.492188 L 418.507812 271.871094 L 420.40625 272.371094 L 422.363281 272.953125 L 424.484375 273.746094 L 426.769531 274.8125 L 429.171875 276.183594 L 429.90625 276.652344 L 432.082031 278.175781 L 434.242188 279.875 L 436.339844 281.691406 L 438.328125 283.554688 L 440.21875 285.417969 L 442.0625 287.28125 L 443.800781 289.226562 L 445.277344 291.300781 L 446.355469 293.488281 L 446.925781 295.746094 L 447 296.902344 L 446.703125 299.214844 L 445.847656 301.480469 L 444.519531 303.648438 L 442.855469 305.679688 L 441.007812 307.601562 L 439.113281 309.484375 L 437.132812 311.320312 L 435.042969 313.03125 L 432.863281 314.523438 L 430.652344 315.707031 Z M 429.90625 316.027344 "/>
<path style=" stroke:none;fill-rule:nonzero;fill:rgb(95.686275%,95.686275%,95.686275%);fill-opacity:1;" d="M 261.316406 605.183594 L 258.632812 604.886719 L 255.988281 604.023438 L 253.429688 602.664062 L 250.992188 600.90625 L 248.691406 598.875 L 246.484375 596.714844 L 244.292969 594.519531 L 242.09375 592.296875 L 239.910156 590.050781 L 237.800781 587.824219 L 235.824219 585.679688 L 234.035156 583.660156 L 233.941406 583.550781 L 232 581.226562 L 230.449219 579.21875 L 229.285156 577.539062 L 228.4375 576.148438 L 227.75 574.914062 L 227.144531 573.636719 L 226.765625 572.179688 L 226.75 570.507812 L 227.183594 568.628906 L 227.511719 567.777344 L 228.496094 565.875 L 229.839844 563.890625 L 231.460938 561.882812 L 233.261719 559.910156 L 235.144531 557.992188 L 237.054688 556.09375 L 239.011719 554.242188 L 241.035156 552.511719 L 243.078125 551.003906 L 245.085938 549.800781 L 245.871094 549.417969 L 247.894531 548.6875 L 249.757812 548.382812 L 251.425781 548.453125 L 252.902344 548.808594 L 254.261719 549.300781 L 255.671875 549.875 L 257.296875 550.683594 L 259.214844 551.84375 L 261.433594 553.398438 L 262.9375 554.554688 L 265.011719 556.265625 L 267.203125 558.1875 L 269.457031 560.257812 L 271.722656 562.421875 L 273.957031 564.613281 L 276.152344 566.804688 L 278.320312 569.007812 L 280.363281 571.304688 L 282.136719 573.738281 L 283.523438 576.292969 L 284.414062 578.933594 L 284.742188 581.613281 L 284.742188 581.753906 L 284.476562 584.292969 L 283.703125 586.796875 L 282.476562 589.230469 L 280.875 591.558594 L 279.007812 593.769531 L 276.984375 595.875 L 274.914062 597.9375 L 272.785156 599.933594 L 270.546875 601.746094 L 268.191406 603.261719 L 265.734375 604.382812 L 263.21875 605.035156 Z M 261.316406 605.183594 "/>
<path style=" stroke:none;fill-rule:nonzero;fill:rgb(95.686275%,95.686275%,95.686275%);fill-opacity:1;" d="M 439.535156 481.597656 L 437.382812 482.558594 L 435.3125 483.199219 L 433.375 483.542969 L 431.582031 483.644531 L 429.910156 483.597656 L 428.25 483.492188 L 426.449219 483.230469 L 424.425781 482.675781 L 422.164062 481.75 L 419.703125 480.425781 L 419.058594 480.03125 L 416.808594 478.5 L 414.484375 476.714844 L 412.136719 474.730469 L 409.820312 472.621094 L 407.5625 470.445312 L 405.359375 468.257812 L 403.191406 466.046875 L 401.148438 463.746094 L 399.375 461.3125 L 397.992188 458.75 L 397.105469 456.105469 L 396.785156 453.421875 L 396.785156 453.320312 L 397.09375 450.578125 L 397.996094 447.878906 L 399.410156 445.265625 L 401.234375 442.785156 L 403.328125 440.445312 L 405.546875 438.195312 L 407.800781 435.976562 L 410.109375 433.855469 L 412.484375 431.929688 L 414.878906 430.316406 L 417.238281 429.09375 L 419.058594 428.449219 L 421.640625 428.046875 L 424.015625 428.292969 L 426.148438 429.089844 L 428.035156 430.296875 L 429.753906 431.710938 L 431.472656 433.1875 L 433.308594 434.789062 L 435.308594 436.5625 L 437.441406 438.496094 L 439.535156 440.433594 L 441.640625 442.417969 L 443.742188 444.4375 L 445.796875 446.4375 L 447.757812 448.371094 L 449.625 450.234375 L 451.453125 452.074219 L 453.183594 453.980469 L 454.683594 456.007812 L 455.8125 458.152344 L 456.464844 460.375 L 456.601562 461.9375 L 456.304688 464.238281 L 455.457031 466.5 L 454.140625 468.660156 L 452.488281 470.691406 L 450.652344 472.609375 L 448.765625 474.488281 L 446.800781 476.34375 L 444.738281 478.121094 L 442.597656 479.738281 L 440.429688 481.113281 Z M 439.535156 481.597656 "/>
<path style=" stroke:none;fill-rule:nonzero;fill:rgb(95.686275%,95.686275%,95.686275%);fill-opacity:1;" d="M 444.46875 279 L 442.089844 277.589844 L 439.671875 275.890625 L 437.261719 273.964844 L 434.910156 271.886719 L 432.636719 269.726562 L 430.433594 267.535156 L 428.261719 265.328125 L 426.222656 263.023438 L 424.445312 260.589844 L 423.066406 258.027344 L 422.179688 255.378906 L 421.863281 252.695312 L 421.863281 252.605469 L 422.144531 250.003906 L 422.957031 247.4375 L 424.246094 244.945312 L 425.914062 242.566406 L 427.855469 240.316406 L 429.941406 238.164062 L 432.078125 236.039062 L 434.316406 233.902344 L 436.75 231.757812 L 439.402344 229.652344 L 442.261719 227.640625 L 445.292969 225.769531 L 446.628906 225.023438 L 449.703125 223.484375 L 452.847656 222.136719 L 456 220.984375 L 459.109375 220.023438 L 462.132812 219.234375 L 465.066406 218.5625 L 467.960938 217.941406 L 470.898438 217.375 L 473.925781 216.953125 L 477.035156 216.746094 L 480.191406 216.8125 L 483.332031 217.195312 L 486.265625 217.867188 L 489.179688 218.882812 L 491.960938 220.199219 L 494.578125 221.769531 L 497 223.542969 L 499.230469 225.449219 L 501.304688 227.425781 L 503.308594 229.425781 L 505.261719 231.460938 L 507.078125 233.59375 L 508.644531 235.835938 L 509.871094 238.183594 L 510.679688 240.597656 L 511.019531 243.046875 L 511.03125 243.507812 L 510.738281 246.167969 L 509.886719 248.796875 L 508.542969 251.339844 L 506.804688 253.761719 L 504.792969 256.054688 L 502.648438 258.25 L 500.46875 260.421875 L 498.230469 262.609375 L 495.925781 264.777344 L 493.578125 266.878906 L 491.230469 268.851562 L 488.9375 270.640625 L 488.621094 270.871094 L 485.9375 272.734375 L 483.449219 274.238281 L 481.195312 275.382812 L 479.1875 276.226562 L 477.339844 276.894531 L 475.492188 277.53125 L 473.511719 278.175781 L 471.382812 278.804688 L 469.125 279.394531 L 467.167969 279.847656 L 464.796875 280.316406 L 462.453125 280.699219 L 460.203125 281 L 458.078125 281.230469 L 456.054688 281.417969 L 453.996094 281.542969 L 451.746094 281.4375 L 449.253906 280.949219 L 446.546875 280 Z M 444.46875 279 "/>
<path style="fill:none;stroke-width:0.75;stroke-linecap:round;stroke-linejoin:round;stroke:rgb(66.27451%,66.27451%,66.27451%);stroke-opacity:1;stroke-miterlimit:10;" d="M 524.949219 197.054688 L 537.929688 204.589844 "/>
<path style="fill:none;stroke-width:0.75;stroke-linecap:round;stroke-linejoin:round;stroke:rgb(66.27451%,66.27451%,66.27451%);stroke-opacity:1;stroke-miterlimit:10;" d="M 255.933594 125.074219 L 268.320312 122.1875 "/>
<path style="fill:none;stroke-width:0.75;stroke-linecap:round;stroke-linejoin:round;stroke:rgb(66.27451%,66.27451%,66.27451%);stroke-opacity:1;stroke-miterlimit:10;" d="M 584.410156 406.253906 L 595.371094 405.820312 "/>
<path style="fill:none;stroke-width:0.75;stroke-linecap:round;stroke-linejoin:round;stroke:rgb(66.27451%,66.27451%,66.27451%);stroke-opacity:1;stroke-miterlimit:10;" d="M 540.355469 208.765625 L 540.429688 219.917969 "/>
<path style="fill:none;stroke-width:0.75;stroke-linecap:round;stroke-linejoin:round;stroke:rgb(66.27451%,66.27451%,66.27451%);stroke-opacity:1;stroke-miterlimit:10;" d="M 542.722656 204.5625 L 557.34375 195.851562 "/>
<path style="fill:none;stroke-width:0.75;stroke-linecap:round;stroke-linejoin:round;stroke:rgb(66.27451%,66.27451%,66.27451%);stroke-opacity:1;stroke-miterlimit:10;" d="M 319.910156 238.722656 L 310.761719 228.144531 "/>
<path style="fill:none;stroke-width:0.75;stroke-linecap:round;stroke-linejoin:round;stroke:rgb(66.27451%,66.27451%,66.27451%);stroke-opacity:1;stroke-miterlimit:10;" d="M 314.398438 205.324219 L 309.132812 217.039062 "/>
<path style="fill:none;stroke-width:0.75;stroke-linecap:round;stroke-linejoin:round;stroke:rgb(66.27451%,66.27451%,66.27451%);stroke-opacity:1;stroke-miterlimit:10;" d="M 512.808594 527.285156 L 525.429688 522.226562 "/>
<path style="fill:none;stroke-width:0.75;stroke-linecap:round;stroke-linejoin:round;stroke:rgb(66.27451%,66.27451%,66.27451%);stroke-opacity:1;stroke-miterlimit:10;" d="M 287.0625 225.46875 L 299.800781 223.914062 "/>
<path style="fill:none;stroke-width:0.75;stroke-linecap:round;stroke-linejoin:round;stroke:rgb(66.27451%,66.27451%,66.27451%);stroke-opacity:1;stroke-miterlimit:10;" d="M 203.285156 495.722656 L 199.800781 493.761719 "/>
<path style="fill:none;stroke-width:0.75;stroke-linecap:round;stroke-linejoin:round;stroke:rgb(66.27451%,66.27451%,66.27451%);stroke-opacity:1;stroke-miterlimit:10;" d="M 467.945312 512.742188 L 471.253906 510.464844 "/>
<path style="fill:none;stroke-width:0.75;stroke-linecap:round;stroke-linejoin:round;stroke:rgb(66.27451%,66.27451%,66.27451%);stroke-opacity:1;stroke-miterlimit:10;" d="M 390.996094 112.984375 L 391.125 125.234375 "/>
<path style="fill:none;stroke-width:0.75;stroke-linecap:round;stroke-linejoin:round;stroke:rgb(66.27451%,66.27451%,66.27451%);stroke-opacity:1;stroke-miterlimit:10;" d="M 467.109375 131.929688 L 468.539062 118.898438 "/>
<path style="fill:none;stroke-width:0.75;stroke-linecap:round;stroke-linejoin:round;stroke:rgb(66.27451%,66.27451%,66.27451%);stroke-opacity:1;stroke-miterlimit:10;" d="M 150.367188 296.839844 L 135.363281 296.3125 "/>
<path style="fill:none;stroke-width:0.75;stroke-linecap:round;stroke-linejoin:round;stroke:rgb(66.27451%,66.27451%,66.27451%);stroke-opacity:1;stroke-miterlimit:10;" d="M 575.742188 194.90625 L 563.167969 194.378906 "/>
<path style="fill:none;stroke-width:0.75;stroke-linecap:round;stroke-linejoin:round;stroke:rgb(66.27451%,66.27451%,66.27451%);stroke-opacity:1;stroke-miterlimit:10;" d="M 628.703125 318.195312 L 625.117188 303.949219 "/>
<path style="fill:none;stroke-width:0.75;stroke-linecap:round;stroke-linejoin:round;stroke:rgb(66.27451%,66.27451%,66.27451%);stroke-opacity:1;stroke-miterlimit:10;" d="M 395.488281 147.875 L 392.082031 133.226562 "/>
<path style="fill:none;stroke-width:0.75;stroke-linecap:round;stroke-linejoin:round;stroke:rgb(66.27451%,66.27451%,66.27451%);stroke-opacity:1;stroke-miterlimit:10;" d="M 427.15625 296.234375 L 412.410156 292.316406 "/>
<path style="fill:none;stroke-width:0.75;stroke-linecap:round;stroke-linejoin:round;stroke:rgb(66.27451%,66.27451%,66.27451%);stroke-opacity:1;stroke-miterlimit:10;" d="M 248.871094 570.707031 L 250.953125 572.558594 "/>
<path style="fill:none;stroke-width:0.75;stroke-linecap:round;stroke-linejoin:round;stroke:rgb(66.27451%,66.27451%,66.27451%);stroke-opacity:1;stroke-miterlimit:10;" d="M 611.292969 293.96875 L 622.066406 299.972656 "/>
<path style="fill:none;stroke-width:0.75;stroke-linecap:round;stroke-linejoin:round;stroke:rgb(66.27451%,66.27451%,66.27451%);stroke-opacity:1;stroke-miterlimit:10;" d="M 436.742188 460.820312 L 430.574219 458.023438 "/>
<path style="fill:none;stroke-width:0.75;stroke-linecap:round;stroke-linejoin:round;stroke:rgb(66.27451%,66.27451%,66.27451%);stroke-opacity:1;stroke-miterlimit:10;" d="M 477.238281 247.136719 L 477.726562 246.96875 "/>
<path style="fill:none;stroke-width:0.75;stroke-linecap:round;stroke-linejoin:round;stroke:rgb(66.27451%,66.27451%,66.27451%);stroke-opacity:1;stroke-miterlimit:10;" d="M 455.652344 251.664062 L 457.003906 251.542969 "/>
<path style=" stroke:none;fill-rule:nonzero;fill:rgb(3.137255%,81.960784%,81.960784%);fill-opacity:1;" d="M 369.789062 233.984375 C 369.789062 238.265625 363.363281 238.265625 363.363281 233.984375 C 363.363281 229.703125 369.789062 229.703125 369.789062 233.984375 "/>
<path style=" stroke:none;fill-rule:nonzero;fill:rgb(3.137255%,81.960784%,81.960784%);fill-opacity:1;" d="M 525.542969 194.851562 C 525.542969 200.703125 516.765625 200.703125 516.765625 194.851562 C 516.765625 189 525.542969 189 525.542969 194.851562 "/>
<path style=" stroke:none;fill-rule:nonzero;fill:rgb(3.137255%,81.960784%,81.960784%);fill-opacity:1;" d="M 627.125 431.816406 C 627.125 435.472656 621.644531 435.472656 621.644531 431.816406 C 621.644531 428.164062 627.125 428.164062 627.125 431.816406 "/>
<path style=" stroke:none;fill-rule:nonzero;fill:rgb(3.137255%,81.960784%,81.960784%);fill-opacity:1;" d="M 124.28125 393.34375 C 124.28125 396.929688 118.902344 396.929688 118.902344 393.34375 C 118.902344 389.757812 124.28125 389.757812 124.28125 393.34375 "/>
<path style=" stroke:none;fill-rule:nonzero;fill:rgb(3.137255%,81.960784%,81.960784%);fill-opacity:1;" d="M 256.054688 126.140625 C 256.054688 132.410156 246.648438 132.410156 246.648438 126.140625 C 246.648438 119.871094 256.054688 119.871094 256.054688 126.140625 "/>
<path style=" stroke:none;fill-rule:nonzero;fill:rgb(3.137255%,81.960784%,81.960784%);fill-opacity:1;" d="M 280.554688 553.410156 L 301.277344 553.410156 L 301.277344 574.132812 L 280.554688 574.132812 Z M 280.554688 553.410156 "/>
<path style=" stroke:none;fill-rule:nonzero;fill:rgb(3.137255%,81.960784%,81.960784%);fill-opacity:1;" d="M 324.253906 285.417969 C 324.253906 288.925781 318.996094 288.925781 318.996094 285.417969 C 318.996094 281.910156 324.253906 281.910156 324.253906 285.417969 "/>
<path style=" stroke:none;fill-rule:nonzero;fill:rgb(3.137255%,81.960784%,81.960784%);fill-opacity:1;" d="M 421.046875 161.070312 L 441.769531 161.070312 L 441.769531 181.792969 L 421.046875 181.792969 Z M 421.046875 161.070312 "/>
<path style=" stroke:none;fill-rule:nonzero;fill:rgb(3.137255%,81.960784%,81.960784%);fill-opacity:1;" d="M 584.414062 406.492188 C 584.414062 409.824219 581.714844 412.523438 578.382812 412.523438 C 575.054688 412.523438 572.355469 409.824219 572.355469 406.492188 C 572.355469 403.164062 575.054688 400.464844 578.382812 400.464844 C 581.714844 400.464844 584.414062 403.164062 584.414062 406.492188 "/>
<path style=" stroke:none;fill-rule:nonzero;fill:rgb(3.137255%,81.960784%,81.960784%);fill-opacity:1;" d="M 509.625 127.644531 C 509.625 131.503906 503.835938 131.503906 503.835938 127.644531 C 503.835938 123.785156 509.625 123.785156 509.625 127.644531 "/>
<path style=" stroke:none;fill-rule:nonzero;fill:rgb(3.137255%,81.960784%,81.960784%);fill-opacity:1;" d="M 247.6875 365.011719 C 247.6875 368.589844 242.320312 368.589844 242.320312 365.011719 C 242.320312 361.433594 247.6875 361.433594 247.6875 365.011719 "/>
<path style=" stroke:none;fill-rule:nonzero;fill:rgb(3.137255%,81.960784%,81.960784%);fill-opacity:1;" d="M 252.785156 499.238281 C 252.785156 503.164062 246.898438 503.164062 246.898438 499.238281 C 246.898438 495.3125 252.785156 495.3125 252.785156 499.238281 "/>
<path style=" stroke:none;fill-rule:nonzero;fill:rgb(3.137255%,81.960784%,81.960784%);fill-opacity:1;" d="M 351.09375 424.136719 C 351.09375 429.753906 342.660156 429.753906 342.660156 424.136719 C 342.660156 418.515625 351.09375 418.515625 351.09375 424.136719 "/>
<path style=" stroke:none;fill-rule:nonzero;fill:rgb(3.137255%,81.960784%,81.960784%);fill-opacity:1;" d="M 547.0625 153.097656 C 547.0625 156.691406 541.671875 156.691406 541.671875 153.097656 C 541.671875 149.503906 547.0625 149.503906 547.0625 153.097656 "/>
<path style=" stroke:none;fill-rule:nonzero;fill:rgb(3.137255%,81.960784%,81.960784%);fill-opacity:1;" d="M 346.183594 123.894531 C 346.183594 127.347656 341.003906 127.347656 341.003906 123.894531 C 341.003906 120.4375 346.183594 120.4375 346.183594 123.894531 "/>
<path style=" stroke:none;fill-rule:nonzero;fill:rgb(3.137255%,81.960784%,81.960784%);fill-opacity:1;" d="M 543.117188 205.984375 C 543.117188 209.691406 537.554688 209.691406 537.554688 205.984375 C 537.554688 202.277344 543.117188 202.277344 543.117188 205.984375 "/>
<path style=" stroke:none;fill-rule:nonzero;fill:rgb(3.137255%,81.960784%,81.960784%);fill-opacity:1;" d="M 338.371094 357.890625 C 338.371094 361.371094 333.148438 361.371094 333.148438 357.890625 C 333.148438 354.410156 338.371094 354.410156 338.371094 357.890625 "/>
<path style=" stroke:none;fill-rule:nonzero;fill:rgb(3.137255%,81.960784%,81.960784%);fill-opacity:1;" d="M 324.277344 240.71875 C 324.277344 244.242188 318.996094 244.242188 318.996094 240.71875 C 318.996094 237.199219 324.277344 237.199219 324.277344 240.71875 "/>
<path style=" stroke:none;fill-rule:nonzero;fill:rgb(3.137255%,81.960784%,81.960784%);fill-opacity:1;" d="M 319.738281 201.867188 C 319.738281 206.917969 312.164062 206.917969 312.164062 201.867188 C 312.164062 196.820312 319.738281 196.820312 319.738281 201.867188 "/>
<path style=" stroke:none;fill-rule:nonzero;fill:rgb(3.137255%,81.960784%,81.960784%);fill-opacity:1;" d="M 513.097656 528.785156 C 513.097656 534.167969 505.027344 534.167969 505.027344 528.785156 C 505.027344 523.40625 513.097656 523.40625 513.097656 528.785156 "/>
<path style=" stroke:none;fill-rule:nonzero;fill:rgb(3.137255%,81.960784%,81.960784%);fill-opacity:1;" d="M 287.089844 225.90625 C 287.089844 230.734375 279.851562 230.734375 279.851562 225.90625 C 279.851562 221.078125 287.089844 221.078125 287.089844 225.90625 "/>
<path style=" stroke:none;fill-rule:nonzero;fill:rgb(3.137255%,81.960784%,81.960784%);fill-opacity:1;" d="M 497.027344 349.3125 C 497.027344 352.996094 491.503906 352.996094 491.503906 349.3125 C 491.503906 345.628906 497.027344 345.628906 497.027344 349.3125 "/>
<path style=" stroke:none;fill-rule:nonzero;fill:rgb(3.137255%,81.960784%,81.960784%);fill-opacity:1;" d="M 400.28125 337.957031 C 400.28125 342.648438 393.246094 342.648438 393.246094 337.957031 C 393.246094 333.269531 400.28125 333.269531 400.28125 337.957031 "/>
<path style=" stroke:none;fill-rule:nonzero;fill:rgb(3.137255%,81.960784%,81.960784%);fill-opacity:1;" d="M 482.285156 430.085938 C 482.285156 433.621094 476.984375 433.621094 476.984375 430.085938 C 476.984375 426.550781 482.285156 426.550781 482.285156 430.085938 "/>
<path style=" stroke:none;fill-rule:nonzero;fill:rgb(3.137255%,81.960784%,81.960784%);fill-opacity:1;" d="M 184.890625 195.84375 C 184.890625 199.351562 179.632812 199.351562 179.632812 195.84375 C 179.632812 192.335938 184.890625 192.335938 184.890625 195.84375 "/>
<path style=" stroke:none;fill-rule:nonzero;fill:rgb(3.137255%,81.960784%,81.960784%);fill-opacity:1;" d="M 600.582031 405.714844 C 600.582031 409.191406 595.367188 409.191406 595.367188 405.714844 C 595.367188 402.238281 600.582031 402.238281 600.582031 405.714844 "/>
<path style=" stroke:none;fill-rule:nonzero;fill:rgb(3.137255%,81.960784%,81.960784%);fill-opacity:1;" d="M 371.632812 377.046875 C 371.632812 380.746094 366.085938 380.746094 366.085938 377.046875 C 366.085938 373.351562 371.632812 373.351562 371.632812 377.046875 "/>
<path style=" stroke:none;fill-rule:nonzero;fill:rgb(3.137255%,81.960784%,81.960784%);fill-opacity:1;" d="M 484.550781 202.4375 C 484.550781 206.445312 478.539062 206.445312 478.539062 202.4375 C 478.539062 198.429688 484.550781 198.429688 484.550781 202.4375 "/>
<path style=" stroke:none;fill-rule:nonzero;fill:rgb(3.137255%,81.960784%,81.960784%);fill-opacity:1;" d="M 235.824219 229.476562 L 256.546875 229.476562 L 256.546875 250.199219 L 235.824219 250.199219 Z M 235.824219 229.476562 "/>
<path style=" stroke:none;fill-rule:nonzero;fill:rgb(3.137255%,81.960784%,81.960784%);fill-opacity:1;" d="M 199.941406 233.660156 C 199.941406 237.171875 194.679688 237.171875 194.679688 233.660156 C 194.679688 230.152344 199.941406 230.152344 199.941406 233.660156 "/>
<path style=" stroke:none;fill-rule:nonzero;fill:rgb(3.137255%,81.960784%,81.960784%);fill-opacity:1;" d="M 221.078125 265.382812 C 221.078125 269.03125 215.609375 269.03125 215.609375 265.382812 C 215.609375 261.738281 221.078125 261.738281 221.078125 265.382812 "/>
<path style=" stroke:none;fill-rule:nonzero;fill:rgb(3.137255%,81.960784%,81.960784%);fill-opacity:1;" d="M 203.285156 491.191406 L 224.007812 491.191406 L 224.007812 511.914062 L 203.285156 511.914062 Z M 203.285156 491.191406 "/>
<path style=" stroke:none;fill-rule:nonzero;fill:rgb(3.137255%,81.960784%,81.960784%);fill-opacity:1;" d="M 212.046875 200.246094 L 232.769531 200.246094 L 232.769531 220.96875 L 212.046875 220.96875 Z M 212.046875 200.246094 "/>
<path style=" stroke:none;fill-rule:nonzero;fill:rgb(3.137255%,81.960784%,81.960784%);fill-opacity:1;" d="M 513.734375 307.351562 L 534.457031 307.351562 L 534.457031 328.074219 L 513.734375 328.074219 Z M 513.734375 307.351562 "/>
<path style=" stroke:none;fill-rule:nonzero;fill:rgb(3.137255%,81.960784%,81.960784%);fill-opacity:1;" d="M 365.324219 318.0625 C 365.324219 324.726562 355.328125 324.726562 355.328125 318.0625 C 355.328125 311.398438 365.324219 311.398438 365.324219 318.0625 "/>
<path style=" stroke:none;fill-rule:nonzero;fill:rgb(3.137255%,81.960784%,81.960784%);fill-opacity:1;" d="M 447.222656 509.519531 L 467.945312 509.519531 L 467.945312 530.242188 L 447.222656 530.242188 Z M 447.222656 509.519531 "/>
<path style=" stroke:none;fill-rule:nonzero;fill:rgb(3.137255%,81.960784%,81.960784%);fill-opacity:1;" d="M 396.316406 107.609375 C 396.316406 114.773438 385.566406 114.773438 385.566406 107.609375 C 385.566406 100.441406 396.316406 100.441406 396.316406 107.609375 "/>
<path style=" stroke:none;fill-rule:nonzero;fill:rgb(3.137255%,81.960784%,81.960784%);fill-opacity:1;" d="M 522.4375 564.765625 C 522.4375 568.605469 516.675781 568.605469 516.675781 564.765625 C 516.675781 560.921875 522.4375 560.921875 522.4375 564.765625 "/>
<path style=" stroke:none;fill-rule:nonzero;fill:rgb(3.137255%,81.960784%,81.960784%);fill-opacity:1;" d="M 473.25 171.023438 C 473.25 174.558594 467.945312 174.558594 467.945312 171.023438 C 467.945312 167.488281 473.25 167.488281 473.25 171.023438 "/>
<path style=" stroke:none;fill-rule:nonzero;fill:rgb(74.901961%,43.921569%,13.333333%);fill-opacity:1;" d="M 444.28125 556.515625 C 444.28125 562.574219 435.195312 562.574219 435.195312 556.515625 C 435.195312 550.457031 444.28125 550.457031 444.28125 556.515625 "/>
<path style=" stroke:none;fill-rule:nonzero;fill:rgb(18.039216%,56.862745%,73.72549%);fill-opacity:1;" d="M 316.988281 539.027344 C 316.988281 542.136719 314.46875 544.65625 311.359375 544.65625 C 308.25 544.65625 305.726562 542.136719 305.726562 539.027344 C 305.726562 535.917969 308.25 533.394531 311.359375 533.394531 C 314.46875 533.394531 316.988281 535.917969 316.988281 539.027344 "/>
<path style=" stroke:none;fill-rule:nonzero;fill:rgb(18.039216%,35.294118%,73.72549%);fill-opacity:1;" d="M 551.242188 491.699219 C 551.242188 495.183594 546.011719 495.183594 546.011719 491.699219 C 546.011719 488.214844 551.242188 488.214844 551.242188 491.699219 "/>
<path style=" stroke:none;fill-rule:nonzero;fill:rgb(18.039216%,35.294118%,73.72549%);fill-opacity:1;" d="M 470.34375 135.542969 C 470.34375 140.382812 463.082031 140.382812 463.082031 135.542969 C 463.082031 130.699219 470.34375 130.699219 470.34375 135.542969 "/>
<path style=" stroke:none;fill-rule:nonzero;fill:rgb(18.039216%,35.294118%,73.72549%);fill-opacity:1;" d="M 365.082031 194.148438 C 365.082031 197.691406 359.765625 197.691406 359.765625 194.148438 C 359.765625 190.601562 365.082031 190.601562 365.082031 194.148438 "/>
<path style=" stroke:none;fill-rule:nonzero;fill:rgb(18.039216%,35.294118%,73.72549%);fill-opacity:1;" d="M 530.476562 521.25 C 530.476562 524.742188 525.242188 524.742188 525.242188 521.25 C 525.242188 517.757812 530.476562 517.757812 530.476562 521.25 "/>
<path style=" stroke:none;fill-rule:nonzero;fill:rgb(18.039216%,35.294118%,73.72549%);fill-opacity:1;" d="M 539.125 402.988281 C 539.125 406.519531 533.828125 406.519531 533.828125 402.988281 C 533.828125 399.457031 539.125 399.457031 539.125 402.988281 "/>
<path style=" stroke:none;fill-rule:nonzero;fill:rgb(18.039216%,35.294118%,73.72549%);fill-opacity:1;" d="M 378.453125 499.121094 C 378.453125 502.597656 373.234375 502.597656 373.234375 499.121094 C 373.234375 495.644531 378.453125 495.644531 378.453125 499.121094 "/>
<path style=" stroke:none;fill-rule:nonzero;fill:rgb(18.039216%,35.294118%,73.72549%);fill-opacity:1;" d="M 155.585938 296.929688 C 155.585938 300.410156 150.367188 300.410156 150.367188 296.929688 C 150.367188 293.453125 155.585938 293.453125 155.585938 296.929688 "/>
<path style=" stroke:none;fill-rule:nonzero;fill:rgb(18.039216%,35.294118%,73.72549%);fill-opacity:1;" d="M 431.40625 598.414062 C 431.40625 604.933594 421.621094 604.933594 421.621094 598.414062 C 421.621094 591.890625 431.40625 591.890625 431.40625 598.414062 "/>
<path style=" stroke:none;fill-rule:nonzero;fill:rgb(18.039216%,35.294118%,73.72549%);fill-opacity:1;" d="M 353.109375 559.75 C 353.109375 565.449219 348.488281 570.066406 342.792969 570.066406 C 337.097656 570.066406 332.476562 565.449219 332.476562 559.75 C 332.476562 554.054688 337.097656 549.4375 342.792969 549.4375 C 348.488281 549.4375 353.109375 554.054688 353.109375 559.75 "/>
<path style=" stroke:none;fill-rule:nonzero;fill:rgb(87.843137%,65.098039%,3.137255%);fill-opacity:1;" d="M 236.015625 421.847656 C 236.015625 427.84375 227.019531 427.84375 227.019531 421.847656 C 227.019531 415.851562 236.015625 415.851562 236.015625 421.847656 "/>
<path style=" stroke:none;fill-rule:nonzero;fill:rgb(87.843137%,65.098039%,3.137255%);fill-opacity:1;" d="M 533.664062 359.75 C 533.664062 363.238281 528.433594 363.238281 528.433594 359.75 C 528.433594 356.265625 533.664062 356.265625 533.664062 359.75 "/>
<path style=" stroke:none;fill-rule:nonzero;fill:rgb(3.529412%,44.705882%,39.607843%);fill-opacity:1;" d="M 586.417969 195.132812 C 586.417969 202.253906 575.734375 202.253906 575.734375 195.132812 C 575.734375 188.007812 586.417969 188.007812 586.417969 195.132812 "/>
<path style=" stroke:none;fill-rule:nonzero;fill:rgb(3.529412%,44.705882%,39.607843%);fill-opacity:1;" d="M 632.828125 321.410156 C 632.828125 325.832031 626.199219 325.832031 626.199219 321.410156 C 626.199219 316.988281 632.828125 316.988281 632.828125 321.410156 "/>
<path style=" stroke:none;fill-rule:nonzero;fill:rgb(3.529412%,44.705882%,39.607843%);fill-opacity:1;" d="M 238.425781 328.402344 C 238.425781 335.378906 227.960938 335.378906 227.960938 328.402344 C 227.960938 321.425781 238.425781 321.425781 238.425781 328.402344 "/>
<path style=" stroke:none;fill-rule:nonzero;fill:rgb(3.529412%,44.705882%,39.607843%);fill-opacity:1;" d="M 398.808594 150.515625 C 398.808594 154.128906 393.390625 154.128906 393.390625 150.515625 C 393.390625 146.902344 398.808594 146.902344 398.808594 150.515625 "/>
<path style=" stroke:none;fill-rule:nonzero;fill:rgb(67.058824%,33.72549%,84.705882%);fill-opacity:1;" d="M 376.351562 457.578125 C 376.351562 461.242188 370.859375 461.242188 370.859375 457.578125 C 370.859375 453.917969 376.351562 453.917969 376.351562 457.578125 "/>
<path style=" stroke:none;fill-rule:nonzero;fill:rgb(67.058824%,33.72549%,84.705882%);fill-opacity:1;" d="M 432.277344 296.902344 C 432.277344 300.375 427.070312 300.375 427.070312 296.902344 C 427.070312 293.433594 432.277344 293.433594 432.277344 296.902344 "/>
<path style=" stroke:none;fill-rule:nonzero;fill:rgb(67.058824%,33.72549%,84.705882%);fill-opacity:1;" d="M 264.359375 398.6875 C 264.359375 402.371094 258.835938 402.371094 258.835938 398.6875 C 258.835938 395.003906 264.359375 395.003906 264.359375 398.6875 "/>
<path style=" stroke:none;fill-rule:nonzero;fill:rgb(67.058824%,33.72549%,84.705882%);fill-opacity:1;" d="M 249.605469 568.777344 C 249.605469 572.65625 243.789062 572.65625 243.789062 568.777344 C 243.789062 564.902344 249.605469 564.902344 249.605469 568.777344 "/>
<path style=" stroke:none;fill-rule:nonzero;fill:rgb(67.058824%,33.72549%,84.705882%);fill-opacity:1;" d="M 309.261719 131.1875 C 309.261719 135.074219 303.429688 135.074219 303.429688 131.1875 C 303.429688 127.296875 309.261719 127.296875 309.261719 131.1875 "/>
<path style=" stroke:none;fill-rule:nonzero;fill:rgb(67.058824%,33.72549%,84.705882%);fill-opacity:1;" d="M 561.539062 316.835938 C 561.539062 320.335938 556.289062 320.335938 556.289062 316.835938 C 556.289062 313.332031 561.539062 313.332031 561.539062 316.835938 "/>
<path style=" stroke:none;fill-rule:nonzero;fill:rgb(3.921569%,62.745098%,12.156863%);fill-opacity:1;" d="M 224.675781 547.445312 C 224.675781 551.589844 218.457031 551.589844 218.457031 547.445312 C 218.457031 543.300781 224.675781 543.300781 224.675781 547.445312 "/>
<path style=" stroke:none;fill-rule:nonzero;fill:rgb(3.921569%,62.745098%,12.156863%);fill-opacity:1;" d="M 376.621094 584.761719 C 376.621094 588.296875 371.320312 588.296875 371.320312 584.761719 C 371.320312 581.226562 376.621094 581.226562 376.621094 584.761719 "/>
<path style=" stroke:none;fill-rule:nonzero;fill:rgb(3.921569%,62.745098%,12.156863%);fill-opacity:1;" d="M 459.328125 592.75 C 459.328125 596.402344 453.84375 596.402344 453.84375 592.75 C 453.84375 589.09375 459.328125 589.09375 459.328125 592.75 "/>
<path style=" stroke:none;fill-rule:nonzero;fill:rgb(3.921569%,62.745098%,12.156863%);fill-opacity:1;" d="M 440.621094 208.660156 C 440.621094 212.226562 435.273438 212.226562 435.273438 208.660156 C 435.273438 205.09375 440.621094 205.09375 440.621094 208.660156 "/>
<path style=" stroke:none;fill-rule:nonzero;fill:rgb(3.921569%,62.745098%,12.156863%);fill-opacity:1;" d="M 415.957031 378.1875 C 415.957031 381.65625 410.757812 381.65625 410.757812 378.1875 C 410.757812 374.722656 415.957031 374.722656 415.957031 378.1875 "/>
<path style=" stroke:none;fill-rule:nonzero;fill:rgb(3.921569%,62.745098%,12.156863%);fill-opacity:1;" d="M 498.480469 148.746094 L 519.203125 148.746094 L 519.203125 169.46875 L 498.480469 169.46875 Z M 498.480469 148.746094 "/>
<path style=" stroke:none;fill-rule:nonzero;fill:rgb(3.921569%,62.745098%,12.156863%);fill-opacity:1;" d="M 262.683594 191.894531 C 262.683594 195.363281 257.484375 195.363281 257.484375 191.894531 C 257.484375 188.429688 262.683594 188.429688 262.683594 191.894531 "/>
<path style=" stroke:none;fill-rule:nonzero;fill:rgb(3.921569%,62.745098%,12.156863%);fill-opacity:1;" d="M 611.960938 291.390625 C 611.960938 298.453125 601.367188 298.453125 601.367188 291.390625 C 601.367188 284.324219 611.960938 284.324219 611.960938 291.390625 "/>
<path style=" stroke:none;fill-rule:nonzero;fill:rgb(3.921569%,62.745098%,12.156863%);fill-opacity:1;" d="M 483.453125 469.738281 C 483.453125 473.53125 477.757812 473.53125 477.757812 469.738281 C 477.757812 465.941406 483.453125 465.941406 483.453125 469.738281 "/>
<path style=" stroke:none;fill-rule:nonzero;fill:rgb(3.921569%,62.745098%,12.156863%);fill-opacity:1;" d="M 161.5 418.117188 C 161.5 425.273438 155.703125 431.070312 148.546875 431.070312 C 141.394531 431.070312 135.597656 425.273438 135.597656 418.117188 C 135.597656 410.964844 141.394531 405.167969 148.546875 405.167969 C 155.703125 405.167969 161.5 410.964844 161.5 418.117188 "/>
<path style=" stroke:none;fill-rule:nonzero;fill:rgb(3.921569%,62.745098%,12.156863%);fill-opacity:1;" d="M 250.953125 571.394531 L 271.675781 571.394531 L 271.675781 592.117188 L 250.953125 592.117188 Z M 250.953125 571.394531 "/>
<path style=" stroke:none;fill-rule:nonzero;fill:rgb(3.921569%,62.745098%,12.156863%);fill-opacity:1;" d="M 637.320312 391.675781 C 637.320312 396.839844 629.578125 396.839844 629.578125 391.675781 C 629.578125 386.515625 637.320312 386.515625 637.320312 391.675781 "/>
<path style=" stroke:none;fill-rule:nonzero;fill:rgb(3.921569%,62.745098%,12.156863%);fill-opacity:1;" d="M 501.28125 393.210938 C 501.28125 397.082031 495.472656 397.082031 495.472656 393.210938 C 495.472656 389.335938 501.28125 389.335938 501.28125 393.210938 "/>
<path style=" stroke:none;fill-rule:nonzero;fill:rgb(3.921569%,62.745098%,12.156863%);fill-opacity:1;" d="M 135.363281 296.214844 C 135.363281 299.851562 129.90625 299.851562 129.90625 296.214844 C 129.90625 292.578125 135.363281 292.578125 135.363281 296.214844 "/>
<path style=" stroke:none;fill-rule:nonzero;fill:rgb(3.921569%,62.745098%,12.156863%);fill-opacity:1;" d="M 414.328125 528.710938 C 414.328125 532.234375 409.042969 532.234375 409.042969 528.710938 C 409.042969 525.1875 414.328125 525.1875 414.328125 528.710938 "/>
<path style=" stroke:none;fill-rule:nonzero;fill:rgb(3.921569%,62.745098%,12.156863%);fill-opacity:1;" d="M 249.074219 288.683594 C 249.074219 293.027344 242.558594 293.027344 242.558594 288.683594 C 242.558594 284.339844 249.074219 284.339844 249.074219 288.683594 "/>
<path style=" stroke:none;fill-rule:nonzero;fill:rgb(3.921569%,62.745098%,12.156863%);fill-opacity:1;" d="M 139.011719 260.207031 C 139.011719 266.789062 129.136719 266.789062 129.136719 260.207031 C 129.136719 253.625 139.011719 253.625 139.011719 260.207031 "/>
<path style=" stroke:none;fill-rule:nonzero;fill:rgb(3.921569%,62.745098%,12.156863%);fill-opacity:1;" d="M 196.09375 533.6875 C 196.09375 537.175781 190.859375 537.175781 190.859375 533.6875 C 190.859375 530.199219 196.09375 530.199219 196.09375 533.6875 "/>
<path style=" stroke:none;fill-rule:nonzero;fill:rgb(3.921569%,62.745098%,12.156863%);fill-opacity:1;" d="M 287.070312 476.636719 C 287.070312 480.242188 281.664062 480.242188 281.664062 476.636719 C 281.664062 473.035156 287.070312 473.035156 287.070312 476.636719 "/>
<path style=" stroke:none;fill-rule:nonzero;fill:rgb(3.921569%,62.745098%,12.156863%);fill-opacity:1;" d="M 317.011719 450.9375 C 317.011719 454.453125 311.734375 454.453125 311.734375 450.9375 C 311.734375 447.417969 317.011719 447.417969 317.011719 450.9375 "/>
<path style=" stroke:none;fill-rule:nonzero;fill:rgb(3.921569%,62.745098%,12.156863%);fill-opacity:1;" d="M 417.191406 84.84375 L 437.914062 84.84375 L 437.914062 105.566406 L 417.191406 105.566406 Z M 417.191406 84.84375 "/>
<path style=" stroke:none;fill-rule:nonzero;fill:rgb(3.921569%,62.745098%,12.156863%);fill-opacity:1;" d="M 441.898438 461.9375 C 441.898438 465.53125 436.503906 465.53125 436.503906 461.9375 C 436.503906 458.339844 441.898438 458.339844 441.898438 461.9375 "/>
<path style=" stroke:none;fill-rule:nonzero;fill:rgb(3.921569%,62.745098%,12.156863%);fill-opacity:1;" d="M 204.105469 355.050781 C 204.105469 358.664062 198.6875 358.664062 198.6875 355.050781 C 198.6875 351.4375 204.105469 351.4375 204.105469 355.050781 "/>
<path style=" stroke:none;fill-rule:nonzero;fill:rgb(3.921569%,62.745098%,12.156863%);fill-opacity:1;" d="M 255.175781 457.46875 C 255.175781 461.085938 249.753906 461.085938 249.753906 457.46875 C 249.753906 453.855469 255.175781 453.855469 255.175781 457.46875 "/>
<path style=" stroke:none;fill-rule:nonzero;fill:rgb(3.921569%,62.745098%,12.156863%);fill-opacity:1;" d="M 479.730469 556.191406 C 479.730469 559.808594 474.300781 559.808594 474.300781 556.191406 C 474.300781 552.574219 479.730469 552.574219 479.730469 556.191406 "/>
<path style=" stroke:none;fill-rule:nonzero;fill:rgb(3.921569%,62.745098%,12.156863%);fill-opacity:1;" d="M 441.261719 414.378906 C 441.261719 417.84375 436.066406 417.84375 436.066406 414.378906 C 436.066406 410.914062 441.261719 410.914062 441.261719 414.378906 "/>
<path style=" stroke:none;fill-rule:nonzero;fill:rgb(3.921569%,62.745098%,12.156863%);fill-opacity:1;" d="M 446.816406 343.160156 C 446.816406 346.648438 441.582031 346.648438 441.582031 343.160156 C 441.582031 339.671875 446.816406 339.671875 446.816406 343.160156 "/>
<path style=" stroke:none;fill-rule:nonzero;fill:rgb(3.921569%,62.745098%,12.156863%);fill-opacity:1;" d="M 377.175781 542.132812 C 377.175781 545.664062 371.882812 545.664062 371.882812 542.132812 C 371.882812 538.605469 377.175781 538.605469 377.175781 542.132812 "/>
<path style=" stroke:none;fill-rule:nonzero;fill:rgb(3.921569%,62.745098%,12.156863%);fill-opacity:1;" d="M 187.390625 451.460938 C 187.390625 456.214844 183.535156 460.070312 178.78125 460.070312 C 174.023438 460.070312 170.171875 456.214844 170.171875 451.460938 C 170.171875 446.707031 174.023438 442.851562 178.78125 442.851562 C 183.535156 442.851562 187.390625 446.707031 187.390625 451.460938 "/>
<path style=" stroke:none;fill-rule:nonzero;fill:rgb(3.921569%,62.745098%,12.156863%);fill-opacity:1;" d="M 166.214844 244.984375 C 166.214844 248.449219 161.015625 248.449219 161.015625 244.984375 C 161.015625 241.515625 166.214844 241.515625 166.214844 244.984375 "/>
<path style=" stroke:none;fill-rule:nonzero;fill:rgb(3.921569%,62.745098%,12.156863%);fill-opacity:1;" d="M 170.425781 388.976562 C 170.425781 395.421875 160.753906 395.421875 160.753906 388.976562 C 160.753906 382.53125 170.425781 382.53125 170.425781 388.976562 "/>
<path style=" stroke:none;fill-rule:nonzero;fill:rgb(3.921569%,62.745098%,12.156863%);fill-opacity:1;" d="M 580.726562 254.460938 C 580.726562 258.058594 575.332031 258.058594 575.332031 254.460938 C 575.332031 250.863281 580.726562 250.863281 580.726562 254.460938 "/>
<path style=" stroke:none;fill-rule:nonzero;fill:rgb(3.921569%,62.745098%,12.156863%);fill-opacity:1;" d="M 554.375 447.65625 C 554.375 451.1875 549.074219 451.1875 549.074219 447.65625 C 549.074219 444.121094 554.375 444.121094 554.375 447.65625 "/>
<path style=" stroke:none;fill-rule:nonzero;fill:rgb(3.921569%,62.745098%,12.156863%);fill-opacity:1;" d="M 591.394531 444.191406 C 591.394531 450.878906 581.359375 450.878906 581.359375 444.191406 C 581.359375 437.5 591.394531 437.5 591.394531 444.191406 "/>
<path style=" stroke:none;fill-rule:nonzero;fill:rgb(3.921569%,62.745098%,12.156863%);fill-opacity:1;" d="M 184.5 275.53125 C 184.5 279.179688 179.03125 279.179688 179.03125 275.53125 C 179.03125 271.886719 184.5 271.886719 184.5 275.53125 "/>
<path style=" stroke:none;fill-rule:nonzero;fill:rgb(3.921569%,62.745098%,12.156863%);fill-opacity:1;" d="M 249.6875 521.789062 L 270.410156 521.789062 L 270.410156 542.511719 L 249.6875 542.511719 Z M 249.6875 521.789062 "/>
<path style=" stroke:none;fill-rule:nonzero;fill:rgb(3.921569%,62.745098%,12.156863%);fill-opacity:1;" d="M 591.9375 331.789062 C 591.9375 337.035156 584.070312 337.035156 584.070312 331.789062 C 584.070312 326.546875 591.9375 326.546875 591.9375 331.789062 "/>
<path style=" stroke:none;fill-rule:nonzero;fill:rgb(3.921569%,62.745098%,12.156863%);fill-opacity:1;" d="M 361.699219 93.753906 C 361.699219 98.371094 354.769531 98.371094 354.769531 93.753906 C 354.769531 89.132812 361.699219 89.132812 361.699219 93.753906 "/>
<path style=" stroke:none;fill-rule:nonzero;fill:rgb(3.921569%,62.745098%,12.156863%);fill-opacity:1;" d="M 242.164062 155.082031 C 242.164062 158.558594 236.945312 158.558594 236.945312 155.082031 C 236.945312 151.601562 242.164062 151.601562 242.164062 155.082031 "/>
<path style=" stroke:none;fill-rule:nonzero;fill:rgb(3.921569%,62.745098%,12.156863%);fill-opacity:1;" d="M 389.554688 188.171875 L 410.277344 188.171875 L 410.277344 208.894531 L 389.554688 208.894531 Z M 389.554688 188.171875 "/>
<path style=" stroke:none;fill-rule:nonzero;fill:rgb(3.921569%,62.745098%,12.156863%);fill-opacity:1;" d="M 192.363281 419.613281 C 192.363281 423.265625 186.886719 423.265625 186.886719 419.613281 C 186.886719 415.964844 192.363281 415.964844 192.363281 419.613281 "/>
<path style=" stroke:none;fill-rule:nonzero;fill:rgb(3.921569%,62.745098%,12.156863%);fill-opacity:1;" d="M 612.597656 470.644531 C 612.597656 474.21875 607.238281 474.21875 607.238281 470.644531 C 607.238281 467.070312 612.597656 467.070312 612.597656 470.644531 "/>
<path style=" stroke:none;fill-rule:nonzero;fill:rgb(3.921569%,62.745098%,12.156863%);fill-opacity:1;" d="M 118.191406 353.777344 C 118.191406 357.5625 112.511719 357.5625 112.511719 353.777344 C 112.511719 349.992188 118.191406 349.992188 118.191406 353.777344 "/>
<path style=" stroke:none;fill-rule:nonzero;fill:rgb(15.294118%,28.627451%,27.058824%);fill-opacity:1;" d="M 315.832031 324.164062 C 315.832031 327.660156 310.585938 327.660156 310.585938 324.164062 C 310.585938 320.667969 315.832031 320.667969 315.832031 324.164062 "/>
<path style=" stroke:none;fill-rule:nonzero;fill:rgb(15.294118%,28.627451%,27.058824%);fill-opacity:1;" d="M 321.035156 396.820312 C 321.035156 401.882812 313.4375 401.882812 313.4375 396.820312 C 313.4375 391.753906 321.035156 391.753906 321.035156 396.820312 "/>
<path style=" stroke:none;fill-rule:nonzero;fill:rgb(15.294118%,28.627451%,27.058824%);fill-opacity:1;" d="M 378.152344 405.351562 L 398.875 405.351562 L 398.875 426.074219 L 378.152344 426.074219 Z M 378.152344 405.351562 "/>
<path style=" stroke:none;fill-rule:nonzero;fill:rgb(15.294118%,28.627451%,27.058824%);fill-opacity:1;" d="M 166.933594 503.253906 C 166.933594 506.949219 161.390625 506.949219 161.390625 503.253906 C 161.390625 499.554688 166.933594 499.554688 166.933594 503.253906 "/>
<path style=" stroke:none;fill-rule:nonzero;fill:rgb(15.294118%,28.627451%,27.058824%);fill-opacity:1;" d="M 394.636719 556.761719 L 415.359375 556.761719 L 415.359375 577.484375 L 394.636719 577.484375 Z M 394.636719 556.761719 "/>
<path style=" stroke:none;fill-rule:nonzero;fill:rgb(15.294118%,28.627451%,27.058824%);fill-opacity:1;" d="M 302.277344 599.046875 C 302.277344 602.847656 296.574219 602.847656 296.574219 599.046875 C 296.574219 595.246094 302.277344 595.246094 302.277344 599.046875 "/>
<path style=" stroke:none;fill-rule:nonzero;fill:rgb(30.588235%,22.352941%,47.843137%);fill-opacity:1;" d="M 136.667969 329.429688 C 136.667969 332.894531 131.472656 332.894531 131.472656 329.429688 C 131.472656 325.96875 136.667969 325.96875 136.667969 329.429688 "/>
<path style=" stroke:none;fill-rule:nonzero;fill:rgb(70.196078%,14.901961%,35.686275%);fill-opacity:1;" d="M 412.5 291.625 C 412.5 295.207031 407.128906 295.207031 407.128906 291.625 C 407.128906 288.042969 412.5 288.042969 412.5 291.625 "/>
<path style=" stroke:none;fill-rule:nonzero;fill:rgb(18.039216%,73.72549%,27.058824%);fill-opacity:1;" d="M 543.808594 533.183594 L 564.53125 533.183594 L 564.53125 553.90625 L 543.808594 553.90625 Z M 543.808594 533.183594 "/>
<path style=" stroke:none;fill-rule:nonzero;fill:rgb(18.039216%,73.72549%,27.058824%);fill-opacity:1;" d="M 409.851562 442.957031 L 430.574219 442.957031 L 430.574219 463.679688 L 409.851562 463.679688 Z M 409.851562 442.957031 "/>
<path style=" stroke:none;fill-rule:nonzero;fill:rgb(18.039216%,73.72549%,27.058824%);fill-opacity:1;" d="M 477.238281 233.144531 L 497.960938 233.144531 L 497.960938 253.867188 L 477.238281 253.867188 Z M 477.238281 233.144531 "/>
<path style=" stroke:none;fill-rule:nonzero;fill:rgb(18.039216%,73.72549%,27.058824%);fill-opacity:1;" d="M 205.429688 447.261719 L 226.152344 447.261719 L 226.152344 467.984375 L 205.429688 467.984375 Z M 205.429688 447.261719 "/>
<path style=" stroke:none;fill-rule:nonzero;fill:rgb(18.039216%,73.72549%,27.058824%);fill-opacity:1;" d="M 405.753906 484.339844 L 426.476562 484.339844 L 426.476562 505.0625 L 405.753906 505.0625 Z M 405.753906 484.339844 "/>
<path style=" stroke:none;fill-rule:nonzero;fill:rgb(18.039216%,73.72549%,27.058824%);fill-opacity:1;" d="M 154.796875 470.132812 C 154.796875 473.707031 149.429688 473.707031 149.429688 470.132812 C 149.429688 466.554688 154.796875 466.554688 154.796875 470.132812 "/>
<path style=" stroke:none;fill-rule:nonzero;fill:rgb(18.039216%,73.72549%,27.058824%);fill-opacity:1;" d="M 197.28125 378.296875 L 218.003906 378.296875 L 218.003906 399.019531 L 197.28125 399.019531 Z M 197.28125 378.296875 "/>
<path style=" stroke:none;fill-rule:nonzero;fill:rgb(18.039216%,73.72549%,27.058824%);fill-opacity:1;" d="M 263.125 311.992188 L 283.847656 311.992188 L 283.847656 332.714844 L 263.125 332.714844 Z M 263.125 311.992188 "/>
<path style=" stroke:none;fill-rule:nonzero;fill:rgb(18.039216%,73.72549%,27.058824%);fill-opacity:1;" d="M 185.84375 151.414062 L 206.566406 151.414062 L 206.566406 172.136719 L 185.84375 172.136719 Z M 185.84375 151.414062 "/>
<path style=" stroke:none;fill-rule:nonzero;fill:rgb(18.039216%,73.72549%,27.058824%);fill-opacity:1;" d="M 434.929688 242.242188 L 455.652344 242.242188 L 455.652344 262.964844 L 434.929688 262.964844 Z M 434.929688 242.242188 "/>
<path style=" stroke:none;fill-rule:nonzero;fill:rgb(18.039216%,73.72549%,27.058824%);fill-opacity:1;" d="M 274.644531 416.5625 L 295.367188 416.5625 L 295.367188 437.285156 L 274.644531 437.285156 Z M 274.644531 416.5625 "/>
<path style=" stroke:none;fill-rule:nonzero;fill:rgb(18.039216%,73.72549%,27.058824%);fill-opacity:1;" d="M 164.535156 322.578125 L 185.257812 322.578125 L 185.257812 343.300781 L 164.535156 343.300781 Z M 164.535156 322.578125 "/>
<path style=" stroke:none;fill-rule:nonzero;fill:rgb(18.039216%,73.72549%,27.058824%);fill-opacity:1;" d="M 346.722656 148.425781 L 367.445312 148.425781 L 367.445312 169.148438 L 346.722656 169.148438 Z M 346.722656 148.425781 "/>
<path style=" stroke:none;fill-rule:nonzero;fill:rgb(18.039216%,73.72549%,27.058824%);fill-opacity:1;" d="M 568.789062 504.117188 L 589.511719 504.117188 L 589.511719 524.839844 L 568.789062 524.839844 Z M 568.789062 504.117188 "/>
<path style=" stroke:none;fill-rule:nonzero;fill:rgb(18.039216%,73.72549%,27.058824%);fill-opacity:1;" d="M 457.003906 240.238281 L 477.726562 240.238281 L 477.726562 260.960938 L 457.003906 260.960938 Z M 457.003906 240.238281 "/>
<path style=" stroke:none;fill-rule:nonzero;fill:rgb(18.039216%,73.72549%,27.058824%);fill-opacity:1;" d="M 450.164062 370.015625 L 470.886719 370.015625 L 470.886719 390.738281 L 450.164062 390.738281 Z M 450.164062 370.015625 "/>
<path style=" stroke:none;fill-rule:nonzero;fill:rgb(18.039216%,73.72549%,27.058824%);fill-opacity:1;" d="M 330.03125 506.683594 L 350.753906 506.683594 L 350.753906 527.40625 L 330.03125 527.40625 Z M 330.03125 506.683594 "/>
<path style=" stroke:none;fill-rule:nonzero;fill:rgb(18.039216%,73.72549%,27.058824%);fill-opacity:1;" d="M 507.8125 427.203125 L 528.535156 427.203125 L 528.535156 447.925781 L 507.8125 447.925781 Z M 507.8125 427.203125 "/>
<path style=" stroke:none;fill-rule:nonzero;fill:rgb(18.039216%,73.72549%,27.058824%);fill-opacity:1;" d="M 120.390625 431.226562 L 141.113281 431.226562 L 141.113281 451.949219 L 120.390625 451.949219 Z M 120.390625 431.226562 "/>
<path style=" stroke:none;fill-rule:nonzero;fill:rgb(18.039216%,73.72549%,27.058824%);fill-opacity:1;" d="M 475.539062 313.382812 C 475.539062 317.613281 469.195312 317.613281 469.195312 313.382812 C 469.195312 309.152344 475.539062 309.152344 475.539062 313.382812 "/>
<path style=" stroke:none;fill-rule:nonzero;fill:rgb(18.039216%,73.72549%,27.058824%);fill-opacity:1;" d="M 273.445312 121.597656 C 273.445312 125.0625 268.25 125.0625 268.25 121.597656 C 268.25 118.136719 273.445312 118.136719 273.445312 121.597656 "/>
<path style=" stroke:none;fill-rule:nonzero;fill:rgb(18.039216%,73.72549%,27.058824%);fill-opacity:1;" d="M 635.144531 356.265625 C 635.144531 359.878906 629.726562 359.878906 629.726562 356.265625 C 629.726562 352.65625 635.144531 352.65625 635.144531 356.265625 "/>
<path style=" stroke:none;fill-rule:nonzero;fill:rgb(18.039216%,73.72549%,27.058824%);fill-opacity:1;" d="M 619.027344 256.765625 C 619.027344 260.683594 613.148438 260.683594 613.148438 256.765625 C 613.148438 252.84375 619.027344 252.84375 619.027344 256.765625 "/>
<path style=" stroke:none;fill-rule:nonzero;fill:rgb(18.039216%,73.72549%,27.058824%);fill-opacity:1;" d="M 605.289062 365.738281 C 605.289062 372.4375 595.242188 372.4375 595.242188 365.738281 C 595.242188 359.042969 605.289062 359.042969 605.289062 365.738281 "/>
<path style=" stroke:none;fill-rule:nonzero;fill:rgb(18.039216%,73.72549%,27.058824%);fill-opacity:1;" d="M 548.566406 227.996094 C 548.566406 232.460938 544.949219 236.078125 540.484375 236.078125 C 536.023438 236.078125 532.40625 232.460938 532.40625 227.996094 C 532.40625 223.535156 536.023438 219.917969 540.484375 219.917969 C 544.949219 219.917969 548.566406 223.535156 548.566406 227.996094 "/>
<path style=" stroke:none;fill-rule:nonzero;fill:rgb(18.039216%,73.72549%,27.058824%);fill-opacity:1;" d="M 313.0625 223.109375 C 313.0625 226.785156 310.082031 229.765625 306.40625 229.765625 C 302.730469 229.765625 299.753906 226.785156 299.753906 223.109375 C 299.753906 219.433594 302.730469 216.457031 306.40625 216.457031 C 310.082031 216.457031 313.0625 219.433594 313.0625 223.109375 "/>
<path style=" stroke:none;fill-rule:nonzero;fill:rgb(18.039216%,73.72549%,27.058824%);fill-opacity:1;" d="M 157.738281 215.058594 C 157.738281 218.738281 152.214844 218.738281 152.214844 215.058594 C 152.214844 211.375 157.738281 211.375 157.738281 215.058594 "/>
<path style=" stroke:none;fill-rule:nonzero;fill:rgb(18.039216%,73.72549%,27.058824%);fill-opacity:1;" d="M 601.671875 227.039062 C 601.671875 230.585938 596.347656 230.585938 596.347656 227.039062 C 596.347656 223.488281 601.671875 223.488281 601.671875 227.039062 "/>
<path style=" stroke:none;fill-rule:nonzero;fill:rgb(18.039216%,73.72549%,27.058824%);fill-opacity:1;" d="M 292.210938 364.484375 C 292.210938 368.292969 286.496094 368.292969 286.496094 364.484375 C 286.496094 360.671875 292.210938 360.671875 292.210938 364.484375 "/>
<path style=" stroke:none;fill-rule:nonzero;fill:rgb(18.039216%,73.72549%,27.058824%);fill-opacity:1;" d="M 327.914062 163.867188 C 327.914062 167.773438 324.746094 170.941406 320.839844 170.941406 C 316.933594 170.941406 313.765625 167.773438 313.765625 163.867188 C 313.765625 159.960938 316.933594 156.792969 320.839844 156.792969 C 324.746094 156.792969 327.914062 159.960938 327.914062 163.867188 "/>
<path style=" stroke:none;fill-rule:nonzero;fill:rgb(18.039216%,73.72549%,27.058824%);fill-opacity:1;" d="M 356.730469 611.847656 C 356.730469 615.929688 350.609375 615.929688 350.609375 611.847656 C 350.609375 607.765625 356.730469 607.765625 356.730469 611.847656 "/>
<path style=" stroke:none;fill-rule:nonzero;fill:rgb(18.039216%,73.72549%,27.058824%);fill-opacity:1;" d="M 519.046875 477.824219 C 519.046875 481.546875 513.457031 481.546875 513.457031 477.824219 C 513.457031 474.097656 519.046875 474.097656 519.046875 477.824219 "/>
<path style=" stroke:none;fill-rule:nonzero;fill:rgb(18.039216%,73.72549%,27.058824%);fill-opacity:1;" d="M 200.300781 491.855469 C 200.300781 497.042969 192.519531 497.042969 192.519531 491.855469 C 192.519531 486.667969 200.300781 486.667969 200.300781 491.855469 "/>
<path style=" stroke:none;fill-rule:nonzero;fill:rgb(18.039216%,73.72549%,27.058824%);fill-opacity:1;" d="M 478.015625 508.359375 C 478.015625 513.304688 470.601562 513.304688 470.601562 508.359375 C 470.601562 503.417969 478.015625 503.417969 478.015625 508.359375 "/>
<path style=" stroke:none;fill-rule:nonzero;fill:rgb(18.039216%,73.72549%,27.058824%);fill-opacity:1;" d="M 435.253906 129.140625 C 435.253906 132.933594 429.5625 132.933594 429.5625 129.140625 C 429.5625 125.347656 435.253906 125.347656 435.253906 129.140625 "/>
<path style=" stroke:none;fill-rule:nonzero;fill:rgb(18.039216%,73.72549%,27.058824%);fill-opacity:1;" d="M 286.734375 161.957031 C 286.734375 168.570312 276.8125 168.570312 276.8125 161.957031 C 276.8125 155.339844 286.734375 155.339844 286.734375 161.957031 "/>
<path style=" stroke:none;fill-rule:nonzero;fill:rgb(18.039216%,73.72549%,27.058824%);fill-opacity:1;" d="M 283.585938 275.519531 C 283.585938 279.285156 277.9375 279.285156 277.9375 275.519531 C 277.9375 271.753906 283.585938 271.753906 283.585938 275.519531 "/>
<path style=" stroke:none;fill-rule:nonzero;fill:rgb(18.039216%,73.72549%,27.058824%);fill-opacity:1;" d="M 563.171875 194.246094 C 563.171875 198.425781 556.898438 198.425781 556.898438 194.246094 C 556.898438 190.066406 563.171875 190.066406 563.171875 194.246094 "/>
<path style=" stroke:none;fill-rule:nonzero;fill:rgb(18.039216%,73.72549%,27.058824%);fill-opacity:1;" d="M 395.214844 129.28125 C 395.214844 134.679688 387.117188 134.679688 387.117188 129.28125 C 387.117188 123.882812 395.214844 123.882812 395.214844 129.28125 "/>
<path style=" stroke:none;fill-rule:nonzero;fill:rgb(18.039216%,73.72549%,27.058824%);fill-opacity:1;" d="M 339.207031 479.992188 C 339.207031 483.9375 333.285156 483.9375 333.285156 479.992188 C 333.285156 476.042969 339.207031 476.042969 339.207031 479.992188 "/>
<path style=" stroke:none;fill-rule:nonzero;fill:rgb(18.039216%,73.72549%,27.058824%);fill-opacity:1;" d="M 405.734375 243.703125 C 405.734375 247.222656 400.453125 247.222656 400.453125 243.703125 C 400.453125 240.183594 405.734375 240.183594 405.734375 243.703125 "/>
<path style=" stroke:none;fill-rule:nonzero;fill:rgb(18.039216%,73.72549%,27.058824%);fill-opacity:1;" d="M 502.992188 288.203125 C 502.992188 291.8125 497.578125 291.8125 497.578125 288.203125 C 497.578125 284.59375 502.992188 284.59375 502.992188 288.203125 "/>
<path style=" stroke:none;fill-rule:nonzero;fill:rgb(18.039216%,73.72549%,27.058824%);fill-opacity:1;" d="M 627.183594 301.300781 C 627.183594 304.941406 621.71875 304.941406 621.71875 301.300781 C 621.71875 297.660156 627.183594 297.660156 627.183594 301.300781 "/>
<path style=" stroke:none;fill-rule:nonzero;fill:rgb(18.039216%,73.72549%,27.058824%);fill-opacity:1;" d="M 564.425781 283.03125 C 564.425781 286.59375 559.085938 286.59375 559.085938 283.03125 C 559.085938 279.472656 564.425781 279.472656 564.425781 283.03125 "/>
<path style=" stroke:none;fill-rule:nonzero;fill:rgb(18.039216%,73.72549%,27.058824%);fill-opacity:1;" d="M 224.675781 178.554688 C 224.675781 183.285156 217.578125 183.285156 217.578125 178.554688 C 217.578125 173.824219 224.675781 173.824219 224.675781 178.554688 "/>
<path style=" stroke:none;fill-rule:nonzero;fill:rgb(18.039216%,73.72549%,27.058824%);fill-opacity:1;" d="M 152.457031 362.660156 C 152.457031 366.1875 147.167969 366.1875 147.167969 362.660156 C 147.167969 359.136719 152.457031 359.136719 152.457031 362.660156 "/>
<path style=" stroke:none;fill-rule:nonzero;fill:rgb(18.039216%,73.72549%,27.058824%);fill-opacity:1;" d="M 492.910156 586.523438 C 492.910156 590.195312 487.398438 590.195312 487.398438 586.523438 C 487.398438 582.847656 492.910156 582.847656 492.910156 586.523438 "/>
<path style=" stroke:none;fill-rule:nonzero;fill:rgb(49.803922%,27.058824%,38.039216%);fill-opacity:1;" d="M 318.980469 99.417969 C 318.980469 104.597656 311.214844 104.597656 311.214844 99.417969 C 311.214844 94.238281 318.980469 94.238281 318.980469 99.417969 "/>
<path style=" stroke:none;fill-rule:nonzero;fill:rgb(80.784314%,49.411765%,0%);fill-opacity:1;" d="M 296.609375 509.84375 C 296.609375 513.675781 290.859375 513.675781 290.859375 509.84375 C 290.859375 506.007812 296.609375 506.007812 296.609375 509.84375 "/>
<path style=" stroke:none;fill-rule:nonzero;fill:rgb(41.568627%,32.156863%,77.647059%);fill-opacity:1;" d="M 471.566406 116.183594 C 471.566406 119.824219 466.105469 119.824219 466.105469 116.183594 C 466.105469 112.542969 471.566406 112.542969 471.566406 116.183594 "/>
<path style=" stroke:none;fill-rule:nonzero;fill:rgb(41.568627%,32.156863%,77.647059%);fill-opacity:1;" d="M 318.777344 579.726562 L 339.5 579.726562 L 339.5 600.449219 L 318.777344 600.449219 Z M 318.777344 579.726562 "/>
<path style=" stroke:none;fill-rule:nonzero;fill:rgb(41.568627%,32.156863%,77.647059%);fill-opacity:1;" d="M 354.046875 266.035156 L 374.769531 266.035156 L 374.769531 286.757812 L 354.046875 286.757812 Z M 354.046875 266.035156 "/>
<path style=" stroke:none;fill-rule:nonzero;fill:rgb(41.568627%,32.156863%,77.647059%);fill-opacity:1;" d="M 519.085938 254.617188 L 539.808594 254.617188 L 539.808594 275.339844 L 519.085938 275.339844 Z M 519.085938 254.617188 "/>
<path style=" stroke:none;fill-rule:nonzero;fill:rgb(41.568627%,32.156863%,77.647059%);fill-opacity:1;" d="M 386.226562 600.5 L 406.949219 600.5 L 406.949219 621.222656 L 386.226562 621.222656 Z M 386.226562 600.5 "/>
<path style=" stroke:none;fill-rule:nonzero;fill:rgb(67.843137%,55.294118%,55.294118%);fill-opacity:1;" d="M 192.597656 295.988281 L 213.320312 295.988281 L 213.320312 316.710938 L 192.597656 316.710938 Z M 192.597656 295.988281 "/>
<path style=" stroke:none;fill-rule:nonzero;fill:rgb(67.843137%,55.294118%,55.294118%);fill-opacity:1;" d="M 568.894531 470.359375 L 589.617188 470.359375 L 589.617188 491.082031 L 568.894531 491.082031 Z M 568.894531 470.359375 "/>
<path style=" stroke:none;fill-rule:nonzero;fill:rgb(81.176471%,90.588235%,12.156863%);fill-opacity:1;" d="M 553.328125 356.402344 L 574.050781 356.402344 L 574.050781 377.125 L 553.328125 377.125 Z M 553.328125 356.402344 "/>
</g>
</svg>
