<?xml version="1.0" encoding="UTF-8"?>
<svg xmlns="http://www.w3.org/2000/svg" xmlns:xlink="http://www.w3.org/1999/xlink" width="720pt" height="720pt" viewBox="0 0 720 720" version="1.1">
<g id="surface2954">
<path style=" stroke:none;fill-rule:nonzero;fill:rgb(95.686275%,95.686275%,95.686275%);fill-opacity:1;" d="M 300.519531 618.804688 L 298.253906 618.519531 L 296.03125 617.703125 L 293.902344 616.429688 L 291.894531 614.824219 L 290.003906 613.03125 L 288.152344 611.179688 L 286.277344 609.25 L 284.390625 607.195312 L 282.53125 605.027344 L 280.761719 602.78125 L 279.703125 601.324219 L 278.097656 598.90625 L 276.707031 596.535156 L 275.539062 594.277344 L 274.582031 592.164062 L 273.75 590.164062 L 272.960938 588.164062 L 272.246094 586.042969 L 271.6875 583.773438 L 271.351562 581.390625 L 271.273438 579.042969 L 271.464844 576.628906 L 271.90625 574.257812 L 272.5625 571.996094 L 273.359375 569.871094 L 274.230469 567.863281 L 275.140625 565.859375 L 276.167969 563.746094 L 277.390625 561.492188 L 278.824219 559.136719 L 280.457031 556.734375 L 280.566406 556.574219 L 282.28125 554.304688 L 284.113281 552.078125 L 285.996094 549.953125 L 287.882812 547.953125 L 289.734375 546.074219 L 291.578125 544.246094 L 293.496094 542.515625 L 295.535156 541.027344 L 297.691406 539.921875 L 299.921875 539.304688 L 301.320312 539.195312 L 303.351562 539.425781 L 305.351562 540.09375 L 307.285156 541.144531 L 309.121094 542.5 L 310.855469 544.050781 L 312.523438 545.695312 L 314.179688 547.394531 L 315.8125 549.277344 L 317.382812 551.433594 L 318.828125 553.894531 L 320.097656 556.648438 L 320.929688 558.953125 L 321.734375 561.863281 L 322.335938 564.929688 L 322.746094 568.089844 L 322.980469 571.273438 L 323.066406 574.429688 L 323.0625 577.535156 L 323.019531 580.609375 L 322.933594 583.71875 L 322.75 586.878906 L 322.421875 590.066406 L 321.917969 593.226562 L 321.222656 596.285156 L 320.433594 598.917969 L 319.273438 601.875 L 317.917969 604.566406 L 316.40625 606.960938 L 314.800781 609.054688 L 313.148438 610.894531 L 311.488281 612.582031 L 309.804688 614.222656 L 308.046875 615.75 L 306.183594 617.058594 L 304.226562 618.050781 L 302.210938 618.644531 Z M 300.519531 618.804688 "/>
<path style=" stroke:none;fill-rule:nonzero;fill:rgb(95.686275%,95.686275%,95.686275%);fill-opacity:1;" d="M 627.773438 440.507812 L 625.257812 441.425781 L 622.789062 441.980469 L 620.421875 442.199219 L 618.203125 442.160156 L 616.09375 441.980469 L 613.96875 441.742188 L 611.714844 441.347656 L 609.324219 440.695312 L 606.839844 439.742188 L 604.878906 438.78125 L 602.660156 437.46875 L 600.488281 435.953125 L 598.417969 434.289062 L 596.46875 432.542969 L 594.636719 430.773438 L 592.859375 429 L 591.050781 427.179688 L 589.179688 425.265625 L 587.253906 423.265625 L 585.324219 421.210938 L 583.4375 419.152344 L 583.417969 419.128906 L 581.410156 416.871094 L 579.535156 414.699219 L 577.835938 412.660156 L 576.308594 410.78125 L 574.902344 409.019531 L 573.550781 407.246094 L 572.382812 405.34375 L 571.550781 403.28125 L 571.179688 401.085938 L 571.296875 399.082031 L 571.828125 397.09375 L 572.75 395.105469 L 574 393.160156 L 575.5 391.292969 L 577.152344 389.511719 L 578.867188 387.785156 L 580.640625 386.097656 L 582.59375 384.554688 L 584.785156 383.261719 L 587.226562 382.328125 L 589.898438 381.828125 L 591.320312 381.753906 L 593.976562 381.933594 L 596.738281 382.488281 L 599.546875 383.386719 L 602.351562 384.5625 L 605.101562 385.9375 L 607.789062 387.425781 L 610.453125 388.949219 L 613.160156 390.519531 L 615.925781 392.171875 L 618.730469 393.910156 L 621.527344 395.726562 L 624.257812 397.585938 L 626.15625 398.941406 L 629.027344 401.105469 L 631.667969 403.238281 L 634.039062 405.285156 L 636.136719 407.226562 L 638.011719 409.054688 L 639.785156 410.832031 L 641.492188 412.65625 L 643.007812 414.59375 L 644.207031 416.644531 L 644.976562 418.777344 L 645.253906 420.953125 L 645.253906 421.011719 L 644.960938 423.304688 L 644.121094 425.554688 L 642.8125 427.707031 L 641.171875 429.730469 L 639.34375 431.640625 L 637.460938 433.507812 L 635.488281 435.351562 L 633.378906 437.109375 L 631.140625 438.6875 L 628.820312 440.015625 Z M 627.773438 440.507812 "/>
<path style=" stroke:none;fill-rule:nonzero;fill:rgb(95.686275%,95.686275%,95.686275%);fill-opacity:1;" d="M 364.484375 504.675781 L 362.183594 504.382812 L 359.925781 503.535156 L 357.765625 502.222656 L 355.738281 500.570312 L 353.824219 498.738281 L 351.949219 496.847656 L 350.109375 494.867188 L 348.382812 492.746094 L 346.851562 490.496094 L 345.609375 488.160156 L 345.1875 487.171875 L 344.398438 484.675781 L 343.992188 482.21875 L 343.9375 479.867188 L 344.144531 477.652344 L 344.5 475.550781 L 344.910156 473.4375 L 345.476562 471.195312 L 346.300781 468.796875 L 347.417969 466.277344 L 348.636719 464.039062 L 350.140625 461.703125 L 351.84375 459.402344 L 353.683594 457.191406 L 355.59375 455.101562 L 357.515625 453.128906 L 359.4375 451.214844 L 361.425781 449.382812 L 363.535156 447.773438 L 365.769531 446.53125 L 368.085938 445.765625 L 370.132812 445.546875 L 372.519531 445.84375 L 374.867188 446.703125 L 377.117188 448.039062 L 379.234375 449.726562 L 381.234375 451.621094 L 383.183594 453.574219 L 385.09375 455.601562 L 386.886719 457.757812 L 388.464844 460.035156 L 389.742188 462.386719 L 390.417969 464.039062 L 391.089844 466.585938 L 391.328125 469.070312 L 391.175781 471.4375 L 390.730469 473.644531 L 390.125 475.734375 L 389.464844 477.824219 L 388.667969 480.03125 L 387.65625 482.375 L 386.398438 484.820312 L 384.984375 487.171875 L 383.394531 489.484375 L 381.648438 491.742188 L 379.8125 493.890625 L 377.945312 495.902344 L 376.085938 497.792969 L 374.234375 499.628906 L 372.304688 501.367188 L 370.25 502.859375 L 368.082031 503.960938 L 365.839844 504.574219 Z M 364.484375 504.675781 "/>
<path style=" stroke:none;fill-rule:nonzero;fill:rgb(95.686275%,95.686275%,95.686275%);fill-opacity:1;" d="M 165.890625 532.140625 L 163.566406 531.191406 L 161.214844 529.84375 L 158.894531 528.164062 L 156.652344 526.25 L 154.5 524.199219 L 152.402344 522.109375 L 150.367188 519.960938 L 148.53125 517.695312 L 147.042969 515.292969 L 146.027344 512.78125 L 145.574219 510.21875 L 145.558594 509.578125 L 145.847656 507.054688 L 146.699219 504.574219 L 148.03125 502.183594 L 149.742188 499.914062 L 151.6875 497.773438 L 153.734375 495.710938 L 155.820312 493.652344 L 157.988281 491.609375 L 160.238281 489.632812 L 162.539062 487.789062 L 164.839844 486.144531 L 165.890625 485.460938 L 168.300781 484.089844 L 170.59375 483.035156 L 172.722656 482.285156 L 174.675781 481.800781 L 176.480469 481.492188 L 178.246094 481.246094 L 180.089844 481.09375 L 182.070312 481.148438 L 184.171875 481.476562 L 186.363281 482.125 L 187.582031 482.621094 L 189.835938 483.792969 L 192.066406 485.257812 L 194.214844 486.949219 L 196.253906 488.777344 L 198.183594 490.660156 L 200.066406 492.566406 L 201.832031 494.554688 L 203.332031 496.671875 L 204.417969 498.910156 L 204.980469 501.214844 L 205.046875 502.3125 L 204.765625 504.585938 L 203.949219 506.816406 L 202.683594 508.953125 L 201.078125 510.96875 L 199.28125 512.867188 L 197.425781 514.722656 L 195.5 516.609375 L 193.46875 518.53125 L 191.332031 520.453125 L 189.136719 522.3125 L 187.582031 523.558594 L 185.210938 525.339844 L 182.914062 526.933594 L 180.742188 528.308594 L 178.730469 529.488281 L 176.832031 530.542969 L 174.914062 531.53125 L 172.84375 532.3125 L 170.566406 532.726562 L 168.109375 532.648438 Z M 165.890625 532.140625 "/>
<path style=" stroke:none;fill-rule:nonzero;fill:rgb(95.686275%,95.686275%,95.686275%);fill-opacity:1;" d="M 333.828125 169.558594 L 331.328125 169.285156 L 328.859375 168.484375 L 326.46875 167.222656 L 324.191406 165.589844 L 322.035156 163.703125 L 319.972656 161.6875 L 317.925781 159.628906 L 315.84375 157.4375 L 313.726562 155.039062 L 311.605469 152.410156 L 309.53125 149.570312 L 307.550781 146.554688 L 307.253906 146.066406 L 305.53125 143.082031 L 303.941406 140.023438 L 302.503906 136.945312 L 301.222656 133.898438 L 300.085938 130.929688 L 299.054688 128.042969 L 298.070312 125.191406 L 297.132812 122.304688 L 296.324219 119.347656 L 295.722656 116.335938 L 295.382812 113.3125 L 295.355469 110.34375 L 295.625 107.679688 L 296.332031 104.683594 L 297.425781 101.894531 L 298.851562 99.347656 L 300.523438 97.0625 L 302.347656 95.007812 L 304.238281 93.089844 L 306.179688 91.195312 L 308.285156 89.328125 L 310.636719 87.542969 L 313.246094 85.90625 L 316.09375 84.484375 L 318.351562 83.59375 L 321.3125 82.695312 L 324.386719 82.046875 L 327.503906 81.636719 L 330.601562 81.441406 L 333.632812 81.417969 L 336.59375 81.5 L 339.53125 81.617188 L 342.515625 81.792969 L 345.554688 82.082031 L 348.621094 82.53125 L 351.652344 83.164062 L 354.578125 83.992188 L 356.113281 84.527344 L 358.867188 85.6875 L 361.398438 87.027344 L 363.679688 88.503906 L 365.707031 90.070312 L 367.5 91.675781 L 369.148438 93.289062 L 370.75 94.925781 L 372.28125 96.703125 L 373.644531 98.707031 L 374.757812 100.980469 L 375.550781 103.519531 L 375.96875 106.296875 L 375.996094 106.707031 L 375.980469 109.46875 L 375.636719 112.363281 L 375 115.339844 L 374.117188 118.335938 L 373.046875 121.304688 L 371.859375 124.21875 L 370.625 127.097656 L 369.355469 130.007812 L 367.992188 132.996094 L 366.5 136.054688 L 364.878906 139.148438 L 363.132812 142.222656 L 361.285156 145.226562 L 360.84375 145.910156 L 358.734375 148.992188 L 356.5625 151.890625 L 354.378906 154.570312 L 352.222656 157.011719 L 350.125 159.230469 L 348.082031 161.292969 L 346.039062 163.308594 L 343.921875 165.222656 L 341.683594 166.90625 L 339.328125 168.246094 L 336.886719 169.148438 L 334.40625 169.542969 Z M 333.828125 169.558594 "/>
<path style=" stroke:none;fill-rule:nonzero;fill:rgb(95.686275%,95.686275%,95.686275%);fill-opacity:1;" d="M 497.378906 604.445312 L 495.121094 604.632812 L 492.972656 604.285156 L 490.988281 603.488281 L 489.171875 602.371094 L 487.46875 601.113281 L 485.730469 599.789062 L 483.84375 598.304688 L 481.78125 596.617188 L 479.578125 594.738281 L 478.304688 593.621094 L 476.222656 591.738281 L 474.132812 589.789062 L 472.085938 587.832031 L 470.125 585.910156 L 468.25 584.046875 L 466.417969 582.199219 L 464.679688 580.28125 L 463.1875 578.238281 L 462.070312 576.078125 L 461.441406 573.84375 L 461.324219 572.394531 L 461.578125 570.253906 L 462.316406 568.144531 L 463.472656 566.113281 L 464.945312 564.195312 L 466.617188 562.386719 L 468.363281 560.632812 L 470.144531 558.921875 L 472.011719 557.328125 L 473.949219 555.957031 L 475.9375 554.890625 L 477.917969 554.203125 L 478.304688 554.117188 L 480.5625 553.929688 L 482.707031 554.28125 L 484.695312 555.085938 L 486.507812 556.203125 L 488.210938 557.46875 L 489.949219 558.796875 L 491.835938 560.285156 L 493.894531 561.976562 L 496.09375 563.855469 L 497.378906 564.984375 L 499.457031 566.867188 L 501.546875 568.816406 L 503.59375 570.777344 L 505.554688 572.695312 L 507.425781 574.558594 L 509.257812 576.402344 L 510.988281 578.320312 L 512.480469 580.363281 L 513.59375 582.519531 L 514.222656 584.75 L 514.335938 586.1875 L 514.082031 588.328125 L 513.34375 590.433594 L 512.1875 592.460938 L 510.714844 594.378906 L 509.046875 596.1875 L 507.300781 597.9375 L 505.519531 599.648438 L 503.65625 601.238281 L 501.714844 602.609375 L 499.730469 603.671875 L 497.75 604.359375 Z M 497.378906 604.445312 "/>
<path style=" stroke:none;fill-rule:nonzero;fill:rgb(95.686275%,95.686275%,95.686275%);fill-opacity:1;" d="M 627.699219 333.855469 L 625.414062 333.34375 L 623.101562 332.367188 L 620.808594 330.984375 L 618.570312 329.285156 L 616.414062 327.371094 L 614.328125 325.347656 L 612.242188 323.296875 L 610.085938 321.167969 L 607.820312 318.929688 L 605.453125 316.585938 L 603.019531 314.175781 L 600.5625 311.742188 L 600.105469 311.285156 L 597.605469 308.804688 L 595.167969 306.375 L 592.828125 304.042969 L 590.617188 301.839844 L 588.546875 299.769531 L 586.5625 297.789062 L 584.621094 295.800781 L 582.808594 293.722656 L 581.25 291.523438 L 580.0625 289.214844 L 579.339844 286.832031 L 579.128906 284.71875 L 579.433594 282.164062 L 580.316406 279.648438 L 581.695312 277.230469 L 583.453125 274.941406 L 585.445312 272.78125 L 587.523438 270.691406 L 589.652344 268.640625 L 591.878906 266.710938 L 594.203125 265.003906 L 596.582031 263.625 L 598.960938 262.648438 L 599.425781 262.511719 L 601.996094 262.050781 L 604.457031 262.125 L 606.757812 262.660156 L 608.871094 263.542969 L 610.84375 264.617188 L 612.800781 265.746094 L 614.867188 266.992188 L 617.074219 268.421875 L 619.394531 270.042969 L 621.773438 271.832031 L 622.042969 272.042969 L 624.210938 273.800781 L 626.34375 275.640625 L 628.394531 277.507812 L 630.339844 279.355469 L 632.171875 281.160156 L 633.945312 282.9375 L 635.730469 284.761719 L 637.515625 286.703125 L 639.261719 288.777344 L 640.914062 290.953125 L 642.414062 293.191406 L 642.582031 293.460938 L 644.007812 295.976562 L 645.179688 298.457031 L 646.101562 300.839844 L 646.804688 303.089844 L 647.375 305.226562 L 647.890625 307.363281 L 648.257812 309.609375 L 648.355469 311.988281 L 648.09375 314.464844 L 647.433594 316.964844 L 646.519531 319.140625 L 645.320312 321.261719 L 643.890625 323.285156 L 642.296875 325.191406 L 640.617188 326.976562 L 638.90625 328.695312 L 637.148438 330.355469 L 635.261719 331.832031 L 633.207031 332.992188 L 630.996094 333.714844 L 628.664062 333.925781 Z M 627.699219 333.855469 "/>
<path style=" stroke:none;fill-rule:nonzero;fill:rgb(95.686275%,95.686275%,95.686275%);fill-opacity:1;" d="M 550.589844 195.3125 L 547.921875 195.019531 L 545.289062 194.167969 L 542.742188 192.816406 L 540.316406 191.074219 L 538.019531 189.058594 L 535.820312 186.90625 L 533.644531 184.722656 L 531.460938 182.484375 L 529.296875 180.179688 L 527.214844 177.84375 L 525.269531 175.515625 L 523.523438 173.25 L 523.335938 172.992188 L 521.640625 170.519531 L 520.269531 168.222656 L 519.226562 166.140625 L 518.464844 164.277344 L 517.898438 162.585938 L 517.398438 160.9375 L 517.003906 159.199219 L 516.835938 157.316406 L 516.980469 155.28125 L 517.496094 153.128906 L 517.898438 152.023438 L 518.976562 149.8125 L 520.394531 147.589844 L 522.074219 145.414062 L 523.929688 143.328125 L 525.867188 141.335938 L 527.828125 139.390625 L 529.867188 137.542969 L 532.035156 135.953125 L 534.332031 134.765625 L 536.703125 134.09375 L 538.257812 133.96875 L 540.570312 134.246094 L 542.84375 135.054688 L 545.027344 136.3125 L 547.09375 137.917969 L 549.039062 139.730469 L 550.929688 141.613281 L 552.855469 143.542969 L 554.871094 145.5625 L 556.957031 147.667969 L 559.074219 149.8125 L 561.175781 151.945312 L 561.253906 152.023438 L 563.449219 154.269531 L 565.535156 156.414062 L 567.472656 158.417969 L 569.242188 160.257812 L 570.882812 161.96875 L 572.464844 163.667969 L 573.875 165.507812 L 574.914062 167.570312 L 575.4375 169.867188 L 575.339844 172.359375 L 575.214844 172.992188 L 574.445312 175.316406 L 573.203125 177.710938 L 571.554688 180.117188 L 569.601562 182.488281 L 567.457031 184.792969 L 565.226562 187.042969 L 562.957031 189.25 L 560.582031 191.300781 L 558.0625 193.050781 L 555.421875 194.359375 L 552.703125 195.128906 Z M 550.589844 195.3125 "/>
<path style=" stroke:none;fill-rule:nonzero;fill:rgb(95.686275%,95.686275%,95.686275%);fill-opacity:1;" d="M 483.332031 275.347656 L 481.234375 274.605469 L 479.113281 273.425781 L 477.023438 271.890625 L 475.011719 270.121094 L 473.078125 268.230469 L 471.179688 266.3125 L 469.371094 264.324219 L 467.773438 262.253906 L 466.503906 260.140625 L 465.65625 258.042969 L 465.523438 257.539062 L 465.269531 255.34375 L 465.566406 253.289062 L 466.320312 251.417969 L 467.386719 249.734375 L 468.589844 248.15625 L 469.882812 246.511719 L 471.390625 244.65625 L 473.179688 242.554688 L 475.238281 240.226562 L 476.015625 239.363281 L 477.933594 237.289062 L 479.960938 235.148438 L 482.042969 232.988281 L 484.128906 230.863281 L 486.183594 228.800781 L 488.203125 226.777344 L 490.257812 224.804688 L 492.425781 223.003906 L 494.722656 221.515625 L 497.121094 220.457031 L 499.585938 219.917969 L 500.695312 219.859375 L 503.058594 220.121094 L 505.386719 220.882812 L 507.636719 222.085938 L 509.78125 223.640625 L 511.808594 225.429688 L 513.75 227.335938 L 515.65625 229.277344 L 517.445312 231.304688 L 518.996094 233.449219 L 520.199219 235.699219 L 520.960938 238.027344 L 521.222656 240.382812 L 520.933594 242.855469 L 520.101562 245.292969 L 518.789062 247.640625 L 517.113281 249.867188 L 515.199219 251.964844 L 513.191406 253.992188 L 511.148438 256.023438 L 509.046875 258.097656 L 506.894531 260.183594 L 504.730469 262.238281 L 502.613281 264.199219 L 501.691406 265.039062 L 499.285156 267.164062 L 497.082031 269.027344 L 495.121094 270.613281 L 493.394531 271.945312 L 491.792969 273.140625 L 490.144531 274.253906 L 488.324219 275.121094 L 486.316406 275.574219 L 484.152344 275.511719 Z M 483.332031 275.347656 "/>
<path style=" stroke:none;fill-rule:nonzero;fill:rgb(95.686275%,95.686275%,95.686275%);fill-opacity:1;" d="M 386.964844 173.898438 L 384.757812 173.117188 L 382.554688 171.910156 L 380.414062 170.355469 L 378.375 168.570312 L 376.429688 166.675781 L 374.53125 164.742188 L 372.765625 162.714844 L 371.300781 160.550781 L 370.285156 158.269531 L 369.820312 155.925781 L 369.796875 155.289062 L 370.074219 153.035156 L 370.882812 150.824219 L 372.136719 148.707031 L 373.726562 146.707031 L 375.507812 144.824219 L 377.347656 142.984375 L 379.246094 141.09375 L 381.242188 139.132812 L 383.320312 137.121094 L 385.4375 135.105469 L 386.964844 133.671875 L 389.203125 131.613281 L 391.347656 129.683594 L 393.351562 127.917969 L 395.199219 126.328125 L 396.925781 124.855469 L 398.660156 123.445312 L 400.535156 122.222656 L 402.597656 121.355469 L 404.824219 120.984375 L 406.984375 121.144531 L 409.03125 121.738281 L 411.105469 122.738281 L 413.15625 124.085938 L 415.148438 125.691406 L 417.0625 127.464844 L 418.921875 129.304688 L 420.742188 131.183594 L 422.425781 133.152344 L 423.851562 135.238281 L 424.90625 137.421875 L 425.507812 139.671875 L 425.628906 141.234375 L 425.34375 143.617188 L 424.519531 145.960938 L 423.226562 148.214844 L 421.578125 150.347656 L 419.71875 152.355469 L 417.777344 154.304688 L 415.789062 156.273438 L 413.722656 158.277344 L 411.578125 160.285156 L 409.402344 162.25 L 407.242188 164.109375 L 406.984375 164.324219 L 404.570312 166.273438 L 402.289062 167.992188 L 400.195312 169.464844 L 398.292969 170.707031 L 396.519531 171.816406 L 394.714844 172.855469 L 392.765625 173.6875 L 390.644531 174.15625 L 388.394531 174.160156 Z M 386.964844 173.898438 "/>
<path style=" stroke:none;fill-rule:nonzero;fill:rgb(95.686275%,95.686275%,95.686275%);fill-opacity:1;" d="M 142.941406 305.207031 L 140.566406 304.246094 L 138.195312 302.902344 L 135.886719 301.238281 L 133.679688 299.351562 L 131.574219 297.34375 L 129.53125 295.300781 L 127.558594 293.195312 L 125.804688 290.964844 L 124.410156 288.605469 L 123.503906 286.144531 L 123.164062 283.640625 L 123.164062 283.476562 L 123.453125 281.015625 L 124.292969 278.597656 L 125.613281 276.265625 L 127.300781 274.058594 L 129.210938 271.976562 L 131.214844 269.964844 L 133.261719 267.957031 L 135.40625 265.960938 L 137.65625 264.035156 L 139.972656 262.242188 L 142.308594 260.652344 L 142.941406 260.261719 L 145.582031 258.8125 L 148.117188 257.710938 L 150.492188 256.9375 L 152.679688 256.4375 L 154.738281 256.089844 L 156.808594 255.804688 L 159.003906 255.6875 L 161.34375 255.859375 L 163.785156 256.386719 L 165.761719 257.085938 L 168.082031 258.222656 L 170.355469 259.660156 L 172.523438 261.332031 L 174.5625 263.144531 L 176.480469 265.015625 L 178.347656 266.90625 L 180.101562 268.882812 L 181.582031 270.992188 L 182.644531 273.214844 L 183.1875 275.507812 L 183.242188 276.515625 L 182.960938 278.773438 L 182.148438 280.988281 L 180.882812 283.113281 L 179.28125 285.113281 L 177.496094 287 L 175.648438 288.84375 L 173.726562 290.71875 L 171.675781 292.617188 L 169.507812 294.5 L 167.257812 296.308594 L 165.761719 297.433594 L 163.339844 299.109375 L 160.964844 300.585938 L 158.695312 301.851562 L 156.570312 302.917969 L 154.554688 303.859375 L 152.539062 304.742188 L 150.386719 305.449219 L 148.058594 305.832031 L 145.578125 305.777344 L 143 305.222656 Z M 142.941406 305.207031 "/>
<path style=" stroke:none;fill-rule:nonzero;fill:rgb(95.686275%,95.686275%,95.686275%);fill-opacity:1;" d="M 247.695312 284.652344 L 245.414062 284.371094 L 243.175781 283.558594 L 241.023438 282.292969 L 239 280.691406 L 237.085938 278.890625 L 231.328125 273.132812 L 229.289062 271.089844 L 227.242188 269.039062 L 225.640625 267.433594 L 223.476562 265.257812 L 221.449219 263.21875 L 219.601562 261.359375 L 217.941406 259.683594 L 216.398438 258.125 L 214.917969 256.539062 L 213.660156 254.808594 L 212.78125 252.894531 L 212.421875 250.824219 L 212.496094 249.449219 L 213.058594 247.332031 L 214.128906 245.191406 L 215.609375 243.082031 L 217.371094 241.050781 L 219.277344 239.101562 L 221.21875 237.1875 L 223.238281 235.394531 L 225.347656 233.855469 L 227.503906 232.710938 L 229.648438 232.054688 L 229.941406 232.003906 L 232.113281 231.96875 L 234.164062 232.492188 L 236.046875 233.484375 L 237.757812 234.800781 L 239.351562 236.265625 L 240.976562 237.792969 L 242.753906 239.472656 L 244.710938 241.347656 L 246.832031 243.390625 L 248.277344 244.792969 L 250.320312 246.789062 L 252.386719 248.824219 L 254.429688 250.847656 L 256.40625 252.8125 L 258.304688 254.707031 L 260.160156 256.574219 L 261.933594 258.503906 L 263.476562 260.558594 L 264.660156 262.730469 L 265.367188 264.984375 L 265.546875 266.800781 L 265.289062 268.988281 L 264.539062 271.140625 L 263.363281 273.214844 L 261.863281 275.175781 L 260.160156 277.023438 L 258.382812 278.8125 L 256.554688 280.546875 L 254.621094 282.109375 L 252.578125 283.378906 L 250.441406 284.246094 L 248.257812 284.636719 Z M 247.695312 284.652344 "/>
<path style=" stroke:none;fill-rule:nonzero;fill:rgb(95.686275%,95.686275%,95.686275%);fill-opacity:1;" d="M 381.074219 630.660156 L 378.390625 630.359375 L 375.742188 629.496094 L 373.179688 628.132812 L 370.738281 626.367188 L 368.433594 624.335938 L 366.222656 622.167969 L 364.035156 619.964844 L 361.875 617.691406 L 359.800781 615.328125 L 357.878906 612.898438 L 356.191406 610.449219 L 354.792969 608.023438 L 354.746094 607.929688 L 353.609375 605.386719 L 352.855469 602.960938 L 352.453125 600.6875 L 352.359375 598.601562 L 352.472656 596.671875 L 352.675781 594.820312 L 352.949219 592.910156 L 353.410156 590.847656 L 354.140625 588.601562 L 355.183594 586.195312 L 356.550781 583.667969 L 356.789062 583.277344 L 358.375 580.867188 L 360.195312 578.429688 L 362.199219 576.011719 L 364.3125 573.660156 L 366.480469 571.394531 L 368.660156 569.199219 L 370.851562 567.042969 L 373.132812 565.003906 L 375.546875 563.222656 L 378.085938 561.824219 L 380.710938 560.910156 L 383.378906 560.550781 L 383.675781 560.546875 L 386.363281 560.84375 L 389.007812 561.710938 L 391.574219 563.074219 L 394.011719 564.835938 L 396.320312 566.871094 L 398.527344 569.035156 L 400.714844 571.242188 L 402.875 573.511719 L 404.953125 575.875 L 406.871094 578.304688 L 408.558594 580.757812 L 409.960938 583.183594 L 410.007812 583.277344 L 411.140625 585.820312 L 411.898438 588.246094 L 412.296875 590.515625 L 412.394531 592.605469 L 412.28125 594.535156 L 412.078125 596.386719 L 411.800781 598.296875 L 411.339844 600.359375 L 410.609375 602.601562 L 409.566406 605.007812 L 408.199219 607.535156 L 407.960938 607.929688 L 406.378906 610.335938 L 404.554688 612.773438 L 402.554688 615.191406 L 400.4375 617.546875 L 398.269531 619.8125 L 396.09375 622.003906 L 393.902344 624.164062 L 391.617188 626.199219 L 389.203125 627.984375 L 386.667969 629.382812 L 384.042969 630.296875 L 381.375 630.65625 Z M 381.074219 630.660156 "/>
<path style="fill:none;stroke-width:0.75;stroke-linecap:round;stroke-linejoin:round;stroke:rgb(66.27451%,66.27451%,66.27451%);stroke-opacity:1;stroke-miterlimit:10;" d="M 292.601562 581.734375 L 299.472656 598.742188 "/>
<path style="fill:none;stroke-width:0.75;stroke-linecap:round;stroke-linejoin:round;stroke:rgb(66.27451%,66.27451%,66.27451%);stroke-opacity:1;stroke-miterlimit:10;" d="M 292.667969 576.445312 L 300.28125 558.90625 "/>
<path style="fill:none;stroke-width:0.75;stroke-linecap:round;stroke-linejoin:round;stroke:rgb(66.27451%,66.27451%,66.27451%);stroke-opacity:1;stroke-miterlimit:10;" d="M 591.421875 401.707031 L 603.152344 416.785156 "/>
<path style="fill:none;stroke-width:0.75;stroke-linecap:round;stroke-linejoin:round;stroke:rgb(66.27451%,66.27451%,66.27451%);stroke-opacity:1;stroke-miterlimit:10;" d="M 369.15625 468.089844 L 365.117188 484.691406 "/>
<path style="fill:none;stroke-width:0.75;stroke-linecap:round;stroke-linejoin:round;stroke:rgb(66.27451%,66.27451%,66.27451%);stroke-opacity:1;stroke-miterlimit:10;" d="M 173.308594 507.214844 L 184.605469 503.292969 "/>
<path style="fill:none;stroke-width:0.75;stroke-linecap:round;stroke-linejoin:round;stroke:rgb(66.27451%,66.27451%,66.27451%);stroke-opacity:1;stroke-miterlimit:10;" d="M 326.847656 113.578125 L 321.226562 109.382812 "/>
<path style="fill:none;stroke-width:0.75;stroke-linecap:round;stroke-linejoin:round;stroke:rgb(66.27451%,66.27451%,66.27451%);stroke-opacity:1;stroke-miterlimit:10;" d="M 335.875 131.667969 L 334.929688 138.976562 "/>
<path style="fill:none;stroke-width:0.75;stroke-linecap:round;stroke-linejoin:round;stroke:rgb(66.27451%,66.27451%,66.27451%);stroke-opacity:1;stroke-miterlimit:10;" d="M 347.570312 112.996094 L 356.070312 106.175781 "/>
<path style="fill:none;stroke-width:0.75;stroke-linecap:round;stroke-linejoin:round;stroke:rgb(66.27451%,66.27451%,66.27451%);stroke-opacity:1;stroke-miterlimit:10;" d="M 480.863281 574.015625 L 494.847656 584.585938 "/>
<path style="fill:none;stroke-width:0.75;stroke-linecap:round;stroke-linejoin:round;stroke:rgb(66.27451%,66.27451%,66.27451%);stroke-opacity:1;stroke-miterlimit:10;" d="M 622.761719 296.046875 L 627.710938 314.617188 "/>
<path style="fill:none;stroke-width:0.75;stroke-linecap:round;stroke-linejoin:round;stroke:rgb(66.27451%,66.27451%,66.27451%);stroke-opacity:1;stroke-miterlimit:10;" d="M 619.371094 292.265625 L 606.359375 287.230469 "/>
<path style="fill:none;stroke-width:0.75;stroke-linecap:round;stroke-linejoin:round;stroke:rgb(66.27451%,66.27451%,66.27451%);stroke-opacity:1;stroke-miterlimit:10;" d="M 540.453125 155.914062 L 544.011719 161.523438 "/>
<path style="fill:none;stroke-width:0.75;stroke-linecap:round;stroke-linejoin:round;stroke:rgb(66.27451%,66.27451%,66.27451%);stroke-opacity:1;stroke-miterlimit:10;" d="M 607.371094 419.097656 L 625.234375 420.765625 "/>
<path style="fill:none;stroke-width:0.75;stroke-linecap:round;stroke-linejoin:round;stroke:rgb(66.27451%,66.27451%,66.27451%);stroke-opacity:1;stroke-miterlimit:10;" d="M 495.945312 245.066406 L 485.800781 255.070312 "/>
<path style="fill:none;stroke-width:0.75;stroke-linecap:round;stroke-linejoin:round;stroke:rgb(66.27451%,66.27451%,66.27451%);stroke-opacity:1;stroke-miterlimit:10;" d="M 389.578125 153.613281 L 402.382812 144.199219 "/>
<path style="fill:none;stroke-width:0.75;stroke-linecap:round;stroke-linejoin:round;stroke:rgb(66.27451%,66.27451%,66.27451%);stroke-opacity:1;stroke-miterlimit:10;" d="M 163.167969 277.328125 L 149.128906 281.664062 "/>
<path style="fill:none;stroke-width:0.75;stroke-linecap:round;stroke-linejoin:round;stroke:rgb(66.27451%,66.27451%,66.27451%);stroke-opacity:1;stroke-miterlimit:10;" d="M 245.351562 264.515625 L 232.375 251.882812 "/>
<path style="fill:none;stroke-width:0.75;stroke-linecap:round;stroke-linejoin:round;stroke:rgb(66.27451%,66.27451%,66.27451%);stroke-opacity:1;stroke-miterlimit:10;" d="M 382.515625 594.335938 L 382.234375 596.867188 "/>
<path style=" stroke:none;fill-rule:nonzero;fill:rgb(3.137255%,81.960784%,81.960784%);fill-opacity:1;" d="M 294.394531 579.074219 C 294.394531 582.898438 288.660156 582.898438 288.660156 579.074219 C 288.660156 575.253906 294.394531 575.253906 294.394531 579.074219 "/>
<path style=" stroke:none;fill-rule:nonzero;fill:rgb(3.137255%,81.960784%,81.960784%);fill-opacity:1;" d="M 545.085938 234.484375 L 565.808594 234.484375 L 565.808594 255.207031 L 545.085938 255.207031 Z M 545.085938 234.484375 "/>
<path style=" stroke:none;fill-rule:nonzero;fill:rgb(3.137255%,81.960784%,81.960784%);fill-opacity:1;" d="M 387.589844 413.191406 C 387.589844 416.738281 382.269531 416.738281 382.269531 413.191406 C 382.269531 409.644531 387.589844 409.644531 387.589844 413.191406 "/>
<path style=" stroke:none;fill-rule:nonzero;fill:rgb(3.137255%,81.960784%,81.960784%);fill-opacity:1;" d="M 566.054688 445.949219 C 566.054688 449.734375 560.378906 449.734375 560.378906 445.949219 C 560.378906 442.164062 566.054688 442.164062 566.054688 445.949219 "/>
<path style=" stroke:none;fill-rule:nonzero;fill:rgb(3.137255%,81.960784%,81.960784%);fill-opacity:1;" d="M 592.554688 399.390625 C 592.554688 403.304688 586.6875 403.304688 586.6875 399.390625 C 586.6875 395.480469 592.554688 395.480469 592.554688 399.390625 "/>
<path style=" stroke:none;fill-rule:nonzero;fill:rgb(3.137255%,81.960784%,81.960784%);fill-opacity:1;" d="M 446.847656 582.160156 C 446.847656 588.199219 437.785156 588.199219 437.785156 582.160156 C 437.785156 576.121094 446.847656 576.121094 446.847656 582.160156 "/>
<path style=" stroke:none;fill-rule:nonzero;fill:rgb(3.137255%,81.960784%,81.960784%);fill-opacity:1;" d="M 447.367188 345.320312 C 447.367188 349.324219 441.367188 349.324219 441.367188 345.320312 C 441.367188 341.320312 447.367188 341.320312 447.367188 345.320312 "/>
<path style=" stroke:none;fill-rule:nonzero;fill:rgb(3.137255%,81.960784%,81.960784%);fill-opacity:1;" d="M 126.898438 315.035156 C 126.898438 319.484375 120.222656 319.484375 120.222656 315.035156 C 120.222656 310.582031 126.898438 310.582031 126.898438 315.035156 "/>
<path style=" stroke:none;fill-rule:nonzero;fill:rgb(3.137255%,81.960784%,81.960784%);fill-opacity:1;" d="M 374.265625 464.074219 C 374.265625 469.585938 366 469.585938 366 464.074219 C 366 458.566406 374.265625 458.566406 374.265625 464.074219 "/>
<path style=" stroke:none;fill-rule:nonzero;fill:rgb(3.137255%,81.960784%,81.960784%);fill-opacity:1;" d="M 461.066406 210.226562 C 461.066406 214.097656 455.261719 214.097656 455.261719 210.226562 C 455.261719 206.355469 461.066406 206.355469 461.066406 210.226562 "/>
<path style=" stroke:none;fill-rule:nonzero;fill:rgb(3.137255%,81.960784%,81.960784%);fill-opacity:1;" d="M 243.929688 200.914062 C 243.929688 206.660156 235.308594 206.660156 235.308594 200.914062 C 235.308594 195.164062 243.929688 195.164062 243.929688 200.914062 "/>
<path style=" stroke:none;fill-rule:nonzero;fill:rgb(3.137255%,81.960784%,81.960784%);fill-opacity:1;" d="M 425.527344 187.183594 C 425.527344 190.734375 420.207031 190.734375 420.207031 187.183594 C 420.207031 183.636719 425.527344 183.636719 425.527344 187.183594 "/>
<path style=" stroke:none;fill-rule:nonzero;fill:rgb(3.137255%,81.960784%,81.960784%);fill-opacity:1;" d="M 217.886719 291.832031 C 217.886719 298.984375 212.089844 304.78125 204.933594 304.78125 C 197.78125 304.78125 191.984375 298.984375 191.984375 291.832031 C 191.984375 284.675781 197.78125 278.878906 204.933594 278.878906 C 212.089844 278.878906 217.886719 284.675781 217.886719 291.832031 "/>
<path style=" stroke:none;fill-rule:nonzero;fill:rgb(3.137255%,81.960784%,81.960784%);fill-opacity:1;" d="M 173.707031 509.578125 C 173.707031 513.558594 170.480469 516.78125 166.503906 516.78125 C 162.523438 516.78125 159.296875 513.558594 159.296875 509.578125 C 159.296875 505.597656 162.523438 502.371094 166.503906 502.371094 C 170.480469 502.371094 173.707031 505.597656 173.707031 509.578125 "/>
<path style=" stroke:none;fill-rule:nonzero;fill:rgb(3.137255%,81.960784%,81.960784%);fill-opacity:1;" d="M 441.546875 109.632812 C 441.546875 113.832031 435.246094 113.832031 435.246094 109.632812 C 435.246094 105.429688 441.546875 105.429688 441.546875 109.632812 "/>
<path style=" stroke:none;fill-rule:nonzero;fill:rgb(3.137255%,81.960784%,81.960784%);fill-opacity:1;" d="M 387.710938 213.664062 C 387.710938 217.4375 382.050781 217.4375 382.050781 213.664062 C 382.050781 209.886719 387.710938 209.886719 387.710938 213.664062 "/>
<path style=" stroke:none;fill-rule:nonzero;fill:rgb(3.137255%,81.960784%,81.960784%);fill-opacity:1;" d="M 548.527344 398.746094 C 548.527344 402.347656 543.121094 402.347656 543.121094 398.746094 C 543.121094 395.144531 548.527344 395.144531 548.527344 398.746094 "/>
<path style=" stroke:none;fill-rule:nonzero;fill:rgb(3.137255%,81.960784%,81.960784%);fill-opacity:1;" d="M 119.894531 352.347656 C 119.894531 358.402344 110.8125 358.402344 110.8125 352.347656 C 110.8125 346.292969 119.894531 346.292969 119.894531 352.347656 "/>
<path style=" stroke:none;fill-rule:nonzero;fill:rgb(3.137255%,81.960784%,81.960784%);fill-opacity:1;" d="M 519.535156 295.472656 C 519.535156 299.53125 513.445312 299.53125 513.445312 295.472656 C 513.445312 291.414062 519.535156 291.414062 519.535156 295.472656 "/>
<path style=" stroke:none;fill-rule:nonzero;fill:rgb(3.137255%,81.960784%,81.960784%);fill-opacity:1;" d="M 326.847656 110.945312 L 347.570312 110.945312 L 347.570312 131.667969 L 326.847656 131.667969 Z M 326.847656 110.945312 "/>
<path style=" stroke:none;fill-rule:nonzero;fill:rgb(3.137255%,81.960784%,81.960784%);fill-opacity:1;" d="M 481.40625 572.394531 C 481.40625 575.980469 476.027344 575.980469 476.027344 572.394531 C 476.027344 568.808594 481.40625 568.808594 481.40625 572.394531 "/>
<path style=" stroke:none;fill-rule:nonzero;fill:rgb(3.137255%,81.960784%,81.960784%);fill-opacity:1;" d="M 545.960938 210.039062 C 545.960938 213.132812 543.453125 215.640625 540.359375 215.640625 C 537.265625 215.640625 534.757812 213.132812 534.757812 210.039062 C 534.757812 206.945312 537.265625 204.4375 540.359375 204.4375 C 543.453125 204.4375 545.960938 206.945312 545.960938 210.039062 "/>
<path style=" stroke:none;fill-rule:nonzero;fill:rgb(3.137255%,81.960784%,81.960784%);fill-opacity:1;" d="M 502.574219 139.886719 C 502.574219 143.375 497.34375 143.375 497.34375 139.886719 C 497.34375 136.398438 502.574219 136.398438 502.574219 139.886719 "/>
<path style=" stroke:none;fill-rule:nonzero;fill:rgb(3.137255%,81.960784%,81.960784%);fill-opacity:1;" d="M 499.625 586.1875 C 499.625 589.730469 494.3125 589.730469 494.3125 586.1875 C 494.3125 582.644531 499.625 582.644531 499.625 586.1875 "/>
<path style=" stroke:none;fill-rule:nonzero;fill:rgb(3.137255%,81.960784%,81.960784%);fill-opacity:1;" d="M 624.878906 293.292969 C 624.878906 297.09375 619.179688 297.09375 619.179688 293.292969 C 619.179688 289.496094 624.878906 289.496094 624.878906 293.292969 "/>
<path style=" stroke:none;fill-rule:nonzero;fill:rgb(3.137255%,81.960784%,81.960784%);fill-opacity:1;" d="M 542.347656 152.460938 C 542.347656 157.914062 534.167969 157.914062 534.167969 152.460938 C 534.167969 147.007812 542.347656 147.007812 542.347656 152.460938 "/>
<path style=" stroke:none;fill-rule:nonzero;fill:rgb(3.137255%,81.960784%,81.960784%);fill-opacity:1;" d="M 466.800781 459.554688 L 487.523438 459.554688 L 487.523438 480.277344 L 466.800781 480.277344 Z M 466.800781 459.554688 "/>
<path style=" stroke:none;fill-rule:nonzero;fill:rgb(3.137255%,81.960784%,81.960784%);fill-opacity:1;" d="M 190.40625 502.3125 C 190.40625 506.292969 184.441406 506.292969 184.441406 502.3125 C 184.441406 498.335938 190.40625 498.335938 190.40625 502.3125 "/>
<path style=" stroke:none;fill-rule:nonzero;fill:rgb(3.137255%,81.960784%,81.960784%);fill-opacity:1;" d="M 303.3125 601.328125 C 303.3125 605.050781 297.726562 605.050781 297.726562 601.328125 C 297.726562 597.605469 303.3125 597.605469 303.3125 601.328125 "/>
<path style=" stroke:none;fill-rule:nonzero;fill:rgb(3.137255%,81.960784%,81.960784%);fill-opacity:1;" d="M 303.921875 556.519531 C 303.921875 559.988281 298.71875 559.988281 298.71875 556.519531 C 298.71875 553.050781 303.921875 553.050781 303.921875 556.519531 "/>
<path style=" stroke:none;fill-rule:nonzero;fill:rgb(3.137255%,81.960784%,81.960784%);fill-opacity:1;" d="M 540.230469 161.523438 L 560.953125 161.523438 L 560.953125 182.246094 L 540.230469 182.246094 Z M 540.230469 161.523438 "/>
<path style=" stroke:none;fill-rule:nonzero;fill:rgb(3.137255%,81.960784%,81.960784%);fill-opacity:1;" d="M 504.996094 381.746094 C 504.996094 385.480469 499.394531 385.480469 499.394531 381.746094 C 499.394531 378.007812 504.996094 378.007812 504.996094 381.746094 "/>
<path style=" stroke:none;fill-rule:nonzero;fill:rgb(3.137255%,81.960784%,81.960784%);fill-opacity:1;" d="M 607.382812 418.851562 C 607.382812 422.347656 602.140625 422.347656 602.140625 418.851562 C 602.140625 415.359375 607.382812 415.359375 607.382812 418.851562 "/>
<path style=" stroke:none;fill-rule:nonzero;fill:rgb(3.137255%,81.960784%,81.960784%);fill-opacity:1;" d="M 562.308594 284.023438 C 562.308594 290.972656 551.882812 290.972656 551.882812 284.023438 C 551.882812 277.074219 562.308594 277.074219 562.308594 284.023438 "/>
<path style=" stroke:none;fill-rule:nonzero;fill:rgb(3.137255%,81.960784%,81.960784%);fill-opacity:1;" d="M 217.460938 448.632812 C 217.460938 452.359375 211.875 452.359375 211.875 448.632812 C 211.875 444.90625 217.460938 444.90625 217.460938 448.632812 "/>
<path style=" stroke:none;fill-rule:nonzero;fill:rgb(18.039216%,35.294118%,73.72549%);fill-opacity:1;" d="M 322.371094 105.933594 C 322.371094 109.121094 319.789062 111.707031 316.597656 111.707031 C 313.410156 111.707031 310.828125 109.121094 310.828125 105.933594 C 310.828125 102.742188 313.410156 100.160156 316.597656 100.160156 C 319.789062 100.160156 322.371094 102.742188 322.371094 105.933594 "/>
<path style=" stroke:none;fill-rule:nonzero;fill:rgb(18.039216%,35.294118%,73.72549%);fill-opacity:1;" d="M 390.300781 532.046875 C 390.300781 536.429688 383.722656 536.429688 383.722656 532.046875 C 383.722656 527.664062 390.300781 527.664062 390.300781 532.046875 "/>
<path style=" stroke:none;fill-rule:nonzero;fill:rgb(18.039216%,35.294118%,73.72549%);fill-opacity:1;" d="M 515.199219 438.550781 C 515.199219 442.058594 509.9375 442.058594 509.9375 438.550781 C 509.9375 435.039062 515.199219 435.039062 515.199219 438.550781 "/>
<path style=" stroke:none;fill-rule:nonzero;fill:rgb(18.039216%,35.294118%,73.72549%);fill-opacity:1;" d="M 299.6875 262.65625 C 299.6875 266.148438 294.445312 266.148438 294.445312 262.65625 C 294.445312 259.164062 299.6875 259.164062 299.6875 262.65625 "/>
<path style=" stroke:none;fill-rule:nonzero;fill:rgb(18.039216%,35.294118%,73.72549%);fill-opacity:1;" d="M 507.367188 240.382812 C 507.367188 244.066406 504.382812 247.054688 500.695312 247.054688 C 497.011719 247.054688 494.027344 244.066406 494.027344 240.382812 C 494.027344 236.699219 497.011719 233.710938 500.695312 233.710938 C 504.382812 233.710938 507.367188 236.699219 507.367188 240.382812 "/>
<path style=" stroke:none;fill-rule:nonzero;fill:rgb(18.039216%,35.294118%,73.72549%);fill-opacity:1;" d="M 310.894531 361.332031 C 310.894531 366.625 302.953125 366.625 302.953125 361.332031 C 302.953125 356.039062 310.894531 356.039062 310.894531 361.332031 "/>
<path style=" stroke:none;fill-rule:nonzero;fill:rgb(3.529412%,44.705882%,39.607843%);fill-opacity:1;" d="M 239.578125 131.976562 C 239.578125 138.84375 229.28125 138.84375 229.28125 131.976562 C 229.28125 125.109375 239.578125 125.109375 239.578125 131.976562 "/>
<path style=" stroke:none;fill-rule:nonzero;fill:rgb(3.529412%,44.705882%,39.607843%);fill-opacity:1;" d="M 486.570312 256.949219 C 486.570312 260.511719 481.222656 260.511719 481.222656 256.949219 C 481.222656 253.382812 486.570312 253.382812 486.570312 256.949219 "/>
<path style=" stroke:none;fill-rule:nonzero;fill:rgb(3.529412%,44.705882%,39.607843%);fill-opacity:1;" d="M 631.015625 317.15625 C 631.015625 320.664062 625.757812 320.664062 625.757812 317.15625 C 625.757812 313.652344 631.015625 313.652344 631.015625 317.15625 "/>
<path style=" stroke:none;fill-rule:nonzero;fill:rgb(3.529412%,44.705882%,39.607843%);fill-opacity:1;" d="M 431.800781 444.414062 C 431.800781 447.867188 426.617188 447.867188 426.617188 444.414062 C 426.617188 440.957031 431.800781 440.957031 431.800781 444.414062 "/>
<path style=" stroke:none;fill-rule:nonzero;fill:rgb(67.058824%,33.72549%,84.705882%);fill-opacity:1;" d="M 193.867188 328.835938 C 193.867188 334.433594 185.472656 334.433594 185.472656 328.835938 C 185.472656 323.238281 193.867188 323.238281 193.867188 328.835938 "/>
<path style=" stroke:none;fill-rule:nonzero;fill:rgb(67.058824%,33.72549%,84.705882%);fill-opacity:1;" d="M 295.742188 419.046875 C 295.742188 422.671875 290.304688 422.671875 290.304688 419.046875 C 290.304688 415.425781 295.742188 415.425781 295.742188 419.046875 "/>
<path style=" stroke:none;fill-rule:nonzero;fill:rgb(67.058824%,33.72549%,84.705882%);fill-opacity:1;" d="M 221.582031 567.394531 C 221.582031 571.105469 216.015625 571.105469 216.015625 567.394531 C 216.015625 563.6875 221.582031 563.6875 221.582031 567.394531 "/>
<path style=" stroke:none;fill-rule:nonzero;fill:rgb(67.058824%,33.72549%,84.705882%);fill-opacity:1;" d="M 390.128906 155.289062 C 390.128906 159.058594 384.46875 159.058594 384.46875 155.289062 C 384.46875 151.515625 390.128906 151.515625 390.128906 155.289062 "/>
<path style=" stroke:none;fill-rule:nonzero;fill:rgb(3.921569%,62.745098%,12.156863%);fill-opacity:1;" d="M 168.550781 276.515625 C 168.550781 280.1875 163.046875 280.1875 163.046875 276.515625 C 163.046875 272.84375 168.550781 272.84375 168.550781 276.515625 "/>
<path style=" stroke:none;fill-rule:nonzero;fill:rgb(3.921569%,62.745098%,12.156863%);fill-opacity:1;" d="M 598.914062 356.109375 C 598.914062 359.328125 596.308594 361.933594 593.09375 361.933594 C 589.878906 361.933594 587.269531 359.328125 587.269531 356.109375 C 587.269531 352.894531 589.878906 350.289062 593.09375 350.289062 C 596.308594 350.289062 598.914062 352.894531 598.914062 356.109375 "/>
<path style=" stroke:none;fill-rule:nonzero;fill:rgb(3.921569%,62.745098%,12.156863%);fill-opacity:1;" d="M 501.253906 186.550781 C 501.253906 191.851562 493.304688 191.851562 493.304688 186.550781 C 493.304688 181.253906 501.253906 181.253906 501.253906 186.550781 "/>
<path style=" stroke:none;fill-rule:nonzero;fill:rgb(3.921569%,62.745098%,12.156863%);fill-opacity:1;" d="M 283.890625 218.378906 C 283.890625 222.035156 278.402344 222.035156 278.402344 218.378906 C 278.402344 214.71875 283.890625 214.71875 283.890625 218.378906 "/>
<path style=" stroke:none;fill-rule:nonzero;fill:rgb(3.921569%,62.745098%,12.156863%);fill-opacity:1;" d="M 256.242188 565.152344 C 256.242188 568.828125 250.726562 568.828125 250.726562 565.152344 C 250.726562 561.476562 256.242188 561.476562 256.242188 565.152344 "/>
<path style=" stroke:none;fill-rule:nonzero;fill:rgb(3.921569%,62.745098%,12.156863%);fill-opacity:1;" d="M 250.96875 266.800781 C 250.96875 271.164062 244.421875 271.164062 244.421875 266.800781 C 244.421875 262.4375 250.96875 262.4375 250.96875 266.800781 "/>
<path style=" stroke:none;fill-rule:nonzero;fill:rgb(3.921569%,62.745098%,12.156863%);fill-opacity:1;" d="M 537.617188 475.929688 C 537.617188 479.644531 532.042969 479.644531 532.042969 475.929688 C 532.042969 472.210938 537.617188 472.210938 537.617188 475.929688 "/>
<path style=" stroke:none;fill-rule:nonzero;fill:rgb(3.921569%,62.745098%,12.156863%);fill-opacity:1;" d="M 184.585938 217.457031 L 205.308594 217.457031 L 205.308594 238.179688 L 184.585938 238.179688 Z M 184.585938 217.457031 "/>
<path style=" stroke:none;fill-rule:nonzero;fill:rgb(3.921569%,62.745098%,12.156863%);fill-opacity:1;" d="M 373.3125 573.613281 L 394.035156 573.613281 L 394.035156 594.335938 L 373.3125 594.335938 Z M 373.3125 573.613281 "/>
<path style=" stroke:none;fill-rule:nonzero;fill:rgb(3.921569%,62.745098%,12.156863%);fill-opacity:1;" d="M 460.992188 509.367188 C 460.992188 514.121094 453.863281 514.121094 453.863281 509.367188 C 453.863281 504.613281 460.992188 504.613281 460.992188 509.367188 "/>
<path style=" stroke:none;fill-rule:nonzero;fill:rgb(3.921569%,62.745098%,12.156863%);fill-opacity:1;" d="M 411.417969 141.234375 C 411.417969 147.90625 401.410156 147.90625 401.410156 141.234375 C 401.410156 134.558594 411.417969 134.558594 411.417969 141.234375 "/>
<path style=" stroke:none;fill-rule:nonzero;fill:rgb(3.921569%,62.745098%,12.156863%);fill-opacity:1;" d="M 341.429688 407.5 C 341.429688 411.148438 335.957031 411.148438 335.957031 407.5 C 335.957031 403.847656 341.429688 403.847656 341.429688 407.5 "/>
<path style=" stroke:none;fill-rule:nonzero;fill:rgb(3.921569%,62.745098%,12.156863%);fill-opacity:1;" d="M 630.542969 421.011719 C 630.542969 424.558594 625.222656 424.558594 625.222656 421.011719 C 625.222656 417.460938 630.542969 417.460938 630.542969 421.011719 "/>
<path style=" stroke:none;fill-rule:nonzero;fill:rgb(3.921569%,62.745098%,12.156863%);fill-opacity:1;" d="M 215.777344 532.613281 C 215.777344 536.21875 210.367188 536.21875 210.367188 532.613281 C 210.367188 529.007812 215.777344 529.007812 215.777344 532.613281 "/>
<path style=" stroke:none;fill-rule:nonzero;fill:rgb(3.921569%,62.745098%,12.156863%);fill-opacity:1;" d="M 475.976562 415.972656 C 475.976562 419.46875 470.734375 419.46875 470.734375 415.972656 C 470.734375 412.476562 475.976562 412.476562 475.976562 415.972656 "/>
<path style=" stroke:none;fill-rule:nonzero;fill:rgb(3.921569%,62.745098%,12.156863%);fill-opacity:1;" d="M 249.667969 323.746094 C 249.667969 329.363281 241.238281 329.363281 241.238281 323.746094 C 241.238281 318.125 249.667969 318.125 249.667969 323.746094 "/>
<path style=" stroke:none;fill-rule:nonzero;fill:rgb(3.921569%,62.745098%,12.156863%);fill-opacity:1;" d="M 279.371094 301.722656 L 300.09375 301.722656 L 300.09375 322.445312 L 279.371094 322.445312 Z M 279.371094 301.722656 "/>
<path style=" stroke:none;fill-rule:nonzero;fill:rgb(3.921569%,62.745098%,12.156863%);fill-opacity:1;" d="M 370.035156 256.214844 L 390.757812 256.214844 L 390.757812 276.9375 L 370.035156 276.9375 Z M 370.035156 256.214844 "/>
<path style=" stroke:none;fill-rule:nonzero;fill:rgb(3.921569%,62.745098%,12.156863%);fill-opacity:1;" d="M 623.085938 355.351562 L 643.808594 355.351562 L 643.808594 376.074219 L 623.085938 376.074219 Z M 623.085938 355.351562 "/>
<path style=" stroke:none;fill-rule:nonzero;fill:rgb(3.921569%,62.745098%,12.156863%);fill-opacity:1;" d="M 274.710938 375.59375 C 274.710938 381.484375 269.9375 386.257812 264.046875 386.257812 C 258.15625 386.257812 253.382812 381.484375 253.382812 375.59375 C 253.382812 369.703125 258.15625 364.929688 264.046875 364.929688 C 269.9375 364.929688 274.710938 369.703125 274.710938 375.59375 "/>
<path style=" stroke:none;fill-rule:nonzero;fill:rgb(3.921569%,62.745098%,12.156863%);fill-opacity:1;" d="M 367.160156 487.292969 C 367.160156 490.859375 361.808594 490.859375 361.808594 487.292969 C 361.808594 483.726562 367.160156 483.726562 367.160156 487.292969 "/>
<path style=" stroke:none;fill-rule:nonzero;fill:rgb(3.921569%,62.745098%,12.156863%);fill-opacity:1;" d="M 257.449219 509.140625 L 278.171875 509.140625 L 278.171875 529.863281 L 257.449219 529.863281 Z M 257.449219 509.140625 "/>
<path style=" stroke:none;fill-rule:nonzero;fill:rgb(3.921569%,62.745098%,12.156863%);fill-opacity:1;" d="M 200.941406 400.097656 C 200.941406 403.617188 195.660156 403.617188 195.660156 400.097656 C 195.660156 396.574219 200.941406 396.574219 200.941406 400.097656 "/>
<path style=" stroke:none;fill-rule:nonzero;fill:rgb(3.921569%,62.745098%,12.156863%);fill-opacity:1;" d="M 594.601562 229.703125 L 615.324219 229.703125 L 615.324219 250.425781 L 594.601562 250.425781 Z M 594.601562 229.703125 "/>
<path style=" stroke:none;fill-rule:nonzero;fill:rgb(3.921569%,62.745098%,12.156863%);fill-opacity:1;" d="M 346.988281 195.644531 C 346.988281 199.921875 340.566406 199.921875 340.566406 195.644531 C 340.566406 191.363281 346.988281 191.363281 346.988281 195.644531 "/>
<path style=" stroke:none;fill-rule:nonzero;fill:rgb(3.921569%,62.745098%,12.156863%);fill-opacity:1;" d="M 437.433594 392.109375 C 437.433594 395.566406 432.25 395.566406 432.25 392.109375 C 432.25 388.65625 437.433594 388.65625 437.433594 392.109375 "/>
<path style=" stroke:none;fill-rule:nonzero;fill:rgb(3.921569%,62.745098%,12.156863%);fill-opacity:1;" d="M 152.304688 410.121094 L 173.027344 410.121094 L 173.027344 430.84375 L 152.304688 430.84375 Z M 152.304688 410.121094 "/>
<path style=" stroke:none;fill-rule:nonzero;fill:rgb(3.921569%,62.745098%,12.156863%);fill-opacity:1;" d="M 511.320312 500.085938 L 532.042969 500.085938 L 532.042969 520.808594 L 511.320312 520.808594 Z M 511.320312 500.085938 "/>
<path style=" stroke:none;fill-rule:nonzero;fill:rgb(3.921569%,62.745098%,12.156863%);fill-opacity:1;" d="M 569.316406 529.03125 C 569.316406 533.050781 563.285156 533.050781 563.285156 529.03125 C 563.285156 525.011719 569.316406 525.011719 569.316406 529.03125 "/>
<path style=" stroke:none;fill-rule:nonzero;fill:rgb(3.921569%,62.745098%,12.156863%);fill-opacity:1;" d="M 390.441406 83.390625 L 411.164062 83.390625 L 411.164062 104.113281 L 390.441406 104.113281 Z M 390.441406 83.390625 "/>
<path style=" stroke:none;fill-rule:nonzero;fill:rgb(3.921569%,62.745098%,12.156863%);fill-opacity:1;" d="M 447.601562 146.453125 L 468.324219 146.453125 L 468.324219 167.175781 L 447.601562 167.175781 Z M 447.601562 146.453125 "/>
<path style=" stroke:none;fill-rule:nonzero;fill:rgb(3.921569%,62.745098%,12.156863%);fill-opacity:1;" d="M 233.136719 250.019531 C 233.136719 253.582031 227.789062 253.582031 227.789062 250.019531 C 227.789062 246.453125 233.136719 246.453125 233.136719 250.019531 "/>
<path style=" stroke:none;fill-rule:nonzero;fill:rgb(3.921569%,62.745098%,12.156863%);fill-opacity:1;" d="M 389.960938 299.550781 L 410.683594 299.550781 L 410.683594 320.273438 L 389.960938 320.273438 Z M 389.960938 299.550781 "/>
<path style=" stroke:none;fill-rule:nonzero;fill:rgb(3.921569%,62.745098%,12.156863%);fill-opacity:1;" d="M 326.71875 230.355469 L 347.441406 230.355469 L 347.441406 251.078125 L 326.71875 251.078125 Z M 326.71875 230.355469 "/>
<path style=" stroke:none;fill-rule:nonzero;fill:rgb(3.921569%,62.745098%,12.156863%);fill-opacity:1;" d="M 236.222656 412.527344 L 256.945312 412.527344 L 256.945312 433.25 L 236.222656 433.25 Z M 236.222656 412.527344 "/>
<path style=" stroke:none;fill-rule:nonzero;fill:rgb(15.294118%,28.627451%,27.058824%);fill-opacity:1;" d="M 262.734375 461.320312 L 283.457031 461.320312 L 283.457031 482.042969 L 262.734375 482.042969 Z M 262.734375 461.320312 "/>
<path style=" stroke:none;fill-rule:nonzero;fill:rgb(15.294118%,28.627451%,27.058824%);fill-opacity:1;" d="M 596.675781 460.140625 L 617.398438 460.140625 L 617.398438 480.863281 L 596.675781 480.863281 Z M 596.675781 460.140625 "/>
<path style=" stroke:none;fill-rule:nonzero;fill:rgb(15.294118%,28.627451%,27.058824%);fill-opacity:1;" d="M 521.484375 338.859375 L 542.207031 338.859375 L 542.207031 359.582031 L 521.484375 359.582031 Z M 521.484375 338.859375 "/>
<path style=" stroke:none;fill-rule:nonzero;fill:rgb(15.294118%,28.627451%,27.058824%);fill-opacity:1;" d="M 209.769531 354.867188 L 230.492188 354.867188 L 230.492188 375.589844 L 209.769531 375.589844 Z M 209.769531 354.867188 "/>
<path style=" stroke:none;fill-rule:nonzero;fill:rgb(18.039216%,73.72549%,27.058824%);fill-opacity:1;" d="M 339.207031 334.757812 L 359.929688 334.757812 L 359.929688 355.480469 L 339.207031 355.480469 Z M 339.207031 334.757812 "/>
<path style=" stroke:none;fill-rule:nonzero;fill:rgb(18.039216%,73.72549%,27.058824%);fill-opacity:1;" d="M 370.714844 596.867188 L 391.4375 596.867188 L 391.4375 617.589844 L 370.714844 617.589844 Z M 370.714844 596.867188 "/>
<path style=" stroke:none;fill-rule:nonzero;fill:rgb(18.039216%,73.72549%,27.058824%);fill-opacity:1;" d="M 258.371094 146.183594 L 279.09375 146.183594 L 279.09375 166.90625 L 258.371094 166.90625 Z M 258.371094 146.183594 "/>
<path style=" stroke:none;fill-rule:nonzero;fill:rgb(18.039216%,73.72549%,27.058824%);fill-opacity:1;" d="M 265.085938 105.058594 L 285.808594 105.058594 L 285.808594 125.78125 L 265.085938 125.78125 Z M 265.085938 105.058594 "/>
<path style=" stroke:none;fill-rule:nonzero;fill:rgb(18.039216%,73.72549%,27.058824%);fill-opacity:1;" d="M 307.851562 500.515625 L 328.574219 500.515625 L 328.574219 521.238281 L 307.851562 521.238281 Z M 307.851562 500.515625 "/>
<path style=" stroke:none;fill-rule:nonzero;fill:rgb(18.039216%,73.72549%,27.058824%);fill-opacity:1;" d="M 428.296875 246.394531 C 428.296875 250.960938 421.449219 250.960938 421.449219 246.394531 C 421.449219 241.824219 428.296875 241.824219 428.296875 246.394531 "/>
<path style=" stroke:none;fill-rule:nonzero;fill:rgb(18.039216%,73.72549%,27.058824%);fill-opacity:1;" d="M 302.820312 181.5625 C 302.820312 185.628906 296.722656 185.628906 296.722656 181.5625 C 296.722656 177.5 302.820312 177.5 302.820312 181.5625 "/>
<path style=" stroke:none;fill-rule:nonzero;fill:rgb(18.039216%,73.72549%,27.058824%);fill-opacity:1;" d="M 481.566406 111.699219 C 481.566406 114.695312 479.136719 117.125 476.140625 117.125 C 473.144531 117.125 470.714844 114.695312 470.714844 111.699219 C 470.714844 108.703125 473.144531 106.273438 476.140625 106.273438 C 479.136719 106.273438 481.566406 108.703125 481.566406 111.699219 "/>
<path style=" stroke:none;fill-rule:nonzero;fill:rgb(18.039216%,73.72549%,27.058824%);fill-opacity:1;" d="M 429.65625 544.921875 C 429.65625 548.519531 424.265625 548.519531 424.265625 544.921875 C 424.265625 541.328125 429.65625 541.328125 429.65625 544.921875 "/>
<path style=" stroke:none;fill-rule:nonzero;fill:rgb(18.039216%,73.72549%,27.058824%);fill-opacity:1;" d="M 122.304688 412.601562 C 122.304688 416.6875 116.179688 416.6875 116.179688 412.601562 C 116.179688 408.519531 122.304688 408.519531 122.304688 412.601562 "/>
<path style=" stroke:none;fill-rule:nonzero;fill:rgb(18.039216%,73.72549%,27.058824%);fill-opacity:1;" d="M 347.183594 606.007812 C 347.183594 609.242188 344.5625 611.863281 341.328125 611.863281 C 338.09375 611.863281 335.472656 609.242188 335.472656 606.007812 C 335.472656 602.773438 338.09375 600.152344 341.328125 600.152344 C 344.5625 600.152344 347.183594 602.773438 347.183594 606.007812 "/>
<path style=" stroke:none;fill-rule:nonzero;fill:rgb(18.039216%,73.72549%,27.058824%);fill-opacity:1;" d="M 171.304688 209.476562 C 171.304688 214.972656 166.847656 219.429688 161.351562 219.429688 C 155.851562 219.429688 151.398438 214.972656 151.398438 209.476562 C 151.398438 203.980469 155.851562 199.523438 161.351562 199.523438 C 166.847656 199.523438 171.304688 203.980469 171.304688 209.476562 "/>
<path style=" stroke:none;fill-rule:nonzero;fill:rgb(18.039216%,73.72549%,27.058824%);fill-opacity:1;" d="M 574.40625 327.84375 C 574.40625 332.285156 570.804688 335.886719 566.363281 335.886719 C 561.921875 335.886719 558.320312 332.285156 558.320312 327.84375 C 558.320312 323.402344 561.921875 319.800781 566.363281 319.800781 C 570.804688 319.800781 574.40625 323.402344 574.40625 327.84375 "/>
<path style=" stroke:none;fill-rule:nonzero;fill:rgb(18.039216%,73.72549%,27.058824%);fill-opacity:1;" d="M 451.402344 291.867188 C 451.402344 296.664062 444.207031 296.664062 444.207031 291.867188 C 444.207031 287.070312 451.402344 287.070312 451.402344 291.867188 "/>
<path style=" stroke:none;fill-rule:nonzero;fill:rgb(18.039216%,73.72549%,27.058824%);fill-opacity:1;" d="M 489.164062 330.011719 C 489.164062 333.773438 483.523438 333.773438 483.523438 330.011719 C 483.523438 326.25 489.164062 326.25 489.164062 330.011719 "/>
<path style=" stroke:none;fill-rule:nonzero;fill:rgb(18.039216%,73.72549%,27.058824%);fill-opacity:1;" d="M 189.367188 178.871094 C 189.367188 182.804688 183.46875 182.804688 183.46875 178.871094 C 183.46875 174.9375 189.367188 174.9375 189.367188 178.871094 "/>
<path style=" stroke:none;fill-rule:nonzero;fill:rgb(18.039216%,73.72549%,27.058824%);fill-opacity:1;" d="M 606.828125 284.71875 C 606.828125 288.558594 603.714844 291.671875 599.875 291.671875 C 596.035156 291.671875 592.925781 288.558594 592.925781 284.71875 C 592.925781 280.878906 596.035156 277.769531 599.875 277.769531 C 603.714844 277.769531 606.828125 280.878906 606.828125 284.71875 "/>
<path style=" stroke:none;fill-rule:nonzero;fill:rgb(18.039216%,73.72549%,27.058824%);fill-opacity:1;" d="M 222.636719 165.828125 C 222.636719 169.820312 216.644531 169.820312 216.644531 165.828125 C 216.644531 161.832031 222.636719 161.832031 222.636719 165.828125 "/>
<path style=" stroke:none;fill-rule:nonzero;fill:rgb(18.039216%,73.72549%,27.058824%);fill-opacity:1;" d="M 342.433594 147.511719 C 342.433594 152.265625 338.582031 156.117188 333.828125 156.117188 C 329.078125 156.117188 325.222656 152.265625 325.222656 147.511719 C 325.222656 142.757812 329.078125 138.90625 333.828125 138.90625 C 338.582031 138.90625 342.433594 142.757812 342.433594 147.511719 "/>
<path style=" stroke:none;fill-rule:nonzero;fill:rgb(18.039216%,73.72549%,27.058824%);fill-opacity:1;" d="M 144.898438 242.660156 C 144.898438 246.152344 142.0625 248.984375 138.570312 248.984375 C 135.074219 248.984375 132.242188 246.152344 132.242188 242.660156 C 132.242188 239.164062 135.074219 236.332031 138.570312 236.332031 C 142.0625 236.332031 144.898438 239.164062 144.898438 242.660156 "/>
<path style=" stroke:none;fill-rule:nonzero;fill:rgb(18.039216%,73.72549%,27.058824%);fill-opacity:1;" d="M 149.402344 283.476562 C 149.402344 286.863281 146.65625 289.613281 143.265625 289.613281 C 139.878906 289.613281 137.128906 286.863281 137.128906 283.476562 C 137.128906 280.085938 139.878906 277.339844 143.265625 277.339844 C 146.65625 277.339844 149.402344 280.085938 149.402344 283.476562 "/>
<path style=" stroke:none;fill-rule:nonzero;fill:rgb(18.039216%,73.72549%,27.058824%);fill-opacity:1;" d="M 394.496094 361.878906 C 394.496094 365.363281 389.265625 365.363281 389.265625 361.878906 C 389.265625 358.394531 394.496094 358.394531 394.496094 361.878906 "/>
<path style=" stroke:none;fill-rule:nonzero;fill:rgb(18.039216%,73.72549%,27.058824%);fill-opacity:1;" d="M 537.820312 555.824219 C 537.820312 559.351562 532.527344 559.351562 532.527344 555.824219 C 532.527344 552.296875 537.820312 552.296875 537.820312 555.824219 "/>
<path style=" stroke:none;fill-rule:nonzero;fill:rgb(18.039216%,73.72549%,27.058824%);fill-opacity:1;" d="M 496.871094 533.050781 C 496.871094 536.1875 494.328125 538.730469 491.191406 538.730469 C 488.054688 538.730469 485.511719 536.1875 485.511719 533.050781 C 485.511719 529.914062 488.054688 527.371094 491.191406 527.371094 C 494.328125 527.371094 496.871094 529.914062 496.871094 533.050781 "/>
<path style=" stroke:none;fill-rule:nonzero;fill:rgb(18.039216%,73.72549%,27.058824%);fill-opacity:1;" d="M 177.648438 461.183594 C 177.648438 464.9375 172.019531 464.9375 172.019531 461.183594 C 172.019531 457.433594 177.648438 457.433594 177.648438 461.183594 "/>
<path style=" stroke:none;fill-rule:nonzero;fill:rgb(18.039216%,73.72549%,27.058824%);fill-opacity:1;" d="M 351.332031 550.414062 C 351.332031 554.121094 345.773438 554.121094 345.773438 550.414062 C 345.773438 546.707031 351.332031 546.707031 351.332031 550.414062 "/>
<path style=" stroke:none;fill-rule:nonzero;fill:rgb(18.039216%,73.72549%,27.058824%);fill-opacity:1;" d="M 240.039062 489.6875 C 240.039062 492.859375 237.46875 495.429688 234.300781 495.429688 C 231.128906 495.429688 228.558594 492.859375 228.558594 489.6875 C 228.558594 486.519531 231.128906 483.949219 234.300781 483.949219 C 237.46875 483.949219 240.039062 486.519531 240.039062 489.6875 "/>
<path style=" stroke:none;fill-rule:nonzero;fill:rgb(18.039216%,73.72549%,27.058824%);fill-opacity:1;" d="M 144.707031 382.570312 C 144.707031 386.113281 139.394531 386.113281 139.394531 382.570312 C 139.394531 379.027344 144.707031 379.027344 144.707031 382.570312 "/>
<path style=" stroke:none;fill-rule:nonzero;fill:rgb(18.039216%,73.72549%,27.058824%);fill-opacity:1;" d="M 329.285156 286.539062 L 350.007812 286.539062 L 350.007812 307.261719 L 329.285156 307.261719 Z M 329.285156 286.539062 "/>
<path style=" stroke:none;fill-rule:nonzero;fill:rgb(80.784314%,49.411765%,0%);fill-opacity:1;" d="M 305.894531 452.105469 L 326.617188 452.105469 L 326.617188 472.828125 L 305.894531 472.828125 Z M 305.894531 452.105469 "/>
<path style=" stroke:none;fill-rule:nonzero;fill:rgb(80.784314%,49.411765%,0%);fill-opacity:1;" d="M 126.046875 448.644531 L 146.769531 448.644531 L 146.769531 469.367188 L 126.046875 469.367188 Z M 126.046875 448.644531 "/>
<path style=" stroke:none;fill-rule:nonzero;fill:rgb(73.72549%,18.039216%,63.137255%);fill-opacity:1;" d="M 567.601562 483.546875 L 588.324219 483.546875 L 588.324219 504.269531 L 567.601562 504.269531 Z M 567.601562 483.546875 "/>
<path style=" stroke:none;fill-rule:nonzero;fill:rgb(41.568627%,32.156863%,77.647059%);fill-opacity:1;" d="M 408.621094 479.6875 L 429.34375 479.6875 L 429.34375 500.410156 L 408.621094 500.410156 Z M 408.621094 479.6875 "/>
<path style=" stroke:none;fill-rule:nonzero;fill:rgb(41.568627%,32.156863%,77.647059%);fill-opacity:1;" d="M 152.640625 341.976562 L 173.363281 341.976562 L 173.363281 362.699219 L 152.640625 362.699219 Z M 152.640625 341.976562 "/>
<path style=" stroke:none;fill-rule:nonzero;fill:rgb(41.568627%,32.156863%,77.647059%);fill-opacity:1;" d="M 414.132812 601.484375 L 434.855469 601.484375 L 434.855469 622.207031 L 414.132812 622.207031 Z M 414.132812 601.484375 "/>
<path style=" stroke:none;fill-rule:nonzero;fill:rgb(67.843137%,55.294118%,55.294118%);fill-opacity:1;" d="M 360.90625 104.476562 C 360.90625 108.097656 355.472656 108.097656 355.472656 104.476562 C 355.472656 100.855469 360.90625 100.855469 360.90625 104.476562 "/>
<path style=" stroke:none;fill-rule:nonzero;fill:rgb(67.843137%,55.294118%,55.294118%);fill-opacity:1;" d="M 576.125 193.925781 L 596.847656 193.925781 L 596.847656 214.648438 L 576.125 214.648438 Z M 576.125 193.925781 "/>
</g>
</svg>
