<?xml version="1.0" encoding="UTF-8"?>
<svg xmlns="http://www.w3.org/2000/svg" xmlns:xlink="http://www.w3.org/1999/xlink" width="720pt" height="720pt" viewBox="0 0 720 720" version="1.1">
<g id="surface3991">
<path style=" stroke:none;fill-rule:nonzero;fill:rgb(95.686275%,95.686275%,95.686275%);fill-opacity:1;" d="M 591.992188 516.230469 L 589.570312 515.925781 L 587.191406 515.042969 L 584.910156 513.671875 L 582.769531 511.945312 L 580.746094 510.019531 L 578.773438 508.035156 L 576.867188 505.988281 L 575.132812 503.855469 L 573.695312 501.660156 L 572.640625 499.460938 L 572.257812 498.285156 L 571.898438 495.9375 L 572.097656 493.730469 L 572.769531 491.710938 L 573.769531 489.886719 L 574.910156 488.175781 L 576.125 486.421875 L 577.515625 484.507812 L 579.125 482.414062 L 580.945312 480.183594 L 581.773438 479.207031 L 583.589844 477.128906 L 585.496094 475.039062 L 587.429688 472.996094 L 589.339844 471.035156 L 591.203125 469.160156 L 593.050781 467.328125 L 594.972656 465.59375 L 597.023438 464.105469 L 599.1875 463.003906 L 601.421875 462.394531 L 602.78125 462.289062 L 605.113281 462.59375 L 607.398438 463.464844 L 609.585938 464.8125 L 611.632812 466.5 L 613.570312 468.367188 L 615.464844 470.28125 L 617.289062 472.273438 L 618.941406 474.363281 L 620.308594 476.515625 L 621.304688 478.671875 L 621.488281 479.207031 L 621.972656 481.527344 L 621.949219 483.722656 L 621.492188 485.746094 L 620.738281 487.585938 L 619.855469 489.324219 L 618.882812 491.136719 L 617.695312 493.136719 L 616.230469 495.339844 L 614.488281 497.703125 L 614.035156 498.285156 L 612.308594 500.394531 L 610.449219 502.53125 L 608.511719 504.640625 L 606.558594 506.679688 L 604.621094 508.636719 L 602.703125 510.550781 L 600.71875 512.382812 L 598.613281 513.992188 L 596.382812 515.238281 L 594.066406 516.007812 Z M 591.992188 516.230469 "/>
<path style=" stroke:none;fill-rule:nonzero;fill:rgb(95.686275%,95.686275%,95.686275%);fill-opacity:1;" d="M 235.816406 166.449219 L 233.710938 165.425781 L 231.484375 163.996094 L 229.1875 162.226562 L 226.878906 160.210938 L 224.601562 158.042969 L 222.359375 155.8125 L 220.152344 153.550781 L 218.101562 151.179688 L 216.351562 148.667969 L 215.035156 146.035156 L 214.253906 143.320312 L 214.058594 141.152344 L 214.351562 138.488281 L 215.203125 135.863281 L 216.546875 133.320312 L 218.28125 130.898438 L 220.289062 128.605469 L 222.4375 126.414062 L 224.613281 124.238281 L 226.824219 122.03125 L 229.066406 119.8125 L 231.296875 117.613281 L 233.472656 115.492188 L 235.53125 113.503906 L 235.816406 113.234375 L 238.058594 111.101562 L 240.046875 109.25 L 241.753906 107.691406 L 243.207031 106.402344 L 244.480469 105.292969 L 245.746094 104.25 L 247.167969 103.394531 L 248.84375 102.902344 L 250.796875 102.902344 L 253.011719 103.476562 L 253.296875 103.585938 L 255.398438 104.609375 L 257.625 106.039062 L 259.925781 107.808594 L 262.234375 109.824219 L 264.511719 111.992188 L 266.753906 114.222656 L 268.957031 116.484375 L 271.007812 118.855469 L 272.757812 121.367188 L 274.074219 124 L 274.855469 126.714844 L 275.050781 128.882812 L 274.757812 131.546875 L 273.910156 134.171875 L 272.566406 136.714844 L 270.828125 139.136719 L 268.820312 141.429688 L 266.675781 143.621094 L 264.5 145.796875 L 262.285156 148.003906 L 260.046875 150.222656 L 257.8125 152.421875 L 255.640625 154.542969 L 253.582031 156.53125 L 253.296875 156.800781 L 251.054688 158.933594 L 249.066406 160.785156 L 247.355469 162.34375 L 245.90625 163.632812 L 244.628906 164.742188 L 243.367188 165.785156 L 241.945312 166.640625 L 240.269531 167.132812 L 238.3125 167.132812 L 236.097656 166.558594 Z M 235.816406 166.449219 "/>
<path style=" stroke:none;fill-rule:nonzero;fill:rgb(95.686275%,95.686275%,95.686275%);fill-opacity:1;" d="M 193.671875 546.542969 L 191.347656 546.28125 L 189.0625 545.519531 L 186.851562 544.324219 L 184.75 542.78125 L 182.765625 541.011719 L 180.859375 539.132812 L 178.992188 537.21875 L 177.253906 535.214844 L 175.765625 533.09375 L 174.636719 530.867188 L 173.960938 528.570312 L 173.78125 526.652344 L 174.074219 524.207031 L 174.914062 521.804688 L 176.230469 519.488281 L 177.910156 517.296875 L 179.8125 515.230469 L 181.804688 513.230469 L 183.820312 511.214844 L 185.882812 509.167969 L 187.960938 507.117188 L 190.003906 505.121094 L 191.953125 503.230469 L 192.367188 502.835938 L 194.425781 500.875 L 196.257812 499.160156 L 197.84375 497.710938 L 199.199219 496.496094 L 200.417969 495.421875 L 201.660156 494.414062 L 203.054688 493.609375 L 204.648438 493.152344 L 206.441406 493.152344 L 207.71875 493.429688 L 209.648438 494.222656 L 211.65625 495.441406 L 213.679688 497 L 215.664062 498.785156 L 217.597656 500.679688 L 219.5 502.605469 L 221.332031 504.585938 L 222.976562 506.632812 L 224.324219 508.699219 L 225.285156 510.71875 L 225.4375 511.148438 L 225.871094 513.132812 L 225.839844 514.96875 L 225.410156 516.621094 L 224.683594 518.089844 L 223.808594 519.441406 L 222.871094 520.8125 L 221.761719 522.347656 L 220.402344 524.109375 L 218.769531 526.09375 L 217.316406 527.78125 L 215.523438 529.777344 L 213.59375 531.859375 L 211.582031 533.964844 L 209.546875 536.050781 L 207.527344 538.085938 L 205.53125 540.082031 L 203.484375 542.015625 L 201.320312 543.757812 L 199.027344 545.164062 L 196.636719 546.113281 L 194.195312 546.527344 Z M 193.671875 546.542969 "/>
<path style=" stroke:none;fill-rule:nonzero;fill:rgb(95.686275%,95.686275%,95.686275%);fill-opacity:1;" d="M 593.597656 241.609375 L 591.332031 241.324219 L 589.109375 240.507812 L 586.976562 239.234375 L 584.972656 237.625 L 583.082031 235.828125 L 581.230469 233.976562 L 579.347656 232.058594 L 577.429688 230.046875 L 575.523438 227.957031 L 573.683594 225.835938 L 572.601562 224.527344 L 570.78125 222.210938 L 569.175781 220 L 567.800781 217.949219 L 566.636719 216.070312 L 565.585938 214.300781 L 564.617188 212.484375 L 563.898438 210.488281 L 563.597656 208.285156 L 563.820312 205.90625 L 564.121094 204.746094 L 565.019531 202.527344 L 566.324219 200.28125 L 567.960938 198.0625 L 569.824219 195.917969 L 571.808594 193.859375 L 573.832031 191.847656 L 575.925781 189.925781 L 578.152344 188.246094 L 580.507812 186.960938 L 582.949219 186.1875 L 584.945312 185.988281 L 587.359375 186.277344 L 589.734375 187.117188 L 592.019531 188.429688 L 594.175781 190.101562 L 596.210938 191.992188 L 598.183594 193.960938 L 600.160156 195.972656 L 602.136719 198.066406 L 604.066406 200.230469 L 605.875 202.421875 L 607.507812 204.589844 L 607.621094 204.746094 L 609.128906 207.007812 L 610.363281 209.148438 L 611.324219 211.125 L 612.050781 212.921875 L 612.621094 214.582031 L 613.140625 216.226562 L 613.53125 217.96875 L 613.679688 219.867188 L 613.492188 221.898438 L 612.929688 224.03125 L 612.746094 224.527344 L 611.71875 226.699219 L 610.34375 228.871094 L 608.703125 230.988281 L 606.894531 233.007812 L 605.007812 234.933594 L 603.097656 236.816406 L 601.09375 238.574219 L 598.957031 240.042969 L 596.707031 241.078125 L 594.390625 241.574219 Z M 593.597656 241.609375 "/>
<path style=" stroke:none;fill-rule:nonzero;fill:rgb(95.686275%,95.686275%,95.686275%);fill-opacity:1;" d="M 616.203125 452.261719 L 613.855469 451.957031 L 611.558594 451.082031 L 609.359375 449.726562 L 607.296875 448.03125 L 605.347656 446.152344 L 603.441406 444.222656 L 601.609375 442.222656 L 599.964844 440.132812 L 598.621094 437.980469 L 597.667969 435.832031 L 597.488281 435.277344 L 597.082031 432.96875 L 597.203125 430.792969 L 597.773438 428.796875 L 598.652344 426.988281 L 599.65625 425.28125 L 600.746094 423.507812 L 602.039062 421.554688 L 603.574219 419.417969 L 605.34375 417.140625 L 605.765625 416.625 L 607.511719 414.554688 L 609.371094 412.472656 L 611.277344 410.425781 L 613.179688 408.460938 L 615.046875 406.578125 L 616.902344 404.738281 L 618.835938 403 L 620.894531 401.511719 L 623.070312 400.414062 L 625.316406 399.808594 L 626.632812 399.714844 L 628.972656 400.015625 L 631.265625 400.890625 L 633.457031 402.246094 L 635.511719 403.941406 L 637.453125 405.8125 L 639.355469 407.734375 L 641.179688 409.734375 L 642.820312 411.820312 L 644.160156 413.96875 L 645.109375 416.113281 L 645.273438 416.625 L 645.691406 418.929688 L 645.582031 421.105469 L 645.027344 423.101562 L 644.167969 424.910156 L 643.179688 426.621094 L 642.109375 428.402344 L 640.832031 430.355469 L 639.308594 432.503906 L 637.539062 434.789062 L 637.148438 435.277344 L 635.40625 437.347656 L 633.550781 439.433594 L 631.644531 441.484375 L 629.738281 443.457031 L 627.867188 445.34375 L 626.003906 447.191406 L 624.066406 448.9375 L 622.003906 450.433594 L 619.824219 451.542969 L 617.570312 452.160156 Z M 616.203125 452.261719 "/>
<path style=" stroke:none;fill-rule:nonzero;fill:rgb(95.686275%,95.686275%,95.686275%);fill-opacity:1;" d="M 231.457031 224.761719 L 229.511719 225.167969 L 227.746094 225.078125 L 226.195312 224.5625 L 224.839844 223.734375 L 223.609375 222.761719 L 222.34375 221.714844 L 220.890625 220.480469 L 219.183594 218.976562 L 217.21875 217.1875 L 215.773438 215.839844 L 213.820312 213.988281 L 211.757812 212.003906 L 209.640625 209.9375 L 207.527344 207.847656 L 205.449219 205.777344 L 203.40625 203.734375 L 201.410156 201.652344 L 199.589844 199.460938 L 198.085938 197.136719 L 197.019531 194.703125 L 196.480469 192.214844 L 196.421875 191.117188 L 196.6875 188.742188 L 197.449219 186.402344 L 198.65625 184.132812 L 200.210938 181.976562 L 202.007812 179.933594 L 203.925781 177.980469 L 205.875 176.0625 L 207.910156 174.253906 L 210.0625 172.679688 L 212.324219 171.453125 L 214.660156 170.660156 L 217.035156 170.371094 L 217.171875 170.367188 L 219.675781 170.660156 L 222.140625 171.503906 L 224.515625 172.832031 L 226.769531 174.53125 L 228.894531 176.46875 L 230.941406 178.503906 L 232.996094 180.566406 L 235.074219 182.675781 L 237.136719 184.816406 L 239.136719 186.941406 L 241.007812 188.992188 L 241.765625 189.847656 L 243.640625 192.023438 L 245.230469 193.984375 L 246.53125 195.695312 L 247.582031 197.175781 L 248.476562 198.511719 L 249.308594 199.859375 L 249.953125 201.359375 L 250.265625 203.050781 L 250.148438 204.933594 L 249.734375 206.480469 L 248.832031 208.484375 L 247.535156 210.550781 L 245.925781 212.621094 L 244.105469 214.644531 L 242.183594 216.605469 L 240.238281 218.539062 L 238.246094 220.402344 L 236.203125 222.089844 L 234.160156 223.484375 L 232.179688 224.492188 Z M 231.457031 224.761719 "/>
<path style=" stroke:none;fill-rule:nonzero;fill:rgb(95.686275%,95.686275%,95.686275%);fill-opacity:1;" d="M 619.070312 298.410156 L 616.292969 299.265625 L 613.414062 299.871094 L 610.5 300.242188 L 607.625 300.40625 L 604.816406 300.414062 L 602.074219 300.34375 L 599.316406 300.25 L 596.507812 300.09375 L 593.65625 299.839844 L 590.824219 299.464844 L 588.082031 298.960938 L 586.285156 298.535156 L 583.464844 297.6875 L 580.9375 296.695312 L 578.730469 295.605469 L 576.832031 294.460938 L 575.144531 293.308594 L 573.484375 292.136719 L 571.714844 290.851562 L 569.792969 289.386719 L 567.726562 287.734375 L 565.570312 285.921875 L 565.289062 285.683594 L 563.179688 283.824219 L 561.074219 281.890625 L 559.011719 279.941406 L 557.042969 278.019531 L 555.164062 276.152344 L 553.328125 274.304688 L 551.585938 272.382812 L 550.085938 270.335938 L 548.964844 268.175781 L 548.328125 265.9375 L 548.207031 264.457031 L 548.496094 262.160156 L 549.339844 259.910156 L 550.644531 257.75 L 552.289062 255.722656 L 554.117188 253.808594 L 556 251.933594 L 557.949219 250.066406 L 560 248.246094 L 562.125 246.550781 L 564.277344 245.050781 L 565.289062 244.425781 L 567.710938 243.15625 L 570.011719 242.25 L 572.136719 241.679688 L 574.074219 241.371094 L 575.917969 241.167969 L 577.839844 240.988281 L 579.925781 240.859375 L 582.164062 240.808594 L 584.496094 240.855469 L 584.605469 240.859375 L 586.9375 241.007812 L 589.234375 241.242188 L 591.429688 241.542969 L 593.488281 241.886719 L 595.46875 242.242188 L 597.496094 242.648438 L 599.621094 243.183594 L 601.816406 243.878906 L 604 244.746094 L 604.355469 244.90625 L 606.402344 245.925781 L 608.324219 247.0625 L 610.082031 248.261719 L 611.671875 249.472656 L 613.164062 250.675781 L 614.703125 251.941406 L 616.414062 253.378906 L 618.320312 255.039062 L 620.394531 256.902344 L 621.25 257.6875 L 623.230469 259.53125 L 625.246094 261.457031 L 627.253906 263.40625 L 629.199219 265.324219 L 631.074219 267.195312 L 632.914062 269.046875 L 634.652344 270.980469 L 636.140625 273.035156 L 637.242188 275.207031 L 637.847656 277.453125 L 637.949219 278.785156 L 637.710938 280.84375 L 637.03125 282.871094 L 635.953125 284.828125 L 634.574219 286.6875 L 632.996094 288.441406 L 631.328125 290.128906 L 629.605469 291.800781 L 627.734375 293.453125 L 625.644531 295.027344 L 623.328125 296.46875 L 620.808594 297.71875 Z M 619.070312 298.410156 "/>
<path style=" stroke:none;fill-rule:nonzero;fill:rgb(95.686275%,95.686275%,95.686275%);fill-opacity:1;" d="M 416.75 142.871094 L 414.40625 142.566406 L 412.109375 141.683594 L 409.917969 140.324219 L 407.863281 138.625 L 405.921875 136.746094 L 404.019531 134.824219 L 402.199219 132.832031 L 400.574219 130.761719 L 399.257812 128.652344 L 398.339844 126.566406 L 398.214844 126.164062 L 397.820312 123.910156 L 397.984375 121.816406 L 398.613281 119.925781 L 399.546875 118.226562 L 400.597656 116.625 L 401.753906 114.925781 L 403.132812 113.027344 L 404.777344 110.917969 L 406.664062 108.648438 L 406.679688 108.632812 L 408.445312 106.621094 L 410.320312 104.570312 L 412.246094 102.535156 L 414.167969 100.5625 L 416.054688 98.660156 L 417.929688 96.800781 L 419.878906 95.035156 L 421.957031 93.519531 L 424.148438 92.382812 L 426.417969 91.742188 L 427.894531 91.621094 L 430.265625 91.929688 L 432.589844 92.8125 L 434.808594 94.179688 L 436.890625 95.890625 L 438.859375 97.785156 L 440.785156 99.730469 L 442.628906 101.738281 L 444.277344 103.824219 L 445.617188 105.949219 L 446.550781 108.046875 L 446.730469 108.632812 L 447.085938 110.890625 L 446.867188 112.988281 L 446.179688 114.878906 L 445.171875 116.566406 L 444.042969 118.164062 L 442.820312 119.839844 L 441.382812 121.707031 L 439.703125 123.777344 L 437.800781 126.003906 L 437.664062 126.164062 L 435.871094 128.164062 L 433.980469 130.203125 L 432.054688 132.21875 L 430.148438 134.167969 L 428.28125 136.042969 L 426.425781 137.878906 L 424.496094 139.613281 L 422.4375 141.09375 L 420.265625 142.183594 L 418.019531 142.78125 Z M 416.75 142.871094 "/>
<path style=" stroke:none;fill-rule:nonzero;fill:rgb(95.686275%,95.686275%,95.686275%);fill-opacity:1;" d="M 141.320312 339.25 L 139.039062 338.964844 L 136.796875 338.148438 L 134.644531 336.871094 L 132.621094 335.261719 L 130.710938 333.457031 L 128.84375 331.59375 L 126.933594 329.679688 L 124.960938 327.703125 L 122.953125 325.6875 L 120.960938 323.683594 L 119.558594 322.265625 L 117.472656 320.15625 L 115.554688 318.203125 L 113.832031 316.449219 L 112.308594 314.886719 L 110.898438 313.441406 L 109.515625 311.957031 L 108.210938 310.324219 L 107.074219 308.527344 L 106.179688 306.582031 L 105.859375 305.617188 L 105.410156 303.484375 L 105.289062 301.328125 L 105.441406 299.222656 L 105.792969 297.210938 L 106.226562 295.265625 L 106.75 293.25 L 107.492188 291.0625 L 108.527344 288.714844 L 109.882812 286.257812 L 110.199219 285.746094 L 111.6875 283.554688 L 113.363281 281.378906 L 115.164062 279.277344 L 117.023438 277.285156 L 118.886719 275.390625 L 120.75 273.542969 L 122.699219 271.808594 L 124.773438 270.332031 L 126.964844 269.253906 L 129.226562 268.6875 L 130.371094 268.613281 L 132.578125 268.886719 L 134.75 269.671875 L 136.832031 270.894531 L 138.796875 272.445312 L 140.648438 274.1875 L 142.453125 275.996094 L 144.285156 277.910156 L 146.15625 280.046875 L 148.03125 282.4375 L 149.855469 285.074219 L 151.28125 287.386719 L 152.753906 290.085938 L 154.105469 292.875 L 155.316406 295.699219 L 156.386719 298.488281 L 157.328125 301.207031 L 158.195312 303.867188 L 159.03125 306.527344 L 159.765625 309.261719 L 160.3125 312.0625 L 160.597656 314.894531 L 160.566406 317.695312 L 160.253906 320.113281 L 159.554688 322.761719 L 158.511719 325.238281 L 157.183594 327.507812 L 155.640625 329.550781 L 153.972656 331.398438 L 152.253906 333.136719 L 150.503906 334.828125 L 148.664062 336.382812 L 146.714844 337.691406 L 144.671875 338.640625 L 142.570312 339.164062 Z M 141.320312 339.25 "/>
<path style=" stroke:none;fill-rule:nonzero;fill:rgb(95.686275%,95.686275%,95.686275%);fill-opacity:1;" d="M 400.710938 257.707031 L 398.621094 256.78125 L 396.496094 255.464844 L 394.386719 253.847656 L 392.347656 252.023438 L 390.382812 250.105469 L 388.460938 248.15625 L 386.660156 246.113281 L 385.148438 243.9375 L 384.070312 241.640625 L 383.535156 239.277344 L 383.488281 238.347656 L 383.769531 236.054688 L 384.589844 233.804688 L 385.863281 231.648438 L 387.472656 229.613281 L 389.285156 227.691406 L 391.15625 225.820312 L 393.074219 223.90625 L 395.066406 221.933594 L 397.109375 219.929688 L 399.15625 217.941406 L 400.710938 216.449219 L 402.914062 214.359375 L 404.964844 212.445312 L 406.824219 210.738281 L 408.492188 209.230469 L 410.050781 207.839844 L 411.664062 206.539062 L 413.472656 205.515625 L 415.523438 204.953125 L 417.785156 204.980469 L 418.796875 205.1875 L 420.9375 205.96875 L 423.148438 207.207031 L 425.367188 208.816406 L 427.542969 210.695312 L 429.652344 212.722656 L 431.722656 214.796875 L 433.707031 216.9375 L 435.457031 219.210938 L 436.816406 221.621094 L 437.667969 224.121094 L 437.925781 226.453125 L 437.636719 228.914062 L 436.796875 231.332031 L 435.476562 233.664062 L 433.792969 235.867188 L 431.882812 237.949219 L 429.882812 239.960938 L 427.847656 241.980469 L 425.753906 244.015625 L 423.609375 246.035156 L 421.464844 247.976562 L 419.367188 249.785156 L 418.796875 250.261719 L 416.589844 252.015625 L 414.554688 253.511719 L 412.726562 254.734375 L 411.101562 255.722656 L 409.621094 256.554688 L 408.148438 257.328125 L 406.550781 257.949219 L 404.777344 258.28125 L 402.839844 258.222656 L 400.765625 257.726562 Z M 400.710938 257.707031 "/>
<path style=" stroke:none;fill-rule:nonzero;fill:rgb(95.686275%,95.686275%,95.686275%);fill-opacity:1;" d="M 402.109375 550.285156 L 399.84375 550 L 397.625 549.175781 L 395.496094 547.898438 L 393.492188 546.285156 L 391.601562 544.488281 L 389.75 542.632812 L 387.871094 540.722656 L 385.964844 538.722656 L 384.078125 536.660156 L 382.269531 534.585938 L 381.3125 533.4375 L 379.496094 531.140625 L 377.917969 528.980469 L 376.59375 527.003906 L 375.484375 525.210938 L 374.484375 523.519531 L 373.582031 521.753906 L 372.960938 519.804688 L 372.769531 517.667969 L 373.101562 515.386719 L 373.203125 515.019531 L 374.050781 512.894531 L 375.304688 510.75 L 376.882812 508.644531 L 378.675781 506.625 L 380.570312 504.691406 L 382.496094 502.796875 L 384.519531 501.046875 L 386.683594 499.59375 L 388.957031 498.59375 L 391.292969 498.148438 L 391.851562 498.132812 L 394.121094 498.417969 L 396.347656 499.242188 L 398.480469 500.519531 L 400.484375 502.132812 L 402.378906 503.9375 L 404.230469 505.792969 L 406.117188 507.707031 L 408.023438 509.707031 L 409.910156 511.773438 L 411.714844 513.847656 L 412.691406 515.019531 L 414.5 517.320312 L 416.074219 519.484375 L 417.390625 521.464844 L 418.488281 523.257812 L 419.476562 524.949219 L 420.367188 526.71875 L 420.976562 528.667969 L 421.15625 530.804688 L 420.816406 533.089844 L 420.714844 533.4375 L 419.867188 535.5625 L 418.609375 537.707031 L 417.03125 539.804688 L 415.242188 541.820312 L 413.351562 543.753906 L 411.425781 545.644531 L 409.40625 547.390625 L 407.246094 548.835938 L 404.972656 549.832031 L 402.640625 550.269531 Z M 402.109375 550.285156 "/>
<path style=" stroke:none;fill-rule:nonzero;fill:rgb(95.686275%,95.686275%,95.686275%);fill-opacity:1;" d="M 356.183594 171.289062 L 354.328125 171.609375 L 352.664062 171.414062 L 351.21875 170.78125 L 349.972656 169.84375 L 348.84375 168.765625 L 347.667969 167.613281 L 346.292969 166.261719 L 344.648438 164.644531 L 342.742188 162.753906 L 341.652344 161.675781 L 339.765625 159.796875 L 337.761719 157.800781 L 335.695312 155.738281 L 333.621094 153.671875 L 331.578125 151.628906 L 329.566406 149.613281 L 327.609375 147.554688 L 325.84375 145.382812 L 324.402344 143.078125 L 323.414062 140.671875 L 322.960938 138.210938 L 322.9375 137.507812 L 323.199219 135.167969 L 323.960938 132.863281 L 325.160156 130.632812 L 326.707031 128.511719 L 328.484375 126.507812 L 330.375 124.585938 L 332.304688 122.703125 L 334.316406 120.9375 L 336.449219 119.421875 L 338.6875 118.257812 L 340.996094 117.542969 L 343.113281 117.332031 L 345.582031 117.621094 L 348.007812 118.464844 L 350.347656 119.789062 L 352.5625 121.480469 L 354.652344 123.402344 L 356.671875 125.410156 L 358.695312 127.449219 L 360.734375 129.542969 L 362.75 131.675781 L 364.679688 133.800781 L 366.464844 135.859375 L 366.921875 136.40625 L 368.679688 138.597656 L 370.148438 140.597656 L 371.332031 142.367188 L 372.261719 143.917969 L 373.039062 145.328125 L 373.761719 146.753906 L 374.300781 148.3125 L 374.53125 150.058594 L 374.355469 151.972656 L 373.902344 153.570312 L 372.96875 155.601562 L 371.652344 157.679688 L 370.039062 159.742188 L 368.234375 161.738281 L 366.339844 163.667969 L 364.421875 165.566406 L 362.460938 167.378906 L 360.464844 168.992188 L 358.484375 170.28125 L 356.582031 171.160156 Z M 356.183594 171.289062 "/>
<path style=" stroke:none;fill-rule:nonzero;fill:rgb(95.686275%,95.686275%,95.686275%);fill-opacity:1;" d="M 381.070312 634.109375 L 378.324219 634.015625 L 375.398438 633.855469 L 372.355469 633.644531 L 369.265625 633.394531 L 366.191406 633.113281 L 363.15625 632.8125 L 360.136719 632.511719 L 357.078125 632.203125 L 353.964844 631.886719 L 350.835938 631.5625 L 347.75 631.234375 L 344.78125 630.910156 L 343.042969 630.714844 L 339.695312 630.328125 L 336.71875 629.96875 L 334.144531 629.640625 L 331.945312 629.34375 L 329.996094 629.074219 L 328.070312 628.804688 L 326.039062 628.515625 L 323.878906 628.199219 L 321.628906 627.859375 L 319.421875 627.511719 L 317.03125 627.125 L 314.710938 626.738281 L 312.527344 626.359375 L 310.5 626.003906 L 308.578125 625.65625 L 306.609375 625.253906 L 304.492188 624.65625 L 302.210938 623.78125 L 299.816406 622.59375 L 298.71875 621.957031 L 296.515625 620.507812 L 294.328125 618.855469 L 292.21875 617.070312 L 290.222656 615.21875 L 288.328125 613.355469 L 286.476562 611.484375 L 284.738281 609.535156 L 283.261719 607.453125 L 282.1875 605.261719 L 281.625 602.996094 L 281.554688 601.871094 L 281.796875 599.773438 L 282.507812 597.707031 L 283.625 595.71875 L 285.050781 593.832031 L 286.675781 592.050781 L 288.382812 590.332031 L 290.203125 588.585938 L 292.363281 586.742188 L 295.007812 584.78125 L 298.191406 582.722656 L 301.917969 580.613281 L 303.554688 579.761719 L 306.671875 578.234375 L 310.011719 576.714844 L 313.523438 575.222656 L 317.15625 573.765625 L 320.84375 572.363281 L 324.546875 571.015625 L 328.230469 569.71875 L 331.886719 568.453125 L 335.550781 567.203125 L 339.265625 565.984375 L 343.046875 564.839844 L 346.882812 563.804688 L 350.726562 562.917969 L 354.535156 562.207031 L 358.25 561.703125 L 361.550781 561.4375 L 365.664062 561.378906 L 369.5 561.636719 L 373.027344 562.1875 L 376.214844 562.988281 L 379.085938 563.972656 L 381.703125 565.074219 L 384.207031 566.222656 L 386.742188 567.410156 L 389.355469 568.695312 L 392.0625 570.117188 L 394.832031 571.679688 L 397.625 573.382812 L 400.386719 575.203125 L 400.957031 575.597656 L 403.832031 577.683594 L 406.59375 579.847656 L 409.199219 582.046875 L 411.621094 584.230469 L 413.859375 586.371094 L 415.96875 588.460938 L 418.035156 590.546875 L 419.996094 592.710938 L 421.734375 594.996094 L 423.128906 597.402344 L 424.082031 599.894531 L 424.519531 602.433594 L 424.546875 603.199219 L 424.25 605.835938 L 423.390625 608.4375 L 422.03125 610.949219 L 420.285156 613.339844 L 418.277344 615.597656 L 416.144531 617.761719 L 413.976562 619.914062 L 411.757812 622.058594 L 409.480469 624.148438 L 407.183594 626.121094 L 404.914062 627.90625 L 403 629.269531 L 400.449219 630.84375 L 398.113281 632.003906 L 396.03125 632.769531 L 394.199219 633.222656 L 392.519531 633.503906 L 390.777344 633.75 L 388.722656 633.960938 L 386.238281 634.097656 L 383.292969 634.140625 Z M 381.070312 634.109375 "/>
<path style=" stroke:none;fill-rule:nonzero;fill:rgb(95.686275%,95.686275%,95.686275%);fill-opacity:1;" d="M 376.59375 395.699219 L 374.121094 396.347656 L 371.753906 396.507812 L 369.554688 396.246094 L 367.53125 395.6875 L 365.613281 395 L 363.648438 394.269531 L 361.546875 393.457031 L 359.320312 392.550781 L 357.03125 391.570312 L 356.371094 391.277344 L 354.191406 390.277344 L 352.074219 389.257812 L 350.066406 388.253906 L 348.203125 387.285156 L 346.441406 386.347656 L 344.652344 385.375 L 342.722656 384.246094 L 340.617188 382.886719 L 338.367188 381.296875 L 336.683594 380.007812 L 334.539062 378.261719 L 332.386719 376.394531 L 330.285156 374.464844 L 328.269531 372.535156 L 326.347656 370.632812 L 324.46875 368.746094 L 322.675781 366.789062 L 321.117188 364.710938 L 319.929688 362.507812 L 319.222656 360.230469 L 319.050781 358.441406 L 319.351562 356.074219 L 320.21875 353.75 L 321.566406 351.523438 L 323.257812 349.429688 L 325.144531 347.453125 L 327.085938 345.523438 L 329.097656 343.644531 L 331.210938 341.898438 L 333.398438 340.394531 L 335.609375 339.222656 L 336.683594 338.785156 L 339.136719 338.144531 L 341.46875 338.011719 L 343.617188 338.316406 L 345.582031 338.921875 L 347.441406 339.652344 L 349.363281 340.425781 L 351.433594 341.285156 L 353.648438 342.238281 L 355.949219 343.265625 L 356.371094 343.457031 L 358.542969 344.464844 L 360.675781 345.492188 L 362.714844 346.5 L 364.632812 347.46875 L 366.449219 348.398438 L 368.285156 349.359375 L 370.253906 350.46875 L 372.386719 351.792969 L 374.652344 353.347656 L 376.59375 354.792969 L 378.769531 356.535156 L 380.9375 358.398438 L 383.046875 360.316406 L 385.058594 362.238281 L 386.972656 364.132812 L 388.839844 366.007812 L 390.613281 367.953125 L 392.160156 370.023438 L 393.328125 372.214844 L 394.015625 374.484375 L 394.171875 376.1875 L 393.875 378.542969 L 393.011719 380.851562 L 391.671875 383.0625 L 389.984375 385.140625 L 388.109375 387.105469 L 386.179688 389.023438 L 384.171875 390.890625 L 382.058594 392.625 L 379.855469 394.121094 L 377.621094 395.289062 Z M 376.59375 395.699219 "/>
<path style=" stroke:none;fill-rule:nonzero;fill:rgb(95.686275%,95.686275%,95.686275%);fill-opacity:1;" d="M 304.949219 285.167969 L 302.617188 284.878906 L 300.324219 284.050781 L 298.125 282.753906 L 296.050781 281.117188 L 294.09375 279.277344 L 292.1875 277.371094 L 290.261719 275.410156 L 288.328125 273.359375 L 286.433594 271.230469 L 284.632812 269.070312 L 283.28125 267.320312 L 281.574219 264.90625 L 280.144531 262.617188 L 278.992188 260.507812 L 278.078125 258.585938 L 277.285156 256.773438 L 276.582031 254.90625 L 276.128906 252.863281 L 276.078125 250.625 L 276.511719 248.238281 L 276.785156 247.390625 L 277.765625 245.1875 L 279.117188 242.972656 L 280.761719 240.800781 L 282.601562 238.71875 L 284.539062 236.726562 L 286.503906 234.777344 L 288.550781 232.933594 L 290.730469 231.355469 L 293.035156 230.1875 L 295.414062 229.546875 L 296.824219 229.441406 L 299.167969 229.726562 L 301.46875 230.558594 L 303.679688 231.855469 L 305.765625 233.5 L 307.730469 235.347656 L 309.644531 237.257812 L 311.574219 239.226562 L 313.511719 241.28125 L 315.410156 243.414062 L 317.207031 245.578125 L 318.597656 247.390625 L 320.292969 249.816406 L 321.707031 252.113281 L 322.832031 254.230469 L 323.722656 256.152344 L 324.484375 257.96875 L 325.164062 259.839844 L 325.585938 261.886719 L 325.609375 264.125 L 325.152344 266.507812 L 324.882812 267.320312 L 323.898438 269.519531 L 322.542969 271.730469 L 320.898438 273.894531 L 319.058594 275.972656 L 317.128906 277.957031 L 315.171875 279.898438 L 313.128906 281.730469 L 310.957031 283.292969 L 308.660156 284.445312 L 306.289062 285.070312 Z M 304.949219 285.167969 "/>
<path style=" stroke:none;fill-rule:nonzero;fill:rgb(95.686275%,95.686275%,95.686275%);fill-opacity:1;" d="M 523.835938 161.082031 L 521.503906 161.644531 L 519.308594 161.6875 L 517.304688 161.296875 L 515.488281 160.605469 L 513.765625 159.800781 L 511.957031 158.890625 L 509.957031 157.757812 L 507.765625 156.34375 L 505.4375 154.65625 L 505.355469 154.597656 L 503.289062 152.945312 L 501.203125 151.15625 L 499.15625 149.285156 L 497.1875 147.398438 L 495.304688 145.53125 L 493.457031 143.667969 L 491.71875 141.726562 L 490.238281 139.65625 L 489.15625 137.472656 L 488.574219 135.214844 L 488.492188 134.007812 L 488.792969 131.675781 L 489.664062 129.390625 L 491.007812 127.207031 L 492.695312 125.15625 L 494.5625 123.222656 L 496.476562 121.328125 L 498.460938 119.496094 L 500.539062 117.824219 L 502.671875 116.425781 L 504.804688 115.386719 L 505.355469 115.179688 L 507.691406 114.621094 L 509.886719 114.578125 L 511.890625 114.976562 L 513.707031 115.667969 L 515.429688 116.480469 L 517.238281 117.390625 L 519.234375 118.527344 L 521.425781 119.945312 L 523.753906 121.632812 L 523.835938 121.695312 L 525.90625 123.347656 L 527.988281 125.140625 L 530.035156 127.007812 L 532.003906 128.894531 L 533.886719 130.761719 L 535.730469 132.625 L 537.46875 134.566406 L 538.945312 136.632812 L 540.03125 138.820312 L 540.609375 141.074219 L 540.6875 142.273438 L 540.386719 144.601562 L 539.519531 146.886719 L 538.171875 149.070312 L 536.484375 151.117188 L 534.621094 153.050781 L 532.707031 154.945312 L 530.722656 156.777344 L 528.644531 158.441406 L 526.511719 159.839844 L 524.378906 160.878906 Z M 523.835938 161.082031 "/>
<path style=" stroke:none;fill-rule:nonzero;fill:rgb(95.686275%,95.686275%,95.686275%);fill-opacity:1;" d="M 126.6875 452.886719 L 123.972656 452.578125 L 121.304688 451.6875 L 118.722656 450.28125 L 116.269531 448.472656 L 113.953125 446.398438 L 111.726562 444.203125 L 109.53125 441.976562 L 107.410156 439.691406 L 105.464844 437.355469 L 103.789062 435.003906 L 102.46875 432.695312 L 101.738281 431.007812 L 101.121094 428.632812 L 101.035156 426.445312 L 101.421875 424.484375 L 102.175781 422.75 L 103.148438 421.183594 L 104.1875 419.660156 L 105.316406 418.046875 L 106.609375 416.292969 L 108.085938 414.390625 L 109.734375 412.375 L 110.539062 411.429688 L 112.359375 409.355469 L 114.265625 407.265625 L 116.203125 405.21875 L 118.121094 403.246094 L 119.996094 401.363281 L 121.851562 399.519531 L 123.785156 397.769531 L 125.839844 396.265625 L 128.011719 395.144531 L 130.261719 394.511719 L 131.71875 394.390625 L 134.023438 394.683594 L 136.28125 395.527344 L 138.445312 396.835938 L 140.480469 398.484375 L 142.398438 400.316406 L 144.277344 402.203125 L 146.152344 404.15625 L 147.976562 406.199219 L 149.679688 408.304688 L 151.1875 410.425781 L 151.824219 411.429688 L 152.996094 413.566406 L 153.867188 415.597656 L 154.457031 417.484375 L 154.808594 419.207031 L 155.019531 420.808594 L 155.171875 422.414062 L 155.136719 424.1875 L 154.773438 426.195312 L 153.996094 428.449219 L 152.761719 430.914062 L 152.710938 431.007812 L 151.304688 433.21875 L 149.609375 435.515625 L 147.6875 437.835938 L 145.613281 440.136719 L 143.453125 442.382812 L 141.273438 444.578125 L 139.066406 446.734375 L 136.757812 448.753906 L 134.316406 450.492188 L 131.75 451.824219 L 129.105469 452.640625 Z M 126.6875 452.886719 "/>
<path style=" stroke:none;fill-rule:nonzero;fill:rgb(95.686275%,95.686275%,95.686275%);fill-opacity:1;" d="M 172.460938 521.90625 L 170.167969 522.738281 L 168.003906 523.144531 L 166.015625 523.167969 L 164.21875 522.890625 L 162.558594 522.441406 L 160.914062 521.933594 L 159.164062 521.304688 L 157.257812 520.46875 L 155.210938 519.386719 L 153.058594 518.054688 L 152.667969 517.789062 L 150.535156 516.246094 L 148.398438 514.523438 L 146.308594 512.683594 L 144.308594 510.800781 L 142.398438 508.917969 L 140.53125 507.035156 L 138.765625 505.074219 L 137.253906 502.984375 L 136.136719 500.78125 L 135.523438 498.5 L 135.421875 497.152344 L 135.714844 494.832031 L 136.5625 492.558594 L 137.878906 490.382812 L 139.535156 488.335938 L 141.378906 486.402344 L 143.277344 484.511719 L 145.242188 482.636719 L 147.308594 480.824219 L 149.445312 479.160156 L 151.601562 477.71875 L 152.667969 477.105469 L 154.851562 476.050781 L 156.941406 475.324219 L 158.886719 474.898438 L 160.675781 474.714844 L 162.34375 474.679688 L 164.011719 474.699219 L 165.804688 474.871094 L 167.792969 475.316406 L 169.960938 476.097656 L 172.265625 477.242188 L 172.460938 477.351562 L 174.648438 478.730469 L 176.871094 480.371094 L 179.078125 482.207031 L 181.21875 484.164062 L 183.28125 486.167969 L 185.292969 488.183594 L 187.238281 490.253906 L 188.976562 492.445312 L 190.363281 494.769531 L 191.277344 497.1875 L 191.636719 499.65625 L 191.640625 499.925781 L 191.339844 502.414062 L 190.472656 504.859375 L 189.113281 507.210938 L 187.386719 509.429688 L 185.4375 511.523438 L 183.410156 513.554688 L 181.335938 515.5625 L 179.179688 517.484375 L 176.960938 519.234375 L 174.71875 520.722656 L 172.515625 521.882812 Z M 172.460938 521.90625 "/>
<path style=" stroke:none;fill-rule:nonzero;fill:rgb(95.686275%,95.686275%,95.686275%);fill-opacity:1;" d="M 526.183594 583.378906 L 523.695312 583.367188 L 521.347656 582.855469 L 519.179688 581.90625 L 517.207031 580.601562 L 515.410156 579.058594 L 513.71875 577.40625 L 512.050781 575.699219 L 510.394531 573.859375 L 508.789062 571.816406 L 507.296875 569.5625 L 505.960938 567.109375 L 505.039062 565.027344 L 504.078125 562.273438 L 503.347656 559.425781 L 502.847656 556.550781 L 502.546875 553.71875 L 502.398438 550.960938 L 502.328125 548.261719 L 502.292969 545.550781 L 502.363281 542.765625 L 502.609375 539.914062 L 503.074219 537.046875 L 503.78125 534.230469 L 504.375 532.457031 L 505.554688 529.714844 L 506.972656 527.164062 L 508.574219 524.855469 L 510.285156 522.785156 L 512.046875 520.921875 L 513.820312 519.148438 L 515.675781 517.40625 L 517.722656 515.746094 L 520 514.253906 L 522.503906 513.011719 L 525.1875 512.078125 L 525.28125 512.054688 L 527.984375 511.492188 L 530.769531 511.238281 L 533.574219 511.265625 L 536.332031 511.53125 L 539.011719 511.960938 L 541.632812 512.472656 L 544.273438 513.019531 L 546.992188 513.675781 L 549.789062 514.496094 L 552.605469 515.5 L 555.382812 516.691406 L 556.902344 517.4375 L 559.667969 519.003906 L 562.25 520.730469 L 564.605469 522.554688 L 566.730469 524.417969 L 568.65625 526.273438 L 570.5 528.125 L 572.265625 530.035156 L 573.808594 532.066406 L 575.003906 534.214844 L 575.738281 536.445312 L 575.945312 538.398438 L 575.683594 540.601562 L 574.921875 542.765625 L 573.734375 544.847656 L 572.21875 546.816406 L 570.5 548.675781 L 568.707031 550.476562 L 566.839844 552.328125 L 564.800781 554.324219 L 562.546875 556.476562 L 560.089844 558.777344 L 557.46875 561.179688 L 557.011719 561.589844 L 554.550781 563.789062 L 552.027344 566.007812 L 549.496094 568.199219 L 547 570.332031 L 544.570312 572.378906 L 542.210938 574.355469 L 539.871094 576.300781 L 537.484375 578.183594 L 535.023438 579.902344 L 532.511719 581.367188 L 529.984375 582.480469 L 527.5 583.183594 Z M 526.183594 583.378906 "/>
<path style=" stroke:none;fill-rule:nonzero;fill:rgb(95.686275%,95.686275%,95.686275%);fill-opacity:1;" d="M 210.113281 389.273438 L 207.433594 388.976562 L 204.792969 388.117188 L 202.234375 386.757812 L 199.800781 385.003906 L 197.5 382.980469 L 195.296875 380.820312 L 188.683594 374.207031 L 186.515625 372.035156 L 184.449219 369.96875 L 182.539062 368.054688 L 182.410156 367.925781 L 180.226562 365.738281 L 178.410156 363.917969 L 176.960938 362.460938 L 175.820312 361.3125 L 174.832031 360.3125 L 173.941406 359.246094 L 173.328125 357.964844 L 173.148438 356.417969 L 173.503906 354.605469 L 173.679688 354.117188 L 174.574219 352.304688 L 175.859375 350.367188 L 177.464844 348.363281 L 179.289062 346.355469 L 181.21875 344.378906 L 183.183594 342.421875 L 185.199219 340.492188 L 187.289062 338.660156 L 189.421875 337.015625 L 191.546875 335.640625 L 192.847656 334.945312 L 194.984375 334.085938 L 196.980469 333.625 L 198.792969 333.523438 L 200.417969 333.707031 L 201.917969 334.042969 L 203.429688 334.445312 L 205.121094 335.046875 L 207.074219 335.964844 L 209.292969 337.265625 L 211.53125 338.804688 L 213.679688 340.457031 L 215.929688 342.328125 L 218.222656 344.371094 L 220.507812 346.515625 L 222.75 348.703125 L 224.949219 350.890625 L 227.117188 353.097656 L 229.15625 355.394531 L 230.933594 357.824219 L 232.320312 360.378906 L 233.210938 363.019531 L 233.539062 365.703125 L 233.539062 365.84375 L 233.273438 368.382812 L 232.5 370.886719 L 231.273438 373.320312 L 229.671875 375.648438 L 227.800781 377.859375 L 225.78125 379.964844 L 223.710938 382.027344 L 221.582031 384.023438 L 219.34375 385.835938 L 216.988281 387.351562 L 214.53125 388.472656 L 212.015625 389.125 Z M 210.113281 389.273438 "/>
<path style=" stroke:none;fill-rule:nonzero;fill:rgb(95.686275%,95.686275%,95.686275%);fill-opacity:1;" d="M 433.917969 631.261719 L 431.761719 630.082031 L 429.609375 628.609375 L 427.507812 626.917969 L 425.503906 625.09375 L 423.59375 623.21875 L 421.722656 621.324219 L 419.980469 619.339844 L 418.515625 617.226562 L 417.480469 614.992188 L 416.972656 612.699219 L 416.929688 611.847656 L 417.21875 609.578125 L 418.042969 607.355469 L 419.324219 605.222656 L 420.941406 603.21875 L 422.742188 601.324219 L 424.601562 599.472656 L 426.523438 597.597656 L 428.542969 595.714844 L 430.640625 593.875 L 432.769531 592.144531 L 433.917969 591.269531 L 436.046875 589.765625 L 438.089844 588.472656 L 440 587.394531 L 441.765625 586.515625 L 443.410156 585.769531 L 445.039062 585.078125 L 446.78125 584.523438 L 448.695312 584.238281 L 450.785156 584.328125 L 453.007812 584.847656 L 453.664062 585.082031 L 455.871094 586.109375 L 458.109375 587.503906 L 460.324219 589.191406 L 462.472656 591.078125 L 464.53125 593.070312 L 466.546875 595.09375 L 468.480469 597.179688 L 470.179688 599.398438 L 471.496094 601.746094 L 472.316406 604.1875 L 472.558594 606.402344 L 472.265625 608.839844 L 471.414062 611.238281 L 470.085938 613.542969 L 468.398438 615.71875 L 466.492188 617.773438 L 464.503906 619.765625 L 462.472656 621.753906 L 460.359375 623.714844 L 458.179688 625.589844 L 455.972656 627.308594 L 453.796875 628.804688 L 453.664062 628.886719 L 451.367188 630.207031 L 449.199219 631.199219 L 447.207031 631.882812 L 445.398438 632.304688 L 443.726562 632.566406 L 442.0625 632.777344 L 440.292969 632.851562 L 438.367188 632.683594 L 436.300781 632.199219 L 434.144531 631.367188 Z M 433.917969 631.261719 "/>
<path style=" stroke:none;fill-rule:nonzero;fill:rgb(95.686275%,95.686275%,95.686275%);fill-opacity:1;" d="M 179.410156 287.304688 L 177.136719 287.019531 L 174.902344 286.191406 L 172.765625 284.902344 L 170.757812 283.28125 L 168.859375 281.476562 L 167.003906 279.613281 L 165.125 277.6875 L 163.242188 275.671875 L 161.414062 273.589844 L 159.699219 271.492188 L 158.847656 270.382812 L 157.191406 268.03125 L 155.8125 265.808594 L 154.714844 263.773438 L 153.84375 261.925781 L 153.085938 260.167969 L 152.433594 258.332031 L 152.0625 256.3125 L 152.113281 254.101562 L 152.667969 251.757812 L 152.734375 251.570312 L 153.691406 249.433594 L 155.019531 247.28125 L 156.632812 245.179688 L 158.4375 243.164062 L 160.324219 241.234375 L 162.238281 239.351562 L 164.25 237.597656 L 166.398438 236.140625 L 168.65625 235.125 L 170.980469 234.65625 L 171.648438 234.632812 L 173.925781 234.917969 L 176.15625 235.75 L 178.296875 237.035156 L 180.304688 238.65625 L 182.203125 240.464844 L 184.0625 242.328125 L 185.941406 244.253906 L 187.824219 246.269531 L 189.652344 248.351562 L 191.367188 250.453125 L 192.222656 251.570312 L 193.878906 253.921875 L 195.257812 256.144531 L 196.351562 258.183594 L 197.214844 260.03125 L 197.972656 261.789062 L 198.621094 263.625 L 198.988281 265.644531 L 198.933594 267.855469 L 198.375 270.199219 L 198.3125 270.382812 L 197.351562 272.519531 L 196.023438 274.667969 L 194.410156 276.773438 L 192.605469 278.785156 L 190.722656 280.710938 L 188.804688 282.597656 L 186.796875 284.347656 L 184.648438 285.800781 L 182.390625 286.816406 L 180.066406 287.28125 Z M 179.410156 287.304688 "/>
<path style="fill:none;stroke-width:0.75;stroke-linecap:round;stroke-linejoin:round;stroke:rgb(66.27451%,66.27451%,66.27451%);stroke-opacity:1;stroke-miterlimit:10;" d="M 594.113281 494.144531 L 601.4375 481.882812 "/>
<path style="fill:none;stroke-width:0.75;stroke-linecap:round;stroke-linejoin:round;stroke:rgb(66.27451%,66.27451%,66.27451%);stroke-opacity:1;stroke-miterlimit:10;" d="M 247.847656 132.160156 L 241.261719 137.875 "/>
<path style="fill:none;stroke-width:0.75;stroke-linecap:round;stroke-linejoin:round;stroke:rgb(66.27451%,66.27451%,66.27451%);stroke-opacity:1;stroke-miterlimit:10;" d="M 204.984375 513.929688 L 197.566406 522.273438 "/>
<path style="fill:none;stroke-width:0.75;stroke-linecap:round;stroke-linejoin:round;stroke:rgb(66.27451%,66.27451%,66.27451%);stroke-opacity:1;stroke-miterlimit:10;" d="M 587.128906 210.109375 L 592.449219 221.667969 "/>
<path style="fill:none;stroke-width:0.75;stroke-linecap:round;stroke-linejoin:round;stroke:rgb(66.27451%,66.27451%,66.27451%);stroke-opacity:1;stroke-miterlimit:10;" d="M 625.273438 419.398438 L 617.617188 432.394531 "/>
<path style="fill:none;stroke-width:0.75;stroke-linecap:round;stroke-linejoin:round;stroke:rgb(66.27451%,66.27451%,66.27451%);stroke-opacity:1;stroke-miterlimit:10;" d="M 221.871094 196.246094 L 228.203125 203.152344 "/>
<path style="fill:none;stroke-width:0.75;stroke-linecap:round;stroke-linejoin:round;stroke:rgb(66.27451%,66.27451%,66.27451%);stroke-opacity:1;stroke-miterlimit:10;" d="M 618.472656 277.136719 L 607.257812 268.304688 "/>
<path style="fill:none;stroke-width:0.75;stroke-linecap:round;stroke-linejoin:round;stroke:rgb(66.27451%,66.27451%,66.27451%);stroke-opacity:1;stroke-miterlimit:10;" d="M 418.21875 123.398438 L 426.171875 111.808594 "/>
<path style="fill:none;stroke-width:0.75;stroke-linecap:round;stroke-linejoin:round;stroke:rgb(66.27451%,66.27451%,66.27451%);stroke-opacity:1;stroke-miterlimit:10;" d="M 139.242188 319.140625 L 130.769531 309.546875 "/>
<path style="fill:none;stroke-width:0.75;stroke-linecap:round;stroke-linejoin:round;stroke:rgb(66.27451%,66.27451%,66.27451%);stroke-opacity:1;stroke-miterlimit:10;" d="M 404.082031 236.394531 L 412.847656 230.054688 "/>
<path style="fill:none;stroke-width:0.75;stroke-linecap:round;stroke-linejoin:round;stroke:rgb(66.27451%,66.27451%,66.27451%);stroke-opacity:1;stroke-miterlimit:10;" d="M 130.035156 288.53125 L 128.339844 301.613281 "/>
<path style="fill:none;stroke-width:0.75;stroke-linecap:round;stroke-linejoin:round;stroke:rgb(66.27451%,66.27451%,66.27451%);stroke-opacity:1;stroke-miterlimit:10;" d="M 400.78125 530.683594 L 393.210938 517.828125 "/>
<path style="fill:none;stroke-width:0.75;stroke-linecap:round;stroke-linejoin:round;stroke:rgb(66.27451%,66.27451%,66.27451%);stroke-opacity:1;stroke-miterlimit:10;" d="M 346.949219 142.410156 L 353.503906 150.800781 "/>
<path style="fill:none;stroke-width:0.75;stroke-linecap:round;stroke-linejoin:round;stroke:rgb(66.27451%,66.27451%,66.27451%);stroke-opacity:1;stroke-miterlimit:10;" d="M 321.898438 605.894531 L 338.046875 608.066406 "/>
<path style="fill:none;stroke-width:0.75;stroke-linecap:round;stroke-linejoin:round;stroke:rgb(66.27451%,66.27451%,66.27451%);stroke-opacity:1;stroke-miterlimit:10;" d="M 316.746094 605.085938 L 301.472656 602.335938 "/>
<path style="fill:none;stroke-width:0.75;stroke-linecap:round;stroke-linejoin:round;stroke:rgb(66.27451%,66.27451%,66.27451%);stroke-opacity:1;stroke-miterlimit:10;" d="M 340.246094 359.917969 L 351.957031 365.367188 "/>
<path style="fill:none;stroke-width:0.75;stroke-linecap:round;stroke-linejoin:round;stroke:rgb(66.27451%,66.27451%,66.27451%);stroke-opacity:1;stroke-miterlimit:10;" d="M 298.394531 251.535156 L 303.441406 263.335938 "/>
<path style="fill:none;stroke-width:0.75;stroke-linecap:round;stroke-linejoin:round;stroke:rgb(66.27451%,66.27451%,66.27451%);stroke-opacity:1;stroke-miterlimit:10;" d="M 508.230469 135.132812 L 520.988281 141.15625 "/>
<path style="fill:none;stroke-width:0.75;stroke-linecap:round;stroke-linejoin:round;stroke:rgb(66.27451%,66.27451%,66.27451%);stroke-opacity:1;stroke-miterlimit:10;" d="M 129.382812 420.195312 L 130.953125 414.621094 "/>
<path style="fill:none;stroke-width:0.75;stroke-linecap:round;stroke-linejoin:round;stroke:rgb(66.27451%,66.27451%,66.27451%);stroke-opacity:1;stroke-miterlimit:10;" d="M 568.292969 265.242188 L 574.066406 266.960938 "/>
<path style="fill:none;stroke-width:0.75;stroke-linecap:round;stroke-linejoin:round;stroke:rgb(66.27451%,66.27451%,66.27451%);stroke-opacity:1;stroke-miterlimit:10;" d="M 165.96875 499.066406 L 156.039062 497.59375 "/>
<path style="fill:none;stroke-width:0.75;stroke-linecap:round;stroke-linejoin:round;stroke:rgb(66.27451%,66.27451%,66.27451%);stroke-opacity:1;stroke-miterlimit:10;" d="M 373.289062 374.859375 L 360.660156 369.304688 "/>
<path style="fill:none;stroke-width:0.75;stroke-linecap:round;stroke-linejoin:round;stroke:rgb(66.27451%,66.27451%,66.27451%);stroke-opacity:1;stroke-miterlimit:10;" d="M 525.597656 533.121094 L 534.4375 544.589844 "/>
<path style="fill:none;stroke-width:0.75;stroke-linecap:round;stroke-linejoin:round;stroke:rgb(66.27451%,66.27451%,66.27451%);stroke-opacity:1;stroke-miterlimit:10;" d="M 555.203125 539.765625 L 541.3125 546.257812 "/>
<path style="fill:none;stroke-width:0.75;stroke-linecap:round;stroke-linejoin:round;stroke:rgb(66.27451%,66.27451%,66.27451%);stroke-opacity:1;stroke-miterlimit:10;" d="M 526.613281 564.054688 L 534.6875 551.953125 "/>
<path style="fill:none;stroke-width:0.75;stroke-linecap:round;stroke-linejoin:round;stroke:rgb(66.27451%,66.27451%,66.27451%);stroke-opacity:1;stroke-miterlimit:10;" d="M 197.070312 357.695312 L 199.75 359.371094 "/>
<path style="fill:none;stroke-width:0.75;stroke-linecap:round;stroke-linejoin:round;stroke:rgb(66.27451%,66.27451%,66.27451%);stroke-opacity:1;stroke-miterlimit:10;" d="M 360.417969 602.855469 L 343.359375 607.6875 "/>
<path style="fill:none;stroke-width:0.75;stroke-linecap:round;stroke-linejoin:round;stroke:rgb(66.27451%,66.27451%,66.27451%);stroke-opacity:1;stroke-miterlimit:10;" d="M 363.167969 599.476562 L 364.394531 582.058594 "/>
<path style="fill:none;stroke-width:0.75;stroke-linecap:round;stroke-linejoin:round;stroke:rgb(66.27451%,66.27451%,66.27451%);stroke-opacity:1;stroke-miterlimit:10;" d="M 365.425781 603.191406 L 379.761719 609.40625 "/>
<path style="fill:none;stroke-width:0.75;stroke-linecap:round;stroke-linejoin:round;stroke:rgb(66.27451%,66.27451%,66.27451%);stroke-opacity:1;stroke-miterlimit:10;" d="M 387.675781 609.394531 L 393.222656 606.972656 "/>
<path style="fill:none;stroke-width:0.75;stroke-linecap:round;stroke-linejoin:round;stroke:rgb(66.27451%,66.27451%,66.27451%);stroke-opacity:1;stroke-miterlimit:10;" d="M 594.789062 268.203125 L 601.855469 266.949219 "/>
<path style="fill:none;stroke-width:0.75;stroke-linecap:round;stroke-linejoin:round;stroke:rgb(66.27451%,66.27451%,66.27451%);stroke-opacity:1;stroke-miterlimit:10;" d="M 436.792969 611.117188 L 447.792969 607.917969 "/>
<path style="fill:none;stroke-width:0.75;stroke-linecap:round;stroke-linejoin:round;stroke:rgb(66.27451%,66.27451%,66.27451%);stroke-opacity:1;stroke-miterlimit:10;" d="M 172.714844 254.476562 L 178.351562 267.496094 "/>
<path style=" stroke:none;fill-rule:nonzero;fill:rgb(3.137255%,81.960784%,81.960784%);fill-opacity:1;" d="M 596.132812 497.699219 C 596.132812 503.214844 587.855469 503.214844 587.855469 497.699219 C 587.855469 492.179688 596.132812 492.179688 596.132812 497.699219 "/>
<path style=" stroke:none;fill-rule:nonzero;fill:rgb(3.137255%,81.960784%,81.960784%);fill-opacity:1;" d="M 612.472656 313.214844 C 612.472656 316.730469 607.199219 316.730469 607.199219 313.214844 C 607.199219 309.699219 612.472656 309.699219 612.472656 313.214844 "/>
<path style=" stroke:none;fill-rule:nonzero;fill:rgb(3.137255%,81.960784%,81.960784%);fill-opacity:1;" d="M 285.394531 116.9375 C 285.394531 121.03125 279.257812 121.03125 279.257812 116.9375 C 279.257812 112.847656 285.394531 112.847656 285.394531 116.9375 "/>
<path style=" stroke:none;fill-rule:nonzero;fill:rgb(3.137255%,81.960784%,81.960784%);fill-opacity:1;" d="M 309.941406 204.53125 L 330.664062 204.53125 L 330.664062 225.253906 L 309.941406 225.253906 Z M 309.941406 204.53125 "/>
<path style=" stroke:none;fill-rule:nonzero;fill:rgb(3.137255%,81.960784%,81.960784%);fill-opacity:1;" d="M 227.125 130.789062 L 247.847656 130.789062 L 247.847656 151.511719 L 227.125 151.511719 Z M 227.125 130.789062 "/>
<path style=" stroke:none;fill-rule:nonzero;fill:rgb(3.137255%,81.960784%,81.960784%);fill-opacity:1;" d="M 374.003906 315.535156 L 394.726562 315.535156 L 394.726562 336.257812 L 374.003906 336.257812 Z M 374.003906 315.535156 "/>
<path style=" stroke:none;fill-rule:nonzero;fill:rgb(3.137255%,81.960784%,81.960784%);fill-opacity:1;" d="M 264.671875 226.300781 C 264.671875 229.980469 259.152344 229.980469 259.152344 226.300781 C 259.152344 222.621094 264.671875 222.621094 264.671875 226.300781 "/>
<path style=" stroke:none;fill-rule:nonzero;fill:rgb(3.137255%,81.960784%,81.960784%);fill-opacity:1;" d="M 225.171875 479.042969 C 225.171875 483.625 218.300781 483.625 218.300781 479.042969 C 218.300781 474.460938 225.171875 474.460938 225.171875 479.042969 "/>
<path style=" stroke:none;fill-rule:nonzero;fill:rgb(3.137255%,81.960784%,81.960784%);fill-opacity:1;" d="M 293.828125 386.464844 C 293.828125 390.078125 288.402344 390.078125 288.402344 386.464844 C 288.402344 382.847656 293.828125 382.847656 293.828125 386.464844 "/>
<path style=" stroke:none;fill-rule:nonzero;fill:rgb(3.137255%,81.960784%,81.960784%);fill-opacity:1;" d="M 209.421875 511.9375 C 209.421875 515.492188 204.089844 515.492188 204.089844 511.9375 C 204.089844 508.378906 209.421875 508.378906 209.421875 511.9375 "/>
<path style=" stroke:none;fill-rule:nonzero;fill:rgb(3.137255%,81.960784%,81.960784%);fill-opacity:1;" d="M 206.96875 405.355469 C 206.96875 408.574219 204.359375 411.179688 201.140625 411.179688 C 197.925781 411.179688 195.316406 408.574219 195.316406 405.355469 C 195.316406 402.136719 197.925781 399.53125 201.140625 399.53125 C 204.359375 399.53125 206.96875 402.136719 206.96875 405.355469 "/>
<path style=" stroke:none;fill-rule:nonzero;fill:rgb(3.137255%,81.960784%,81.960784%);fill-opacity:1;" d="M 367.609375 544.414062 C 367.609375 548.128906 362.035156 548.128906 362.035156 544.414062 C 362.035156 540.699219 367.609375 540.699219 367.609375 544.414062 "/>
<path style=" stroke:none;fill-rule:nonzero;fill:rgb(3.137255%,81.960784%,81.960784%);fill-opacity:1;" d="M 584.128906 422.4375 C 584.128906 426.265625 578.382812 426.265625 578.382812 422.4375 C 578.382812 418.609375 584.128906 418.609375 584.128906 422.4375 "/>
<path style=" stroke:none;fill-rule:nonzero;fill:rgb(3.137255%,81.960784%,81.960784%);fill-opacity:1;" d="M 590.164062 205.367188 C 590.164062 212.324219 579.730469 212.324219 579.730469 205.367188 C 579.730469 198.414062 590.164062 198.414062 590.164062 205.367188 "/>
<path style=" stroke:none;fill-rule:nonzero;fill:rgb(3.137255%,81.960784%,81.960784%);fill-opacity:1;" d="M 629.308594 417.09375 C 629.308594 420.660156 623.957031 420.660156 623.957031 417.09375 C 623.957031 413.527344 629.308594 413.527344 629.308594 417.09375 "/>
<path style=" stroke:none;fill-rule:nonzero;fill:rgb(3.137255%,81.960784%,81.960784%);fill-opacity:1;" d="M 144.402344 460.472656 C 144.402344 463.980469 139.144531 463.980469 139.144531 460.472656 C 139.144531 456.96875 144.402344 456.96875 144.402344 460.472656 "/>
<path style=" stroke:none;fill-rule:nonzero;fill:rgb(3.137255%,81.960784%,81.960784%);fill-opacity:1;" d="M 504.949219 227.160156 C 504.949219 230.664062 499.695312 230.664062 499.695312 227.160156 C 499.695312 223.660156 504.949219 223.660156 504.949219 227.160156 "/>
<path style=" stroke:none;fill-rule:nonzero;fill:rgb(3.137255%,81.960784%,81.960784%);fill-opacity:1;" d="M 224.128906 191.117188 C 224.128906 194.957031 221.011719 198.070312 217.171875 198.070312 C 213.332031 198.070312 210.21875 194.957031 210.21875 191.117188 C 210.21875 187.277344 213.332031 184.160156 217.171875 184.160156 C 221.011719 184.160156 224.128906 187.277344 224.128906 191.117188 "/>
<path style=" stroke:none;fill-rule:nonzero;fill:rgb(3.137255%,81.960784%,81.960784%);fill-opacity:1;" d="M 255.960938 173.457031 C 255.960938 177.25 250.273438 177.25 250.273438 173.457031 C 250.273438 169.667969 255.960938 169.667969 255.960938 173.457031 "/>
<path style=" stroke:none;fill-rule:nonzero;fill:rgb(3.137255%,81.960784%,81.960784%);fill-opacity:1;" d="M 623.238281 278.785156 C 623.238281 282.347656 617.898438 282.347656 617.898438 278.785156 C 617.898438 275.226562 623.238281 275.226562 623.238281 278.785156 "/>
<path style=" stroke:none;fill-rule:nonzero;fill:rgb(3.137255%,81.960784%,81.960784%);fill-opacity:1;" d="M 419.351562 125.542969 C 419.351562 129.015625 414.144531 129.015625 414.144531 125.542969 C 414.144531 122.074219 419.351562 122.074219 419.351562 125.542969 "/>
<path style=" stroke:none;fill-rule:nonzero;fill:rgb(3.137255%,81.960784%,81.960784%);fill-opacity:1;" d="M 245.3125 447.542969 C 245.3125 450.734375 242.726562 453.324219 239.535156 453.324219 C 236.34375 453.324219 233.757812 450.734375 233.757812 447.542969 C 233.757812 444.355469 236.34375 441.765625 239.535156 441.765625 C 242.726562 441.765625 245.3125 444.355469 245.3125 447.542969 "/>
<path style=" stroke:none;fill-rule:nonzero;fill:rgb(18.039216%,73.72549%,50.980392%);fill-opacity:1;" d="M 233.761719 205.601562 C 233.761719 210.027344 227.125 210.027344 227.125 205.601562 C 227.125 201.175781 233.761719 201.175781 233.761719 205.601562 "/>
<path style=" stroke:none;fill-rule:nonzero;fill:rgb(18.039216%,56.862745%,73.72549%);fill-opacity:1;" d="M 299.3125 520.796875 C 299.3125 524.40625 293.898438 524.40625 293.898438 520.796875 C 293.898438 517.183594 299.3125 517.183594 299.3125 520.796875 "/>
<path style=" stroke:none;fill-rule:nonzero;fill:rgb(18.039216%,35.294118%,73.72549%);fill-opacity:1;" d="M 604.878906 348.929688 C 604.878906 352.433594 599.621094 352.433594 599.621094 348.929688 C 599.621094 345.425781 604.878906 345.425781 604.878906 348.929688 "/>
<path style=" stroke:none;fill-rule:nonzero;fill:rgb(18.039216%,35.294118%,73.72549%);fill-opacity:1;" d="M 144.464844 321.496094 C 144.464844 325.6875 138.179688 325.6875 138.179688 321.496094 C 138.179688 317.308594 144.464844 317.308594 144.464844 321.496094 "/>
<path style=" stroke:none;fill-rule:nonzero;fill:rgb(18.039216%,35.294118%,73.72549%);fill-opacity:1;" d="M 404.714844 238.347656 C 404.714844 242.789062 398.054688 242.789062 398.054688 238.347656 C 398.054688 233.90625 404.714844 233.90625 404.714844 238.347656 "/>
<path style=" stroke:none;fill-rule:nonzero;fill:rgb(18.039216%,35.294118%,73.72549%);fill-opacity:1;" d="M 132.976562 285.945312 C 132.976562 289.421875 127.761719 289.421875 127.761719 285.945312 C 127.761719 282.464844 132.976562 282.464844 132.976562 285.945312 "/>
<path style=" stroke:none;fill-rule:nonzero;fill:rgb(18.039216%,35.294118%,73.72549%);fill-opacity:1;" d="M 164.847656 352.183594 C 164.847656 358.074219 160.074219 362.847656 154.183594 362.847656 C 148.292969 362.847656 143.515625 358.074219 143.515625 352.183594 C 143.515625 346.292969 148.292969 341.515625 154.183594 341.515625 C 160.074219 341.515625 164.847656 346.292969 164.847656 352.183594 "/>
<path style=" stroke:none;fill-rule:nonzero;fill:rgb(18.039216%,35.294118%,73.72549%);fill-opacity:1;" d="M 404.730469 532.945312 C 404.730469 536.441406 399.488281 536.441406 399.488281 532.945312 C 399.488281 529.449219 404.730469 529.449219 404.730469 532.945312 "/>
<path style=" stroke:none;fill-rule:nonzero;fill:rgb(18.039216%,35.294118%,73.72549%);fill-opacity:1;" d="M 394.535156 515.519531 C 394.535156 519.09375 389.171875 519.09375 389.171875 515.519531 C 389.171875 511.945312 394.535156 511.945312 394.535156 515.519531 "/>
<path style=" stroke:none;fill-rule:nonzero;fill:rgb(18.039216%,35.294118%,73.72549%);fill-opacity:1;" d="M 554.875 444.683594 C 554.875 448.601562 548.992188 448.601562 548.992188 444.683594 C 548.992188 440.761719 554.875 440.761719 554.875 444.683594 "/>
<path style=" stroke:none;fill-rule:nonzero;fill:rgb(18.039216%,35.294118%,73.72549%);fill-opacity:1;" d="M 349.339844 137.507812 C 349.339844 140.945312 346.550781 143.734375 343.113281 143.734375 C 339.671875 143.734375 336.886719 140.945312 336.886719 137.507812 C 336.886719 134.066406 339.671875 131.277344 343.113281 131.277344 C 346.550781 131.277344 349.339844 134.066406 349.339844 137.507812 "/>
<path style=" stroke:none;fill-rule:nonzero;fill:rgb(18.039216%,35.294118%,73.72549%);fill-opacity:1;" d="M 321.921875 605.546875 C 321.921875 609.027344 316.707031 609.027344 316.707031 605.546875 C 316.707031 602.070312 321.921875 602.070312 321.921875 605.546875 "/>
<path style=" stroke:none;fill-rule:nonzero;fill:rgb(18.039216%,35.294118%,73.72549%);fill-opacity:1;" d="M 288.410156 158.730469 C 288.410156 163.53125 281.203125 163.53125 281.203125 158.730469 C 281.203125 153.925781 288.410156 153.925781 288.410156 158.730469 "/>
<path style=" stroke:none;fill-rule:nonzero;fill:rgb(18.039216%,35.294118%,73.72549%);fill-opacity:1;" d="M 277.101562 466.386719 C 277.101562 470.148438 271.460938 470.148438 271.460938 466.386719 C 271.460938 462.625 277.101562 462.625 277.101562 466.386719 "/>
<path style=" stroke:none;fill-rule:nonzero;fill:rgb(18.039216%,35.294118%,73.72549%);fill-opacity:1;" d="M 222.925781 285.695312 C 222.925781 289.175781 217.703125 289.175781 217.703125 285.695312 C 217.703125 282.214844 222.925781 282.214844 222.925781 285.695312 "/>
<path style=" stroke:none;fill-rule:nonzero;fill:rgb(18.039216%,35.294118%,73.72549%);fill-opacity:1;" d="M 288.277344 198.027344 C 288.277344 202.316406 281.847656 202.316406 281.847656 198.027344 C 281.847656 193.742188 288.277344 193.742188 288.277344 198.027344 "/>
<path style=" stroke:none;fill-rule:nonzero;fill:rgb(3.529412%,80.784314%,55.294118%);fill-opacity:1;" d="M 216.695312 318.175781 C 216.695312 322.621094 213.09375 326.222656 208.648438 326.222656 C 204.207031 326.222656 200.601562 322.621094 200.601562 318.175781 C 200.601562 313.734375 204.207031 310.132812 208.648438 310.132812 C 213.09375 310.132812 216.695312 313.734375 216.695312 318.175781 "/>
<path style=" stroke:none;fill-rule:nonzero;fill:rgb(87.843137%,65.098039%,3.137255%);fill-opacity:1;" d="M 346.640625 465.355469 C 346.640625 469.148438 340.953125 469.148438 340.953125 465.355469 C 340.953125 461.566406 346.640625 461.566406 346.640625 465.355469 "/>
<path style=" stroke:none;fill-rule:nonzero;fill:rgb(3.529412%,44.705882%,39.607843%);fill-opacity:1;" d="M 242.695312 571.121094 C 242.695312 574.808594 239.707031 577.796875 236.023438 577.796875 C 232.335938 577.796875 229.347656 574.808594 229.347656 571.121094 C 229.347656 567.4375 232.335938 564.449219 236.023438 564.449219 C 239.707031 564.449219 242.695312 567.4375 242.695312 571.121094 "/>
<path style=" stroke:none;fill-rule:nonzero;fill:rgb(3.529412%,44.705882%,39.607843%);fill-opacity:1;" d="M 636.796875 372.15625 C 636.796875 377.183594 629.253906 377.183594 629.253906 372.15625 C 629.253906 367.128906 636.796875 367.128906 636.796875 372.15625 "/>
<path style=" stroke:none;fill-rule:nonzero;fill:rgb(3.529412%,44.705882%,39.607843%);fill-opacity:1;" d="M 421.28125 568.628906 C 421.28125 572.144531 416.007812 572.144531 416.007812 568.628906 C 416.007812 565.117188 421.28125 565.117188 421.28125 568.628906 "/>
<path style=" stroke:none;fill-rule:nonzero;fill:rgb(3.529412%,44.705882%,39.607843%);fill-opacity:1;" d="M 194.933594 548.289062 L 215.65625 548.289062 L 215.65625 569.011719 L 194.933594 569.011719 Z M 194.933594 548.289062 "/>
<path style=" stroke:none;fill-rule:nonzero;fill:rgb(67.058824%,33.72549%,84.705882%);fill-opacity:1;" d="M 211.164062 237.839844 L 231.886719 237.839844 L 231.886719 258.5625 L 211.164062 258.5625 Z M 211.164062 237.839844 "/>
<path style=" stroke:none;fill-rule:nonzero;fill:rgb(67.058824%,33.72549%,84.705882%);fill-opacity:1;" d="M 349.855469 262.746094 C 349.855469 266.386719 344.398438 266.386719 344.398438 262.746094 C 344.398438 259.105469 349.855469 259.105469 349.855469 262.746094 "/>
<path style=" stroke:none;fill-rule:nonzero;fill:rgb(67.058824%,33.72549%,84.705882%);fill-opacity:1;" d="M 496.015625 589.867188 C 496.015625 593.347656 490.792969 593.347656 490.792969 589.867188 C 490.792969 586.382812 496.015625 586.382812 496.015625 589.867188 "/>
<path style=" stroke:none;fill-rule:nonzero;fill:rgb(67.058824%,33.72549%,84.705882%);fill-opacity:1;" d="M 562.070312 346.640625 C 562.070312 350.550781 556.207031 350.550781 556.207031 346.640625 C 556.207031 342.730469 562.070312 342.730469 562.070312 346.640625 "/>
<path style=" stroke:none;fill-rule:nonzero;fill:rgb(67.058824%,33.72549%,84.705882%);fill-opacity:1;" d="M 468.257812 110.96875 C 468.257812 115.003906 462.210938 115.003906 462.210938 110.96875 C 462.210938 106.9375 468.257812 106.9375 468.257812 110.96875 "/>
<path style=" stroke:none;fill-rule:nonzero;fill:rgb(67.058824%,33.72549%,84.705882%);fill-opacity:1;" d="M 266.257812 303.128906 C 266.257812 306.871094 260.640625 306.871094 260.640625 303.128906 C 260.640625 299.382812 266.257812 299.382812 266.257812 303.128906 "/>
<path style=" stroke:none;fill-rule:nonzero;fill:rgb(3.921569%,62.745098%,12.156863%);fill-opacity:1;" d="M 257.59375 265.40625 C 257.59375 268.96875 252.25 268.96875 252.25 265.40625 C 252.25 261.84375 257.59375 261.84375 257.59375 265.40625 "/>
<path style=" stroke:none;fill-rule:nonzero;fill:rgb(3.921569%,62.745098%,12.156863%);fill-opacity:1;" d="M 312.332031 126.625 C 312.332031 130.121094 307.085938 130.121094 307.085938 126.625 C 307.085938 123.128906 312.332031 123.128906 312.332031 126.625 "/>
<path style=" stroke:none;fill-rule:nonzero;fill:rgb(3.921569%,62.745098%,12.156863%);fill-opacity:1;" d="M 114.492188 369.84375 L 135.214844 369.84375 L 135.214844 390.566406 L 114.492188 390.566406 Z M 114.492188 369.84375 "/>
<path style=" stroke:none;fill-rule:nonzero;fill:rgb(3.921569%,62.745098%,12.156863%);fill-opacity:1;" d="M 523.257812 235.746094 L 543.980469 235.746094 L 543.980469 256.46875 L 523.257812 256.46875 Z M 523.257812 235.746094 "/>
<path style=" stroke:none;fill-rule:nonzero;fill:rgb(3.921569%,62.745098%,12.156863%);fill-opacity:1;" d="M 610.789062 391.296875 C 610.789062 394.4375 608.242188 396.980469 605.105469 396.980469 C 601.964844 396.980469 599.421875 394.4375 599.421875 391.296875 C 599.421875 388.160156 601.964844 385.613281 605.105469 385.613281 C 608.242188 385.613281 610.789062 388.160156 610.789062 391.296875 "/>
<path style=" stroke:none;fill-rule:nonzero;fill:rgb(3.921569%,62.745098%,12.156863%);fill-opacity:1;" d="M 357.722656 152.859375 C 357.722656 156.335938 352.503906 156.335938 352.503906 152.859375 C 352.503906 149.378906 357.722656 149.378906 357.722656 152.859375 "/>
<path style=" stroke:none;fill-rule:nonzero;fill:rgb(3.921569%,62.745098%,12.156863%);fill-opacity:1;" d="M 340.570312 358.441406 C 340.570312 363.101562 333.585938 363.101562 333.585938 358.441406 C 333.585938 353.785156 340.570312 353.785156 340.570312 358.441406 "/>
<path style=" stroke:none;fill-rule:nonzero;fill:rgb(3.921569%,62.745098%,12.156863%);fill-opacity:1;" d="M 327.417969 409.566406 C 327.417969 413.222656 321.929688 413.222656 321.929688 409.566406 C 321.929688 405.910156 327.417969 405.910156 327.417969 409.566406 "/>
<path style=" stroke:none;fill-rule:nonzero;fill:rgb(3.921569%,62.745098%,12.156863%);fill-opacity:1;" d="M 193.730469 149.460938 L 214.453125 149.460938 L 214.453125 170.183594 L 193.730469 170.183594 Z M 193.730469 149.460938 "/>
<path style=" stroke:none;fill-rule:nonzero;fill:rgb(3.921569%,62.745098%,12.156863%);fill-opacity:1;" d="M 547.460938 488.222656 L 568.183594 488.222656 L 568.183594 508.945312 L 547.460938 508.945312 Z M 547.460938 488.222656 "/>
<path style=" stroke:none;fill-rule:nonzero;fill:rgb(3.921569%,62.745098%,12.156863%);fill-opacity:1;" d="M 384.242188 462.148438 C 384.242188 465.710938 378.898438 465.710938 378.898438 462.148438 C 378.898438 458.585938 384.242188 458.585938 384.242188 462.148438 "/>
<path style=" stroke:none;fill-rule:nonzero;fill:rgb(3.921569%,62.745098%,12.156863%);fill-opacity:1;" d="M 300.820312 247.863281 C 300.820312 253.1875 292.828125 253.1875 292.828125 247.863281 C 292.828125 242.535156 300.820312 242.535156 300.820312 247.863281 "/>
<path style=" stroke:none;fill-rule:nonzero;fill:rgb(3.921569%,62.745098%,12.156863%);fill-opacity:1;" d="M 508.480469 134.007812 C 508.480469 137.523438 503.207031 137.523438 503.207031 134.007812 C 503.207031 130.488281 508.480469 130.488281 508.480469 134.007812 "/>
<path style=" stroke:none;fill-rule:nonzero;fill:rgb(3.921569%,62.745098%,12.156863%);fill-opacity:1;" d="M 445.722656 539.746094 C 445.722656 543.390625 440.257812 543.390625 440.257812 539.746094 C 440.257812 536.101562 445.722656 536.101562 445.722656 539.746094 "/>
<path style=" stroke:none;fill-rule:nonzero;fill:rgb(3.921569%,62.745098%,12.156863%);fill-opacity:1;" d="M 171.128906 424.460938 C 171.128906 427.996094 165.824219 427.996094 165.824219 424.460938 C 165.824219 420.925781 171.128906 420.925781 171.128906 424.460938 "/>
<path style=" stroke:none;fill-rule:nonzero;fill:rgb(3.921569%,62.745098%,12.156863%);fill-opacity:1;" d="M 136.640625 429.777344 C 136.640625 435.277344 132.183594 439.734375 126.6875 439.734375 C 121.1875 439.734375 116.730469 435.277344 116.730469 429.777344 C 116.730469 424.28125 121.1875 419.820312 126.6875 419.820312 C 132.183594 419.820312 136.640625 424.28125 136.640625 429.777344 "/>
<path style=" stroke:none;fill-rule:nonzero;fill:rgb(3.921569%,62.745098%,12.156863%);fill-opacity:1;" d="M 423.960938 226.453125 C 423.960938 229.84375 421.210938 232.59375 417.820312 232.59375 C 414.429688 232.59375 411.679688 229.84375 411.679688 226.453125 C 411.679688 223.0625 414.429688 220.3125 417.820312 220.3125 C 421.210938 220.3125 423.960938 223.0625 423.960938 226.453125 "/>
<path style=" stroke:none;fill-rule:nonzero;fill:rgb(3.921569%,62.745098%,12.156863%);fill-opacity:1;" d="M 568.40625 264.457031 C 568.40625 268.132812 562.894531 268.132812 562.894531 264.457031 C 562.894531 260.785156 568.40625 260.785156 568.40625 264.457031 "/>
<path style=" stroke:none;fill-rule:nonzero;fill:rgb(3.921569%,62.745098%,12.156863%);fill-opacity:1;" d="M 486.539062 440.472656 C 486.539062 443.925781 481.359375 443.925781 481.359375 440.472656 C 481.359375 437.015625 486.539062 437.015625 486.539062 440.472656 "/>
<path style=" stroke:none;fill-rule:nonzero;fill:rgb(3.921569%,62.745098%,12.156863%);fill-opacity:1;" d="M 417.808594 440.261719 C 417.808594 444.144531 411.980469 444.144531 411.980469 440.261719 C 411.980469 436.375 417.808594 436.375 417.808594 440.261719 "/>
<path style=" stroke:none;fill-rule:nonzero;fill:rgb(3.921569%,62.745098%,12.156863%);fill-opacity:1;" d="M 618.988281 434.792969 C 618.988281 438.507812 613.421875 438.507812 613.421875 434.792969 C 613.421875 431.082031 618.988281 431.082031 618.988281 434.792969 "/>
<path style=" stroke:none;fill-rule:nonzero;fill:rgb(3.921569%,62.745098%,12.156863%);fill-opacity:1;" d="M 344.265625 309.089844 C 344.265625 312.863281 338.605469 312.863281 338.605469 309.089844 C 338.605469 305.3125 344.265625 305.3125 344.265625 309.089844 "/>
<path style=" stroke:none;fill-rule:nonzero;fill:rgb(3.921569%,62.745098%,12.156863%);fill-opacity:1;" d="M 177.613281 499.925781 C 177.613281 503.15625 174.992188 505.777344 171.757812 505.777344 C 168.527344 505.777344 165.90625 503.15625 165.90625 499.925781 C 165.90625 496.695312 168.527344 494.074219 171.757812 494.074219 C 174.992188 494.074219 177.613281 496.695312 177.613281 499.925781 "/>
<path style=" stroke:none;fill-rule:nonzero;fill:rgb(3.921569%,62.745098%,12.156863%);fill-opacity:1;" d="M 426.164062 320.976562 C 426.164062 324.65625 420.644531 324.65625 420.644531 320.976562 C 420.644531 317.296875 426.164062 317.296875 426.164062 320.976562 "/>
<path style=" stroke:none;fill-rule:nonzero;fill:rgb(3.921569%,62.745098%,12.156863%);fill-opacity:1;" d="M 379.597656 376.1875 C 379.597656 380.578125 373.011719 380.578125 373.011719 376.1875 C 373.011719 371.796875 379.597656 371.796875 379.597656 376.1875 "/>
<path style=" stroke:none;fill-rule:nonzero;fill:rgb(3.921569%,62.745098%,12.156863%);fill-opacity:1;" d="M 525.101562 461.363281 C 525.101562 465.5625 518.804688 465.5625 518.804688 461.363281 C 518.804688 457.167969 525.101562 457.167969 525.101562 461.363281 "/>
<path style=" stroke:none;fill-rule:nonzero;fill:rgb(3.921569%,62.745098%,12.156863%);fill-opacity:1;" d="M 526.625 531.035156 C 526.625 534.542969 521.359375 534.542969 521.359375 531.035156 C 521.359375 527.523438 526.625 527.523438 526.625 531.035156 "/>
<path style=" stroke:none;fill-rule:nonzero;fill:rgb(3.921569%,62.745098%,12.156863%);fill-opacity:1;" d="M 561.355469 538.398438 C 561.355469 542.703125 554.898438 542.703125 554.898438 538.398438 C 554.898438 534.09375 561.355469 534.09375 561.355469 538.398438 "/>
<path style=" stroke:none;fill-rule:nonzero;fill:rgb(3.921569%,62.745098%,12.156863%);fill-opacity:1;" d="M 159.492188 216.109375 C 159.492188 219.789062 153.976562 219.789062 153.976562 216.109375 C 153.976562 212.433594 159.492188 212.433594 159.492188 216.109375 "/>
<path style=" stroke:none;fill-rule:nonzero;fill:rgb(3.921569%,62.745098%,12.156863%);fill-opacity:1;" d="M 527.882812 566.429688 C 527.882812 570.234375 522.171875 570.234375 522.171875 566.429688 C 522.171875 562.621094 527.882812 562.621094 527.882812 566.429688 "/>
<path style=" stroke:none;fill-rule:nonzero;fill:rgb(3.921569%,62.745098%,12.156863%);fill-opacity:1;" d="M 443.503906 185.53125 C 443.503906 188.703125 440.933594 191.277344 437.761719 191.277344 C 434.589844 191.277344 432.015625 188.703125 432.015625 185.53125 C 432.015625 182.359375 434.589844 179.789062 437.761719 179.789062 C 440.933594 179.789062 443.503906 182.359375 443.503906 185.53125 "/>
<path style=" stroke:none;fill-rule:nonzero;fill:rgb(3.921569%,62.745098%,12.156863%);fill-opacity:1;" d="M 197.691406 355.527344 C 197.691406 360.988281 189.5 360.988281 189.5 355.527344 C 189.5 350.066406 197.691406 350.066406 197.691406 355.527344 "/>
<path style=" stroke:none;fill-rule:nonzero;fill:rgb(3.921569%,62.745098%,12.156863%);fill-opacity:1;" d="M 361.0625 367.382812 C 361.0625 373.75 351.507812 373.75 351.507812 367.382812 C 351.507812 361.011719 361.0625 361.011719 361.0625 367.382812 "/>
<path style=" stroke:none;fill-rule:nonzero;fill:rgb(3.921569%,62.745098%,12.156863%);fill-opacity:1;" d="M 365.644531 602.132812 C 365.644531 605.683594 360.316406 605.683594 360.316406 602.132812 C 360.316406 598.582031 365.644531 598.582031 365.644531 602.132812 "/>
<path style=" stroke:none;fill-rule:nonzero;fill:rgb(3.921569%,62.745098%,12.156863%);fill-opacity:1;" d="M 343.460938 608.425781 C 343.460938 612.054688 338.023438 612.054688 338.023438 608.425781 C 338.023438 604.800781 343.460938 604.800781 343.460938 608.425781 "/>
<path style=" stroke:none;fill-rule:nonzero;fill:rgb(3.921569%,62.745098%,12.156863%);fill-opacity:1;" d="M 313.871094 87.210938 L 334.59375 87.210938 L 334.59375 107.933594 L 313.871094 107.933594 Z M 313.871094 87.210938 "/>
<path style=" stroke:none;fill-rule:nonzero;fill:rgb(3.921569%,62.745098%,12.156863%);fill-opacity:1;" d="M 182.03125 188.53125 C 182.03125 192.183594 176.550781 192.183594 176.550781 188.53125 C 176.550781 184.878906 182.03125 184.878906 182.03125 188.53125 "/>
<path style=" stroke:none;fill-rule:nonzero;fill:rgb(3.921569%,62.745098%,12.156863%);fill-opacity:1;" d="M 239.453125 532.871094 C 239.453125 536.96875 233.308594 536.96875 233.308594 532.871094 C 233.308594 528.773438 239.453125 528.773438 239.453125 532.871094 "/>
<path style=" stroke:none;fill-rule:nonzero;fill:rgb(3.921569%,62.745098%,12.156863%);fill-opacity:1;" d="M 355.570312 190.585938 C 355.570312 194.792969 349.257812 194.792969 349.257812 190.585938 C 349.257812 186.375 355.570312 186.375 355.570312 190.585938 "/>
<path style=" stroke:none;fill-rule:nonzero;fill:rgb(3.921569%,62.745098%,12.156863%);fill-opacity:1;" d="M 471.164062 210.175781 C 471.164062 213.804688 465.71875 213.804688 465.71875 210.175781 C 465.71875 206.546875 471.164062 206.546875 471.164062 210.175781 "/>
<path style=" stroke:none;fill-rule:nonzero;fill:rgb(3.921569%,62.745098%,12.156863%);fill-opacity:1;" d="M 367.308594 579.339844 C 367.308594 582.976562 361.859375 582.976562 361.859375 579.339844 C 361.859375 575.707031 367.308594 575.707031 367.308594 579.339844 "/>
<path style=" stroke:none;fill-rule:nonzero;fill:rgb(3.921569%,62.745098%,12.156863%);fill-opacity:1;" d="M 388.039062 611.125 C 388.039062 616.878906 379.40625 616.878906 379.40625 611.125 C 379.40625 605.371094 388.039062 605.371094 388.039062 611.125 "/>
<path style=" stroke:none;fill-rule:nonzero;fill:rgb(3.921569%,62.745098%,12.156863%);fill-opacity:1;" d="M 141.5625 250.917969 C 141.5625 254.601562 136.039062 254.601562 136.039062 250.917969 C 136.039062 247.234375 141.5625 247.234375 141.5625 250.917969 "/>
<path style=" stroke:none;fill-rule:nonzero;fill:rgb(3.921569%,62.745098%,12.156863%);fill-opacity:1;" d="M 574.066406 259.679688 L 594.789062 259.679688 L 594.789062 280.402344 L 574.066406 280.402344 Z M 574.066406 259.679688 "/>
<path style=" stroke:none;fill-rule:nonzero;fill:rgb(3.921569%,62.745098%,12.156863%);fill-opacity:1;" d="M 405.902344 163.316406 C 405.902344 167.652344 399.394531 167.652344 399.394531 163.316406 C 399.394531 158.976562 405.902344 158.976562 405.902344 163.316406 "/>
<path style=" stroke:none;fill-rule:nonzero;fill:rgb(3.921569%,62.745098%,12.156863%);fill-opacity:1;" d="M 529.308594 201.460938 C 529.308594 205.125 523.816406 205.125 523.816406 201.460938 C 523.816406 197.800781 529.308594 197.800781 529.308594 201.460938 "/>
<path style=" stroke:none;fill-rule:nonzero;fill:rgb(3.921569%,62.745098%,12.156863%);fill-opacity:1;" d="M 241.121094 407.195312 C 241.121094 411.167969 235.15625 411.167969 235.15625 407.195312 C 235.15625 403.21875 241.121094 403.21875 241.121094 407.195312 "/>
<path style=" stroke:none;fill-rule:nonzero;fill:rgb(3.921569%,62.745098%,12.156863%);fill-opacity:1;" d="M 552.894531 399.945312 C 552.894531 403.421875 547.679688 403.421875 547.679688 399.945312 C 547.679688 396.46875 552.894531 396.46875 552.894531 399.945312 "/>
<path style=" stroke:none;fill-rule:nonzero;fill:rgb(3.921569%,62.745098%,12.156863%);fill-opacity:1;" d="M 183.425781 463.507812 C 183.425781 467.003906 180.589844 469.839844 177.09375 469.839844 C 173.597656 469.839844 170.765625 467.003906 170.765625 463.507812 C 170.765625 460.011719 173.597656 457.175781 177.09375 457.175781 C 180.589844 457.175781 183.425781 460.011719 183.425781 463.507812 "/>
<path style=" stroke:none;fill-rule:nonzero;fill:rgb(3.921569%,62.745098%,12.156863%);fill-opacity:1;" d="M 178.503906 308.042969 C 178.503906 311.566406 173.222656 311.566406 173.222656 308.042969 C 173.222656 304.519531 178.503906 304.519531 178.503906 308.042969 "/>
<path style=" stroke:none;fill-rule:nonzero;fill:rgb(3.921569%,62.745098%,12.156863%);fill-opacity:1;" d="M 402.460938 93.753906 C 402.460938 98.507812 398.605469 102.359375 393.851562 102.359375 C 389.097656 102.359375 385.246094 98.507812 385.246094 93.753906 C 385.246094 89 389.097656 85.144531 393.851562 85.144531 C 398.605469 85.144531 402.460938 89 402.460938 93.753906 "/>
<path style=" stroke:none;fill-rule:nonzero;fill:rgb(3.921569%,62.745098%,12.156863%);fill-opacity:1;" d="M 309.890625 488.183594 C 309.890625 491.777344 304.5 491.777344 304.5 488.183594 C 304.5 484.589844 309.890625 484.589844 309.890625 488.183594 "/>
<path style=" stroke:none;fill-rule:nonzero;fill:rgb(3.921569%,62.745098%,12.156863%);fill-opacity:1;" d="M 266.449219 595.851562 C 266.449219 599.832031 263.222656 603.0625 259.242188 603.0625 C 255.257812 603.0625 252.03125 599.832031 252.03125 595.851562 C 252.03125 591.871094 255.257812 588.640625 259.242188 588.640625 C 263.222656 588.640625 266.449219 591.871094 266.449219 595.851562 "/>
<path style=" stroke:none;fill-rule:nonzero;fill:rgb(3.921569%,62.745098%,12.156863%);fill-opacity:1;" d="M 436.894531 611.847656 C 436.894531 615.34375 431.648438 615.34375 431.648438 611.847656 C 431.648438 608.351562 436.894531 608.351562 436.894531 611.847656 "/>
<path style=" stroke:none;fill-rule:nonzero;fill:rgb(3.921569%,62.745098%,12.156863%);fill-opacity:1;" d="M 525.96875 142.273438 C 525.96875 145.761719 520.738281 145.761719 520.738281 142.273438 C 520.738281 138.785156 525.96875 138.785156 525.96875 142.273438 "/>
<path style=" stroke:none;fill-rule:nonzero;fill:rgb(3.921569%,62.745098%,12.156863%);fill-opacity:1;" d="M 423.320312 276.707031 C 423.320312 281.882812 415.554688 281.882812 415.554688 276.707031 C 415.554688 271.527344 423.320312 271.527344 423.320312 276.707031 "/>
<path style=" stroke:none;fill-rule:nonzero;fill:rgb(3.921569%,62.745098%,12.156863%);fill-opacity:1;" d="M 319.367188 171.386719 C 319.367188 175.171875 313.691406 175.171875 313.691406 171.386719 C 313.691406 167.605469 319.367188 167.605469 319.367188 171.386719 "/>
<path style=" stroke:none;fill-rule:nonzero;fill:rgb(15.294118%,28.627451%,27.058824%);fill-opacity:1;" d="M 394.535156 194.398438 C 394.535156 198.007812 389.125 198.007812 389.125 194.398438 C 389.125 190.792969 394.535156 190.792969 394.535156 194.398438 "/>
<path style=" stroke:none;fill-rule:nonzero;fill:rgb(15.294118%,28.627451%,27.058824%);fill-opacity:1;" d="M 458.4375 606.402344 C 458.4375 609.402344 456.007812 611.832031 453.007812 611.832031 C 450.007812 611.832031 447.578125 609.402344 447.578125 606.402344 C 447.578125 603.402344 450.007812 600.972656 453.007812 600.972656 C 456.007812 600.972656 458.4375 603.402344 458.4375 606.402344 "/>
<path style=" stroke:none;fill-rule:nonzero;fill:rgb(15.294118%,28.627451%,27.058824%);fill-opacity:1;" d="M 174.328125 252.019531 C 174.328125 255.589844 168.96875 255.589844 168.96875 252.019531 C 168.96875 248.445312 174.328125 248.445312 174.328125 252.019531 "/>
<path style=" stroke:none;fill-rule:nonzero;fill:rgb(15.294118%,28.627451%,27.058824%);fill-opacity:1;" d="M 118.449219 350.09375 C 118.449219 354.21875 112.257812 354.21875 112.257812 350.09375 C 112.257812 345.964844 118.449219 345.964844 118.449219 350.09375 "/>
<path style=" stroke:none;fill-rule:nonzero;fill:rgb(15.294118%,28.627451%,27.058824%);fill-opacity:1;" d="M 277.210938 423.359375 C 277.210938 426.890625 271.910156 426.890625 271.910156 423.359375 C 271.910156 419.824219 277.210938 419.824219 277.210938 423.359375 "/>
<path style=" stroke:none;fill-rule:nonzero;fill:rgb(15.294118%,28.627451%,27.058824%);fill-opacity:1;" d="M 205.359375 443.394531 C 205.359375 446.902344 200.09375 446.902344 200.09375 443.394531 C 200.09375 439.886719 205.359375 439.886719 205.359375 443.394531 "/>
<path style=" stroke:none;fill-rule:nonzero;fill:rgb(30.588235%,22.352941%,47.843137%);fill-opacity:1;" d="M 559.15625 172.644531 C 559.15625 176.214844 553.804688 176.214844 553.804688 172.644531 C 553.804688 169.078125 559.15625 169.078125 559.15625 172.644531 "/>
<path style=" stroke:none;fill-rule:nonzero;fill:rgb(70.196078%,14.901961%,35.686275%);fill-opacity:1;" d="M 368.078125 423.632812 C 368.078125 427.617188 362.101562 427.617188 362.101562 423.632812 C 362.101562 419.648438 368.078125 419.648438 368.078125 423.632812 "/>
<path style=" stroke:none;fill-rule:nonzero;fill:rgb(18.039216%,73.72549%,27.058824%);fill-opacity:1;" d="M 518.902344 173.460938 C 518.902344 177.007812 513.582031 177.007812 513.582031 173.460938 C 513.582031 169.917969 518.902344 169.917969 518.902344 173.460938 "/>
<path style=" stroke:none;fill-rule:nonzero;fill:rgb(18.039216%,73.72549%,27.058824%);fill-opacity:1;" d="M 605.402344 479.632812 C 605.402344 483.128906 600.160156 483.128906 600.160156 479.632812 C 600.160156 476.136719 605.402344 476.136719 605.402344 479.632812 "/>
<path style=" stroke:none;fill-rule:nonzero;fill:rgb(18.039216%,73.72549%,27.058824%);fill-opacity:1;" d="M 486.488281 290.804688 L 507.210938 290.804688 L 507.210938 311.527344 L 486.488281 311.527344 Z M 486.488281 290.804688 "/>
<path style=" stroke:none;fill-rule:nonzero;fill:rgb(18.039216%,73.72549%,27.058824%);fill-opacity:1;" d="M 576.371094 312.835938 C 576.371094 316.554688 570.796875 316.554688 570.796875 312.835938 C 570.796875 309.117188 576.371094 309.117188 576.371094 312.835938 "/>
<path style=" stroke:none;fill-rule:nonzero;fill:rgb(18.039216%,73.72549%,27.058824%);fill-opacity:1;" d="M 537.710938 320.347656 C 537.710938 323.960938 532.289062 323.960938 532.289062 320.347656 C 532.289062 316.734375 537.710938 316.734375 537.710938 320.347656 "/>
<path style=" stroke:none;fill-rule:nonzero;fill:rgb(18.039216%,73.72549%,27.058824%);fill-opacity:1;" d="M 636.878906 333.578125 C 636.878906 338.152344 630.015625 338.152344 630.015625 333.578125 C 630.015625 329.003906 636.878906 329.003906 636.878906 333.578125 "/>
<path style=" stroke:none;fill-rule:nonzero;fill:rgb(18.039216%,73.72549%,27.058824%);fill-opacity:1;" d="M 515.140625 344.347656 C 515.140625 351.503906 509.339844 357.300781 502.1875 357.300781 C 495.035156 357.300781 489.234375 351.503906 489.234375 344.347656 C 489.234375 337.195312 495.035156 331.394531 502.1875 331.394531 C 509.339844 331.394531 515.140625 337.195312 515.140625 344.347656 "/>
<path style=" stroke:none;fill-rule:nonzero;fill:rgb(18.039216%,73.72549%,27.058824%);fill-opacity:1;" d="M 530.632812 371.058594 C 530.632812 376.363281 522.671875 376.363281 522.671875 371.058594 C 522.671875 365.75 530.632812 365.75 530.632812 371.058594 "/>
<path style=" stroke:none;fill-rule:nonzero;fill:rgb(18.039216%,73.72549%,27.058824%);fill-opacity:1;" d="M 463.511719 574.148438 C 463.511719 579.75 455.105469 579.75 455.105469 574.148438 C 455.105469 568.542969 463.511719 568.542969 463.511719 574.148438 "/>
<path style=" stroke:none;fill-rule:nonzero;fill:rgb(18.039216%,73.72549%,27.058824%);fill-opacity:1;" d="M 363.082031 227.398438 C 363.082031 231.425781 357.039062 231.425781 357.039062 227.398438 C 357.039062 223.371094 363.082031 223.371094 363.082031 227.398438 "/>
<path style=" stroke:none;fill-rule:nonzero;fill:rgb(18.039216%,73.72549%,27.058824%);fill-opacity:1;" d="M 430.941406 109.296875 C 430.941406 113.359375 424.851562 113.359375 424.851562 109.296875 C 424.851562 105.234375 430.941406 105.234375 430.941406 109.296875 "/>
<path style=" stroke:none;fill-rule:nonzero;fill:rgb(18.039216%,73.72549%,27.058824%);fill-opacity:1;" d="M 483.28125 385.53125 L 504.003906 385.53125 L 504.003906 406.253906 L 483.28125 406.253906 Z M 483.28125 385.53125 "/>
<path style=" stroke:none;fill-rule:nonzero;fill:rgb(18.039216%,73.72549%,27.058824%);fill-opacity:1;" d="M 246.449219 334.132812 C 246.449219 337.605469 241.234375 337.605469 241.234375 334.132812 C 241.234375 330.65625 246.449219 330.65625 246.449219 334.132812 "/>
<path style=" stroke:none;fill-rule:nonzero;fill:rgb(18.039216%,73.72549%,27.058824%);fill-opacity:1;" d="M 596.347656 224.167969 C 596.347656 227.835938 590.847656 227.835938 590.847656 224.167969 C 590.847656 220.5 596.347656 220.5 596.347656 224.167969 "/>
<path style=" stroke:none;fill-rule:nonzero;fill:rgb(18.039216%,73.72549%,27.058824%);fill-opacity:1;" d="M 132.3125 306.132812 C 132.3125 312.207031 123.199219 312.207031 123.199219 306.132812 C 123.199219 300.058594 132.3125 300.058594 132.3125 306.132812 "/>
<path style=" stroke:none;fill-rule:nonzero;fill:rgb(18.039216%,73.72549%,27.058824%);fill-opacity:1;" d="M 381.996094 284.046875 C 381.996094 287.558594 376.726562 287.558594 376.726562 284.046875 C 376.726562 280.53125 381.996094 280.53125 381.996094 284.046875 "/>
<path style=" stroke:none;fill-rule:nonzero;fill:rgb(18.039216%,73.72549%,27.058824%);fill-opacity:1;" d="M 384.152344 129.175781 C 384.152344 132.691406 378.875 132.691406 378.875 129.175781 C 378.875 125.660156 384.152344 125.660156 384.152344 129.175781 "/>
<path style=" stroke:none;fill-rule:nonzero;fill:rgb(18.039216%,73.72549%,27.058824%);fill-opacity:1;" d="M 301.511719 601.871094 C 301.511719 605.367188 296.273438 605.367188 296.273438 601.871094 C 296.273438 598.378906 301.511719 598.378906 301.511719 601.871094 "/>
<path style=" stroke:none;fill-rule:nonzero;fill:rgb(18.039216%,73.72549%,27.058824%);fill-opacity:1;" d="M 262.332031 497.957031 C 262.332031 501.429688 259.515625 504.242188 256.042969 504.242188 C 252.574219 504.242188 249.757812 501.429688 249.757812 497.957031 C 249.757812 494.484375 252.574219 491.671875 256.042969 491.671875 C 259.515625 491.671875 262.332031 494.484375 262.332031 497.957031 "/>
<path style=" stroke:none;fill-rule:nonzero;fill:rgb(18.039216%,73.72549%,27.058824%);fill-opacity:1;" d="M 467.683594 372 C 467.683594 375.535156 462.378906 375.535156 462.378906 372 C 462.378906 368.464844 467.683594 368.464844 467.683594 372 "/>
<path style=" stroke:none;fill-rule:nonzero;fill:rgb(18.039216%,73.72549%,27.058824%);fill-opacity:1;" d="M 463.445312 135.207031 L 484.167969 135.207031 L 484.167969 155.929688 L 463.445312 155.929688 Z M 463.445312 135.207031 "/>
<path style=" stroke:none;fill-rule:nonzero;fill:rgb(18.039216%,73.72549%,27.058824%);fill-opacity:1;" d="M 280.457031 569.09375 C 280.457031 573.855469 273.3125 573.855469 273.3125 569.09375 C 273.3125 564.332031 280.457031 564.332031 280.457031 569.09375 "/>
<path style=" stroke:none;fill-rule:nonzero;fill:rgb(18.039216%,73.72549%,27.058824%);fill-opacity:1;" d="M 281.203125 335.398438 L 301.925781 335.398438 L 301.925781 356.121094 L 281.203125 356.121094 Z M 281.203125 335.398438 "/>
<path style=" stroke:none;fill-rule:nonzero;fill:rgb(18.039216%,73.72549%,27.058824%);fill-opacity:1;" d="M 428.566406 362.386719 C 428.566406 366.121094 422.964844 366.121094 422.964844 362.386719 C 422.964844 358.652344 428.566406 358.652344 428.566406 362.386719 "/>
<path style=" stroke:none;fill-rule:nonzero;fill:rgb(18.039216%,73.72549%,27.058824%);fill-opacity:1;" d="M 304.839844 308.648438 C 304.839844 312.238281 299.460938 312.238281 299.460938 308.648438 C 299.460938 305.0625 304.839844 305.0625 304.839844 308.648438 "/>
<path style=" stroke:none;fill-rule:nonzero;fill:rgb(18.039216%,73.72549%,27.058824%);fill-opacity:1;" d="M 320.941406 524.886719 L 341.664062 524.886719 L 341.664062 545.609375 L 320.941406 545.609375 Z M 320.941406 524.886719 "/>
<path style=" stroke:none;fill-rule:nonzero;fill:rgb(18.039216%,73.72549%,27.058824%);fill-opacity:1;" d="M 456.5 413.460938 C 456.5 419.519531 447.40625 419.519531 447.40625 413.460938 C 447.40625 407.398438 456.5 407.398438 456.5 413.460938 "/>
<path style=" stroke:none;fill-rule:nonzero;fill:rgb(18.039216%,73.72549%,27.058824%);fill-opacity:1;" d="M 414.324219 401.527344 C 414.324219 405.160156 408.875 405.160156 408.875 401.527344 C 408.875 397.894531 414.324219 397.894531 414.324219 401.527344 "/>
<path style=" stroke:none;fill-rule:nonzero;fill:rgb(18.039216%,73.72549%,27.058824%);fill-opacity:1;" d="M 492.3125 262.550781 C 492.3125 266.089844 487 266.089844 487 262.550781 C 487 259.007812 492.3125 259.007812 492.3125 262.550781 "/>
<path style=" stroke:none;fill-rule:nonzero;fill:rgb(18.039216%,73.72549%,27.058824%);fill-opacity:1;" d="M 183.613281 213.726562 L 204.335938 213.726562 L 204.335938 234.449219 L 183.613281 234.449219 Z M 183.613281 213.726562 "/>
<path style=" stroke:none;fill-rule:nonzero;fill:rgb(18.039216%,73.72549%,27.058824%);fill-opacity:1;" d="M 308.792969 266.867188 C 308.792969 271.988281 301.109375 271.988281 301.109375 266.867188 C 301.109375 261.746094 308.792969 261.746094 308.792969 266.867188 "/>
<path style=" stroke:none;fill-rule:nonzero;fill:rgb(18.039216%,73.72549%,27.058824%);fill-opacity:1;" d="M 452.941406 505.164062 C 452.941406 508.894531 447.34375 508.894531 447.34375 505.164062 C 447.34375 501.433594 452.941406 501.433594 452.941406 505.164062 "/>
<path style=" stroke:none;fill-rule:nonzero;fill:rgb(18.039216%,73.72549%,27.058824%);fill-opacity:1;" d="M 487.628906 552.863281 C 487.628906 558.164062 479.675781 558.164062 479.675781 552.863281 C 479.675781 547.5625 487.628906 547.5625 487.628906 552.863281 "/>
<path style=" stroke:none;fill-rule:nonzero;fill:rgb(18.039216%,73.72549%,27.058824%);fill-opacity:1;" d="M 134.546875 411.894531 C 134.546875 415.667969 128.890625 415.667969 128.890625 411.894531 C 128.890625 408.125 134.546875 408.125 134.546875 411.894531 "/>
<path style=" stroke:none;fill-rule:nonzero;fill:rgb(18.039216%,73.72549%,27.058824%);fill-opacity:1;" d="M 582.472656 375.492188 C 582.472656 382.367188 572.164062 382.367188 572.164062 375.492188 C 572.164062 368.621094 582.472656 368.621094 582.472656 375.492188 "/>
<path style=" stroke:none;fill-rule:nonzero;fill:rgb(18.039216%,73.72549%,27.058824%);fill-opacity:1;" d="M 199.53125 526.652344 C 199.53125 529.890625 196.90625 532.515625 193.671875 532.515625 C 190.433594 532.515625 187.808594 529.890625 187.808594 526.652344 C 187.808594 523.417969 190.433594 520.792969 193.671875 520.792969 C 196.90625 520.792969 199.53125 523.417969 199.53125 526.652344 "/>
<path style=" stroke:none;fill-rule:nonzero;fill:rgb(18.039216%,73.72549%,27.058824%);fill-opacity:1;" d="M 156.074219 497.152344 C 156.074219 501.160156 150.058594 501.160156 150.058594 497.152344 C 150.058594 493.140625 156.074219 493.140625 156.074219 497.152344 "/>
<path style=" stroke:none;fill-rule:nonzero;fill:rgb(18.039216%,73.72549%,27.058824%);fill-opacity:1;" d="M 524.988281 494.308594 C 524.988281 497.773438 519.792969 497.773438 519.792969 494.308594 C 519.792969 490.84375 524.988281 490.84375 524.988281 494.308594 "/>
<path style=" stroke:none;fill-rule:nonzero;fill:rgb(18.039216%,73.72549%,27.058824%);fill-opacity:1;" d="M 421.265625 485.59375 C 421.265625 488.902344 418.585938 491.582031 415.277344 491.582031 C 411.972656 491.582031 409.292969 488.902344 409.292969 485.59375 C 409.292969 482.289062 411.972656 479.609375 415.277344 479.609375 C 418.585938 479.609375 421.265625 482.289062 421.265625 485.59375 "/>
<path style=" stroke:none;fill-rule:nonzero;fill:rgb(18.039216%,73.72549%,27.058824%);fill-opacity:1;" d="M 541.742188 548.179688 C 541.742188 554.226562 532.667969 554.226562 532.667969 548.179688 C 532.667969 542.132812 541.742188 542.132812 541.742188 548.179688 "/>
<path style=" stroke:none;fill-rule:nonzero;fill:rgb(18.039216%,73.72549%,27.058824%);fill-opacity:1;" d="M 315.007812 562.046875 C 315.007812 565.550781 309.753906 565.550781 309.753906 562.046875 C 309.753906 558.542969 315.007812 558.542969 315.007812 562.046875 "/>
<path style=" stroke:none;fill-rule:nonzero;fill:rgb(18.039216%,73.72549%,27.058824%);fill-opacity:1;" d="M 312.796875 445.472656 C 312.796875 449.007812 307.492188 449.007812 307.492188 445.472656 C 307.492188 441.9375 312.796875 441.9375 312.796875 445.472656 "/>
<path style=" stroke:none;fill-rule:nonzero;fill:rgb(18.039216%,73.72549%,27.058824%);fill-opacity:1;" d="M 486.253906 480.394531 C 486.253906 484.171875 480.582031 484.171875 480.582031 480.394531 C 480.582031 476.613281 486.253906 476.613281 486.253906 480.394531 "/>
<path style=" stroke:none;fill-rule:nonzero;fill:rgb(18.039216%,73.72549%,27.058824%);fill-opacity:1;" d="M 457.765625 242.890625 C 457.765625 246.550781 452.28125 246.550781 452.28125 242.890625 C 452.28125 239.234375 457.765625 239.234375 457.765625 242.890625 "/>
<path style=" stroke:none;fill-rule:nonzero;fill:rgb(18.039216%,73.72549%,27.058824%);fill-opacity:1;" d="M 169.792969 386.210938 C 169.792969 392.34375 160.59375 392.34375 160.59375 386.210938 C 160.59375 380.078125 169.792969 380.078125 169.792969 386.210938 "/>
<path style=" stroke:none;fill-rule:nonzero;fill:rgb(18.039216%,73.72549%,27.058824%);fill-opacity:1;" d="M 199.75 355.484375 L 220.472656 355.484375 L 220.472656 376.207031 L 199.75 376.207031 Z M 199.75 355.484375 "/>
<path style=" stroke:none;fill-rule:nonzero;fill:rgb(18.039216%,73.72549%,27.058824%);fill-opacity:1;" d="M 241.261719 118.523438 L 261.984375 118.523438 L 261.984375 139.246094 L 241.261719 139.246094 Z M 241.261719 118.523438 "/>
<path style=" stroke:none;fill-rule:nonzero;fill:rgb(18.039216%,73.72549%,27.058824%);fill-opacity:1;" d="M 244.3125 360.976562 L 265.035156 360.976562 L 265.035156 381.699219 L 244.3125 381.699219 Z M 244.3125 360.976562 "/>
<path style=" stroke:none;fill-rule:nonzero;fill:rgb(18.039216%,73.72549%,27.058824%);fill-opacity:1;" d="M 467.914062 330.125 C 467.914062 334.195312 461.804688 334.195312 461.804688 330.125 C 461.804688 326.050781 467.914062 326.050781 467.914062 330.125 "/>
<path style=" stroke:none;fill-rule:nonzero;fill:rgb(49.803922%,27.058824%,38.039216%);fill-opacity:1;" d="M 607.910156 266.417969 C 607.910156 270.484375 601.808594 270.484375 601.808594 266.417969 C 601.808594 262.347656 607.910156 262.347656 607.910156 266.417969 "/>
<path style=" stroke:none;fill-rule:nonzero;fill:rgb(73.72549%,18.039216%,63.137255%);fill-opacity:1;" d="M 411.277344 603.199219 C 411.277344 608.402344 407.058594 612.621094 401.855469 612.621094 C 396.652344 612.621094 392.433594 608.402344 392.433594 603.199219 C 392.433594 597.996094 396.652344 593.777344 401.855469 593.777344 C 407.058594 593.777344 411.277344 597.996094 411.277344 603.199219 "/>
<path style=" stroke:none;fill-rule:nonzero;fill:rgb(73.72549%,18.039216%,63.137255%);fill-opacity:1;" d="M 483.578125 179.964844 C 483.578125 183.6875 477.992188 183.6875 477.992188 179.964844 C 477.992188 176.242188 483.578125 176.242188 483.578125 179.964844 "/>
<path style=" stroke:none;fill-rule:nonzero;fill:rgb(73.72549%,18.039216%,63.137255%);fill-opacity:1;" d="M 566.894531 451.46875 L 587.617188 451.46875 L 587.617188 472.191406 L 566.894531 472.191406 Z M 566.894531 451.46875 "/>
<path style=" stroke:none;fill-rule:nonzero;fill:rgb(41.568627%,32.156863%,77.647059%);fill-opacity:1;" d="M 451.285156 461.519531 C 451.285156 465.023438 446.03125 465.023438 446.03125 461.519531 C 446.03125 458.019531 451.285156 458.019531 451.285156 461.519531 "/>
<path style=" stroke:none;fill-rule:nonzero;fill:rgb(41.568627%,32.156863%,77.647059%);fill-opacity:1;" d="M 560.601562 215.121094 C 560.601562 218.21875 558.09375 220.726562 554.996094 220.726562 C 551.898438 220.726562 549.390625 218.21875 549.390625 215.121094 C 549.390625 212.023438 551.898438 209.515625 554.996094 209.515625 C 558.09375 209.515625 560.601562 212.023438 560.601562 215.121094 "/>
<path style=" stroke:none;fill-rule:nonzero;fill:rgb(41.568627%,32.156863%,77.647059%);fill-opacity:1;" d="M 533.449219 283.660156 C 533.449219 287.292969 528 287.292969 528 283.660156 C 528 280.027344 533.449219 280.027344 533.449219 283.660156 "/>
<path style=" stroke:none;fill-rule:nonzero;fill:rgb(41.568627%,32.156863%,77.647059%);fill-opacity:1;" d="M 348.261719 88.601562 L 368.984375 88.601562 L 368.984375 109.324219 L 348.261719 109.324219 Z M 348.261719 88.601562 "/>
<path style=" stroke:none;fill-rule:nonzero;fill:rgb(41.568627%,32.156863%,77.647059%);fill-opacity:1;" d="M 353.515625 501.863281 C 353.515625 505.5 348.0625 505.5 348.0625 501.863281 C 348.0625 498.226562 353.515625 498.226562 353.515625 501.863281 "/>
<path style=" stroke:none;fill-rule:nonzero;fill:rgb(41.568627%,32.156863%,77.647059%);fill-opacity:1;" d="M 458.945312 288.46875 C 458.945312 292.203125 453.34375 292.203125 453.34375 288.46875 C 453.34375 284.730469 458.945312 284.730469 458.945312 288.46875 "/>
<path style=" stroke:none;fill-rule:nonzero;fill:rgb(41.568627%,32.156863%,77.647059%);fill-opacity:1;" d="M 491.253906 518.71875 C 491.253906 524.582031 482.453125 524.582031 482.453125 518.71875 C 482.453125 512.851562 491.253906 512.851562 491.253906 518.71875 "/>
<path style=" stroke:none;fill-rule:nonzero;fill:rgb(41.568627%,32.156863%,77.647059%);fill-opacity:1;" d="M 182.070312 269.9375 C 182.070312 273.480469 176.75 273.480469 176.75 269.9375 C 176.75 266.390625 182.070312 266.390625 182.070312 269.9375 "/>
<path style=" stroke:none;fill-rule:nonzero;fill:rgb(67.843137%,55.294118%,55.294118%);fill-opacity:1;" d="M 522.371094 421.539062 C 522.371094 425.273438 516.773438 425.273438 516.773438 421.539062 C 516.773438 417.808594 522.371094 417.808594 522.371094 421.539062 "/>
<path style=" stroke:none;fill-rule:nonzero;fill:rgb(67.843137%,55.294118%,55.294118%);fill-opacity:1;" d="M 445.578125 148.71875 C 445.578125 152.597656 439.761719 152.597656 439.761719 148.71875 C 439.761719 144.84375 445.578125 144.84375 445.578125 148.71875 "/>
<path style=" stroke:none;fill-rule:nonzero;fill:rgb(81.176471%,90.588235%,12.156863%);fill-opacity:1;" d="M 270.347656 536.726562 C 270.347656 540.296875 264.988281 540.296875 264.988281 536.726562 C 264.988281 533.152344 270.347656 533.152344 270.347656 536.726562 "/>
</g>
</svg>
