<?xml version="1.0" encoding="UTF-8"?>
<svg xmlns="http://www.w3.org/2000/svg" xmlns:xlink="http://www.w3.org/1999/xlink" width="720pt" height="720pt" viewBox="0 0 720 720" version="1.1">
<g id="surface2964">
<path style=" stroke:none;fill-rule:nonzero;fill:rgb(95.686275%,95.686275%,95.686275%);fill-opacity:1;" d="M 272.199219 589.050781 L 269.953125 588.769531 L 267.75 587.960938 L 265.632812 586.703125 L 263.644531 585.109375 L 261.765625 583.332031 L 259.929688 581.496094 L 258.0625 579.582031 L 256.152344 577.539062 L 254.242188 575.375 L 252.386719 573.125 L 251.214844 571.617188 L 249.464844 569.207031 L 247.890625 566.835938 L 246.507812 564.5625 L 245.316406 562.429688 L 244.25 560.410156 L 243.234375 558.394531 L 242.363281 556.273438 L 241.78125 554.015625 L 241.585938 551.652344 L 241.851562 549.242188 L 241.898438 549.023438 L 242.582031 546.875 L 243.621094 544.765625 L 244.960938 542.746094 L 246.515625 540.835938 L 248.199219 539.039062 L 249.925781 537.308594 L 251.695312 535.628906 L 253.5625 534.109375 L 255.546875 532.875 L 257.613281 532.03125 L 259.726562 531.644531 L 260.308594 531.625 L 262.550781 531.90625 L 264.753906 532.714844 L 266.863281 533.972656 L 268.851562 535.5625 L 270.726562 537.339844 L 272.558594 539.175781 L 274.425781 541.085938 L 276.332031 543.128906 L 278.246094 545.292969 L 280.101562 547.539062 L 281.257812 549.023438 L 283.011719 551.433594 L 284.59375 553.800781 L 285.980469 556.070312 L 287.179688 558.203125 L 288.253906 560.222656 L 289.277344 562.234375 L 290.15625 564.355469 L 290.75 566.613281 L 290.949219 568.976562 L 290.691406 571.386719 L 290.644531 571.617188 L 289.960938 573.769531 L 288.925781 575.878906 L 287.585938 577.902344 L 286.027344 579.8125 L 284.34375 581.613281 L 282.617188 583.347656 L 280.84375 585.03125 L 278.972656 586.550781 L 276.988281 587.789062 L 274.917969 588.640625 L 272.800781 589.03125 Z M 272.199219 589.050781 "/>
<path style=" stroke:none;fill-rule:nonzero;fill:rgb(95.686275%,95.686275%,95.686275%);fill-opacity:1;" d="M 616.566406 296.878906 L 613.914062 297.902344 L 611.347656 298.519531 L 608.917969 298.765625 L 606.664062 298.714844 L 604.539062 298.5 L 602.414062 298.230469 L 600.171875 297.8125 L 597.785156 297.148438 L 595.296875 296.195312 L 592.917969 295.023438 L 590.570312 293.605469 L 588.277344 291.972656 L 586.089844 290.1875 L 584.039062 288.324219 L 582.113281 286.441406 L 580.238281 284.554688 L 578.460938 282.59375 L 576.929688 280.503906 L 575.785156 278.296875 L 575.136719 276.015625 L 575.015625 274.511719 L 575.304688 272.207031 L 576.136719 269.941406 L 577.429688 267.773438 L 579.0625 265.730469 L 580.890625 263.804688 L 582.777344 261.921875 L 584.746094 260.042969 L 586.84375 258.199219 L 589.074219 256.464844 L 591.394531 254.90625 L 592.917969 254.019531 L 595.445312 252.792969 L 597.929688 251.871094 L 600.308594 251.238281 L 602.542969 250.847656 L 604.664062 250.597656 L 606.792969 250.402344 L 609.058594 250.382812 L 611.496094 250.660156 L 614.074219 251.316406 L 616.566406 252.300781 L 618.957031 253.570312 L 621.324219 255.128906 L 623.621094 256.910156 L 625.804688 258.835938 L 627.875 260.828125 L 629.886719 262.835938 L 631.828125 264.902344 L 633.566406 267.085938 L 634.957031 269.398438 L 635.878906 271.8125 L 636.25 274.269531 L 636.253906 274.597656 L 635.960938 277.0625 L 635.109375 279.484375 L 633.773438 281.8125 L 632.074219 284.015625 L 630.148438 286.09375 L 628.144531 288.105469 L 626.082031 290.101562 L 623.914062 292.039062 L 621.628906 293.84375 L 619.265625 295.429688 L 616.878906 296.730469 Z M 616.566406 296.878906 "/>
<path style=" stroke:none;fill-rule:nonzero;fill:rgb(95.686275%,95.686275%,95.686275%);fill-opacity:1;" d="M 170.441406 272.847656 L 167.953125 272.796875 L 165.425781 272.316406 L 162.921875 271.457031 L 160.488281 270.296875 L 158.148438 268.945312 L 155.871094 267.515625 L 153.566406 266.042969 L 151.175781 264.472656 L 148.703125 262.78125 L 146.1875 260.980469 L 143.683594 259.097656 L 142.574219 258.230469 L 140.046875 256.175781 L 137.648438 254.117188 L 135.425781 252.105469 L 133.394531 250.175781 L 131.523438 248.332031 L 129.726562 246.527344 L 128.007812 244.664062 L 126.503906 242.683594 L 125.339844 240.589844 L 124.628906 238.414062 L 124.425781 236.523438 L 124.675781 234.417969 L 125.390625 232.34375 L 126.511719 230.347656 L 127.945312 228.453125 L 129.578125 226.667969 L 131.289062 224.945312 L 133.082031 223.160156 L 135.097656 221.175781 L 137.410156 218.929688 L 140.046875 216.40625 L 142.980469 213.636719 L 144.148438 212.539062 L 146.707031 210.160156 L 149.386719 207.679688 L 152.148438 205.140625 L 154.945312 202.585938 L 157.734375 200.050781 L 160.484375 197.558594 L 163.191406 195.109375 L 165.890625 192.679688 L 168.628906 190.304688 L 171.429688 188.058594 L 174.285156 186.035156 L 177.164062 184.308594 L 180.019531 182.957031 L 182.804688 182.03125 L 184.1875 181.734375 L 186.941406 181.503906 L 189.546875 181.773438 L 191.976562 182.5 L 194.207031 183.628906 L 196.246094 185.066406 L 198.117188 186.714844 L 199.898438 188.464844 L 201.648438 190.261719 L 203.332031 192.195312 L 204.878906 194.339844 L 206.222656 196.738281 L 207.296875 199.390625 L 208.050781 202.285156 L 208.40625 204.746094 L 208.527344 207.882812 L 208.320312 211.160156 L 207.808594 214.53125 L 207.035156 217.933594 L 206.050781 221.320312 L 204.917969 224.652344 L 203.707031 227.929688 L 202.46875 231.199219 L 201.195312 234.5 L 199.847656 237.835938 L 198.429688 241.179688 L 196.9375 244.476562 L 195.386719 247.660156 L 193.804688 250.683594 L 193.28125 251.625 L 191.257812 255.03125 L 189.238281 258.0625 L 187.265625 260.683594 L 185.378906 262.914062 L 183.585938 264.824219 L 181.84375 266.574219 L 180.0625 268.273438 L 178.144531 269.839844 L 176.054688 271.167969 L 173.800781 272.160156 L 171.417969 272.738281 Z M 170.441406 272.847656 "/>
<path style=" stroke:none;fill-rule:nonzero;fill:rgb(95.686275%,95.686275%,95.686275%);fill-opacity:1;" d="M 118.640625 385.410156 L 116.34375 385.128906 L 114.085938 384.3125 L 111.921875 383.039062 L 109.878906 381.429688 L 107.953125 379.617188 L 106.074219 377.742188 L 104.175781 375.796875 L 102.25 373.726562 L 100.339844 371.527344 L 98.503906 369.238281 L 97.0625 367.289062 L 95.40625 364.824219 L 93.945312 362.398438 L 92.699219 360.074219 L 91.652344 357.882812 L 90.746094 355.8125 L 89.894531 353.753906 L 89.207031 351.558594 L 88.851562 349.15625 L 88.949219 346.558594 L 89.570312 343.808594 L 89.824219 343.0625 L 90.921875 340.601562 L 92.390625 338.117188 L 94.171875 335.65625 L 96.179688 333.269531 L 98.324219 330.976562 L 100.523438 328.753906 L 102.753906 326.570312 L 105.082031 324.523438 L 107.546875 322.757812 L 110.136719 321.402344 L 112.808594 320.554688 L 115.351562 320.289062 L 118.039062 320.585938 L 120.6875 321.453125 L 123.253906 322.820312 L 125.695312 324.585938 L 128.003906 326.621094 L 130.214844 328.789062 L 132.402344 330.992188 L 134.558594 333.269531 L 136.625 335.640625 L 138.527344 338.078125 L 140.1875 340.546875 L 141.546875 342.988281 L 141.582031 343.0625 L 142.671875 345.644531 L 143.367188 348.113281 L 143.691406 350.425781 L 143.707031 352.558594 L 143.511719 354.53125 L 143.230469 356.425781 L 142.886719 358.371094 L 142.394531 360.425781 L 141.699219 362.597656 L 140.769531 364.851562 L 139.601562 367.140625 L 139.515625 367.289062 L 138.054688 369.640625 L 136.386719 371.941406 L 134.578125 374.136719 L 132.699219 376.203125 L 130.804688 378.144531 L 128.90625 380.03125 L 126.941406 381.828125 L 124.847656 383.382812 L 122.632812 384.5625 L 120.339844 385.253906 Z M 118.640625 385.410156 "/>
<path style=" stroke:none;fill-rule:nonzero;fill:rgb(95.686275%,95.686275%,95.686275%);fill-opacity:1;" d="M 224.808594 230.234375 L 222.601562 229.980469 L 220.425781 229.246094 L 218.324219 228.089844 L 216.328125 226.609375 L 214.449219 224.910156 L 212.636719 223.117188 L 210.800781 221.253906 L 208.839844 219.171875 L 206.71875 216.761719 L 204.441406 213.992188 L 202.039062 210.878906 L 200.488281 208.773438 L 198.46875 205.910156 L 196.421875 202.890625 L 194.382812 199.769531 L 192.378906 196.601562 L 190.429688 193.433594 L 188.542969 190.300781 L 186.710938 187.210938 L 184.898438 184.136719 L 183.132812 181.023438 L 181.476562 177.871094 L 180.003906 174.691406 L 178.777344 171.535156 L 177.851562 168.453125 L 177.269531 165.503906 L 177.117188 164.105469 L 177.113281 160.996094 L 177.589844 158.164062 L 178.503906 155.636719 L 179.769531 153.414062 L 181.289062 151.472656 L 182.953125 149.71875 L 184.660156 148.019531 L 186.453125 146.304688 L 188.394531 144.589844 L 190.515625 142.902344 L 192.800781 141.285156 L 195.222656 139.777344 L 196.386719 139.125 L 199.152344 137.75 L 201.976562 136.566406 L 204.800781 135.578125 L 207.5625 134.777344 L 210.234375 134.125 L 212.839844 133.550781 L 215.460938 133.019531 L 218.160156 132.605469 L 220.9375 132.394531 L 223.742188 132.453125 L 226.511719 132.816406 L 228.125 133.1875 L 230.78125 134.09375 L 233.273438 135.3125 L 235.5625 136.78125 L 237.636719 138.429688 L 239.519531 140.171875 L 241.308594 141.949219 L 243.113281 143.78125 L 244.976562 145.75 L 246.894531 147.890625 L 248.824219 150.191406 L 250.726562 152.613281 L 251.335938 153.429688 L 253.125 155.9375 L 254.808594 158.472656 L 256.363281 160.984375 L 257.777344 163.417969 L 259.066406 165.753906 L 260.285156 168.027344 L 261.46875 170.339844 L 262.523438 172.78125 L 263.359375 175.371094 L 263.898438 178.082031 L 264.082031 180.863281 L 264.042969 182.042969 L 263.691406 184.765625 L 262.996094 187.453125 L 261.996094 190.050781 L 260.765625 192.523438 L 259.386719 194.855469 L 257.941406 197.101562 L 256.460938 199.359375 L 254.894531 201.695312 L 253.199219 204.128906 L 251.382812 206.628906 L 249.472656 209.140625 L 248.011719 210.988281 L 245.90625 213.53125 L 243.789062 215.96875 L 241.707031 218.257812 L 239.695312 220.367188 L 237.777344 222.324219 L 235.902344 224.195312 L 233.988281 226.007812 L 231.960938 227.636719 L 229.8125 228.953125 L 227.574219 229.839844 L 225.285156 230.222656 Z M 224.808594 230.234375 "/>
<path style=" stroke:none;fill-rule:nonzero;fill:rgb(95.686275%,95.686275%,95.686275%);fill-opacity:1;" d="M 174.113281 487.203125 L 171.78125 486.945312 L 169.488281 486.183594 L 167.265625 484.984375 L 165.15625 483.441406 L 163.164062 481.664062 L 161.25 479.78125 L 159.375 477.863281 L 157.625 475.855469 L 156.121094 473.726562 L 154.980469 471.496094 L 154.285156 469.191406 L 154.089844 467.183594 L 154.378906 464.746094 L 155.207031 462.347656 L 156.511719 460.039062 L 158.175781 457.847656 L 160.066406 455.785156 L 162.050781 453.789062 L 164.0625 451.777344 L 166.132812 449.71875 L 168.238281 447.625 L 170.34375 445.542969 L 172.390625 443.535156 L 173.042969 442.894531 L 175.335938 440.664062 L 177.417969 438.65625 L 179.253906 436.90625 L 180.855469 435.390625 L 182.332031 434.003906 L 183.867188 432.703125 L 185.582031 431.671875 L 187.503906 431.074219 L 189.605469 431.035156 L 190.328125 431.15625 L 192.375 431.832031 L 194.472656 432.96875 L 196.5625 434.484375 L 198.589844 436.261719 L 200.546875 438.171875 L 202.472656 440.117188 L 204.316406 442.132812 L 205.957031 444.234375 L 207.28125 446.390625 L 208.1875 448.542969 L 208.375 449.203125 L 208.667969 451.457031 L 208.414062 453.578125 L 207.710938 455.519531 L 206.683594 457.277344 L 205.519531 458.921875 L 204.277344 460.621094 L 202.828125 462.511719 L 201.117188 464.632812 L 199.144531 466.953125 L 198.191406 468.042969 L 196.296875 470.140625 L 194.292969 472.292969 L 192.238281 474.449219 L 190.179688 476.554688 L 188.160156 478.59375 L 186.167969 480.585938 L 184.132812 482.523438 L 181.984375 484.277344 L 179.710938 485.710938 L 177.332031 486.707031 L 174.902344 487.175781 Z M 174.113281 487.203125 "/>
<path style=" stroke:none;fill-rule:nonzero;fill:rgb(95.686275%,95.686275%,95.686275%);fill-opacity:1;" d="M 496.164062 170.828125 L 493.9375 170.570312 L 491.746094 169.816406 L 489.632812 168.636719 L 487.628906 167.125 L 485.738281 165.402344 L 483.914062 163.59375 L 482.050781 161.71875 L 480.046875 159.671875 L 477.863281 157.390625 L 475.511719 154.875 L 473.023438 152.15625 L 471.914062 150.925781 L 469.65625 148.382812 L 467.363281 145.757812 L 465.074219 143.101562 L 462.832031 140.460938 L 460.65625 137.875 L 458.554688 135.355469 L 456.488281 132.871094 L 454.460938 130.359375 L 452.550781 127.785156 L 450.847656 125.152344 L 449.441406 122.496094 L 448.40625 119.859375 L 447.792969 117.296875 L 447.722656 116.785156 L 447.671875 114.023438 L 448.1875 111.441406 L 449.199219 109.078125 L 450.605469 106.945312 L 452.269531 105.019531 L 454.054688 103.210938 L 455.875 101.441406 L 457.765625 99.777344 L 459.730469 98.324219 L 461.75 97.175781 L 463.777344 96.410156 L 464.941406 96.15625 L 467.214844 96.097656 L 469.378906 96.597656 L 471.382812 97.566406 L 473.210938 98.878906 L 474.914062 100.363281 L 476.621094 101.898438 L 478.449219 103.5625 L 480.441406 105.394531 L 482.574219 107.390625 L 484.703125 109.40625 L 486.71875 111.34375 L 488.742188 113.308594 L 490.726562 115.253906 L 492.632812 117.140625 L 494.453125 118.957031 L 496.226562 120.730469 L 498.019531 122.539062 L 499.855469 124.445312 L 501.722656 126.453125 L 503.570312 128.535156 L 505.351562 130.648438 L 505.734375 131.117188 L 507.589844 133.480469 L 509.273438 135.777344 L 510.761719 137.949219 L 512.058594 139.96875 L 513.226562 141.871094 L 514.34375 143.777344 L 515.28125 145.8125 L 515.894531 148.011719 L 516.0625 150.347656 L 515.753906 152.625 L 514.972656 154.929688 L 513.761719 157.222656 L 512.191406 159.441406 L 510.382812 161.554688 L 508.445312 163.5625 L 506.46875 165.519531 L 504.410156 167.367188 L 502.214844 168.945312 L 499.898438 170.105469 L 497.507812 170.734375 Z M 496.164062 170.828125 "/>
<path style=" stroke:none;fill-rule:nonzero;fill:rgb(95.686275%,95.686275%,95.686275%);fill-opacity:1;" d="M 524.757812 541.203125 L 521.890625 541.496094 L 518.867188 541.519531 L 515.746094 541.300781 L 512.585938 540.867188 L 509.445312 540.265625 L 506.351562 539.554688 L 503.292969 538.792969 L 500.207031 538 L 497.050781 537.109375 L 493.8125 536.074219 L 490.535156 534.871094 L 487.269531 533.496094 L 484.082031 531.957031 L 482.855469 531.308594 L 479.632812 529.433594 L 476.597656 527.417969 L 473.789062 525.308594 L 471.226562 523.160156 L 468.898438 521.019531 L 466.738281 518.898438 L 464.640625 516.785156 L 462.625 514.601562 L 460.820312 512.296875 L 459.34375 509.875 L 458.292969 507.355469 L 457.746094 504.78125 L 457.671875 503.46875 L 457.976562 500.761719 L 458.851562 498.09375 L 460.238281 495.511719 L 462.023438 493.058594 L 464.082031 490.738281 L 466.269531 488.511719 L 468.492188 486.3125 L 470.789062 484.171875 L 473.179688 482.171875 L 475.640625 480.398438 L 478.121094 478.9375 L 480.433594 477.898438 L 483.226562 477.105469 L 485.882812 476.851562 L 488.34375 477.070312 L 490.589844 477.660156 L 492.675781 478.460938 L 494.738281 479.320312 L 496.902344 480.265625 L 499.207031 481.34375 L 501.617188 482.574219 L 504.078125 483.933594 L 504.554688 484.210938 L 506.855469 485.601562 L 509.109375 487.058594 L 511.261719 488.535156 L 513.285156 490 L 515.1875 491.425781 L 517.039062 492.835938 L 518.949219 494.304688 L 520.976562 495.902344 L 523.113281 497.640625 L 525.324219 499.496094 L 527.269531 501.179688 L 529.527344 503.195312 L 531.730469 505.230469 L 533.84375 507.234375 L 535.824219 509.167969 L 537.691406 511.019531 L 539.503906 512.84375 L 541.230469 514.734375 L 542.726562 516.742188 L 543.863281 518.867188 L 544.535156 521.070312 L 544.6875 522.730469 L 544.453125 524.785156 L 543.769531 526.8125 L 542.695312 528.765625 L 541.316406 530.625 L 539.734375 532.375 L 538.066406 534.0625 L 536.335938 535.722656 L 534.402344 537.308594 L 532.171875 538.734375 L 529.617188 539.925781 L 526.746094 540.816406 Z M 524.757812 541.203125 "/>
<path style=" stroke:none;fill-rule:nonzero;fill:rgb(95.686275%,95.686275%,95.686275%);fill-opacity:1;" d="M 420.925781 123.558594 L 418.457031 124.171875 L 416.042969 124.351562 L 413.746094 124.148438 L 411.601562 123.660156 L 409.566406 123.027344 L 407.519531 122.335938 L 405.34375 121.492188 L 403.019531 120.421875 L 400.59375 119.09375 L 398.660156 117.886719 L 396.390625 116.285156 L 394.160156 114.535156 L 392.027344 112.6875 L 390.015625 110.816406 L 388.125 108.953125 L 386.28125 107.097656 L 384.539062 105.164062 L 383.046875 103.105469 L 381.9375 100.929688 L 381.324219 98.679688 L 381.222656 97.316406 L 381.519531 95 L 382.375 92.730469 L 383.699219 90.558594 L 385.367188 88.515625 L 387.214844 86.589844 L 389.117188 84.707031 L 391.109375 82.871094 L 393.234375 81.175781 L 395.480469 79.71875 L 397.789062 78.589844 L 398.660156 78.261719 L 401.125 77.636719 L 403.539062 77.4375 L 405.832031 77.617188 L 407.980469 78.078125 L 410.015625 78.683594 L 412.066406 79.347656 L 414.246094 80.167969 L 416.578125 81.222656 L 419.011719 82.53125 L 420.925781 83.71875 L 423.199219 85.308594 L 425.433594 87.054688 L 427.578125 88.902344 L 429.59375 90.777344 L 431.496094 92.648438 L 433.347656 94.511719 L 435.097656 96.453125 L 436.605469 98.519531 L 437.730469 100.699219 L 438.359375 102.957031 L 438.472656 104.394531 L 438.175781 106.71875 L 437.320312 109 L 435.992188 111.183594 L 434.320312 113.234375 L 432.464844 115.167969 L 430.554688 117.0625 L 428.558594 118.90625 L 426.429688 120.609375 L 424.183594 122.070312 L 421.871094 123.207031 Z M 420.925781 123.558594 "/>
<path style=" stroke:none;fill-rule:nonzero;fill:rgb(95.686275%,95.686275%,95.686275%);fill-opacity:1;" d="M 193.835938 352.433594 L 191.253906 353.253906 L 188.71875 353.664062 L 186.300781 353.710938 L 184.035156 353.480469 L 181.886719 353.097656 L 179.730469 352.667969 L 177.480469 352.125 L 175.148438 351.414062 L 172.78125 350.503906 L 170.878906 349.625 L 168.707031 348.425781 L 166.652344 347.097656 L 164.761719 345.683594 L 163.042969 344.246094 L 161.457031 342.8125 L 159.878906 341.367188 L 158.191406 339.804688 L 156.335938 338.070312 L 154.320312 336.164062 L 152.183594 334.121094 L 151.835938 333.785156 L 149.761719 331.777344 L 147.667969 329.726562 L 145.597656 327.6875 L 143.597656 325.699219 L 141.675781 323.785156 L 139.800781 321.902344 L 138.003906 319.960938 L 136.421875 317.898438 L 135.195312 315.714844 L 134.433594 313.445312 L 134.203125 311.371094 L 134.449219 309.21875 L 135.164062 307.101562 L 136.285156 305.054688 L 137.726562 303.109375 L 139.378906 301.277344 L 141.125 299.511719 L 142.925781 297.785156 L 144.902344 296.175781 L 147.136719 294.800781 L 149.640625 293.757812 L 152.398438 293.125 L 154.359375 292.953125 L 157.121094 293.050781 L 160 293.511719 L 162.941406 294.296875 L 165.886719 295.351562 L 168.789062 296.605469 L 171.632812 297.984375 L 174.445312 299.40625 L 177.285156 300.859375 L 180.183594 302.394531 L 183.125 304.019531 L 186.070312 305.734375 L 188.953125 307.515625 L 191.722656 309.332031 L 191.929688 309.472656 L 194.933594 311.609375 L 197.6875 313.730469 L 200.160156 315.796875 L 202.339844 317.765625 L 204.277344 319.640625 L 206.097656 321.457031 L 207.855469 323.3125 L 209.445312 325.273438 L 210.734375 327.351562 L 211.617188 329.519531 L 212.011719 331.734375 L 212.03125 332.3125 L 211.738281 334.667969 L 210.886719 336.976562 L 209.566406 339.1875 L 207.898438 341.273438 L 206.03125 343.238281 L 204.105469 345.15625 L 202.101562 347.042969 L 199.960938 348.832031 L 197.691406 350.433594 L 195.339844 351.761719 Z M 193.835938 352.433594 "/>
<path style=" stroke:none;fill-rule:nonzero;fill:rgb(95.686275%,95.686275%,95.686275%);fill-opacity:1;" d="M 559.214844 458.511719 L 556.925781 457.632812 L 554.636719 456.34375 L 552.398438 454.726562 L 550.257812 452.882812 L 548.21875 450.914062 L 546.222656 448.914062 L 544.328125 446.835938 L 542.679688 444.628906 L 541.429688 442.292969 L 540.691406 439.871094 L 540.519531 438.039062 L 540.808594 435.652344 L 541.640625 433.308594 L 542.945312 431.050781 L 544.601562 428.921875 L 546.46875 426.914062 L 548.414062 424.964844 L 550.410156 423.003906 L 552.503906 421.042969 L 554.683594 419.121094 L 556.917969 417.304688 L 559.148438 415.65625 L 559.214844 415.609375 L 561.726562 413.964844 L 564.128906 412.617188 L 566.363281 411.558594 L 568.40625 410.75 L 570.332031 410.074219 L 572.285156 409.46875 L 574.386719 409.070312 L 576.648438 409.011719 L 579.023438 409.375 L 580.40625 409.785156 L 582.660156 410.773438 L 584.890625 412.113281 L 587.039062 413.734375 L 589.074219 415.535156 L 591.003906 417.417969 L 592.886719 419.328125 L 594.644531 421.328125 L 596.117188 423.460938 L 597.15625 425.710938 L 597.664062 428.027344 L 597.703125 428.863281 L 597.421875 431.121094 L 596.605469 433.34375 L 595.335938 435.46875 L 593.734375 437.472656 L 591.945312 439.363281 L 590.09375 441.210938 L 588.175781 443.089844 L 586.148438 445.003906 L 584.019531 446.910156 L 581.835938 448.753906 L 580.40625 449.898438 L 578.039062 451.671875 L 575.75 453.246094 L 573.589844 454.609375 L 571.585938 455.769531 L 569.699219 456.804688 L 567.789062 457.777344 L 565.730469 458.550781 L 563.492188 458.960938 L 561.101562 458.90625 Z M 559.214844 458.511719 "/>
<path style=" stroke:none;fill-rule:nonzero;fill:rgb(95.686275%,95.686275%,95.686275%);fill-opacity:1;" d="M 248.863281 513.859375 L 246.589844 513.578125 L 244.359375 512.769531 L 242.21875 511.503906 L 240.203125 509.90625 L 238.300781 508.113281 L 236.441406 506.257812 L 234.542969 504.347656 L 232.574219 502.347656 L 230.5625 500.269531 L 228.554688 498.164062 L 227.039062 496.546875 L 224.972656 494.300781 L 223.050781 492.160156 L 221.308594 490.179688 L 219.753906 488.363281 L 218.316406 486.667969 L 216.941406 484.957031 L 215.761719 483.105469 L 214.949219 481.078125 L 214.621094 478.898438 L 214.761719 477.105469 L 215.324219 475.097656 L 216.292969 473.074219 L 217.609375 471.082031 L 219.179688 469.160156 L 220.90625 467.316406 L 222.6875 465.523438 L 224.515625 463.777344 L 226.445312 462.195312 L 228.484375 460.894531 L 230.621094 459.984375 L 232.804688 459.546875 L 233.609375 459.511719 L 235.90625 459.792969 L 238.160156 460.605469 L 240.328125 461.875 L 242.371094 463.488281 L 244.296875 465.296875 L 246.175781 467.171875 L 248.089844 469.097656 L 250.066406 471.113281 L 252.074219 473.203125 L 254.070312 475.320312 L 255.714844 477.105469 L 257.761719 479.382812 L 259.644531 481.546875 L 261.328125 483.550781 L 262.820312 485.375 L 264.191406 487.078125 L 265.496094 488.804688 L 266.601562 490.671875 L 267.339844 492.710938 L 267.59375 494.898438 L 267.429688 496.546875 L 266.847656 498.542969 L 265.867188 500.554688 L 264.550781 502.53125 L 262.988281 504.433594 L 261.277344 506.257812 L 259.511719 508.027344 L 257.699219 509.75 L 255.789062 511.304688 L 253.761719 512.570312 L 251.644531 513.4375 L 249.484375 513.835938 Z M 248.863281 513.859375 "/>
<path style=" stroke:none;fill-rule:nonzero;fill:rgb(95.686275%,95.686275%,95.686275%);fill-opacity:1;" d="M 566.972656 402.902344 L 564.386719 403.941406 L 561.910156 404.582031 L 559.585938 404.84375 L 557.441406 404.796875 L 555.457031 404.53125 L 553.546875 404.183594 L 551.59375 403.773438 L 549.535156 403.226562 L 547.367188 402.488281 L 545.125 401.527344 L 542.859375 400.347656 L 542.628906 400.214844 L 540.277344 398.734375 L 537.988281 397.058594 L 535.8125 395.257812 L 533.777344 393.398438 L 531.867188 391.53125 L 530.015625 389.664062 L 528.261719 387.71875 L 526.753906 385.648438 L 525.632812 383.460938 L 525.007812 381.199219 L 524.898438 379.792969 L 525.179688 377.53125 L 525.992188 375.3125 L 527.253906 373.183594 L 528.851562 371.175781 L 530.640625 369.285156 L 532.492188 367.4375 L 534.417969 365.5625 L 536.480469 363.660156 L 538.675781 361.769531 L 540.964844 359.949219 L 542.628906 358.726562 L 545.070312 357.082031 L 547.484375 355.621094 L 549.8125 354.359375 L 552.007812 353.292969 L 554.09375 352.355469 L 556.164062 351.476562 L 558.367188 350.757812 L 560.773438 350.363281 L 563.375 350.417969 L 566.128906 351 L 566.972656 351.277344 L 569.445312 352.359375 L 571.9375 353.820312 L 574.398438 355.59375 L 576.789062 357.597656 L 579.085938 359.742188 L 581.308594 361.941406 L 583.492188 364.171875 L 585.539062 366.503906 L 587.304688 368.96875 L 588.660156 371.558594 L 589.503906 374.230469 L 589.769531 376.769531 L 589.472656 379.457031 L 588.605469 382.109375 L 587.238281 384.675781 L 585.46875 387.117188 L 583.433594 389.429688 L 581.261719 391.640625 L 579.054688 393.828125 L 576.773438 395.984375 L 574.398438 398.042969 L 571.953125 399.925781 L 569.480469 401.558594 L 567.023438 402.878906 Z M 566.972656 402.902344 "/>
<path style=" stroke:none;fill-rule:nonzero;fill:rgb(95.686275%,95.686275%,95.686275%);fill-opacity:1;" d="M 176.136719 537.214844 L 173.761719 536.054688 L 171.414062 534.578125 L 169.140625 532.847656 L 166.980469 530.957031 L 164.933594 528.988281 L 162.945312 526.996094 L 161.035156 524.941406 L 159.34375 522.761719 L 158.023438 520.453125 L 157.183594 518.054688 L 156.90625 515.699219 L 157.199219 513.273438 L 158.046875 510.890625 L 159.371094 508.601562 L 161.050781 506.4375 L 162.949219 504.394531 L 164.925781 502.414062 L 166.960938 500.445312 L 169.105469 498.519531 L 171.363281 496.710938 L 173.699219 495.097656 L 176.054688 493.738281 L 176.136719 493.695312 L 178.761719 492.535156 L 181.304688 491.75 L 183.707031 491.3125 L 185.9375 491.15625 L 188.042969 491.152344 L 190.15625 491.207031 L 192.394531 491.417969 L 194.773438 491.894531 L 197.25 492.6875 L 199.328125 493.601562 L 201.664062 494.902344 L 203.9375 496.449219 L 206.109375 498.179688 L 208.136719 500.007812 L 210.046875 501.875 L 211.90625 503.75 L 213.652344 505.710938 L 215.136719 507.796875 L 216.21875 510 L 216.789062 512.273438 L 216.863281 513.421875 L 216.578125 515.695312 L 215.753906 517.929688 L 214.46875 520.066406 L 212.851562 522.078125 L 211.046875 523.972656 L 209.183594 525.832031 L 207.238281 527.695312 L 205.160156 529.535156 L 202.953125 531.292969 L 200.660156 532.902344 L 199.328125 533.730469 L 196.839844 535.078125 L 194.386719 536.15625 L 192.042969 536.964844 L 189.839844 537.546875 L 187.746094 537.996094 L 185.644531 538.390625 L 183.402344 538.601562 L 180.992188 538.503906 L 178.449219 538.011719 Z M 176.136719 537.214844 "/>
<path style=" stroke:none;fill-rule:nonzero;fill:rgb(95.686275%,95.686275%,95.686275%);fill-opacity:1;" d="M 317.355469 631.320312 L 314.949219 629.964844 L 312.574219 628.351562 L 310.289062 626.546875 L 308.125 624.625 L 306.082031 622.652344 L 304.105469 620.671875 L 302.195312 618.636719 L 300.492188 616.480469 L 299.140625 614.191406 L 298.257812 611.8125 L 297.921875 609.390625 L 297.921875 609.203125 L 298.21875 606.761719 L 299.074219 604.359375 L 300.410156 602.050781 L 302.109375 599.871094 L 304.023438 597.816406 L 306.015625 595.824219 L 308.070312 593.851562 L 310.246094 591.964844 L 312.546875 590.246094 L 314.9375 588.78125 L 317.355469 587.640625 L 319.988281 586.804688 L 322.5625 586.390625 L 325.015625 586.355469 L 327.308594 586.613281 L 329.472656 587.039062 L 331.625 587.519531 L 333.886719 588.128906 L 336.277344 588.949219 L 338.757812 590.023438 L 341.269531 591.347656 L 341.507812 591.488281 L 343.871094 592.996094 L 346.167969 594.683594 L 348.339844 596.492188 L 350.363281 598.34375 L 352.261719 600.199219 L 354.101562 602.054688 L 355.839844 603.988281 L 357.328125 606.046875 L 358.429688 608.222656 L 359.035156 610.46875 L 359.132812 611.796875 L 358.84375 614.078125 L 358.011719 616.320312 L 356.714844 618.464844 L 355.085938 620.480469 L 353.269531 622.382812 L 351.398438 624.246094 L 349.433594 626.09375 L 347.320312 627.875 L 345.066406 629.515625 L 342.714844 630.9375 L 341.507812 631.550781 L 338.980469 632.59375 L 336.476562 633.3125 L 334.0625 633.730469 L 331.78125 633.90625 L 329.609375 633.941406 L 327.433594 633.917969 L 325.136719 633.742188 L 322.675781 633.292969 L 320.089844 632.507812 L 317.441406 631.363281 Z M 317.355469 631.320312 "/>
<path style=" stroke:none;fill-rule:nonzero;fill:rgb(95.686275%,95.686275%,95.686275%);fill-opacity:1;" d="M 622.875 415.59375 L 620.136719 415.28125 L 617.4375 414.382812 L 614.824219 412.96875 L 612.34375 411.144531 L 610.003906 409.050781 L 607.753906 406.832031 L 605.539062 404.578125 L 603.425781 402.253906 L 601.527344 399.855469 L 599.953125 397.414062 L 598.792969 394.980469 L 598.207031 393.085938 L 597.921875 390.488281 L 598.246094 388.050781 L 599.109375 385.816406 L 600.367188 383.796875 L 601.859375 381.945312 L 603.414062 380.136719 L 605.0625 378.234375 L 606.855469 376.199219 L 608.792969 374.039062 L 610.839844 371.804688 L 611.679688 370.898438 L 613.738281 368.707031 L 615.804688 366.542969 L 617.835938 364.457031 L 619.78125 362.480469 L 621.644531 360.613281 L 623.476562 358.792969 L 625.371094 357.058594 L 627.386719 355.546875 L 629.515625 354.398438 L 631.726562 353.714844 L 633.449219 353.550781 L 635.757812 353.84375 L 638.019531 354.695312 L 640.1875 356.011719 L 642.222656 357.664062 L 644.144531 359.503906 L 646.023438 361.398438 L 647.875 363.375 L 649.628906 365.472656 L 651.195312 367.671875 L 652.496094 369.925781 L 652.957031 370.898438 L 653.777344 373.097656 L 654.273438 375.242188 L 654.476562 377.285156 L 654.4375 379.203125 L 654.238281 381.003906 L 653.984375 382.769531 L 653.617188 384.632812 L 653.015625 386.6875 L 652.097656 388.949219 L 650.835938 391.390625 L 649.804688 393.085938 L 648.199219 395.414062 L 646.363281 397.792969 L 644.351562 400.171875 L 642.226562 402.507812 L 640.054688 404.765625 L 637.871094 406.960938 L 635.675781 409.121094 L 633.386719 411.160156 L 630.96875 412.941406 L 628.425781 414.335938 L 625.796875 415.242188 L 623.125 415.589844 Z M 622.875 415.59375 "/>
<path style=" stroke:none;fill-rule:nonzero;fill:rgb(95.686275%,95.686275%,95.686275%);fill-opacity:1;" d="M 152.734375 436.648438 L 149.644531 436.296875 L 146.6875 435.382812 L 143.914062 433.972656 L 141.347656 432.171875 L 138.984375 430.105469 L 136.753906 427.917969 L 134.558594 425.695312 L 132.453125 423.417969 L 130.53125 421.078125 L 128.90625 418.710938 L 127.660156 416.367188 L 126.894531 414.230469 L 126.519531 411.714844 L 126.765625 409.386719 L 127.542969 407.289062 L 128.722656 405.425781 L 130.121094 403.730469 L 131.589844 402.054688 L 133.203125 400.234375 L 135.054688 398.191406 L 137.15625 395.914062 L 139.484375 393.4375 L 140.039062 392.851562 L 142.097656 390.699219 L 144.246094 388.484375 L 146.4375 386.246094 L 148.625 384.027344 L 150.777344 381.863281 L 152.882812 379.753906 L 154.976562 377.664062 L 157.113281 375.558594 L 159.328125 373.445312 L 161.613281 371.359375 L 163.929688 369.351562 L 166.242188 367.46875 L 167.667969 366.375 L 170.152344 364.597656 L 172.519531 363.074219 L 174.726562 361.808594 L 176.753906 360.785156 L 178.617188 359.949219 L 180.402344 359.203125 L 182.238281 358.519531 L 184.21875 358.035156 L 186.378906 357.851562 L 188.707031 358.058594 L 191.164062 358.695312 L 191.824219 358.9375 L 194.242188 360.0625 L 196.695312 361.550781 L 199.136719 363.347656 L 201.511719 365.363281 L 203.800781 367.511719 L 206.023438 369.714844 L 208.207031 371.945312 L 210.253906 374.273438 L 212.019531 376.738281 L 213.375 379.328125 L 214.21875 382.003906 L 214.484375 384.539062 L 214.214844 387.09375 L 213.429688 389.617188 L 212.1875 392.066406 L 210.566406 394.410156 L 208.675781 396.628906 L 206.632812 398.75 L 204.546875 400.839844 L 202.371094 402.984375 L 200.035156 405.238281 L 197.511719 407.601562 L 194.8125 410.054688 L 191.964844 412.550781 L 190.039062 414.195312 L 187.214844 416.542969 L 184.347656 418.851562 L 181.480469 421.097656 L 178.667969 423.246094 L 175.933594 425.285156 L 173.289062 427.222656 L 170.699219 429.101562 L 168.089844 430.945312 L 165.398438 432.675781 L 162.621094 434.1875 L 159.773438 435.394531 L 156.902344 436.222656 L 154.050781 436.621094 Z M 152.734375 436.648438 "/>
<path style="fill:none;stroke-width:0.75;stroke-linecap:round;stroke-linejoin:round;stroke:rgb(66.27451%,66.27451%,66.27451%);stroke-opacity:1;stroke-miterlimit:10;" d="M 270.972656 569.339844 L 261.511719 551.25 "/>
<path style="fill:none;stroke-width:0.75;stroke-linecap:round;stroke-linejoin:round;stroke:rgb(66.27451%,66.27451%,66.27451%);stroke-opacity:1;stroke-miterlimit:10;" d="M 610.546875 274.578125 L 596.027344 274.523438 "/>
<path style="fill:none;stroke-width:0.75;stroke-linecap:round;stroke-linejoin:round;stroke:rgb(66.27451%,66.27451%,66.27451%);stroke-opacity:1;stroke-miterlimit:10;" d="M 164.242188 228.308594 L 144.277344 235.613281 "/>
<path style="fill:none;stroke-width:0.75;stroke-linecap:round;stroke-linejoin:round;stroke:rgb(66.27451%,66.27451%,66.27451%);stroke-opacity:1;stroke-miterlimit:10;" d="M 167.300781 230.109375 L 170.746094 252.003906 "/>
<path style="fill:none;stroke-width:0.75;stroke-linecap:round;stroke-linejoin:round;stroke:rgb(66.27451%,66.27451%,66.27451%);stroke-opacity:1;stroke-miterlimit:10;" d="M 168.546875 225.121094 L 181.097656 208.492188 "/>
<path style="fill:none;stroke-width:0.75;stroke-linecap:round;stroke-linejoin:round;stroke:rgb(66.27451%,66.27451%,66.27451%);stroke-opacity:1;stroke-miterlimit:10;" d="M 118.15625 363.882812 L 116.792969 354.078125 "/>
<path style="fill:none;stroke-width:0.75;stroke-linecap:round;stroke-linejoin:round;stroke:rgb(66.27451%,66.27451%,66.27451%);stroke-opacity:1;stroke-miterlimit:10;" d="M 225.375 182.179688 L 243.050781 182.027344 "/>
<path style="fill:none;stroke-width:0.75;stroke-linecap:round;stroke-linejoin:round;stroke:rgb(66.27451%,66.27451%,66.27451%);stroke-opacity:1;stroke-miterlimit:10;" d="M 218.472656 192.628906 L 223.464844 207.597656 "/>
<path style="fill:none;stroke-width:0.75;stroke-linecap:round;stroke-linejoin:round;stroke:rgb(66.27451%,66.27451%,66.27451%);stroke-opacity:1;stroke-miterlimit:10;" d="M 204.652344 189.320312 L 192.644531 197.496094 "/>
<path style="fill:none;stroke-width:0.75;stroke-linecap:round;stroke-linejoin:round;stroke:rgb(66.27451%,66.27451%,66.27451%);stroke-opacity:1;stroke-miterlimit:10;" d="M 220.035156 171.902344 L 227.871094 155.738281 "/>
<path style="fill:none;stroke-width:0.75;stroke-linecap:round;stroke-linejoin:round;stroke:rgb(66.27451%,66.27451%,66.27451%);stroke-opacity:1;stroke-miterlimit:10;" d="M 205.28125 171.902344 L 198.386719 164.5625 "/>
<path style="fill:none;stroke-width:0.75;stroke-linecap:round;stroke-linejoin:round;stroke:rgb(66.27451%,66.27451%,66.27451%);stroke-opacity:1;stroke-miterlimit:10;" d="M 187.496094 452.089844 L 178.109375 462.675781 "/>
<path style="fill:none;stroke-width:0.75;stroke-linecap:round;stroke-linejoin:round;stroke:rgb(66.27451%,66.27451%,66.27451%);stroke-opacity:1;stroke-miterlimit:10;" d="M 485.792969 133.878906 L 494.1875 148.847656 "/>
<path style="fill:none;stroke-width:0.75;stroke-linecap:round;stroke-linejoin:round;stroke:rgb(66.27451%,66.27451%,66.27451%);stroke-opacity:1;stroke-miterlimit:10;" d="M 482.027344 129.320312 L 468.554688 117.972656 "/>
<path style="fill:none;stroke-width:0.75;stroke-linecap:round;stroke-linejoin:round;stroke:rgb(66.27451%,66.27451%,66.27451%);stroke-opacity:1;stroke-miterlimit:10;" d="M 491.460938 506.570312 L 497.289062 508.3125 "/>
<path style="fill:none;stroke-width:0.75;stroke-linecap:round;stroke-linejoin:round;stroke:rgb(66.27451%,66.27451%,66.27451%);stroke-opacity:1;stroke-miterlimit:10;" d="M 401.253906 98.144531 L 418.164062 103.519531 "/>
<path style="fill:none;stroke-width:0.75;stroke-linecap:round;stroke-linejoin:round;stroke:rgb(66.27451%,66.27451%,66.27451%);stroke-opacity:1;stroke-miterlimit:10;" d="M 525.019531 521.480469 L 511.410156 514.15625 "/>
<path style="fill:none;stroke-width:0.75;stroke-linecap:round;stroke-linejoin:round;stroke:rgb(66.27451%,66.27451%,66.27451%);stroke-opacity:1;stroke-miterlimit:10;" d="M 173.527344 328.726562 L 190.320312 331.683594 "/>
<path style="fill:none;stroke-width:0.75;stroke-linecap:round;stroke-linejoin:round;stroke:rgb(66.27451%,66.27451%,66.27451%);stroke-opacity:1;stroke-miterlimit:10;" d="M 167.851562 325.886719 L 155.097656 313.910156 "/>
<path style="fill:none;stroke-width:0.75;stroke-linecap:round;stroke-linejoin:round;stroke:rgb(66.27451%,66.27451%,66.27451%);stroke-opacity:1;stroke-miterlimit:10;" d="M 577.699219 429.992188 L 564.015625 436.074219 "/>
<path style="fill:none;stroke-width:0.75;stroke-linecap:round;stroke-linejoin:round;stroke:rgb(66.27451%,66.27451%,66.27451%);stroke-opacity:1;stroke-miterlimit:10;" d="M 235.863281 480.316406 L 246.871094 493.695312 "/>
<path style="fill:none;stroke-width:0.75;stroke-linecap:round;stroke-linejoin:round;stroke:rgb(66.27451%,66.27451%,66.27451%);stroke-opacity:1;stroke-miterlimit:10;" d="M 555.980469 378.082031 L 545.339844 379.429688 "/>
<path style="fill:none;stroke-width:0.75;stroke-linecap:round;stroke-linejoin:round;stroke:rgb(66.27451%,66.27451%,66.27451%);stroke-opacity:1;stroke-miterlimit:10;" d="M 196.710938 513.691406 L 181.503906 515.1875 "/>
<path style="fill:none;stroke-width:0.75;stroke-linecap:round;stroke-linejoin:round;stroke:rgb(66.27451%,66.27451%,66.27451%);stroke-opacity:1;stroke-miterlimit:10;" d="M 339.078125 611.511719 L 322.710938 609.769531 "/>
<path style="fill:none;stroke-width:0.75;stroke-linecap:round;stroke-linejoin:round;stroke:rgb(66.27451%,66.27451%,66.27451%);stroke-opacity:1;stroke-miterlimit:10;" d="M 628.054688 381.804688 L 632.210938 373.488281 "/>
<path style="fill:none;stroke-width:0.75;stroke-linecap:round;stroke-linejoin:round;stroke:rgb(66.27451%,66.27451%,66.27451%);stroke-opacity:1;stroke-miterlimit:10;" d="M 159.363281 404.355469 L 160.789062 402.726562 "/>
<path style="fill:none;stroke-width:0.75;stroke-linecap:round;stroke-linejoin:round;stroke:rgb(66.27451%,66.27451%,66.27451%);stroke-opacity:1;stroke-miterlimit:10;" d="M 178.796875 389.660156 L 180.695312 388.867188 "/>
<path style=" stroke:none;fill-rule:nonzero;fill:rgb(3.137255%,81.960784%,81.960784%);fill-opacity:1;" d="M 424.308594 507.351562 L 445.03125 507.351562 L 445.03125 528.074219 L 424.308594 528.074219 Z M 424.308594 507.351562 "/>
<path style=" stroke:none;fill-rule:nonzero;fill:rgb(3.137255%,81.960784%,81.960784%);fill-opacity:1;" d="M 274.847656 571.6875 C 274.847656 575.21875 269.550781 575.21875 269.550781 571.6875 C 269.550781 568.15625 274.847656 568.15625 274.847656 571.6875 "/>
<path style=" stroke:none;fill-rule:nonzero;fill:rgb(3.137255%,81.960784%,81.960784%);fill-opacity:1;" d="M 528.121094 137.269531 L 548.84375 137.269531 L 548.84375 157.992188 L 528.121094 157.992188 Z M 528.121094 137.269531 "/>
<path style=" stroke:none;fill-rule:nonzero;fill:rgb(3.137255%,81.960784%,81.960784%);fill-opacity:1;" d="M 622.222656 274.597656 C 622.222656 277.824219 619.609375 280.4375 616.382812 280.4375 C 613.160156 280.4375 610.546875 277.824219 610.546875 274.597656 C 610.546875 271.375 613.160156 268.761719 616.382812 268.761719 C 619.609375 268.761719 622.222656 271.375 622.222656 274.597656 "/>
<path style=" stroke:none;fill-rule:nonzero;fill:rgb(3.137255%,81.960784%,81.960784%);fill-opacity:1;" d="M 437.621094 605.746094 C 437.621094 612.359375 427.699219 612.359375 427.699219 605.746094 C 427.699219 599.132812 437.621094 599.132812 437.621094 605.746094 "/>
<path style=" stroke:none;fill-rule:nonzero;fill:rgb(3.137255%,81.960784%,81.960784%);fill-opacity:1;" d="M 518.335938 416.152344 C 518.335938 420.90625 514.480469 424.761719 509.726562 424.761719 C 504.972656 424.761719 501.121094 420.90625 501.121094 416.152344 C 501.121094 411.398438 504.972656 407.546875 509.726562 407.546875 C 514.480469 407.546875 518.335938 411.398438 518.335938 416.152344 "/>
<path style=" stroke:none;fill-rule:nonzero;fill:rgb(3.137255%,81.960784%,81.960784%);fill-opacity:1;" d="M 295.171875 163.789062 C 295.171875 167.441406 289.695312 167.441406 289.695312 163.789062 C 289.695312 160.136719 295.171875 160.136719 295.171875 163.789062 "/>
<path style=" stroke:none;fill-rule:nonzero;fill:rgb(3.137255%,81.960784%,81.960784%);fill-opacity:1;" d="M 269.332031 441.265625 C 269.332031 447.320312 260.25 447.320312 260.25 441.265625 C 260.25 435.207031 269.332031 435.207031 269.332031 441.265625 "/>
<path style=" stroke:none;fill-rule:nonzero;fill:rgb(3.137255%,81.960784%,81.960784%);fill-opacity:1;" d="M 571.960938 530.082031 C 571.960938 533.984375 566.113281 533.984375 566.113281 530.082031 C 566.113281 526.179688 571.960938 526.179688 571.960938 530.082031 "/>
<path style=" stroke:none;fill-rule:nonzero;fill:rgb(3.137255%,81.960784%,81.960784%);fill-opacity:1;" d="M 350.0625 93.753906 C 350.0625 98.816406 342.46875 98.816406 342.46875 93.753906 C 342.46875 88.6875 350.0625 88.6875 350.0625 93.753906 "/>
<path style=" stroke:none;fill-rule:nonzero;fill:rgb(3.137255%,81.960784%,81.960784%);fill-opacity:1;" d="M 533.136719 568.640625 C 533.136719 571.75 530.617188 574.269531 527.507812 574.269531 C 524.398438 574.269531 521.878906 571.75 521.878906 568.640625 C 521.878906 565.53125 524.398438 563.011719 527.507812 563.011719 C 530.617188 563.011719 533.136719 565.53125 533.136719 568.640625 "/>
<path style=" stroke:none;fill-rule:nonzero;fill:rgb(3.137255%,81.960784%,81.960784%);fill-opacity:1;" d="M 169.65625 227.347656 C 169.65625 231.074219 164.074219 231.074219 164.074219 227.347656 C 164.074219 223.625 169.65625 223.625 169.65625 227.347656 "/>
<path style=" stroke:none;fill-rule:nonzero;fill:rgb(3.137255%,81.960784%,81.960784%);fill-opacity:1;" d="M 122.15625 367.367188 C 122.15625 372.054688 115.125 372.054688 115.125 367.367188 C 115.125 362.679688 122.15625 362.679688 122.15625 367.367188 "/>
<path style=" stroke:none;fill-rule:nonzero;fill:rgb(3.137255%,81.960784%,81.960784%);fill-opacity:1;" d="M 204.652344 171.902344 L 225.375 171.902344 L 225.375 192.625 L 204.652344 192.625 Z M 204.652344 171.902344 "/>
<path style=" stroke:none;fill-rule:nonzero;fill:rgb(3.137255%,81.960784%,81.960784%);fill-opacity:1;" d="M 335.835938 253.40625 C 335.835938 257.257812 330.058594 257.257812 330.058594 253.40625 C 330.058594 249.554688 335.835938 249.554688 335.835938 253.40625 "/>
<path style=" stroke:none;fill-rule:nonzero;fill:rgb(3.137255%,81.960784%,81.960784%);fill-opacity:1;" d="M 244.636719 366.550781 C 244.636719 370.085938 239.339844 370.085938 239.339844 366.550781 C 239.339844 363.019531 244.636719 363.019531 244.636719 366.550781 "/>
<path style=" stroke:none;fill-rule:nonzero;fill:rgb(3.137255%,81.960784%,81.960784%);fill-opacity:1;" d="M 224.265625 300.496094 L 244.988281 300.496094 L 244.988281 321.21875 L 224.265625 321.21875 Z M 224.265625 300.496094 "/>
<path style=" stroke:none;fill-rule:nonzero;fill:rgb(3.137255%,81.960784%,81.960784%);fill-opacity:1;" d="M 376.722656 276.78125 C 376.722656 280.253906 371.519531 280.253906 371.519531 276.78125 C 371.519531 273.3125 376.722656 273.3125 376.722656 276.78125 "/>
<path style=" stroke:none;fill-rule:nonzero;fill:rgb(3.137255%,81.960784%,81.960784%);fill-opacity:1;" d="M 192.695312 449.75 C 192.695312 453.917969 186.445312 453.917969 186.445312 449.75 C 186.445312 445.582031 192.695312 445.582031 192.695312 449.75 "/>
<path style=" stroke:none;fill-rule:nonzero;fill:rgb(3.137255%,81.960784%,81.960784%);fill-opacity:1;" d="M 487.328125 131.257812 C 487.328125 135.261719 481.320312 135.261719 481.320312 131.257812 C 481.320312 127.253906 487.328125 127.253906 487.328125 131.257812 "/>
<path style=" stroke:none;fill-rule:nonzero;fill:rgb(3.137255%,81.960784%,81.960784%);fill-opacity:1;" d="M 606.839844 228.574219 C 606.839844 233.949219 598.773438 233.949219 598.773438 228.574219 C 598.773438 223.195312 606.839844 223.195312 606.839844 228.574219 "/>
<path style=" stroke:none;fill-rule:nonzero;fill:rgb(3.137255%,81.960784%,81.960784%);fill-opacity:1;" d="M 470.738281 493.109375 L 491.460938 493.109375 L 491.460938 513.832031 L 470.738281 513.832031 Z M 470.738281 493.109375 "/>
<path style=" stroke:none;fill-rule:nonzero;fill:rgb(3.137255%,81.960784%,81.960784%);fill-opacity:1;" d="M 401.382812 97.316406 C 401.382812 100.964844 395.917969 100.964844 395.917969 97.316406 C 395.917969 93.671875 401.382812 93.671875 401.382812 97.316406 "/>
<path style=" stroke:none;fill-rule:nonzero;fill:rgb(3.137255%,81.960784%,81.960784%);fill-opacity:1;" d="M 529.972656 522.730469 C 529.972656 526.242188 524.703125 526.242188 524.703125 522.730469 C 524.703125 519.21875 529.972656 519.21875 529.972656 522.730469 "/>
<path style=" stroke:none;fill-rule:nonzero;fill:rgb(3.137255%,81.960784%,81.960784%);fill-opacity:1;" d="M 144.4375 236.523438 C 144.4375 240.054688 139.140625 240.054688 139.140625 236.523438 C 139.140625 232.992188 144.4375 232.992188 144.4375 236.523438 "/>
<path style=" stroke:none;fill-rule:nonzero;fill:rgb(3.137255%,81.960784%,81.960784%);fill-opacity:1;" d="M 174.109375 254.878906 C 174.109375 258.761719 168.285156 258.761719 168.285156 254.878906 C 168.285156 250.996094 174.109375 250.996094 174.109375 254.878906 "/>
<path style=" stroke:none;fill-rule:nonzero;fill:rgb(3.137255%,81.960784%,81.960784%);fill-opacity:1;" d="M 369.414062 576.726562 C 369.414062 580.851562 363.222656 580.851562 363.222656 576.726562 C 363.222656 572.597656 369.414062 572.597656 369.414062 576.726562 "/>
<path style=" stroke:none;fill-rule:nonzero;fill:rgb(3.137255%,81.960784%,81.960784%);fill-opacity:1;" d="M 634.210938 317.453125 C 634.210938 321.316406 628.417969 321.316406 628.417969 317.453125 C 628.417969 313.59375 634.210938 313.59375 634.210938 317.453125 "/>
<path style=" stroke:none;fill-rule:nonzero;fill:rgb(3.137255%,81.960784%,81.960784%);fill-opacity:1;" d="M 537.75 318.742188 C 537.75 322.214844 532.539062 322.214844 532.539062 318.742188 C 532.539062 315.265625 537.75 315.265625 537.75 318.742188 "/>
<path style=" stroke:none;fill-rule:nonzero;fill:rgb(3.137255%,81.960784%,81.960784%);fill-opacity:1;" d="M 118.464844 420.421875 C 118.464844 423.980469 113.128906 423.980469 113.128906 420.421875 C 113.128906 416.863281 118.464844 416.863281 118.464844 420.421875 "/>
<path style=" stroke:none;fill-rule:nonzero;fill:rgb(3.137255%,81.960784%,81.960784%);fill-opacity:1;" d="M 356.039062 117.648438 L 376.761719 117.648438 L 376.761719 138.371094 L 356.039062 138.371094 Z M 356.039062 117.648438 "/>
<path style=" stroke:none;fill-rule:nonzero;fill:rgb(3.137255%,81.960784%,81.960784%);fill-opacity:1;" d="M 104.992188 333.355469 L 125.714844 333.355469 L 125.714844 354.078125 L 104.992188 354.078125 Z M 104.992188 333.355469 "/>
<path style=" stroke:none;fill-rule:nonzero;fill:rgb(3.137255%,81.960784%,81.960784%);fill-opacity:1;" d="M 397.632812 463.6875 C 397.632812 467.480469 391.945312 467.480469 391.945312 463.6875 C 391.945312 459.898438 397.632812 459.898438 397.632812 463.6875 "/>
<path style=" stroke:none;fill-rule:nonzero;fill:rgb(3.137255%,81.960784%,81.960784%);fill-opacity:1;" d="M 173.578125 328.152344 C 173.578125 332.570312 166.953125 332.570312 166.953125 328.152344 C 166.953125 323.734375 173.578125 323.734375 173.578125 328.152344 "/>
<path style=" stroke:none;fill-rule:nonzero;fill:rgb(3.137255%,81.960784%,81.960784%);fill-opacity:1;" d="M 345.851562 538.242188 C 345.851562 541.742188 340.605469 541.742188 340.605469 538.242188 C 340.605469 534.746094 345.851562 534.746094 345.851562 538.242188 "/>
<path style=" stroke:none;fill-rule:nonzero;fill:rgb(3.137255%,81.960784%,81.960784%);fill-opacity:1;" d="M 461.664062 275.0625 C 461.664062 278.742188 456.144531 278.742188 456.144531 275.0625 C 456.144531 271.378906 461.664062 271.378906 461.664062 275.0625 "/>
<path style=" stroke:none;fill-rule:nonzero;fill:rgb(3.137255%,81.960784%,81.960784%);fill-opacity:1;" d="M 290.414062 388.816406 C 290.414062 392.335938 285.136719 392.335938 285.136719 388.816406 C 285.136719 385.296875 290.414062 385.296875 290.414062 388.816406 "/>
<path style=" stroke:none;fill-rule:nonzero;fill:rgb(3.137255%,81.960784%,81.960784%);fill-opacity:1;" d="M 262.90625 548.949219 C 262.90625 552.414062 257.710938 552.414062 257.710938 548.949219 C 257.710938 545.484375 262.90625 545.484375 262.90625 548.949219 "/>
<path style=" stroke:none;fill-rule:nonzero;fill:rgb(18.039216%,56.862745%,73.72549%);fill-opacity:1;" d="M 519.207031 233.707031 C 519.207031 237.703125 513.210938 237.703125 513.210938 233.707031 C 513.210938 229.710938 519.207031 229.710938 519.207031 233.707031 "/>
<path style=" stroke:none;fill-rule:nonzero;fill:rgb(18.039216%,35.294118%,73.72549%);fill-opacity:1;" d="M 379.152344 220.863281 C 379.152344 224.34375 373.929688 224.34375 373.929688 220.863281 C 373.929688 217.382812 379.152344 217.382812 379.152344 220.863281 "/>
<path style=" stroke:none;fill-rule:nonzero;fill:rgb(18.039216%,35.294118%,73.72549%);fill-opacity:1;" d="M 365.3125 160.433594 L 386.035156 160.433594 L 386.035156 181.15625 L 365.3125 181.15625 Z M 365.3125 160.433594 "/>
<path style=" stroke:none;fill-rule:nonzero;fill:rgb(18.039216%,35.294118%,73.72549%);fill-opacity:1;" d="M 309.125 293.660156 C 309.125 297.492188 303.378906 297.492188 303.378906 293.660156 C 303.378906 289.828125 309.125 289.828125 309.125 293.660156 "/>
<path style=" stroke:none;fill-rule:nonzero;fill:rgb(18.039216%,35.294118%,73.72549%);fill-opacity:1;" d="M 500.207031 152.375 C 500.207031 157.761719 492.125 157.761719 492.125 152.375 C 492.125 146.984375 500.207031 146.984375 500.207031 152.375 "/>
<path style=" stroke:none;fill-rule:nonzero;fill:rgb(87.843137%,65.098039%,3.137255%);fill-opacity:1;" d="M 583.019531 428.863281 C 583.019531 432.566406 577.460938 432.566406 577.460938 428.863281 C 577.460938 425.15625 583.019531 425.15625 583.019531 428.863281 "/>
<path style=" stroke:none;fill-rule:nonzero;fill:rgb(87.843137%,65.098039%,3.137255%);fill-opacity:1;" d="M 582.636719 316.394531 C 582.636719 323.558594 571.890625 323.558594 571.890625 316.394531 C 571.890625 309.230469 582.636719 309.230469 582.636719 316.394531 "/>
<path style=" stroke:none;fill-rule:nonzero;fill:rgb(3.529412%,44.705882%,39.607843%);fill-opacity:1;" d="M 550.535156 218.320312 L 571.257812 218.320312 L 571.257812 239.042969 L 550.535156 239.042969 Z M 550.535156 218.320312 "/>
<path style=" stroke:none;fill-rule:nonzero;fill:rgb(3.529412%,44.705882%,39.607843%);fill-opacity:1;" d="M 420.976562 257.757812 C 420.976562 264.417969 410.984375 264.417969 410.984375 257.757812 C 410.984375 251.09375 420.976562 251.09375 420.976562 257.757812 "/>
<path style=" stroke:none;fill-rule:nonzero;fill:rgb(3.529412%,44.705882%,39.607843%);fill-opacity:1;" d="M 237.15625 477.578125 C 237.15625 482.308594 230.0625 482.308594 230.0625 477.578125 C 230.0625 472.851562 237.15625 472.851562 237.15625 477.578125 "/>
<path style=" stroke:none;fill-rule:nonzero;fill:rgb(3.529412%,44.705882%,39.607843%);fill-opacity:1;" d="M 197.527344 332.3125 C 197.527344 337.15625 190.265625 337.15625 190.265625 332.3125 C 190.265625 327.472656 197.527344 327.472656 197.527344 332.3125 "/>
<path style=" stroke:none;fill-rule:nonzero;fill:rgb(67.058824%,33.72549%,84.705882%);fill-opacity:1;" d="M 270.796875 121.917969 C 270.796875 128.4375 261.015625 128.4375 261.015625 121.917969 C 261.015625 115.398438 270.796875 115.398438 270.796875 121.917969 "/>
<path style=" stroke:none;fill-rule:nonzero;fill:rgb(67.058824%,33.72549%,84.705882%);fill-opacity:1;" d="M 248.351562 182.007812 C 248.351562 185.539062 243.050781 185.539062 243.050781 182.007812 C 243.050781 178.476562 248.351562 178.476562 248.351562 182.007812 "/>
<path style=" stroke:none;fill-rule:nonzero;fill:rgb(67.058824%,33.72549%,84.705882%);fill-opacity:1;" d="M 434.144531 551.152344 L 454.867188 551.152344 L 454.867188 571.875 L 434.144531 571.875 Z M 434.144531 551.152344 "/>
<path style=" stroke:none;fill-rule:nonzero;fill:rgb(67.058824%,33.72549%,84.705882%);fill-opacity:1;" d="M 564.433594 438.039062 C 564.433594 444.484375 554.765625 444.484375 554.765625 438.039062 C 554.765625 431.597656 564.433594 431.597656 564.433594 438.039062 "/>
<path style=" stroke:none;fill-rule:nonzero;fill:rgb(3.921569%,62.745098%,12.156863%);fill-opacity:1;" d="M 555.980469 366.40625 L 576.703125 366.40625 L 576.703125 387.128906 L 555.980469 387.128906 Z M 555.980469 366.40625 "/>
<path style=" stroke:none;fill-rule:nonzero;fill:rgb(3.921569%,62.745098%,12.156863%);fill-opacity:1;" d="M 229.050781 211.621094 C 229.050781 217.277344 220.570312 217.277344 220.570312 211.621094 C 220.570312 205.96875 229.050781 205.96875 229.050781 211.621094 "/>
<path style=" stroke:none;fill-rule:nonzero;fill:rgb(3.921569%,62.745098%,12.156863%);fill-opacity:1;" d="M 202.171875 513.421875 C 202.171875 517.074219 196.695312 517.074219 196.695312 513.421875 C 196.695312 509.773438 202.171875 509.773438 202.171875 513.421875 "/>
<path style=" stroke:none;fill-rule:nonzero;fill:rgb(3.921569%,62.745098%,12.156863%);fill-opacity:1;" d="M 401.371094 140.652344 L 422.09375 140.652344 L 422.09375 161.375 L 401.371094 161.375 Z M 401.371094 140.652344 "/>
<path style=" stroke:none;fill-rule:nonzero;fill:rgb(3.921569%,62.745098%,12.156863%);fill-opacity:1;" d="M 219.410156 552.136719 C 219.410156 559.289062 213.613281 565.089844 206.460938 565.089844 C 199.304688 565.089844 193.507812 559.289062 193.507812 552.136719 C 193.507812 544.984375 199.304688 539.183594 206.460938 539.183594 C 213.613281 539.183594 219.410156 544.984375 219.410156 552.136719 "/>
<path style=" stroke:none;fill-rule:nonzero;fill:rgb(3.921569%,62.745098%,12.156863%);fill-opacity:1;" d="M 567.046875 177.757812 L 587.769531 177.757812 L 587.769531 198.480469 L 567.046875 198.480469 Z M 567.046875 177.757812 "/>
<path style=" stroke:none;fill-rule:nonzero;fill:rgb(3.921569%,62.745098%,12.156863%);fill-opacity:1;" d="M 344.429688 611.796875 C 344.429688 615.371094 339.0625 615.371094 339.0625 611.796875 C 339.0625 608.21875 344.429688 608.21875 344.429688 611.796875 "/>
<path style=" stroke:none;fill-rule:nonzero;fill:rgb(3.921569%,62.745098%,12.156863%);fill-opacity:1;" d="M 252.085938 261.410156 L 272.808594 261.410156 L 272.808594 282.132812 L 252.085938 282.132812 Z M 252.085938 261.410156 "/>
<path style=" stroke:none;fill-rule:nonzero;fill:rgb(3.921569%,62.745098%,12.156863%);fill-opacity:1;" d="M 436.773438 366.765625 C 436.773438 371.746094 429.300781 371.746094 429.300781 366.765625 C 429.300781 361.78125 436.773438 361.78125 436.773438 366.765625 "/>
<path style=" stroke:none;fill-rule:nonzero;fill:rgb(3.921569%,62.745098%,12.156863%);fill-opacity:1;" d="M 539.691406 187.910156 C 539.691406 191.367188 534.511719 191.367188 534.511719 187.910156 C 534.511719 184.457031 539.691406 184.457031 539.691406 187.910156 "/>
<path style=" stroke:none;fill-rule:nonzero;fill:rgb(3.921569%,62.745098%,12.156863%);fill-opacity:1;" d="M 279.980469 332.460938 C 279.980469 336.253906 274.289062 336.253906 274.289062 332.460938 C 274.289062 328.667969 279.980469 328.667969 279.980469 332.460938 "/>
<path style=" stroke:none;fill-rule:nonzero;fill:rgb(3.921569%,62.745098%,12.156863%);fill-opacity:1;" d="M 535.878906 261.105469 L 556.601562 261.105469 L 556.601562 281.828125 L 535.878906 281.828125 Z M 535.878906 261.105469 "/>
<path style=" stroke:none;fill-rule:nonzero;fill:rgb(3.921569%,62.745098%,12.156863%);fill-opacity:1;" d="M 491.605469 272.289062 L 512.328125 272.289062 L 512.328125 293.011719 L 491.605469 293.011719 Z M 491.605469 272.289062 "/>
<path style=" stroke:none;fill-rule:nonzero;fill:rgb(3.921569%,62.745098%,12.156863%);fill-opacity:1;" d="M 545.363281 379.792969 C 545.363281 383.664062 539.558594 383.664062 539.558594 379.792969 C 539.558594 375.921875 545.363281 375.921875 545.363281 379.792969 "/>
<path style=" stroke:none;fill-rule:nonzero;fill:rgb(3.921569%,62.745098%,12.156863%);fill-opacity:1;" d="M 340.648438 185.769531 C 340.648438 189.367188 335.253906 189.367188 335.253906 185.769531 C 335.253906 182.171875 340.648438 182.171875 340.648438 185.769531 "/>
<path style=" stroke:none;fill-rule:nonzero;fill:rgb(3.921569%,62.745098%,12.156863%);fill-opacity:1;" d="M 299.253906 204.382812 L 319.976562 204.382812 L 319.976562 225.105469 L 299.253906 225.105469 Z M 299.253906 204.382812 "/>
<path style=" stroke:none;fill-rule:nonzero;fill:rgb(3.921569%,62.745098%,12.156863%);fill-opacity:1;" d="M 315.613281 569.167969 C 315.613281 572.957031 309.929688 572.957031 309.929688 569.167969 C 309.929688 565.382812 315.613281 565.382812 315.613281 569.167969 "/>
<path style=" stroke:none;fill-rule:nonzero;fill:rgb(3.921569%,62.745098%,12.156863%);fill-opacity:1;" d="M 612.515625 381.804688 L 633.238281 381.804688 L 633.238281 402.527344 L 612.515625 402.527344 Z M 612.515625 381.804688 "/>
<path style=" stroke:none;fill-rule:nonzero;fill:rgb(3.921569%,62.745098%,12.156863%);fill-opacity:1;" d="M 636.21875 371.007812 C 636.21875 374.703125 630.675781 374.703125 630.675781 371.007812 C 630.675781 367.3125 636.21875 367.3125 636.21875 371.007812 "/>
<path style=" stroke:none;fill-rule:nonzero;fill:rgb(3.921569%,62.745098%,12.156863%);fill-opacity:1;" d="M 501.125 196.460938 C 501.125 202.15625 496.507812 206.773438 490.808594 206.773438 C 485.113281 206.773438 480.496094 202.15625 480.496094 196.460938 C 480.496094 190.765625 485.113281 186.144531 490.808594 186.144531 C 496.507812 186.144531 501.125 190.765625 501.125 196.460938 "/>
<path style=" stroke:none;fill-rule:nonzero;fill:rgb(3.921569%,62.745098%,12.156863%);fill-opacity:1;" d="M 424.3125 206.265625 C 424.3125 209.957031 418.769531 209.957031 418.769531 206.265625 C 418.769531 202.570312 424.3125 202.570312 424.3125 206.265625 "/>
<path style=" stroke:none;fill-rule:nonzero;fill:rgb(3.921569%,62.745098%,12.156863%);fill-opacity:1;" d="M 423.8125 104.394531 C 423.8125 108.25 418.027344 108.25 418.027344 104.394531 C 418.027344 100.535156 423.8125 100.535156 423.8125 104.394531 "/>
<path style=" stroke:none;fill-rule:nonzero;fill:rgb(3.921569%,62.745098%,12.156863%);fill-opacity:1;" d="M 419.339844 314.269531 C 419.339844 317.839844 413.984375 317.839844 413.984375 314.269531 C 413.984375 310.699219 419.339844 310.699219 419.339844 314.269531 "/>
<path style=" stroke:none;fill-rule:nonzero;fill:rgb(3.921569%,62.745098%,12.156863%);fill-opacity:1;" d="M 299.5625 419.253906 L 320.285156 419.253906 L 320.285156 439.976562 L 299.5625 439.976562 Z M 299.5625 419.253906 "/>
<path style=" stroke:none;fill-rule:nonzero;fill:rgb(3.921569%,62.745098%,12.156863%);fill-opacity:1;" d="M 427.125 459.324219 L 447.847656 459.324219 L 447.847656 480.046875 L 427.125 480.046875 Z M 427.125 459.324219 "/>
<path style=" stroke:none;fill-rule:nonzero;fill:rgb(3.921569%,62.745098%,12.156863%);fill-opacity:1;" d="M 290.960938 92.199219 L 311.683594 92.199219 L 311.683594 112.921875 L 290.960938 112.921875 Z M 290.960938 92.199219 "/>
<path style=" stroke:none;fill-rule:nonzero;fill:rgb(3.921569%,62.745098%,12.156863%);fill-opacity:1;" d="M 343.589844 432.734375 L 364.3125 432.734375 L 364.3125 453.457031 L 343.589844 453.457031 Z M 343.589844 432.734375 "/>
<path style=" stroke:none;fill-rule:nonzero;fill:rgb(3.921569%,62.745098%,12.156863%);fill-opacity:1;" d="M 293.925781 469.554688 L 314.648438 469.554688 L 314.648438 490.277344 L 293.925781 490.277344 Z M 293.925781 469.554688 "/>
<path style=" stroke:none;fill-rule:nonzero;fill:rgb(3.921569%,62.745098%,12.156863%);fill-opacity:1;" d="M 592.800781 470.316406 L 613.523438 470.316406 L 613.523438 491.039062 L 592.800781 491.039062 Z M 592.800781 470.316406 "/>
<path style=" stroke:none;fill-rule:nonzero;fill:rgb(3.921569%,62.745098%,12.156863%);fill-opacity:1;" d="M 158.074219 383.628906 L 178.796875 383.628906 L 178.796875 404.351562 L 158.074219 404.351562 Z M 158.074219 383.628906 "/>
<path style=" stroke:none;fill-rule:nonzero;fill:rgb(3.921569%,62.745098%,12.156863%);fill-opacity:1;" d="M 125.863281 460.304688 L 146.585938 460.304688 L 146.585938 481.027344 L 125.863281 481.027344 Z M 125.863281 460.304688 "/>
<path style=" stroke:none;fill-rule:nonzero;fill:rgb(3.921569%,62.745098%,12.156863%);fill-opacity:1;" d="M 110.335938 276.890625 L 131.058594 276.890625 L 131.058594 297.613281 L 110.335938 297.613281 Z M 110.335938 276.890625 "/>
<path style=" stroke:none;fill-rule:nonzero;fill:rgb(3.921569%,62.745098%,12.156863%);fill-opacity:1;" d="M 382.359375 601.484375 L 403.082031 601.484375 L 403.082031 622.207031 L 382.359375 622.207031 Z M 382.359375 601.484375 "/>
<path style=" stroke:none;fill-rule:nonzero;fill:rgb(15.294118%,28.627451%,27.058824%);fill-opacity:1;" d="M 513.59375 453.921875 L 534.316406 453.921875 L 534.316406 474.644531 L 513.59375 474.644531 Z M 513.59375 453.921875 "/>
<path style=" stroke:none;fill-rule:nonzero;fill:rgb(15.294118%,28.627451%,27.058824%);fill-opacity:1;" d="M 312.96875 126.804688 L 333.691406 126.804688 L 333.691406 147.527344 L 312.96875 147.527344 Z M 312.96875 126.804688 "/>
<path style=" stroke:none;fill-rule:nonzero;fill:rgb(15.294118%,28.627451%,27.058824%);fill-opacity:1;" d="M 408.496094 406.996094 L 429.21875 406.996094 L 429.21875 427.71875 L 408.496094 427.71875 Z M 408.496094 406.996094 "/>
<path style=" stroke:none;fill-rule:nonzero;fill:rgb(15.294118%,28.627451%,27.058824%);fill-opacity:1;" d="M 596.027344 274.511719 C 596.027344 278.792969 589.609375 278.792969 589.609375 274.511719 C 589.609375 270.234375 596.027344 270.234375 596.027344 274.511719 "/>
<path style=" stroke:none;fill-rule:nonzero;fill:rgb(15.294118%,28.627451%,27.058824%);fill-opacity:1;" d="M 491.890625 558.730469 C 491.890625 565 482.488281 565 482.488281 558.730469 C 482.488281 552.464844 491.890625 552.464844 491.890625 558.730469 "/>
<path style=" stroke:none;fill-rule:nonzero;fill:rgb(70.196078%,14.901961%,35.686275%);fill-opacity:1;" d="M 233.441406 413.976562 C 233.441406 417.53125 228.113281 417.53125 228.113281 413.976562 C 228.113281 410.421875 233.441406 410.421875 233.441406 413.976562 "/>
<path style=" stroke:none;fill-rule:nonzero;fill:rgb(18.039216%,73.72549%,27.058824%);fill-opacity:1;" d="M 365.734375 398.019531 C 365.734375 401.9375 359.855469 401.9375 359.855469 398.019531 C 359.855469 394.101562 365.734375 394.101562 365.734375 398.019531 "/>
<path style=" stroke:none;fill-rule:nonzero;fill:rgb(18.039216%,73.72549%,27.058824%);fill-opacity:1;" d="M 390.691406 357.996094 C 390.691406 364.695312 380.644531 364.695312 380.644531 357.996094 C 380.644531 351.300781 390.691406 351.300781 390.691406 357.996094 "/>
<path style=" stroke:none;fill-rule:nonzero;fill:rgb(18.039216%,73.72549%,27.058824%);fill-opacity:1;" d="M 194.042969 202.042969 C 194.042969 206.503906 190.425781 210.121094 185.964844 210.121094 C 181.503906 210.121094 177.886719 206.503906 177.886719 202.042969 C 177.886719 197.582031 181.503906 193.964844 185.964844 193.964844 C 190.425781 193.964844 194.042969 197.582031 194.042969 202.042969 "/>
<path style=" stroke:none;fill-rule:nonzero;fill:rgb(18.039216%,73.72549%,27.058824%);fill-opacity:1;" d="M 232.664062 152.734375 C 232.664062 157.183594 225.988281 157.183594 225.988281 152.734375 C 225.988281 148.285156 232.664062 148.285156 232.664062 152.734375 "/>
<path style=" stroke:none;fill-rule:nonzero;fill:rgb(18.039216%,73.72549%,27.058824%);fill-opacity:1;" d="M 477.078125 446.585938 C 477.078125 450.265625 471.5625 450.265625 471.5625 446.585938 C 471.5625 442.90625 477.078125 442.90625 477.078125 446.585938 "/>
<path style=" stroke:none;fill-rule:nonzero;fill:rgb(18.039216%,73.72549%,27.058824%);fill-opacity:1;" d="M 392.4375 518.691406 C 392.4375 522.496094 386.726562 522.496094 386.726562 518.691406 C 386.726562 514.886719 392.4375 514.886719 392.4375 518.691406 "/>
<path style=" stroke:none;fill-rule:nonzero;fill:rgb(18.039216%,73.72549%,27.058824%);fill-opacity:1;" d="M 622.777344 438.03125 C 622.777344 441.667969 617.320312 441.667969 617.320312 438.03125 C 617.320312 434.394531 622.777344 434.394531 622.777344 438.03125 "/>
<path style=" stroke:none;fill-rule:nonzero;fill:rgb(18.039216%,73.72549%,27.058824%);fill-opacity:1;" d="M 180.140625 467.183594 C 180.140625 470.515625 177.441406 473.214844 174.113281 473.214844 C 170.78125 473.214844 168.082031 470.515625 168.082031 467.183594 C 168.082031 463.855469 170.78125 461.15625 174.113281 461.15625 C 177.441406 461.15625 180.140625 463.855469 180.140625 467.183594 "/>
<path style=" stroke:none;fill-rule:nonzero;fill:rgb(18.039216%,73.72549%,27.058824%);fill-opacity:1;" d="M 469.515625 115.339844 C 469.515625 120.78125 461.351562 120.78125 461.351562 115.339844 C 461.351562 109.902344 469.515625 109.902344 469.515625 115.339844 "/>
<path style=" stroke:none;fill-rule:nonzero;fill:rgb(18.039216%,73.72549%,27.058824%);fill-opacity:1;" d="M 506.5625 353.183594 C 506.5625 357.261719 500.445312 357.261719 500.445312 353.183594 C 500.445312 349.105469 506.5625 349.105469 506.5625 353.183594 "/>
<path style=" stroke:none;fill-rule:nonzero;fill:rgb(18.039216%,73.72549%,27.058824%);fill-opacity:1;" d="M 512.328125 510.515625 C 512.328125 514.757812 508.886719 518.195312 504.644531 518.195312 C 500.402344 518.195312 496.964844 514.757812 496.964844 510.515625 C 496.964844 506.273438 500.402344 502.832031 504.644531 502.832031 C 508.886719 502.832031 512.328125 506.273438 512.328125 510.515625 "/>
<path style=" stroke:none;fill-rule:nonzero;fill:rgb(18.039216%,73.72549%,27.058824%);fill-opacity:1;" d="M 353.34375 493 C 353.34375 496.570312 347.988281 496.570312 347.988281 493 C 347.988281 489.429688 353.34375 489.429688 353.34375 493 "/>
<path style=" stroke:none;fill-rule:nonzero;fill:rgb(18.039216%,73.72549%,27.058824%);fill-opacity:1;" d="M 326.367188 358.125 C 326.367188 361.679688 321.03125 361.679688 321.03125 358.125 C 321.03125 354.566406 326.367188 354.566406 326.367188 358.125 "/>
<path style=" stroke:none;fill-rule:nonzero;fill:rgb(18.039216%,73.72549%,27.058824%);fill-opacity:1;" d="M 156.101562 311.371094 C 156.101562 316.3125 148.691406 316.3125 148.691406 311.371094 C 148.691406 306.433594 156.101562 306.433594 156.101562 311.371094 "/>
<path style=" stroke:none;fill-rule:nonzero;fill:rgb(18.039216%,73.72549%,27.058824%);fill-opacity:1;" d="M 251.996094 496.117188 C 251.996094 500.292969 245.730469 500.292969 245.730469 496.117188 C 245.730469 491.9375 251.996094 491.9375 251.996094 496.117188 "/>
<path style=" stroke:none;fill-rule:nonzero;fill:rgb(18.039216%,73.72549%,27.058824%);fill-opacity:1;" d="M 214.722656 272.175781 C 214.722656 275.753906 209.359375 275.753906 209.359375 272.175781 C 209.359375 268.597656 214.722656 268.597656 214.722656 272.175781 "/>
<path style=" stroke:none;fill-rule:nonzero;fill:rgb(18.039216%,73.72549%,27.058824%);fill-opacity:1;" d="M 356.652344 318.859375 C 356.652344 323.90625 349.082031 323.90625 349.082031 318.859375 C 349.082031 313.8125 356.652344 313.8125 356.652344 318.859375 "/>
<path style=" stroke:none;fill-rule:nonzero;fill:rgb(18.039216%,73.72549%,27.058824%);fill-opacity:1;" d="M 181.53125 515.699219 C 181.53125 522.671875 171.070312 522.671875 171.070312 515.699219 C 171.070312 508.726562 181.53125 508.726562 181.53125 515.699219 "/>
<path style=" stroke:none;fill-rule:nonzero;fill:rgb(18.039216%,73.72549%,27.058824%);fill-opacity:1;" d="M 238.640625 583.03125 C 238.640625 586.535156 233.382812 586.535156 233.382812 583.03125 C 233.382812 579.527344 238.640625 579.527344 238.640625 583.03125 "/>
<path style=" stroke:none;fill-rule:nonzero;fill:rgb(18.039216%,73.72549%,27.058824%);fill-opacity:1;" d="M 322.742188 609.203125 C 322.742188 616.324219 312.058594 616.324219 312.058594 609.203125 C 312.058594 602.085938 322.742188 602.085938 322.742188 609.203125 "/>
<path style=" stroke:none;fill-rule:nonzero;fill:rgb(18.039216%,73.72549%,27.058824%);fill-opacity:1;" d="M 473.683594 393.199219 C 473.683594 398.816406 465.257812 398.816406 465.257812 393.199219 C 465.257812 387.582031 473.683594 387.582031 473.683594 393.199219 "/>
<path style=" stroke:none;fill-rule:nonzero;fill:rgb(18.039216%,73.72549%,27.058824%);fill-opacity:1;" d="M 468.355469 228.449219 C 468.355469 234.300781 459.582031 234.300781 459.582031 228.449219 C 459.582031 222.601562 468.355469 222.601562 468.355469 228.449219 "/>
<path style=" stroke:none;fill-rule:nonzero;fill:rgb(18.039216%,73.72549%,27.058824%);fill-opacity:1;" d="M 274.832031 230.960938 C 274.832031 234.84375 269.003906 234.84375 269.003906 230.960938 C 269.003906 227.074219 274.832031 227.074219 274.832031 230.960938 "/>
<path style=" stroke:none;fill-rule:nonzero;fill:rgb(18.039216%,73.72549%,27.058824%);fill-opacity:1;" d="M 603.914062 348.183594 C 603.914062 353.359375 596.148438 353.359375 596.148438 348.183594 C 596.148438 343.007812 603.914062 343.007812 603.914062 348.183594 "/>
<path style=" stroke:none;fill-rule:nonzero;fill:rgb(18.039216%,73.72549%,27.058824%);fill-opacity:1;" d="M 450.035156 169.273438 C 450.035156 172.757812 444.808594 172.757812 444.808594 169.273438 C 444.808594 165.792969 450.035156 165.792969 450.035156 169.273438 "/>
<path style=" stroke:none;fill-rule:nonzero;fill:rgb(18.039216%,73.72549%,27.058824%);fill-opacity:1;" d="M 199.804688 161.285156 C 199.804688 167.28125 190.8125 167.28125 190.8125 161.285156 C 190.8125 155.292969 199.804688 155.292969 199.804688 161.285156 "/>
<path style=" stroke:none;fill-rule:nonzero;fill:rgb(18.039216%,73.72549%,27.058824%);fill-opacity:1;" d="M 556.097656 478.585938 L 576.820312 478.585938 L 576.820312 499.308594 L 556.097656 499.308594 Z M 556.097656 478.585938 "/>
<path style=" stroke:none;fill-rule:nonzero;fill:rgb(80.784314%,49.411765%,0%);fill-opacity:1;" d="M 457.894531 314.785156 L 478.617188 314.785156 L 478.617188 335.507812 L 457.894531 335.507812 Z M 457.894531 314.785156 "/>
<path style=" stroke:none;fill-rule:nonzero;fill:rgb(41.568627%,32.156863%,77.647059%);fill-opacity:1;" d="M 393.355469 552.125 L 414.078125 552.125 L 414.078125 572.847656 L 393.355469 572.847656 Z M 393.355469 552.125 "/>
<path style=" stroke:none;fill-rule:nonzero;fill:rgb(41.568627%,32.156863%,77.647059%);fill-opacity:1;" d="M 141.355469 402.726562 L 162.078125 402.726562 L 162.078125 423.449219 L 141.355469 423.449219 Z M 141.355469 402.726562 "/>
<path style=" stroke:none;fill-rule:nonzero;fill:rgb(41.568627%,32.156863%,77.647059%);fill-opacity:1;" d="M 465.152344 585.566406 L 485.875 585.566406 L 485.875 606.289062 L 465.152344 606.289062 Z M 465.152344 585.566406 "/>
<path style=" stroke:none;fill-rule:nonzero;fill:rgb(41.568627%,32.156863%,77.647059%);fill-opacity:1;" d="M 285.316406 510.601562 L 306.039062 510.601562 L 306.039062 531.324219 L 285.316406 531.324219 Z M 285.316406 510.601562 "/>
<path style=" stroke:none;fill-rule:nonzero;fill:rgb(67.843137%,55.294118%,55.294118%);fill-opacity:1;" d="M 180.695312 374.175781 L 201.417969 374.175781 L 201.417969 394.898438 L 180.695312 394.898438 Z M 180.695312 374.175781 "/>
</g>
</svg>
