<?xml version="1.0" encoding="UTF-8"?>
<svg xmlns="http://www.w3.org/2000/svg" xmlns:xlink="http://www.w3.org/1999/xlink" width="720pt" height="720pt" viewBox="0 0 720 720" version="1.1">
<g id="surface3018">
<path style=" stroke:none;fill-rule:nonzero;fill:rgb(95.686275%,95.686275%,95.686275%);fill-opacity:1;" d="M 572.09375 532.273438 L 569.652344 531.964844 L 567.257812 531.070312 L 564.964844 529.679688 L 562.808594 527.933594 L 560.777344 525.988281 L 558.792969 523.992188 L 556.886719 521.941406 L 555.175781 519.835938 L 553.789062 517.714844 L 552.828125 515.636719 L 552.542969 514.699219 L 552.296875 512.488281 L 552.683594 510.488281 L 553.582031 508.726562 L 554.820312 507.1875 L 556.191406 505.75 L 557.65625 504.222656 L 559.324219 502.5 L 561.214844 500.558594 L 563.296875 498.433594 L 563.394531 498.335938 L 565.292969 496.410156 L 567.253906 494.425781 L 569.226562 492.445312 L 571.152344 490.511719 L 573.023438 488.644531 L 574.875 486.808594 L 576.800781 485.074219 L 578.855469 483.589844 L 581.023438 482.492188 L 583.261719 481.886719 L 584.585938 481.789062 L 586.9375 482.097656 L 589.238281 482.980469 L 591.4375 484.347656 L 593.5 486.054688 L 595.445312 487.9375 L 597.351562 489.867188 L 599.175781 491.855469 L 600.796875 493.910156 L 602.101562 495.976562 L 603 497.996094 L 603.109375 498.335938 L 603.476562 500.308594 L 603.363281 502.132812 L 602.839844 503.773438 L 602.019531 505.230469 L 601.050781 506.570312 L 600.019531 507.925781 L 598.835938 509.433594 L 597.425781 511.144531 L 595.78125 513.054688 L 594.316406 514.699219 L 592.515625 516.660156 L 590.601562 518.6875 L 588.625 520.734375 L 586.652344 522.742188 L 584.710938 524.695312 L 582.785156 526.609375 L 580.796875 528.441406 L 578.6875 530.050781 L 576.453125 531.292969 L 574.132812 532.058594 Z M 572.09375 532.273438 "/>
<path style=" stroke:none;fill-rule:nonzero;fill:rgb(95.686275%,95.686275%,95.686275%);fill-opacity:1;" d="M 168.8125 237.132812 L 166.113281 236.832031 L 163.449219 235.957031 L 160.875 234.578125 L 158.421875 232.800781 L 156.105469 230.75 L 153.882812 228.566406 L 151.6875 226.351562 L 149.523438 224.082031 L 147.453125 221.75 L 145.5625 219.390625 L 143.917969 217.054688 L 142.621094 214.863281 L 141.5 212.410156 L 140.820312 210.136719 L 140.554688 208.085938 L 140.617188 206.257812 L 140.890625 204.601562 L 141.234375 202.984375 L 141.707031 201.246094 L 142.4375 199.300781 L 143.492188 197.128906 L 144.90625 194.75 L 145.675781 193.597656 L 147.316406 191.355469 L 149.183594 189.039062 L 151.214844 186.703125 L 153.355469 184.394531 L 155.535156 182.144531 L 157.71875 179.949219 L 159.917969 177.785156 L 162.207031 175.746094 L 164.632812 173.964844 L 167.179688 172.574219 L 169.8125 171.671875 L 172.488281 171.332031 L 172.699219 171.328125 L 175.402344 171.628906 L 178.0625 172.503906 L 180.640625 173.882812 L 183.089844 175.664062 L 185.40625 177.714844 L 187.628906 179.894531 L 189.828125 182.109375 L 191.992188 184.382812 L 194.058594 186.710938 L 195.953125 189.070312 L 197.597656 191.40625 L 198.894531 193.597656 L 200.015625 196.054688 L 200.691406 198.324219 L 200.957031 200.378906 L 200.894531 202.207031 L 200.621094 203.863281 L 200.28125 205.480469 L 199.804688 207.214844 L 199.078125 209.164062 L 198.019531 211.335938 L 196.609375 213.710938 L 195.839844 214.863281 L 194.195312 217.105469 L 192.332031 219.421875 L 190.296875 221.761719 L 188.160156 224.070312 L 185.980469 226.320312 L 183.796875 228.515625 L 181.597656 230.679688 L 179.304688 232.71875 L 176.882812 234.496094 L 174.335938 235.890625 L 171.703125 236.789062 L 169.027344 237.132812 Z M 168.8125 237.132812 "/>
<path style=" stroke:none;fill-rule:nonzero;fill:rgb(95.686275%,95.686275%,95.686275%);fill-opacity:1;" d="M 433.125 612.816406 L 430.664062 612.523438 L 428.246094 611.671875 L 425.914062 610.339844 L 423.714844 608.640625 L 421.636719 606.71875 L 419.625 604.714844 L 417.617188 602.667969 L 415.644531 600.535156 L 413.761719 598.332031 L 412.046875 596.089844 L 410.5625 593.875 L 410.367188 593.554688 L 409.105469 591.222656 L 408.175781 589.011719 L 407.570312 586.972656 L 407.226562 585.113281 L 407.050781 583.394531 L 406.929688 581.695312 L 406.929688 579.894531 L 407.160156 577.945312 L 407.679688 575.863281 L 408.53125 573.691406 L 408.765625 573.199219 L 409.992188 571.015625 L 411.492188 568.84375 L 413.203125 566.734375 L 415.03125 564.726562 L 416.902344 562.8125 L 418.792969 560.949219 L 420.769531 559.199219 L 422.878906 557.730469 L 425.105469 556.679688 L 427.398438 556.15625 L 428.328125 556.105469 L 430.597656 556.390625 L 432.824219 557.21875 L 434.960938 558.5 L 436.964844 560.113281 L 438.859375 561.917969 L 440.714844 563.773438 L 442.589844 565.699219 L 444.46875 567.730469 L 446.300781 569.847656 L 448.023438 572 L 448.917969 573.199219 L 450.394531 575.347656 L 451.660156 577.421875 L 452.710938 579.375 L 453.566406 581.183594 L 454.285156 582.875 L 454.949219 584.542969 L 455.492188 586.316406 L 455.769531 588.257812 L 455.691406 590.375 L 455.1875 592.625 L 454.863281 593.554688 L 453.808594 595.792969 L 452.398438 598.0625 L 450.695312 600.304688 L 448.792969 602.472656 L 446.789062 604.554688 L 444.753906 606.585938 L 442.652344 608.542969 L 440.429688 610.277344 L 438.074219 611.640625 L 435.621094 612.515625 L 433.128906 612.816406 Z M 433.125 612.816406 "/>
<path style=" stroke:none;fill-rule:nonzero;fill:rgb(95.686275%,95.686275%,95.686275%);fill-opacity:1;" d="M 272.226562 603.710938 L 270.238281 604.191406 L 268.410156 604.199219 L 266.777344 603.796875 L 265.332031 603.101562 L 264.003906 602.261719 L 262.644531 601.355469 L 261.113281 600.269531 L 259.347656 598.917969 L 257.363281 597.296875 L 255.992188 596.121094 L 254.023438 594.363281 L 251.96875 592.464844 L 249.886719 590.480469 L 247.832031 588.472656 L 245.828125 586.484375 L 243.855469 584.507812 L 241.957031 582.480469 L 240.261719 580.332031 L 238.921875 578.054688 L 238.046875 575.683594 L 237.71875 573.265625 L 237.71875 573.109375 L 238.027344 570.609375 L 238.925781 568.15625 L 240.324219 565.804688 L 242.089844 563.589844 L 244.066406 561.5 L 246.109375 559.460938 L 248.191406 557.492188 L 250.328125 555.695312 L 252.480469 554.199219 L 254.585938 553.105469 L 255.992188 552.621094 L 258.234375 552.339844 L 260.25 552.707031 L 261.996094 553.617188 L 263.511719 554.875 L 264.921875 556.269531 L 266.417969 557.765625 L 268.121094 559.460938 L 270.042969 561.382812 L 272.15625 563.492188 L 272.226562 563.566406 L 274.140625 565.476562 L 281.90625 573.242188 L 283.746094 575.097656 L 285.488281 577.027344 L 286.984375 579.085938 L 288.097656 581.257812 L 288.71875 583.507812 L 288.824219 584.898438 L 288.519531 587.25 L 287.636719 589.554688 L 286.277344 591.753906 L 284.570312 593.820312 L 282.6875 595.769531 L 280.757812 597.683594 L 278.773438 599.519531 L 276.726562 601.183594 L 274.671875 602.554688 L 272.664062 603.546875 Z M 272.226562 603.710938 "/>
<path style=" stroke:none;fill-rule:nonzero;fill:rgb(95.686275%,95.686275%,95.686275%);fill-opacity:1;" d="M 507.015625 154.097656 L 504.886719 154.769531 L 502.867188 155.035156 L 501.007812 154.933594 L 499.316406 154.554688 L 497.742188 154.03125 L 496.160156 153.453125 L 494.453125 152.730469 L 492.578125 151.785156 L 490.550781 150.582031 L 488.640625 149.289062 L 486.570312 147.726562 L 484.484375 145.996094 L 482.429688 144.15625 L 480.457031 142.28125 L 478.5625 140.410156 L 476.710938 138.539062 L 474.96875 136.585938 L 473.488281 134.503906 L 472.410156 132.308594 L 471.839844 130.039062 L 471.765625 128.890625 L 472.066406 126.566406 L 472.929688 124.285156 L 474.265625 122.105469 L 475.945312 120.0625 L 477.804688 118.128906 L 479.710938 116.238281 L 481.691406 114.394531 L 483.757812 112.683594 L 485.878906 111.210938 L 487.996094 110.058594 L 488.640625 109.78125 L 490.765625 109.097656 L 492.78125 108.824219 L 494.640625 108.910156 L 496.335938 109.265625 L 497.910156 109.773438 L 499.492188 110.332031 L 501.203125 111.039062 L 503.082031 111.972656 L 505.117188 113.164062 L 507.015625 114.441406 L 509.085938 115.996094 L 511.179688 117.722656 L 513.234375 119.5625 L 515.214844 121.441406 L 517.113281 123.316406 L 518.972656 125.195312 L 520.722656 127.152344 L 522.214844 129.238281 L 523.304688 131.441406 L 523.886719 133.710938 L 523.964844 134.914062 L 523.664062 137.246094 L 522.800781 139.53125 L 521.460938 141.71875 L 519.777344 143.769531 L 517.914062 145.707031 L 516.003906 147.605469 L 514.019531 149.453125 L 511.949219 151.167969 L 509.824219 152.644531 L 507.703125 153.800781 Z M 507.015625 154.097656 "/>
<path style=" stroke:none;fill-rule:nonzero;fill:rgb(95.686275%,95.686275%,95.686275%);fill-opacity:1;" d="M 478.28125 531.746094 L 476.0625 530.792969 L 473.792969 529.4375 L 471.523438 527.753906 L 469.3125 525.835938 L 467.171875 523.789062 L 465.082031 521.699219 L 463.054688 519.550781 L 461.242188 517.28125 L 459.78125 514.875 L 458.808594 512.367188 L 458.402344 509.808594 L 458.390625 509.378906 L 458.6875 506.867188 L 459.539062 504.394531 L 460.875 502.007812 L 462.582031 499.75 L 464.527344 497.621094 L 466.570312 495.566406 L 468.648438 493.511719 L 470.792969 491.472656 L 473.003906 489.492188 L 475.234375 487.640625 L 477.433594 485.980469 L 478.28125 485.390625 L 480.617188 483.925781 L 482.800781 482.789062 L 484.785156 481.972656 L 486.570312 481.429688 L 488.207031 481.050781 L 489.828125 480.726562 L 491.566406 480.542969 L 493.464844 480.613281 L 495.511719 481.019531 L 497.671875 481.792969 L 497.9375 481.910156 L 500.085938 483.058594 L 502.253906 484.515625 L 504.375 486.210938 L 506.414062 488.054688 L 508.363281 489.960938 L 510.269531 491.886719 L 512.0625 493.898438 L 513.585938 496.042969 L 514.695312 498.304688 L 515.28125 500.640625 L 515.355469 501.808594 L 515.070312 504.109375 L 514.246094 506.363281 L 512.964844 508.527344 L 511.347656 510.566406 L 509.53125 512.492188 L 507.652344 514.367188 L 505.71875 516.273438 L 503.699219 518.214844 L 501.605469 520.148438 L 499.488281 522.015625 L 497.9375 523.324219 L 495.832031 525.011719 L 493.824219 526.523438 L 491.953125 527.835938 L 490.238281 528.960938 L 488.644531 529.949219 L 487.078125 530.886719 L 485.40625 531.695312 L 483.550781 532.226562 L 481.503906 532.371094 L 479.292969 532.046875 Z M 478.28125 531.746094 "/>
<path style=" stroke:none;fill-rule:nonzero;fill:rgb(95.686275%,95.686275%,95.686275%);fill-opacity:1;" d="M 261.425781 555.429688 L 258.667969 555.328125 L 255.765625 555.144531 L 252.777344 554.886719 L 249.777344 554.574219 L 246.8125 554.21875 L 243.902344 553.839844 L 241.003906 553.453125 L 238.054688 553.003906 L 235.046875 552.4375 L 232.015625 551.71875 L 229.023438 550.832031 L 226.140625 549.773438 L 225.019531 549.304688 L 221.992188 547.824219 L 219.234375 546.171875 L 216.785156 544.40625 L 214.640625 542.59375 L 212.734375 540.777344 L 210.929688 538.964844 L 209.207031 537.085938 L 207.699219 535.09375 L 206.546875 532.980469 L 205.851562 530.792969 L 205.671875 528.996094 L 205.957031 526.722656 L 206.785156 524.492188 L 208.070312 522.355469 L 209.691406 520.34375 L 211.5 518.449219 L 213.359375 516.589844 L 215.289062 514.714844 L 217.316406 512.84375 L 219.425781 511.023438 L 221.5625 509.328125 L 222.714844 508.480469 L 225.054688 506.910156 L 227.285156 505.605469 L 229.359375 504.566406 L 231.261719 503.753906 L 233.054688 503.058594 L 234.894531 502.367188 L 236.886719 501.671875 L 239.042969 500.988281 L 241.320312 500.351562 L 242.300781 500.097656 L 244.65625 499.558594 L 246.996094 499.097656 L 249.25 498.722656 L 251.371094 498.421875 L 253.410156 498.160156 L 255.496094 497.933594 L 257.710938 497.820312 L 260.058594 497.882812 L 262.472656 498.160156 L 263.453125 498.339844 L 265.746094 498.902344 L 267.972656 499.648438 L 270.074219 500.53125 L 272.027344 501.496094 L 273.871094 502.492188 L 275.726562 503.527344 L 277.707031 504.699219 L 279.84375 506.074219 L 282.101562 507.660156 L 284.09375 509.167969 L 286.269531 510.9375 L 288.429688 512.804688 L 290.519531 514.71875 L 292.507812 516.625 L 294.390625 518.488281 L 296.230469 520.339844 L 297.972656 522.265625 L 299.46875 524.3125 L 300.589844 526.480469 L 301.21875 528.71875 L 301.335938 530.171875 L 301.046875 532.457031 L 300.214844 534.699219 L 298.921875 536.847656 L 297.292969 538.867188 L 295.476562 540.773438 L 293.601562 542.636719 L 291.65625 544.507812 L 289.601562 546.347656 L 287.449219 548.09375 L 285.253906 549.675781 L 284.09375 550.421875 L 281.765625 551.734375 L 279.515625 552.765625 L 277.398438 553.515625 L 275.433594 554.039062 L 273.589844 554.425781 L 271.699219 554.785156 L 269.554688 555.097656 L 267.03125 555.324219 L 264.121094 555.4375 Z M 261.425781 555.429688 "/>
<path style=" stroke:none;fill-rule:nonzero;fill:rgb(95.686275%,95.686275%,95.686275%);fill-opacity:1;" d="M 523.527344 276.363281 L 521.335938 277.21875 L 519.222656 277.722656 L 517.242188 277.910156 L 515.410156 277.84375 L 513.695312 277.628906 L 511.988281 277.367188 L 510.175781 276.972656 L 508.207031 276.359375 L 506.101562 275.476562 L 503.898438 274.304688 L 503.566406 274.105469 L 501.398438 272.679688 L 499.230469 271.039062 L 497.121094 269.25 L 495.109375 267.382812 L 493.191406 265.496094 L 491.316406 263.605469 L 489.546875 261.632812 L 488.035156 259.53125 L 486.921875 257.316406 L 486.316406 255.023438 L 486.226562 253.734375 L 486.523438 251.402344 L 487.378906 249.113281 L 488.707031 246.925781 L 490.375 244.867188 L 492.230469 242.929688 L 494.144531 241.027344 L 496.125 239.160156 L 498.214844 237.394531 L 500.378906 235.824219 L 502.574219 234.53125 L 503.566406 234.054688 L 505.773438 233.234375 L 507.894531 232.78125 L 509.882812 232.65625 L 511.714844 232.792969 L 513.429688 233.082031 L 515.132812 233.421875 L 516.9375 233.882812 L 518.894531 234.558594 L 520.980469 235.488281 L 523.160156 236.691406 L 523.527344 236.914062 L 525.683594 238.367188 L 527.835938 240.019531 L 529.925781 241.8125 L 531.917969 243.667969 L 533.8125 245.53125 L 535.664062 247.402344 L 537.402344 249.355469 L 538.875 251.4375 L 539.941406 253.636719 L 540.496094 255.902344 L 540.5625 256.988281 L 540.269531 259.292969 L 539.417969 261.550781 L 538.097656 263.710938 L 536.4375 265.742188 L 534.601562 267.65625 L 532.710938 269.535156 L 530.742188 271.378906 L 528.667969 273.125 L 526.511719 274.683594 L 524.328125 275.96875 Z M 523.527344 276.363281 "/>
<path style=" stroke:none;fill-rule:nonzero;fill:rgb(95.686275%,95.686275%,95.686275%);fill-opacity:1;" d="M 328.246094 626.109375 L 326.003906 625.714844 L 323.828125 625.207031 L 321.777344 624.625 L 319.875 624.003906 L 318.058594 623.367188 L 316.1875 622.660156 L 314.144531 621.75 L 311.925781 620.566406 L 309.570312 619.089844 L 308.769531 618.539062 L 306.625 616.949219 L 304.480469 615.191406 L 302.382812 613.332031 L 300.375 611.4375 L 298.460938 609.550781 L 296.589844 607.664062 L 294.820312 605.707031 L 293.292969 603.621094 L 292.15625 601.414062 L 291.515625 599.136719 L 291.398438 597.664062 L 291.636719 595.574219 L 292.328125 593.511719 L 293.414062 591.519531 L 294.8125 589.628906 L 296.417969 587.84375 L 298.113281 586.128906 L 299.859375 584.433594 L 301.765625 582.785156 L 303.90625 581.257812 L 306.289062 579.917969 L 308.902344 578.824219 L 310.867188 578.230469 L 313.675781 577.671875 L 316.597656 577.398438 L 319.566406 577.386719 L 322.519531 577.601562 L 325.414062 577.984375 L 328.242188 578.457031 L 331.0625 578.964844 L 333.9375 579.542969 L 336.878906 580.246094 L 339.839844 581.105469 L 342.757812 582.128906 L 345.570312 583.3125 L 346.050781 583.535156 L 348.996094 585.082031 L 351.695312 586.777344 L 354.105469 588.570312 L 356.230469 590.394531 L 358.125 592.214844 L 359.929688 594.023438 L 361.648438 595.898438 L 363.148438 597.894531 L 364.296875 600.003906 L 364.984375 602.191406 L 365.15625 603.949219 L 364.863281 606.238281 L 364.023438 608.484375 L 362.71875 610.632812 L 361.074219 612.65625 L 359.25 614.5625 L 357.375 616.429688 L 355.421875 618.285156 L 353.359375 620.082031 L 351.210938 621.742188 L 349.03125 623.1875 L 348.082031 623.734375 L 345.628906 624.914062 L 343.277344 625.722656 L 341.089844 626.191406 L 339.082031 626.398438 L 337.167969 626.496094 L 335.191406 626.554688 L 333.070312 626.539062 L 330.832031 626.410156 L 328.53125 626.152344 Z M 328.246094 626.109375 "/>
<path style=" stroke:none;fill-rule:nonzero;fill:rgb(95.686275%,95.686275%,95.686275%);fill-opacity:1;" d="M 429.144531 124.015625 L 427.078125 124.601562 L 425.15625 124.742188 L 423.421875 124.488281 L 421.867188 123.941406 L 420.441406 123.242188 L 418.992188 122.484375 L 417.382812 121.550781 L 415.550781 120.351562 L 413.5 118.863281 L 411.699219 117.441406 L 409.65625 115.726562 L 407.539062 113.84375 L 405.398438 111.855469 L 403.289062 109.824219 L 401.238281 107.796875 L 399.226562 105.785156 L 397.273438 103.726562 L 395.511719 101.550781 L 394.082031 99.246094 L 393.109375 96.839844 L 392.671875 94.378906 L 392.652344 93.753906 L 392.960938 91.214844 L 393.855469 88.71875 L 395.253906 86.320312 L 397.027344 84.058594 L 399.023438 81.925781 L 401.09375 79.855469 L 403.203125 77.835938 L 405.375 75.960938 L 407.578125 74.355469 L 409.757812 73.117188 L 411.699219 72.367188 L 414.039062 71.996094 L 416.160156 72.257812 L 418.03125 73.050781 L 419.660156 74.207031 L 421.175781 75.507812 L 422.761719 76.898438 L 424.535156 78.488281 L 426.527344 80.308594 L 428.695312 82.335938 L 429.144531 82.761719 L 431.125 84.652344 L 433.15625 86.617188 L 435.183594 88.605469 L 437.15625 90.558594 L 439.0625 92.460938 L 440.929688 94.339844 L 442.710938 96.289062 L 444.257812 98.363281 L 445.429688 100.554688 L 446.121094 102.824219 L 446.28125 104.539062 L 445.976562 106.914062 L 445.101562 109.242188 L 443.742188 111.46875 L 442.039062 113.5625 L 440.144531 115.535156 L 438.199219 117.46875 L 436.199219 119.34375 L 434.128906 121.074219 L 432.023438 122.546875 L 429.949219 123.675781 Z M 429.144531 124.015625 "/>
<path style=" stroke:none;fill-rule:nonzero;fill:rgb(95.686275%,95.686275%,95.686275%);fill-opacity:1;" d="M 170.117188 402.695312 L 167.957031 401.46875 L 165.800781 399.960938 L 163.703125 398.253906 L 161.699219 396.425781 L 159.792969 394.550781 L 157.925781 392.664062 L 156.183594 390.683594 L 154.71875 388.574219 L 153.675781 386.347656 L 153.15625 384.058594 L 153.113281 383.164062 L 153.402344 380.871094 L 154.246094 378.625 L 155.550781 376.476562 L 157.191406 374.453125 L 159.019531 372.546875 L 160.894531 370.679688 L 162.84375 368.816406 L 164.894531 367.011719 L 167.023438 365.332031 L 169.175781 363.859375 L 170.117188 363.292969 L 172.304688 362.160156 L 174.40625 361.328125 L 176.367188 360.78125 L 178.175781 360.46875 L 179.867188 360.300781 L 181.558594 360.179688 L 183.359375 360.199219 L 185.316406 360.46875 L 187.414062 361.046875 L 189.601562 361.96875 L 189.695312 362.015625 L 191.855469 363.242188 L 194.015625 364.746094 L 196.117188 366.453125 L 198.121094 368.285156 L 200.03125 370.160156 L 201.902344 372.050781 L 203.648438 374.03125 L 205.117188 376.144531 L 206.167969 378.375 L 206.691406 380.667969 L 206.742188 381.589844 L 206.449219 383.882812 L 205.605469 386.136719 L 204.300781 388.289062 L 202.65625 390.3125 L 200.828125 392.222656 L 198.949219 394.097656 L 196.996094 395.960938 L 194.945312 397.769531 L 192.816406 399.445312 L 190.660156 400.917969 L 189.695312 401.5 L 187.503906 402.628906 L 185.402344 403.453125 L 183.4375 403.992188 L 181.628906 404.292969 L 179.9375 404.453125 L 178.25 404.5625 L 176.445312 404.53125 L 174.488281 404.257812 L 172.390625 403.667969 L 170.207031 402.742188 Z M 170.117188 402.695312 "/>
<path style=" stroke:none;fill-rule:nonzero;fill:rgb(95.686275%,95.686275%,95.686275%);fill-opacity:1;" d="M 123.808594 304.152344 L 121.921875 303.375 L 119.945312 302.167969 L 117.941406 300.621094 L 115.96875 298.839844 L 114.042969 296.953125 L 112.140625 295.035156 L 110.308594 293.050781 L 108.648438 291 L 107.269531 288.917969 L 106.257812 286.871094 L 106.089844 286.433594 L 105.582031 284.417969 L 105.515625 282.539062 L 105.839844 280.832031 L 106.449219 279.304688 L 107.207031 277.898438 L 108.027344 276.46875 L 109.019531 274.878906 L 110.273438 273.066406 L 111.8125 271.027344 L 113.269531 269.234375 L 115.015625 267.203125 L 116.917969 265.089844 L 118.917969 262.957031 L 120.960938 260.847656 L 122.992188 258.792969 L 125.007812 256.777344 L 127.066406 254.820312 L 129.242188 253.054688 L 131.546875 251.617188 L 133.957031 250.628906 L 136.417969 250.175781 L 137.109375 250.15625 L 139.445312 250.417969 L 141.75 251.175781 L 143.980469 252.378906 L 146.101562 253.925781 L 148.105469 255.703125 L 150.027344 257.59375 L 151.914062 259.519531 L 153.675781 261.535156 L 155.191406 263.667969 L 156.355469 265.90625 L 157.070312 268.214844 L 157.285156 270.332031 L 156.992188 272.796875 L 156.148438 275.222656 L 154.828125 277.558594 L 153.140625 279.769531 L 151.226562 281.855469 L 149.222656 283.871094 L 147.191406 285.902344 L 145.121094 287.964844 L 143.046875 290.035156 L 141.007812 292.058594 L 139.074219 293.976562 L 138.539062 294.503906 L 136.496094 296.515625 L 134.699219 298.273438 L 133.171875 299.761719 L 131.882812 301.007812 L 130.734375 302.113281 L 129.550781 303.144531 L 128.207031 303.964844 L 126.648438 304.417969 L 124.886719 304.398438 Z M 123.808594 304.152344 "/>
<path style=" stroke:none;fill-rule:nonzero;fill:rgb(95.686275%,95.686275%,95.686275%);fill-opacity:1;" d="M 331.300781 157.574219 L 327.734375 157.664062 L 324.25 157.308594 L 320.882812 156.542969 L 317.675781 155.421875 L 314.648438 154.019531 L 311.789062 152.429688 L 309.03125 150.742188 L 306.289062 149.027344 L 303.484375 147.25 L 300.609375 145.375 L 297.671875 143.402344 L 294.71875 141.34375 L 291.796875 139.222656 L 288.945312 137.066406 L 288.933594 137.054688 L 285.867188 134.625 L 282.972656 132.207031 L 280.28125 129.847656 L 277.820312 127.578125 L 275.570312 125.417969 L 273.480469 123.347656 L 271.445312 121.296875 L 269.496094 119.183594 L 267.75 116.953125 L 266.316406 114.601562 L 265.300781 112.164062 L 264.773438 109.667969 L 264.703125 108.40625 L 264.929688 106.109375 L 265.585938 103.835938 L 266.636719 101.617188 L 268.019531 99.484375 L 269.652344 97.449219 L 271.449219 95.515625 L 273.3125 93.632812 L 275.246094 91.757812 L 277.398438 89.875 L 279.890625 88.011719 L 282.792969 86.203125 L 286.121094 84.488281 L 289.863281 82.910156 L 292.417969 82 L 296.007812 80.910156 L 299.816406 79.949219 L 303.796875 79.117188 L 307.898438 78.417969 L 312.054688 77.835938 L 316.214844 77.363281 L 320.347656 76.976562 L 324.445312 76.640625 L 328.53125 76.324219 L 332.632812 76.015625 L 336.738281 75.746094 L 340.808594 75.519531 L 344.792969 75.359375 L 348.625 75.273438 L 352.242188 75.273438 L 355.589844 75.363281 L 356.976562 75.429688 L 361.417969 75.824219 L 365.015625 76.433594 L 367.777344 77.210938 L 369.808594 78.105469 L 371.355469 79.058594 L 372.785156 80.035156 L 374.308594 81.109375 L 375.984375 82.351562 L 377.8125 83.785156 L 379.761719 85.394531 L 380.503906 86.03125 L 382.523438 87.8125 L 384.574219 89.691406 L 386.597656 91.613281 L 388.550781 93.519531 L 390.425781 95.386719 L 392.265625 97.242188 L 394 99.171875 L 395.484375 101.230469 L 396.578125 103.40625 L 397.171875 105.652344 L 397.265625 106.933594 L 397.019531 109.039062 L 396.300781 111.109375 L 395.179688 113.105469 L 393.746094 115 L 392.113281 116.78125 L 390.402344 118.503906 L 388.597656 120.28125 L 386.542969 122.230469 L 384.144531 124.40625 L 381.367188 126.808594 L 378.234375 129.40625 L 377.019531 130.390625 L 374.328125 132.523438 L 371.488281 134.71875 L 368.542969 136.953125 L 365.539062 139.1875 L 362.527344 141.394531 L 359.539062 143.554688 L 356.589844 145.667969 L 353.660156 147.761719 L 350.679688 149.820312 L 347.597656 151.773438 L 344.398438 153.546875 L 341.089844 155.078125 L 337.714844 156.292969 L 334.308594 157.144531 Z M 331.300781 157.574219 "/>
<path style=" stroke:none;fill-rule:nonzero;fill:rgb(95.686275%,95.686275%,95.686275%);fill-opacity:1;" d="M 139.382812 339.90625 L 137.234375 338.96875 L 135.066406 337.648438 L 132.9375 336.03125 L 130.890625 334.210938 L 128.929688 332.296875 L 127.011719 330.355469 L 125.214844 328.324219 L 123.703125 326.15625 L 122.621094 323.867188 L 122.078125 321.511719 L 122.027344 320.542969 L 122.292969 318.328125 L 123.058594 316.152344 L 124.257812 314.058594 L 125.785156 312.078125 L 127.511719 310.210938 L 129.316406 308.398438 L 131.195312 306.539062 L 133.25 304.558594 L 135.519531 302.441406 L 137.988281 300.214844 L 140.621094 297.917969 L 140.988281 297.605469 L 143.492188 295.503906 L 146.050781 293.410156 L 148.625 291.367188 L 151.152344 289.402344 L 153.609375 287.527344 L 155.996094 285.730469 L 158.375 283.960938 L 160.804688 282.273438 L 163.316406 280.761719 L 165.882812 279.53125 L 168.457031 278.664062 L 170.992188 278.214844 L 171.78125 278.164062 L 174.371094 278.339844 L 176.8125 279.015625 L 179.074219 280.128906 L 181.132812 281.582031 L 183.011719 283.253906 L 184.792969 285.015625 L 186.535156 286.804688 L 188.183594 288.644531 L 189.632812 290.527344 L 190.800781 292.414062 L 191.613281 294.257812 L 191.855469 295.082031 L 192.082031 297.238281 L 191.699219 299.195312 L 190.8125 300.917969 L 189.59375 302.429688 L 188.25 303.84375 L 186.800781 305.351562 L 185.121094 307.082031 L 183.183594 309.070312 L 181.011719 311.285156 L 180.898438 311.398438 L 179.027344 313.292969 L 177.078125 315.261719 L 175.097656 317.253906 L 173.128906 319.226562 L 171.210938 321.148438 L 169.324219 323.035156 L 167.410156 324.929688 L 165.429688 326.84375 L 163.382812 328.746094 L 161.304688 330.578125 L 159.242188 332.292969 L 158.480469 332.898438 L 156.285156 334.539062 L 154.21875 335.945312 L 152.320312 337.101562 L 150.597656 338.039062 L 149.011719 338.832031 L 147.441406 339.566406 L 145.765625 340.167969 L 143.925781 340.507812 L 141.933594 340.488281 L 139.828125 340.050781 Z M 139.382812 339.90625 "/>
<path style=" stroke:none;fill-rule:nonzero;fill:rgb(95.686275%,95.686275%,95.686275%);fill-opacity:1;" d="M 606.144531 327.472656 L 604.074219 326.625 L 601.953125 325.359375 L 599.832031 323.757812 L 597.769531 321.925781 L 595.773438 319.980469 L 593.816406 318.003906 L 591.980469 315.933594 L 590.425781 313.730469 L 589.304688 311.402344 L 588.722656 309.003906 L 588.660156 307.894531 L 588.945312 305.5625 L 589.773438 303.273438 L 591.066406 301.074219 L 592.703125 299 L 594.539062 297.046875 L 596.445312 295.140625 L 598.390625 293.207031 L 600.402344 291.238281 L 602.457031 289.273438 L 604.503906 287.363281 L 606.144531 285.871094 L 608.414062 283.878906 L 610.496094 282.136719 L 612.347656 280.660156 L 613.988281 279.410156 L 615.53125 278.273438 L 617.171875 277.253906 L 619.019531 276.5625 L 621.101562 276.359375 L 623.375 276.746094 L 623.429688 276.761719 L 625.5 277.601562 L 627.628906 278.863281 L 629.753906 280.46875 L 631.828125 282.300781 L 633.828125 284.25 L 635.792969 286.238281 L 637.640625 288.3125 L 639.210938 290.523438 L 640.347656 292.855469 L 640.945312 295.261719 L 641.019531 296.445312 L 640.734375 298.785156 L 639.902344 301.085938 L 638.609375 303.292969 L 636.96875 305.378906 L 635.125 307.339844 L 633.214844 309.253906 L 631.261719 311.191406 L 629.242188 313.164062 L 627.183594 315.132812 L 625.132812 317.039062 L 623.429688 318.574219 L 621.367188 320.367188 L 619.457031 321.960938 L 617.730469 323.328125 L 616.191406 324.492188 L 614.78125 325.515625 L 613.371094 326.488281 L 611.832031 327.296875 L 610.105469 327.792969 L 608.199219 327.875 L 606.144531 327.476562 Z M 606.144531 327.472656 "/>
<path style=" stroke:none;fill-rule:nonzero;fill:rgb(95.686275%,95.686275%,95.686275%);fill-opacity:1;" d="M 186.917969 546.199219 L 184.617188 545.90625 L 182.359375 545.054688 L 180.195312 543.738281 L 178.167969 542.082031 L 176.25 540.242188 L 174.375 538.355469 L 172.523438 536.386719 L 170.769531 534.3125 L 169.195312 532.152344 L 167.882812 529.957031 L 167.457031 529.109375 L 166.574219 526.90625 L 166.03125 524.78125 L 165.800781 522.78125 L 165.820312 520.929688 L 165.992188 519.195312 L 166.210938 517.472656 L 166.550781 515.648438 L 167.109375 513.671875 L 167.9375 511.566406 L 169.046875 509.375 L 169.269531 508.984375 L 170.664062 506.8125 L 172.277344 504.648438 L 174.046875 502.546875 L 175.890625 500.550781 L 177.757812 498.652344 L 179.632812 496.796875 L 181.59375 495.058594 L 183.683594 493.585938 L 185.886719 492.523438 L 188.160156 491.972656 L 189.207031 491.910156 L 191.511719 492.207031 L 193.769531 493.054688 L 195.925781 494.371094 L 197.957031 496.027344 L 199.871094 497.863281 L 201.746094 499.753906 L 203.59375 501.71875 L 205.347656 503.792969 L 206.921875 505.953125 L 208.234375 508.144531 L 208.65625 508.984375 L 209.542969 511.1875 L 210.085938 513.3125 L 210.320312 515.3125 L 210.300781 517.164062 L 210.136719 518.898438 L 209.921875 520.621094 L 209.582031 522.445312 L 209.027344 524.421875 L 208.203125 526.527344 L 207.09375 528.722656 L 206.871094 529.109375 L 205.480469 531.285156 L 203.867188 533.449219 L 202.097656 535.550781 L 200.25 537.546875 L 198.382812 539.449219 L 196.507812 541.304688 L 194.546875 543.042969 L 192.457031 544.519531 L 190.253906 545.585938 L 187.980469 546.136719 Z M 186.917969 546.199219 "/>
<path style=" stroke:none;fill-rule:nonzero;fill:rgb(95.686275%,95.686275%,95.686275%);fill-opacity:1;" d="M 623.050781 426.796875 L 620.746094 426.503906 L 618.488281 425.660156 L 616.324219 424.351562 L 614.289062 422.703125 L 612.371094 420.867188 L 610.488281 418.980469 L 608.621094 417.023438 L 606.8125 414.964844 L 605.136719 412.828125 L 603.675781 410.664062 L 603.074219 409.640625 L 601.992188 407.480469 L 601.210938 405.402344 L 600.71875 403.457031 L 600.457031 401.660156 L 600.34375 399.988281 L 600.289062 398.324219 L 600.390625 396.515625 L 600.789062 394.492188 L 601.574219 392.234375 L 602.773438 389.78125 L 603.113281 389.191406 L 604.5625 386.9375 L 606.285156 384.617188 L 608.222656 382.277344 L 610.308594 379.96875 L 612.464844 377.726562 L 614.640625 375.535156 L 616.84375 373.378906 L 619.140625 371.363281 L 621.574219 369.621094 L 624.128906 368.28125 L 626.769531 367.453125 L 629.261719 367.191406 L 631.972656 367.5 L 634.644531 368.394531 L 637.226562 369.800781 L 639.679688 371.609375 L 641.996094 373.683594 L 644.222656 375.878906 L 646.417969 378.109375 L 648.53125 380.398438 L 650.460938 382.75 L 652.113281 385.125 L 653.394531 387.472656 L 654.082031 389.191406 L 654.628906 391.574219 L 654.648438 393.789062 L 654.207031 395.800781 L 653.398438 397.605469 L 652.371094 399.234375 L 651.261719 400.8125 L 650.082031 402.457031 L 648.757812 404.230469 L 647.265625 406.144531 L 645.617188 408.160156 L 644.355469 409.640625 L 642.492188 411.757812 L 640.554688 413.875 L 638.597656 415.941406 L 636.675781 417.914062 L 634.804688 419.796875 L 632.953125 421.636719 L 631.03125 423.382812 L 628.984375 424.886719 L 626.820312 426.019531 L 624.582031 426.667969 Z M 623.050781 426.796875 "/>
<path style=" stroke:none;fill-rule:nonzero;fill:rgb(95.686275%,95.686275%,95.686275%);fill-opacity:1;" d="M 323.027344 505.628906 L 320.574219 505.335938 L 318.164062 504.492188 L 315.847656 503.171875 L 313.652344 501.484375 L 311.582031 499.574219 L 309.578125 497.582031 L 307.574219 495.542969 L 305.578125 493.425781 L 303.640625 491.234375 L 301.828125 489.011719 L 300.203125 486.804688 L 299.914062 486.386719 L 298.460938 484.078125 L 297.296875 481.890625 L 296.421875 479.871094 L 295.792969 478.035156 L 295.328125 476.335938 L 294.917969 474.664062 L 294.628906 472.886719 L 294.574219 470.964844 L 294.835938 468.90625 L 295.464844 466.746094 L 295.714844 466.113281 L 296.804688 463.921875 L 298.21875 461.734375 L 299.886719 459.605469 L 301.710938 457.574219 L 303.601562 455.636719 L 305.515625 453.746094 L 307.519531 451.972656 L 309.65625 450.476562 L 311.910156 449.402344 L 314.230469 448.859375 L 315.222656 448.804688 L 317.503906 449.089844 L 319.742188 449.910156 L 321.886719 451.1875 L 323.90625 452.800781 L 325.8125 454.605469 L 327.675781 456.46875 L 329.566406 458.394531 L 331.488281 460.417969 L 333.394531 462.527344 L 335.230469 464.671875 L 336.402344 466.113281 L 338.1875 468.460938 L 339.757812 470.707031 L 341.089844 472.796875 L 342.210938 474.710938 L 343.210938 476.515625 L 344.136719 478.363281 L 344.8125 480.390625 L 345.082031 482.628906 L 344.832031 485.042969 L 344.46875 486.386719 L 343.53125 488.628906 L 342.191406 490.902344 L 340.53125 493.148438 L 338.648438 495.320312 L 336.640625 497.410156 L 334.597656 499.449219 L 332.488281 501.40625 L 330.253906 503.140625 L 327.882812 504.492188 L 325.421875 505.347656 Z M 323.027344 505.628906 "/>
<path style=" stroke:none;fill-rule:nonzero;fill:rgb(95.686275%,95.686275%,95.686275%);fill-opacity:1;" d="M 152.410156 474.816406 L 149.929688 474.632812 L 147.59375 474 L 145.433594 472.972656 L 143.46875 471.636719 L 141.675781 470.089844 L 139.996094 468.441406 L 138.339844 466.75 L 136.699219 464.910156 L 135.128906 462.855469 L 133.679688 460.558594 L 132.410156 458.035156 L 131.484375 455.683594 L 130.660156 452.875 L 130.074219 449.953125 L 129.710938 446.980469 L 129.550781 444.027344 L 129.542969 441.132812 L 129.621094 438.304688 L 129.734375 435.476562 L 129.925781 432.585938 L 130.261719 429.632812 L 130.785156 426.652344 L 131.523438 423.714844 L 132.476562 420.878906 L 132.566406 420.644531 L 133.867188 417.742188 L 135.386719 415.066406 L 137.070312 412.65625 L 138.84375 410.515625 L 140.652344 408.597656 L 142.464844 406.785156 L 144.355469 405.019531 L 146.414062 403.402344 L 148.671875 402.039062 L 151.121094 401.027344 L 153.710938 400.441406 L 153.886719 400.417969 L 156.476562 400.308594 L 159.117188 400.601562 L 161.75 401.253906 L 164.316406 402.1875 L 166.796875 403.316406 L 169.214844 404.523438 L 171.652344 405.769531 L 174.167969 407.113281 L 176.765625 408.585938 L 179.394531 410.179688 L 181.996094 411.882812 L 183.402344 412.859375 L 186.023438 414.796875 L 188.488281 416.773438 L 190.753906 418.734375 L 192.804688 420.640625 L 194.679688 422.476562 L 196.480469 424.285156 L 198.199219 426.148438 L 199.703125 428.132812 L 200.859375 430.234375 L 201.566406 432.410156 L 201.757812 434.265625 L 201.492188 436.445312 L 200.726562 438.585938 L 199.53125 440.644531 L 198.015625 442.589844 L 196.304688 444.421875 L 194.523438 446.207031 L 192.65625 448.046875 L 190.601562 450.003906 L 188.320312 452.09375 L 185.824219 454.277344 L 183.222656 456.464844 L 180.71875 458.488281 L 178.140625 460.496094 L 175.550781 462.453125 L 173 464.328125 L 170.515625 466.109375 L 168.097656 467.820312 L 165.6875 469.5 L 163.21875 471.097656 L 160.675781 472.511719 L 158.085938 473.648438 L 155.496094 474.429688 L 152.964844 474.792969 Z M 152.410156 474.816406 "/>
<path style=" stroke:none;fill-rule:nonzero;fill:rgb(95.686275%,95.686275%,95.686275%);fill-opacity:1;" d="M 447.03125 371.71875 L 444.722656 370.671875 L 442.347656 369.234375 L 439.957031 367.46875 L 437.601562 365.460938 L 435.316406 363.304688 L 433.085938 361.09375 L 430.890625 358.847656 L 428.84375 356.5 L 427.082031 354.011719 L 425.746094 351.402344 L 424.929688 348.710938 L 424.699219 346.34375 L 424.996094 343.652344 L 425.863281 341 L 427.234375 338.433594 L 429.003906 335.992188 L 431.039062 333.679688 L 433.210938 331.46875 L 435.417969 329.277344 L 437.679688 327.105469 L 440.007812 325.007812 L 442.367188 323.058594 L 444.710938 321.320312 L 446.992188 319.863281 L 447.03125 319.839844 L 449.542969 318.539062 L 451.871094 317.65625 L 453.984375 317.167969 L 455.867188 316.996094 L 457.585938 317.03125 L 459.265625 317.128906 L 461.042969 317.339844 L 462.980469 317.765625 L 465.0625 318.476562 L 467.257812 319.496094 L 468.082031 319.941406 L 470.273438 321.320312 L 472.476562 322.9375 L 474.632812 324.734375 L 476.703125 326.628906 L 478.679688 328.5625 L 480.605469 330.5 L 482.445312 332.511719 L 484.042969 334.648438 L 485.261719 336.910156 L 485.980469 339.253906 L 486.152344 341.058594 L 485.867188 343.394531 L 485.046875 345.6875 L 483.761719 347.894531 L 482.132812 349.972656 L 480.296875 351.9375 L 478.390625 353.84375 L 476.433594 355.777344 L 474.386719 357.746094 L 472.253906 359.710938 L 470.085938 361.625 L 468.082031 363.304688 L 465.925781 365.003906 L 463.859375 366.53125 L 461.921875 367.863281 L 460.132812 369.011719 L 458.46875 370.015625 L 456.851562 370.960938 L 455.132812 371.796875 L 453.226562 372.367188 L 451.105469 372.542969 L 448.792969 372.25 Z M 447.03125 371.71875 "/>
<path style=" stroke:none;fill-rule:nonzero;fill:rgb(95.686275%,95.686275%,95.686275%);fill-opacity:1;" d="M 467.460938 611.058594 L 465.414062 610.078125 L 463.324219 608.734375 L 461.257812 607.105469 L 459.261719 605.296875 L 457.335938 603.40625 L 455.449219 601.488281 L 453.699219 599.472656 L 452.253906 597.320312 L 451.25 595.054688 L 450.800781 592.730469 L 450.78125 592.144531 L 451.066406 589.882812 L 451.886719 587.664062 L 453.160156 585.539062 L 454.765625 583.539062 L 456.558594 581.65625 L 458.410156 579.804688 L 460.308594 577.917969 L 462.28125 575.980469 L 464.300781 574.035156 L 466.3125 572.132812 L 467.460938 571.066406 L 469.652344 569.070312 L 471.683594 567.273438 L 473.519531 565.707031 L 475.160156 564.34375 L 476.699219 563.089844 L 478.328125 561.949219 L 480.175781 561.128906 L 482.269531 560.804688 L 484.578125 561.09375 L 484.921875 561.191406 L 487.027344 562.023438 L 489.199219 563.289062 L 491.378906 564.910156 L 493.515625 566.78125 L 495.589844 568.785156 L 497.625 570.828125 L 499.5625 572.945312 L 501.253906 575.199219 L 502.546875 577.578125 L 503.316406 580.050781 L 503.507812 582.011719 L 503.21875 584.441406 L 502.375 586.832031 L 501.054688 589.128906 L 499.375 591.300781 L 497.472656 593.347656 L 495.492188 595.335938 L 493.476562 597.328125 L 491.402344 599.328125 L 489.28125 601.289062 L 487.167969 603.148438 L 485.117188 604.84375 L 484.921875 604.996094 L 482.734375 606.648438 L 480.722656 608.015625 L 478.925781 609.09375 L 477.335938 609.921875 L 475.878906 610.605469 L 474.410156 611.230469 L 472.804688 611.675781 L 471.015625 611.816406 L 469.0625 611.558594 Z M 467.460938 611.058594 "/>
<path style=" stroke:none;fill-rule:nonzero;fill:rgb(95.686275%,95.686275%,95.686275%);fill-opacity:1;" d="M 586.160156 448.3125 L 584.003906 449.0625 L 581.953125 449.425781 L 580.042969 449.445312 L 578.296875 449.199219 L 576.667969 448.804688 L 575.035156 448.359375 L 573.28125 447.773438 L 571.367188 446.960938 L 569.308594 445.886719 L 567.21875 444.59375 L 565.117188 443.09375 L 563.003906 441.402344 L 560.933594 439.589844 L 558.949219 437.722656 L 557.054688 435.851562 L 555.199219 433.976562 L 553.457031 432.023438 L 551.976562 429.9375 L 550.898438 427.734375 L 550.335938 425.464844 L 550.265625 424.339844 L 550.5625 422.023438 L 551.421875 419.75 L 552.753906 417.574219 L 554.425781 415.53125 L 556.277344 413.605469 L 558.179688 411.71875 L 560.15625 409.871094 L 562.226562 408.144531 L 564.359375 406.636719 L 566.503906 405.429688 L 567.21875 405.101562 L 569.375 404.355469 L 571.433594 403.992188 L 573.339844 403.976562 L 575.085938 404.226562 L 576.714844 404.621094 L 578.347656 405.074219 L 580.097656 405.660156 L 582.011719 406.476562 L 584.070312 407.550781 L 586.160156 408.847656 L 588.265625 410.351562 L 590.378906 412.042969 L 592.445312 413.855469 L 594.429688 415.71875 L 596.324219 417.589844 L 598.175781 419.460938 L 599.917969 421.417969 L 601.398438 423.503906 L 602.472656 425.703125 L 603.035156 427.972656 L 603.105469 429.085938 L 602.804688 431.40625 L 601.945312 433.675781 L 600.613281 435.851562 L 598.945312 437.890625 L 597.09375 439.816406 L 595.191406 441.703125 L 593.214844 443.550781 L 591.144531 445.273438 L 589.011719 446.78125 L 586.867188 447.988281 Z M 586.160156 448.3125 "/>
<path style="fill:none;stroke-width:0.75;stroke-linecap:round;stroke-linejoin:round;stroke:rgb(66.27451%,66.27451%,66.27451%);stroke-opacity:1;stroke-miterlimit:10;" d="M 574.785156 510.597656 L 582.882812 501.125 "/>
<path style="fill:none;stroke-width:0.75;stroke-linecap:round;stroke-linejoin:round;stroke:rgb(66.27451%,66.27451%,66.27451%);stroke-opacity:1;stroke-miterlimit:10;" d="M 170.574219 205.117188 L 170.9375 203.34375 "/>
<path style="fill:none;stroke-width:0.75;stroke-linecap:round;stroke-linejoin:round;stroke:rgb(66.27451%,66.27451%,66.27451%);stroke-opacity:1;stroke-miterlimit:10;" d="M 428.96875 576.070312 L 431.722656 587.238281 "/>
<path style="fill:none;stroke-width:0.75;stroke-linecap:round;stroke-linejoin:round;stroke:rgb(66.27451%,66.27451%,66.27451%);stroke-opacity:1;stroke-miterlimit:10;" d="M 261.121094 576.429688 L 269.261719 583.144531 "/>
<path style="fill:none;stroke-width:0.75;stroke-linecap:round;stroke-linejoin:round;stroke:rgb(66.27451%,66.27451%,66.27451%);stroke-opacity:1;stroke-miterlimit:10;" d="M 491.671875 129.769531 L 503.867188 134 "/>
<path style="fill:none;stroke-width:0.75;stroke-linecap:round;stroke-linejoin:round;stroke:rgb(66.27451%,66.27451%,66.27451%);stroke-opacity:1;stroke-miterlimit:10;" d="M 485.570312 506.722656 L 494.398438 503.078125 "/>
<path style="fill:none;stroke-width:0.75;stroke-linecap:round;stroke-linejoin:round;stroke:rgb(66.27451%,66.27451%,66.27451%);stroke-opacity:1;stroke-miterlimit:10;" d="M 225.558594 528.082031 L 239.15625 523.136719 "/>
<path style="fill:none;stroke-width:0.75;stroke-linecap:round;stroke-linejoin:round;stroke:rgb(66.27451%,66.27451%,66.27451%);stroke-opacity:1;stroke-miterlimit:10;" d="M 520.671875 256.554688 L 506.90625 254.238281 "/>
<path style="fill:none;stroke-width:0.75;stroke-linecap:round;stroke-linejoin:round;stroke:rgb(66.27451%,66.27451%,66.27451%);stroke-opacity:1;stroke-miterlimit:10;" d="M 312.175781 598.503906 L 323.792969 601.726562 "/>
<path style="fill:none;stroke-width:0.75;stroke-linecap:round;stroke-linejoin:round;stroke:rgb(66.27451%,66.27451%,66.27451%);stroke-opacity:1;stroke-miterlimit:10;" d="M 425.640625 102.648438 L 417.8125 97.242188 "/>
<path style="fill:none;stroke-width:0.75;stroke-linecap:round;stroke-linejoin:round;stroke:rgb(66.27451%,66.27451%,66.27451%);stroke-opacity:1;stroke-miterlimit:10;" d="M 345.222656 603.816406 L 332.730469 603.175781 "/>
<path style="fill:none;stroke-width:0.75;stroke-linecap:round;stroke-linejoin:round;stroke:rgb(66.27451%,66.27451%,66.27451%);stroke-opacity:1;stroke-miterlimit:10;" d="M 173.066406 382.945312 L 186.679688 381.8125 "/>
<path style="fill:none;stroke-width:0.75;stroke-linecap:round;stroke-linejoin:round;stroke:rgb(66.27451%,66.27451%,66.27451%);stroke-opacity:1;stroke-miterlimit:10;" d="M 133.230469 275.203125 L 126.480469 283.683594 "/>
<path style="fill:none;stroke-width:0.75;stroke-linecap:round;stroke-linejoin:round;stroke:rgb(66.27451%,66.27451%,66.27451%);stroke-opacity:1;stroke-miterlimit:10;" d="M 360.96875 96.773438 L 346.992188 103.625 "/>
<path style="fill:none;stroke-width:0.75;stroke-linecap:round;stroke-linejoin:round;stroke:rgb(66.27451%,66.27451%,66.27451%);stroke-opacity:1;stroke-miterlimit:10;" d="M 365.464844 97.089844 L 377.757812 105.457031 "/>
<path style="fill:none;stroke-width:0.75;stroke-linecap:round;stroke-linejoin:round;stroke:rgb(66.27451%,66.27451%,66.27451%);stroke-opacity:1;stroke-miterlimit:10;" d="M 170.324219 298.40625 L 161.265625 307.050781 "/>
<path style="fill:none;stroke-width:0.75;stroke-linecap:round;stroke-linejoin:round;stroke:rgb(66.27451%,66.27451%,66.27451%);stroke-opacity:1;stroke-miterlimit:10;" d="M 619.375 298.804688 L 610.058594 305.625 "/>
<path style="fill:none;stroke-width:0.75;stroke-linecap:round;stroke-linejoin:round;stroke:rgb(66.27451%,66.27451%,66.27451%);stroke-opacity:1;stroke-miterlimit:10;" d="M 187.226562 526.226562 L 188.90625 511.847656 "/>
<path style="fill:none;stroke-width:0.75;stroke-linecap:round;stroke-linejoin:round;stroke:rgb(66.27451%,66.27451%,66.27451%);stroke-opacity:1;stroke-miterlimit:10;" d="M 626.167969 399.765625 L 623.929688 406.605469 "/>
<path style="fill:none;stroke-width:0.75;stroke-linecap:round;stroke-linejoin:round;stroke:rgb(66.27451%,66.27451%,66.27451%);stroke-opacity:1;stroke-miterlimit:10;" d="M 281.175781 529.699219 L 273.949219 528.445312 "/>
<path style="fill:none;stroke-width:0.75;stroke-linecap:round;stroke-linejoin:round;stroke:rgb(66.27451%,66.27451%,66.27451%);stroke-opacity:1;stroke-miterlimit:10;" d="M 320.832031 480.320312 L 316.351562 469.238281 "/>
<path style="fill:none;stroke-width:0.75;stroke-linecap:round;stroke-linejoin:round;stroke:rgb(66.27451%,66.27451%,66.27451%);stroke-opacity:1;stroke-miterlimit:10;" d="M 142.757812 318.914062 L 153.65625 312.710938 "/>
<path style="fill:none;stroke-width:0.75;stroke-linecap:round;stroke-linejoin:round;stroke:rgb(66.27451%,66.27451%,66.27451%);stroke-opacity:1;stroke-miterlimit:10;" d="M 181.820312 434.753906 L 166.929688 437.558594 "/>
<path style="fill:none;stroke-width:0.75;stroke-linecap:round;stroke-linejoin:round;stroke:rgb(66.27451%,66.27451%,66.27451%);stroke-opacity:1;stroke-miterlimit:10;" d="M 154.367188 421.855469 L 160.476562 434.328125 "/>
<path style="fill:none;stroke-width:0.75;stroke-linecap:round;stroke-linejoin:round;stroke:rgb(66.27451%,66.27451%,66.27451%);stroke-opacity:1;stroke-miterlimit:10;" d="M 152.699219 454.949219 L 160.167969 442.304688 "/>
<path style="fill:none;stroke-width:0.75;stroke-linecap:round;stroke-linejoin:round;stroke:rgb(66.27451%,66.27451%,66.27451%);stroke-opacity:1;stroke-miterlimit:10;" d="M 463.699219 342.128906 L 458.488281 343.539062 "/>
<path style="fill:none;stroke-width:0.75;stroke-linecap:round;stroke-linejoin:round;stroke:rgb(66.27451%,66.27451%,66.27451%);stroke-opacity:1;stroke-miterlimit:10;" d="M 329.519531 118.140625 L 342.515625 106.625 "/>
<path style="fill:none;stroke-width:0.75;stroke-linecap:round;stroke-linejoin:round;stroke:rgb(66.27451%,66.27451%,66.27451%);stroke-opacity:1;stroke-miterlimit:10;" d="M 327.898438 122.542969 L 330.277344 139.363281 "/>
<path style="fill:none;stroke-width:0.75;stroke-linecap:round;stroke-linejoin:round;stroke:rgb(66.27451%,66.27451%,66.27451%);stroke-opacity:1;stroke-miterlimit:10;" d="M 325.234375 118.550781 L 311.96875 110.695312 "/>
<path style="fill:none;stroke-width:0.75;stroke-linecap:round;stroke-linejoin:round;stroke:rgb(66.27451%,66.27451%,66.27451%);stroke-opacity:1;stroke-miterlimit:10;" d="M 303.941406 108.476562 L 296.816406 108.445312 "/>
<path style="fill:none;stroke-width:0.75;stroke-linecap:round;stroke-linejoin:round;stroke:rgb(66.27451%,66.27451%,66.27451%);stroke-opacity:1;stroke-miterlimit:10;" d="M 253.226562 524.460938 L 245.011719 522.726562 "/>
<path style="fill:none;stroke-width:0.75;stroke-linecap:round;stroke-linejoin:round;stroke:rgb(66.27451%,66.27451%,66.27451%);stroke-opacity:1;stroke-miterlimit:10;" d="M 470.332031 590.730469 L 479.386719 584.9375 "/>
<path style="fill:none;stroke-width:0.75;stroke-linecap:round;stroke-linejoin:round;stroke:rgb(66.27451%,66.27451%,66.27451%);stroke-opacity:1;stroke-miterlimit:10;" d="M 570.242188 425.019531 L 583.160156 428.410156 "/>
<path style=" stroke:none;fill-rule:nonzero;fill:rgb(3.137255%,81.960784%,81.960784%);fill-opacity:1;" d="M 576.234375 513.742188 C 576.234375 519.257812 567.957031 519.257812 567.957031 513.742188 C 567.957031 508.222656 576.234375 508.222656 576.234375 513.742188 "/>
<path style=" stroke:none;fill-rule:nonzero;fill:rgb(3.137255%,81.960784%,81.960784%);fill-opacity:1;" d="M 289.5 278.703125 C 289.5 282.21875 284.222656 282.21875 284.222656 278.703125 C 284.222656 275.1875 289.5 275.1875 289.5 278.703125 "/>
<path style=" stroke:none;fill-rule:nonzero;fill:rgb(3.137255%,81.960784%,81.960784%);fill-opacity:1;" d="M 253.988281 420.359375 C 253.988281 424.449219 247.851562 424.449219 247.851562 420.359375 C 247.851562 416.269531 253.988281 416.269531 253.988281 420.359375 "/>
<path style=" stroke:none;fill-rule:nonzero;fill:rgb(3.137255%,81.960784%,81.960784%);fill-opacity:1;" d="M 503.046875 172.855469 L 523.769531 172.855469 L 523.769531 193.578125 L 503.046875 193.578125 Z M 503.046875 172.855469 "/>
<path style=" stroke:none;fill-rule:nonzero;fill:rgb(3.137255%,81.960784%,81.960784%);fill-opacity:1;" d="M 162.335938 184.394531 L 183.058594 184.394531 L 183.058594 205.117188 L 162.335938 205.117188 Z M 162.335938 184.394531 "/>
<path style=" stroke:none;fill-rule:nonzero;fill:rgb(3.137255%,81.960784%,81.960784%);fill-opacity:1;" d="M 444.734375 469.652344 L 465.457031 469.652344 L 465.457031 490.375 L 444.734375 490.375 Z M 444.734375 469.652344 "/>
<path style=" stroke:none;fill-rule:nonzero;fill:rgb(3.137255%,81.960784%,81.960784%);fill-opacity:1;" d="M 360.125 453.875 C 360.125 457.554688 354.605469 457.554688 354.605469 453.875 C 354.605469 450.195312 360.125 450.195312 360.125 453.875 "/>
<path style=" stroke:none;fill-rule:nonzero;fill:rgb(3.137255%,81.960784%,81.960784%);fill-opacity:1;" d="M 533.523438 521.328125 C 533.523438 525.910156 526.648438 525.910156 526.648438 521.328125 C 526.648438 516.742188 533.523438 516.742188 533.523438 521.328125 "/>
<path style=" stroke:none;fill-rule:nonzero;fill:rgb(3.137255%,81.960784%,81.960784%);fill-opacity:1;" d="M 124.9375 384.058594 C 124.9375 387.671875 119.511719 387.671875 119.511719 384.058594 C 119.511719 380.441406 124.9375 380.441406 124.9375 384.058594 "/>
<path style=" stroke:none;fill-rule:nonzero;fill:rgb(3.137255%,81.960784%,81.960784%);fill-opacity:1;" d="M 430.996094 573.480469 C 430.996094 577.035156 425.664062 577.035156 425.664062 573.480469 C 425.664062 569.925781 430.996094 569.925781 430.996094 573.480469 "/>
<path style=" stroke:none;fill-rule:nonzero;fill:rgb(3.137255%,81.960784%,81.960784%);fill-opacity:1;" d="M 219.765625 186.4375 C 219.765625 189.65625 217.15625 192.265625 213.941406 192.265625 C 210.722656 192.265625 208.113281 189.65625 208.113281 186.4375 C 208.113281 183.222656 210.722656 180.613281 213.941406 180.613281 C 217.15625 180.613281 219.765625 183.222656 219.765625 186.4375 "/>
<path style=" stroke:none;fill-rule:nonzero;fill:rgb(3.137255%,81.960784%,81.960784%);fill-opacity:1;" d="M 358.804688 264.894531 C 358.804688 268.609375 353.234375 268.609375 353.234375 264.894531 C 353.234375 261.179688 358.804688 261.179688 358.804688 264.894531 "/>
<path style=" stroke:none;fill-rule:nonzero;fill:rgb(3.137255%,81.960784%,81.960784%);fill-opacity:1;" d="M 329.414062 423.78125 C 329.414062 427.609375 323.671875 427.609375 323.671875 423.78125 C 323.671875 419.949219 329.414062 419.949219 329.414062 423.78125 "/>
<path style=" stroke:none;fill-rule:nonzero;fill:rgb(3.137255%,81.960784%,81.960784%);fill-opacity:1;" d="M 262.316406 573.109375 C 262.316406 580.066406 251.882812 580.066406 251.882812 573.109375 C 251.882812 566.15625 262.316406 566.15625 262.316406 573.109375 "/>
<path style=" stroke:none;fill-rule:nonzero;fill:rgb(3.137255%,81.960784%,81.960784%);fill-opacity:1;" d="M 491.820312 128.890625 C 491.820312 132.457031 486.472656 132.457031 486.472656 128.890625 C 486.472656 125.324219 491.820312 125.324219 491.820312 128.890625 "/>
<path style=" stroke:none;fill-rule:nonzero;fill:rgb(3.137255%,81.960784%,81.960784%);fill-opacity:1;" d="M 392.289062 467.027344 C 392.289062 470.535156 387.03125 470.535156 387.03125 467.027344 C 387.03125 463.523438 392.289062 463.523438 392.289062 467.027344 "/>
<path style=" stroke:none;fill-rule:nonzero;fill:rgb(3.137255%,81.960784%,81.960784%);fill-opacity:1;" d="M 599.015625 272.402344 C 599.015625 275.902344 593.765625 275.902344 593.765625 272.402344 C 593.765625 268.902344 599.015625 268.902344 599.015625 272.402344 "/>
<path style=" stroke:none;fill-rule:nonzero;fill:rgb(3.137255%,81.960784%,81.960784%);fill-opacity:1;" d="M 486.097656 509.378906 C 486.097656 513.21875 482.980469 516.332031 479.140625 516.332031 C 475.300781 516.332031 472.183594 513.21875 472.183594 509.378906 C 472.183594 505.535156 475.300781 502.421875 479.140625 502.421875 C 482.980469 502.421875 486.097656 505.535156 486.097656 509.378906 "/>
<path style=" stroke:none;fill-rule:nonzero;fill:rgb(3.137255%,81.960784%,81.960784%);fill-opacity:1;" d="M 147.136719 236.042969 C 147.136719 239.832031 141.449219 239.832031 141.449219 236.042969 C 141.449219 232.25 147.136719 232.25 147.136719 236.042969 "/>
<path style=" stroke:none;fill-rule:nonzero;fill:rgb(3.137255%,81.960784%,81.960784%);fill-opacity:1;" d="M 225.71875 528.996094 C 225.71875 532.554688 220.378906 532.554688 220.378906 528.996094 C 220.378906 525.433594 225.71875 525.433594 225.71875 528.996094 "/>
<path style=" stroke:none;fill-rule:nonzero;fill:rgb(3.137255%,81.960784%,81.960784%);fill-opacity:1;" d="M 525.839844 256.988281 C 525.839844 260.457031 520.636719 260.457031 520.636719 256.988281 C 520.636719 253.519531 525.839844 253.519531 525.839844 256.988281 "/>
<path style=" stroke:none;fill-rule:nonzero;fill:rgb(3.137255%,81.960784%,81.960784%);fill-opacity:1;" d="M 271.050781 139.941406 C 271.050781 143.132812 268.464844 145.71875 265.273438 145.71875 C 262.082031 145.71875 259.496094 143.132812 259.496094 139.941406 C 259.496094 136.75 262.082031 134.164062 265.273438 134.164062 C 268.464844 134.164062 271.050781 136.75 271.050781 139.941406 "/>
<path style=" stroke:none;fill-rule:nonzero;fill:rgb(18.039216%,73.72549%,50.980392%);fill-opacity:1;" d="M 500.785156 501.808594 C 500.785156 506.234375 494.144531 506.234375 494.144531 501.808594 C 494.144531 497.382812 500.785156 497.382812 500.785156 501.808594 "/>
<path style=" stroke:none;fill-rule:nonzero;fill:rgb(18.039216%,56.862745%,73.72549%);fill-opacity:1;" d="M 243.878906 291.417969 C 243.878906 295.03125 238.464844 295.03125 238.464844 291.417969 C 238.464844 287.808594 243.878906 287.808594 243.878906 291.417969 "/>
<path style=" stroke:none;fill-rule:nonzero;fill:rgb(18.039216%,35.294118%,73.72549%);fill-opacity:1;" d="M 159.382812 492.332031 C 159.382812 495.835938 154.125 495.835938 154.125 492.332031 C 154.125 488.828125 159.382812 488.828125 159.382812 492.332031 "/>
<path style=" stroke:none;fill-rule:nonzero;fill:rgb(18.039216%,35.294118%,73.72549%);fill-opacity:1;" d="M 312.289062 597.664062 C 312.289062 601.855469 306.003906 601.855469 306.003906 597.664062 C 306.003906 593.472656 312.289062 593.472656 312.289062 597.664062 "/>
<path style=" stroke:none;fill-rule:nonzero;fill:rgb(18.039216%,35.294118%,73.72549%);fill-opacity:1;" d="M 431.710938 104.539062 C 431.710938 108.980469 425.050781 108.980469 425.050781 104.539062 C 425.050781 100.101562 431.710938 100.101562 431.710938 104.539062 "/>
<path style=" stroke:none;fill-rule:nonzero;fill:rgb(18.039216%,35.294118%,73.72549%);fill-opacity:1;" d="M 350.433594 603.949219 C 350.433594 607.425781 345.21875 607.425781 345.21875 603.949219 C 345.21875 600.46875 350.433594 600.46875 350.433594 603.949219 "/>
<path style=" stroke:none;fill-rule:nonzero;fill:rgb(18.039216%,35.294118%,73.72549%);fill-opacity:1;" d="M 370.355469 502.59375 C 370.355469 508.484375 365.578125 513.257812 359.6875 513.257812 C 353.796875 513.257812 349.023438 508.484375 349.023438 502.59375 C 349.023438 496.699219 353.796875 491.925781 359.6875 491.925781 C 365.578125 491.925781 370.355469 496.699219 370.355469 502.59375 "/>
<path style=" stroke:none;fill-rule:nonzero;fill:rgb(18.039216%,35.294118%,73.72549%);fill-opacity:1;" d="M 173.074219 383.164062 C 173.074219 386.660156 167.832031 386.660156 167.832031 383.164062 C 167.832031 379.667969 173.074219 379.667969 173.074219 383.164062 "/>
<path style=" stroke:none;fill-rule:nonzero;fill:rgb(18.039216%,35.294118%,73.72549%);fill-opacity:1;" d="M 192.035156 381.589844 C 192.035156 385.164062 186.671875 385.164062 186.671875 381.589844 C 186.671875 378.015625 192.035156 378.015625 192.035156 381.589844 "/>
<path style=" stroke:none;fill-rule:nonzero;fill:rgb(18.039216%,35.294118%,73.72549%);fill-opacity:1;" d="M 295.367188 352.015625 C 295.367188 355.9375 289.484375 355.9375 289.484375 352.015625 C 289.484375 348.09375 295.367188 348.09375 295.367188 352.015625 "/>
<path style=" stroke:none;fill-rule:nonzero;fill:rgb(18.039216%,35.294118%,73.72549%);fill-opacity:1;" d="M 143.335938 270.332031 C 143.335938 273.769531 140.546875 276.558594 137.109375 276.558594 C 133.667969 276.558594 130.878906 273.769531 130.878906 270.332031 C 130.878906 266.890625 133.667969 264.101562 137.109375 264.101562 C 140.546875 264.101562 143.335938 266.890625 143.335938 270.332031 "/>
<path style=" stroke:none;fill-rule:nonzero;fill:rgb(18.039216%,35.294118%,73.72549%);fill-opacity:1;" d="M 365.917969 95.625 C 365.917969 99.101562 360.703125 99.101562 360.703125 95.625 C 360.703125 92.144531 365.917969 92.144531 365.917969 95.625 "/>
<path style=" stroke:none;fill-rule:nonzero;fill:rgb(18.039216%,35.294118%,73.72549%);fill-opacity:1;" d="M 150.332031 357.894531 C 150.332031 362.699219 143.125 362.699219 143.125 357.894531 C 143.125 353.089844 150.332031 353.089844 150.332031 357.894531 "/>
<path style=" stroke:none;fill-rule:nonzero;fill:rgb(18.039216%,35.294118%,73.72549%);fill-opacity:1;" d="M 520.796875 565.960938 C 520.796875 569.722656 515.15625 569.722656 515.15625 565.960938 C 515.15625 562.199219 520.796875 562.199219 520.796875 565.960938 "/>
<path style=" stroke:none;fill-rule:nonzero;fill:rgb(18.039216%,35.294118%,73.72549%);fill-opacity:1;" d="M 497.257812 543.742188 C 497.257812 547.222656 492.039062 547.222656 492.039062 543.742188 C 492.039062 540.261719 497.257812 540.261719 497.257812 543.742188 "/>
<path style=" stroke:none;fill-rule:nonzero;fill:rgb(18.039216%,35.294118%,73.72549%);fill-opacity:1;" d="M 197.148438 475.914062 C 197.148438 480.203125 190.714844 480.203125 190.714844 475.914062 C 190.714844 471.625 197.148438 471.625 197.148438 475.914062 "/>
<path style=" stroke:none;fill-rule:nonzero;fill:rgb(3.529412%,80.784314%,55.294118%);fill-opacity:1;" d="M 233.816406 247.078125 C 233.816406 251.523438 230.214844 255.125 225.769531 255.125 C 221.328125 255.125 217.722656 251.523438 217.722656 247.078125 C 217.722656 242.636719 221.328125 239.035156 225.769531 239.035156 C 230.214844 239.035156 233.816406 242.636719 233.816406 247.078125 "/>
<path style=" stroke:none;fill-rule:nonzero;fill:rgb(87.843137%,65.098039%,3.137255%);fill-opacity:1;" d="M 490.519531 216.722656 C 490.519531 220.515625 484.832031 220.515625 484.832031 216.722656 C 484.832031 212.933594 490.519531 212.933594 490.519531 216.722656 "/>
<path style=" stroke:none;fill-rule:nonzero;fill:rgb(3.529412%,44.705882%,39.607843%);fill-opacity:1;" d="M 481.53125 445.714844 C 481.53125 449.398438 478.542969 452.390625 474.855469 452.390625 C 471.167969 452.390625 468.179688 449.398438 468.179688 445.714844 C 468.179688 442.027344 471.167969 439.039062 474.855469 439.039062 C 478.542969 439.039062 481.53125 442.027344 481.53125 445.714844 "/>
<path style=" stroke:none;fill-rule:nonzero;fill:rgb(3.529412%,44.705882%,39.607843%);fill-opacity:1;" d="M 551.382812 178.285156 C 551.382812 183.3125 543.839844 183.3125 543.839844 178.285156 C 543.839844 173.257812 551.382812 173.257812 551.382812 178.285156 "/>
<path style=" stroke:none;fill-rule:nonzero;fill:rgb(3.529412%,44.705882%,39.607843%);fill-opacity:1;" d="M 209.175781 219.570312 C 209.175781 223.085938 203.90625 223.085938 203.90625 219.570312 C 203.90625 216.058594 209.175781 216.058594 209.175781 219.570312 "/>
<path style=" stroke:none;fill-rule:nonzero;fill:rgb(3.529412%,44.705882%,39.607843%);fill-opacity:1;" d="M 111.472656 411.726562 L 132.195312 411.726562 L 132.195312 432.449219 L 111.472656 432.449219 Z M 111.472656 411.726562 "/>
<path style=" stroke:none;fill-rule:nonzero;fill:rgb(67.058824%,33.72549%,84.705882%);fill-opacity:1;" d="M 184.390625 149.109375 L 205.113281 149.109375 L 205.113281 169.832031 L 184.390625 169.832031 Z M 184.390625 149.109375 "/>
<path style=" stroke:none;fill-rule:nonzero;fill:rgb(67.058824%,33.72549%,84.705882%);fill-opacity:1;" d="M 330.828125 215.917969 C 330.828125 219.558594 325.367188 219.558594 325.367188 215.917969 C 325.367188 212.28125 330.828125 212.28125 330.828125 215.917969 "/>
<path style=" stroke:none;fill-rule:nonzero;fill:rgb(67.058824%,33.72549%,84.705882%);fill-opacity:1;" d="M 432.179688 265.25 C 432.179688 268.730469 426.953125 268.730469 426.953125 265.25 C 426.953125 261.765625 432.179688 261.765625 432.179688 265.25 "/>
<path style=" stroke:none;fill-rule:nonzero;fill:rgb(67.058824%,33.72549%,84.705882%);fill-opacity:1;" d="M 404.046875 503.40625 C 404.046875 507.316406 398.179688 507.316406 398.179688 503.40625 C 398.179688 499.496094 404.046875 499.496094 404.046875 503.40625 "/>
<path style=" stroke:none;fill-rule:nonzero;fill:rgb(67.058824%,33.72549%,84.705882%);fill-opacity:1;" d="M 579.914062 185.40625 C 579.914062 189.4375 573.863281 189.4375 573.863281 185.40625 C 573.863281 181.371094 579.914062 181.371094 579.914062 185.40625 "/>
<path style=" stroke:none;fill-rule:nonzero;fill:rgb(67.058824%,33.72549%,84.705882%);fill-opacity:1;" d="M 179.609375 251 C 179.609375 254.746094 173.992188 254.746094 173.992188 251 C 173.992188 247.257812 179.609375 247.257812 179.609375 251 "/>
<path style=" stroke:none;fill-rule:nonzero;fill:rgb(3.921569%,62.745098%,12.156863%);fill-opacity:1;" d="M 231.304688 363.625 C 231.304688 367.183594 225.964844 367.183594 225.964844 363.625 C 225.964844 360.0625 231.304688 360.0625 231.304688 363.625 "/>
<path style=" stroke:none;fill-rule:nonzero;fill:rgb(3.921569%,62.745098%,12.156863%);fill-opacity:1;" d="M 511.734375 467.765625 C 511.734375 471.261719 506.488281 471.261719 506.488281 467.765625 C 506.488281 464.269531 511.734375 464.269531 511.734375 467.765625 "/>
<path style=" stroke:none;fill-rule:nonzero;fill:rgb(3.921569%,62.745098%,12.156863%);fill-opacity:1;" d="M 306.605469 242.238281 L 327.328125 242.238281 L 327.328125 262.960938 L 306.605469 262.960938 Z M 306.605469 242.238281 "/>
<path style=" stroke:none;fill-rule:nonzero;fill:rgb(3.921569%,62.745098%,12.156863%);fill-opacity:1;" d="M 528.386719 335.484375 L 549.109375 335.484375 L 549.109375 356.207031 L 528.386719 356.207031 Z M 528.386719 335.484375 "/>
<path style=" stroke:none;fill-rule:nonzero;fill:rgb(3.921569%,62.745098%,12.156863%);fill-opacity:1;" d="M 293.460938 425.546875 C 293.460938 428.6875 290.917969 431.230469 287.777344 431.230469 C 284.636719 431.230469 282.09375 428.6875 282.09375 425.546875 C 282.09375 422.410156 284.636719 419.863281 287.777344 419.863281 C 290.917969 419.863281 293.460938 422.410156 293.460938 425.546875 "/>
<path style=" stroke:none;fill-rule:nonzero;fill:rgb(3.921569%,62.745098%,12.156863%);fill-opacity:1;" d="M 127.464844 285.726562 C 127.464844 289.207031 122.246094 289.207031 122.246094 285.726562 C 122.246094 282.246094 127.464844 282.246094 127.464844 285.726562 "/>
<path style=" stroke:none;fill-rule:nonzero;fill:rgb(3.921569%,62.745098%,12.156863%);fill-opacity:1;" d="M 176.34375 295.996094 C 176.34375 300.652344 169.359375 300.652344 169.359375 295.996094 C 169.359375 291.339844 176.34375 291.339844 176.34375 295.996094 "/>
<path style=" stroke:none;fill-rule:nonzero;fill:rgb(3.921569%,62.745098%,12.156863%);fill-opacity:1;" d="M 259.085938 178.8125 C 259.085938 182.46875 253.597656 182.46875 253.597656 178.8125 C 253.597656 175.15625 259.085938 175.15625 259.085938 178.8125 "/>
<path style=" stroke:none;fill-rule:nonzero;fill:rgb(3.921569%,62.745098%,12.156863%);fill-opacity:1;" d="M 326.605469 171.300781 L 347.328125 171.300781 L 347.328125 192.023438 L 326.605469 192.023438 Z M 326.605469 171.300781 "/>
<path style=" stroke:none;fill-rule:nonzero;fill:rgb(3.921569%,62.745098%,12.156863%);fill-opacity:1;" d="M 400.558594 161.019531 L 421.28125 161.019531 L 421.28125 181.742188 L 400.558594 181.742188 Z M 400.558594 161.019531 "/>
<path style=" stroke:none;fill-rule:nonzero;fill:rgb(3.921569%,62.745098%,12.156863%);fill-opacity:1;" d="M 585.679688 466.488281 C 585.679688 470.054688 580.335938 470.054688 580.335938 466.488281 C 580.335938 462.925781 585.679688 462.925781 585.679688 466.488281 "/>
<path style=" stroke:none;fill-rule:nonzero;fill:rgb(3.921569%,62.745098%,12.156863%);fill-opacity:1;" d="M 626.59375 296.445312 C 626.59375 301.773438 618.605469 301.773438 618.605469 296.445312 C 618.605469 291.117188 626.59375 291.117188 626.59375 296.445312 "/>
<path style=" stroke:none;fill-rule:nonzero;fill:rgb(3.921569%,62.745098%,12.156863%);fill-opacity:1;" d="M 189.558594 528.847656 C 189.558594 532.363281 184.28125 532.363281 184.28125 528.847656 C 184.28125 525.328125 189.558594 525.328125 189.558594 528.847656 "/>
<path style=" stroke:none;fill-rule:nonzero;fill:rgb(3.921569%,62.745098%,12.156863%);fill-opacity:1;" d="M 507.144531 368.984375 C 507.144531 372.628906 501.679688 372.628906 501.679688 368.984375 C 501.679688 365.339844 507.144531 365.339844 507.144531 368.984375 "/>
<path style=" stroke:none;fill-rule:nonzero;fill:rgb(3.921569%,62.745098%,12.156863%);fill-opacity:1;" d="M 454.410156 296.78125 C 454.410156 300.316406 449.105469 300.316406 449.105469 296.78125 C 449.105469 293.242188 454.410156 293.242188 454.410156 296.78125 "/>
<path style=" stroke:none;fill-rule:nonzero;fill:rgb(3.921569%,62.745098%,12.156863%);fill-opacity:1;" d="M 639.21875 390.300781 C 639.21875 395.800781 634.757812 400.257812 629.261719 400.257812 C 623.761719 400.257812 619.304688 395.800781 619.304688 390.300781 C 619.304688 384.800781 623.761719 380.34375 629.261719 380.34375 C 634.757812 380.34375 639.21875 384.800781 639.21875 390.300781 "/>
<path style=" stroke:none;fill-rule:nonzero;fill:rgb(3.921569%,62.745098%,12.156863%);fill-opacity:1;" d="M 418.898438 93.753906 C 418.898438 97.144531 416.148438 99.890625 412.757812 99.890625 C 409.367188 99.890625 406.621094 97.144531 406.621094 93.753906 C 406.621094 90.363281 409.367188 87.613281 412.757812 87.613281 C 416.148438 87.613281 418.898438 90.363281 418.898438 93.753906 "/>
<path style=" stroke:none;fill-rule:nonzero;fill:rgb(3.921569%,62.745098%,12.156863%);fill-opacity:1;" d="M 286.648438 530.171875 C 286.648438 533.847656 281.136719 533.847656 281.136719 530.171875 C 281.136719 526.496094 286.648438 526.496094 286.648438 530.171875 "/>
<path style=" stroke:none;fill-rule:nonzero;fill:rgb(3.921569%,62.745098%,12.156863%);fill-opacity:1;" d="M 403.480469 137.964844 C 403.480469 141.417969 398.300781 141.417969 398.300781 137.964844 C 398.300781 134.511719 403.480469 134.511719 403.480469 137.964844 "/>
<path style=" stroke:none;fill-rule:nonzero;fill:rgb(3.921569%,62.745098%,12.156863%);fill-opacity:1;" d="M 491.617188 289.609375 C 491.617188 293.496094 485.792969 293.496094 485.792969 289.609375 C 485.792969 285.726562 491.617188 285.726562 491.617188 289.609375 "/>
<path style=" stroke:none;fill-rule:nonzero;fill:rgb(3.921569%,62.745098%,12.156863%);fill-opacity:1;" d="M 509.28125 134.914062 C 509.28125 138.625 503.714844 138.625 503.714844 134.914062 C 503.714844 131.199219 509.28125 131.199219 509.28125 134.914062 "/>
<path style=" stroke:none;fill-rule:nonzero;fill:rgb(3.921569%,62.745098%,12.156863%);fill-opacity:1;" d="M 439.984375 515.726562 C 439.984375 519.5 434.320312 519.5 434.320312 515.726562 C 434.320312 511.949219 439.984375 511.949219 439.984375 515.726562 "/>
<path style=" stroke:none;fill-rule:nonzero;fill:rgb(3.921569%,62.745098%,12.156863%);fill-opacity:1;" d="M 328.878906 485.746094 C 328.878906 488.980469 326.257812 491.597656 323.027344 491.597656 C 319.792969 491.597656 317.171875 488.980469 317.171875 485.746094 C 317.171875 482.515625 319.792969 479.894531 323.027344 479.894531 C 326.257812 479.894531 328.878906 482.515625 328.878906 485.746094 "/>
<path style=" stroke:none;fill-rule:nonzero;fill:rgb(3.921569%,62.745098%,12.156863%);fill-opacity:1;" d="M 517.648438 428.902344 C 517.648438 432.582031 512.128906 432.582031 512.128906 428.902344 C 512.128906 425.222656 517.648438 425.222656 517.648438 428.902344 "/>
<path style=" stroke:none;fill-rule:nonzero;fill:rgb(3.921569%,62.745098%,12.156863%);fill-opacity:1;" d="M 143.1875 320.542969 C 143.1875 324.933594 136.601562 324.933594 136.601562 320.542969 C 136.601562 316.152344 143.1875 316.152344 143.1875 320.542969 "/>
<path style=" stroke:none;fill-rule:nonzero;fill:rgb(3.921569%,62.745098%,12.156863%);fill-opacity:1;" d="M 297.328125 191.082031 C 297.328125 195.277344 291.035156 195.277344 291.035156 191.082031 C 291.035156 186.882812 297.328125 186.882812 297.328125 191.082031 "/>
<path style=" stroke:none;fill-rule:nonzero;fill:rgb(3.921569%,62.745098%,12.156863%);fill-opacity:1;" d="M 187.039062 434.265625 C 187.039062 437.773438 181.773438 437.773438 181.773438 434.265625 C 181.773438 430.753906 187.039062 430.753906 187.039062 434.265625 "/>
<path style=" stroke:none;fill-rule:nonzero;fill:rgb(3.921569%,62.745098%,12.156863%);fill-opacity:1;" d="M 156.175781 418.957031 C 156.175781 423.261719 149.71875 423.261719 149.71875 418.957031 C 149.71875 414.652344 156.175781 414.652344 156.175781 418.957031 "/>
<path style=" stroke:none;fill-rule:nonzero;fill:rgb(3.921569%,62.745098%,12.156863%);fill-opacity:1;" d="M 616.632812 248.429688 C 616.632812 252.105469 611.117188 252.105469 611.117188 248.429688 C 611.117188 244.75 616.632812 244.75 616.632812 248.429688 "/>
<path style=" stroke:none;fill-rule:nonzero;fill:rgb(3.921569%,62.745098%,12.156863%);fill-opacity:1;" d="M 154.101562 457.410156 C 154.101562 461.214844 148.390625 461.214844 148.390625 457.410156 C 148.390625 453.601562 154.101562 453.601562 154.101562 457.410156 "/>
<path style=" stroke:none;fill-rule:nonzero;fill:rgb(3.921569%,62.745098%,12.156863%);fill-opacity:1;" d="M 372.8125 312.332031 C 372.8125 315.507812 370.242188 318.078125 367.066406 318.078125 C 363.894531 318.078125 361.324219 315.507812 361.324219 312.332031 C 361.324219 309.160156 363.894531 306.589844 367.066406 306.589844 C 370.242188 306.589844 372.8125 309.160156 372.8125 312.332031 "/>
<path style=" stroke:none;fill-rule:nonzero;fill:rgb(3.921569%,62.745098%,12.156863%);fill-opacity:1;" d="M 471.75 341.058594 C 471.75 346.519531 463.558594 346.519531 463.558594 341.058594 C 463.558594 335.597656 471.75 335.597656 471.75 341.058594 "/>
<path style=" stroke:none;fill-rule:nonzero;fill:rgb(3.921569%,62.745098%,12.156863%);fill-opacity:1;" d="M 162.585938 310.347656 C 162.585938 316.714844 153.03125 316.714844 153.03125 310.347656 C 153.03125 303.976562 162.585938 303.976562 162.585938 310.347656 "/>
<path style=" stroke:none;fill-rule:nonzero;fill:rgb(3.921569%,62.745098%,12.156863%);fill-opacity:1;" d="M 330.1875 119.90625 C 330.1875 123.457031 324.863281 123.457031 324.863281 119.90625 C 324.863281 116.355469 330.1875 116.355469 330.1875 119.90625 "/>
<path style=" stroke:none;fill-rule:nonzero;fill:rgb(3.921569%,62.745098%,12.156863%);fill-opacity:1;" d="M 347.269531 104.820312 C 347.269531 108.449219 341.832031 108.449219 341.832031 104.820312 C 341.832031 101.195312 347.269531 101.195312 347.269531 104.820312 "/>
<path style=" stroke:none;fill-rule:nonzero;fill:rgb(3.921569%,62.745098%,12.156863%);fill-opacity:1;" d="M 274.917969 215.082031 L 295.640625 215.082031 L 295.640625 235.804688 L 274.917969 235.804688 Z M 274.917969 215.082031 "/>
<path style=" stroke:none;fill-rule:nonzero;fill:rgb(3.921569%,62.745098%,12.156863%);fill-opacity:1;" d="M 366.261719 407.050781 C 366.261719 410.703125 360.78125 410.703125 360.78125 407.050781 C 360.78125 403.398438 366.261719 403.398438 366.261719 407.050781 "/>
<path style=" stroke:none;fill-rule:nonzero;fill:rgb(3.921569%,62.745098%,12.156863%);fill-opacity:1;" d="M 636.519531 333.496094 C 636.519531 337.59375 630.375 337.59375 630.375 333.496094 C 630.375 329.398438 636.519531 329.398438 636.519531 333.496094 "/>
<path style=" stroke:none;fill-rule:nonzero;fill:rgb(3.921569%,62.745098%,12.156863%);fill-opacity:1;" d="M 593.214844 389.605469 C 593.214844 393.8125 586.902344 393.8125 586.902344 389.605469 C 586.902344 385.398438 593.214844 385.398438 593.214844 389.605469 "/>
<path style=" stroke:none;fill-rule:nonzero;fill:rgb(3.921569%,62.745098%,12.156863%);fill-opacity:1;" d="M 563.3125 373.617188 C 563.3125 377.246094 557.867188 377.246094 557.867188 373.617188 C 557.867188 369.984375 563.3125 369.984375 563.3125 373.617188 "/>
<path style=" stroke:none;fill-rule:nonzero;fill:rgb(3.921569%,62.745098%,12.156863%);fill-opacity:1;" d="M 333.386719 142.0625 C 333.386719 145.695312 327.933594 145.695312 327.933594 142.0625 C 327.933594 138.425781 333.386719 138.425781 333.386719 142.0625 "/>
<path style=" stroke:none;fill-rule:nonzero;fill:rgb(3.921569%,62.745098%,12.156863%);fill-opacity:1;" d="M 312.574219 108.496094 C 312.574219 114.25 303.941406 114.25 303.941406 108.496094 C 303.941406 102.742188 312.574219 102.742188 312.574219 108.496094 "/>
<path style=" stroke:none;fill-rule:nonzero;fill:rgb(3.921569%,62.745098%,12.156863%);fill-opacity:1;" d="M 356.65625 368.742188 C 356.65625 372.425781 351.128906 372.425781 351.128906 368.742188 C 351.128906 365.058594 356.65625 365.058594 356.65625 368.742188 "/>
<path style=" stroke:none;fill-rule:nonzero;fill:rgb(3.921569%,62.745098%,12.156863%);fill-opacity:1;" d="M 253.226562 516.28125 L 273.949219 516.28125 L 273.949219 537.003906 L 253.226562 537.003906 Z M 253.226562 516.28125 "/>
<path style=" stroke:none;fill-rule:nonzero;fill:rgb(3.921569%,62.745098%,12.156863%);fill-opacity:1;" d="M 372.007812 159.316406 C 372.007812 163.65625 365.5 163.65625 365.5 159.316406 C 365.5 154.976562 372.007812 154.976562 372.007812 159.316406 "/>
<path style=" stroke:none;fill-rule:nonzero;fill:rgb(3.921569%,62.745098%,12.156863%);fill-opacity:1;" d="M 451.0625 132.40625 C 451.0625 136.070312 445.566406 136.070312 445.566406 132.40625 C 445.566406 128.746094 451.0625 128.746094 451.0625 132.40625 "/>
<path style=" stroke:none;fill-rule:nonzero;fill:rgb(3.921569%,62.745098%,12.156863%);fill-opacity:1;" d="M 307.539062 561.277344 C 307.539062 565.25 301.574219 565.25 301.574219 561.277344 C 301.574219 557.300781 307.539062 557.300781 307.539062 561.277344 "/>
<path style=" stroke:none;fill-rule:nonzero;fill:rgb(3.921569%,62.745098%,12.156863%);fill-opacity:1;" d="M 508.726562 326.289062 C 508.726562 329.765625 503.511719 329.765625 503.511719 326.289062 C 503.511719 322.8125 508.726562 322.8125 508.726562 326.289062 "/>
<path style=" stroke:none;fill-rule:nonzero;fill:rgb(3.921569%,62.745098%,12.156863%);fill-opacity:1;" d="M 404.980469 421.410156 C 404.980469 424.90625 402.144531 427.738281 398.648438 427.738281 C 395.152344 427.738281 392.316406 424.90625 392.316406 421.410156 C 392.316406 417.910156 395.152344 415.078125 398.648438 415.078125 C 402.144531 415.078125 404.980469 417.910156 404.980469 421.410156 "/>
<path style=" stroke:none;fill-rule:nonzero;fill:rgb(3.921569%,62.745098%,12.156863%);fill-opacity:1;" d="M 415.652344 315.839844 C 415.652344 319.363281 410.367188 319.363281 410.367188 315.839844 C 410.367188 312.316406 415.652344 312.316406 415.652344 315.839844 "/>
<path style=" stroke:none;fill-rule:nonzero;fill:rgb(3.921569%,62.745098%,12.156863%);fill-opacity:1;" d="M 256.183594 334.515625 C 256.183594 339.269531 252.328125 343.121094 247.574219 343.121094 C 242.820312 343.121094 238.964844 339.269531 238.964844 334.515625 C 238.964844 329.761719 242.820312 325.90625 247.574219 325.90625 C 252.328125 325.90625 256.183594 329.761719 256.183594 334.515625 "/>
<path style=" stroke:none;fill-rule:nonzero;fill:rgb(3.921569%,62.745098%,12.156863%);fill-opacity:1;" d="M 412.957031 541.59375 C 412.957031 545.1875 407.566406 545.1875 407.566406 541.59375 C 407.566406 538 412.957031 538 412.957031 541.59375 "/>
<path style=" stroke:none;fill-rule:nonzero;fill:rgb(3.921569%,62.745098%,12.156863%);fill-opacity:1;" d="M 377.789062 535.925781 C 377.789062 539.90625 374.5625 543.132812 370.578125 543.132812 C 366.597656 543.132812 363.371094 539.90625 363.371094 535.925781 C 363.371094 531.945312 366.597656 528.714844 370.578125 528.714844 C 374.5625 528.714844 377.789062 531.945312 377.789062 535.925781 "/>
<path style=" stroke:none;fill-rule:nonzero;fill:rgb(3.921569%,62.745098%,12.156863%);fill-opacity:1;" d="M 470.746094 592.144531 C 470.746094 595.640625 465.5 595.640625 465.5 592.144531 C 465.5 588.644531 470.746094 588.644531 470.746094 592.144531 "/>
<path style=" stroke:none;fill-rule:nonzero;fill:rgb(3.921569%,62.745098%,12.156863%);fill-opacity:1;" d="M 191.824219 509.246094 C 191.824219 512.734375 186.589844 512.734375 186.589844 509.246094 C 186.589844 505.757812 191.824219 505.757812 191.824219 509.246094 "/>
<path style=" stroke:none;fill-rule:nonzero;fill:rgb(3.921569%,62.745098%,12.156863%);fill-opacity:1;" d="M 387.414062 194.144531 C 387.414062 199.320312 379.644531 199.320312 379.644531 194.144531 C 379.644531 188.964844 387.414062 188.964844 387.414062 194.144531 "/>
<path style=" stroke:none;fill-rule:nonzero;fill:rgb(3.921569%,62.745098%,12.156863%);fill-opacity:1;" d="M 314.96875 386.257812 C 314.96875 390.042969 309.292969 390.042969 309.292969 386.257812 C 309.292969 382.476562 314.96875 382.476562 314.96875 386.257812 "/>
<path style=" stroke:none;fill-rule:nonzero;fill:rgb(15.294118%,28.627451%,27.058824%);fill-opacity:1;" d="M 486.851562 167.382812 C 486.851562 170.988281 481.441406 170.988281 481.441406 167.382812 C 481.441406 163.773438 486.851562 163.773438 486.851562 167.382812 "/>
<path style=" stroke:none;fill-rule:nonzero;fill:rgb(15.294118%,28.627451%,27.058824%);fill-opacity:1;" d="M 489.390625 582.011719 C 489.390625 585.011719 486.957031 587.441406 483.960938 587.441406 C 480.960938 587.441406 478.53125 585.011719 478.53125 582.011719 C 478.53125 579.011719 480.960938 576.582031 483.960938 576.582031 C 486.957031 576.582031 489.390625 579.011719 489.390625 582.011719 "/>
<path style=" stroke:none;fill-rule:nonzero;fill:rgb(15.294118%,28.627451%,27.058824%);fill-opacity:1;" d="M 570.328125 424.339844 C 570.328125 427.914062 564.972656 427.914062 564.972656 424.339844 C 564.972656 420.769531 570.328125 420.769531 570.328125 424.339844 "/>
<path style=" stroke:none;fill-rule:nonzero;fill:rgb(15.294118%,28.627451%,27.058824%);fill-opacity:1;" d="M 118.449219 346.199219 C 118.449219 350.328125 112.257812 350.328125 112.257812 346.199219 C 112.257812 342.074219 118.449219 342.074219 118.449219 346.199219 "/>
<path style=" stroke:none;fill-rule:nonzero;fill:rgb(15.294118%,28.627451%,27.058824%);fill-opacity:1;" d="M 223.738281 402.832031 C 223.738281 406.363281 218.4375 406.363281 218.4375 402.832031 C 218.4375 399.296875 223.738281 399.296875 223.738281 402.832031 "/>
<path style=" stroke:none;fill-rule:nonzero;fill:rgb(15.294118%,28.627451%,27.058824%);fill-opacity:1;" d="M 463.148438 245.90625 C 463.148438 249.414062 457.886719 249.414062 457.886719 245.90625 C 457.886719 242.394531 463.148438 242.394531 463.148438 245.90625 "/>
<path style=" stroke:none;fill-rule:nonzero;fill:rgb(30.588235%,22.352941%,47.843137%);fill-opacity:1;" d="M 597.875 217.632812 C 597.875 221.203125 592.523438 221.203125 592.523438 217.632812 C 592.523438 214.066406 597.875 214.066406 597.875 217.632812 "/>
<path style=" stroke:none;fill-rule:nonzero;fill:rgb(70.196078%,14.901961%,35.686275%);fill-opacity:1;" d="M 456.867188 388.960938 C 456.867188 392.945312 450.890625 392.945312 450.890625 388.960938 C 450.890625 384.976562 456.867188 384.976562 456.867188 388.960938 "/>
<path style=" stroke:none;fill-rule:nonzero;fill:rgb(18.039216%,73.72549%,27.058824%);fill-opacity:1;" d="M 572.5 248.492188 C 572.5 252.039062 567.183594 252.039062 567.183594 248.492188 C 567.183594 244.945312 572.5 244.945312 572.5 248.492188 "/>
<path style=" stroke:none;fill-rule:nonzero;fill:rgb(18.039216%,73.72549%,27.058824%);fill-opacity:1;" d="M 587.207031 499.128906 C 587.207031 502.625 581.964844 502.625 581.964844 499.128906 C 581.964844 495.632812 587.207031 495.632812 587.207031 499.128906 "/>
<path style=" stroke:none;fill-rule:nonzero;fill:rgb(18.039216%,73.72549%,27.058824%);fill-opacity:1;" d="M 229.550781 113.855469 L 250.273438 113.855469 L 250.273438 134.578125 L 229.550781 134.578125 Z M 229.550781 113.855469 "/>
<path style=" stroke:none;fill-rule:nonzero;fill:rgb(18.039216%,73.72549%,27.058824%);fill-opacity:1;" d="M 446.46875 162.273438 C 446.46875 165.992188 440.894531 165.992188 440.894531 162.273438 C 440.894531 158.554688 446.46875 158.554688 446.46875 162.273438 "/>
<path style=" stroke:none;fill-rule:nonzero;fill:rgb(18.039216%,73.72549%,27.058824%);fill-opacity:1;" d="M 391.851562 349.195312 C 391.851562 352.808594 386.429688 352.808594 386.429688 349.195312 C 386.429688 345.582031 391.851562 345.582031 391.851562 349.195312 "/>
<path style=" stroke:none;fill-rule:nonzero;fill:rgb(18.039216%,73.72549%,27.058824%);fill-opacity:1;" d="M 411.375 611.847656 C 411.375 616.421875 404.515625 616.421875 404.515625 611.847656 C 404.515625 607.273438 411.375 607.273438 411.375 611.847656 "/>
<path style=" stroke:none;fill-rule:nonzero;fill:rgb(18.039216%,73.72549%,27.058824%);fill-opacity:1;" d="M 452.761719 424.359375 C 452.761719 431.511719 446.960938 437.3125 439.808594 437.3125 C 432.65625 437.3125 426.855469 431.511719 426.855469 424.359375 C 426.855469 417.203125 432.65625 411.40625 439.808594 411.40625 C 446.960938 411.40625 452.761719 417.203125 452.761719 424.359375 "/>
<path style=" stroke:none;fill-rule:nonzero;fill:rgb(18.039216%,73.72549%,27.058824%);fill-opacity:1;" d="M 349.789062 563.304688 C 349.789062 568.609375 341.828125 568.609375 341.828125 563.304688 C 341.828125 558 349.789062 558 349.789062 563.304688 "/>
<path style=" stroke:none;fill-rule:nonzero;fill:rgb(18.039216%,73.72549%,27.058824%);fill-opacity:1;" d="M 331.261719 530.085938 C 331.261719 535.6875 322.855469 535.6875 322.855469 530.085938 C 322.855469 524.480469 331.261719 524.480469 331.261719 530.085938 "/>
<path style=" stroke:none;fill-rule:nonzero;fill:rgb(18.039216%,73.72549%,27.058824%);fill-opacity:1;" d="M 206.664062 273.511719 C 206.664062 277.539062 200.621094 277.539062 200.621094 273.511719 C 200.621094 269.484375 206.664062 269.484375 206.664062 273.511719 "/>
<path style=" stroke:none;fill-rule:nonzero;fill:rgb(18.039216%,73.72549%,27.058824%);fill-opacity:1;" d="M 506.945312 253.734375 C 506.945312 257.792969 500.855469 257.792969 500.855469 253.734375 C 500.855469 249.671875 506.945312 249.671875 506.945312 253.734375 "/>
<path style=" stroke:none;fill-rule:nonzero;fill:rgb(18.039216%,73.72549%,27.058824%);fill-opacity:1;" d="M 249.910156 243.390625 L 270.632812 243.390625 L 270.632812 264.113281 L 249.910156 264.113281 Z M 249.910156 243.390625 "/>
<path style=" stroke:none;fill-rule:nonzero;fill:rgb(18.039216%,73.72549%,27.058824%);fill-opacity:1;" d="M 463.0625 194.15625 C 463.0625 197.632812 457.847656 197.632812 457.847656 194.15625 C 457.847656 190.679688 463.0625 190.679688 463.0625 194.15625 "/>
<path style=" stroke:none;fill-rule:nonzero;fill:rgb(18.039216%,73.72549%,27.058824%);fill-opacity:1;" d="M 274.132812 584.898438 C 274.132812 588.5625 268.632812 588.5625 268.632812 584.898438 C 268.632812 581.230469 274.132812 581.230469 274.132812 584.898438 "/>
<path style=" stroke:none;fill-rule:nonzero;fill:rgb(18.039216%,73.72549%,27.058824%);fill-opacity:1;" d="M 332.738281 602.941406 C 332.738281 609.015625 323.625 609.015625 323.625 602.941406 C 323.625 596.867188 332.738281 596.867188 332.738281 602.941406 "/>
<path style=" stroke:none;fill-rule:nonzero;fill:rgb(18.039216%,73.72549%,27.058824%);fill-opacity:1;" d="M 616.886719 454.167969 C 616.886719 457.679688 611.617188 457.679688 611.617188 454.167969 C 611.617188 450.65625 616.886719 450.65625 616.886719 454.167969 "/>
<path style=" stroke:none;fill-rule:nonzero;fill:rgb(18.039216%,73.72549%,27.058824%);fill-opacity:1;" d="M 546.742188 453.117188 C 546.742188 456.636719 541.464844 456.636719 541.464844 453.117188 C 541.464844 449.601562 546.742188 449.601562 546.742188 453.117188 "/>
<path style=" stroke:none;fill-rule:nonzero;fill:rgb(18.039216%,73.72549%,27.058824%);fill-opacity:1;" d="M 382.546875 106.933594 C 382.546875 110.425781 377.304688 110.425781 377.304688 106.933594 C 377.304688 103.4375 382.546875 103.4375 382.546875 106.933594 "/>
<path style=" stroke:none;fill-rule:nonzero;fill:rgb(18.039216%,73.72549%,27.058824%);fill-opacity:1;" d="M 565.820312 218.367188 C 565.820312 221.839844 563.003906 224.65625 559.53125 224.65625 C 556.0625 224.65625 553.246094 221.839844 553.246094 218.367188 C 553.246094 214.898438 556.0625 212.082031 559.53125 212.082031 C 563.003906 212.082031 565.820312 214.898438 565.820312 218.367188 "/>
<path style=" stroke:none;fill-rule:nonzero;fill:rgb(18.039216%,73.72549%,27.058824%);fill-opacity:1;" d="M 530.367188 215.652344 C 530.367188 219.1875 525.0625 219.1875 525.0625 215.652344 C 525.0625 212.117188 530.367188 212.117188 530.367188 215.652344 "/>
<path style=" stroke:none;fill-rule:nonzero;fill:rgb(18.039216%,73.72549%,27.058824%);fill-opacity:1;" d="M 527.367188 138.136719 L 548.089844 138.136719 L 548.089844 158.859375 L 527.367188 158.859375 Z M 527.367188 138.136719 "/>
<path style=" stroke:none;fill-rule:nonzero;fill:rgb(18.039216%,73.72549%,27.058824%);fill-opacity:1;" d="M 224.34375 445.875 C 224.34375 450.636719 217.199219 450.636719 217.199219 445.875 C 217.199219 441.113281 224.34375 441.113281 224.34375 445.875 "/>
<path style=" stroke:none;fill-rule:nonzero;fill:rgb(18.039216%,73.72549%,27.058824%);fill-opacity:1;" d="M 282.734375 147.425781 L 303.457031 147.425781 L 303.457031 168.148438 L 282.734375 168.148438 Z M 282.734375 147.425781 "/>
<path style=" stroke:none;fill-rule:nonzero;fill:rgb(18.039216%,73.72549%,27.058824%);fill-opacity:1;" d="M 433.726562 211.632812 C 433.726562 215.363281 428.125 215.363281 428.125 211.632812 C 428.125 207.898438 433.726562 207.898438 433.726562 211.632812 "/>
<path style=" stroke:none;fill-rule:nonzero;fill:rgb(18.039216%,73.72549%,27.058824%);fill-opacity:1;" d="M 535.351562 300.96875 C 535.351562 304.554688 529.96875 304.554688 529.96875 300.96875 C 529.96875 297.382812 535.351562 297.382812 535.351562 300.96875 "/>
<path style=" stroke:none;fill-rule:nonzero;fill:rgb(18.039216%,73.72549%,27.058824%);fill-opacity:1;" d="M 315.125 285.90625 L 335.847656 285.90625 L 335.847656 306.628906 L 315.125 306.628906 Z M 315.125 285.90625 "/>
<path style=" stroke:none;fill-rule:nonzero;fill:rgb(18.039216%,73.72549%,27.058824%);fill-opacity:1;" d="M 389.738281 569.785156 C 389.738281 575.847656 380.644531 575.847656 380.644531 569.785156 C 380.644531 563.726562 389.738281 563.726562 389.738281 569.785156 "/>
<path style=" stroke:none;fill-rule:nonzero;fill:rgb(18.039216%,73.72549%,27.058824%);fill-opacity:1;" d="M 235.003906 481.261719 C 235.003906 484.890625 229.558594 484.890625 229.558594 481.261719 C 229.558594 477.628906 235.003906 477.628906 235.003906 481.261719 "/>
<path style=" stroke:none;fill-rule:nonzero;fill:rgb(18.039216%,73.72549%,27.058824%);fill-opacity:1;" d="M 285.042969 490.039062 C 285.042969 493.582031 279.730469 493.582031 279.730469 490.039062 C 279.730469 486.5 285.042969 486.5 285.042969 490.039062 "/>
<path style=" stroke:none;fill-rule:nonzero;fill:rgb(18.039216%,73.72549%,27.058824%);fill-opacity:1;" d="M 456.378906 93.574219 L 477.101562 93.574219 L 477.101562 114.296875 L 456.378906 114.296875 Z M 456.378906 93.574219 "/>
<path style=" stroke:none;fill-rule:nonzero;fill:rgb(18.039216%,73.72549%,27.058824%);fill-opacity:1;" d="M 610.800781 307.894531 C 610.800781 313.019531 603.117188 313.019531 603.117188 307.894531 C 603.117188 302.773438 610.800781 302.773438 610.800781 307.894531 "/>
<path style=" stroke:none;fill-rule:nonzero;fill:rgb(18.039216%,73.72549%,27.058824%);fill-opacity:1;" d="M 405.875 232.542969 C 405.875 236.273438 400.277344 236.273438 400.277344 232.542969 C 400.277344 228.8125 405.875 228.8125 405.875 232.542969 "/>
<path style=" stroke:none;fill-rule:nonzero;fill:rgb(18.039216%,73.72549%,27.058824%);fill-opacity:1;" d="M 564.769531 281.300781 C 564.769531 286.601562 556.820312 286.601562 556.820312 281.300781 C 556.820312 276 564.769531 276 564.769531 281.300781 "/>
<path style=" stroke:none;fill-rule:nonzero;fill:rgb(18.039216%,73.72549%,27.058824%);fill-opacity:1;" d="M 625.882812 409.292969 C 625.882812 413.066406 620.222656 413.066406 620.222656 409.292969 C 620.222656 405.519531 625.882812 405.519531 625.882812 409.292969 "/>
<path style=" stroke:none;fill-rule:nonzero;fill:rgb(18.039216%,73.72549%,27.058824%);fill-opacity:1;" d="M 268.703125 458.839844 C 268.703125 465.710938 258.390625 465.710938 258.390625 458.839844 C 258.390625 451.964844 268.703125 451.964844 268.703125 458.839844 "/>
<path style=" stroke:none;fill-rule:nonzero;fill:rgb(18.039216%,73.72549%,27.058824%);fill-opacity:1;" d="M 438.988281 592.929688 C 438.988281 596.167969 436.363281 598.789062 433.125 598.789062 C 429.890625 598.789062 427.265625 596.167969 427.265625 592.929688 C 427.265625 589.691406 429.890625 587.066406 433.125 587.066406 C 436.363281 587.066406 438.988281 589.691406 438.988281 592.929688 "/>
<path style=" stroke:none;fill-rule:nonzero;fill:rgb(18.039216%,73.72549%,27.058824%);fill-opacity:1;" d="M 318.230469 466.449219 C 318.230469 470.457031 312.21875 470.457031 312.21875 466.449219 C 312.21875 462.441406 318.230469 462.441406 318.230469 466.449219 "/>
<path style=" stroke:none;fill-rule:nonzero;fill:rgb(18.039216%,73.72549%,27.058824%);fill-opacity:1;" d="M 589.128906 346.480469 C 589.128906 349.945312 583.933594 349.945312 583.933594 346.480469 C 583.933594 343.019531 589.128906 343.019531 589.128906 346.480469 "/>
<path style=" stroke:none;fill-rule:nonzero;fill:rgb(18.039216%,73.72549%,27.058824%);fill-opacity:1;" d="M 494.5625 404.105469 C 494.5625 407.410156 491.882812 410.089844 488.578125 410.089844 C 485.269531 410.089844 482.589844 407.410156 482.589844 404.105469 C 482.589844 400.800781 485.269531 398.121094 488.578125 398.121094 C 491.882812 398.121094 494.5625 400.800781 494.5625 404.105469 "/>
<path style=" stroke:none;fill-rule:nonzero;fill:rgb(18.039216%,73.72549%,27.058824%);fill-opacity:1;" d="M 167.007812 438.398438 C 167.007812 444.449219 157.9375 444.449219 157.9375 438.398438 C 157.9375 432.351562 167.007812 432.351562 167.007812 438.398438 "/>
<path style=" stroke:none;fill-rule:nonzero;fill:rgb(18.039216%,73.72549%,27.058824%);fill-opacity:1;" d="M 381.433594 604.015625 C 381.433594 607.519531 376.175781 607.519531 376.175781 604.015625 C 376.175781 600.507812 381.433594 600.507812 381.433594 604.015625 "/>
<path style=" stroke:none;fill-rule:nonzero;fill:rgb(18.039216%,73.72549%,27.058824%);fill-opacity:1;" d="M 191.65625 342.429688 C 191.65625 345.964844 186.351562 345.964844 186.351562 342.429688 C 186.351562 338.894531 191.65625 338.894531 191.65625 342.429688 "/>
<path style=" stroke:none;fill-rule:nonzero;fill:rgb(18.039216%,73.72549%,27.058824%);fill-opacity:1;" d="M 620.21875 359.21875 C 620.21875 363 614.546875 363 614.546875 359.21875 C 614.546875 355.441406 620.21875 355.441406 620.21875 359.21875 "/>
<path style=" stroke:none;fill-rule:nonzero;fill:rgb(18.039216%,73.72549%,27.058824%);fill-opacity:1;" d="M 413.652344 381.058594 C 413.652344 384.714844 408.164062 384.714844 408.164062 381.058594 C 408.164062 377.398438 413.652344 377.398438 413.652344 381.058594 "/>
<path style=" stroke:none;fill-rule:nonzero;fill:rgb(18.039216%,73.72549%,27.058824%);fill-opacity:1;" d="M 271.046875 382.085938 C 271.046875 388.21875 261.851562 388.21875 261.851562 382.085938 C 261.851562 375.957031 271.046875 375.957031 271.046875 382.085938 "/>
<path style=" stroke:none;fill-rule:nonzero;fill:rgb(18.039216%,73.72549%,27.058824%);fill-opacity:1;" d="M 437.765625 335.980469 L 458.488281 335.980469 L 458.488281 356.703125 L 437.765625 356.703125 Z M 437.765625 335.980469 "/>
<path style=" stroke:none;fill-rule:nonzero;fill:rgb(18.039216%,73.72549%,27.058824%);fill-opacity:1;" d="M 158.453125 203.34375 L 179.175781 203.34375 L 179.175781 224.066406 L 158.453125 224.066406 Z M 158.453125 203.34375 "/>
<path style=" stroke:none;fill-rule:nonzero;fill:rgb(18.039216%,73.72549%,27.058824%);fill-opacity:1;" d="M 269.539062 304.742188 L 290.261719 304.742188 L 290.261719 325.464844 L 269.539062 325.464844 Z M 269.539062 304.742188 "/>
<path style=" stroke:none;fill-rule:nonzero;fill:rgb(18.039216%,73.72549%,27.058824%);fill-opacity:1;" d="M 395.929688 276.527344 C 395.929688 280.597656 389.820312 280.597656 389.820312 276.527344 C 389.820312 272.453125 395.929688 272.453125 395.929688 276.527344 "/>
<path style=" stroke:none;fill-rule:nonzero;fill:rgb(49.803922%,27.058824%,38.039216%);fill-opacity:1;" d="M 245.074219 522.097656 C 245.074219 526.164062 238.972656 526.164062 238.972656 522.097656 C 238.972656 518.027344 245.074219 518.027344 245.074219 522.097656 "/>
<path style=" stroke:none;fill-rule:nonzero;fill:rgb(73.72549%,18.039216%,63.137255%);fill-opacity:1;" d="M 296.816406 108.40625 C 296.816406 113.609375 292.597656 117.828125 287.394531 117.828125 C 282.1875 117.828125 277.96875 113.609375 277.96875 108.40625 C 277.96875 103.203125 282.1875 98.984375 287.394531 98.984375 C 292.597656 98.984375 296.816406 103.203125 296.816406 108.40625 "/>
<path style=" stroke:none;fill-rule:nonzero;fill:rgb(73.72549%,18.039216%,63.137255%);fill-opacity:1;" d="M 332.734375 336.265625 C 332.734375 339.988281 327.152344 339.988281 327.152344 336.265625 C 327.152344 332.542969 332.734375 332.542969 332.734375 336.265625 "/>
<path style=" stroke:none;fill-rule:nonzero;fill:rgb(73.72549%,18.039216%,63.137255%);fill-opacity:1;" d="M 200.378906 304.195312 L 221.101562 304.195312 L 221.101562 324.917969 L 200.378906 324.917969 Z M 200.378906 304.195312 "/>
<path style=" stroke:none;fill-rule:nonzero;fill:rgb(41.568627%,32.156863%,77.647059%);fill-opacity:1;" d="M 538.09375 397.9375 C 538.09375 401.4375 532.839844 401.4375 532.839844 397.9375 C 532.839844 394.433594 538.09375 394.433594 538.09375 397.9375 "/>
<path style=" stroke:none;fill-rule:nonzero;fill:rgb(41.568627%,32.156863%,77.647059%);fill-opacity:1;" d="M 574.867188 317.730469 C 574.867188 320.828125 572.355469 323.335938 569.261719 323.335938 C 566.164062 323.335938 563.652344 320.828125 563.652344 317.730469 C 563.652344 314.632812 566.164062 312.125 569.261719 312.125 C 572.355469 312.125 574.867188 314.632812 574.867188 317.730469 "/>
<path style=" stroke:none;fill-rule:nonzero;fill:rgb(41.568627%,32.156863%,77.647059%);fill-opacity:1;" d="M 547.085938 488.644531 C 547.085938 492.28125 541.632812 492.28125 541.632812 488.644531 C 541.632812 485.011719 547.085938 485.011719 547.085938 488.644531 "/>
<path style=" stroke:none;fill-rule:nonzero;fill:rgb(41.568627%,32.156863%,77.647059%);fill-opacity:1;" d="M 537.003906 536.308594 L 557.726562 536.308594 L 557.726562 557.03125 L 537.003906 557.03125 Z M 537.003906 536.308594 "/>
<path style=" stroke:none;fill-rule:nonzero;fill:rgb(41.568627%,32.156863%,77.647059%);fill-opacity:1;" d="M 231.007812 154.683594 C 231.007812 158.320312 225.554688 158.320312 225.554688 154.683594 C 225.554688 151.050781 231.007812 151.050781 231.007812 154.683594 "/>
<path style=" stroke:none;fill-rule:nonzero;fill:rgb(41.568627%,32.156863%,77.647059%);fill-opacity:1;" d="M 367.445312 225.625 C 367.445312 229.363281 361.839844 229.363281 361.839844 225.625 C 361.839844 221.890625 367.445312 221.890625 367.445312 225.625 "/>
<path style=" stroke:none;fill-rule:nonzero;fill:rgb(41.568627%,32.156863%,77.647059%);fill-opacity:1;" d="M 461.65625 548.292969 C 461.65625 554.160156 452.855469 554.160156 452.855469 548.292969 C 452.855469 542.425781 461.65625 542.425781 461.65625 548.292969 "/>
<path style=" stroke:none;fill-rule:nonzero;fill:rgb(41.568627%,32.156863%,77.647059%);fill-opacity:1;" d="M 588.394531 429.085938 C 588.394531 432.632812 583.074219 432.632812 583.074219 429.085938 C 583.074219 425.542969 588.394531 425.542969 588.394531 429.085938 "/>
<path style=" stroke:none;fill-rule:nonzero;fill:rgb(67.843137%,55.294118%,55.294118%);fill-opacity:1;" d="M 427.957031 461.695312 C 427.957031 465.425781 422.359375 465.425781 422.359375 461.695312 C 422.359375 457.964844 427.957031 457.964844 427.957031 461.695312 "/>
<path style=" stroke:none;fill-rule:nonzero;fill:rgb(67.843137%,55.294118%,55.294118%);fill-opacity:1;" d="M 224.796875 564.289062 C 224.796875 568.164062 218.976562 568.164062 218.976562 564.289062 C 218.976562 560.410156 224.796875 560.410156 224.796875 564.289062 "/>
<path style=" stroke:none;fill-rule:nonzero;fill:rgb(81.176471%,90.588235%,12.156863%);fill-opacity:1;" d="M 249.933594 212.128906 C 249.933594 215.703125 244.574219 215.703125 244.574219 212.128906 C 244.574219 208.554688 249.933594 208.554688 249.933594 212.128906 "/>
</g>
</svg>
