<?xml version="1.0" encoding="UTF-8"?>
<svg xmlns="http://www.w3.org/2000/svg" xmlns:xlink="http://www.w3.org/1999/xlink" width="720pt" height="720pt" viewBox="0 0 720 720" version="1.1">
<g id="surface357">
<path style=" stroke:none;fill-rule:nonzero;fill:rgb(95.686275%,95.686275%,95.686275%);fill-opacity:1;" d="M 531.59375 571.824219 L 529.5625 571.109375 L 527.476562 569.9375 L 525.40625 568.402344 L 523.394531 566.617188 L 521.453125 564.710938 L 519.550781 562.769531 L 517.796875 560.722656 L 516.367188 558.535156 L 515.402344 556.238281 L 515.007812 553.882812 L 515 553.550781 L 515.285156 551.289062 L 516.105469 549.070312 L 517.378906 546.945312 L 518.988281 544.945312 L 520.785156 543.058594 L 522.632812 541.210938 L 524.53125 539.320312 L 526.496094 537.378906 L 528.496094 535.417969 L 530.476562 533.5 L 531.59375 532.433594 L 533.753906 530.386719 L 535.746094 528.542969 L 537.519531 526.925781 L 539.097656 525.515625 L 540.578125 524.210938 L 542.148438 523.023438 L 543.917969 522.144531 L 545.902344 521.75 L 548.058594 521.941406 L 548.128906 521.957031 L 550.160156 522.671875 L 552.246094 523.84375 L 554.316406 525.382812 L 556.328125 527.167969 L 558.269531 529.070312 L 560.171875 531.011719 L 561.921875 533.058594 L 563.355469 535.246094 L 564.320312 537.542969 L 564.714844 539.898438 L 564.722656 540.230469 L 564.4375 542.492188 L 563.617188 544.710938 L 562.339844 546.835938 L 560.734375 548.835938 L 558.9375 550.722656 L 557.089844 552.574219 L 555.191406 554.464844 L 553.226562 556.40625 L 551.226562 558.363281 L 549.246094 560.28125 L 548.128906 561.351562 L 545.964844 563.394531 L 543.976562 565.242188 L 542.199219 566.855469 L 540.625 568.265625 L 539.144531 569.570312 L 537.574219 570.761719 L 535.804688 571.636719 L 533.820312 572.035156 L 531.660156 571.839844 Z M 531.59375 571.824219 "/>
<path style=" stroke:none;fill-rule:nonzero;fill:rgb(95.686275%,95.686275%,95.686275%);fill-opacity:1;" d="M 579.335938 221.207031 L 576.660156 220.910156 L 574.015625 220.050781 L 571.460938 218.691406 L 569.023438 216.9375 L 566.722656 214.910156 L 564.515625 212.75 L 562.328125 210.558594 L 560.128906 208.335938 L 557.9375 206.097656 L 555.808594 203.878906 L 553.808594 201.734375 L 551.980469 199.726562 L 551.863281 199.59375 L 549.871094 197.292969 L 548.253906 195.300781 L 547.007812 193.644531 L 546.074219 192.273438 L 545.304688 191.058594 L 544.609375 189.804688 L 544.144531 188.378906 L 544.039062 186.734375 L 544.382812 184.882812 L 544.707031 183.96875 L 545.648438 182.074219 L 546.960938 180.097656 L 548.5625 178.097656 L 550.351562 176.128906 L 552.230469 174.214844 L 554.136719 172.320312 L 556.097656 170.46875 L 558.132812 168.742188 L 560.199219 167.230469 L 562.246094 166.027344 L 563.023438 165.652344 L 565.074219 164.917969 L 566.980469 164.589844 L 568.710938 164.628906 L 570.261719 164.945312 L 571.691406 165.402344 L 573.152344 165.929688 L 574.808594 166.671875 L 576.738281 167.746094 L 578.953125 169.199219 L 580.851562 170.605469 L 582.964844 172.308594 L 585.183594 174.21875 L 587.457031 176.285156 L 589.734375 178.441406 L 591.972656 180.628906 L 594.167969 182.820312 L 596.332031 185.023438 L 598.375 187.320312 L 600.152344 189.746094 L 601.539062 192.300781 L 602.433594 194.9375 L 602.761719 197.617188 L 602.765625 197.78125 L 602.5 200.316406 L 601.726562 202.820312 L 600.496094 205.253906 L 598.894531 207.585938 L 597.027344 209.792969 L 595.007812 211.898438 L 592.9375 213.964844 L 590.808594 215.957031 L 588.570312 217.769531 L 586.210938 219.285156 L 583.757812 220.40625 L 581.238281 221.058594 Z M 579.335938 221.207031 "/>
<path style=" stroke:none;fill-rule:nonzero;fill:rgb(95.686275%,95.686275%,95.686275%);fill-opacity:1;" d="M 279.375 552.695312 L 277.015625 552.394531 L 274.707031 551.535156 L 272.492188 550.203125 L 270.410156 548.519531 L 268.445312 546.648438 L 266.527344 544.71875 L 264.636719 542.722656 L 262.855469 540.628906 L 261.273438 538.460938 L 259.972656 536.269531 L 259.425781 535.136719 L 258.632812 532.949219 L 258.214844 530.855469 L 258.136719 528.902344 L 258.324219 527.109375 L 258.671875 525.4375 L 259.070312 523.78125 L 259.609375 522.003906 L 260.386719 520.039062 L 261.457031 517.890625 L 262.84375 515.59375 L 263.195312 515.0625 L 264.765625 512.875 L 266.546875 510.648438 L 268.46875 508.4375 L 270.472656 506.285156 L 272.5 504.210938 L 274.523438 502.1875 L 276.589844 500.222656 L 278.773438 498.445312 L 281.089844 497.003906 L 283.507812 496.011719 L 285.976562 495.558594 L 286.675781 495.535156 L 289.199219 495.839844 L 291.683594 496.71875 L 294.074219 498.097656 L 296.332031 499.847656 L 298.457031 501.824219 L 300.523438 503.882812 L 302.550781 505.988281 L 304.464844 508.171875 L 306.160156 510.425781 L 307.546875 512.695312 L 308.546875 514.929688 L 308.59375 515.0625 L 309.164062 517.332031 L 309.269531 519.472656 L 308.96875 521.445312 L 308.347656 523.234375 L 307.535156 524.882812 L 306.660156 526.492188 L 305.691406 528.191406 L 304.550781 530.039062 L 303.207031 532.03125 L 301.664062 534.132812 L 300.882812 535.136719 L 299.136719 537.269531 L 297.269531 539.40625 L 295.34375 541.503906 L 293.414062 543.515625 L 291.515625 545.433594 L 289.628906 547.308594 L 287.671875 549.097656 L 285.59375 550.652344 L 283.394531 551.832031 L 281.117188 552.53125 Z M 279.375 552.695312 "/>
<path style=" stroke:none;fill-rule:nonzero;fill:rgb(95.686275%,95.686275%,95.686275%);fill-opacity:1;" d="M 476.695312 374.316406 L 473.78125 374.878906 L 470.710938 375.203125 L 467.550781 375.300781 L 464.359375 375.203125 L 461.199219 374.941406 L 458.089844 374.582031 L 455.015625 374.179688 L 451.90625 373.742188 L 448.746094 373.214844 L 445.558594 372.558594 L 442.398438 371.757812 L 439.332031 370.804688 L 436.445312 369.710938 L 433.234375 368.21875 L 430.347656 366.5625 L 427.816406 364.796875 L 425.632812 362.992188 L 423.722656 361.183594 L 421.925781 359.378906 L 420.203125 357.519531 L 418.691406 355.542969 L 417.519531 353.453125 L 416.792969 351.28125 L 416.578125 349.308594 L 416.867188 347.023438 L 417.699219 344.78125 L 418.996094 342.632812 L 420.628906 340.613281 L 422.449219 338.710938 L 424.324219 336.84375 L 426.285156 334.992188 L 428.386719 333.199219 L 430.621094 331.546875 L 432.941406 330.109375 L 434.125 329.484375 L 436.644531 328.398438 L 439.128906 327.640625 L 441.511719 327.191406 L 443.75 326.988281 L 445.875 326.925781 L 448.015625 326.890625 L 450.273438 326.902344 L 452.667969 326.988281 L 455.148438 327.167969 L 457.234375 327.390625 L 459.714844 327.753906 L 462.117188 328.199219 L 464.382812 328.707031 L 466.484375 329.25 L 468.464844 329.800781 L 470.457031 330.386719 L 472.578125 331.128906 L 474.847656 332.101562 L 477.230469 333.339844 L 479.199219 334.53125 L 481.453125 336.085938 L 483.671875 337.8125 L 485.804688 339.644531 L 487.816406 341.515625 L 489.714844 343.382812 L 491.566406 345.25 L 493.316406 347.191406 L 494.816406 349.261719 L 495.925781 351.445312 L 496.542969 353.707031 L 496.644531 355.0625 L 496.410156 357.121094 L 495.734375 359.144531 L 494.667969 361.101562 L 493.296875 362.960938 L 491.722656 364.71875 L 490.058594 366.402344 L 488.335938 368.074219 L 486.429688 369.695312 L 484.242188 371.214844 L 481.75 372.558594 L 478.960938 373.667969 Z M 476.695312 374.316406 "/>
<path style=" stroke:none;fill-rule:nonzero;fill:rgb(95.686275%,95.686275%,95.686275%);fill-opacity:1;" d="M 445.789062 133.890625 L 443.179688 134.347656 L 440.769531 134.167969 L 438.601562 133.441406 L 436.675781 132.308594 L 434.917969 130.972656 L 433.160156 129.570312 L 431.28125 128.042969 L 429.246094 126.339844 L 427.078125 124.46875 L 425 122.617188 L 422.875 120.671875 L 420.757812 118.683594 L 418.699219 116.703125 L 416.738281 114.777344 L 414.871094 112.917969 L 413.050781 111.082031 L 411.320312 109.175781 L 409.832031 107.148438 L 408.714844 105.003906 L 408.074219 102.785156 L 407.949219 101.289062 L 408.242188 98.996094 L 409.085938 96.746094 L 410.398438 94.59375 L 412.042969 92.570312 L 413.871094 90.664062 L 415.753906 88.792969 L 417.707031 86.9375 L 419.769531 85.148438 L 421.914062 83.511719 L 424.089844 82.101562 L 425 81.59375 L 427.160156 80.578125 L 429.242188 79.863281 L 431.207031 79.433594 L 433.023438 79.242188 L 434.722656 79.195312 L 436.40625 79.207031 L 438.222656 79.367188 L 440.261719 79.816406 L 442.527344 80.636719 L 444.992188 81.863281 L 445.789062 82.328125 L 448.058594 83.816406 L 450.398438 85.570312 L 452.753906 87.535156 L 455.078125 89.636719 L 457.339844 91.808594 L 459.542969 94 L 461.714844 96.210938 L 463.753906 98.515625 L 465.53125 100.953125 L 466.910156 103.515625 L 467.792969 106.164062 L 468.105469 108.851562 L 468.105469 108.925781 L 467.796875 111.664062 L 466.898438 114.359375 L 465.488281 116.964844 L 463.667969 119.445312 L 461.578125 121.785156 L 459.363281 124.03125 L 457.117188 126.246094 L 454.804688 128.371094 L 452.433594 130.304688 L 450.035156 131.945312 L 447.660156 133.199219 Z M 445.789062 133.890625 "/>
<path style=" stroke:none;fill-rule:nonzero;fill:rgb(95.686275%,95.686275%,95.686275%);fill-opacity:1;" d="M 596.996094 504.792969 L 594.304688 505.191406 L 591.527344 505.257812 L 588.730469 505.019531 L 585.980469 504.535156 L 583.304688 503.875 L 580.6875 503.132812 L 578.058594 502.355469 L 575.359375 501.484375 L 572.585938 500.46875 L 569.792969 499.296875 L 567.042969 497.972656 L 565.257812 497.003906 L 562.652344 495.425781 L 560.21875 493.742188 L 557.992188 492 L 555.984375 490.246094 L 554.164062 488.515625 L 552.453125 486.8125 L 550.753906 485.03125 L 549.089844 483.015625 L 547.519531 480.667969 L 546.101562 477.957031 L 544.898438 474.898438 L 544.4375 473.421875 L 543.714844 470.476562 L 543.179688 467.359375 L 542.832031 464.128906 L 542.652344 460.847656 L 542.609375 457.582031 L 542.671875 454.355469 L 542.777344 451.164062 L 542.914062 447.957031 L 543.148438 444.675781 L 543.539062 441.324219 L 544.125 437.9375 L 544.929688 434.574219 L 545.957031 431.292969 L 546.570312 429.667969 L 548 426.46875 L 549.644531 423.464844 L 551.464844 420.695312 L 553.398438 418.175781 L 555.398438 415.894531 L 557.417969 413.796875 L 559.4375 411.769531 L 561.496094 409.710938 L 563.621094 407.582031 L 568.046875 403.15625 L 570.277344 400.921875 L 572.332031 398.867188 L 574.785156 396.410156 L 583.101562 388.09375 L 584.851562 386.347656 L 586.652344 384.648438 L 588.613281 383.089844 L 590.761719 381.789062 L 593.089844 380.835938 L 595.558594 380.300781 L 596.113281 380.246094 L 598.632812 380.261719 L 601.203125 380.6875 L 603.761719 381.484375 L 606.261719 382.566406 L 608.671875 383.839844 L 611.023438 385.195312 L 613.390625 386.585938 L 615.84375 388.074219 L 618.378906 389.6875 L 620.953125 391.414062 L 623.511719 393.234375 L 624.890625 394.261719 L 627.128906 396.007812 L 629.265625 397.773438 L 631.273438 399.523438 L 633.128906 401.226562 L 634.839844 402.867188 L 636.441406 404.453125 L 638 406.03125 L 639.484375 407.773438 L 640.792969 409.851562 L 641.828125 412.375 L 642.507812 415.378906 L 642.765625 418.863281 L 642.710938 421.148438 L 642.394531 424.355469 L 641.816406 427.796875 L 640.992188 431.425781 L 639.953125 435.1875 L 638.734375 439.019531 L 637.382812 442.871094 L 635.9375 446.710938 L 634.449219 450.523438 L 632.945312 454.335938 L 631.414062 458.164062 L 629.839844 462.015625 L 628.214844 465.859375 L 626.550781 469.644531 L 624.863281 473.3125 L 623.171875 476.808594 L 621.492188 480.085938 L 621.019531 480.964844 L 618.773438 484.933594 L 616.617188 488.367188 L 614.578125 491.257812 L 612.683594 493.625 L 610.929688 495.5625 L 609.265625 497.253906 L 607.585938 498.894531 L 605.78125 500.476562 L 603.785156 501.933594 L 601.589844 503.1875 L 599.203125 504.179688 Z M 596.996094 504.792969 "/>
<path style=" stroke:none;fill-rule:nonzero;fill:rgb(95.686275%,95.686275%,95.686275%);fill-opacity:1;" d="M 503.78125 163.925781 L 501.511719 163.640625 L 499.285156 162.816406 L 497.15625 161.535156 L 495.148438 159.917969 L 493.257812 158.117188 L 491.402344 156.261719 L 489.519531 154.34375 L 487.621094 152.339844 L 485.746094 150.265625 L 483.960938 148.179688 L 483.011719 147.015625 L 481.242188 144.699219 L 479.71875 142.511719 L 478.453125 140.507812 L 477.40625 138.6875 L 476.472656 136.964844 L 475.636719 135.171875 L 475.078125 133.191406 L 474.957031 131.011719 L 475.355469 128.683594 L 475.480469 128.265625 L 476.378906 126.121094 L 477.671875 123.953125 L 479.28125 121.820312 L 481.09375 119.773438 L 483.011719 117.808594 L 484.960938 115.882812 L 487 114.085938 L 489.171875 112.570312 L 491.464844 111.492188 L 493.828125 110.953125 L 494.777344 110.902344 L 497.085938 111.191406 L 499.355469 112.019531 L 501.527344 113.3125 L 503.578125 114.945312 L 505.507812 116.773438 L 507.394531 118.660156 L 509.300781 120.605469 L 511.214844 122.632812 L 513.09375 124.726562 L 514.867188 126.832031 L 515.996094 128.265625 L 517.722656 130.632812 L 519.167969 132.855469 L 520.328125 134.886719 L 521.253906 136.71875 L 522.066406 138.453125 L 522.773438 140.265625 L 523.203125 142.261719 L 523.207031 144.445312 L 522.707031 146.769531 L 522.625 147.015625 L 521.691406 149.148438 L 520.382812 151.292969 L 518.773438 153.394531 L 516.976562 155.410156 L 515.085938 157.339844 L 513.167969 159.226562 L 511.15625 160.976562 L 509.003906 162.429688 L 506.742188 163.441406 L 504.414062 163.902344 Z M 503.78125 163.925781 "/>
<path style=" stroke:none;fill-rule:nonzero;fill:rgb(95.686275%,95.686275%,95.686275%);fill-opacity:1;" d="M 367.699219 631.410156 L 365.203125 632.351562 L 362.769531 632.910156 L 360.460938 633.125 L 358.304688 633.074219 L 356.261719 632.894531 L 354.183594 632.644531 L 351.96875 632.214844 L 349.605469 631.511719 L 347.140625 630.496094 L 345.648438 629.730469 L 343.367188 628.347656 L 341.132812 626.742188 L 338.992188 624.984375 L 336.976562 623.144531 L 335.078125 621.28125 L 333.226562 619.410156 L 331.484375 617.460938 L 330.007812 615.378906 L 328.933594 613.183594 L 328.367188 610.917969 L 328.292969 609.785156 L 328.585938 607.492188 L 329.429688 605.242188 L 330.738281 603.085938 L 332.386719 601.0625 L 334.214844 599.152344 L 336.097656 597.28125 L 338.066406 595.4375 L 340.164062 593.679688 L 342.378906 592.09375 L 344.660156 590.761719 L 345.648438 590.28125 L 348.136719 589.335938 L 350.570312 588.765625 L 352.878906 588.539062 L 355.03125 588.570312 L 357.078125 588.738281 L 359.152344 588.96875 L 361.371094 589.382812 L 363.738281 590.074219 L 366.203125 591.085938 L 367.699219 591.84375 L 369.976562 593.21875 L 372.214844 594.820312 L 374.363281 596.582031 L 376.382812 598.421875 L 378.285156 600.289062 L 380.140625 602.164062 L 381.886719 604.121094 L 383.375 606.203125 L 384.457031 608.402344 L 385.035156 610.675781 L 385.109375 611.847656 L 384.820312 614.148438 L 383.972656 616.40625 L 382.664062 618.5625 L 381.015625 620.59375 L 379.183594 622.507812 L 377.296875 624.382812 L 375.324219 626.234375 L 373.222656 627.996094 L 371.007812 629.582031 L 368.722656 630.914062 Z M 367.699219 631.410156 "/>
<path style=" stroke:none;fill-rule:nonzero;fill:rgb(95.686275%,95.686275%,95.686275%);fill-opacity:1;" d="M 186.027344 534.957031 L 184.25 534.324219 L 182.414062 533.328125 L 180.5625 532.023438 L 178.738281 530.488281 L 176.964844 528.8125 L 175.226562 527.085938 L 173.527344 525.300781 L 171.960938 523.351562 L 170.636719 521.183594 L 169.652344 518.789062 L 169.078125 516.195312 L 168.96875 514.910156 L 169.050781 512.304688 L 169.515625 509.609375 L 170.324219 506.886719 L 171.410156 504.1875 L 172.695312 501.554688 L 174.085938 498.988281 L 175.507812 496.433594 L 176.996094 493.816406 L 178.601562 491.113281 L 180.335938 488.34375 L 182.183594 485.550781 L 184.117188 482.792969 L 184.855469 481.785156 L 186.992188 478.996094 L 189.160156 476.347656 L 191.304688 473.886719 L 193.386719 471.632812 L 195.390625 469.566406 L 197.335938 467.617188 L 199.300781 465.710938 L 201.363281 463.949219 L 203.546875 462.457031 L 205.839844 461.355469 L 208.195312 460.730469 L 209.804688 460.605469 L 212.316406 460.90625 L 214.785156 461.78125 L 217.160156 463.152344 L 219.402344 464.894531 L 221.515625 466.859375 L 223.566406 468.90625 L 225.585938 471 L 227.492188 473.183594 L 229.199219 475.4375 L 230.601562 477.722656 L 231.628906 479.980469 L 231.667969 480.082031 L 232.285156 482.363281 L 232.464844 484.527344 L 232.253906 486.535156 L 231.730469 488.371094 L 231.023438 490.066406 L 230.25 491.71875 L 229.382812 493.460938 L 228.324219 495.363281 L 227.039062 497.425781 L 225.519531 499.625 L 224.515625 500.972656 L 222.824219 503.101562 L 220.996094 505.253906 L 219.078125 507.378906 L 217.125 509.445312 L 215.183594 511.425781 L 213.261719 513.351562 L 211.328125 515.285156 L 209.347656 517.261719 L 207.328125 519.261719 L 205.320312 521.25 L 203.363281 523.171875 L 202.273438 524.242188 L 200.003906 526.445312 L 197.980469 528.390625 L 196.226562 530.058594 L 194.714844 531.476562 L 193.3125 532.78125 L 191.8125 533.964844 L 190.105469 534.824219 L 188.171875 535.191406 L 186.039062 534.957031 Z M 186.027344 534.957031 "/>
<path style=" stroke:none;fill-rule:nonzero;fill:rgb(95.686275%,95.686275%,95.686275%);fill-opacity:1;" d="M 495.808594 571.519531 L 493.484375 571.234375 L 491.199219 570.410156 L 489.003906 569.121094 L 486.933594 567.492188 L 484.980469 565.65625 L 483.078125 563.757812 L 481.148438 561.816406 L 479.167969 559.808594 L 477.175781 557.757812 L 475.222656 555.710938 L 473.640625 554.023438 L 471.582031 551.777344 L 469.746094 549.714844 L 468.152344 547.867188 L 466.78125 546.234375 L 465.523438 544.703125 L 464.371094 543.09375 L 463.503906 541.300781 L 463.097656 539.296875 L 463.253906 537.128906 L 463.328125 536.800781 L 464.0625 534.738281 L 465.246094 532.632812 L 466.789062 530.546875 L 468.578125 528.527344 L 470.484375 526.582031 L 472.425781 524.675781 L 474.472656 522.914062 L 476.65625 521.46875 L 478.953125 520.480469 L 481.3125 520.0625 L 481.75 520.050781 L 484.007812 520.332031 L 486.226562 521.148438 L 488.351562 522.417969 L 490.355469 524.019531 L 492.242188 525.808594 L 495.984375 529.550781 L 497.945312 531.519531 L 499.945312 533.53125 L 501.929688 535.535156 L 503.175781 536.800781 L 505.285156 538.949219 L 507.234375 540.945312 L 508.984375 542.746094 L 510.539062 544.355469 L 511.984375 545.859375 L 513.339844 547.421875 L 514.421875 549.171875 L 515.046875 551.136719 L 515.097656 553.289062 L 514.976562 554.023438 L 514.296875 556.109375 L 513.144531 558.246094 L 511.601562 560.378906 L 509.789062 562.453125 L 507.839844 564.460938 L 505.847656 566.425781 L 503.761719 568.265625 L 501.539062 569.8125 L 499.195312 570.917969 L 496.777344 571.46875 Z M 495.808594 571.519531 "/>
<path style=" stroke:none;fill-rule:nonzero;fill:rgb(95.686275%,95.686275%,95.686275%);fill-opacity:1;" d="M 579.441406 293.082031 L 577.296875 293.953125 L 575.25 294.472656 L 573.339844 294.667969 L 571.59375 294.609375 L 569.960938 294.402344 L 568.335938 294.136719 L 566.566406 293.710938 L 564.574219 293.003906 L 562.363281 291.945312 L 559.96875 290.519531 L 559.671875 290.324219 L 557.476562 288.765625 L 555.210938 286.972656 L 552.933594 285.007812 L 550.691406 282.9375 L 548.511719 280.820312 L 546.386719 278.703125 L 544.300781 276.554688 L 542.371094 274.300781 L 540.734375 271.917969 L 539.515625 269.414062 L 538.8125 266.839844 L 538.664062 264.992188 L 538.972656 262.335938 L 539.867188 259.726562 L 541.269531 257.207031 L 543.070312 254.816406 L 545.121094 252.5625 L 547.277344 250.390625 L 549.464844 248.253906 L 551.722656 246.222656 L 554.035156 244.410156 L 556.363281 242.917969 L 558.648438 241.832031 L 559.671875 241.480469 L 562.195312 241.039062 L 564.519531 241.222656 L 566.601562 241.945312 L 568.445312 243.046875 L 570.140625 244.335938 L 571.859375 245.691406 L 573.71875 247.195312 L 575.75 248.894531 L 577.921875 250.78125 L 579.441406 252.132812 L 581.523438 254.039062 L 583.617188 256.007812 L 585.667969 257.980469 L 587.632812 259.910156 L 589.511719 261.78125 L 591.347656 263.628906 L 593.089844 265.550781 L 594.597656 267.59375 L 595.726562 269.753906 L 596.375 271.988281 L 596.503906 273.519531 L 596.207031 275.835938 L 595.351562 278.109375 L 594.027344 280.285156 L 592.363281 282.328125 L 590.515625 284.253906 L 588.613281 286.144531 L 586.644531 288.003906 L 584.578125 289.765625 L 582.441406 291.339844 L 580.292969 292.648438 Z M 579.441406 293.082031 "/>
<path style=" stroke:none;fill-rule:nonzero;fill:rgb(95.686275%,95.686275%,95.686275%);fill-opacity:1;" d="M 148.0625 264.195312 L 145.75 263.9375 L 143.476562 263.179688 L 141.277344 261.988281 L 139.183594 260.457031 L 137.210938 258.695312 L 135.3125 256.824219 L 133.457031 254.914062 L 131.753906 252.886719 L 130.332031 250.691406 L 129.316406 248.332031 L 128.800781 245.832031 L 128.792969 243.691406 L 129.257812 241.207031 L 130.199219 238.691406 L 131.570312 236.199219 L 133.28125 233.769531 L 135.230469 231.425781 L 137.308594 229.160156 L 139.429688 226.921875 L 141.59375 224.636719 L 143.832031 222.28125 L 146.136719 219.863281 L 148.472656 217.425781 L 150.789062 215.015625 L 152.152344 213.609375 L 154.664062 211.023438 L 157.042969 208.589844 L 159.253906 206.347656 L 161.273438 204.308594 L 163.128906 202.449219 L 164.90625 200.675781 L 166.726562 198.964844 L 168.65625 197.4375 L 170.703125 196.21875 L 172.832031 195.421875 L 175 195.109375 L 175.21875 195.105469 L 177.359375 195.359375 L 179.464844 196.089844 L 181.492188 197.238281 L 183.410156 198.703125 L 185.222656 200.367188 L 186.96875 202.109375 L 188.664062 203.917969 L 190.179688 205.882812 L 191.386719 208.042969 L 192.183594 210.398438 L 192.492188 212.910156 L 192.488281 213.609375 L 192.171875 216.058594 L 191.429688 218.5625 L 190.308594 221.070312 L 188.886719 223.539062 L 187.257812 225.929688 L 185.523438 228.253906 L 183.757812 230.570312 L 181.917969 232.953125 L 179.96875 235.4375 L 177.914062 237.992188 L 175.773438 240.585938 L 173.589844 243.160156 L 173.132812 243.691406 L 170.820312 246.316406 L 168.535156 248.835938 L 166.316406 251.203125 L 164.207031 253.394531 L 162.207031 255.425781 L 160.28125 257.355469 L 158.332031 259.238281 L 156.285156 260.972656 L 154.117188 262.433594 L 151.847656 263.5 L 149.511719 264.09375 Z M 148.0625 264.195312 "/>
<path style=" stroke:none;fill-rule:nonzero;fill:rgb(95.686275%,95.686275%,95.686275%);fill-opacity:1;" d="M 380.769531 595.523438 L 377.863281 596.148438 L 374.804688 596.542969 L 371.652344 596.71875 L 368.476562 596.703125 L 365.328125 596.53125 L 362.234375 596.257812 L 359.167969 595.949219 L 356.070312 595.597656 L 352.917969 595.152344 L 349.726562 594.5625 L 346.5625 593.816406 L 343.480469 592.898438 L 340.703125 591.875 L 337.503906 590.414062 L 334.605469 588.769531 L 332.039062 587 L 329.808594 585.160156 L 327.839844 583.3125 L 325.992188 581.46875 L 324.21875 579.570312 L 322.636719 577.558594 L 321.382812 575.429688 L 320.566406 573.210938 L 320.265625 570.953125 L 320.265625 570.820312 L 320.558594 568.476562 L 321.402344 566.175781 L 322.71875 563.96875 L 324.378906 561.890625 L 326.234375 559.933594 L 328.15625 558.019531 L 330.148438 556.125 L 332.269531 554.308594 L 334.503906 552.644531 L 336.816406 551.21875 L 338.339844 550.445312 L 340.886719 549.449219 L 343.371094 548.839844 L 345.730469 548.574219 L 347.929688 548.578125 L 350.011719 548.722656 L 352.117188 548.898438 L 354.351562 549.101562 L 356.730469 549.351562 L 359.203125 549.652344 L 361.007812 549.894531 L 363.484375 550.261719 L 365.898438 550.65625 L 368.1875 551.066406 L 370.320312 551.476562 L 372.339844 551.882812 L 374.375 552.320312 L 376.535156 552.917969 L 378.84375 553.757812 L 381.257812 554.875 L 383.191406 555.957031 L 385.46875 557.4375 L 387.703125 559.109375 L 389.839844 560.910156 L 391.855469 562.765625 L 393.753906 564.628906 L 395.601562 566.496094 L 397.347656 568.441406 L 398.835938 570.511719 L 399.929688 572.703125 L 400.523438 574.960938 L 400.613281 576.21875 L 400.378906 578.265625 L 399.703125 580.285156 L 398.640625 582.234375 L 397.277344 584.085938 L 395.707031 585.832031 L 394.050781 587.515625 L 392.335938 589.175781 L 390.433594 590.800781 L 388.257812 592.332031 L 385.773438 593.699219 L 382.996094 594.84375 Z M 380.769531 595.523438 "/>
<path style=" stroke:none;fill-rule:nonzero;fill:rgb(95.686275%,95.686275%,95.686275%);fill-opacity:1;" d="M 545.472656 384.730469 L 543.195312 384.445312 L 540.960938 383.621094 L 538.816406 382.34375 L 536.800781 380.730469 L 534.898438 378.925781 L 533.035156 377.066406 L 531.136719 375.152344 L 529.191406 373.171875 L 527.238281 371.148438 L 525.328125 369.132812 L 524.152344 367.867188 L 522.144531 365.65625 L 520.34375 363.613281 L 518.78125 361.777344 L 517.429688 360.140625 L 516.183594 358.601562 L 515.050781 356.980469 L 514.214844 355.167969 L 513.84375 353.144531 L 514.046875 350.953125 L 514.101562 350.730469 L 514.847656 348.664062 L 516.039062 346.558594 L 517.59375 344.46875 L 519.386719 342.441406 L 521.296875 340.488281 L 523.242188 338.578125 L 525.292969 336.808594 L 527.476562 335.347656 L 529.777344 334.347656 L 532.140625 333.90625 L 532.65625 333.894531 L 534.929688 334.175781 L 537.164062 335 L 539.300781 336.277344 L 541.316406 337.890625 L 543.214844 339.691406 L 545.078125 341.550781 L 546.972656 343.460938 L 548.917969 345.441406 L 550.875 347.464844 L 552.785156 349.480469 L 553.949219 350.730469 L 555.957031 352.933594 L 557.761719 354.976562 L 559.332031 356.808594 L 560.6875 358.445312 L 561.941406 359.984375 L 563.085938 361.601562 L 563.929688 363.414062 L 564.304688 365.4375 L 564.109375 367.628906 L 564.054688 367.867188 L 563.308594 369.929688 L 562.117188 372.039062 L 560.566406 374.132812 L 558.769531 376.15625 L 556.859375 378.113281 L 554.910156 380.027344 L 552.859375 381.800781 L 550.671875 383.261719 L 548.371094 384.269531 L 546.007812 384.714844 Z M 545.472656 384.730469 "/>
<path style=" stroke:none;fill-rule:nonzero;fill:rgb(95.686275%,95.686275%,95.686275%);fill-opacity:1;" d="M 265.871094 250.871094 L 263.480469 251.9375 L 261.207031 252.632812 L 259.097656 252.980469 L 257.164062 253.039062 L 255.375 252.921875 L 253.621094 252.742188 L 251.777344 252.464844 L 249.800781 251.992188 L 247.699219 251.269531 L 245.515625 250.269531 L 244.570312 249.761719 L 242.351562 248.382812 L 240.160156 246.785156 L 238.042969 245.023438 L 236.039062 243.179688 L 234.140625 241.316406 L 232.289062 239.445312 L 230.550781 237.488281 L 229.074219 235.398438 L 228.011719 233.199219 L 227.457031 230.929688 L 227.394531 229.863281 L 227.683594 227.59375 L 228.507812 225.367188 L 229.792969 223.234375 L 231.410156 221.230469 L 233.214844 219.335938 L 235.074219 217.484375 L 237.007812 215.617188 L 239.054688 213.761719 L 241.199219 211.976562 L 243.394531 210.324219 L 244.570312 209.519531 L 246.753906 208.167969 L 248.878906 207.042969 L 250.898438 206.140625 L 252.785156 205.4375 L 254.550781 204.875 L 256.292969 204.367188 L 258.128906 203.976562 L 260.132812 203.832031 L 262.3125 204.027344 L 264.625 204.625 L 265.871094 205.105469 L 268.160156 206.253906 L 270.472656 207.742188 L 272.753906 209.496094 L 274.960938 211.429688 L 277.074219 213.460938 L 279.136719 215.523438 L 281.136719 217.632812 L 282.933594 219.867188 L 284.382812 222.234375 L 285.367188 224.703125 L 285.792969 227.222656 L 285.804688 227.761719 L 285.507812 230.273438 L 284.648438 232.746094 L 283.300781 235.125 L 281.582031 237.378906 L 279.628906 239.5 L 277.585938 241.554688 L 275.5 243.59375 L 273.332031 245.585938 L 271.078125 247.457031 L 268.78125 249.132812 L 266.492188 250.535156 Z M 265.871094 250.871094 "/>
<path style=" stroke:none;fill-rule:nonzero;fill:rgb(95.686275%,95.686275%,95.686275%);fill-opacity:1;" d="M 191.664062 196.574219 L 189.558594 195.882812 L 187.410156 194.722656 L 185.28125 193.183594 L 183.222656 191.386719 L 181.238281 189.453125 L 179.296875 187.480469 L 177.484375 185.414062 L 175.972656 183.207031 L 174.910156 180.878906 L 174.402344 178.488281 L 174.367188 177.699219 L 174.652344 175.398438 L 175.472656 173.140625 L 176.75 170.972656 L 178.371094 168.925781 L 180.183594 167 L 182.0625 165.121094 L 183.988281 163.203125 L 185.988281 161.234375 L 188.039062 159.242188 L 190.09375 157.285156 L 191.664062 155.808594 L 193.898438 153.753906 L 195.976562 151.894531 L 197.855469 150.261719 L 199.539062 148.835938 L 201.113281 147.523438 L 202.746094 146.300781 L 204.554688 145.339844 L 206.5625 144.816406 L 208.734375 144.839844 L 209.445312 144.96875 L 211.542969 145.679688 L 213.679688 146.851562 L 215.792969 148.390625 L 217.832031 150.183594 L 219.792969 152.097656 L 221.714844 154.054688 L 223.5 156.109375 L 224.976562 158.300781 L 225.996094 160.609375 L 226.457031 162.980469 L 226.476562 163.582031 L 226.195312 165.859375 L 225.378906 168.09375 L 224.105469 170.238281 L 222.5 172.257812 L 220.699219 174.164062 L 218.835938 176.023438 L 216.925781 177.925781 L 214.941406 179.890625 L 212.902344 181.882812 L 210.863281 183.851562 L 209.445312 185.210938 L 207.242188 187.28125 L 205.191406 189.179688 L 203.328125 190.871094 L 201.652344 192.359375 L 200.089844 193.738281 L 198.472656 195.03125 L 196.679688 196.0625 L 194.683594 196.664062 L 192.515625 196.710938 Z M 191.664062 196.574219 "/>
<path style=" stroke:none;fill-rule:nonzero;fill:rgb(95.686275%,95.686275%,95.686275%);fill-opacity:1;" d="M 442.269531 623.609375 L 439.738281 624.699219 L 437.367188 625.351562 L 435.195312 625.59375 L 433.238281 625.507812 L 431.449219 625.210938 L 429.710938 624.847656 L 427.890625 624.390625 L 425.941406 623.757812 L 423.867188 622.898438 L 421.703125 621.792969 L 420.460938 621.058594 L 418.246094 619.582031 L 416.054688 617.910156 L 413.9375 616.105469 L 411.929688 614.246094 L 410.027344 612.375 L 408.171875 610.503906 L 406.421875 608.550781 L 404.929688 606.46875 L 403.835938 604.273438 L 403.246094 602.003906 L 403.160156 600.761719 L 403.441406 598.5 L 404.257812 596.28125 L 405.527344 594.152344 L 407.132812 592.148438 L 408.925781 590.257812 L 410.777344 588.40625 L 412.695312 586.527344 L 414.726562 584.617188 L 416.855469 582.71875 L 419.042969 580.886719 L 420.460938 579.761719 L 422.601562 578.171875 L 424.6875 576.746094 L 426.667969 575.496094 L 428.527344 574.417969 L 430.265625 573.476562 L 431.964844 572.589844 L 433.75 571.804688 L 435.710938 571.273438 L 437.878906 571.109375 L 440.230469 571.402344 L 442.269531 572.011719 L 444.617188 573.082031 L 447.019531 574.539062 L 449.429688 576.3125 L 451.792969 578.324219 L 454.082031 580.472656 L 456.308594 582.683594 L 458.5 584.925781 L 460.546875 587.265625 L 462.308594 589.746094 L 463.652344 592.347656 L 464.476562 595.035156 L 464.71875 597.457031 L 464.421875 600.15625 L 463.546875 602.816406 L 462.171875 605.390625 L 460.394531 607.835938 L 458.347656 610.152344 L 456.171875 612.371094 L 453.957031 614.566406 L 451.683594 616.726562 L 449.335938 618.789062 L 446.945312 620.675781 L 444.5625 622.308594 Z M 442.269531 623.609375 "/>
<path style=" stroke:none;fill-rule:nonzero;fill:rgb(95.686275%,95.686275%,95.686275%);fill-opacity:1;" d="M 373.476562 385.347656 L 371.113281 386.378906 L 368.851562 387.046875 L 366.734375 387.378906 L 364.789062 387.4375 L 362.980469 387.316406 L 361.207031 387.140625 L 359.347656 386.863281 L 357.351562 386.386719 L 355.21875 385.65625 L 352.996094 384.648438 L 351.875 384.042969 L 349.632812 382.640625 L 347.40625 381.015625 L 345.253906 379.226562 L 343.203125 377.347656 L 341.261719 375.445312 L 339.367188 373.539062 L 337.566406 371.554688 L 336.015625 369.445312 L 334.855469 367.214844 L 334.191406 364.90625 L 334.0625 363.351562 L 334.351562 361.027344 L 335.191406 358.742188 L 336.492188 356.550781 L 338.140625 354.484375 L 339.984375 352.539062 L 341.886719 350.640625 L 343.855469 348.738281 L 345.9375 346.875 L 348.117188 345.109375 L 350.351562 343.515625 L 351.875 342.5625 L 354.121094 341.355469 L 356.300781 340.417969 L 358.367188 339.746094 L 360.292969 339.300781 L 362.09375 339.003906 L 363.863281 338.765625 L 365.730469 338.636719 L 367.757812 338.738281 L 369.949219 339.15625 L 372.265625 339.9375 L 373.476562 340.480469 L 375.761719 341.742188 L 378.058594 343.296875 L 380.316406 345.082031 L 382.488281 347.015625 L 384.566406 349.023438 L 386.589844 351.046875 L 388.542969 353.125 L 390.289062 355.324219 L 391.683594 357.65625 L 392.609375 360.082031 L 392.976562 362.558594 L 392.980469 362.863281 L 392.683594 365.339844 L 391.828125 367.773438 L 390.488281 370.117188 L 388.78125 372.328125 L 386.847656 374.417969 L 384.828125 376.441406 L 382.765625 378.449219 L 380.609375 380.402344 L 378.367188 382.230469 L 376.074219 383.847656 L 373.785156 385.191406 Z M 373.476562 385.347656 "/>
<path style=" stroke:none;fill-rule:nonzero;fill:rgb(95.686275%,95.686275%,95.686275%);fill-opacity:1;" d="M 584.058594 375.453125 L 581.710938 375.148438 L 579.410156 374.265625 L 577.210938 372.902344 L 575.148438 371.199219 L 573.203125 369.316406 L 571.296875 367.390625 L 569.472656 365.394531 L 567.847656 363.324219 L 566.535156 361.21875 L 565.625 359.144531 L 565.496094 358.730469 L 565.125 356.503906 L 565.3125 354.4375 L 565.964844 352.578125 L 566.925781 350.914062 L 568.003906 349.34375 L 569.195312 347.675781 L 570.621094 345.792969 L 572.332031 343.671875 L 574.308594 341.355469 L 574.378906 341.273438 L 576.1875 339.253906 L 578.113281 337.175781 L 580.097656 335.09375 L 582.085938 333.058594 L 584.042969 331.085938 L 585.980469 329.15625 L 587.976562 327.296875 L 590.09375 325.65625 L 592.335938 324.371094 L 594.667969 323.554688 L 596.960938 323.285156 L 599.421875 323.59375 L 601.835938 324.488281 L 604.152344 325.878906 L 606.328125 327.632812 L 608.378906 329.585938 L 610.382812 331.597656 L 612.308594 333.664062 L 614.039062 335.796875 L 615.453125 337.964844 L 616.445312 340.105469 L 616.789062 341.273438 L 617.003906 343.527344 L 616.609375 345.597656 L 615.707031 347.453125 L 614.457031 349.089844 L 613.066406 350.617188 L 611.597656 352.199219 L 609.949219 353.953125 L 608.097656 355.902344 L 606.0625 358.023438 L 605.375 358.730469 L 603.449219 360.710938 L 601.464844 362.730469 L 599.484375 364.734375 L 597.554688 366.675781 L 595.683594 368.546875 L 593.835938 370.382812 L 591.914062 372.117188 L 589.871094 373.609375 L 587.707031 374.71875 L 585.472656 375.34375 Z M 584.058594 375.453125 "/>
<path style=" stroke:none;fill-rule:nonzero;fill:rgb(95.686275%,95.686275%,95.686275%);fill-opacity:1;" d="M 265.410156 489.5 L 263.066406 489.933594 L 260.851562 489.835938 L 258.820312 489.289062 L 256.972656 488.425781 L 255.234375 487.433594 L 253.4375 486.359375 L 251.472656 485.09375 L 249.328125 483.589844 L 247.046875 481.851562 L 246.339844 481.289062 L 244.253906 479.542969 L 242.15625 477.6875 L 240.105469 475.78125 L 238.136719 473.882812 L 236.257812 472.019531 L 234.417969 470.164062 L 232.683594 468.234375 L 231.199219 466.179688 L 230.101562 464.007812 L 229.5 461.761719 L 229.40625 460.453125 L 229.707031 458.121094 L 230.578125 455.835938 L 231.925781 453.652344 L 233.613281 451.601562 L 235.480469 449.664062 L 237.394531 447.769531 L 239.386719 445.941406 L 241.476562 444.289062 L 243.632812 442.917969 L 245.792969 441.917969 L 246.339844 441.730469 L 248.671875 441.238281 L 250.878906 441.257812 L 252.914062 441.710938 L 254.765625 442.464844 L 256.519531 443.339844 L 258.339844 444.308594 L 260.339844 445.484375 L 262.53125 446.925781 L 264.871094 448.628906 L 265.410156 449.046875 L 267.511719 450.753906 L 269.628906 452.585938 L 271.710938 454.496094 L 273.710938 456.414062 L 275.628906 458.308594 L 277.5 460.195312 L 279.28125 462.152344 L 280.820312 464.234375 L 281.980469 466.433594 L 282.652344 468.714844 L 282.792969 470.328125 L 282.488281 472.699219 L 281.613281 475.027344 L 280.253906 477.253906 L 278.550781 479.34375 L 276.65625 481.316406 L 274.710938 483.246094 L 272.695312 485.109375 L 270.585938 486.796875 L 268.414062 488.199219 L 266.238281 489.222656 Z M 265.410156 489.5 "/>
<path style=" stroke:none;fill-rule:nonzero;fill:rgb(95.686275%,95.686275%,95.686275%);fill-opacity:1;" d="M 277.859375 608.203125 L 275.5625 608.609375 L 273.398438 608.484375 L 271.417969 607.910156 L 269.617188 607.035156 L 267.921875 606.03125 L 266.152344 604.9375 L 264.203125 603.640625 L 262.058594 602.089844 L 259.757812 600.289062 L 259.230469 599.859375 L 257.160156 598.097656 L 255.0625 596.222656 L 252.992188 594.292969 L 250.996094 592.363281 L 249.082031 590.464844 L 247.210938 588.582031 L 245.429688 586.628906 L 243.886719 584.546875 L 242.722656 582.351562 L 242.042969 580.074219 L 241.894531 578.417969 L 242.199219 576.035156 L 243.078125 573.699219 L 244.445312 571.46875 L 246.15625 569.371094 L 248.058594 567.390625 L 250.011719 565.457031 L 252.03125 563.597656 L 254.140625 561.925781 L 256.304688 560.5625 L 258.464844 559.597656 L 259.230469 559.363281 L 261.539062 559.011719 L 263.707031 559.214844 L 265.6875 559.878906 L 267.476562 560.859375 L 269.160156 561.976562 L 270.902344 563.171875 L 272.8125 564.554688 L 274.910156 566.167969 L 277.148438 567.996094 L 277.859375 568.597656 L 279.917969 570.402344 L 281.992188 572.292969 L 284.035156 574.222656 L 285.996094 576.132812 L 287.871094 578 L 289.710938 579.851562 L 291.445312 581.777344 L 292.933594 583.832031 L 294.039062 586.003906 L 294.648438 588.242188 L 294.75 589.59375 L 294.445312 591.9375 L 293.570312 594.230469 L 292.214844 596.421875 L 290.519531 598.476562 L 288.644531 600.417969 L 286.722656 602.320312 L 284.726562 604.144531 L 282.636719 605.777344 L 280.492188 607.109375 L 278.351562 608.046875 Z M 277.859375 608.203125 "/>
<path style=" stroke:none;fill-rule:nonzero;fill:rgb(95.686275%,95.686275%,95.686275%);fill-opacity:1;" d="M 276.824219 138.394531 L 274.65625 137.273438 L 272.488281 135.839844 L 270.378906 134.164062 L 268.367188 132.34375 L 266.445312 130.464844 L 264.566406 128.5625 L 262.8125 126.570312 L 261.34375 124.441406 L 260.296875 122.203125 L 259.785156 119.894531 L 259.742188 119.027344 L 260.03125 116.75 L 260.855469 114.519531 L 262.140625 112.378906 L 263.761719 110.367188 L 265.570312 108.46875 L 267.433594 106.609375 L 269.359375 104.730469 L 271.386719 102.847656 L 273.492188 101.015625 L 275.625 99.296875 L 276.824219 98.394531 L 278.96875 96.914062 L 281.023438 95.648438 L 282.953125 94.609375 L 284.730469 93.769531 L 286.390625 93.066406 L 288.03125 92.414062 L 289.78125 91.894531 L 291.699219 91.640625 L 293.777344 91.746094 L 295.980469 92.265625 L 296.597656 92.484375 L 298.796875 93.507812 L 301.019531 94.890625 L 303.207031 96.5625 L 305.316406 98.425781 L 307.339844 100.386719 L 309.316406 102.371094 L 311.195312 104.433594 L 312.828125 106.628906 L 314.058594 108.949219 L 314.78125 111.351562 L 314.941406 113.117188 L 314.648438 115.507812 L 313.804688 117.855469 L 312.492188 120.109375 L 310.820312 122.238281 L 308.941406 124.242188 L 306.992188 126.195312 L 304.992188 128.148438 L 302.90625 130.082031 L 300.75 131.9375 L 298.5625 133.640625 L 296.597656 135.011719 L 294.339844 136.371094 L 292.195312 137.441406 L 290.214844 138.222656 L 288.40625 138.757812 L 286.726562 139.144531 L 285.0625 139.480469 L 283.289062 139.679688 L 281.363281 139.632812 L 279.296875 139.261719 L 277.136719 138.53125 Z M 276.824219 138.394531 "/>
<path style=" stroke:none;fill-rule:nonzero;fill:rgb(95.686275%,95.686275%,95.686275%);fill-opacity:1;" d="M 137.003906 462.851562 L 134.550781 462.558594 L 132.140625 461.710938 L 129.820312 460.382812 L 127.625 458.691406 L 125.554688 456.773438 L 123.550781 454.777344 L 121.546875 452.734375 L 119.570312 450.609375 L 117.675781 448.40625 L 115.9375 446.164062 L 114.414062 443.941406 L 114.210938 443.617188 L 112.898438 441.289062 L 111.90625 439.078125 L 111.21875 437.027344 L 110.792969 435.15625 L 110.527344 433.425781 L 110.316406 431.714844 L 110.226562 429.910156 L 110.359375 427.957031 L 110.792969 425.875 L 111.554688 423.703125 L 111.832031 423.082031 L 113.015625 420.886719 L 114.488281 418.703125 L 116.179688 416.585938 L 118.003906 414.570312 L 119.878906 412.65625 L 121.773438 410.785156 L 123.753906 409.039062 L 125.867188 407.566406 L 128.097656 406.515625 L 130.394531 405.992188 L 131.3125 405.945312 L 133.582031 406.230469 L 135.808594 407.054688 L 137.9375 408.332031 L 139.945312 409.945312 L 141.839844 411.746094 L 143.691406 413.601562 L 145.566406 415.523438 L 147.457031 417.554688 L 149.308594 419.671875 L 151.0625 421.832031 L 152.011719 423.082031 L 153.671875 425.453125 L 155.089844 427.730469 L 156.257812 429.859375 L 157.207031 431.816406 L 158.039062 433.667969 L 158.785156 435.566406 L 159.285156 437.648438 L 159.378906 439.9375 L 158.96875 442.398438 L 158.582031 443.617188 L 157.566406 445.871094 L 156.179688 448.144531 L 154.492188 450.390625 L 152.597656 452.558594 L 150.597656 454.640625 L 148.5625 456.671875 L 146.464844 458.621094 L 144.238281 460.347656 L 141.882812 461.703125 L 139.433594 462.5625 Z M 137.003906 462.851562 "/>
<path style="fill:none;stroke-width:0.75;stroke-linecap:round;stroke-linejoin:round;stroke:rgb(66.27451%,66.27451%,66.27451%);stroke-opacity:1;stroke-miterlimit:10;" d="M 545.417969 541.972656 L 534.304688 551.8125 "/>
<path style="fill:none;stroke-width:0.75;stroke-linecap:round;stroke-linejoin:round;stroke:rgb(66.27451%,66.27451%,66.27451%);stroke-opacity:1;stroke-miterlimit:10;" d="M 565.9375 186.785156 L 568.976562 189.277344 "/>
<path style="fill:none;stroke-width:0.75;stroke-linecap:round;stroke-linejoin:round;stroke:rgb(66.27451%,66.27451%,66.27451%);stroke-opacity:1;stroke-miterlimit:10;" d="M 284.394531 521.699219 L 280.609375 531.515625 "/>
<path style="fill:none;stroke-width:0.75;stroke-linecap:round;stroke-linejoin:round;stroke:rgb(66.27451%,66.27451%,66.27451%);stroke-opacity:1;stroke-miterlimit:10;" d="M 460.339844 349.945312 L 476.414062 354.320312 "/>
<path style="fill:none;stroke-width:0.75;stroke-linecap:round;stroke-linejoin:round;stroke:rgb(66.27451%,66.27451%,66.27451%);stroke-opacity:1;stroke-miterlimit:10;" d="M 454.382812 349.167969 L 436.695312 349.289062 "/>
<path style="fill:none;stroke-width:0.75;stroke-linecap:round;stroke-linejoin:round;stroke:rgb(66.27451%,66.27451%,66.27451%);stroke-opacity:1;stroke-miterlimit:10;" d="M 427.707031 102.246094 L 434.316406 104.847656 "/>
<path style="fill:none;stroke-width:0.75;stroke-linecap:round;stroke-linejoin:round;stroke:rgb(66.27451%,66.27451%,66.27451%);stroke-opacity:1;stroke-miterlimit:10;" d="M 622.996094 416.558594 L 606.632812 419.589844 "/>
<path style="fill:none;stroke-width:0.75;stroke-linecap:round;stroke-linejoin:round;stroke:rgb(66.27451%,66.27451%,66.27451%);stroke-opacity:1;stroke-miterlimit:10;" d="M 496.285156 131.769531 L 502.574219 144.171875 "/>
<path style="fill:none;stroke-width:0.75;stroke-linecap:round;stroke-linejoin:round;stroke:rgb(66.27451%,66.27451%,66.27451%);stroke-opacity:1;stroke-miterlimit:10;" d="M 566.351562 475.257812 L 581.320312 469.015625 "/>
<path style="fill:none;stroke-width:0.75;stroke-linecap:round;stroke-linejoin:round;stroke:rgb(66.27451%,66.27451%,66.27451%);stroke-opacity:1;stroke-miterlimit:10;" d="M 348.28125 610.03125 L 364.964844 611.59375 "/>
<path style="fill:none;stroke-width:0.75;stroke-linecap:round;stroke-linejoin:round;stroke:rgb(66.27451%,66.27451%,66.27451%);stroke-opacity:1;stroke-miterlimit:10;" d="M 188.925781 514.058594 L 197.324219 504.636719 "/>
<path style="fill:none;stroke-width:0.75;stroke-linecap:round;stroke-linejoin:round;stroke:rgb(66.27451%,66.27451%,66.27451%);stroke-opacity:1;stroke-miterlimit:10;" d="M 207.324219 486.328125 L 203.40625 495.195312 "/>
<path style="fill:none;stroke-width:0.75;stroke-linecap:round;stroke-linejoin:round;stroke:rgb(66.27451%,66.27451%,66.27451%);stroke-opacity:1;stroke-miterlimit:10;" d="M 483.582031 539.539062 L 493.25 550.355469 "/>
<path style="fill:none;stroke-width:0.75;stroke-linecap:round;stroke-linejoin:round;stroke:rgb(66.27451%,66.27451%,66.27451%);stroke-opacity:1;stroke-miterlimit:10;" d="M 568.515625 268.625 L 576.484375 272.335938 "/>
<path style="fill:none;stroke-width:0.75;stroke-linecap:round;stroke-linejoin:round;stroke:rgb(66.27451%,66.27451%,66.27451%);stroke-opacity:1;stroke-miterlimit:10;" d="M 596.777344 483.839844 L 588.070312 471.027344 "/>
<path style="fill:none;stroke-width:0.75;stroke-linecap:round;stroke-linejoin:round;stroke:rgb(66.27451%,66.27451%,66.27451%);stroke-opacity:1;stroke-miterlimit:10;" d="M 589.355469 437.394531 L 602.351562 422.070312 "/>
<path style="fill:none;stroke-width:0.75;stroke-linecap:round;stroke-linejoin:round;stroke:rgb(66.27451%,66.27451%,66.27451%);stroke-opacity:1;stroke-miterlimit:10;" d="M 586.523438 444.609375 L 585.71875 462.726562 "/>
<path style="fill:none;stroke-width:0.75;stroke-linecap:round;stroke-linejoin:round;stroke:rgb(66.27451%,66.27451%,66.27451%);stroke-opacity:1;stroke-miterlimit:10;" d="M 583.21875 438.363281 L 568.222656 429.105469 "/>
<path style="fill:none;stroke-width:0.75;stroke-linecap:round;stroke-linejoin:round;stroke:rgb(66.27451%,66.27451%,66.27451%);stroke-opacity:1;stroke-miterlimit:10;" d="M 159.851562 230.667969 L 151.804688 240.042969 "/>
<path style="fill:none;stroke-width:0.75;stroke-linecap:round;stroke-linejoin:round;stroke:rgb(66.27451%,66.27451%,66.27451%);stroke-opacity:1;stroke-miterlimit:10;" d="M 163.527344 226.359375 L 173.410156 214.71875 "/>
<path style="fill:none;stroke-width:0.75;stroke-linecap:round;stroke-linejoin:round;stroke:rgb(66.27451%,66.27451%,66.27451%);stroke-opacity:1;stroke-miterlimit:10;" d="M 603.070312 417.632812 L 596.195312 400.527344 "/>
<path style="fill:none;stroke-width:0.75;stroke-linecap:round;stroke-linejoin:round;stroke:rgb(66.27451%,66.27451%,66.27451%);stroke-opacity:1;stroke-miterlimit:10;" d="M 363.683594 572.242188 L 380.519531 575.675781 "/>
<path style="fill:none;stroke-width:0.75;stroke-linecap:round;stroke-linejoin:round;stroke:rgb(66.27451%,66.27451%,66.27451%);stroke-opacity:1;stroke-miterlimit:10;" d="M 358.40625 571.605469 L 341.976562 570.960938 "/>
<path style="fill:none;stroke-width:0.75;stroke-linecap:round;stroke-linejoin:round;stroke:rgb(66.27451%,66.27451%,66.27451%);stroke-opacity:1;stroke-miterlimit:10;" d="M 534.46875 353.65625 L 543.632812 364.902344 "/>
<path style="fill:none;stroke-width:0.75;stroke-linecap:round;stroke-linejoin:round;stroke:rgb(66.27451%,66.27451%,66.27451%);stroke-opacity:1;stroke-miterlimit:10;" d="M 258.636719 228.441406 L 247.328125 229.597656 "/>
<path style="fill:none;stroke-width:0.75;stroke-linecap:round;stroke-linejoin:round;stroke:rgb(66.27451%,66.27451%,66.27451%);stroke-opacity:1;stroke-miterlimit:10;" d="M 206.484375 165.570312 L 194.957031 175.460938 "/>
<path style="fill:none;stroke-width:0.75;stroke-linecap:round;stroke-linejoin:round;stroke:rgb(66.27451%,66.27451%,66.27451%);stroke-opacity:1;stroke-miterlimit:10;" d="M 430.929688 599.117188 L 423.378906 600.324219 "/>
<path style="fill:none;stroke-width:0.75;stroke-linecap:round;stroke-linejoin:round;stroke:rgb(66.27451%,66.27451%,66.27451%);stroke-opacity:1;stroke-miterlimit:10;" d="M 355.582031 363.273438 L 367.011719 363.003906 "/>
<path style="fill:none;stroke-width:0.75;stroke-linecap:round;stroke-linejoin:round;stroke:rgb(66.27451%,66.27451%,66.27451%);stroke-opacity:1;stroke-miterlimit:10;" d="M 585.738281 355.996094 L 594.109375 345.65625 "/>
<path style="fill:none;stroke-width:0.75;stroke-linecap:round;stroke-linejoin:round;stroke:rgb(66.27451%,66.27451%,66.27451%);stroke-opacity:1;stroke-miterlimit:10;" d="M 249.074219 461.714844 L 262.03125 468.753906 "/>
<path style="fill:none;stroke-width:0.75;stroke-linecap:round;stroke-linejoin:round;stroke:rgb(66.27451%,66.27451%,66.27451%);stroke-opacity:1;stroke-miterlimit:10;" d="M 275.128906 588.167969 L 262.582031 580.195312 "/>
<path style="fill:none;stroke-width:0.75;stroke-linecap:round;stroke-linejoin:round;stroke:rgb(66.27451%,66.27451%,66.27451%);stroke-opacity:1;stroke-miterlimit:10;" d="M 279.792969 118.207031 L 291.65625 114.492188 "/>
<path style="fill:none;stroke-width:0.75;stroke-linecap:round;stroke-linejoin:round;stroke:rgb(66.27451%,66.27451%,66.27451%);stroke-opacity:1;stroke-miterlimit:10;" d="M 132.0625 425.933594 L 135.402344 437.476562 "/>
<path style=" stroke:none;fill-rule:nonzero;fill:rgb(3.137255%,81.960784%,81.960784%);fill-opacity:1;" d="M 550.003906 540.230469 C 550.003906 543.730469 544.757812 543.730469 544.757812 540.230469 C 544.757812 536.734375 550.003906 536.734375 550.003906 540.230469 "/>
<path style=" stroke:none;fill-rule:nonzero;fill:rgb(3.137255%,81.960784%,81.960784%);fill-opacity:1;" d="M 566.582031 184.980469 C 566.582031 188.773438 560.894531 188.773438 560.894531 184.980469 C 560.894531 181.1875 566.582031 181.1875 566.582031 184.980469 "/>
<path style=" stroke:none;fill-rule:nonzero;fill:rgb(3.137255%,81.960784%,81.960784%);fill-opacity:1;" d="M 417.996094 436.484375 C 417.996094 442.851562 408.445312 442.851562 408.445312 436.484375 C 408.445312 430.113281 417.996094 430.113281 417.996094 436.484375 "/>
<path style=" stroke:none;fill-rule:nonzero;fill:rgb(3.137255%,81.960784%,81.960784%);fill-opacity:1;" d="M 455.761719 193.917969 C 455.761719 197.925781 449.75 197.925781 449.75 193.917969 C 449.75 189.910156 455.761719 189.910156 455.761719 193.917969 "/>
<path style=" stroke:none;fill-rule:nonzero;fill:rgb(3.137255%,81.960784%,81.960784%);fill-opacity:1;" d="M 173.570312 425.789062 C 173.570312 429.328125 168.257812 429.328125 168.257812 425.789062 C 168.257812 422.25 173.570312 422.25 173.570312 425.789062 "/>
<path style=" stroke:none;fill-rule:nonzero;fill:rgb(3.137255%,81.960784%,81.960784%);fill-opacity:1;" d="M 293.003906 515.792969 C 293.003906 519.289062 290.171875 522.125 286.675781 522.125 C 283.175781 522.125 280.34375 519.289062 280.34375 515.792969 C 280.34375 512.296875 283.175781 509.460938 286.675781 509.460938 C 290.171875 509.460938 293.003906 512.296875 293.003906 515.792969 "/>
<path style=" stroke:none;fill-rule:nonzero;fill:rgb(3.137255%,81.960784%,81.960784%);fill-opacity:1;" d="M 248.855469 512.496094 C 248.855469 515.964844 246.039062 518.78125 242.570312 518.78125 C 239.097656 518.78125 236.28125 515.964844 236.28125 512.496094 C 236.28125 509.023438 239.097656 506.207031 242.570312 506.207031 C 246.039062 506.207031 248.855469 509.023438 248.855469 512.496094 "/>
<path style=" stroke:none;fill-rule:nonzero;fill:rgb(3.137255%,81.960784%,81.960784%);fill-opacity:1;" d="M 460.445312 349.148438 C 460.445312 353.191406 454.382812 353.191406 454.382812 349.148438 C 454.382812 345.105469 460.445312 345.105469 460.445312 349.148438 "/>
<path style=" stroke:none;fill-rule:nonzero;fill:rgb(3.137255%,81.960784%,81.960784%);fill-opacity:1;" d="M 276.710938 154.371094 C 276.710938 159.972656 268.304688 159.972656 268.304688 154.371094 C 268.304688 148.765625 276.710938 148.765625 276.710938 154.371094 "/>
<path style=" stroke:none;fill-rule:nonzero;fill:rgb(3.137255%,81.960784%,81.960784%);fill-opacity:1;" d="M 150.03125 350.570312 C 150.03125 354.289062 144.457031 354.289062 144.457031 350.570312 C 144.457031 346.855469 150.03125 346.855469 150.03125 350.570312 "/>
<path style=" stroke:none;fill-rule:nonzero;fill:rgb(3.137255%,81.960784%,81.960784%);fill-opacity:1;" d="M 456.410156 562.261719 C 456.410156 565.828125 451.058594 565.828125 451.058594 562.261719 C 451.058594 558.695312 456.410156 558.695312 456.410156 562.261719 "/>
<path style=" stroke:none;fill-rule:nonzero;fill:rgb(3.137255%,81.960784%,81.960784%);fill-opacity:1;" d="M 427.890625 101.289062 C 427.890625 104.765625 422.671875 104.765625 422.671875 101.289062 C 422.671875 97.8125 427.890625 97.8125 427.890625 101.289062 "/>
<path style=" stroke:none;fill-rule:nonzero;fill:rgb(3.137255%,81.960784%,81.960784%);fill-opacity:1;" d="M 340.417969 200.964844 C 340.417969 204.5 335.117188 204.5 335.117188 200.964844 C 335.117188 197.429688 340.417969 197.429688 340.417969 200.964844 "/>
<path style=" stroke:none;fill-rule:nonzero;fill:rgb(3.137255%,81.960784%,81.960784%);fill-opacity:1;" d="M 531.351562 234.804688 C 531.351562 240.5625 522.722656 240.5625 522.722656 234.804688 C 522.722656 229.050781 531.351562 229.050781 531.351562 234.804688 "/>
<path style=" stroke:none;fill-rule:nonzero;fill:rgb(3.137255%,81.960784%,81.960784%);fill-opacity:1;" d="M 531.351562 293.414062 L 552.074219 293.414062 L 552.074219 314.136719 L 531.351562 314.136719 Z M 531.351562 293.414062 "/>
<path style=" stroke:none;fill-rule:nonzero;fill:rgb(3.137255%,81.960784%,81.960784%);fill-opacity:1;" d="M 628.605469 416.042969 C 628.605469 419.816406 622.949219 419.816406 622.949219 416.042969 C 622.949219 412.273438 628.605469 412.273438 628.605469 416.042969 "/>
<path style=" stroke:none;fill-rule:nonzero;fill:rgb(3.137255%,81.960784%,81.960784%);fill-opacity:1;" d="M 498.109375 128.800781 C 498.109375 133.238281 491.449219 133.238281 491.449219 128.800781 C 491.449219 124.359375 498.109375 124.359375 498.109375 128.800781 "/>
<path style=" stroke:none;fill-rule:nonzero;fill:rgb(3.137255%,81.960784%,81.960784%);fill-opacity:1;" d="M 506.449219 146.550781 C 506.449219 150.105469 501.113281 150.105469 501.113281 146.550781 C 501.113281 142.996094 506.449219 142.996094 506.449219 146.550781 "/>
<path style=" stroke:none;fill-rule:nonzero;fill:rgb(74.901961%,43.921569%,13.333333%);fill-opacity:1;" d="M 241.132812 140.625 C 241.132812 144.402344 235.460938 144.402344 235.460938 140.625 C 235.460938 136.84375 241.132812 136.84375 241.132812 140.625 "/>
<path style=" stroke:none;fill-rule:nonzero;fill:rgb(18.039216%,73.72549%,50.980392%);fill-opacity:1;" d="M 566.550781 476.261719 C 566.550781 479.742188 561.332031 479.742188 561.332031 476.261719 C 561.332031 472.78125 566.550781 472.78125 566.550781 476.261719 "/>
<path style=" stroke:none;fill-rule:nonzero;fill:rgb(18.039216%,56.862745%,73.72549%);fill-opacity:1;" d="M 480.609375 253.765625 C 480.609375 257.261719 475.363281 257.261719 475.363281 253.765625 C 475.363281 250.269531 480.609375 250.269531 480.609375 253.765625 "/>
<path style=" stroke:none;fill-rule:nonzero;fill:rgb(18.039216%,35.294118%,73.72549%);fill-opacity:1;" d="M 348.292969 609.785156 C 348.292969 613.308594 343.007812 613.308594 343.007812 609.785156 C 343.007812 606.261719 348.292969 606.261719 348.292969 609.785156 "/>
<path style=" stroke:none;fill-rule:nonzero;fill:rgb(18.039216%,35.294118%,73.72549%);fill-opacity:1;" d="M 530.789062 432.75 C 530.789062 436.335938 525.410156 436.335938 525.410156 432.75 C 525.410156 429.160156 530.789062 429.160156 530.789062 432.75 "/>
<path style=" stroke:none;fill-rule:nonzero;fill:rgb(18.039216%,35.294118%,73.72549%);fill-opacity:1;" d="M 189.9375 516.316406 C 189.9375 520.347656 183.886719 520.347656 183.886719 516.316406 C 183.886719 512.28125 189.9375 512.28125 189.9375 516.316406 "/>
<path style=" stroke:none;fill-rule:nonzero;fill:rgb(18.039216%,35.294118%,73.72549%);fill-opacity:1;" d="M 213.289062 430.410156 C 213.289062 434.089844 207.769531 434.089844 207.769531 430.410156 C 207.769531 426.730469 213.289062 426.730469 213.289062 430.410156 "/>
<path style=" stroke:none;fill-rule:nonzero;fill:rgb(18.039216%,35.294118%,73.72549%);fill-opacity:1;" d="M 306.664062 572.753906 C 306.664062 576.433594 301.144531 576.433594 301.144531 572.753906 C 301.144531 569.074219 306.664062 569.074219 306.664062 572.753906 "/>
<path style=" stroke:none;fill-rule:nonzero;fill:rgb(18.039216%,35.294118%,73.72549%);fill-opacity:1;" d="M 118.003906 342.46875 C 118.003906 346 112.703125 346 112.703125 342.46875 C 112.703125 338.933594 118.003906 338.933594 118.003906 342.46875 "/>
<path style=" stroke:none;fill-rule:nonzero;fill:rgb(18.039216%,35.294118%,73.72549%);fill-opacity:1;" d="M 215.945312 480.710938 C 215.945312 484.101562 213.199219 486.851562 209.804688 486.851562 C 206.414062 486.851562 203.667969 484.101562 203.667969 480.710938 C 203.667969 477.320312 206.414062 474.570312 209.804688 474.570312 C 213.199219 474.570312 215.945312 477.320312 215.945312 480.710938 "/>
<path style=" stroke:none;fill-rule:nonzero;fill:rgb(18.039216%,35.294118%,73.72549%);fill-opacity:1;" d="M 481.96875 355.0625 C 481.96875 358.835938 476.3125 358.835938 476.3125 355.0625 C 476.3125 351.292969 481.96875 351.292969 481.96875 355.0625 "/>
<path style=" stroke:none;fill-rule:nonzero;fill:rgb(18.039216%,35.294118%,73.72549%);fill-opacity:1;" d="M 484.496094 537.488281 C 484.496094 541.152344 479.003906 541.152344 479.003906 537.488281 C 479.003906 533.828125 484.496094 533.828125 484.496094 537.488281 "/>
<path style=" stroke:none;fill-rule:nonzero;fill:rgb(18.039216%,35.294118%,73.72549%);fill-opacity:1;" d="M 619.910156 268.800781 C 619.910156 272.925781 613.71875 272.925781 613.71875 268.800781 C 613.71875 264.671875 619.910156 264.671875 619.910156 268.800781 "/>
<path style=" stroke:none;fill-rule:nonzero;fill:rgb(18.039216%,35.294118%,73.72549%);fill-opacity:1;" d="M 483.414062 206.488281 L 504.136719 206.488281 L 504.136719 227.210938 L 483.414062 227.210938 Z M 483.414062 206.488281 "/>
<path style=" stroke:none;fill-rule:nonzero;fill:rgb(18.039216%,35.294118%,73.72549%);fill-opacity:1;" d="M 569.320312 264.992188 C 569.320312 269.746094 565.464844 273.597656 560.710938 273.597656 C 555.957031 273.597656 552.105469 269.746094 552.105469 264.992188 C 552.105469 260.238281 555.957031 256.382812 560.710938 256.382812 C 565.464844 256.382812 569.320312 260.238281 569.320312 264.992188 "/>
<path style=" stroke:none;fill-rule:nonzero;fill:rgb(3.529412%,80.784314%,55.294118%);fill-opacity:1;" d="M 565.390625 227.222656 C 565.390625 230.738281 560.121094 230.738281 560.121094 227.222656 C 560.121094 223.710938 565.390625 223.710938 565.390625 227.222656 "/>
<path style=" stroke:none;fill-rule:nonzero;fill:rgb(3.529412%,44.705882%,39.607843%);fill-opacity:1;" d="M 568.976562 187.417969 L 589.699219 187.417969 L 589.699219 208.140625 L 568.976562 208.140625 Z M 568.976562 187.417969 "/>
<path style=" stroke:none;fill-rule:nonzero;fill:rgb(3.529412%,44.705882%,39.607843%);fill-opacity:1;" d="M 601.007812 486.082031 C 601.007812 489.691406 595.589844 489.691406 595.589844 486.082031 C 595.589844 482.46875 601.007812 482.46875 601.007812 486.082031 "/>
<path style=" stroke:none;fill-rule:nonzero;fill:rgb(3.529412%,44.705882%,39.607843%);fill-opacity:1;" d="M 590.800781 440.515625 C 590.800781 445.976562 582.609375 445.976562 582.609375 440.515625 C 582.609375 435.054688 590.800781 435.054688 590.800781 440.515625 "/>
<path style=" stroke:none;fill-rule:nonzero;fill:rgb(67.058824%,33.72549%,84.705882%);fill-opacity:1;" d="M 272.425781 385.71875 C 272.425781 389.441406 266.84375 389.441406 266.84375 385.71875 C 266.84375 381.996094 272.425781 381.996094 272.425781 385.71875 "/>
<path style=" stroke:none;fill-rule:nonzero;fill:rgb(67.058824%,33.72549%,84.705882%);fill-opacity:1;" d="M 231.304688 300.664062 C 231.304688 304.953125 224.875 304.953125 224.875 300.664062 C 224.875 296.375 231.304688 296.375 231.304688 300.664062 "/>
<path style=" stroke:none;fill-rule:nonzero;fill:rgb(67.058824%,33.72549%,84.705882%);fill-opacity:1;" d="M 410.457031 224.753906 C 410.457031 228.960938 404.144531 228.960938 404.144531 224.753906 C 404.144531 220.542969 410.457031 220.542969 410.457031 224.753906 "/>
<path style=" stroke:none;fill-rule:nonzero;fill:rgb(67.058824%,33.72549%,84.705882%);fill-opacity:1;" d="M 397.132812 269.542969 C 397.132812 272.773438 394.515625 275.394531 391.28125 275.394531 C 388.050781 275.394531 385.429688 272.773438 385.429688 269.542969 C 385.429688 266.308594 388.050781 263.691406 391.28125 263.691406 C 394.515625 263.691406 397.132812 266.308594 397.132812 269.542969 "/>
<path style=" stroke:none;fill-rule:nonzero;fill:rgb(67.058824%,33.72549%,84.705882%);fill-opacity:1;" d="M 164.527344 228.519531 C 164.527344 232.292969 158.867188 232.292969 158.867188 228.519531 C 158.867188 224.746094 164.527344 224.746094 164.527344 228.519531 "/>
<path style=" stroke:none;fill-rule:nonzero;fill:rgb(67.058824%,33.72549%,84.705882%);fill-opacity:1;" d="M 204.949219 391.984375 C 204.949219 395.460938 199.730469 395.460938 199.730469 391.984375 C 199.730469 388.507812 204.949219 388.507812 204.949219 391.984375 "/>
<path style=" stroke:none;fill-rule:nonzero;fill:rgb(67.058824%,33.72549%,84.705882%);fill-opacity:1;" d="M 606.675781 420.066406 C 606.675781 423.570312 601.421875 423.570312 601.421875 420.066406 C 601.421875 416.566406 606.675781 416.566406 606.675781 420.066406 "/>
<path style=" stroke:none;fill-rule:nonzero;fill:rgb(3.921569%,62.745098%,12.156863%);fill-opacity:1;" d="M 225.722656 197.019531 C 225.722656 200.582031 220.378906 200.582031 220.378906 197.019531 C 220.378906 193.457031 225.722656 193.457031 225.722656 197.019531 "/>
<path style=" stroke:none;fill-rule:nonzero;fill:rgb(3.921569%,62.745098%,12.156863%);fill-opacity:1;" d="M 363.738281 571.707031 C 363.738281 575.265625 358.402344 575.265625 358.402344 571.707031 C 358.402344 568.152344 363.738281 568.152344 363.738281 571.707031 "/>
<path style=" stroke:none;fill-rule:nonzero;fill:rgb(3.921569%,62.745098%,12.156863%);fill-opacity:1;" d="M 535.527344 351.429688 C 535.527344 355.261719 529.785156 355.261719 529.785156 351.429688 C 529.785156 347.601562 535.527344 347.601562 535.527344 351.429688 "/>
<path style=" stroke:none;fill-rule:nonzero;fill:rgb(3.921569%,62.745098%,12.156863%);fill-opacity:1;" d="M 165.535156 278.703125 C 165.535156 282.171875 160.332031 282.171875 160.332031 278.703125 C 160.332031 275.230469 165.535156 275.230469 165.535156 278.703125 "/>
<path style=" stroke:none;fill-rule:nonzero;fill:rgb(3.921569%,62.745098%,12.156863%);fill-opacity:1;" d="M 271.953125 227.761719 C 271.953125 231.449219 268.964844 234.4375 265.277344 234.4375 C 261.589844 234.4375 258.601562 231.449219 258.601562 227.761719 C 258.601562 224.074219 261.589844 221.085938 265.277344 221.085938 C 268.964844 221.085938 271.953125 224.074219 271.953125 227.761719 "/>
<path style=" stroke:none;fill-rule:nonzero;fill:rgb(3.921569%,62.745098%,12.156863%);fill-opacity:1;" d="M 436.113281 274.292969 C 436.113281 278.007812 430.539062 278.007812 430.539062 274.292969 C 430.539062 270.578125 436.113281 270.578125 436.113281 274.292969 "/>
<path style=" stroke:none;fill-rule:nonzero;fill:rgb(3.921569%,62.745098%,12.156863%);fill-opacity:1;" d="M 377.433594 535.109375 C 377.433594 538.566406 372.253906 538.566406 372.253906 535.109375 C 372.253906 531.65625 377.433594 531.65625 377.433594 535.109375 "/>
<path style=" stroke:none;fill-rule:nonzero;fill:rgb(3.921569%,62.745098%,12.156863%);fill-opacity:1;" d="M 211.851562 163.582031 C 211.851562 167.652344 205.75 167.652344 205.75 163.582031 C 205.75 159.515625 211.851562 159.515625 211.851562 163.582031 "/>
<path style=" stroke:none;fill-rule:nonzero;fill:rgb(3.921569%,62.745098%,12.156863%);fill-opacity:1;" d="M 430.929688 587.097656 L 451.652344 587.097656 L 451.652344 607.820312 L 430.929688 607.820312 Z M 430.929688 587.097656 "/>
<path style=" stroke:none;fill-rule:nonzero;fill:rgb(3.921569%,62.745098%,12.156863%);fill-opacity:1;" d="M 247.339844 229.863281 C 247.339844 233.347656 242.117188 233.347656 242.117188 229.863281 C 242.117188 226.382812 247.339844 226.382812 247.339844 229.863281 "/>
<path style=" stroke:none;fill-rule:nonzero;fill:rgb(3.921569%,62.745098%,12.156863%);fill-opacity:1;" d="M 468.574219 499.085938 C 468.574219 502.878906 462.886719 502.878906 462.886719 499.085938 C 462.886719 495.296875 468.574219 495.296875 468.574219 499.085938 "/>
<path style=" stroke:none;fill-rule:nonzero;fill:rgb(3.921569%,62.745098%,12.156863%);fill-opacity:1;" d="M 355.582031 363.351562 C 355.582031 368.011719 348.59375 368.011719 348.59375 363.351562 C 348.59375 358.695312 355.582031 358.695312 355.582031 363.351562 "/>
<path style=" stroke:none;fill-rule:nonzero;fill:rgb(3.921569%,62.745098%,12.156863%);fill-opacity:1;" d="M 352.910156 228.332031 L 373.632812 228.332031 L 373.632812 249.054688 L 352.910156 249.054688 Z M 352.910156 228.332031 "/>
<path style=" stroke:none;fill-rule:nonzero;fill:rgb(3.921569%,62.745098%,12.156863%);fill-opacity:1;" d="M 586.730469 358.074219 C 586.730469 361.636719 581.386719 361.636719 581.386719 358.074219 C 581.386719 354.511719 586.730469 354.511719 586.730469 358.074219 "/>
<path style=" stroke:none;fill-rule:nonzero;fill:rgb(3.921569%,62.745098%,12.156863%);fill-opacity:1;" d="M 249.394531 460.453125 C 249.394531 463.96875 244.121094 463.96875 244.121094 460.453125 C 244.121094 456.9375 249.394531 456.9375 249.394531 460.453125 "/>
<path style=" stroke:none;fill-rule:nonzero;fill:rgb(3.921569%,62.745098%,12.156863%);fill-opacity:1;" d="M 261.925781 184.242188 C 261.925781 188.3125 255.820312 188.3125 255.820312 184.242188 C 255.820312 180.167969 261.925781 180.167969 261.925781 184.242188 "/>
<path style=" stroke:none;fill-rule:nonzero;fill:rgb(3.921569%,62.745098%,12.156863%);fill-opacity:1;" d="M 265.996094 334.570312 C 265.996094 339.773438 261.777344 343.992188 256.570312 343.992188 C 251.367188 343.992188 247.148438 339.773438 247.148438 334.570312 C 247.148438 329.367188 251.367188 325.148438 256.570312 325.148438 C 261.777344 325.148438 265.996094 329.367188 265.996094 334.570312 "/>
<path style=" stroke:none;fill-rule:nonzero;fill:rgb(3.921569%,62.745098%,12.156863%);fill-opacity:1;" d="M 280.039062 589.59375 C 280.039062 593.144531 274.714844 593.144531 274.714844 589.59375 C 274.714844 586.042969 280.039062 586.042969 280.039062 589.59375 "/>
<path style=" stroke:none;fill-rule:nonzero;fill:rgb(3.921569%,62.745098%,12.156863%);fill-opacity:1;" d="M 312.53125 387.582031 C 312.53125 391.222656 307.070312 391.222656 307.070312 387.582031 C 307.070312 383.945312 312.53125 383.945312 312.53125 387.582031 "/>
<path style=" stroke:none;fill-rule:nonzero;fill:rgb(3.921569%,62.745098%,12.156863%);fill-opacity:1;" d="M 153.804688 244.402344 C 153.804688 247.574219 151.234375 250.144531 148.0625 250.144531 C 144.890625 250.144531 142.316406 247.574219 142.316406 244.402344 C 142.316406 241.226562 144.890625 238.65625 148.0625 238.65625 C 151.234375 238.65625 153.804688 241.226562 153.804688 244.402344 "/>
<path style=" stroke:none;fill-rule:nonzero;fill:rgb(3.921569%,62.745098%,12.156863%);fill-opacity:1;" d="M 279.917969 119.027344 C 279.917969 122.679688 274.4375 122.679688 274.4375 119.027344 C 274.4375 115.375 279.917969 115.375 279.917969 119.027344 "/>
<path style=" stroke:none;fill-rule:nonzero;fill:rgb(3.921569%,62.745098%,12.156863%);fill-opacity:1;" d="M 423.410156 600.761719 C 423.410156 604.476562 417.84375 604.476562 417.84375 600.761719 C 417.84375 597.050781 423.410156 597.050781 423.410156 600.761719 "/>
<path style=" stroke:none;fill-rule:nonzero;fill:rgb(3.921569%,62.745098%,12.156863%);fill-opacity:1;" d="M 285.957031 254.753906 L 306.679688 254.753906 L 306.679688 275.476562 L 285.957031 275.476562 Z M 285.957031 254.753906 "/>
<path style=" stroke:none;fill-rule:nonzero;fill:rgb(3.921569%,62.745098%,12.156863%);fill-opacity:1;" d="M 313.859375 155.71875 C 313.859375 159.265625 308.542969 159.265625 308.542969 155.71875 C 308.542969 152.175781 313.859375 152.175781 313.859375 155.71875 "/>
<path style=" stroke:none;fill-rule:nonzero;fill:rgb(3.921569%,62.745098%,12.156863%);fill-opacity:1;" d="M 540.753906 154.992188 C 540.753906 159.085938 534.617188 159.085938 534.617188 154.992188 C 534.617188 150.902344 540.753906 150.902344 540.753906 154.992188 "/>
<path style=" stroke:none;fill-rule:nonzero;fill:rgb(3.921569%,62.745098%,12.156863%);fill-opacity:1;" d="M 434.828125 522.046875 C 434.828125 525.675781 429.382812 525.675781 429.382812 522.046875 C 429.382812 518.417969 434.828125 518.417969 434.828125 522.046875 "/>
<path style=" stroke:none;fill-rule:nonzero;fill:rgb(3.921569%,62.745098%,12.156863%);fill-opacity:1;" d="M 590.324219 311.664062 C 590.324219 317.554688 585.546875 322.332031 579.65625 322.332031 C 573.765625 322.332031 568.988281 317.554688 568.988281 311.664062 C 568.988281 305.773438 573.765625 301 579.65625 301 C 585.546875 301 590.324219 305.773438 590.324219 311.664062 "/>
<path style=" stroke:none;fill-rule:nonzero;fill:rgb(3.921569%,62.745098%,12.156863%);fill-opacity:1;" d="M 263.101562 578.417969 C 263.101562 582.839844 256.460938 582.839844 256.460938 578.417969 C 256.460938 573.992188 263.101562 573.992188 263.101562 578.417969 "/>
<path style=" stroke:none;fill-rule:nonzero;fill:rgb(3.921569%,62.745098%,12.156863%);fill-opacity:1;" d="M 134.007812 423.34375 C 134.007812 426.9375 128.621094 426.9375 128.621094 423.34375 C 128.621094 419.75 134.007812 419.75 134.007812 423.34375 "/>
<path style=" stroke:none;fill-rule:nonzero;fill:rgb(3.921569%,62.745098%,12.156863%);fill-opacity:1;" d="M 487.898438 587.753906 C 487.898438 591.425781 482.386719 591.425781 482.386719 587.753906 C 482.386719 584.078125 487.898438 584.078125 487.898438 587.753906 "/>
<path style=" stroke:none;fill-rule:nonzero;fill:rgb(3.921569%,62.745098%,12.156863%);fill-opacity:1;" d="M 391.4375 505.867188 C 391.4375 509.375 386.175781 509.375 386.175781 505.867188 C 386.175781 502.359375 391.4375 502.359375 391.4375 505.867188 "/>
<path style=" stroke:none;fill-rule:nonzero;fill:rgb(3.921569%,62.745098%,12.156863%);fill-opacity:1;" d="M 633.1875 370.824219 C 633.1875 374.382812 627.847656 374.382812 627.847656 370.824219 C 627.847656 367.265625 633.1875 367.265625 633.1875 370.824219 "/>
<path style=" stroke:none;fill-rule:nonzero;fill:rgb(3.921569%,62.745098%,12.156863%);fill-opacity:1;" d="M 181.269531 459.5625 C 181.269531 463.371094 175.558594 463.371094 175.558594 459.5625 C 175.558594 455.757812 181.269531 455.757812 181.269531 459.5625 "/>
<path style=" stroke:none;fill-rule:nonzero;fill:rgb(3.921569%,62.745098%,12.156863%);fill-opacity:1;" d="M 374.695312 145.3125 L 395.417969 145.3125 L 395.417969 166.035156 L 374.695312 166.035156 Z M 374.695312 145.3125 "/>
<path style=" stroke:none;fill-rule:nonzero;fill:rgb(3.921569%,62.745098%,12.156863%);fill-opacity:1;" d="M 344.71875 275.988281 C 344.71875 279.5 339.453125 279.5 339.453125 275.988281 C 339.453125 272.480469 344.71875 272.480469 344.71875 275.988281 "/>
<path style=" stroke:none;fill-rule:nonzero;fill:rgb(3.921569%,62.745098%,12.156863%);fill-opacity:1;" d="M 286.054688 302.316406 C 286.054688 306.515625 279.757812 306.515625 279.757812 302.316406 C 279.757812 298.121094 286.054688 298.121094 286.054688 302.316406 "/>
<path style=" stroke:none;fill-rule:nonzero;fill:rgb(3.921569%,62.745098%,12.156863%);fill-opacity:1;" d="M 352.746094 497.929688 C 352.746094 503.429688 348.289062 507.886719 342.792969 507.886719 C 337.292969 507.886719 332.835938 503.429688 332.835938 497.929688 C 332.835938 492.433594 337.292969 487.976562 342.792969 487.976562 C 348.289062 487.976562 352.746094 492.433594 352.746094 497.929688 "/>
<path style=" stroke:none;fill-rule:nonzero;fill:rgb(3.921569%,62.745098%,12.156863%);fill-opacity:1;" d="M 497.8125 426.449219 C 497.8125 429.890625 495.023438 432.675781 491.585938 432.675781 C 488.148438 432.675781 485.359375 429.890625 485.359375 426.449219 C 485.359375 423.011719 488.148438 420.222656 491.585938 420.222656 C 495.023438 420.222656 497.8125 423.011719 497.8125 426.449219 "/>
<path style=" stroke:none;fill-rule:nonzero;fill:rgb(3.921569%,62.745098%,12.156863%);fill-opacity:1;" d="M 370.769531 118.53125 C 370.769531 122.261719 365.171875 122.261719 365.171875 118.53125 C 365.171875 114.800781 370.769531 114.800781 370.769531 118.53125 "/>
<path style=" stroke:none;fill-rule:nonzero;fill:rgb(3.921569%,62.745098%,12.156863%);fill-opacity:1;" d="M 400.425781 117.195312 C 400.425781 120.75 395.089844 120.75 395.089844 117.195312 C 395.089844 113.636719 400.425781 113.636719 400.425781 117.195312 "/>
<path style=" stroke:none;fill-rule:nonzero;fill:rgb(3.921569%,62.745098%,12.156863%);fill-opacity:1;" d="M 391.066406 468.042969 C 391.066406 471.261719 388.457031 473.867188 385.238281 473.867188 C 382.023438 473.867188 379.414062 471.261719 379.414062 468.042969 C 379.414062 464.824219 382.023438 462.21875 385.238281 462.21875 C 388.457031 462.21875 391.066406 464.824219 391.066406 468.042969 "/>
<path style=" stroke:none;fill-rule:nonzero;fill:rgb(3.921569%,62.745098%,12.156863%);fill-opacity:1;" d="M 294.90625 433.210938 C 294.90625 436.726562 289.632812 436.726562 289.632812 433.210938 C 289.632812 429.691406 294.90625 429.691406 294.90625 433.210938 "/>
<path style=" stroke:none;fill-rule:nonzero;fill:rgb(3.921569%,62.745098%,12.156863%);fill-opacity:1;" d="M 514.199219 510.324219 C 514.199219 514.105469 508.523438 514.105469 508.523438 510.324219 C 508.523438 506.539062 514.199219 506.539062 514.199219 510.324219 "/>
<path style=" stroke:none;fill-rule:nonzero;fill:rgb(3.921569%,62.745098%,12.156863%);fill-opacity:1;" d="M 301.6875 194.054688 C 301.6875 198.394531 295.179688 198.394531 295.179688 194.054688 C 295.179688 189.71875 301.6875 189.71875 301.6875 194.054688 "/>
<path style=" stroke:none;fill-rule:nonzero;fill:rgb(3.921569%,62.745098%,12.156863%);fill-opacity:1;" d="M 167.863281 389.871094 C 167.863281 393.851562 164.636719 397.082031 160.65625 397.082031 C 156.671875 397.082031 153.445312 393.851562 153.445312 389.871094 C 153.445312 385.890625 156.671875 382.664062 160.65625 382.664062 C 164.636719 382.664062 167.863281 385.890625 167.863281 389.871094 "/>
<path style=" stroke:none;fill-rule:nonzero;fill:rgb(3.921569%,62.745098%,12.156863%);fill-opacity:1;" d="M 420.707031 182.238281 C 420.707031 185.921875 415.179688 185.921875 415.179688 182.238281 C 415.179688 178.554688 420.707031 178.554688 420.707031 182.238281 "/>
<path style=" stroke:none;fill-rule:nonzero;fill:rgb(3.921569%,62.745098%,12.156863%);fill-opacity:1;" d="M 364.902344 404.03125 L 385.625 404.03125 L 385.625 424.753906 L 364.902344 424.753906 Z M 364.902344 404.03125 "/>
<path style=" stroke:none;fill-rule:nonzero;fill:rgb(3.921569%,62.745098%,12.156863%);fill-opacity:1;" d="M 319.945312 234.203125 C 319.945312 238.082031 314.128906 238.082031 314.128906 234.203125 C 314.128906 230.324219 319.945312 230.324219 319.945312 234.203125 "/>
<path style=" stroke:none;fill-rule:nonzero;fill:rgb(3.921569%,62.745098%,12.156863%);fill-opacity:1;" d="M 517.683594 272.683594 C 517.683594 275.683594 515.25 278.113281 512.253906 278.113281 C 509.253906 278.113281 506.824219 275.683594 506.824219 272.683594 C 506.824219 269.6875 509.253906 267.253906 512.253906 267.253906 C 515.25 267.253906 517.683594 269.6875 517.683594 272.683594 "/>
<path style=" stroke:none;fill-rule:nonzero;fill:rgb(15.294118%,28.627451%,27.058824%);fill-opacity:1;" d="M 463.792969 401.867188 C 463.792969 407.195312 455.800781 407.195312 455.800781 401.867188 C 455.800781 396.542969 463.792969 396.542969 463.792969 401.867188 "/>
<path style=" stroke:none;fill-rule:nonzero;fill:rgb(15.294118%,28.627451%,27.058824%);fill-opacity:1;" d="M 385.914062 576.21875 C 385.914062 579.855469 380.464844 579.855469 380.464844 576.21875 C 380.464844 572.585938 385.914062 572.585938 385.914062 576.21875 "/>
<path style=" stroke:none;fill-rule:nonzero;fill:rgb(15.294118%,28.627451%,27.058824%);fill-opacity:1;" d="M 381.054688 196.519531 C 381.054688 200.824219 374.59375 200.824219 374.59375 196.519531 C 374.59375 192.214844 381.054688 192.214844 381.054688 196.519531 "/>
<path style=" stroke:none;fill-rule:nonzero;fill:rgb(15.294118%,28.627451%,27.058824%);fill-opacity:1;" d="M 534.964844 553.550781 C 534.964844 557.046875 529.71875 557.046875 529.71875 553.550781 C 529.71875 550.054688 534.964844 550.054688 534.964844 553.550781 "/>
<path style=" stroke:none;fill-rule:nonzero;fill:rgb(15.294118%,28.627451%,27.058824%);fill-opacity:1;" d="M 348.753906 456.71875 C 348.753906 460.183594 343.554688 460.183594 343.554688 456.71875 C 343.554688 453.25 348.753906 453.25 348.753906 456.71875 "/>
<path style=" stroke:none;fill-rule:nonzero;fill:rgb(15.294118%,28.627451%,27.058824%);fill-opacity:1;" d="M 471.332031 296.804688 C 471.332031 300.523438 465.753906 300.523438 465.753906 296.804688 C 465.753906 293.085938 471.332031 293.085938 471.332031 296.804688 "/>
<path style=" stroke:none;fill-rule:nonzero;fill:rgb(15.294118%,28.627451%,27.058824%);fill-opacity:1;" d="M 282.804688 534.714844 C 282.804688 539.292969 275.941406 539.292969 275.941406 534.714844 C 275.941406 530.140625 282.804688 530.140625 282.804688 534.714844 "/>
<path style=" stroke:none;fill-rule:nonzero;fill:rgb(30.588235%,22.352941%,47.843137%);fill-opacity:1;" d="M 130.746094 283.390625 C 130.746094 288.90625 122.46875 288.90625 122.46875 283.390625 C 122.46875 277.871094 130.746094 277.871094 130.746094 283.390625 "/>
<path style=" stroke:none;fill-rule:nonzero;fill:rgb(18.039216%,73.72549%,27.058824%);fill-opacity:1;" d="M 436.695312 349.308594 C 436.695312 352.921875 431.277344 352.921875 431.277344 349.308594 C 431.277344 345.695312 436.695312 345.695312 436.695312 349.308594 "/>
<path style=" stroke:none;fill-rule:nonzero;fill:rgb(18.039216%,73.72549%,27.058824%);fill-opacity:1;" d="M 263.21875 271.242188 C 263.21875 278.394531 257.421875 284.195312 250.265625 284.195312 C 243.113281 284.195312 237.3125 278.394531 237.3125 271.242188 C 237.3125 264.089844 243.113281 258.289062 250.265625 258.289062 C 257.421875 258.289062 263.21875 264.089844 263.21875 271.242188 "/>
<path style=" stroke:none;fill-rule:nonzero;fill:rgb(18.039216%,73.72549%,27.058824%);fill-opacity:1;" d="M 455.292969 446.023438 C 455.292969 450.054688 449.25 450.054688 449.25 446.023438 C 449.25 441.996094 455.292969 441.996094 455.292969 446.023438 "/>
<path style=" stroke:none;fill-rule:nonzero;fill:rgb(18.039216%,73.72549%,27.058824%);fill-opacity:1;" d="M 126.277344 383.328125 C 126.277344 387.390625 120.183594 387.390625 120.183594 383.328125 C 120.183594 379.269531 126.277344 379.269531 126.277344 383.328125 "/>
<path style=" stroke:none;fill-rule:nonzero;fill:rgb(18.039216%,73.72549%,27.058824%);fill-opacity:1;" d="M 333.738281 123.355469 C 333.738281 126.960938 328.335938 126.960938 328.335938 123.355469 C 328.335938 119.753906 333.738281 119.753906 333.738281 123.355469 "/>
<path style=" stroke:none;fill-rule:nonzero;fill:rgb(18.039216%,73.72549%,27.058824%);fill-opacity:1;" d="M 316.277344 304.9375 L 337 304.9375 L 337 325.660156 L 316.277344 325.660156 Z M 316.277344 304.9375 "/>
<path style=" stroke:none;fill-rule:nonzero;fill:rgb(18.039216%,73.72549%,27.058824%);fill-opacity:1;" d="M 351.082031 162.207031 C 351.082031 165.875 345.582031 165.875 345.582031 162.207031 C 345.582031 158.539062 351.082031 158.539062 351.082031 162.207031 "/>
<path style=" stroke:none;fill-rule:nonzero;fill:rgb(18.039216%,73.72549%,27.058824%);fill-opacity:1;" d="M 434.910156 481.855469 C 434.910156 485.695312 431.796875 488.808594 427.953125 488.808594 C 424.113281 488.808594 421 485.695312 421 481.855469 C 421 478.015625 424.113281 474.898438 427.953125 474.898438 C 431.796875 474.898438 434.910156 478.015625 434.910156 481.855469 "/>
<path style=" stroke:none;fill-rule:nonzero;fill:rgb(18.039216%,73.72549%,27.058824%);fill-opacity:1;" d="M 141.585938 314.300781 C 141.585938 317.8125 136.316406 317.8125 136.316406 314.300781 C 136.316406 310.789062 141.585938 310.789062 141.585938 314.300781 "/>
<path style=" stroke:none;fill-rule:nonzero;fill:rgb(18.039216%,73.72549%,27.058824%);fill-opacity:1;" d="M 431.863281 148.113281 C 431.863281 154.1875 422.753906 154.1875 422.753906 148.113281 C 422.753906 142.042969 431.863281 142.042969 431.863281 148.113281 "/>
<path style=" stroke:none;fill-rule:nonzero;fill:rgb(18.039216%,73.72549%,27.058824%);fill-opacity:1;" d="M 464.378906 144.75 C 464.378906 148.269531 459.101562 148.269531 459.101562 144.75 C 459.101562 141.234375 464.378906 141.234375 464.378906 144.75 "/>
<path style=" stroke:none;fill-rule:nonzero;fill:rgb(18.039216%,73.72549%,27.058824%);fill-opacity:1;" d="M 527.386719 477.628906 C 527.386719 481.121094 522.144531 481.121094 522.144531 477.628906 C 522.144531 474.132812 527.386719 474.132812 527.386719 477.628906 "/>
<path style=" stroke:none;fill-rule:nonzero;fill:rgb(18.039216%,73.72549%,27.058824%);fill-opacity:1;" d="M 158.59375 486.386719 C 158.59375 491.148438 151.453125 491.148438 151.453125 486.386719 C 151.453125 481.625 158.59375 481.625 158.59375 486.386719 "/>
<path style=" stroke:none;fill-rule:nonzero;fill:rgb(18.039216%,73.72549%,27.058824%);fill-opacity:1;" d="M 170.628906 345.945312 L 191.351562 345.945312 L 191.351562 366.667969 L 170.628906 366.667969 Z M 170.628906 345.945312 "/>
<path style=" stroke:none;fill-rule:nonzero;fill:rgb(18.039216%,73.72549%,27.058824%);fill-opacity:1;" d="M 581.824219 273.519531 C 581.824219 277.253906 576.222656 277.253906 576.222656 273.519531 C 576.222656 269.785156 581.824219 269.785156 581.824219 273.519531 "/>
<path style=" stroke:none;fill-rule:nonzero;fill:rgb(18.039216%,73.72549%,27.058824%);fill-opacity:1;" d="M 565.023438 513.453125 C 565.023438 517.214844 559.382812 517.214844 559.382812 513.453125 C 559.382812 509.691406 565.023438 509.691406 565.023438 513.453125 "/>
<path style=" stroke:none;fill-rule:nonzero;fill:rgb(18.039216%,73.72549%,27.058824%);fill-opacity:1;" d="M 434.558594 222.542969 L 455.28125 222.542969 L 455.28125 243.265625 L 434.558594 243.265625 Z M 434.558594 222.542969 "/>
<path style=" stroke:none;fill-rule:nonzero;fill:rgb(18.039216%,73.72549%,27.058824%);fill-opacity:1;" d="M 590.0625 467.269531 C 590.0625 473.328125 580.972656 473.328125 580.972656 467.269531 C 580.972656 461.207031 590.0625 461.207031 590.0625 467.269531 "/>
<path style=" stroke:none;fill-rule:nonzero;fill:rgb(18.039216%,73.72549%,27.058824%);fill-opacity:1;" d="M 434.316406 98.5625 L 455.039062 98.5625 L 455.039062 119.285156 L 434.316406 119.285156 Z M 434.316406 98.5625 "/>
<path style=" stroke:none;fill-rule:nonzero;fill:rgb(18.039216%,73.72549%,27.058824%);fill-opacity:1;" d="M 636.078125 333.820312 C 636.078125 337.324219 630.816406 337.324219 630.816406 333.820312 C 630.816406 330.3125 636.078125 330.3125 636.078125 333.820312 "/>
<path style=" stroke:none;fill-rule:nonzero;fill:rgb(18.039216%,73.72549%,27.058824%);fill-opacity:1;" d="M 178.019531 212.585938 C 178.019531 216.316406 172.421875 216.316406 172.421875 212.585938 C 172.421875 208.855469 178.019531 208.855469 178.019531 212.585938 "/>
<path style=" stroke:none;fill-rule:nonzero;fill:rgb(18.039216%,73.72549%,27.058824%);fill-opacity:1;" d="M 499.652344 553.21875 C 499.652344 558.339844 491.96875 558.339844 491.96875 553.21875 C 491.96875 548.097656 499.652344 548.097656 499.652344 553.21875 "/>
<path style=" stroke:none;fill-rule:nonzero;fill:rgb(18.039216%,73.72549%,27.058824%);fill-opacity:1;" d="M 356.191406 93.753906 C 356.191406 96.988281 353.570312 99.613281 350.332031 99.613281 C 347.09375 99.613281 344.472656 96.988281 344.472656 93.753906 C 344.472656 90.515625 347.09375 87.890625 350.332031 87.890625 C 353.570312 87.890625 356.191406 90.515625 356.191406 93.753906 "/>
<path style=" stroke:none;fill-rule:nonzero;fill:rgb(18.039216%,73.72549%,27.058824%);fill-opacity:1;" d="M 206.792969 500.394531 C 206.792969 503.53125 204.246094 506.078125 201.109375 506.078125 C 197.96875 506.078125 195.425781 503.53125 195.425781 500.394531 C 195.425781 497.253906 197.96875 494.710938 201.109375 494.710938 C 204.246094 494.710938 206.792969 497.253906 206.792969 500.394531 "/>
<path style=" stroke:none;fill-rule:nonzero;fill:rgb(18.039216%,73.72549%,27.058824%);fill-opacity:1;" d="M 328.515625 531.882812 C 328.515625 535.5625 322.996094 535.5625 322.996094 531.882812 C 322.996094 528.203125 328.515625 528.203125 328.515625 531.882812 "/>
<path style=" stroke:none;fill-rule:nonzero;fill:rgb(18.039216%,73.72549%,27.058824%);fill-opacity:1;" d="M 490.941406 468.34375 C 490.941406 472.261719 485.066406 472.261719 485.066406 468.34375 C 485.066406 464.425781 490.941406 464.425781 490.941406 468.34375 "/>
<path style=" stroke:none;fill-rule:nonzero;fill:rgb(18.039216%,73.72549%,27.058824%);fill-opacity:1;" d="M 209.421875 239.609375 C 209.421875 243.109375 204.171875 243.109375 204.171875 239.609375 C 204.171875 236.109375 209.421875 236.109375 209.421875 239.609375 "/>
<path style=" stroke:none;fill-rule:nonzero;fill:rgb(18.039216%,73.72549%,27.058824%);fill-opacity:1;" d="M 195.789062 177.699219 C 195.789062 182.28125 188.914062 182.28125 188.914062 177.699219 C 188.914062 173.117188 195.789062 173.117188 195.789062 177.699219 "/>
<path style=" stroke:none;fill-rule:nonzero;fill:rgb(18.039216%,73.72549%,27.058824%);fill-opacity:1;" d="M 378.980469 362.863281 C 378.980469 366.167969 376.300781 368.847656 372.996094 368.847656 C 369.691406 368.847656 367.011719 366.167969 367.011719 362.863281 C 367.011719 359.558594 369.691406 356.878906 372.996094 356.878906 C 376.300781 356.878906 378.980469 359.558594 378.980469 362.863281 "/>
<path style=" stroke:none;fill-rule:nonzero;fill:rgb(18.039216%,73.72549%,27.058824%);fill-opacity:1;" d="M 601.496094 342.128906 C 601.496094 348.179688 592.425781 348.179688 592.425781 342.128906 C 592.425781 336.082031 601.496094 336.082031 601.496094 342.128906 "/>
<path style=" stroke:none;fill-rule:nonzero;fill:rgb(18.039216%,73.72549%,27.058824%);fill-opacity:1;" d="M 341.980469 570.820312 C 341.980469 575.625 334.773438 575.625 334.773438 570.820312 C 334.773438 566.019531 341.980469 566.019531 341.980469 570.820312 "/>
<path style=" stroke:none;fill-rule:nonzero;fill:rgb(18.039216%,73.72549%,27.058824%);fill-opacity:1;" d="M 268.21875 470.328125 C 268.21875 474.71875 261.632812 474.71875 261.632812 470.328125 C 261.632812 465.9375 268.21875 465.9375 268.21875 470.328125 "/>
<path style=" stroke:none;fill-rule:nonzero;fill:rgb(18.039216%,73.72549%,27.058824%);fill-opacity:1;" d="M 415.148438 312.839844 C 415.148438 316.710938 409.34375 316.710938 409.34375 312.839844 C 409.34375 308.972656 415.148438 308.972656 415.148438 312.839844 "/>
<path style=" stroke:none;fill-rule:nonzero;fill:rgb(18.039216%,73.72549%,27.058824%);fill-opacity:1;" d="M 597.859375 398.066406 C 597.859375 401.601562 592.554688 401.601562 592.554688 398.066406 C 592.554688 394.53125 597.859375 394.53125 597.859375 398.066406 "/>
<path style=" stroke:none;fill-rule:nonzero;fill:rgb(18.039216%,73.72549%,27.058824%);fill-opacity:1;" d="M 335.773438 419.675781 C 335.773438 423.300781 330.335938 423.300781 330.335938 419.675781 C 330.335938 416.046875 335.773438 416.046875 335.773438 419.675781 "/>
<path style=" stroke:none;fill-rule:nonzero;fill:rgb(18.039216%,73.72549%,27.058824%);fill-opacity:1;" d="M 495.597656 306.324219 L 516.320312 306.324219 L 516.320312 327.046875 L 495.597656 327.046875 Z M 495.597656 306.324219 "/>
<path style=" stroke:none;fill-rule:nonzero;fill:rgb(18.039216%,73.72549%,27.058824%);fill-opacity:1;" d="M 300.644531 113.117188 C 300.644531 119.25 291.445312 119.25 291.445312 113.117188 C 291.445312 106.984375 300.644531 106.984375 300.644531 113.117188 "/>
<path style=" stroke:none;fill-rule:nonzero;fill:rgb(18.039216%,73.72549%,27.058824%);fill-opacity:1;" d="M 288.167969 336.351562 L 308.890625 336.351562 L 308.890625 357.074219 L 288.167969 357.074219 Z M 288.167969 336.351562 "/>
<path style=" stroke:none;fill-rule:nonzero;fill:rgb(18.039216%,73.72549%,27.058824%);fill-opacity:1;" d="M 201.007812 324.230469 L 221.730469 324.230469 L 221.730469 344.953125 L 201.007812 344.953125 Z M 201.007812 324.230469 "/>
<path style=" stroke:none;fill-rule:nonzero;fill:rgb(18.039216%,73.72549%,27.058824%);fill-opacity:1;" d="M 491.191406 179.863281 C 491.191406 186.542969 481.171875 186.542969 481.171875 179.863281 C 481.171875 173.183594 491.191406 173.183594 491.191406 179.863281 "/>
<path style=" stroke:none;fill-rule:nonzero;fill:rgb(18.039216%,73.72549%,27.058824%);fill-opacity:1;" d="M 373.773438 313.507812 C 373.773438 317.082031 368.414062 317.082031 368.414062 313.507812 C 368.414062 309.933594 373.773438 309.933594 373.773438 313.507812 "/>
<path style=" stroke:none;fill-rule:nonzero;fill:rgb(18.039216%,73.72549%,27.058824%);fill-opacity:1;" d="M 142.78125 443.027344 C 142.78125 446.21875 140.195312 448.804688 137.003906 448.804688 C 133.816406 448.804688 131.226562 446.21875 131.226562 443.027344 C 131.226562 439.835938 133.816406 437.25 137.003906 437.25 C 140.195312 437.25 142.78125 439.835938 142.78125 443.027344 "/>
<path style=" stroke:none;fill-rule:nonzero;fill:rgb(18.039216%,73.72549%,27.058824%);fill-opacity:1;" d="M 548.382812 367.160156 C 548.382812 371.042969 542.558594 371.042969 542.558594 367.160156 C 542.558594 363.277344 548.382812 363.277344 548.382812 367.160156 "/>
<path style=" stroke:none;fill-rule:nonzero;fill:rgb(18.039216%,73.72549%,27.058824%);fill-opacity:1;" d="M 236.1875 369.8125 C 236.1875 373.910156 230.039062 373.910156 230.039062 369.8125 C 230.039062 365.714844 236.1875 365.714844 236.1875 369.8125 "/>
<path style=" stroke:none;fill-rule:nonzero;fill:rgb(18.039216%,73.72549%,27.058824%);fill-opacity:1;" d="M 181.351562 312.976562 C 181.351562 316.453125 176.136719 316.453125 176.136719 312.976562 C 176.136719 309.5 181.351562 309.5 181.351562 312.976562 "/>
<path style=" stroke:none;fill-rule:nonzero;fill:rgb(18.039216%,73.72549%,27.058824%);fill-opacity:1;" d="M 628.917969 301.132812 C 628.917969 304.230469 626.40625 306.742188 623.3125 306.742188 C 620.214844 306.742188 617.703125 304.230469 617.703125 301.132812 C 617.703125 298.039062 620.214844 295.527344 623.3125 295.527344 C 626.40625 295.527344 628.917969 298.039062 628.917969 301.132812 "/>
<path style=" stroke:none;fill-rule:nonzero;fill:rgb(80.784314%,49.411765%,0%);fill-opacity:1;" d="M 592.40625 224.957031 L 613.128906 224.957031 L 613.128906 245.679688 L 592.40625 245.679688 Z M 592.40625 224.957031 "/>
<path style=" stroke:none;fill-rule:nonzero;fill:rgb(73.72549%,18.039216%,63.137255%);fill-opacity:1;" d="M 568.640625 427.628906 C 568.640625 431.375 563.023438 431.375 563.023438 427.628906 C 563.023438 423.886719 568.640625 423.886719 568.640625 427.628906 "/>
<path style=" stroke:none;fill-rule:nonzero;fill:rgb(41.568627%,32.156863%,77.647059%);fill-opacity:1;" d="M 416.632812 391.550781 C 416.632812 395.125 411.269531 395.125 411.269531 391.550781 C 411.269531 387.976562 416.632812 387.976562 416.632812 391.550781 "/>
<path style=" stroke:none;fill-rule:nonzero;fill:rgb(41.568627%,32.156863%,77.647059%);fill-opacity:1;" d="M 311.523438 476.734375 C 311.523438 482.511719 302.859375 482.511719 302.859375 476.734375 C 302.859375 470.957031 311.523438 470.957031 311.523438 476.734375 "/>
<path style=" stroke:none;fill-rule:nonzero;fill:rgb(41.568627%,32.156863%,77.647059%);fill-opacity:1;" d="M 529.792969 191.589844 C 529.792969 196.617188 522.253906 196.617188 522.253906 191.589844 C 522.253906 186.5625 529.792969 186.5625 529.792969 191.589844 "/>
<path style=" stroke:none;fill-rule:nonzero;fill:rgb(41.568627%,32.156863%,77.647059%);fill-opacity:1;" d="M 504.058594 382.050781 L 524.78125 382.050781 L 524.78125 402.773438 L 504.058594 402.773438 Z M 504.058594 382.050781 "/>
<path style=" stroke:none;fill-rule:nonzero;fill:rgb(41.568627%,32.156863%,77.647059%);fill-opacity:1;" d="M 210.4375 549.214844 C 210.4375 552.949219 204.835938 552.949219 204.835938 549.214844 C 204.835938 545.480469 210.4375 545.480469 210.4375 549.214844 "/>
<path style=" stroke:none;fill-rule:nonzero;fill:rgb(41.568627%,32.156863%,77.647059%);fill-opacity:1;" d="M 188.777344 263.640625 L 209.5 263.640625 L 209.5 284.363281 L 188.777344 284.363281 Z M 188.777344 263.640625 "/>
<path style=" stroke:none;fill-rule:nonzero;fill:rgb(67.843137%,55.294118%,55.294118%);fill-opacity:1;" d="M 249.886719 417.25 C 249.886719 420.859375 244.476562 420.859375 244.476562 417.25 C 244.476562 413.644531 249.886719 413.644531 249.886719 417.25 "/>
<path style=" stroke:none;fill-rule:nonzero;fill:rgb(67.843137%,55.294118%,55.294118%);fill-opacity:1;" d="M 244.292969 550.214844 C 244.292969 557.171875 233.859375 557.171875 233.859375 550.214844 C 233.859375 543.257812 244.292969 543.257812 244.292969 550.214844 "/>
<path style=" stroke:none;fill-rule:nonzero;fill:rgb(67.843137%,55.294118%,55.294118%);fill-opacity:1;" d="M 370.417969 611.847656 C 370.417969 615.492188 364.953125 615.492188 364.953125 611.847656 C 364.953125 608.203125 370.417969 608.203125 370.417969 611.847656 "/>
<path style=" stroke:none;fill-rule:nonzero;fill:rgb(81.176471%,90.588235%,12.156863%);fill-opacity:1;" d="M 420.21875 555.265625 C 420.21875 558.839844 414.859375 558.839844 414.859375 555.265625 C 414.859375 551.691406 420.21875 551.691406 420.21875 555.265625 "/>
</g>
</svg>
