<?xml version="1.0" encoding="UTF-8"?>
<svg xmlns="http://www.w3.org/2000/svg" xmlns:xlink="http://www.w3.org/1999/xlink" width="720pt" height="720pt" viewBox="0 0 720 720" version="1.1">
<g id="surface4001">
<path style=" stroke:none;fill-rule:nonzero;fill:rgb(95.686275%,95.686275%,95.686275%);fill-opacity:1;" d="M 616.945312 349.660156 L 614.59375 349.351562 L 612.289062 348.464844 L 610.089844 347.097656 L 608.027344 345.386719 L 606.078125 343.5 L 604.171875 341.570312 L 602.355469 339.570312 L 600.757812 337.5 L 599.5 335.398438 L 598.667969 333.328125 L 598.578125 332.992188 L 598.308594 330.789062 L 598.609375 328.746094 L 599.390625 326.910156 L 600.484375 325.273438 L 601.699219 323.726562 L 603.011719 322.097656 L 604.53125 320.273438 L 606.289062 318.242188 L 608.257812 316.046875 L 608.375 315.921875 L 610.207031 313.941406 L 612.121094 311.921875 L 614.0625 309.917969 L 615.980469 307.972656 L 617.847656 306.101562 L 619.699219 304.261719 L 621.628906 302.527344 L 623.6875 301.042969 L 625.859375 299.949219 L 628.101562 299.347656 L 629.402344 299.253906 L 631.753906 299.5625 L 634.058594 300.449219 L 636.257812 301.816406 L 638.320312 303.527344 L 640.269531 305.414062 L 642.175781 307.34375 L 643.988281 309.34375 L 645.585938 311.414062 L 646.847656 313.515625 L 647.675781 315.585938 L 647.765625 315.921875 L 648.039062 318.125 L 647.734375 320.164062 L 646.957031 322 L 645.863281 323.640625 L 644.644531 325.183594 L 643.332031 326.816406 L 641.8125 328.636719 L 640.058594 330.667969 L 638.085938 332.867188 L 637.972656 332.992188 L 636.140625 334.972656 L 634.222656 336.988281 L 632.28125 338.996094 L 630.367188 340.9375 L 628.5 342.8125 L 626.644531 344.652344 L 624.714844 346.386719 L 622.660156 347.871094 L 620.488281 348.964844 L 618.242188 349.5625 Z M 616.945312 349.660156 "/>
<path style=" stroke:none;fill-rule:nonzero;fill:rgb(95.686275%,95.686275%,95.686275%);fill-opacity:1;" d="M 403.433594 258.75 L 401.558594 259.203125 L 399.882812 259.164062 L 398.429688 258.699219 L 397.183594 257.933594 L 396.054688 257.027344 L 394.859375 256.035156 L 393.421875 254.792969 L 391.65625 253.210938 L 389.558594 251.269531 L 388.460938 250.230469 L 386.5 248.355469 L 384.390625 246.3125 L 382.195312 244.160156 L 379.96875 241.957031 L 377.75 239.75 L 375.5625 237.5625 L 373.398438 235.363281 L 371.359375 233.074219 L 369.578125 230.652344 L 368.1875 228.109375 L 367.285156 225.476562 L 366.9375 222.800781 L 366.9375 222.574219 L 367.203125 220.039062 L 367.976562 217.535156 L 369.203125 215.101562 L 370.804688 212.769531 L 372.675781 210.5625 L 374.695312 208.457031 L 376.765625 206.390625 L 378.894531 204.398438 L 381.132812 202.585938 L 383.492188 201.070312 L 385.945312 199.949219 L 388.460938 199.296875 L 390.363281 199.148438 L 393.042969 199.445312 L 395.683594 200.304688 L 398.242188 201.664062 L 400.679688 203.417969 L 402.980469 205.445312 L 405.183594 207.605469 L 407.371094 209.800781 L 409.558594 212.039062 L 411.707031 214.332031 L 413.765625 216.636719 L 415.660156 218.910156 L 417.34375 221.097656 L 417.449219 221.246094 L 419.117188 223.695312 L 420.402344 225.929688 L 421.328125 227.90625 L 421.941406 229.640625 L 422.371094 231.199219 L 422.738281 232.75 L 422.964844 234.414062 L 422.925781 236.242188 L 422.554688 238.226562 L 421.800781 240.320312 L 421.753906 240.429688 L 420.644531 242.53125 L 419.21875 244.652344 L 417.546875 246.738281 L 415.726562 248.746094 L 413.839844 250.667969 L 411.9375 252.558594 L 409.996094 254.386719 L 408.015625 256.050781 L 406.042969 257.4375 L 404.144531 258.460938 Z M 403.433594 258.75 "/>
<path style=" stroke:none;fill-rule:nonzero;fill:rgb(95.686275%,95.686275%,95.686275%);fill-opacity:1;" d="M 120.59375 412.402344 L 118.277344 412.113281 L 116.003906 411.285156 L 113.820312 409.988281 L 111.769531 408.355469 L 109.832031 406.523438 L 107.941406 404.628906 L 106.039062 402.671875 L 104.144531 400.609375 L 102.320312 398.453125 L 100.625 396.246094 L 99.539062 394.6875 L 98.164062 392.472656 L 97.023438 390.328125 L 96.121094 388.300781 L 95.433594 386.421875 L 94.890625 384.660156 L 94.398438 382.933594 L 94.027344 381.105469 L 93.898438 379.109375 L 94.109375 376.949219 L 94.714844 374.652344 L 95.179688 373.460938 L 96.328125 371.179688 L 97.808594 368.882812 L 99.558594 366.613281 L 101.484375 364.425781 L 103.503906 362.324219 L 105.550781 360.277344 L 107.652344 358.300781 L 109.875 356.527344 L 112.230469 355.109375 L 114.6875 354.164062 L 117.191406 353.78125 L 117.554688 353.773438 L 120.039062 354.070312 L 122.488281 354.921875 L 124.84375 356.261719 L 127.074219 357.96875 L 129.175781 359.90625 L 131.210938 361.929688 L 133.234375 363.996094 L 135.222656 366.152344 L 137.105469 368.386719 L 138.8125 370.664062 L 140.273438 372.933594 L 140.578125 373.460938 L 141.753906 375.828125 L 142.585938 378.082031 L 143.089844 380.179688 L 143.320312 382.097656 L 143.378906 383.875 L 143.378906 385.621094 L 143.273438 387.460938 L 142.953125 389.441406 L 142.355469 391.5625 L 141.453125 393.773438 L 140.996094 394.6875 L 139.6875 396.914062 L 138.121094 399.128906 L 136.367188 401.28125 L 134.507812 403.328125 L 132.605469 405.273438 L 130.691406 407.171875 L 128.699219 408.96875 L 126.578125 410.507812 L 124.335938 411.65625 L 122.019531 412.292969 Z M 120.59375 412.402344 "/>
<path style=" stroke:none;fill-rule:nonzero;fill:rgb(95.686275%,95.686275%,95.686275%);fill-opacity:1;" d="M 341.9375 626.011719 L 339.128906 626.71875 L 336.199219 627.175781 L 333.214844 627.394531 L 330.246094 627.40625 L 327.332031 627.261719 L 324.480469 627.023438 L 321.632812 626.761719 L 318.730469 626.421875 L 315.765625 625.945312 L 312.777344 625.300781 L 309.832031 624.464844 L 306.996094 623.4375 L 306.554688 623.257812 L 303.585938 621.847656 L 300.863281 620.242188 L 298.429688 618.5 L 296.285156 616.6875 L 294.371094 614.859375 L 292.550781 613.027344 L 290.8125 611.136719 L 289.296875 609.121094 L 288.140625 606.992188 L 287.445312 604.785156 L 287.269531 603.003906 L 287.558594 600.722656 L 288.386719 598.480469 L 289.675781 596.335938 L 291.300781 594.316406 L 293.113281 592.410156 L 294.980469 590.542969 L 296.917969 588.667969 L 298.964844 586.800781 L 301.097656 585 L 303.273438 583.332031 L 304.515625 582.457031 L 306.9375 580.9375 L 309.257812 579.703125 L 311.425781 578.753906 L 313.421875 578.035156 L 315.308594 577.433594 L 317.242188 576.878906 L 319.308594 576.4375 L 321.496094 576.1875 L 323.753906 576.175781 L 324.539062 576.238281 L 326.753906 576.578125 L 328.90625 577.152344 L 330.933594 577.914062 L 332.820312 578.792969 L 334.609375 579.714844 L 336.4375 580.695312 L 338.421875 581.851562 L 340.570312 583.234375 L 342.855469 584.855469 L 344.058594 585.769531 L 346.1875 587.492188 L 348.316406 589.332031 L 350.386719 591.226562 L 352.367188 593.125 L 354.25 594.988281 L 356.09375 596.84375 L 357.832031 598.777344 L 359.324219 600.835938 L 360.429688 603.007812 L 361.042969 605.257812 L 361.144531 606.609375 L 360.910156 608.667969 L 360.226562 610.699219 L 359.152344 612.65625 L 357.773438 614.515625 L 356.191406 616.273438 L 354.523438 617.960938 L 352.796875 619.632812 L 350.910156 621.269531 L 348.785156 622.8125 L 346.40625 624.203125 L 343.789062 625.375 Z M 341.9375 626.011719 "/>
<path style=" stroke:none;fill-rule:nonzero;fill:rgb(95.686275%,95.686275%,95.686275%);fill-opacity:1;" d="M 474.097656 219.878906 L 472.1875 218.964844 L 470.203125 217.679688 L 468.203125 216.09375 L 466.246094 214.316406 L 464.339844 212.449219 L 462.457031 210.554688 L 460.621094 208.597656 L 458.914062 206.5625 L 457.433594 204.484375 L 456.261719 202.417969 L 455.941406 201.722656 L 455.238281 199.667969 L 454.9375 197.738281 L 454.988281 195.972656 L 455.3125 194.378906 L 455.785156 192.902344 L 456.316406 191.410156 L 457.046875 189.734375 L 458.09375 187.800781 L 459.503906 185.597656 L 461.117188 183.382812 L 462.824219 181.246094 L 464.738281 179.007812 L 466.808594 176.722656 L 468.964844 174.445312 L 471.15625 172.203125 L 473.34375 170.011719 L 475.542969 167.847656 L 477.835938 165.804688 L 480.261719 164.027344 L 482.808594 162.636719 L 485.445312 161.738281 L 488.125 161.402344 L 488.316406 161.398438 L 490.851562 161.664062 L 493.355469 162.4375 L 495.792969 163.667969 L 498.121094 165.269531 L 500.328125 167.136719 L 502.4375 169.160156 L 504.5 171.230469 L 506.492188 173.359375 L 508.304688 175.597656 L 509.820312 177.953125 L 510.945312 180.410156 L 511.59375 182.925781 L 511.742188 184.828125 L 511.449219 187.503906 L 510.589844 190.144531 L 509.234375 192.699219 L 507.480469 195.132812 L 505.457031 197.429688 L 503.296875 199.636719 L 501.109375 201.820312 L 498.886719 204.023438 L 496.644531 206.214844 L 494.417969 208.351562 L 492.261719 210.367188 L 490.234375 212.207031 L 490.078125 212.347656 L 487.773438 214.347656 L 485.761719 215.988281 L 484.070312 217.265625 L 482.664062 218.238281 L 481.417969 219.046875 L 480.140625 219.78125 L 478.707031 220.308594 L 477.070312 220.492188 L 475.238281 220.242188 Z M 474.097656 219.878906 "/>
<path style=" stroke:none;fill-rule:nonzero;fill:rgb(95.686275%,95.686275%,95.686275%);fill-opacity:1;" d="M 508.28125 596.792969 L 505.117188 597.597656 L 502.277344 597.742188 L 499.789062 597.273438 L 497.648438 596.296875 L 495.808594 594.941406 L 494.160156 593.382812 L 492.546875 591.769531 L 490.851562 590.070312 L 489.03125 588.226562 L 487.070312 586.234375 L 484.992188 584.105469 L 482.832031 581.875 L 482.382812 581.410156 L 480.167969 579.101562 L 477.929688 576.757812 L 475.714844 574.425781 L 473.5625 572.148438 L 471.492188 569.945312 L 469.492188 567.8125 L 467.515625 565.691406 L 465.570312 563.515625 L 463.71875 561.265625 L 462.027344 558.957031 L 460.570312 556.632812 L 459.398438 554.34375 L 459.136719 553.730469 L 458.300781 551.222656 L 457.886719 548.859375 L 457.859375 546.675781 L 458.148438 544.695312 L 458.632812 542.878906 L 459.1875 541.117188 L 459.820312 539.289062 L 460.613281 537.335938 L 461.609375 535.261719 L 462.820312 533.101562 L 463.839844 531.496094 L 465.253906 529.480469 L 466.808594 527.488281 L 468.453125 525.550781 L 470.140625 523.703125 L 471.832031 521.953125 L 473.507812 520.265625 L 475.238281 518.5625 L 477.195312 516.75 L 479.5 514.78125 L 482.203125 512.660156 L 485.300781 510.414062 L 487.882812 508.652344 L 490.804688 506.761719 L 493.910156 504.851562 L 497.144531 502.9375 L 500.457031 501.046875 L 503.789062 499.207031 L 507.101562 497.425781 L 510.378906 495.6875 L 513.636719 493.976562 L 516.921875 492.292969 L 520.238281 490.699219 L 523.570312 489.257812 L 526.871094 488.019531 L 530.085938 487.042969 L 533.15625 486.363281 L 535.550781 486.050781 L 538.769531 486.003906 L 541.652344 486.421875 L 544.171875 487.261719 L 546.332031 488.441406 L 548.179688 489.867188 L 549.820312 491.425781 L 551.417969 493.027344 L 553.058594 494.714844 L 554.769531 496.546875 L 556.542969 498.550781 L 558.351562 500.707031 L 560.160156 502.992188 L 560.75 503.765625 L 562.605469 506.304688 L 564.398438 508.902344 L 566.09375 511.5 L 567.671875 514.042969 L 569.140625 516.5 L 570.539062 518.898438 L 571.902344 521.308594 L 573.148438 523.792969 L 574.171875 526.351562 L 574.886719 528.953125 L 575.222656 531.535156 L 575.207031 533.328125 L 574.828125 535.75 L 574.050781 538.039062 L 572.925781 540.164062 L 571.53125 542.109375 L 569.964844 543.882812 L 568.316406 545.554688 L 566.609375 547.257812 L 564.6875 549.15625 L 562.433594 551.351562 L 559.800781 553.878906 L 556.796875 556.734375 L 554.238281 559.144531 L 551.578125 561.632812 L 548.765625 564.253906 L 545.835938 566.964844 L 542.835938 569.726562 L 539.816406 572.503906 L 536.804688 575.261719 L 533.824219 577.988281 L 530.867188 580.683594 L 527.910156 583.363281 L 524.921875 585.992188 L 521.902344 588.5 L 518.882812 590.824219 L 515.898438 592.890625 L 512.996094 594.640625 L 510.21875 596.027344 Z M 508.28125 596.792969 "/>
<path style=" stroke:none;fill-rule:nonzero;fill:rgb(95.686275%,95.686275%,95.686275%);fill-opacity:1;" d="M 207.132812 177.707031 L 204.78125 177.398438 L 202.480469 176.515625 L 200.28125 175.152344 L 198.21875 173.445312 L 196.269531 171.5625 L 194.363281 169.632812 L 192.539062 167.636719 L 190.921875 165.570312 L 189.621094 163.46875 L 188.730469 161.398438 L 188.609375 161.003906 L 188.257812 158.777344 L 188.476562 156.71875 L 189.164062 154.867188 L 190.160156 153.214844 L 191.277344 151.652344 L 192.5 149.996094 L 193.953125 148.132812 L 195.664062 146.046875 L 197.605469 143.804688 L 199.402344 141.808594 L 201.304688 139.765625 L 203.253906 137.730469 L 205.195312 135.75 L 207.097656 133.839844 L 208.980469 131.964844 L 210.9375 130.183594 L 213.023438 128.640625 L 215.222656 127.472656 L 217.503906 126.796875 L 219.144531 126.652344 L 221.535156 126.960938 L 223.878906 127.847656 L 226.117188 129.222656 L 228.222656 130.945312 L 230.207031 132.855469 L 232.148438 134.8125 L 234.007812 136.835938 L 235.667969 138.925781 L 237.003906 141.050781 L 237.921875 143.140625 L 238.117188 143.804688 L 238.410156 146.039062 L 238.117188 148.101562 L 237.335938 149.949219 L 236.234375 151.59375 L 235.003906 153.140625 L 233.675781 154.765625 L 232.148438 156.582031 L 230.386719 158.605469 L 228.414062 160.792969 L 228.222656 161.003906 L 226.378906 162.984375 L 224.457031 165.003906 L 222.511719 167.011719 L 220.589844 168.960938 L 218.722656 170.835938 L 216.867188 172.671875 L 214.9375 174.410156 L 212.878906 175.898438 L 210.707031 177 L 208.464844 177.605469 Z M 207.132812 177.707031 "/>
<path style=" stroke:none;fill-rule:nonzero;fill:rgb(95.686275%,95.686275%,95.686275%);fill-opacity:1;" d="M 303.210938 360.105469 L 300.925781 359.816406 L 298.6875 358.980469 L 296.542969 357.683594 L 294.527344 356.050781 L 292.625 354.234375 L 290.757812 352.359375 L 288.90625 350.402344 L 287.109375 348.316406 L 285.445312 346.117188 L 283.984375 343.84375 L 283.375 342.742188 L 282.230469 340.25 L 281.417969 337.8125 L 280.921875 335.496094 L 280.671875 333.335938 L 280.550781 331.285156 L 280.496094 329.199219 L 280.628906 326.976562 L 281.054688 324.605469 L 281.835938 322.132812 L 282.488281 320.617188 L 283.730469 318.324219 L 285.242188 316.070312 L 286.953125 313.914062 L 288.777344 311.890625 L 290.644531 309.976562 L 292.53125 308.113281 L 294.5 306.363281 L 296.597656 304.882812 L 298.8125 303.8125 L 301.09375 303.257812 L 302.160156 303.195312 L 304.449219 303.484375 L 306.695312 304.320312 L 308.847656 305.621094 L 310.871094 307.253906 L 312.777344 309.078125 L 314.644531 310.953125 L 316.503906 312.914062 L 318.300781 315 L 319.96875 317.203125 L 321.429688 319.476562 L 322.058594 320.617188 L 323.199219 323.117188 L 323.996094 325.558594 L 324.480469 327.875 L 324.714844 330.035156 L 324.820312 332.089844 L 324.859375 334.171875 L 324.710938 336.394531 L 324.269531 338.765625 L 323.476562 341.234375 L 322.820312 342.742188 L 321.574219 345.039062 L 320.0625 347.285156 L 318.351562 349.4375 L 316.527344 351.460938 L 314.664062 353.367188 L 312.785156 355.226562 L 310.820312 356.96875 L 308.726562 358.441406 L 306.515625 359.503906 L 304.238281 360.046875 Z M 303.210938 360.105469 "/>
<path style=" stroke:none;fill-rule:nonzero;fill:rgb(95.686275%,95.686275%,95.686275%);fill-opacity:1;" d="M 596.308594 452.203125 L 594.355469 451.441406 L 592.386719 450.347656 L 590.449219 448.980469 L 588.578125 447.410156 L 586.789062 445.726562 L 585.050781 443.996094 L 583.359375 442.214844 L 581.820312 440.292969 L 580.554688 438.175781 L 579.667969 435.875 L 579.246094 433.414062 L 579.21875 432.222656 L 579.496094 429.757812 L 580.207031 427.242188 L 581.292969 424.71875 L 582.683594 422.242188 L 584.277344 419.84375 L 585.980469 417.511719 L 587.710938 415.183594 L 589.519531 412.789062 L 591.441406 410.292969 L 593.476562 407.71875 L 595.601562 405.109375 L 597.777344 402.511719 L 598.199219 402.019531 L 600.496094 399.386719 L 602.777344 396.855469 L 605 394.472656 L 607.121094 392.257812 L 609.140625 390.210938 L 611.085938 388.261719 L 613.046875 386.355469 L 615.109375 384.59375 L 617.289062 383.101562 L 619.578125 382 L 621.929688 381.367188 L 623.570312 381.238281 L 626.082031 381.539062 L 628.550781 382.417969 L 630.925781 383.789062 L 633.167969 385.53125 L 635.285156 387.496094 L 637.335938 389.542969 L 639.351562 391.636719 L 641.265625 393.8125 L 642.972656 396.058594 L 644.386719 398.324219 L 645.425781 400.558594 L 645.460938 400.652344 L 646.101562 402.917969 L 646.296875 405.0625 L 646.097656 407.039062 L 645.585938 408.839844 L 644.886719 410.496094 L 644.128906 412.117188 L 643.261719 413.835938 L 642.203125 415.722656 L 640.902344 417.78125 L 639.359375 419.976562 L 638.546875 421.054688 L 636.867188 423.15625 L 635.046875 425.289062 L 633.136719 427.402344 L 631.1875 429.460938 L 629.25 431.4375 L 627.328125 433.363281 L 625.386719 435.292969 L 623.378906 437.25 L 621.300781 439.207031 L 619.1875 441.121094 L 617.085938 442.933594 L 615.882812 443.921875 L 613.429688 445.832031 L 611.140625 447.46875 L 609.058594 448.816406 L 607.191406 449.917969 L 605.445312 450.882812 L 603.648438 451.769531 L 601.691406 452.417969 L 599.554688 452.675781 L 597.273438 452.449219 Z M 596.308594 452.203125 "/>
<path style=" stroke:none;fill-rule:nonzero;fill:rgb(95.686275%,95.686275%,95.686275%);fill-opacity:1;" d="M 304.914062 126.832031 L 302.679688 125.816406 L 300.445312 124.445312 L 298.265625 122.789062 L 296.1875 120.953125 L 294.203125 119.027344 L 292.265625 117.074219 L 290.433594 115.039062 L 288.867188 112.871094 L 287.710938 110.582031 L 287.074219 108.214844 L 286.972656 106.824219 L 287.261719 104.484375 L 288.097656 102.183594 L 289.398438 99.976562 L 291.046875 97.894531 L 292.894531 95.933594 L 294.808594 94.019531 L 296.78125 92.101562 L 298.855469 90.195312 L 301.011719 88.367188 L 303.210938 86.675781 L 304.914062 85.496094 L 307.394531 84 L 309.757812 82.824219 L 311.953125 81.957031 L 313.960938 81.339844 L 315.863281 80.847656 L 317.816406 80.441406 L 319.929688 80.265625 L 322.210938 80.445312 L 324.613281 81.058594 L 325.445312 81.371094 L 327.660156 82.445312 L 329.863281 83.847656 L 331.992188 85.503906 L 334.015625 87.3125 L 335.941406 89.191406 L 337.820312 91.097656 L 339.574219 93.089844 L 341.042969 95.21875 L 342.089844 97.460938 L 342.601562 99.765625 L 342.644531 100.632812 L 342.359375 102.910156 L 341.53125 105.140625 L 340.25 107.28125 L 338.628906 109.292969 L 336.824219 111.191406 L 334.960938 113.046875 L 333.03125 114.921875 L 330.992188 116.796875 L 328.859375 118.621094 L 326.6875 120.320312 L 325.445312 121.21875 L 323.039062 122.792969 L 320.726562 124.101562 L 318.566406 125.140625 L 316.578125 125.957031 L 314.691406 126.652344 L 312.757812 127.265625 L 310.65625 127.640625 L 308.371094 127.640625 L 305.949219 127.171875 Z M 304.914062 126.832031 "/>
<path style=" stroke:none;fill-rule:nonzero;fill:rgb(95.686275%,95.686275%,95.686275%);fill-opacity:1;" d="M 336.515625 167.179688 L 334.191406 165.792969 L 331.832031 164.128906 L 329.492188 162.242188 L 327.214844 160.210938 L 325.019531 158.109375 L 322.886719 155.988281 L 320.796875 153.832031 L 318.867188 151.574219 L 317.230469 149.179688 L 316.023438 146.667969 L 315.332031 144.085938 L 315.195312 142.304688 L 315.496094 139.671875 L 316.375 137.082031 L 317.757812 134.582031 L 319.53125 132.210938 L 321.558594 129.972656 L 323.695312 127.816406 L 325.867188 125.6875 L 328.117188 123.636719 L 330.449219 121.757812 L 332.828125 120.144531 L 335.203125 118.875 L 336.515625 118.332031 L 339.179688 117.625 L 341.6875 117.46875 L 343.992188 117.796875 L 346.078125 118.480469 L 348.011719 119.355469 L 349.953125 120.292969 L 352.023438 121.371094 L 354.242188 122.660156 L 356.578125 124.171875 L 358.582031 125.601562 L 360.804688 127.324219 L 362.996094 129.160156 L 365.105469 131.054688 L 367.105469 132.953125 L 368.996094 134.816406 L 370.835938 136.671875 L 372.578125 138.597656 L 374.082031 140.652344 L 375.203125 142.820312 L 375.839844 145.0625 L 375.957031 146.527344 L 375.667969 148.824219 L 374.832031 151.074219 L 373.53125 153.226562 L 371.894531 155.253906 L 370.070312 157.164062 L 368.1875 159.039062 L 366.230469 160.902344 L 364.152344 162.714844 L 361.972656 164.402344 L 359.730469 165.890625 L 358.582031 166.550781 L 356.363281 167.640625 L 354.199219 168.453125 L 352.132812 169.003906 L 350.203125 169.332031 L 348.382812 169.507812 L 346.601562 169.632812 L 344.714844 169.640625 L 342.652344 169.410156 L 340.402344 168.847656 L 337.992188 167.914062 Z M 336.515625 167.179688 "/>
<path style=" stroke:none;fill-rule:nonzero;fill:rgb(95.686275%,95.686275%,95.686275%);fill-opacity:1;" d="M 115.351562 349.09375 L 113.253906 348.851562 L 111.1875 348.144531 L 109.195312 347.035156 L 107.304688 345.617188 L 105.523438 343.996094 L 103.804688 342.292969 L 102.117188 340.527344 L 100.539062 338.585938 L 99.160156 336.410156 L 98.070312 333.984375 L 97.34375 331.335938 L 97.132812 329.964844 L 97.003906 327.269531 L 97.21875 324.46875 L 97.746094 321.621094 L 98.527344 318.789062 L 99.492188 316.011719 L 100.558594 313.300781 L 101.660156 310.605469 L 102.828125 307.847656 L 104.113281 305.003906 L 105.542969 302.109375 L 107.105469 299.207031 L 108.792969 296.359375 L 109.464844 295.292969 L 111.417969 292.410156 L 113.445312 289.703125 L 115.492188 287.207031 L 117.515625 284.945312 L 119.488281 282.886719 L 121.421875 280.945312 L 123.382812 279.058594 L 125.441406 277.320312 L 127.625 275.867188 L 129.914062 274.816406 L 132.261719 274.25 L 133.582031 274.164062 L 136.066406 274.464844 L 138.511719 275.335938 L 140.859375 276.695312 L 143.074219 278.421875 L 145.164062 280.375 L 147.195312 282.398438 L 149.1875 284.480469 L 151.078125 286.65625 L 152.761719 288.921875 L 154.152344 291.230469 L 155.164062 293.503906 L 155.851562 296.101562 L 156.011719 298.574219 L 155.71875 300.859375 L 155.097656 302.949219 L 154.320312 304.914062 L 153.5 306.902344 L 152.585938 308.992188 L 151.554688 311.167969 L 150.417969 313.367188 L 149.839844 314.414062 L 148.613281 316.503906 L 147.355469 318.484375 L 146.101562 320.3125 L 144.890625 321.976562 L 143.714844 323.53125 L 142.496094 325.117188 L 141.121094 326.855469 L 139.539062 328.777344 L 137.75 330.855469 L 136.5625 332.199219 L 134.71875 334.222656 L 132.796875 336.273438 L 130.84375 338.304688 L 128.921875 340.261719 L 127.046875 342.144531 L 125.191406 343.988281 L 123.257812 345.734375 L 121.203125 347.234375 L 119.03125 348.351562 L 116.78125 348.980469 Z M 115.351562 349.09375 "/>
<path style=" stroke:none;fill-rule:nonzero;fill:rgb(95.686275%,95.686275%,95.686275%);fill-opacity:1;" d="M 412.492188 631.78125 L 410.003906 632.519531 L 407.601562 632.808594 L 405.347656 632.703125 L 403.261719 632.304688 L 401.292969 631.765625 L 399.285156 631.160156 L 397.136719 630.378906 L 394.835938 629.339844 L 392.421875 628.027344 L 391.050781 627.175781 L 388.90625 625.6875 L 386.785156 624.042969 L 384.738281 622.289062 L 382.796875 620.496094 L 380.957031 618.699219 L 379.171875 616.910156 L 377.359375 615.078125 L 375.523438 613.160156 L 373.683594 611.167969 L 371.902344 609.136719 L 370.304688 607.214844 L 368.507812 604.898438 L 366.9375 602.699219 L 365.609375 600.675781 L 364.5 598.828125 L 363.5 597.085938 L 362.589844 595.28125 L 361.933594 593.308594 L 361.683594 591.15625 L 361.941406 588.863281 L 362.117188 588.175781 L 362.855469 586.234375 L 363.929688 584.28125 L 365.285156 582.359375 L 366.839844 580.503906 L 368.511719 578.730469 L 370.226562 577.007812 L 371.996094 575.332031 L 373.914062 573.804688 L 376.019531 572.550781 L 378.316406 571.667969 L 380.761719 571.234375 L 381.792969 571.199219 L 384.265625 571.433594 L 386.796875 572.09375 L 389.332031 573.132812 L 391.816406 574.46875 L 394.21875 576.003906 L 396.558594 577.640625 L 398.898438 579.308594 L 401.308594 581.050781 L 403.804688 582.898438 L 406.355469 584.84375 L 408.910156 586.863281 L 411.386719 588.886719 L 413.992188 591.101562 L 416.457031 593.285156 L 418.746094 595.390625 L 420.835938 597.390625 L 422.753906 599.28125 L 424.585938 601.113281 L 426.355469 602.992188 L 427.941406 604.980469 L 429.210938 607.085938 L 430.054688 609.28125 L 430.398438 611.519531 L 430.402344 611.847656 L 430.105469 614.210938 L 429.246094 616.53125 L 427.914062 618.753906 L 426.230469 620.84375 L 424.351562 622.816406 L 422.417969 624.742188 L 420.40625 626.632812 L 418.28125 628.402344 L 416.058594 629.960938 L 413.785156 631.222656 Z M 412.492188 631.78125 "/>
<path style=" stroke:none;fill-rule:nonzero;fill:rgb(95.686275%,95.686275%,95.686275%);fill-opacity:1;" d="M 489.410156 145.453125 L 487.089844 145.882812 L 484.894531 145.789062 L 482.875 145.25 L 481.042969 144.402344 L 479.3125 143.429688 L 477.519531 142.371094 L 475.550781 141.113281 L 473.394531 139.605469 L 471.097656 137.859375 L 470.480469 137.363281 L 468.394531 135.621094 L 466.296875 133.765625 L 464.234375 131.855469 L 462.253906 129.945312 L 460.359375 128.066406 L 458.507812 126.203125 L 456.753906 124.261719 L 455.246094 122.195312 L 454.121094 120.011719 L 453.488281 117.75 L 453.375 116.308594 L 453.679688 113.957031 L 454.554688 111.652344 L 455.90625 109.449219 L 457.605469 107.378906 L 459.488281 105.425781 L 461.417969 103.515625 L 463.421875 101.675781 L 465.519531 100.015625 L 467.679688 98.652344 L 469.84375 97.671875 L 470.480469 97.460938 L 472.804688 97.035156 L 475 97.132812 L 477.019531 97.679688 L 478.851562 98.53125 L 480.582031 99.515625 L 482.375 100.582031 L 484.339844 101.84375 L 486.492188 103.351562 L 488.785156 105.101562 L 489.410156 105.605469 L 491.496094 107.351562 L 493.59375 109.207031 L 495.65625 111.117188 L 497.632812 113.027344 L 499.523438 114.902344 L 501.375 116.765625 L 503.125 118.707031 L 504.632812 120.773438 L 505.75 122.953125 L 506.378906 125.210938 L 506.492188 126.632812 L 506.1875 128.984375 L 505.3125 131.285156 L 503.957031 133.488281 L 502.261719 135.554688 L 500.382812 137.503906 L 498.453125 139.414062 L 496.453125 141.25 L 494.355469 142.910156 L 492.195312 144.273438 L 490.035156 145.25 Z M 489.410156 145.453125 "/>
<path style=" stroke:none;fill-rule:nonzero;fill:rgb(95.686275%,95.686275%,95.686275%);fill-opacity:1;" d="M 210.488281 535.164062 L 208.300781 534.410156 L 206.046875 533.195312 L 203.792969 531.589844 L 201.585938 529.707031 L 199.449219 527.664062 L 197.355469 525.570312 L 195.339844 523.410156 L 193.546875 521.121094 L 192.132812 518.699219 L 191.222656 516.175781 L 190.894531 513.609375 L 190.894531 513.539062 L 191.1875 511.050781 L 192.03125 508.601562 L 193.355469 506.242188 L 195.050781 504.003906 L 196.976562 501.894531 L 199 499.859375 L 201.054688 497.820312 L 203.175781 495.769531 L 205.351562 493.75 L 207.542969 491.816406 L 209.691406 490.03125 L 210.488281 489.402344 L 212.757812 487.71875 L 214.863281 486.316406 L 216.769531 485.195312 L 218.46875 484.328125 L 220.019531 483.621094 L 221.558594 482.96875 L 223.210938 482.457031 L 225.023438 482.210938 L 226.984375 482.324219 L 229.058594 482.839844 L 229.265625 482.914062 L 231.378906 483.875 L 233.511719 485.207031 L 235.601562 486.820312 L 237.609375 488.625 L 239.535156 490.507812 L 241.417969 492.425781 L 243.164062 494.4375 L 244.613281 496.582031 L 245.621094 498.84375 L 246.078125 501.164062 L 246.097656 501.78125 L 245.816406 504.027344 L 245.007812 506.230469 L 243.746094 508.34375 L 242.15625 510.332031 L 240.375 512.207031 L 238.542969 514.042969 L 236.648438 515.929688 L 234.671875 517.886719 L 232.632812 519.890625 L 230.578125 521.890625 L 229.265625 523.15625 L 227.089844 525.238281 L 225.027344 527.179688 L 223.132812 528.945312 L 221.414062 530.527344 L 219.804688 531.996094 L 218.160156 533.390625 L 216.335938 534.535156 L 214.285156 535.253906 L 212.019531 535.402344 Z M 210.488281 535.164062 "/>
<path style=" stroke:none;fill-rule:nonzero;fill:rgb(95.686275%,95.686275%,95.686275%);fill-opacity:1;" d="M 313.5625 514.488281 L 311.53125 513.792969 L 309.4375 512.628906 L 307.339844 511.082031 L 305.289062 509.277344 L 303.304688 507.339844 L 301.359375 505.359375 L 299.546875 503.285156 L 298.039062 501.070312 L 296.984375 498.738281 L 296.488281 496.339844 L 296.460938 495.609375 L 296.746094 493.300781 L 297.570312 491.039062 L 298.851562 488.867188 L 300.476562 486.820312 L 302.296875 484.890625 L 304.179688 483.003906 L 306.105469 481.082031 L 308.089844 479.109375 L 310.105469 477.117188 L 312.097656 475.15625 L 313.5625 473.726562 L 315.738281 471.617188 L 317.71875 469.714844 L 319.46875 468.050781 L 321.007812 466.605469 L 322.449219 465.269531 L 323.984375 464.046875 L 325.71875 463.144531 L 327.679688 462.730469 L 329.832031 462.921875 L 329.90625 462.9375 L 331.925781 463.65625 L 334.011719 464.828125 L 336.09375 466.375 L 338.121094 468.175781 L 340.085938 470.097656 L 342.011719 472.058594 L 343.796875 474.121094 L 345.269531 476.320312 L 346.28125 478.636719 L 346.730469 481.015625 L 346.746094 481.558594 L 346.460938 483.839844 L 345.640625 486.078125 L 344.363281 488.226562 L 342.75 490.25 L 340.945312 492.160156 L 339.078125 494.023438 L 337.171875 495.933594 L 335.203125 497.898438 L 333.203125 499.894531 L 331.222656 501.867188 L 329.90625 503.179688 L 327.765625 505.304688 L 325.808594 507.246094 L 324.074219 508.964844 L 322.542969 510.476562 L 321.113281 511.882812 L 319.597656 513.175781 L 317.878906 514.160156 L 315.929688 514.652344 L 313.785156 514.539062 Z M 313.5625 514.488281 "/>
<path style=" stroke:none;fill-rule:nonzero;fill:rgb(95.686275%,95.686275%,95.686275%);fill-opacity:1;" d="M 617.480469 299.164062 L 614.789062 298.867188 L 612.132812 297.996094 L 609.5625 296.625 L 607.117188 294.851562 L 604.804688 292.808594 L 602.589844 290.632812 L 600.394531 288.425781 L 598.226562 286.160156 L 596.140625 283.828125 L 594.210938 281.464844 L 592.515625 279.117188 L 591.101562 276.832031 L 591.101562 276.828125 L 589.867188 274.3125 L 589.066406 271.972656 L 588.667969 269.855469 L 588.597656 267.964844 L 588.726562 266.242188 L 588.925781 264.554688 L 589.226562 262.773438 L 589.734375 260.851562 L 590.5 258.792969 L 591.546875 256.640625 L 591.972656 255.886719 L 593.363281 253.707031 L 594.976562 251.539062 L 596.746094 249.433594 L 598.597656 247.429688 L 600.472656 245.523438 L 602.355469 243.660156 L 604.320312 241.90625 L 606.414062 240.421875 L 608.625 239.339844 L 610.90625 238.769531 L 612.039062 238.699219 L 614.296875 238.980469 L 616.515625 239.792969 L 618.640625 241.058594 L 620.640625 242.65625 L 622.53125 244.445312 L 624.375 246.292969 L 626.261719 248.203125 L 628.191406 250.214844 L 630.140625 252.316406 L 632.046875 254.457031 L 633.269531 255.886719 L 634.984375 257.96875 L 636.5625 259.988281 L 637.972656 261.894531 L 639.222656 263.667969 L 640.34375 265.324219 L 641.40625 266.9375 L 642.363281 268.640625 L 643.058594 270.527344 L 643.367188 272.628906 L 643.199219 274.921875 L 642.699219 276.828125 L 641.710938 279.144531 L 640.316406 281.523438 L 638.574219 283.917969 L 636.578125 286.277344 L 634.425781 288.566406 L 632.207031 290.804688 L 629.957031 293 L 627.605469 295.046875 L 625.109375 296.804688 L 622.496094 298.136719 L 619.796875 298.945312 Z M 617.480469 299.164062 "/>
<path style=" stroke:none;fill-rule:nonzero;fill:rgb(95.686275%,95.686275%,95.686275%);fill-opacity:1;" d="M 167.628906 217.867188 L 165.398438 216.699219 L 163.132812 215.207031 L 160.898438 213.453125 L 158.730469 211.53125 L 156.648438 209.523438 L 154.617188 207.488281 L 152.660156 205.398438 L 150.914062 203.179688 L 149.527344 200.835938 L 148.625 198.390625 L 148.285156 195.898438 L 148.285156 195.730469 L 148.578125 193.257812 L 149.433594 190.828125 L 150.769531 188.488281 L 152.476562 186.277344 L 154.40625 184.191406 L 156.417969 182.167969 L 158.476562 180.15625 L 160.613281 178.183594 L 162.828125 176.316406 L 165.074219 174.632812 L 167.296875 173.195312 L 167.628906 173 L 169.964844 171.8125 L 172.175781 170.976562 L 174.214844 170.472656 L 176.070312 170.238281 L 177.789062 170.175781 L 179.484375 170.167969 L 181.285156 170.285156 L 183.242188 170.632812 L 185.347656 171.277344 L 187.550781 172.242188 L 188.0625 172.507812 L 190.25 173.8125 L 192.4375 175.378906 L 194.574219 177.136719 L 196.617188 179.003906 L 198.566406 180.910156 L 200.472656 182.828125 L 202.273438 184.824219 L 203.816406 186.953125 L 204.964844 189.199219 L 205.605469 191.523438 L 205.714844 192.953125 L 205.425781 195.277344 L 204.589844 197.558594 L 203.289062 199.746094 L 201.648438 201.808594 L 199.808594 203.75 L 197.910156 205.648438 L 195.949219 207.554688 L 193.886719 209.445312 L 191.746094 211.261719 L 189.570312 212.9375 L 188.0625 213.988281 L 185.859375 215.351562 L 183.746094 216.460938 L 181.765625 217.316406 L 179.9375 217.949219 L 178.238281 218.441406 L 176.554688 218.875 L 174.757812 219.175781 L 172.785156 219.214844 L 170.640625 218.898438 L 168.355469 218.175781 Z M 167.628906 217.867188 "/>
<path style=" stroke:none;fill-rule:nonzero;fill:rgb(95.686275%,95.686275%,95.686275%);fill-opacity:1;" d="M 432.253906 592.375 L 429.988281 592.089844 L 427.765625 591.265625 L 425.632812 589.988281 L 423.628906 588.375 L 421.734375 586.574219 L 419.882812 584.71875 L 418.011719 582.792969 L 416.128906 580.757812 L 414.289062 578.628906 L 412.558594 576.457031 L 411.632812 575.207031 L 410.011719 572.816406 L 408.640625 570.511719 L 407.519531 568.351562 L 406.617188 566.355469 L 405.839844 564.472656 L 405.132812 562.542969 L 404.664062 560.445312 L 404.574219 558.160156 L 404.957031 555.726562 L 405.34375 554.46875 L 406.339844 552.21875 L 407.707031 549.957031 L 409.363281 547.75 L 411.21875 545.632812 L 413.171875 543.613281 L 415.15625 541.640625 L 417.214844 539.765625 L 419.402344 538.140625 L 421.71875 536.910156 L 424.117188 536.195312 L 425.867188 536.035156 L 428.246094 536.328125 L 430.585938 537.164062 L 432.835938 538.476562 L 434.953125 540.136719 L 436.953125 542.007812 L 438.898438 543.953125 L 440.847656 545.949219 L 442.777344 548.039062 L 444.636719 550.21875 L 446.355469 552.4375 L 447.753906 554.46875 L 449.242188 556.988281 L 450.394531 559.382812 L 451.222656 561.601562 L 451.789062 563.625 L 452.226562 565.535156 L 452.582031 567.5 L 452.714844 569.617188 L 452.496094 571.902344 L 451.859375 574.300781 L 451.511719 575.207031 L 450.414062 577.429688 L 449 579.628906 L 447.339844 581.761719 L 445.527344 583.78125 L 443.652344 585.699219 L 441.753906 587.570312 L 439.765625 589.320312 L 437.644531 590.785156 L 435.410156 591.824219 L 433.109375 592.335938 Z M 432.253906 592.375 "/>
<path style=" stroke:none;fill-rule:nonzero;fill:rgb(95.686275%,95.686275%,95.686275%);fill-opacity:1;" d="M 424.148438 201.054688 L 421.699219 201.703125 L 419.34375 201.890625 L 417.140625 201.667969 L 415.109375 201.152344 L 413.1875 200.5 L 411.226562 199.777344 L 409.117188 198.871094 L 406.84375 197.714844 L 404.460938 196.292969 L 403.285156 195.511719 L 401.089844 193.914062 L 398.914062 192.160156 L 396.8125 190.316406 L 394.824219 188.445312 L 392.933594 186.582031 L 391.09375 184.722656 L 389.355469 182.789062 L 387.875 180.722656 L 386.78125 178.542969 L 386.191406 176.292969 L 386.105469 175.039062 L 386.402344 172.726562 L 387.257812 170.457031 L 388.585938 168.289062 L 390.25 166.253906 L 392.097656 164.332031 L 393.996094 162.445312 L 395.980469 160.609375 L 398.082031 158.90625 L 400.277344 157.429688 L 402.511719 156.265625 L 403.285156 155.953125 L 405.710938 155.242188 L 408.054688 154.980469 L 410.257812 155.101562 L 412.292969 155.503906 L 414.21875 156.039062 L 416.195312 156.648438 L 418.332031 157.453125 L 420.636719 158.535156 L 423.0625 159.910156 L 424.148438 160.601562 L 426.355469 162.160156 L 428.550781 163.890625 L 430.679688 165.738281 L 432.703125 167.628906 L 434.628906 169.523438 L 436.503906 171.414062 L 438.289062 173.375 L 439.824219 175.464844 L 440.980469 177.671875 L 441.640625 179.957031 L 441.773438 181.519531 L 441.476562 183.875 L 440.613281 186.183594 L 439.273438 188.390625 L 437.589844 190.46875 L 435.71875 192.429688 L 433.789062 194.347656 L 431.78125 196.214844 L 429.664062 197.949219 L 427.453125 199.453125 L 425.203125 200.628906 Z M 424.148438 201.054688 "/>
<path style=" stroke:none;fill-rule:nonzero;fill:rgb(95.686275%,95.686275%,95.686275%);fill-opacity:1;" d="M 521.914062 261.691406 L 519.640625 261.402344 L 517.410156 260.574219 L 515.269531 259.285156 L 513.261719 257.664062 L 511.363281 255.859375 L 509.507812 253.996094 L 507.636719 252.0625 L 505.777344 250.019531 L 503.984375 247.894531 L 502.328125 245.722656 L 501.519531 244.566406 L 500.007812 242.15625 L 498.78125 239.84375 L 497.835938 237.683594 L 497.121094 235.695312 L 496.523438 233.8125 L 496.011719 231.871094 L 495.746094 229.761719 L 495.855469 227.472656 L 496.421875 225.058594 L 496.710938 224.25 L 497.757812 222.035156 L 499.144531 219.820312 L 500.800781 217.667969 L 502.625 215.613281 L 504.53125 213.660156 L 506.460938 211.75 L 508.476562 209.957031 L 510.625 208.433594 L 512.894531 207.328125 L 515.234375 206.753906 L 516.367188 206.683594 L 518.679688 206.972656 L 520.953125 207.804688 L 523.132812 209.105469 L 525.183594 210.746094 L 527.117188 212.578125 L 529.007812 214.472656 L 530.90625 216.429688 L 532.785156 218.488281 L 534.582031 220.636719 L 536.230469 222.820312 L 537.207031 224.25 L 538.671875 226.707031 L 539.820312 229.050781 L 540.65625 231.230469 L 541.25 233.226562 L 541.726562 235.117188 L 542.113281 237.070312 L 542.257812 239.1875 L 542.042969 241.472656 L 541.394531 243.871094 L 541.125 244.566406 L 540.042969 246.773438 L 538.636719 248.96875 L 536.980469 251.09375 L 535.171875 253.109375 L 533.296875 255.027344 L 531.394531 256.902344 L 529.402344 258.648438 L 527.28125 260.113281 L 525.042969 261.148438 L 522.738281 261.652344 Z M 521.914062 261.691406 "/>
<path style=" stroke:none;fill-rule:nonzero;fill:rgb(95.686275%,95.686275%,95.686275%);fill-opacity:1;" d="M 169.898438 524.210938 L 167.453125 523.90625 L 165.054688 523.023438 L 162.753906 521.652344 L 160.589844 519.921875 L 158.546875 517.988281 L 156.554688 515.988281 L 154.617188 513.933594 L 152.839844 511.789062 L 151.328125 509.582031 L 150.183594 507.363281 L 149.660156 505.921875 L 149.222656 503.527344 L 149.34375 501.277344 L 149.929688 499.226562 L 150.847656 497.371094 L 151.914062 495.632812 L 153.050781 493.847656 L 154.367188 491.902344 L 155.910156 489.78125 L 157.675781 487.519531 L 158.46875 486.554688 L 160.253906 484.457031 L 162.136719 482.355469 L 164.058594 480.300781 L 165.96875 478.328125 L 167.835938 476.445312 L 169.691406 474.605469 L 171.621094 472.863281 L 173.675781 471.367188 L 175.847656 470.257812 L 178.089844 469.636719 L 179.492188 469.527344 L 181.824219 469.828125 L 184.109375 470.695312 L 186.296875 472.035156 L 188.347656 473.71875 L 190.285156 475.585938 L 192.179688 477.5 L 194.019531 479.488281 L 195.707031 481.574219 L 197.132812 483.730469 L 198.214844 485.894531 L 198.46875 486.554688 L 199.0625 488.90625 L 199.167969 491.136719 L 198.847656 493.191406 L 198.234375 495.0625 L 197.5 496.835938 L 196.667969 498.683594 L 195.605469 500.726562 L 194.242188 502.976562 L 192.574219 505.394531 L 192.1875 505.921875 L 190.515625 508.050781 L 188.6875 510.210938 L 186.761719 512.347656 L 184.800781 514.410156 L 182.84375 516.394531 L 180.902344 518.332031 L 178.898438 520.195312 L 176.773438 521.839844 L 174.523438 523.128906 L 172.183594 523.945312 Z M 169.898438 524.210938 "/>
<path style=" stroke:none;fill-rule:nonzero;fill:rgb(95.686275%,95.686275%,95.686275%);fill-opacity:1;" d="M 231.339844 572.339844 L 229.09375 571.367188 L 226.824219 570.007812 L 224.582031 568.335938 L 222.410156 566.449219 L 220.328125 564.445312 L 218.296875 562.40625 L 216.339844 560.304688 L 214.617188 558.074219 L 213.265625 555.710938 L 212.414062 553.257812 L 212.136719 550.871094 L 212.429688 548.421875 L 213.273438 546.011719 L 214.601562 543.691406 L 216.289062 541.5 L 218.203125 539.429688 L 220.195312 537.429688 L 222.234375 535.425781 L 224.355469 533.441406 L 226.550781 531.53125 L 228.78125 529.761719 L 230.992188 528.195312 L 231.339844 527.96875 L 233.65625 526.59375 L 235.851562 525.527344 L 237.882812 524.757812 L 239.734375 524.246094 L 241.445312 523.894531 L 243.136719 523.597656 L 244.925781 523.421875 L 246.859375 523.480469 L 248.929688 523.84375 L 251.089844 524.554688 L 251.652344 524.792969 L 253.839844 525.929688 L 256.019531 527.375 L 258.136719 529.050781 L 260.148438 530.871094 L 262.066406 532.75 L 263.941406 534.648438 L 265.691406 536.632812 L 267.160156 538.753906 L 268.203125 540.992188 L 268.714844 543.292969 L 268.757812 544.167969 L 268.476562 546.429688 L 267.652344 548.652344 L 266.378906 550.785156 L 264.769531 552.789062 L 262.972656 554.679688 L 261.117188 556.53125 L 259.199219 558.40625 L 257.175781 560.308594 L 255.066406 562.183594 L 252.921875 563.972656 L 251.652344 564.972656 L 249.300781 566.695312 L 247.050781 568.195312 L 244.949219 569.449219 L 243.019531 570.492188 L 241.195312 571.417969 L 239.324219 572.261719 L 237.273438 572.851562 L 235.011719 573.035156 L 232.574219 572.703125 Z M 231.339844 572.339844 "/>
<path style="fill:none;stroke-width:0.75;stroke-linecap:round;stroke-linejoin:round;stroke:rgb(66.27451%,66.27451%,66.27451%);stroke-opacity:1;stroke-miterlimit:10;" d="M 618.574219 330.261719 L 627.773438 318.652344 "/>
<path style="fill:none;stroke-width:0.75;stroke-linecap:round;stroke-linejoin:round;stroke:rgb(66.27451%,66.27451%,66.27451%);stroke-opacity:1;stroke-miterlimit:10;" d="M 400.71875 237.5625 L 397.523438 232.9375 "/>
<path style="fill:none;stroke-width:0.75;stroke-linecap:round;stroke-linejoin:round;stroke:rgb(66.27451%,66.27451%,66.27451%);stroke-opacity:1;stroke-miterlimit:10;" d="M 118.484375 380.292969 L 120.085938 391.03125 "/>
<path style="fill:none;stroke-width:0.75;stroke-linecap:round;stroke-linejoin:round;stroke:rgb(66.27451%,66.27451%,66.27451%);stroke-opacity:1;stroke-miterlimit:10;" d="M 321.71875 597.847656 L 307.476562 602.183594 "/>
<path style="fill:none;stroke-width:0.75;stroke-linecap:round;stroke-linejoin:round;stroke:rgb(66.27451%,66.27451%,66.27451%);stroke-opacity:1;stroke-miterlimit:10;" d="M 327.328125 598.332031 L 341.3125 605.390625 "/>
<path style="fill:none;stroke-width:0.75;stroke-linecap:round;stroke-linejoin:round;stroke:rgb(66.27451%,66.27451%,66.27451%);stroke-opacity:1;stroke-miterlimit:10;" d="M 476.683594 199.085938 L 479.863281 195.1875 "/>
<path style="fill:none;stroke-width:0.75;stroke-linecap:round;stroke-linejoin:round;stroke:rgb(66.27451%,66.27451%,66.27451%);stroke-opacity:1;stroke-miterlimit:10;" d="M 485.847656 534.050781 L 498.800781 556.472656 "/>
<path style="fill:none;stroke-width:0.75;stroke-linecap:round;stroke-linejoin:round;stroke:rgb(66.27451%,66.27451%,66.27451%);stroke-opacity:1;stroke-miterlimit:10;" d="M 217.128906 147.199219 L 208.746094 158.207031 "/>
<path style="fill:none;stroke-width:0.75;stroke-linecap:round;stroke-linejoin:round;stroke:rgb(66.27451%,66.27451%,66.27451%);stroke-opacity:1;stroke-miterlimit:10;" d="M 555.007812 533.53125 L 538.789062 528.1875 "/>
<path style="fill:none;stroke-width:0.75;stroke-linecap:round;stroke-linejoin:round;stroke:rgb(66.27451%,66.27451%,66.27451%);stroke-opacity:1;stroke-miterlimit:10;" d="M 303.085938 340.109375 L 302.289062 323.351562 "/>
<path style="fill:none;stroke-width:0.75;stroke-linecap:round;stroke-linejoin:round;stroke:rgb(66.27451%,66.27451%,66.27451%);stroke-opacity:1;stroke-miterlimit:10;" d="M 599.222656 431.503906 L 610.503906 423.652344 "/>
<path style="fill:none;stroke-width:0.75;stroke-linecap:round;stroke-linejoin:round;stroke:rgb(66.27451%,66.27451%,66.27451%);stroke-opacity:1;stroke-miterlimit:10;" d="M 621.09375 406.964844 L 617.460938 415.207031 "/>
<path style="fill:none;stroke-width:0.75;stroke-linecap:round;stroke-linejoin:round;stroke:rgb(66.27451%,66.27451%,66.27451%);stroke-opacity:1;stroke-miterlimit:10;" d="M 322.582031 101.449219 L 308.941406 105.6875 "/>
<path style="fill:none;stroke-width:0.75;stroke-linecap:round;stroke-linejoin:round;stroke:rgb(66.27451%,66.27451%,66.27451%);stroke-opacity:1;stroke-miterlimit:10;" d="M 345.683594 143.984375 L 355.730469 145.980469 "/>
<path style="fill:none;stroke-width:0.75;stroke-linecap:round;stroke-linejoin:round;stroke:rgb(66.27451%,66.27451%,66.27451%);stroke-opacity:1;stroke-miterlimit:10;" d="M 538.511719 505.417969 L 535.316406 522.300781 "/>
<path style="fill:none;stroke-width:0.75;stroke-linecap:round;stroke-linejoin:round;stroke:rgb(66.27451%,66.27451%,66.27451%);stroke-opacity:1;stroke-miterlimit:10;" d="M 507.019531 544.417969 L 501.253906 556.378906 "/>
<path style="fill:none;stroke-width:0.75;stroke-linecap:round;stroke-linejoin:round;stroke:rgb(66.27451%,66.27451%,66.27451%);stroke-opacity:1;stroke-miterlimit:10;" d="M 512.394531 538.769531 L 530.480469 528.9375 "/>
<path style="fill:none;stroke-width:0.75;stroke-linecap:round;stroke-linejoin:round;stroke:rgb(66.27451%,66.27451%,66.27451%);stroke-opacity:1;stroke-miterlimit:10;" d="M 504.984375 542.21875 L 480.339844 551.847656 "/>
<path style="fill:none;stroke-width:0.75;stroke-linecap:round;stroke-linejoin:round;stroke:rgb(66.27451%,66.27451%,66.27451%);stroke-opacity:1;stroke-miterlimit:10;" d="M 128.761719 312.121094 L 132.109375 299.511719 "/>
<path style="fill:none;stroke-width:0.75;stroke-linecap:round;stroke-linejoin:round;stroke:rgb(66.27451%,66.27451%,66.27451%);stroke-opacity:1;stroke-miterlimit:10;" d="M 126.328125 317.113281 L 117.042969 329.382812 "/>
<path style="fill:none;stroke-width:0.75;stroke-linecap:round;stroke-linejoin:round;stroke:rgb(66.27451%,66.27451%,66.27451%);stroke-opacity:1;stroke-miterlimit:10;" d="M 500.652344 561.316406 L 504.492188 579.585938 "/>
<path style="fill:none;stroke-width:0.75;stroke-linecap:round;stroke-linejoin:round;stroke:rgb(66.27451%,66.27451%,66.27451%);stroke-opacity:1;stroke-miterlimit:10;" d="M 389.835938 604.480469 L 382.140625 590.964844 "/>
<path style="fill:none;stroke-width:0.75;stroke-linecap:round;stroke-linejoin:round;stroke:rgb(66.27451%,66.27451%,66.27451%);stroke-opacity:1;stroke-miterlimit:10;" d="M 393.75 607.421875 L 408.785156 611.011719 "/>
<path style="fill:none;stroke-width:0.75;stroke-linecap:round;stroke-linejoin:round;stroke:rgb(66.27451%,66.27451%,66.27451%);stroke-opacity:1;stroke-miterlimit:10;" d="M 486.460938 125.203125 L 473.472656 117.757812 "/>
<path style="fill:none;stroke-width:0.75;stroke-linecap:round;stroke-linejoin:round;stroke:rgb(66.27451%,66.27451%,66.27451%);stroke-opacity:1;stroke-miterlimit:10;" d="M 216.949219 509.792969 L 226.601562 503.246094 "/>
<path style="fill:none;stroke-width:0.75;stroke-linecap:round;stroke-linejoin:round;stroke:rgb(66.27451%,66.27451%,66.27451%);stroke-opacity:1;stroke-miterlimit:10;" d="M 326.867188 483.671875 L 316.917969 493.226562 "/>
<path style="fill:none;stroke-width:0.75;stroke-linecap:round;stroke-linejoin:round;stroke:rgb(66.27451%,66.27451%,66.27451%);stroke-opacity:1;stroke-miterlimit:10;" d="M 614.601562 265.375 L 612.785156 258.847656 "/>
<path style="fill:none;stroke-width:0.75;stroke-linecap:round;stroke-linejoin:round;stroke:rgb(66.27451%,66.27451%,66.27451%);stroke-opacity:1;stroke-miterlimit:10;" d="M 184.230469 193.445312 L 174.195312 194.882812 "/>
<path style="fill:none;stroke-width:0.75;stroke-linecap:round;stroke-linejoin:round;stroke:rgb(66.27451%,66.27451%,66.27451%);stroke-opacity:1;stroke-miterlimit:10;" d="M 431.445312 572.449219 L 427.238281 559.203125 "/>
<path style="fill:none;stroke-width:0.75;stroke-linecap:round;stroke-linejoin:round;stroke:rgb(66.27451%,66.27451%,66.27451%);stroke-opacity:1;stroke-miterlimit:10;" d="M 405.96875 175.835938 L 420.765625 180.523438 "/>
<path style="fill:none;stroke-width:0.75;stroke-linecap:round;stroke-linejoin:round;stroke:rgb(66.27451%,66.27451%,66.27451%);stroke-opacity:1;stroke-miterlimit:10;" d="M 521.195312 241.753906 L 517.265625 227.769531 "/>
<path style="fill:none;stroke-width:0.75;stroke-linecap:round;stroke-linejoin:round;stroke:rgb(66.27451%,66.27451%,66.27451%);stroke-opacity:1;stroke-miterlimit:10;" d="M 178.222656 489.390625 L 172.03125 501.238281 "/>
<path style="fill:none;stroke-width:0.75;stroke-linecap:round;stroke-linejoin:round;stroke:rgb(66.27451%,66.27451%,66.27451%);stroke-opacity:1;stroke-miterlimit:10;" d="M 248.8125 545.046875 L 237.417969 548.984375 "/>
<path style=" stroke:none;fill-rule:nonzero;fill:rgb(3.137255%,81.960784%,81.960784%);fill-opacity:1;" d="M 619.566406 332.316406 C 619.566406 335.8125 614.320312 335.8125 614.320312 332.316406 C 614.320312 328.820312 619.566406 328.820312 619.566406 332.316406 "/>
<path style=" stroke:none;fill-rule:nonzero;fill:rgb(3.137255%,81.960784%,81.960784%);fill-opacity:1;" d="M 405.179688 239.902344 C 405.179688 243.695312 399.492188 243.695312 399.492188 239.902344 C 399.492188 236.109375 405.179688 236.109375 405.179688 239.902344 "/>
<path style=" stroke:none;fill-rule:nonzero;fill:rgb(3.137255%,81.960784%,81.960784%);fill-opacity:1;" d="M 441.757812 279.894531 C 441.757812 286.265625 432.207031 286.265625 432.207031 279.894531 C 432.207031 273.527344 441.757812 273.527344 441.757812 279.894531 "/>
<path style=" stroke:none;fill-rule:nonzero;fill:rgb(3.137255%,81.960784%,81.960784%);fill-opacity:1;" d="M 291.882812 205.113281 C 291.882812 209.121094 285.871094 209.121094 285.871094 205.113281 C 285.871094 201.105469 291.882812 201.105469 291.882812 205.113281 "/>
<path style=" stroke:none;fill-rule:nonzero;fill:rgb(3.137255%,81.960784%,81.960784%);fill-opacity:1;" d="M 537.617188 283.089844 C 537.617188 286.632812 532.304688 286.632812 532.304688 283.089844 C 532.304688 279.550781 537.617188 279.550781 537.617188 283.089844 "/>
<path style=" stroke:none;fill-rule:nonzero;fill:rgb(3.137255%,81.960784%,81.960784%);fill-opacity:1;" d="M 123.882812 374.03125 C 123.882812 377.527344 121.050781 380.363281 117.554688 380.363281 C 114.054688 380.363281 111.222656 377.527344 111.222656 374.03125 C 111.222656 370.535156 114.054688 367.699219 117.554688 367.699219 C 121.050781 367.699219 123.882812 370.535156 123.882812 374.03125 "/>
<path style=" stroke:none;fill-rule:nonzero;fill:rgb(3.137255%,81.960784%,81.960784%);fill-opacity:1;" d="M 338.96875 222.65625 C 338.96875 226.128906 336.152344 228.945312 332.683594 228.945312 C 329.210938 228.945312 326.394531 226.128906 326.394531 222.65625 C 326.394531 219.1875 329.210938 216.371094 332.683594 216.371094 C 336.152344 216.371094 338.96875 219.1875 338.96875 222.65625 "/>
<path style=" stroke:none;fill-rule:nonzero;fill:rgb(3.137255%,81.960784%,81.960784%);fill-opacity:1;" d="M 327.652344 596.964844 C 327.652344 601.011719 321.585938 601.011719 321.585938 596.964844 C 321.585938 592.921875 327.652344 592.921875 327.652344 596.964844 "/>
<path style=" stroke:none;fill-rule:nonzero;fill:rgb(3.137255%,81.960784%,81.960784%);fill-opacity:1;" d="M 321.425781 180.234375 C 321.425781 185.839844 313.019531 185.839844 313.019531 180.234375 C 313.019531 174.628906 321.425781 174.628906 321.425781 180.234375 "/>
<path style=" stroke:none;fill-rule:nonzero;fill:rgb(3.137255%,81.960784%,81.960784%);fill-opacity:1;" d="M 365.933594 509.011719 C 365.933594 512.730469 360.359375 512.730469 360.359375 509.011719 C 360.359375 505.296875 365.933594 505.296875 365.933594 509.011719 "/>
<path style=" stroke:none;fill-rule:nonzero;fill:rgb(3.137255%,81.960784%,81.960784%);fill-opacity:1;" d="M 364.894531 99.003906 C 364.894531 102.570312 359.546875 102.570312 359.546875 99.003906 C 359.546875 95.4375 364.894531 95.4375 364.894531 99.003906 "/>
<path style=" stroke:none;fill-rule:nonzero;fill:rgb(3.137255%,81.960784%,81.960784%);fill-opacity:1;" d="M 477.640625 201.109375 C 477.640625 204.585938 472.425781 204.585938 472.425781 201.109375 C 472.425781 197.628906 477.640625 197.628906 477.640625 201.109375 "/>
<path style=" stroke:none;fill-rule:nonzero;fill:rgb(3.137255%,81.960784%,81.960784%);fill-opacity:1;" d="M 478.613281 368.9375 C 478.613281 372.472656 473.308594 372.472656 473.308594 368.9375 C 473.308594 365.402344 478.613281 365.402344 478.613281 368.9375 "/>
<path style=" stroke:none;fill-rule:nonzero;fill:rgb(3.137255%,81.960784%,81.960784%);fill-opacity:1;" d="M 470.109375 449.355469 C 470.109375 455.109375 461.480469 455.109375 461.480469 449.355469 C 461.480469 443.601562 470.109375 443.601562 470.109375 449.355469 "/>
<path style=" stroke:none;fill-rule:nonzero;fill:rgb(3.137255%,81.960784%,81.960784%);fill-opacity:1;" d="M 514.785156 166.296875 L 535.507812 166.296875 L 535.507812 187.019531 L 514.785156 187.019531 Z M 514.785156 166.296875 "/>
<path style=" stroke:none;fill-rule:nonzero;fill:rgb(3.137255%,81.960784%,81.960784%);fill-opacity:1;" d="M 487.261719 531.601562 C 487.261719 535.371094 481.605469 535.371094 481.605469 531.601562 C 481.605469 527.828125 487.261719 527.828125 487.261719 531.601562 "/>
<path style=" stroke:none;fill-rule:nonzero;fill:rgb(3.137255%,81.960784%,81.960784%);fill-opacity:1;" d="M 222.472656 144.550781 C 222.472656 148.988281 215.8125 148.988281 215.8125 144.550781 C 215.8125 140.109375 222.472656 140.109375 222.472656 144.550781 "/>
<path style=" stroke:none;fill-rule:nonzero;fill:rgb(3.137255%,81.960784%,81.960784%);fill-opacity:1;" d="M 209.796875 160.328125 C 209.796875 163.886719 204.464844 163.886719 204.464844 160.328125 C 204.464844 156.773438 209.796875 156.773438 209.796875 160.328125 "/>
<path style=" stroke:none;fill-rule:nonzero;fill:rgb(74.901961%,43.921569%,13.333333%);fill-opacity:1;" d="M 369.75 450.671875 C 369.75 454.449219 364.078125 454.449219 364.078125 450.671875 C 364.078125 446.890625 369.75 446.890625 369.75 450.671875 "/>
<path style=" stroke:none;fill-rule:nonzero;fill:rgb(18.039216%,73.72549%,50.980392%);fill-opacity:1;" d="M 560.097656 534.347656 C 560.097656 537.828125 554.875 537.828125 554.875 534.347656 C 554.875 530.867188 560.097656 530.867188 560.097656 534.347656 "/>
<path style=" stroke:none;fill-rule:nonzero;fill:rgb(18.039216%,56.862745%,73.72549%);fill-opacity:1;" d="M 569.285156 262.519531 C 569.285156 266.015625 564.039062 266.015625 564.039062 262.519531 C 564.039062 259.023438 569.285156 259.023438 569.285156 262.519531 "/>
<path style=" stroke:none;fill-rule:nonzero;fill:rgb(18.039216%,35.294118%,73.72549%);fill-opacity:1;" d="M 305.851562 342.75 C 305.851562 346.273438 300.570312 346.273438 300.570312 342.75 C 300.570312 339.226562 305.851562 339.226562 305.851562 342.75 "/>
<path style=" stroke:none;fill-rule:nonzero;fill:rgb(18.039216%,35.294118%,73.72549%);fill-opacity:1;" d="M 587.582031 298.292969 C 587.582031 301.882812 582.203125 301.882812 582.203125 298.292969 C 582.203125 294.707031 587.582031 294.707031 587.582031 298.292969 "/>
<path style=" stroke:none;fill-rule:nonzero;fill:rgb(18.039216%,35.294118%,73.72549%);fill-opacity:1;" d="M 599.765625 433.230469 C 599.765625 437.265625 593.714844 437.265625 593.714844 433.230469 C 593.714844 429.199219 599.765625 429.199219 599.765625 433.230469 "/>
<path style=" stroke:none;fill-rule:nonzero;fill:rgb(18.039216%,35.294118%,73.72549%);fill-opacity:1;" d="M 281.277344 514.730469 C 281.277344 518.410156 275.757812 518.410156 275.757812 514.730469 C 275.757812 511.050781 281.277344 511.050781 281.277344 514.730469 "/>
<path style=" stroke:none;fill-rule:nonzero;fill:rgb(18.039216%,35.294118%,73.72549%);fill-opacity:1;" d="M 432.359375 136.414062 C 432.359375 140.09375 426.839844 140.09375 426.839844 136.414062 C 426.839844 132.734375 432.359375 132.734375 432.359375 136.414062 "/>
<path style=" stroke:none;fill-rule:nonzero;fill:rgb(18.039216%,35.294118%,73.72549%);fill-opacity:1;" d="M 296.515625 147.6875 C 296.515625 151.222656 291.214844 151.222656 291.214844 147.6875 C 291.214844 144.15625 296.515625 144.15625 296.515625 147.6875 "/>
<path style=" stroke:none;fill-rule:nonzero;fill:rgb(18.039216%,35.294118%,73.72549%);fill-opacity:1;" d="M 629.707031 401.34375 C 629.707031 404.734375 626.960938 407.484375 623.570312 407.484375 C 620.179688 407.484375 617.429688 404.734375 617.429688 401.34375 C 617.429688 397.953125 620.179688 395.207031 623.570312 395.207031 C 626.960938 395.207031 629.707031 397.953125 629.707031 401.34375 "/>
<path style=" stroke:none;fill-rule:nonzero;fill:rgb(18.039216%,35.294118%,73.72549%);fill-opacity:1;" d="M 307.601562 603.003906 C 307.601562 606.773438 301.945312 606.773438 301.945312 603.003906 C 301.945312 599.234375 307.601562 599.234375 307.601562 603.003906 "/>
<path style=" stroke:none;fill-rule:nonzero;fill:rgb(18.039216%,35.294118%,73.72549%);fill-opacity:1;" d="M 327.953125 100.632812 C 327.953125 104.296875 322.457031 104.296875 322.457031 100.632812 C 322.457031 96.972656 327.953125 96.972656 327.953125 100.632812 "/>
<path style=" stroke:none;fill-rule:nonzero;fill:rgb(18.039216%,35.294118%,73.72549%);fill-opacity:1;" d="M 232.589844 199.632812 C 232.589844 203.757812 226.398438 203.757812 226.398438 199.632812 C 226.398438 195.503906 232.589844 195.503906 232.589844 199.632812 "/>
<path style=" stroke:none;fill-rule:nonzero;fill:rgb(18.039216%,35.294118%,73.72549%);fill-opacity:1;" d="M 156.691406 255.425781 L 177.414062 255.425781 L 177.414062 276.148438 L 156.691406 276.148438 Z M 156.691406 255.425781 "/>
<path style=" stroke:none;fill-rule:nonzero;fill:rgb(18.039216%,35.294118%,73.72549%);fill-opacity:1;" d="M 345.847656 142.304688 C 345.847656 147.058594 341.996094 150.914062 337.242188 150.914062 C 332.488281 150.914062 328.632812 147.058594 328.632812 142.304688 C 328.632812 137.550781 332.488281 133.695312 337.242188 133.695312 C 341.996094 133.695312 345.847656 137.550781 345.847656 142.304688 "/>
<path style=" stroke:none;fill-rule:nonzero;fill:rgb(3.529412%,80.784314%,55.294118%);fill-opacity:1;" d="M 158.464844 412.164062 C 158.464844 415.675781 153.195312 415.675781 153.195312 412.164062 C 153.195312 408.648438 158.464844 408.648438 158.464844 412.164062 "/>
<path style=" stroke:none;fill-rule:nonzero;fill:rgb(3.529412%,44.705882%,39.607843%);fill-opacity:1;" d="M 380.003906 212.214844 L 400.726562 212.214844 L 400.726562 232.9375 L 380.003906 232.9375 Z M 380.003906 212.214844 "/>
<path style=" stroke:none;fill-rule:nonzero;fill:rgb(3.529412%,44.705882%,39.607843%);fill-opacity:1;" d="M 541.722656 502.757812 C 541.722656 506.367188 536.304688 506.367188 536.304688 502.757812 C 536.304688 499.144531 541.722656 499.144531 541.722656 502.757812 "/>
<path style=" stroke:none;fill-rule:nonzero;fill:rgb(3.529412%,44.705882%,39.607843%);fill-opacity:1;" d="M 512.894531 540.726562 C 512.894531 546.1875 504.703125 546.1875 504.703125 540.726562 C 504.703125 535.265625 512.894531 535.265625 512.894531 540.726562 "/>
<path style=" stroke:none;fill-rule:nonzero;fill:rgb(67.058824%,33.72549%,84.705882%);fill-opacity:1;" d="M 359.570312 557.742188 C 359.570312 561.464844 353.988281 561.464844 353.988281 557.742188 C 353.988281 554.023438 359.570312 554.023438 359.570312 557.742188 "/>
<path style=" stroke:none;fill-rule:nonzero;fill:rgb(67.058824%,33.72549%,84.705882%);fill-opacity:1;" d="M 208 276.523438 C 208 280.8125 201.566406 280.8125 201.566406 276.523438 C 201.566406 272.234375 208 272.234375 208 276.523438 "/>
<path style=" stroke:none;fill-rule:nonzero;fill:rgb(67.058824%,33.72549%,84.705882%);fill-opacity:1;" d="M 400.183594 93.753906 C 400.183594 97.960938 393.871094 97.960938 393.871094 93.753906 C 393.871094 89.542969 400.183594 89.542969 400.183594 93.753906 "/>
<path style=" stroke:none;fill-rule:nonzero;fill:rgb(67.058824%,33.72549%,84.705882%);fill-opacity:1;" d="M 237.929688 415.117188 C 237.929688 418.351562 235.308594 420.96875 232.074219 420.96875 C 228.84375 420.96875 226.222656 418.351562 226.222656 415.117188 C 226.222656 411.886719 228.84375 409.265625 232.074219 409.265625 C 235.308594 409.265625 237.929688 411.886719 237.929688 415.117188 "/>
<path style=" stroke:none;fill-rule:nonzero;fill:rgb(67.058824%,33.72549%,84.705882%);fill-opacity:1;" d="M 130.867188 314.855469 C 130.867188 318.632812 125.207031 318.632812 125.207031 314.855469 C 125.207031 311.082031 130.867188 311.082031 130.867188 314.855469 "/>
<path style=" stroke:none;fill-rule:nonzero;fill:rgb(67.058824%,33.72549%,84.705882%);fill-opacity:1;" d="M 560.570312 168.339844 C 560.570312 171.820312 555.351562 171.820312 555.351562 168.339844 C 555.351562 164.863281 560.570312 164.863281 560.570312 168.339844 "/>
<path style=" stroke:none;fill-rule:nonzero;fill:rgb(67.058824%,33.72549%,84.705882%);fill-opacity:1;" d="M 502.738281 558.746094 C 502.738281 562.25 497.484375 562.25 497.484375 558.746094 C 497.484375 555.246094 502.738281 555.246094 502.738281 558.746094 "/>
<path style=" stroke:none;fill-rule:nonzero;fill:rgb(3.921569%,62.745098%,12.156863%);fill-opacity:1;" d="M 436.835938 368.84375 C 436.835938 372.402344 431.496094 372.402344 431.496094 368.84375 C 431.496094 365.28125 436.835938 365.28125 436.835938 368.84375 "/>
<path style=" stroke:none;fill-rule:nonzero;fill:rgb(3.921569%,62.745098%,12.156863%);fill-opacity:1;" d="M 393.820312 606.800781 C 393.820312 610.355469 388.488281 610.355469 388.488281 606.800781 C 388.488281 603.242188 393.820312 603.242188 393.820312 606.800781 "/>
<path style=" stroke:none;fill-rule:nonzero;fill:rgb(3.921569%,62.745098%,12.156863%);fill-opacity:1;" d="M 491.824219 126.632812 C 491.824219 130.460938 486.082031 130.460938 486.082031 126.632812 C 486.082031 122.804688 491.824219 122.804688 491.824219 126.632812 "/>
<path style=" stroke:none;fill-rule:nonzero;fill:rgb(3.921569%,62.745098%,12.156863%);fill-opacity:1;" d="M 612.5625 469.023438 C 612.5625 472.496094 607.359375 472.496094 607.359375 469.023438 C 607.359375 465.554688 612.5625 465.554688 612.5625 469.023438 "/>
<path style=" stroke:none;fill-rule:nonzero;fill:rgb(3.921569%,62.745098%,12.156863%);fill-opacity:1;" d="M 218.097656 513.539062 C 218.097656 517.226562 215.109375 520.214844 211.425781 520.214844 C 207.738281 520.214844 204.75 517.226562 204.75 513.539062 C 204.75 509.851562 207.738281 506.863281 211.425781 506.863281 C 215.109375 506.863281 218.097656 509.851562 218.097656 513.539062 "/>
<path style=" stroke:none;fill-rule:nonzero;fill:rgb(3.921569%,62.745098%,12.156863%);fill-opacity:1;" d="M 405.589844 406.714844 C 405.589844 410.429688 400.015625 410.429688 400.015625 406.714844 C 400.015625 403 405.589844 403 405.589844 406.714844 "/>
<path style=" stroke:none;fill-rule:nonzero;fill:rgb(3.921569%,62.745098%,12.156863%);fill-opacity:1;" d="M 395.230469 131.289062 C 395.230469 134.746094 390.050781 134.746094 390.050781 131.289062 C 390.050781 127.835938 395.230469 127.835938 395.230469 131.289062 "/>
<path style=" stroke:none;fill-rule:nonzero;fill:rgb(3.921569%,62.745098%,12.156863%);fill-opacity:1;" d="M 332.117188 481.558594 C 332.117188 485.625 326.015625 485.625 326.015625 481.558594 C 326.015625 477.488281 332.117188 477.488281 332.117188 481.558594 "/>
<path style=" stroke:none;fill-rule:nonzero;fill:rgb(3.921569%,62.745098%,12.156863%);fill-opacity:1;" d="M 607.121094 265.375 L 627.84375 265.375 L 627.84375 286.097656 L 607.121094 286.097656 Z M 607.121094 265.375 "/>
<path style=" stroke:none;fill-rule:nonzero;fill:rgb(3.921569%,62.745098%,12.156863%);fill-opacity:1;" d="M 231.375 501.78125 C 231.375 505.261719 226.152344 505.261719 226.152344 501.78125 C 226.152344 498.296875 231.375 498.296875 231.375 501.78125 "/>
<path style=" stroke:none;fill-rule:nonzero;fill:rgb(3.921569%,62.745098%,12.156863%);fill-opacity:1;" d="M 547.375 320.898438 C 547.375 324.6875 541.6875 324.6875 541.6875 320.898438 C 541.6875 317.105469 547.375 317.105469 547.375 320.898438 "/>
<path style=" stroke:none;fill-rule:nonzero;fill:rgb(3.921569%,62.745098%,12.156863%);fill-opacity:1;" d="M 191.179688 192.953125 C 191.179688 197.609375 184.195312 197.609375 184.195312 192.953125 C 184.195312 188.292969 191.179688 188.292969 191.179688 192.953125 "/>
<path style=" stroke:none;fill-rule:nonzero;fill:rgb(3.921569%,62.745098%,12.156863%);fill-opacity:1;" d="M 280.5 399.988281 L 301.222656 399.988281 L 301.222656 420.710938 L 280.5 420.710938 Z M 280.5 399.988281 "/>
<path style=" stroke:none;fill-rule:nonzero;fill:rgb(3.921569%,62.745098%,12.156863%);fill-opacity:1;" d="M 434.925781 574.996094 C 434.925781 578.558594 429.582031 578.558594 429.582031 574.996094 C 429.582031 571.429688 434.925781 571.429688 434.925781 574.996094 "/>
<path style=" stroke:none;fill-rule:nonzero;fill:rgb(3.921569%,62.745098%,12.156863%);fill-opacity:1;" d="M 406.09375 175.039062 C 406.09375 178.554688 400.820312 178.554688 400.820312 175.039062 C 400.820312 171.523438 406.09375 171.523438 406.09375 175.039062 "/>
<path style=" stroke:none;fill-rule:nonzero;fill:rgb(3.921569%,62.745098%,12.156863%);fill-opacity:1;" d="M 490.277344 486.917969 C 490.277344 490.988281 484.167969 490.988281 484.167969 486.917969 C 484.167969 482.84375 490.277344 482.84375 490.277344 486.917969 "/>
<path style=" stroke:none;fill-rule:nonzero;fill:rgb(3.921569%,62.745098%,12.156863%);fill-opacity:1;" d="M 266.820312 231.824219 C 266.820312 237.027344 262.601562 241.246094 257.394531 241.246094 C 252.191406 241.246094 247.972656 237.027344 247.972656 231.824219 C 247.972656 226.621094 252.191406 222.402344 257.394531 222.402344 C 262.601562 222.402344 266.820312 226.621094 266.820312 231.824219 "/>
<path style=" stroke:none;fill-rule:nonzero;fill:rgb(3.921569%,62.745098%,12.156863%);fill-opacity:1;" d="M 524.578125 244.316406 C 524.578125 247.867188 519.25 247.867188 519.25 244.316406 C 519.25 240.765625 524.578125 240.765625 524.578125 244.316406 "/>
<path style=" stroke:none;fill-rule:nonzero;fill:rgb(3.921569%,62.745098%,12.156863%);fill-opacity:1;" d="M 196.609375 437.433594 C 196.609375 441.074219 191.148438 441.074219 191.148438 437.433594 C 191.148438 433.792969 196.609375 433.792969 196.609375 437.433594 "/>
<path style=" stroke:none;fill-rule:nonzero;fill:rgb(3.921569%,62.745098%,12.156863%);fill-opacity:1;" d="M 139.328125 293.957031 C 139.328125 297.132812 136.753906 299.703125 133.582031 299.703125 C 130.410156 299.703125 127.839844 297.132812 127.839844 293.957031 C 127.839844 290.785156 130.410156 288.214844 133.582031 288.214844 C 136.753906 288.214844 139.328125 290.785156 139.328125 293.957031 "/>
<path style=" stroke:none;fill-rule:nonzero;fill:rgb(3.921569%,62.745098%,12.156863%);fill-opacity:1;" d="M 182.230469 486.960938 C 182.230469 490.613281 176.75 490.613281 176.75 486.960938 C 176.75 483.304688 182.230469 483.304688 182.230469 486.960938 "/>
<path style=" stroke:none;fill-rule:nonzero;fill:rgb(3.921569%,62.745098%,12.156863%);fill-opacity:1;" d="M 614.824219 256.167969 C 614.824219 259.878906 609.257812 259.878906 609.257812 256.167969 C 609.257812 252.457031 614.824219 252.457031 614.824219 256.167969 "/>
<path style=" stroke:none;fill-rule:nonzero;fill:rgb(3.921569%,62.745098%,12.156863%);fill-opacity:1;" d="M 285.503906 543.84375 L 306.226562 543.84375 L 306.226562 564.566406 L 285.503906 564.566406 Z M 285.503906 543.84375 "/>
<path style=" stroke:none;fill-rule:nonzero;fill:rgb(3.921569%,62.745098%,12.156863%);fill-opacity:1;" d="M 193.320312 545.285156 C 193.320312 548.828125 188 548.828125 188 545.285156 C 188 541.738281 193.320312 541.738281 193.320312 545.285156 "/>
<path style=" stroke:none;fill-rule:nonzero;fill:rgb(3.921569%,62.745098%,12.156863%);fill-opacity:1;" d="M 265.484375 179.691406 C 265.484375 183.78125 259.347656 183.78125 259.347656 179.691406 C 259.347656 175.597656 265.484375 175.597656 265.484375 179.691406 "/>
<path style=" stroke:none;fill-rule:nonzero;fill:rgb(3.921569%,62.745098%,12.156863%);fill-opacity:1;" d="M 393.769531 536.652344 C 393.769531 540.28125 388.324219 540.28125 388.324219 536.652344 C 388.324219 533.023438 393.769531 533.023438 393.769531 536.652344 "/>
<path style=" stroke:none;fill-rule:nonzero;fill:rgb(3.921569%,62.745098%,12.156863%);fill-opacity:1;" d="M 279.828125 475.980469 C 279.828125 481.871094 275.054688 486.648438 269.160156 486.648438 C 263.269531 486.648438 258.496094 481.871094 258.496094 475.980469 C 258.496094 470.089844 263.269531 465.3125 269.160156 465.3125 C 275.054688 465.3125 279.828125 470.089844 279.828125 475.980469 "/>
<path style=" stroke:none;fill-rule:nonzero;fill:rgb(3.921569%,62.745098%,12.156863%);fill-opacity:1;" d="M 519.6875 224.570312 C 519.6875 228.996094 513.046875 228.996094 513.046875 224.570312 C 513.046875 220.148438 519.6875 220.148438 519.6875 224.570312 "/>
<path style=" stroke:none;fill-rule:nonzero;fill:rgb(3.921569%,62.745098%,12.156863%);fill-opacity:1;" d="M 254.054688 544.167969 C 254.054688 547.761719 248.664062 547.761719 248.664062 544.167969 C 248.664062 540.574219 254.054688 540.574219 254.054688 544.167969 "/>
<path style=" stroke:none;fill-rule:nonzero;fill:rgb(3.921569%,62.745098%,12.156863%);fill-opacity:1;" d="M 276.953125 585.398438 C 276.953125 589.074219 271.441406 589.074219 271.441406 585.398438 C 271.441406 581.722656 276.953125 581.722656 276.953125 585.398438 "/>
<path style=" stroke:none;fill-rule:nonzero;fill:rgb(3.921569%,62.745098%,12.156863%);fill-opacity:1;" d="M 157.558594 345.683594 C 157.558594 349.195312 152.292969 349.195312 152.292969 345.683594 C 152.292969 342.175781 157.558594 342.175781 157.558594 345.683594 "/>
<path style=" stroke:none;fill-rule:nonzero;fill:rgb(3.921569%,62.745098%,12.156863%);fill-opacity:1;" d="M 259.6875 326.671875 C 259.6875 330.230469 254.347656 330.230469 254.347656 326.671875 C 254.347656 323.109375 259.6875 323.109375 259.6875 326.671875 "/>
<path style=" stroke:none;fill-rule:nonzero;fill:rgb(3.921569%,62.745098%,12.156863%);fill-opacity:1;" d="M 590.46875 231.039062 C 590.46875 234.847656 584.757812 234.847656 584.757812 231.039062 C 584.757812 227.234375 590.46875 227.234375 590.46875 231.039062 "/>
<path style=" stroke:none;fill-rule:nonzero;fill:rgb(3.921569%,62.745098%,12.156863%);fill-opacity:1;" d="M 432.5 216.167969 L 453.222656 216.167969 L 453.222656 236.890625 L 432.5 236.890625 Z M 432.5 216.167969 "/>
<path style=" stroke:none;fill-rule:nonzero;fill:rgb(3.921569%,62.745098%,12.156863%);fill-opacity:1;" d="M 487.082031 286.617188 C 487.082031 290.125 481.820312 290.125 481.820312 286.617188 C 481.820312 283.105469 487.082031 283.105469 487.082031 286.617188 "/>
<path style=" stroke:none;fill-rule:nonzero;fill:rgb(3.921569%,62.745098%,12.156863%);fill-opacity:1;" d="M 636.59375 365.789062 C 636.59375 369.988281 630.300781 369.988281 630.300781 365.789062 C 630.300781 361.59375 636.59375 361.59375 636.59375 365.789062 "/>
<path style=" stroke:none;fill-rule:nonzero;fill:rgb(3.921569%,62.745098%,12.156863%);fill-opacity:1;" d="M 133.429688 435.792969 C 133.429688 441.289062 128.972656 445.746094 123.476562 445.746094 C 117.976562 445.746094 113.519531 441.289062 113.519531 435.792969 C 113.519531 430.292969 117.976562 425.835938 123.476562 425.835938 C 128.972656 425.835938 133.429688 430.292969 133.429688 435.792969 "/>
<path style=" stroke:none;fill-rule:nonzero;fill:rgb(3.921569%,62.745098%,12.156863%);fill-opacity:1;" d="M 582.625 337.398438 C 582.625 340.835938 579.839844 343.625 576.398438 343.625 C 572.960938 343.625 570.171875 340.835938 570.171875 337.398438 C 570.171875 333.960938 572.960938 331.171875 576.398438 331.171875 C 579.839844 331.171875 582.625 333.960938 582.625 337.398438 "/>
<path style=" stroke:none;fill-rule:nonzero;fill:rgb(3.921569%,62.745098%,12.156863%);fill-opacity:1;" d="M 233.898438 364.71875 C 233.898438 368.449219 228.300781 368.449219 228.300781 364.71875 C 228.300781 360.984375 233.898438 360.984375 233.898438 364.71875 "/>
<path style=" stroke:none;fill-rule:nonzero;fill:rgb(3.921569%,62.745098%,12.156863%);fill-opacity:1;" d="M 586.902344 198.128906 C 586.902344 201.683594 581.566406 201.683594 581.566406 198.128906 C 581.566406 194.574219 586.902344 194.574219 586.902344 198.128906 "/>
<path style=" stroke:none;fill-rule:nonzero;fill:rgb(3.921569%,62.745098%,12.156863%);fill-opacity:1;" d="M 400.601562 289.800781 C 400.601562 293.015625 397.992188 295.625 394.773438 295.625 C 391.558594 295.625 388.949219 293.015625 388.949219 289.800781 C 388.949219 286.582031 391.558594 283.972656 394.773438 283.972656 C 397.992188 283.972656 400.601562 286.582031 400.601562 289.800781 "/>
<path style=" stroke:none;fill-rule:nonzero;fill:rgb(3.921569%,62.745098%,12.156863%);fill-opacity:1;" d="M 504.164062 404.085938 C 504.164062 407.605469 498.886719 407.605469 498.886719 404.085938 C 498.886719 400.570312 504.164062 400.570312 504.164062 404.085938 "/>
<path style=" stroke:none;fill-rule:nonzero;fill:rgb(3.921569%,62.745098%,12.156863%);fill-opacity:1;" d="M 418.847656 444.804688 C 418.847656 448.589844 413.175781 448.589844 413.175781 444.804688 C 413.175781 441.023438 418.847656 441.023438 418.847656 444.804688 "/>
<path style=" stroke:none;fill-rule:nonzero;fill:rgb(3.921569%,62.745098%,12.156863%);fill-opacity:1;" d="M 477.351562 250.847656 C 477.351562 255.1875 470.84375 255.1875 470.84375 250.847656 C 470.84375 246.507812 477.351562 246.507812 477.351562 250.847656 "/>
<path style=" stroke:none;fill-rule:nonzero;fill:rgb(3.921569%,62.745098%,12.156863%);fill-opacity:1;" d="M 332.230469 384.019531 C 332.230469 388 329.003906 391.226562 325.019531 391.226562 C 321.039062 391.226562 317.8125 388 317.8125 384.019531 C 317.8125 380.035156 321.039062 376.808594 325.019531 376.808594 C 329.003906 376.808594 332.230469 380.035156 332.230469 384.019531 "/>
<path style=" stroke:none;fill-rule:nonzero;fill:rgb(3.921569%,62.745098%,12.156863%);fill-opacity:1;" d="M 161.800781 449.054688 C 161.800781 452.738281 156.273438 452.738281 156.273438 449.054688 C 156.273438 445.371094 161.800781 445.371094 161.800781 449.054688 "/>
<path style=" stroke:none;fill-rule:nonzero;fill:rgb(3.921569%,62.745098%,12.156863%);fill-opacity:1;" d="M 493.71875 308.621094 L 514.441406 308.621094 L 514.441406 329.34375 L 493.71875 329.34375 Z M 493.71875 308.621094 "/>
<path style=" stroke:none;fill-rule:nonzero;fill:rgb(3.921569%,62.745098%,12.156863%);fill-opacity:1;" d="M 262.894531 281.027344 C 262.894531 284.902344 257.074219 284.902344 257.074219 281.027344 C 257.074219 277.148438 262.894531 277.148438 262.894531 281.027344 "/>
<path style=" stroke:none;fill-rule:nonzero;fill:rgb(3.921569%,62.745098%,12.156863%);fill-opacity:1;" d="M 321.546875 441.863281 C 321.546875 444.859375 319.113281 447.292969 316.117188 447.292969 C 313.117188 447.292969 310.6875 444.859375 310.6875 441.863281 C 310.6875 438.863281 313.117188 436.429688 316.117188 436.429688 C 319.113281 436.429688 321.546875 438.863281 321.546875 441.863281 "/>
<path style=" stroke:none;fill-rule:nonzero;fill:rgb(15.294118%,28.627451%,27.058824%);fill-opacity:1;" d="M 153.53125 228.699219 C 153.53125 234.027344 145.542969 234.027344 145.542969 228.699219 C 145.542969 223.375 153.53125 223.375 153.53125 228.699219 "/>
<path style=" stroke:none;fill-rule:nonzero;fill:rgb(15.294118%,28.627451%,27.058824%);fill-opacity:1;" d="M 383.519531 588.597656 C 383.519531 592.230469 378.066406 592.230469 378.066406 588.597656 C 378.066406 584.960938 383.519531 584.960938 383.519531 588.597656 "/>
<path style=" stroke:none;fill-rule:nonzero;fill:rgb(15.294118%,28.627451%,27.058824%);fill-opacity:1;" d="M 432.835938 514.613281 C 432.835938 518.917969 426.378906 518.917969 426.378906 514.613281 C 426.378906 510.308594 432.835938 510.308594 432.835938 514.613281 "/>
<path style=" stroke:none;fill-rule:nonzero;fill:rgb(15.294118%,28.627451%,27.058824%);fill-opacity:1;" d="M 632.023438 316.597656 C 632.023438 320.09375 626.777344 320.09375 626.777344 316.597656 C 626.777344 313.101562 632.023438 313.101562 632.023438 316.597656 "/>
<path style=" stroke:none;fill-rule:nonzero;fill:rgb(15.294118%,28.627451%,27.058824%);fill-opacity:1;" d="M 507.449219 447.582031 C 507.449219 451.050781 502.25 451.050781 502.25 447.582031 C 502.25 444.117188 507.449219 444.117188 507.449219 447.582031 "/>
<path style=" stroke:none;fill-rule:nonzero;fill:rgb(15.294118%,28.627451%,27.058824%);fill-opacity:1;" d="M 194.710938 232.519531 C 194.710938 236.238281 189.136719 236.238281 189.136719 232.519531 C 189.136719 228.804688 194.710938 228.804688 194.710938 232.519531 "/>
<path style=" stroke:none;fill-rule:nonzero;fill:rgb(15.294118%,28.627451%,27.058824%);fill-opacity:1;" d="M 124.023438 394.425781 C 124.023438 399 117.160156 399 117.160156 394.425781 C 117.160156 389.851562 124.023438 389.851562 124.023438 394.425781 "/>
<path style=" stroke:none;fill-rule:nonzero;fill:rgb(30.588235%,22.352941%,47.843137%);fill-opacity:1;" d="M 181.441406 307.59375 C 181.441406 313.109375 173.164062 313.109375 173.164062 307.59375 C 173.164062 302.074219 181.441406 302.074219 181.441406 307.59375 "/>
<path style=" stroke:none;fill-rule:nonzero;fill:rgb(18.039216%,73.72549%,27.058824%);fill-opacity:1;" d="M 346.445312 606.609375 C 346.445312 610.222656 341.023438 610.222656 341.023438 606.609375 C 341.023438 602.996094 346.445312 602.996094 346.445312 606.609375 "/>
<path style=" stroke:none;fill-rule:nonzero;fill:rgb(18.039216%,73.72549%,27.058824%);fill-opacity:1;" d="M 604.933594 370.855469 C 604.933594 378.011719 599.136719 383.808594 591.980469 383.808594 C 584.828125 383.808594 579.03125 378.011719 579.03125 370.855469 C 579.03125 363.703125 584.828125 357.90625 591.980469 357.90625 C 599.136719 357.90625 604.933594 363.703125 604.933594 370.855469 "/>
<path style=" stroke:none;fill-rule:nonzero;fill:rgb(18.039216%,73.72549%,27.058824%);fill-opacity:1;" d="M 542.070312 422.570312 C 542.070312 426.597656 536.03125 426.597656 536.03125 422.570312 C 536.03125 418.539062 542.070312 418.539062 542.070312 422.570312 "/>
<path style=" stroke:none;fill-rule:nonzero;fill:rgb(18.039216%,73.72549%,27.058824%);fill-opacity:1;" d="M 225.988281 461.625 C 225.988281 465.6875 219.894531 465.6875 219.894531 461.625 C 219.894531 457.566406 225.988281 457.566406 225.988281 461.625 "/>
<path style=" stroke:none;fill-rule:nonzero;fill:rgb(18.039216%,73.72549%,27.058824%);fill-opacity:1;" d="M 357.890625 344.441406 C 357.890625 348.042969 352.488281 348.042969 352.488281 344.441406 C 352.488281 340.839844 357.890625 340.839844 357.890625 344.441406 "/>
<path style=" stroke:none;fill-rule:nonzero;fill:rgb(18.039216%,73.72549%,27.058824%);fill-opacity:1;" d="M 229.660156 574.597656 L 250.382812 574.597656 L 250.382812 595.320312 L 229.660156 595.320312 Z M 229.660156 574.597656 "/>
<path style=" stroke:none;fill-rule:nonzero;fill:rgb(18.039216%,73.72549%,27.058824%);fill-opacity:1;" d="M 315.8125 278.515625 C 315.8125 282.183594 310.3125 282.183594 310.3125 278.515625 C 310.3125 274.851562 315.8125 274.851562 315.8125 278.515625 "/>
<path style=" stroke:none;fill-rule:nonzero;fill:rgb(18.039216%,73.72549%,27.058824%);fill-opacity:1;" d="M 269.773438 439.332031 C 269.773438 443.171875 266.660156 446.289062 262.820312 446.289062 C 258.976562 446.289062 255.863281 443.171875 255.863281 439.332031 C 255.863281 435.492188 258.976562 432.378906 262.820312 432.378906 C 266.660156 432.378906 269.773438 435.492188 269.773438 439.332031 "/>
<path style=" stroke:none;fill-rule:nonzero;fill:rgb(18.039216%,73.72549%,27.058824%);fill-opacity:1;" d="M 456.148438 410.699219 C 456.148438 414.210938 450.878906 414.210938 450.878906 410.699219 C 450.878906 407.183594 456.148438 407.183594 456.148438 410.699219 "/>
<path style=" stroke:none;fill-rule:nonzero;fill:rgb(18.039216%,73.72549%,27.058824%);fill-opacity:1;" d="M 391.691406 366.722656 C 391.691406 372.796875 382.582031 372.796875 382.582031 366.722656 C 382.582031 360.648438 391.691406 360.648438 391.691406 366.722656 "/>
<path style=" stroke:none;fill-rule:nonzero;fill:rgb(18.039216%,73.72549%,27.058824%);fill-opacity:1;" d="M 329.585938 539.609375 C 329.585938 543.128906 324.3125 543.128906 324.3125 539.609375 C 324.3125 536.09375 329.585938 536.09375 329.585938 539.609375 "/>
<path style=" stroke:none;fill-rule:nonzero;fill:rgb(18.039216%,73.72549%,27.058824%);fill-opacity:1;" d="M 571.375 403.851562 C 571.375 407.34375 566.136719 407.34375 566.136719 403.851562 C 566.136719 400.359375 571.375 400.359375 571.375 403.851562 "/>
<path style=" stroke:none;fill-rule:nonzero;fill:rgb(18.039216%,73.72549%,27.058824%);fill-opacity:1;" d="M 270.472656 378.460938 C 270.472656 383.222656 263.328125 383.222656 263.328125 378.460938 C 263.328125 373.699219 270.472656 373.699219 270.472656 378.460938 "/>
<path style=" stroke:none;fill-rule:nonzero;fill:rgb(18.039216%,73.72549%,27.058824%);fill-opacity:1;" d="M 423.3125 90.964844 L 444.035156 90.964844 L 444.035156 111.6875 L 423.3125 111.6875 Z M 423.3125 90.964844 "/>
<path style=" stroke:none;fill-rule:nonzero;fill:rgb(18.039216%,73.72549%,27.058824%);fill-opacity:1;" d="M 361.277344 146.527344 C 361.277344 150.261719 355.675781 150.261719 355.675781 146.527344 C 355.675781 142.792969 361.277344 142.792969 361.277344 146.527344 "/>
<path style=" stroke:none;fill-rule:nonzero;fill:rgb(18.039216%,73.72549%,27.058824%);fill-opacity:1;" d="M 589.339844 502.390625 C 589.339844 506.152344 583.699219 506.152344 583.699219 502.390625 C 583.699219 498.628906 589.339844 498.628906 589.339844 502.390625 "/>
<path style=" stroke:none;fill-rule:nonzero;fill:rgb(18.039216%,73.72549%,27.058824%);fill-opacity:1;" d="M 346.261719 399.5 L 366.984375 399.5 L 366.984375 420.222656 L 346.261719 420.222656 Z M 346.261719 399.5 "/>
<path style=" stroke:none;fill-rule:nonzero;fill:rgb(18.039216%,73.72549%,27.058824%);fill-opacity:1;" d="M 539.015625 526.765625 C 539.015625 532.824219 529.925781 532.824219 529.925781 526.765625 C 529.925781 520.703125 539.015625 520.703125 539.015625 526.765625 "/>
<path style=" stroke:none;fill-rule:nonzero;fill:rgb(18.039216%,73.72549%,27.058824%);fill-opacity:1;" d="M 477.953125 174.464844 L 498.675781 174.464844 L 498.675781 195.1875 L 477.953125 195.1875 Z M 477.953125 174.464844 "/>
<path style=" stroke:none;fill-rule:nonzero;fill:rgb(18.039216%,73.72549%,27.058824%);fill-opacity:1;" d="M 202.265625 395.054688 C 202.265625 398.5625 197.003906 398.5625 197.003906 395.054688 C 197.003906 391.550781 202.265625 391.550781 202.265625 395.054688 "/>
<path style=" stroke:none;fill-rule:nonzero;fill:rgb(18.039216%,73.72549%,27.058824%);fill-opacity:1;" d="M 118.152344 331.613281 C 118.152344 335.34375 112.554688 335.34375 112.554688 331.613281 C 112.554688 327.882812 118.152344 327.882812 118.152344 331.613281 "/>
<path style=" stroke:none;fill-rule:nonzero;fill:rgb(18.039216%,73.72549%,27.058824%);fill-opacity:1;" d="M 309.113281 106.824219 C 309.113281 111.949219 301.429688 111.949219 301.429688 106.824219 C 301.429688 101.703125 309.113281 101.703125 309.113281 106.824219 "/>
<path style=" stroke:none;fill-rule:nonzero;fill:rgb(18.039216%,73.72549%,27.058824%);fill-opacity:1;" d="M 545.402344 462.816406 C 545.402344 466.050781 542.78125 468.675781 539.542969 468.675781 C 536.304688 468.675781 533.683594 466.050781 533.683594 462.816406 C 533.683594 459.578125 536.304688 456.953125 539.542969 456.953125 C 542.78125 456.953125 545.402344 459.578125 545.402344 462.816406 "/>
<path style=" stroke:none;fill-rule:nonzero;fill:rgb(18.039216%,73.72549%,27.058824%);fill-opacity:1;" d="M 620.855469 420.40625 C 620.855469 423.546875 618.308594 426.089844 615.171875 426.089844 C 612.03125 426.089844 609.488281 423.546875 609.488281 420.40625 C 609.488281 417.269531 612.03125 414.722656 615.171875 414.722656 C 618.308594 414.722656 620.855469 417.269531 620.855469 420.40625 "/>
<path style=" stroke:none;fill-rule:nonzero;fill:rgb(18.039216%,73.72549%,27.058824%);fill-opacity:1;" d="M 142.804688 478.644531 C 142.804688 482.328125 137.28125 482.328125 137.28125 478.644531 C 137.28125 474.964844 142.804688 474.964844 142.804688 478.644531 "/>
<path style=" stroke:none;fill-rule:nonzero;fill:rgb(18.039216%,73.72549%,27.058824%);fill-opacity:1;" d="M 131.640625 257.898438 C 131.640625 261.8125 125.765625 261.8125 125.765625 257.898438 C 125.765625 253.980469 131.640625 253.980469 131.640625 257.898438 "/>
<path style=" stroke:none;fill-rule:nonzero;fill:rgb(18.039216%,73.72549%,27.058824%);fill-opacity:1;" d="M 171.066406 376.984375 C 171.066406 380.484375 165.816406 380.484375 165.816406 376.984375 C 165.816406 373.484375 171.066406 373.484375 171.066406 376.984375 "/>
<path style=" stroke:none;fill-rule:nonzero;fill:rgb(18.039216%,73.72549%,27.058824%);fill-opacity:1;" d="M 317.878906 495.609375 C 317.878906 500.191406 311.003906 500.191406 311.003906 495.609375 C 311.003906 491.027344 317.878906 491.027344 317.878906 495.609375 "/>
<path style=" stroke:none;fill-rule:nonzero;fill:rgb(18.039216%,73.72549%,27.058824%);fill-opacity:1;" d="M 174.253906 195.730469 C 174.253906 199.035156 171.574219 201.714844 168.269531 201.714844 C 164.964844 201.714844 162.285156 199.035156 162.285156 195.730469 C 162.285156 192.425781 164.964844 189.746094 168.269531 189.746094 C 171.574219 189.746094 174.253906 192.425781 174.253906 195.730469 "/>
<path style=" stroke:none;fill-rule:nonzero;fill:rgb(18.039216%,73.72549%,27.058824%);fill-opacity:1;" d="M 430.402344 554.882812 C 430.402344 560.929688 421.332031 560.929688 421.332031 554.882812 C 421.332031 548.835938 430.402344 548.835938 430.402344 554.882812 "/>
<path style=" stroke:none;fill-rule:nonzero;fill:rgb(18.039216%,73.72549%,27.058824%);fill-opacity:1;" d="M 415.894531 611.847656 C 415.894531 616.652344 408.6875 616.652344 408.6875 611.847656 C 408.6875 607.042969 415.894531 607.042969 415.894531 611.847656 "/>
<path style=" stroke:none;fill-rule:nonzero;fill:rgb(18.039216%,73.72549%,27.058824%);fill-opacity:1;" d="M 427.199219 181.519531 C 427.199219 185.910156 420.613281 185.910156 420.613281 181.519531 C 420.613281 177.128906 427.199219 177.128906 427.199219 181.519531 "/>
<path style=" stroke:none;fill-rule:nonzero;fill:rgb(18.039216%,73.72549%,27.058824%);fill-opacity:1;" d="M 415.859375 327.300781 C 415.859375 331.167969 410.054688 331.167969 410.054688 327.300781 C 410.054688 323.429688 415.859375 323.429688 415.859375 327.300781 "/>
<path style=" stroke:none;fill-rule:nonzero;fill:rgb(18.039216%,73.72549%,27.058824%);fill-opacity:1;" d="M 507.691406 582.183594 C 507.691406 585.71875 502.386719 585.71875 502.386719 582.183594 C 502.386719 578.644531 507.691406 578.644531 507.691406 582.183594 "/>
<path style=" stroke:none;fill-rule:nonzero;fill:rgb(18.039216%,73.72549%,27.058824%);fill-opacity:1;" d="M 444.894531 481.3125 C 444.894531 484.9375 439.453125 484.9375 439.453125 481.3125 C 439.453125 477.6875 444.894531 477.6875 444.894531 481.3125 "/>
<path style=" stroke:none;fill-rule:nonzero;fill:rgb(18.039216%,73.72549%,27.058824%);fill-opacity:1;" d="M 384.316406 473.457031 L 405.039062 473.457031 L 405.039062 494.179688 L 384.316406 494.179688 Z M 384.316406 473.457031 "/>
<path style=" stroke:none;fill-rule:nonzero;fill:rgb(18.039216%,73.72549%,27.058824%);fill-opacity:1;" d="M 174.5 505.316406 C 174.5 511.445312 165.300781 511.445312 165.300781 505.316406 C 165.300781 499.183594 174.5 499.183594 174.5 505.316406 "/>
<path style=" stroke:none;fill-rule:nonzero;fill:rgb(18.039216%,73.72549%,27.058824%);fill-opacity:1;" d="M 243.074219 134.785156 L 263.796875 134.785156 L 263.796875 155.507812 L 243.074219 155.507812 Z M 243.074219 134.785156 "/>
<path style=" stroke:none;fill-rule:nonzero;fill:rgb(18.039216%,73.72549%,27.058824%);fill-opacity:1;" d="M 188.207031 333.632812 L 208.929688 333.632812 L 208.929688 354.355469 L 188.207031 354.355469 Z M 188.207031 333.632812 "/>
<path style=" stroke:none;fill-rule:nonzero;fill:rgb(18.039216%,73.72549%,27.058824%);fill-opacity:1;" d="M 551.992188 372.703125 C 551.992188 379.382812 541.976562 379.382812 541.976562 372.703125 C 541.976562 366.023438 551.992188 366.023438 551.992188 372.703125 "/>
<path style=" stroke:none;fill-rule:nonzero;fill:rgb(18.039216%,73.72549%,27.058824%);fill-opacity:1;" d="M 356.394531 301.757812 C 356.394531 305.332031 351.03125 305.332031 351.03125 301.757812 C 351.03125 298.183594 356.394531 298.183594 356.394531 301.757812 "/>
<path style=" stroke:none;fill-rule:nonzero;fill:rgb(18.039216%,73.72549%,27.058824%);fill-opacity:1;" d="M 237.734375 550.871094 C 237.734375 554.0625 235.148438 556.648438 231.957031 556.648438 C 228.765625 556.648438 226.179688 554.0625 226.179688 550.871094 C 226.179688 547.679688 228.765625 545.09375 231.957031 545.09375 C 235.148438 545.09375 237.734375 547.679688 237.734375 550.871094 "/>
<path style=" stroke:none;fill-rule:nonzero;fill:rgb(18.039216%,73.72549%,27.058824%);fill-opacity:1;" d="M 473.855469 116.308594 C 473.855469 120.195312 468.03125 120.195312 468.03125 116.308594 C 468.03125 112.425781 473.855469 112.425781 473.855469 116.308594 "/>
<path style=" stroke:none;fill-rule:nonzero;fill:rgb(18.039216%,73.72549%,27.058824%);fill-opacity:1;" d="M 269.695312 115 C 269.695312 119.097656 263.546875 119.097656 263.546875 115 C 263.546875 110.90625 269.695312 110.90625 269.695312 115 "/>
<path style=" stroke:none;fill-rule:nonzero;fill:rgb(18.039216%,73.72549%,27.058824%);fill-opacity:1;" d="M 525.945312 141.292969 C 525.945312 144.769531 520.730469 144.769531 520.730469 141.292969 C 520.730469 137.816406 525.945312 137.816406 525.945312 141.292969 "/>
<path style=" stroke:none;fill-rule:nonzero;fill:rgb(18.039216%,73.72549%,27.058824%);fill-opacity:1;" d="M 463.585938 324.382812 C 463.585938 327.480469 461.074219 329.988281 457.980469 329.988281 C 454.882812 329.988281 452.371094 327.480469 452.371094 324.382812 C 452.371094 321.285156 454.882812 318.777344 457.980469 318.777344 C 461.074219 318.777344 463.585938 321.285156 463.585938 324.382812 "/>
<path style=" stroke:none;fill-rule:nonzero;fill:rgb(34.509804%,73.72549%,18.039216%);fill-opacity:1;" d="M 215.765625 236.46875 L 236.488281 236.46875 L 236.488281 257.191406 L 215.765625 257.191406 Z M 215.765625 236.46875 "/>
<path style=" stroke:none;fill-rule:nonzero;fill:rgb(73.72549%,18.039216%,63.137255%);fill-opacity:1;" d="M 480.535156 552.871094 C 480.535156 556.613281 474.917969 556.613281 474.917969 552.871094 C 474.917969 549.125 480.535156 549.125 480.535156 552.871094 "/>
<path style=" stroke:none;fill-rule:nonzero;fill:rgb(41.568627%,32.156863%,77.647059%);fill-opacity:1;" d="M 516.21875 358.460938 C 516.21875 362.035156 510.855469 362.035156 510.855469 358.460938 C 510.855469 354.886719 516.21875 354.886719 516.21875 358.460938 "/>
<path style=" stroke:none;fill-rule:nonzero;fill:rgb(41.568627%,32.156863%,77.647059%);fill-opacity:1;" d="M 463.386719 602.222656 C 463.386719 608 454.71875 608 454.71875 602.222656 C 454.71875 596.445312 463.386719 596.445312 463.386719 602.222656 "/>
<path style=" stroke:none;fill-rule:nonzero;fill:rgb(41.568627%,32.156863%,77.647059%);fill-opacity:1;" d="M 466.230469 157.054688 C 466.230469 162.082031 458.691406 162.082031 458.691406 157.054688 C 458.691406 152.027344 466.230469 152.027344 466.230469 157.054688 "/>
<path style=" stroke:none;fill-rule:nonzero;fill:rgb(41.568627%,32.156863%,77.647059%);fill-opacity:1;" d="M 212.164062 299.035156 L 232.886719 299.035156 L 232.886719 319.757812 L 212.164062 319.757812 Z M 212.164062 299.035156 "/>
<path style=" stroke:none;fill-rule:nonzero;fill:rgb(41.568627%,32.156863%,77.647059%);fill-opacity:1;" d="M 576.4375 465.378906 C 576.4375 469.113281 570.832031 469.113281 570.832031 465.378906 C 570.832031 461.640625 576.4375 461.640625 576.4375 465.378906 "/>
<path style=" stroke:none;fill-rule:nonzero;fill:rgb(41.568627%,32.156863%,77.647059%);fill-opacity:1;" d="M 283.574219 236.585938 L 304.296875 236.585938 L 304.296875 257.308594 L 283.574219 257.308594 Z M 283.574219 236.585938 "/>
<path style=" stroke:none;fill-rule:nonzero;fill:rgb(67.843137%,55.294118%,55.294118%);fill-opacity:1;" d="M 554.769531 212.308594 C 554.769531 215.917969 549.359375 215.917969 549.359375 212.308594 C 549.359375 208.703125 554.769531 208.703125 554.769531 212.308594 "/>
<path style=" stroke:none;fill-rule:nonzero;fill:rgb(67.843137%,55.294118%,55.294118%);fill-opacity:1;" d="M 361.128906 256.292969 C 361.128906 263.25 350.695312 263.25 350.695312 256.292969 C 350.695312 249.339844 361.128906 249.339844 361.128906 256.292969 "/>
<path style=" stroke:none;fill-rule:nonzero;fill:rgb(67.843137%,55.294118%,55.294118%);fill-opacity:1;" d="M 304.894531 320.621094 C 304.894531 324.265625 299.429688 324.265625 299.429688 320.621094 C 299.429688 316.980469 304.894531 316.980469 304.894531 320.621094 "/>
<path style=" stroke:none;fill-rule:nonzero;fill:rgb(81.176471%,90.588235%,12.156863%);fill-opacity:1;" d="M 362.355469 189 C 362.355469 192.574219 356.996094 192.574219 356.996094 189 C 356.996094 185.425781 362.355469 185.425781 362.355469 189 "/>
</g>
</svg>
