<?xml version="1.0" encoding="UTF-8"?>
<svg xmlns="http://www.w3.org/2000/svg" xmlns:xlink="http://www.w3.org/1999/xlink" width="720pt" height="720pt" viewBox="0 0 720 720" version="1.1">
<g id="surface2974">
<path style=" stroke:none;fill-rule:nonzero;fill:rgb(95.686275%,95.686275%,95.686275%);fill-opacity:1;" d="M 255.652344 314.105469 L 252.351562 314.519531 L 248.898438 314.644531 L 245.351562 314.492188 L 241.761719 314.09375 L 238.183594 313.492188 L 234.65625 312.742188 L 231.1875 311.898438 L 227.742188 311.023438 L 224.265625 310.125 L 220.734375 309.179688 L 217.175781 308.171875 L 213.632812 307.105469 L 210.15625 305.984375 L 206.808594 304.816406 L 204.394531 303.914062 L 200.753906 302.4375 L 197.453125 300.945312 L 194.519531 299.46875 L 191.957031 298.039062 L 189.71875 296.660156 L 187.691406 295.332031 L 185.691406 294 L 183.625 292.589844 L 181.453125 291.058594 L 179.195312 289.402344 L 176.878906 287.628906 L 174.554688 285.765625 L 174.253906 285.519531 L 171.792969 283.445312 L 169.402344 281.335938 L 167.128906 279.242188 L 164.996094 277.203125 L 163.003906 275.242188 L 161.085938 273.324219 L 159.226562 271.371094 L 157.542969 269.308594 L 156.164062 267.121094 L 155.210938 264.839844 L 154.761719 262.503906 L 154.734375 261.753906 L 155.003906 259.433594 L 155.789062 257.148438 L 157.015625 254.949219 L 158.59375 252.863281 L 160.386719 250.894531 L 162.269531 248.996094 L 164.214844 247.074219 L 166.3125 245.070312 L 168.613281 242.984375 L 171.109375 240.839844 L 173.765625 238.6875 L 174.964844 237.757812 L 177.542969 235.835938 L 180.171875 233.976562 L 182.800781 232.207031 L 185.382812 230.550781 L 187.882812 229.003906 L 190.308594 227.542969 L 192.722656 226.121094 L 195.261719 224.820312 L 198.027344 223.78125 L 201.0625 223.132812 L 204.355469 222.972656 L 207.867188 223.363281 L 209.621094 223.753906 L 212.628906 224.710938 L 215.714844 226.023438 L 218.839844 227.660156 L 221.957031 229.570312 L 225.035156 231.695312 L 228.042969 233.972656 L 230.984375 236.339844 L 233.882812 238.738281 L 236.792969 241.15625 L 239.753906 243.628906 L 242.769531 246.164062 L 245.824219 248.757812 L 248.882812 251.378906 L 251.902344 254 L 254.839844 256.585938 L 256.363281 257.9375 L 259.644531 260.898438 L 262.714844 263.71875 L 265.539062 266.367188 L 268.097656 268.820312 L 270.402344 271.074219 L 272.519531 273.175781 L 274.550781 275.210938 L 276.527344 277.292969 L 278.34375 279.480469 L 279.886719 281.78125 L 281.0625 284.179688 L 281.792969 286.648438 L 282.035156 289.050781 L 281.789062 291.480469 L 281.078125 293.882812 L 279.945312 296.222656 L 278.457031 298.46875 L 276.707031 300.605469 L 274.796875 302.644531 L 272.820312 304.628906 L 270.773438 306.589844 L 268.535156 308.472656 L 266.027344 310.214844 L 263.222656 311.738281 L 260.121094 312.980469 L 256.753906 313.894531 Z M 255.652344 314.105469 "/>
<path style=" stroke:none;fill-rule:nonzero;fill:rgb(95.686275%,95.686275%,95.686275%);fill-opacity:1;" d="M 336.640625 564.277344 L 333.722656 563.585938 L 330.617188 562.570312 L 327.359375 561.253906 L 324.007812 559.683594 L 320.605469 557.902344 L 317.203125 555.96875 L 313.828125 553.941406 L 310.476562 551.871094 L 307.121094 549.789062 L 303.726562 547.65625 L 300.28125 545.460938 L 296.8125 543.199219 L 293.351562 540.890625 L 289.949219 538.554688 L 286.65625 536.21875 L 283.703125 534.054688 L 280.078125 531.28125 L 276.742188 528.605469 L 273.738281 526.0625 L 271.066406 523.675781 L 268.707031 521.457031 L 266.578125 519.367188 L 264.550781 517.335938 L 262.578125 515.265625 L 260.765625 513.089844 L 259.214844 510.800781 L 258.027344 508.410156 L 257.28125 505.953125 L 257.023438 503.46875 L 257.023438 503.449219 L 257.257812 501.070312 L 257.941406 498.714844 L 259.03125 496.417969 L 260.464844 494.210938 L 262.160156 492.109375 L 264.023438 490.101562 L 265.953125 488.15625 L 267.949219 486.222656 L 270.148438 484.316406 L 272.660156 482.484375 L 275.53125 480.78125 L 278.78125 479.257812 L 282.382812 477.964844 L 284.660156 477.324219 L 288.167969 476.554688 L 291.867188 475.988281 L 295.71875 475.613281 L 299.65625 475.421875 L 303.621094 475.390625 L 307.574219 475.492188 L 311.480469 475.6875 L 315.351562 475.933594 L 319.222656 476.191406 L 323.125 476.496094 L 327.050781 476.875 L 330.960938 477.351562 L 334.804688 477.941406 L 338.515625 478.648438 L 342.042969 479.472656 L 344.835938 480.261719 L 348.515625 481.53125 L 351.785156 482.945312 L 354.625 484.472656 L 357.035156 486.074219 L 359.066406 487.703125 L 360.820312 489.339844 L 362.457031 490.972656 L 364.066406 492.675781 L 365.613281 494.546875 L 367.03125 496.644531 L 368.265625 498.996094 L 369.261719 501.585938 L 369.984375 504.390625 L 370.03125 504.644531 L 370.429688 507.617188 L 370.542969 510.734375 L 370.390625 513.933594 L 370.007812 517.152344 L 369.449219 520.335938 L 368.769531 523.460938 L 368.042969 526.550781 L 367.285156 529.660156 L 366.453125 532.820312 L 365.511719 536.015625 L 364.453125 539.1875 L 363.277344 542.277344 L 361.992188 545.21875 L 361.660156 545.917969 L 360.160156 548.800781 L 358.574219 551.429688 L 356.941406 553.773438 L 355.296875 555.832031 L 353.675781 557.636719 L 352.082031 559.265625 L 350.476562 560.835938 L 348.703125 562.289062 L 346.621094 563.492188 L 344.144531 564.3125 L 341.253906 564.664062 L 337.960938 564.484375 Z M 336.640625 564.277344 "/>
<path style=" stroke:none;fill-rule:nonzero;fill:rgb(95.686275%,95.686275%,95.686275%);fill-opacity:1;" d="M 431.488281 624.691406 L 429.210938 623.679688 L 426.96875 622.320312 L 424.816406 620.691406 L 422.785156 618.894531 L 420.863281 617.019531 L 418.988281 615.121094 L 417.242188 613.128906 L 415.777344 611.003906 L 414.742188 608.765625 L 414.242188 606.460938 L 414.203125 605.640625 L 414.488281 603.378906 L 415.308594 601.15625 L 416.585938 599.027344 L 418.195312 597.027344 L 419.992188 595.136719 L 421.84375 593.285156 L 423.773438 591.417969 L 425.816406 589.539062 L 427.96875 587.707031 L 430.183594 585.980469 L 431.488281 585.042969 L 433.910156 583.460938 L 436.265625 582.113281 L 438.496094 581.015625 L 440.566406 580.136719 L 442.527344 579.378906 L 444.515625 578.683594 L 446.648438 578.191406 L 448.941406 578.042969 L 451.359375 578.320312 L 453.003906 578.769531 L 455.292969 579.734375 L 457.558594 581.070312 L 459.75 582.699219 L 461.824219 584.515625 L 463.792969 586.425781 L 465.714844 588.367188 L 467.523438 590.390625 L 469.058594 592.546875 L 470.183594 594.824219 L 470.78125 597.171875 L 470.859375 598.390625 L 470.574219 600.707031 L 469.746094 602.980469 L 468.453125 605.164062 L 466.820312 607.21875 L 464.992188 609.15625 L 463.097656 611.050781 L 461.140625 612.953125 L 459.070312 614.851562 L 456.898438 616.691406 L 454.667969 618.40625 L 453.003906 619.5625 L 450.523438 621.089844 L 448.125 622.339844 L 445.867188 623.308594 L 443.78125 624.042969 L 441.808594 624.648438 L 439.804688 625.1875 L 437.660156 625.527344 L 435.363281 625.539062 L 432.957031 625.144531 Z M 431.488281 624.691406 "/>
<path style=" stroke:none;fill-rule:nonzero;fill:rgb(95.686275%,95.686275%,95.686275%);fill-opacity:1;" d="M 346.0625 148.15625 L 343.796875 147.871094 L 341.570312 147.046875 L 339.441406 145.769531 L 337.4375 144.15625 L 335.546875 142.355469 L 333.695312 140.5 L 331.832031 138.5625 L 329.988281 136.484375 L 328.214844 134.28125 L 326.582031 131.992188 L 325.738281 130.671875 L 324.476562 128.433594 L 323.421875 126.222656 L 322.578125 124.082031 L 321.929688 122.054688 L 321.421875 120.136719 L 320.976562 118.265625 L 320.613281 116.324219 L 320.464844 114.222656 L 320.636719 111.9375 L 321.199219 109.484375 L 322.175781 106.914062 L 322.1875 106.894531 L 323.460938 104.464844 L 325.058594 102.003906 L 326.917969 99.566406 L 328.964844 97.195312 L 331.117188 94.910156 L 333.3125 92.699219 L 335.527344 90.523438 L 337.839844 88.480469 L 340.289062 86.707031 L 342.859375 85.335938 L 345.515625 84.46875 L 348.203125 84.171875 L 350.910156 84.472656 L 353.582031 85.351562 L 356.164062 86.738281 L 358.621094 88.527344 L 360.941406 90.585938 L 363.167969 92.773438 L 365.367188 94.996094 L 367.507812 97.296875 L 369.507812 99.683594 L 371.277344 102.136719 L 372.734375 104.605469 L 373.761719 106.894531 L 374.546875 109.675781 L 374.792969 112.3125 L 374.558594 114.75 L 373.953125 116.972656 L 373.136719 119.035156 L 372.261719 121.070312 L 371.269531 123.210938 L 370.089844 125.488281 L 368.699219 127.863281 L 367.109375 130.289062 L 366.839844 130.671875 L 365.136719 132.972656 L 363.3125 135.214844 L 361.429688 137.355469 L 359.546875 139.363281 L 357.691406 141.246094 L 355.847656 143.074219 L 353.929688 144.808594 L 351.886719 146.300781 L 349.730469 147.414062 L 347.5 148.042969 Z M 346.0625 148.15625 "/>
<path style=" stroke:none;fill-rule:nonzero;fill:rgb(95.686275%,95.686275%,95.686275%);fill-opacity:1;" d="M 590.199219 513.621094 L 587.894531 513.324219 L 585.636719 512.476562 L 583.476562 511.160156 L 581.449219 509.503906 L 579.535156 507.667969 L 577.660156 505.777344 L 575.820312 503.800781 L 574.09375 501.691406 L 572.570312 499.472656 L 571.332031 497.191406 L 570.941406 496.300781 L 570.144531 493.859375 L 569.738281 491.480469 L 569.6875 489.21875 L 569.90625 487.109375 L 570.265625 485.109375 L 570.691406 483.078125 L 571.320312 480.878906 L 572.265625 478.464844 L 573.574219 475.863281 L 574.785156 473.84375 L 576.382812 471.523438 L 578.191406 469.175781 L 580.160156 466.855469 L 582.214844 464.605469 L 584.304688 462.449219 L 586.390625 460.355469 L 588.507812 458.300781 L 590.726562 456.40625 L 593.082031 454.804688 L 595.550781 453.625 L 598.085938 452.953125 L 599.796875 452.824219 L 602.414062 453.128906 L 604.996094 454.019531 L 607.480469 455.410156 L 609.835938 457.195312 L 612.054688 459.226562 L 614.199219 461.355469 L 616.308594 463.523438 L 618.296875 465.785156 L 620.054688 468.132812 L 621.480469 470.53125 L 622.488281 472.925781 L 622.753906 473.84375 L 623.121094 476.421875 L 622.925781 478.871094 L 622.238281 481.140625 L 621.183594 483.21875 L 619.925781 485.148438 L 618.609375 487.050781 L 617.1875 489.054688 L 615.601562 491.191406 L 613.847656 493.445312 L 611.957031 495.765625 L 611.507812 496.300781 L 609.582031 498.523438 L 607.605469 500.714844 L 605.636719 502.816406 L 603.71875 504.796875 L 601.863281 506.667969 L 600.03125 508.484375 L 598.132812 510.214844 L 596.109375 511.707031 L 593.972656 512.832031 L 591.757812 513.484375 Z M 590.199219 513.621094 "/>
<path style=" stroke:none;fill-rule:nonzero;fill:rgb(95.686275%,95.686275%,95.686275%);fill-opacity:1;" d="M 303.71875 465.554688 L 301.351562 464.335938 L 299.050781 462.84375 L 296.859375 461.144531 L 294.816406 459.320312 L 292.898438 457.453125 L 291.03125 455.566406 L 289.277344 453.601562 L 287.785156 451.503906 L 286.699219 449.289062 L 286.125 447.003906 L 286.050781 445.851562 L 286.339844 443.5625 L 287.171875 441.316406 L 288.464844 439.164062 L 290.097656 437.140625 L 291.914062 435.230469 L 293.792969 433.363281 L 295.753906 431.503906 L 297.855469 429.695312 L 300.09375 428.015625 L 302.421875 426.53125 L 303.71875 425.824219 L 306.253906 424.683594 L 308.753906 423.863281 L 311.15625 423.339844 L 313.414062 423.0625 L 315.5625 422.921875 L 317.71875 422.835938 L 319.992188 422.90625 L 322.402344 423.238281 L 324.90625 423.894531 L 327.132812 424.765625 L 329.496094 425.996094 L 331.792969 427.492188 L 333.972656 429.191406 L 336.007812 431.007812 L 337.914062 432.867188 L 339.769531 434.746094 L 341.507812 436.703125 L 342.984375 438.792969 L 344.046875 440.996094 L 344.601562 443.269531 L 344.664062 444.328125 L 344.375 446.605469 L 343.542969 448.839844 L 342.253906 450.976562 L 340.628906 452.988281 L 338.816406 454.886719 L 336.949219 456.742188 L 334.996094 458.59375 L 332.898438 460.394531 L 330.664062 462.074219 L 328.339844 463.554688 L 327.132812 464.21875 L 324.609375 465.371094 L 322.117188 466.21875 L 319.71875 466.769531 L 317.460938 467.085938 L 315.316406 467.261719 L 313.160156 467.382812 L 310.882812 467.347656 L 308.472656 467.046875 L 305.964844 466.414062 Z M 303.71875 465.554688 "/>
<path style=" stroke:none;fill-rule:nonzero;fill:rgb(95.686275%,95.686275%,95.686275%);fill-opacity:1;" d="M 175.699219 533.410156 L 172.96875 533.101562 L 170.28125 532.210938 L 167.679688 530.804688 L 165.207031 528.992188 L 162.871094 526.910156 L 160.632812 524.703125 L 158.421875 522.460938 L 156.292969 520.152344 L 154.347656 517.765625 L 152.6875 515.339844 L 151.394531 512.917969 L 150.644531 510.921875 L 150.136719 508.265625 L 150.234375 505.78125 L 150.855469 503.515625 L 151.867188 501.476562 L 153.09375 499.605469 L 154.382812 497.75 L 155.792969 495.785156 L 157.386719 493.664062 L 159.164062 491.40625 L 161.101562 489.066406 L 161.355469 488.769531 L 163.28125 486.5625 L 165.269531 484.371094 L 167.273438 482.242188 L 169.238281 480.214844 L 171.148438 478.289062 L 173.027344 476.417969 L 174.96875 474.621094 L 177.027344 473.039062 L 179.210938 471.808594 L 181.472656 471.042969 L 183.566406 470.8125 L 185.917969 471.105469 L 188.226562 471.953125 L 190.441406 473.273438 L 192.527344 474.9375 L 194.496094 476.804688 L 196.414062 478.726562 L 198.316406 480.71875 L 200.148438 482.824219 L 201.832031 485.027344 L 203.289062 487.28125 L 204.09375 488.769531 L 205.058594 491.007812 L 205.707031 493.179688 L 206.0625 495.238281 L 206.171875 497.152344 L 206.121094 498.949219 L 206.011719 500.707031 L 205.785156 502.570312 L 205.316406 504.625 L 204.515625 506.886719 L 203.351562 509.332031 L 202.4375 510.921875 L 200.902344 513.25 L 199.113281 515.628906 L 197.132812 518.011719 L 195.019531 520.34375 L 192.851562 522.605469 L 190.667969 524.804688 L 188.464844 526.972656 L 186.167969 529.011719 L 183.742188 530.789062 L 181.191406 532.179688 L 178.554688 533.074219 L 175.875 533.410156 Z M 175.699219 533.410156 "/>
<path style=" stroke:none;fill-rule:nonzero;fill:rgb(95.686275%,95.686275%,95.686275%);fill-opacity:1;" d="M 154.882812 238.957031 L 152.503906 238.691406 L 150.15625 237.929688 L 147.882812 236.722656 L 145.71875 235.164062 L 143.675781 233.363281 L 141.714844 231.445312 L 139.789062 229.488281 L 137.976562 227.453125 L 136.394531 225.296875 L 135.15625 223.03125 L 134.355469 220.691406 L 134.050781 218.3125 L 134.046875 218.117188 L 134.3125 215.722656 L 135.089844 213.355469 L 136.3125 211.070312 L 137.890625 208.894531 L 139.707031 206.835938 L 141.644531 204.863281 L 143.621094 202.886719 L 145.710938 200.808594 L 147.96875 198.585938 L 150.398438 196.214844 L 152.96875 193.726562 L 155.628906 191.179688 L 158.183594 188.757812 L 160.761719 186.332031 L 163.328125 183.9375 L 165.832031 181.617188 L 168.25 179.390625 L 170.582031 177.253906 L 172.882812 175.152344 L 175.214844 173.097656 L 177.609375 171.175781 L 180.066406 169.484375 L 182.539062 168.109375 L 184.984375 167.121094 L 187.132812 166.609375 L 189.539062 166.484375 L 191.804688 166.847656 L 193.90625 167.652344 L 195.816406 168.820312 L 197.558594 170.246094 L 199.179688 171.808594 L 200.761719 173.417969 L 202.238281 175.128906 L 203.496094 177.015625 L 204.425781 179.097656 L 204.949219 181.371094 L 205.003906 183.804688 L 204.945312 184.417969 L 204.429688 186.871094 L 203.5 189.402344 L 202.195312 191.96875 L 200.585938 194.515625 L 198.765625 197.007812 L 196.824219 199.4375 L 194.839844 201.839844 L 192.8125 204.28125 L 190.695312 206.808594 L 188.484375 209.414062 L 186.191406 212.070312 L 183.859375 214.726562 L 181.648438 217.199219 L 179.148438 219.945312 L 176.710938 222.566406 L 174.371094 225.027344 L 172.164062 227.304688 L 170.097656 229.398438 L 168.121094 231.378906 L 166.148438 233.3125 L 164.089844 235.132812 L 161.910156 236.707031 L 159.621094 237.925781 L 157.253906 238.695312 Z M 154.882812 238.957031 "/>
<path style=" stroke:none;fill-rule:nonzero;fill:rgb(95.686275%,95.686275%,95.686275%);fill-opacity:1;" d="M 118.710938 317.304688 L 116.390625 317.011719 L 114.113281 316.164062 L 111.929688 314.851562 L 109.878906 313.195312 L 107.945312 311.347656 L 106.050781 309.445312 L 104.1875 307.460938 L 102.414062 305.339844 L 100.824219 303.097656 L 99.5 300.78125 L 98.929688 299.558594 L 98.058594 297.070312 L 97.566406 294.628906 L 97.414062 292.300781 L 97.53125 290.125 L 97.792969 288.058594 L 98.117188 285.976562 L 98.625 283.742188 L 99.433594 281.308594 L 100.59375 278.703125 L 101.925781 276.308594 L 103.472656 273.949219 L 105.242188 271.578125 L 107.179688 269.25 L 109.210938 267.007812 L 111.28125 264.863281 L 113.351562 262.785156 L 115.453125 260.753906 L 117.667969 258.886719 L 120.011719 257.316406 L 122.464844 256.175781 L 124.984375 255.550781 L 126.476562 255.449219 L 129.0625 255.753906 L 131.613281 256.632812 L 134.066406 258.015625 L 136.390625 259.777344 L 138.585938 261.785156 L 140.703125 263.890625 L 142.789062 266.039062 L 144.769531 268.28125 L 146.542969 270.625 L 148.007812 273.03125 L 149.085938 275.445312 L 149.367188 276.308594 L 149.878906 278.933594 L 149.863281 281.445312 L 149.382812 283.792969 L 148.550781 285.957031 L 147.523438 287.972656 L 146.433594 289.96875 L 145.234375 292.066406 L 143.855469 294.300781 L 142.285156 296.648438 L 140.535156 299.054688 L 140.152344 299.558594 L 138.332031 301.839844 L 136.425781 304.078125 L 134.484375 306.222656 L 132.5625 308.238281 L 130.6875 310.140625 L 128.832031 311.988281 L 126.910156 313.746094 L 124.863281 315.28125 L 122.699219 316.445312 L 120.457031 317.140625 Z M 118.710938 317.304688 "/>
<path style=" stroke:none;fill-rule:nonzero;fill:rgb(95.686275%,95.686275%,95.686275%);fill-opacity:1;" d="M 376.15625 629.476562 L 373.882812 629.191406 L 371.652344 628.378906 L 369.511719 627.105469 L 367.496094 625.5 L 365.597656 623.703125 L 363.738281 621.847656 L 361.839844 619.9375 L 359.886719 617.945312 L 357.902344 615.894531 L 355.945312 613.835938 L 354.617188 612.414062 L 352.585938 610.1875 L 350.722656 608.09375 L 349.070312 606.183594 L 347.613281 604.457031 L 346.273438 602.839844 L 345.011719 601.175781 L 343.992188 599.351562 L 343.378906 597.339844 L 343.292969 595.175781 L 343.4375 594.195312 L 344.035156 592.261719 L 345.023438 590.304688 L 346.339844 588.367188 L 347.898438 586.492188 L 349.601562 584.695312 L 351.351562 582.9375 L 353.152344 581.238281 L 355.054688 579.714844 L 357.070312 578.488281 L 359.175781 577.664062 L 361.320312 577.316406 L 361.714844 577.308594 L 363.972656 577.589844 L 366.1875 578.402344 L 368.308594 579.667969 L 370.308594 581.265625 L 372.195312 583.054688 L 374.039062 584.898438 L 375.929688 586.800781 L 377.882812 588.78125 L 379.867188 590.824219 L 381.832031 592.875 L 383.078125 594.195312 L 385.125 596.398438 L 387.011719 598.476562 L 388.699219 600.378906 L 390.195312 602.097656 L 391.582031 603.707031 L 392.886719 605.363281 L 393.957031 607.175781 L 394.617188 609.179688 L 394.75 611.339844 L 394.609375 612.414062 L 394.023438 614.351562 L 393.039062 616.320312 L 391.722656 618.265625 L 390.160156 620.152344 L 388.449219 621.964844 L 386.6875 623.730469 L 384.875 625.445312 L 382.964844 626.988281 L 380.9375 628.238281 L 378.820312 629.085938 L 376.660156 629.460938 Z M 376.15625 629.476562 "/>
<path style=" stroke:none;fill-rule:nonzero;fill:rgb(95.686275%,95.686275%,95.686275%);fill-opacity:1;" d="M 546.027344 561.519531 L 543.863281 561.703125 L 541.851562 561.316406 L 540.039062 560.457031 L 538.417969 559.273438 L 536.898438 557.957031 L 535.3125 556.554688 L 533.527344 554.945312 L 531.5 553.078125 L 529.261719 550.976562 L 528.550781 550.304688 L 526.53125 548.363281 L 524.445312 546.335938 L 522.34375 544.273438 L 520.28125 542.230469 L 518.277344 540.234375 L 516.316406 538.269531 L 514.414062 536.257812 L 512.707031 534.128906 L 511.335938 531.875 L 510.410156 529.523438 L 510.019531 527.121094 L 510.007812 526.667969 L 510.269531 524.371094 L 511.027344 522.109375 L 512.222656 519.925781 L 513.753906 517.851562 L 515.515625 515.890625 L 517.375 514.007812 L 519.269531 512.164062 L 521.261719 510.457031 L 523.371094 509.007812 L 525.582031 507.929688 L 527.855469 507.304688 L 529.507812 507.167969 L 531.914062 507.453125 L 534.28125 508.285156 L 536.554688 509.582031 L 538.710938 511.238281 L 540.742188 513.113281 L 542.707031 515.070312 L 544.691406 517.0625 L 546.722656 519.121094 L 548.773438 521.230469 L 550.792969 523.34375 L 552.726562 525.410156 L 553.070312 525.785156 L 555.183594 528.113281 L 557.0625 530.253906 L 558.683594 532.167969 L 560.074219 533.863281 L 561.339844 535.441406 L 562.515625 537.070312 L 563.4375 538.871094 L 563.9375 540.867188 L 563.90625 543.023438 L 563.761719 543.785156 L 563.042969 545.878906 L 561.871094 548.003906 L 560.339844 550.097656 L 558.558594 552.121094 L 556.660156 554.0625 L 554.726562 555.972656 L 552.730469 557.785156 L 550.65625 559.375 L 548.554688 560.613281 L 546.480469 561.410156 Z M 546.027344 561.519531 "/>
<path style=" stroke:none;fill-rule:nonzero;fill:rgb(95.686275%,95.686275%,95.686275%);fill-opacity:1;" d="M 256.253906 610.371094 L 253.265625 609.882812 L 250.515625 608.953125 L 248.042969 607.636719 L 245.855469 606.035156 L 243.898438 604.265625 L 242.054688 602.429688 L 240.207031 600.546875 L 238.347656 598.550781 L 236.511719 596.429688 L 234.757812 594.21875 L 233.140625 591.953125 L 232.855469 591.523438 L 231.304688 589.003906 L 230 586.527344 L 228.941406 584.160156 L 228.097656 581.941406 L 227.398438 579.839844 L 226.753906 577.742188 L 226.265625 575.523438 L 226.074219 573.148438 L 226.269531 570.640625 L 226.910156 568.066406 L 226.980469 567.863281 L 227.964844 565.550781 L 229.285156 563.269531 L 230.871094 561.0625 L 232.648438 558.964844 L 234.523438 556.984375 L 236.4375 555.066406 L 238.394531 553.148438 L 240.460938 551.230469 L 242.648438 549.359375 L 244.9375 547.59375 L 247.277344 545.992188 L 247.976562 545.554688 L 250.578125 544.097656 L 253.125 542.917969 L 255.558594 542.019531 L 257.839844 541.355469 L 259.996094 540.847656 L 262.136719 540.382812 L 264.378906 539.976562 L 266.75 539.695312 L 269.222656 539.578125 L 271.730469 539.664062 L 272.214844 539.707031 L 274.699219 540.042969 L 277.105469 540.574219 L 279.382812 541.265625 L 281.496094 542.058594 L 283.480469 542.898438 L 285.453125 543.773438 L 287.539062 544.773438 L 289.785156 545.980469 L 292.171875 547.433594 L 294.644531 549.113281 L 295.085938 549.429688 L 297.378906 551.183594 L 299.660156 553.070312 L 301.871094 555.03125 L 303.980469 557.015625 L 305.980469 558.976562 L 307.921875 560.921875 L 309.796875 562.914062 L 311.472656 565.027344 L 312.8125 567.261719 L 313.695312 569.59375 L 314.046875 571.96875 L 314.054688 572.257812 L 313.785156 574.5625 L 313.007812 576.832031 L 311.789062 579.019531 L 310.230469 581.09375 L 308.449219 583.054688 L 306.578125 584.941406 L 304.636719 586.847656 L 302.507812 588.820312 L 300.125 590.863281 L 297.480469 592.941406 L 294.601562 595.007812 L 293.160156 595.972656 L 290.351562 597.742188 L 287.4375 599.4375 L 284.480469 601.035156 L 281.535156 602.523438 L 278.648438 603.898438 L 275.828125 605.183594 L 273.035156 606.429688 L 270.210938 607.628906 L 267.320312 608.699219 L 264.382812 609.566406 L 261.453125 610.152344 L 258.589844 610.421875 Z M 256.253906 610.371094 "/>
<path style=" stroke:none;fill-rule:nonzero;fill:rgb(95.686275%,95.686275%,95.686275%);fill-opacity:1;" d="M 150.980469 364.679688 L 147.5 363.886719 L 144.25 362.734375 L 141.257812 361.265625 L 138.542969 359.542969 L 136.097656 357.628906 L 133.871094 355.601562 L 131.773438 353.527344 L 129.714844 351.429688 L 127.761719 349.25 L 126.011719 346.960938 L 124.566406 344.5625 L 123.503906 342.082031 L 122.882812 339.546875 L 122.738281 337.574219 L 123.011719 334.894531 L 123.808594 332.242188 L 125.074219 329.664062 L 126.734375 327.191406 L 128.683594 324.839844 L 130.804688 322.597656 L 132.988281 320.410156 L 135.234375 318.191406 L 137.632812 315.898438 L 140.21875 313.535156 L 142.996094 311.125 L 145.9375 308.707031 L 149.003906 306.324219 L 149.339844 306.070312 L 152.382812 303.847656 L 155.476562 301.714844 L 158.570312 299.6875 L 161.613281 297.792969 L 164.570312 296.035156 L 167.433594 294.390625 L 170.234375 292.8125 L 173.046875 291.261719 L 175.910156 289.800781 L 178.835938 288.503906 L 181.78125 287.449219 L 184.707031 286.699219 L 187.550781 286.296875 L 189.289062 286.234375 L 192.371094 286.523438 L 195.214844 287.320312 L 197.789062 288.550781 L 200.078125 290.121094 L 202.121094 291.914062 L 204.03125 293.796875 L 205.945312 295.722656 L 207.898438 297.742188 L 209.886719 299.878906 L 211.867188 302.105469 L 213.785156 304.386719 L 214.828125 305.683594 L 216.75 308.203125 L 218.496094 310.660156 L 220.046875 313.003906 L 221.398438 315.203125 L 222.605469 317.269531 L 223.757812 319.304688 L 224.796875 321.425781 L 225.589844 323.675781 L 226.019531 326.046875 L 226.007812 328.480469 L 225.828125 329.664062 L 225.191406 331.867188 L 224.179688 334.027344 L 222.855469 336.105469 L 221.296875 338.070312 L 219.589844 339.917969 L 217.828125 341.695312 L 215.984375 343.484375 L 213.875 345.335938 L 211.367188 347.25 L 208.417969 349.199219 L 205.03125 351.136719 L 202.847656 352.257812 L 199.761719 353.703125 L 196.480469 355.097656 L 193.050781 356.425781 L 189.535156 357.675781 L 185.992188 358.847656 L 182.46875 359.9375 L 178.980469 360.972656 L 175.511719 361.984375 L 172.007812 362.953125 L 168.441406 363.816406 L 164.820312 364.507812 L 161.175781 364.96875 L 157.570312 365.160156 L 154.050781 365.050781 Z M 150.980469 364.679688 "/>
<path style="fill:none;stroke-width:0.75;stroke-linecap:round;stroke-linejoin:round;stroke:rgb(66.27451%,66.27451%,66.27451%);stroke-opacity:1;stroke-miterlimit:10;" d="M 178.5 263.882812 L 190.800781 269.648438 "/>
<path style="fill:none;stroke-width:0.75;stroke-linecap:round;stroke-linejoin:round;stroke:rgb(66.27451%,66.27451%,66.27451%);stroke-opacity:1;stroke-miterlimit:10;" d="M 334.707031 518.648438 L 346.484375 505.753906 "/>
<path style="fill:none;stroke-width:0.75;stroke-linecap:round;stroke-linejoin:round;stroke:rgb(66.27451%,66.27451%,66.27451%);stroke-opacity:1;stroke-miterlimit:10;" d="M 333.046875 526.859375 L 339.804688 545.917969 "/>
<path style="fill:none;stroke-width:0.75;stroke-linecap:round;stroke-linejoin:round;stroke:rgb(66.27451%,66.27451%,66.27451%);stroke-opacity:1;stroke-miterlimit:10;" d="M 326.773438 520.726562 L 308.070312 514.570312 "/>
<path style="fill:none;stroke-width:0.75;stroke-linecap:round;stroke-linejoin:round;stroke:rgb(66.27451%,66.27451%,66.27451%);stroke-opacity:1;stroke-miterlimit:10;" d="M 449.5 599.523438 L 434.097656 604.78125 "/>
<path style="fill:none;stroke-width:0.75;stroke-linecap:round;stroke-linejoin:round;stroke:rgb(66.27451%,66.27451%,66.27451%);stroke-opacity:1;stroke-miterlimit:10;" d="M 347.246094 117.960938 L 346.304688 128.140625 "/>
<path style="fill:none;stroke-width:0.75;stroke-linecap:round;stroke-linejoin:round;stroke:rgb(66.27451%,66.27451%,66.27451%);stroke-opacity:1;stroke-miterlimit:10;" d="M 203.652344 264.140625 L 205.402344 256.859375 "/>
<path style="fill:none;stroke-width:0.75;stroke-linecap:round;stroke-linejoin:round;stroke:rgb(66.27451%,66.27451%,66.27451%);stroke-opacity:1;stroke-miterlimit:10;" d="M 197.875 284.863281 L 192.855469 300.683594 "/>
<path style="fill:none;stroke-width:0.75;stroke-linecap:round;stroke-linejoin:round;stroke:rgb(66.27451%,66.27451%,66.27451%);stroke-opacity:1;stroke-miterlimit:10;" d="M 211.527344 276.351562 L 230.417969 279.726562 "/>
<path style="fill:none;stroke-width:0.75;stroke-linecap:round;stroke-linejoin:round;stroke:rgb(66.27451%,66.27451%,66.27451%);stroke-opacity:1;stroke-miterlimit:10;" d="M 591.257812 493.867188 L 596.542969 481.84375 "/>
<path style="fill:none;stroke-width:0.75;stroke-linecap:round;stroke-linejoin:round;stroke:rgb(66.27451%,66.27451%,66.27451%);stroke-opacity:1;stroke-miterlimit:10;" d="M 306.390625 445.667969 L 324.6875 444.496094 "/>
<path style="fill:none;stroke-width:0.75;stroke-linecap:round;stroke-linejoin:round;stroke:rgb(66.27451%,66.27451%,66.27451%);stroke-opacity:1;stroke-miterlimit:10;" d="M 182.265625 492.460938 L 179.585938 499.621094 "/>
<path style="fill:none;stroke-width:0.75;stroke-linecap:round;stroke-linejoin:round;stroke:rgb(66.27451%,66.27451%,66.27451%);stroke-opacity:1;stroke-miterlimit:10;" d="M 174.753906 197.226562 L 186.546875 184.914062 "/>
<path style="fill:none;stroke-width:0.75;stroke-linecap:round;stroke-linejoin:round;stroke:rgb(66.27451%,66.27451%,66.27451%);stroke-opacity:1;stroke-miterlimit:10;" d="M 169.1875 203.066406 L 159.753906 212.996094 "/>
<path style="fill:none;stroke-width:0.75;stroke-linecap:round;stroke-linejoin:round;stroke:rgb(66.27451%,66.27451%,66.27451%);stroke-opacity:1;stroke-miterlimit:10;" d="M 119.710938 296.65625 L 124.003906 284.035156 "/>
<path style="fill:none;stroke-width:0.75;stroke-linecap:round;stroke-linejoin:round;stroke:rgb(66.27451%,66.27451%,66.27451%);stroke-opacity:1;stroke-miterlimit:10;" d="M 290.8125 507.746094 L 300.523438 511.769531 "/>
<path style="fill:none;stroke-width:0.75;stroke-linecap:round;stroke-linejoin:round;stroke:rgb(66.27451%,66.27451%,66.27451%);stroke-opacity:1;stroke-miterlimit:10;" d="M 363.476562 596.820312 L 374.230469 609.566406 "/>
<path style="fill:none;stroke-width:0.75;stroke-linecap:round;stroke-linejoin:round;stroke:rgb(66.27451%,66.27451%,66.27451%);stroke-opacity:1;stroke-miterlimit:10;" d="M 533.226562 530.542969 L 543.425781 541.175781 "/>
<path style="fill:none;stroke-width:0.75;stroke-linecap:round;stroke-linejoin:round;stroke:rgb(66.27451%,66.27451%,66.27451%);stroke-opacity:1;stroke-miterlimit:10;" d="M 269.890625 560.972656 L 252.730469 566.433594 "/>
<path style="fill:none;stroke-width:0.75;stroke-linecap:round;stroke-linejoin:round;stroke:rgb(66.27451%,66.27451%,66.27451%);stroke-opacity:1;stroke-miterlimit:10;" d="M 274.769531 561.425781 L 290.515625 569.90625 "/>
<path style="fill:none;stroke-width:0.75;stroke-linecap:round;stroke-linejoin:round;stroke:rgb(66.27451%,66.27451%,66.27451%);stroke-opacity:1;stroke-miterlimit:10;" d="M 194.117188 310.257812 L 204.601562 326.613281 "/>
<path style="fill:none;stroke-width:0.75;stroke-linecap:round;stroke-linejoin:round;stroke:rgb(66.27451%,66.27451%,66.27451%);stroke-opacity:1;stroke-miterlimit:10;" d="M 186.480469 308.175781 L 167.800781 317.632812 "/>
<path style="fill:none;stroke-width:0.75;stroke-linecap:round;stroke-linejoin:round;stroke:rgb(66.27451%,66.27451%,66.27451%);stroke-opacity:1;stroke-miterlimit:10;" d="M 163.707031 320.726562 L 156.972656 328.046875 "/>
<path style="fill:none;stroke-width:0.75;stroke-linecap:round;stroke-linejoin:round;stroke:rgb(66.27451%,66.27451%,66.27451%);stroke-opacity:1;stroke-miterlimit:10;" d="M 249.285156 572.761719 L 253.414062 587.910156 "/>
<path style="fill:none;stroke-width:0.75;stroke-linecap:round;stroke-linejoin:round;stroke:rgb(66.27451%,66.27451%,66.27451%);stroke-opacity:1;stroke-miterlimit:10;" d="M 237.371094 281.5625 L 248.242188 285.398438 "/>
<path style=" stroke:none;fill-rule:nonzero;fill:rgb(3.137255%,81.960784%,81.960784%);fill-opacity:1;" d="M 426.675781 524.4375 L 447.398438 524.4375 L 447.398438 545.160156 L 426.675781 545.160156 Z M 426.675781 524.4375 "/>
<path style=" stroke:none;fill-rule:nonzero;fill:rgb(3.137255%,81.960784%,81.960784%);fill-opacity:1;" d="M 350.707031 256.992188 L 371.429688 256.992188 L 371.429688 277.714844 L 350.707031 277.714844 Z M 350.707031 256.992188 "/>
<path style=" stroke:none;fill-rule:nonzero;fill:rgb(3.137255%,81.960784%,81.960784%);fill-opacity:1;" d="M 233.5625 483.539062 C 233.5625 487.445312 227.699219 487.445312 227.699219 483.539062 C 227.699219 479.628906 233.5625 479.628906 233.5625 483.539062 "/>
<path style=" stroke:none;fill-rule:nonzero;fill:rgb(3.137255%,81.960784%,81.960784%);fill-opacity:1;" d="M 539.953125 213.460938 C 539.953125 217.550781 533.8125 217.550781 533.8125 213.460938 C 533.8125 209.367188 539.953125 209.367188 539.953125 213.460938 "/>
<path style=" stroke:none;fill-rule:nonzero;fill:rgb(3.137255%,81.960784%,81.960784%);fill-opacity:1;" d="M 178.976562 261.753906 C 178.976562 268.441406 168.941406 268.441406 168.941406 261.753906 C 168.941406 255.0625 178.976562 255.0625 178.976562 261.753906 "/>
<path style=" stroke:none;fill-rule:nonzero;fill:rgb(3.137255%,81.960784%,81.960784%);fill-opacity:1;" d="M 278.894531 110.476562 C 278.894531 117.445312 268.445312 117.445312 268.445312 110.476562 C 268.445312 103.511719 278.894531 103.511719 278.894531 110.476562 "/>
<path style=" stroke:none;fill-rule:nonzero;fill:rgb(3.137255%,81.960784%,81.960784%);fill-opacity:1;" d="M 336.300781 522.253906 C 336.300781 528.765625 326.53125 528.765625 326.53125 522.253906 C 326.53125 515.742188 336.300781 515.742188 336.300781 522.253906 "/>
<path style=" stroke:none;fill-rule:nonzero;fill:rgb(3.137255%,81.960784%,81.960784%);fill-opacity:1;" d="M 456.332031 598.390625 C 456.332031 603.070312 449.3125 603.070312 449.3125 598.390625 C 449.3125 593.714844 456.332031 593.714844 456.332031 598.390625 "/>
<path style=" stroke:none;fill-rule:nonzero;fill:rgb(3.137255%,81.960784%,81.960784%);fill-opacity:1;" d="M 410.394531 295.195312 C 410.394531 299.46875 403.980469 299.46875 403.980469 295.195312 C 403.980469 290.917969 410.394531 290.917969 410.394531 295.195312 "/>
<path style=" stroke:none;fill-rule:nonzero;fill:rgb(3.137255%,81.960784%,81.960784%);fill-opacity:1;" d="M 338.628906 391.121094 C 338.628906 394.792969 333.121094 394.792969 333.121094 391.121094 C 333.121094 387.449219 338.628906 387.449219 338.628906 391.121094 "/>
<path style=" stroke:none;fill-rule:nonzero;fill:rgb(3.137255%,81.960784%,81.960784%);fill-opacity:1;" d="M 382.148438 412.054688 C 382.148438 415.65625 376.746094 415.65625 376.746094 412.054688 C 376.746094 408.449219 382.148438 408.449219 382.148438 412.054688 "/>
<path style=" stroke:none;fill-rule:nonzero;fill:rgb(3.137255%,81.960784%,81.960784%);fill-opacity:1;" d="M 337.839844 97.234375 L 358.5625 97.234375 L 358.5625 117.957031 L 337.839844 117.957031 Z M 337.839844 97.234375 "/>
<path style=" stroke:none;fill-rule:nonzero;fill:rgb(3.137255%,81.960784%,81.960784%);fill-opacity:1;" d="M 236.605469 207.292969 C 236.605469 210.859375 231.253906 210.859375 231.253906 207.292969 C 231.253906 203.722656 236.605469 203.722656 236.605469 207.292969 "/>
<path style=" stroke:none;fill-rule:nonzero;fill:rgb(3.137255%,81.960784%,81.960784%);fill-opacity:1;" d="M 190.800781 264.140625 L 211.523438 264.140625 L 211.523438 284.863281 L 190.800781 284.863281 Z M 190.800781 264.140625 "/>
<path style=" stroke:none;fill-rule:nonzero;fill:rgb(3.137255%,81.960784%,81.960784%);fill-opacity:1;" d="M 201.710938 546.230469 C 201.710938 549.699219 196.507812 549.699219 196.507812 546.230469 C 196.507812 542.761719 201.710938 542.761719 201.710938 546.230469 "/>
<path style=" stroke:none;fill-rule:nonzero;fill:rgb(3.137255%,81.960784%,81.960784%);fill-opacity:1;" d="M 592.828125 496.273438 C 592.828125 499.777344 587.570312 499.777344 587.570312 496.273438 C 587.570312 492.769531 592.828125 492.769531 592.828125 496.273438 "/>
<path style=" stroke:none;fill-rule:nonzero;fill:rgb(3.137255%,81.960784%,81.960784%);fill-opacity:1;" d="M 218.125 246.832031 C 218.125 252.527344 213.507812 257.144531 207.808594 257.144531 C 202.113281 257.144531 197.496094 252.527344 197.496094 246.832031 C 197.496094 241.136719 202.113281 236.519531 207.808594 236.519531 C 213.507812 236.519531 218.125 241.136719 218.125 246.832031 "/>
<path style=" stroke:none;fill-rule:nonzero;fill:rgb(3.137255%,81.960784%,81.960784%);fill-opacity:1;" d="M 306.394531 445.851562 C 306.394531 449.632812 300.722656 449.632812 300.722656 445.851562 C 300.722656 442.070312 306.394531 442.070312 306.394531 445.851562 "/>
<path style=" stroke:none;fill-rule:nonzero;fill:rgb(3.137255%,81.960784%,81.960784%);fill-opacity:1;" d="M 187.265625 489 C 187.265625 493.929688 179.867188 493.929688 179.867188 489 C 179.867188 484.066406 187.265625 484.066406 187.265625 489 "/>
<path style=" stroke:none;fill-rule:nonzero;fill:rgb(3.137255%,81.960784%,81.960784%);fill-opacity:1;" d="M 628.503906 369.707031 C 628.503906 375.691406 619.523438 375.691406 619.523438 369.707031 C 619.523438 363.71875 628.503906 363.71875 628.503906 369.707031 "/>
<path style=" stroke:none;fill-rule:nonzero;fill:rgb(3.137255%,81.960784%,81.960784%);fill-opacity:1;" d="M 472.21875 183.890625 C 472.21875 187.539062 466.746094 187.539062 466.746094 183.890625 C 466.746094 180.242188 472.21875 180.242188 472.21875 183.890625 "/>
<path style=" stroke:none;fill-rule:nonzero;fill:rgb(3.137255%,81.960784%,81.960784%);fill-opacity:1;" d="M 510.214844 395.097656 C 510.214844 399.816406 503.136719 399.816406 503.136719 395.097656 C 503.136719 390.378906 510.214844 390.378906 510.214844 395.097656 "/>
<path style=" stroke:none;fill-rule:nonzero;fill:rgb(3.137255%,81.960784%,81.960784%);fill-opacity:1;" d="M 516.324219 176.582031 C 516.324219 180.652344 510.222656 180.652344 510.222656 176.582031 C 510.222656 172.515625 516.324219 172.515625 516.324219 176.582031 "/>
<path style=" stroke:none;fill-rule:nonzero;fill:rgb(3.137255%,81.960784%,81.960784%);fill-opacity:1;" d="M 504.222656 430.300781 L 524.945312 430.300781 L 524.945312 451.023438 L 504.222656 451.023438 Z M 504.222656 430.300781 "/>
<path style=" stroke:none;fill-rule:nonzero;fill:rgb(3.137255%,81.960784%,81.960784%);fill-opacity:1;" d="M 406.484375 245.433594 C 406.484375 249.1875 400.855469 249.1875 400.855469 245.433594 C 400.855469 241.679688 406.484375 241.679688 406.484375 245.433594 "/>
<path style=" stroke:none;fill-rule:nonzero;fill:rgb(3.137255%,81.960784%,81.960784%);fill-opacity:1;" d="M 176 200.140625 C 176 205.519531 167.929688 205.519531 167.929688 200.140625 C 167.929688 194.761719 176 194.761719 176 200.140625 "/>
<path style=" stroke:none;fill-rule:nonzero;fill:rgb(3.137255%,81.960784%,81.960784%);fill-opacity:1;" d="M 296.140625 204.011719 C 296.140625 207.578125 290.792969 207.578125 290.792969 204.011719 C 290.792969 200.441406 296.140625 200.441406 296.140625 204.011719 "/>
<path style=" stroke:none;fill-rule:nonzero;fill:rgb(3.137255%,81.960784%,81.960784%);fill-opacity:1;" d="M 121.8125 299.589844 C 121.8125 303.722656 115.613281 303.722656 115.613281 299.589844 C 115.613281 295.457031 121.8125 295.457031 121.8125 299.589844 "/>
<path style=" stroke:none;fill-rule:nonzero;fill:rgb(3.137255%,81.960784%,81.960784%);fill-opacity:1;" d="M 233.101562 522.695312 C 233.101562 527.527344 225.855469 527.527344 225.855469 522.695312 C 225.855469 517.863281 233.101562 517.863281 233.101562 522.695312 "/>
<path style=" stroke:none;fill-rule:nonzero;fill:rgb(3.137255%,81.960784%,81.960784%);fill-opacity:1;" d="M 299.203125 290.421875 L 319.925781 290.421875 L 319.925781 311.144531 L 299.203125 311.144531 Z M 299.203125 290.421875 "/>
<path style=" stroke:none;fill-rule:nonzero;fill:rgb(3.137255%,81.960784%,81.960784%);fill-opacity:1;" d="M 138.179688 442.453125 C 138.179688 449.503906 127.597656 449.503906 127.597656 442.453125 C 127.597656 435.398438 138.179688 435.398438 138.179688 442.453125 "/>
<path style=" stroke:none;fill-rule:nonzero;fill:rgb(3.137255%,81.960784%,81.960784%);fill-opacity:1;" d="M 379.390625 163.367188 C 379.390625 169.414062 370.316406 169.414062 370.316406 163.367188 C 370.316406 157.316406 379.390625 157.316406 379.390625 163.367188 "/>
<path style=" stroke:none;fill-rule:nonzero;fill:rgb(3.137255%,81.960784%,81.960784%);fill-opacity:1;" d="M 319.65625 347.519531 C 319.65625 351.042969 314.375 351.042969 314.375 347.519531 C 314.375 344 319.65625 344 319.65625 347.519531 "/>
<path style=" stroke:none;fill-rule:nonzero;fill:rgb(3.137255%,81.960784%,81.960784%);fill-opacity:1;" d="M 159.121094 417.261719 C 159.121094 421.03125 153.464844 421.03125 153.464844 417.261719 C 153.464844 413.492188 159.121094 413.492188 159.121094 417.261719 "/>
<path style=" stroke:none;fill-rule:nonzero;fill:rgb(3.137255%,81.960784%,81.960784%);fill-opacity:1;" d="M 458.222656 357.710938 L 478.945312 357.710938 L 478.945312 378.433594 L 458.222656 378.433594 Z M 458.222656 357.710938 "/>
<path style=" stroke:none;fill-rule:nonzero;fill:rgb(3.137255%,81.960784%,81.960784%);fill-opacity:1;" d="M 165.339844 499.621094 L 186.0625 499.621094 L 186.0625 520.34375 L 165.339844 520.34375 Z M 165.339844 499.621094 "/>
<path style=" stroke:none;fill-rule:nonzero;fill:rgb(3.137255%,81.960784%,81.960784%);fill-opacity:1;" d="M 329.945312 444.328125 C 329.945312 447.835938 324.683594 447.835938 324.683594 444.328125 C 324.683594 440.820312 329.945312 440.820312 329.945312 444.328125 "/>
<path style=" stroke:none;fill-rule:nonzero;fill:rgb(18.039216%,56.862745%,73.72549%);fill-opacity:1;" d="M 270.089844 493.089844 L 290.8125 493.089844 L 290.8125 513.8125 L 270.089844 513.8125 Z M 270.089844 493.089844 "/>
<path style=" stroke:none;fill-rule:nonzero;fill:rgb(18.039216%,35.294118%,73.72549%);fill-opacity:1;" d="M 124.097656 398.453125 C 124.097656 405.136719 114.078125 405.136719 114.078125 398.453125 C 114.078125 391.773438 124.097656 391.773438 124.097656 398.453125 "/>
<path style=" stroke:none;fill-rule:nonzero;fill:rgb(18.039216%,35.294118%,73.72549%);fill-opacity:1;" d="M 364.445312 594.734375 C 364.445312 598.375 358.984375 598.375 358.984375 594.734375 C 358.984375 591.09375 364.445312 591.09375 364.445312 594.734375 "/>
<path style=" stroke:none;fill-rule:nonzero;fill:rgb(18.039216%,35.294118%,73.72549%);fill-opacity:1;" d="M 534.878906 526.667969 C 534.878906 533.828125 524.140625 533.828125 524.140625 526.667969 C 524.140625 519.511719 534.878906 519.511719 534.878906 526.667969 "/>
<path style=" stroke:none;fill-rule:nonzero;fill:rgb(18.039216%,35.294118%,73.72549%);fill-opacity:1;" d="M 589.507812 213.871094 L 610.230469 213.871094 L 610.230469 234.59375 L 589.507812 234.59375 Z M 589.507812 213.871094 "/>
<path style=" stroke:none;fill-rule:nonzero;fill:rgb(18.039216%,35.294118%,73.72549%);fill-opacity:1;" d="M 275.085938 560.164062 C 275.085938 563.710938 269.765625 563.710938 269.765625 560.164062 C 269.765625 556.617188 275.085938 556.617188 275.085938 560.164062 "/>
<path style=" stroke:none;fill-rule:nonzero;fill:rgb(18.039216%,35.294118%,73.72549%);fill-opacity:1;" d="M 512.332031 344.101562 C 512.332031 347.609375 507.066406 347.609375 507.066406 344.101562 C 507.066406 340.59375 512.332031 340.59375 512.332031 344.101562 "/>
<path style=" stroke:none;fill-rule:nonzero;fill:rgb(18.039216%,35.294118%,73.72549%);fill-opacity:1;" d="M 488.238281 136.335938 C 488.238281 141.488281 480.511719 141.488281 480.511719 136.335938 C 480.511719 131.1875 488.238281 131.1875 488.238281 136.335938 "/>
<path style=" stroke:none;fill-rule:nonzero;fill:rgb(3.529412%,44.705882%,39.607843%);fill-opacity:1;" d="M 554.792969 497.960938 C 554.792969 501.417969 549.613281 501.417969 549.613281 497.960938 C 549.613281 494.507812 554.792969 494.507812 554.792969 497.960938 "/>
<path style=" stroke:none;fill-rule:nonzero;fill:rgb(3.529412%,44.705882%,39.607843%);fill-opacity:1;" d="M 495.730469 264.019531 C 495.730469 267.582031 490.382812 267.582031 490.382812 264.019531 C 490.382812 260.453125 495.730469 260.453125 495.730469 264.019531 "/>
<path style=" stroke:none;fill-rule:nonzero;fill:rgb(3.529412%,44.705882%,39.607843%);fill-opacity:1;" d="M 421.714844 93.753906 C 421.714844 97.277344 416.429688 97.277344 416.429688 93.753906 C 416.429688 90.230469 421.714844 90.230469 421.714844 93.753906 "/>
<path style=" stroke:none;fill-rule:nonzero;fill:rgb(67.058824%,33.72549%,84.705882%);fill-opacity:1;" d="M 469.707031 499.945312 C 469.707031 503.546875 464.304688 503.546875 464.304688 499.945312 C 464.304688 496.34375 469.707031 496.34375 469.707031 499.945312 "/>
<path style=" stroke:none;fill-rule:nonzero;fill:rgb(67.058824%,33.72549%,84.705882%);fill-opacity:1;" d="M 196.574219 305.769531 C 196.574219 312.882812 185.90625 312.882812 185.90625 305.769531 C 185.90625 298.65625 196.574219 298.65625 196.574219 305.769531 "/>
<path style=" stroke:none;fill-rule:nonzero;fill:rgb(67.058824%,33.72549%,84.705882%);fill-opacity:1;" d="M 548.117188 543.175781 C 548.117188 546.875 542.574219 546.875 542.574219 543.175781 C 542.574219 539.480469 548.117188 539.480469 548.117188 543.175781 "/>
<path style=" stroke:none;fill-rule:nonzero;fill:rgb(67.058824%,33.72549%,84.705882%);fill-opacity:1;" d="M 511.539062 577.507812 C 511.539062 581.097656 506.152344 581.097656 506.152344 577.507812 C 506.152344 573.914062 511.539062 573.914062 511.539062 577.507812 "/>
<path style=" stroke:none;fill-rule:nonzero;fill:rgb(67.058824%,33.72549%,84.705882%);fill-opacity:1;" d="M 322.132812 164.292969 C 322.132812 167.769531 316.921875 167.769531 316.921875 164.292969 C 316.921875 160.820312 322.132812 160.820312 322.132812 164.292969 "/>
<path style=" stroke:none;fill-rule:nonzero;fill:rgb(3.921569%,62.745098%,12.156863%);fill-opacity:1;" d="M 481.472656 210.652344 L 502.195312 210.652344 L 502.195312 231.375 L 481.472656 231.375 Z M 481.472656 210.652344 "/>
<path style=" stroke:none;fill-rule:nonzero;fill:rgb(3.921569%,62.745098%,12.156863%);fill-opacity:1;" d="M 449.300781 96.367188 L 470.023438 96.367188 L 470.023438 117.089844 L 449.300781 117.089844 Z M 449.300781 96.367188 "/>
<path style=" stroke:none;fill-rule:nonzero;fill:rgb(3.921569%,62.745098%,12.156863%);fill-opacity:1;" d="M 576.640625 289.742188 C 576.640625 294.074219 570.144531 294.074219 570.144531 289.742188 C 570.144531 285.410156 576.640625 285.410156 576.640625 289.742188 "/>
<path style=" stroke:none;fill-rule:nonzero;fill:rgb(3.921569%,62.745098%,12.156863%);fill-opacity:1;" d="M 247.335938 410.660156 C 247.335938 414.179688 242.050781 414.179688 242.050781 410.660156 C 242.050781 407.136719 247.335938 407.136719 247.335938 410.660156 "/>
<path style=" stroke:none;fill-rule:nonzero;fill:rgb(3.921569%,62.745098%,12.156863%);fill-opacity:1;" d="M 474.347656 429.472656 C 474.347656 433.335938 468.558594 433.335938 468.558594 429.472656 C 468.558594 425.613281 474.347656 425.613281 474.347656 429.472656 "/>
<path style=" stroke:none;fill-rule:nonzero;fill:rgb(3.921569%,62.745098%,12.156863%);fill-opacity:1;" d="M 521.820312 134.535156 C 521.820312 138.054688 516.539062 138.054688 516.539062 134.535156 C 516.539062 131.011719 521.820312 131.011719 521.820312 134.535156 "/>
<path style=" stroke:none;fill-rule:nonzero;fill:rgb(3.921569%,62.745098%,12.156863%);fill-opacity:1;" d="M 261.832031 452.023438 C 261.832031 457.863281 253.070312 457.863281 253.070312 452.023438 C 253.070312 446.183594 261.832031 446.183594 261.832031 452.023438 "/>
<path style=" stroke:none;fill-rule:nonzero;fill:rgb(3.921569%,62.745098%,12.156863%);fill-opacity:1;" d="M 210.34375 329.75 C 210.34375 334.726562 202.882812 334.726562 202.882812 329.75 C 202.882812 324.777344 210.34375 324.777344 210.34375 329.75 "/>
<path style=" stroke:none;fill-rule:nonzero;fill:rgb(3.921569%,62.745098%,12.156863%);fill-opacity:1;" d="M 168.082031 318.808594 C 168.082031 322.285156 162.867188 322.285156 162.867188 318.808594 C 162.867188 315.332031 168.082031 315.332031 168.082031 318.808594 "/>
<path style=" stroke:none;fill-rule:nonzero;fill:rgb(3.921569%,62.745098%,12.156863%);fill-opacity:1;" d="M 588.226562 425.929688 L 608.949219 425.929688 L 608.949219 446.652344 L 588.226562 446.652344 Z M 588.226562 425.929688 "/>
<path style=" stroke:none;fill-rule:nonzero;fill:rgb(3.921569%,62.745098%,12.156863%);fill-opacity:1;" d="M 565.15625 240.425781 L 585.878906 240.425781 L 585.878906 261.148438 L 565.15625 261.148438 Z M 565.15625 240.425781 "/>
<path style=" stroke:none;fill-rule:nonzero;fill:rgb(3.921569%,62.745098%,12.156863%);fill-opacity:1;" d="M 525.4375 245.351562 L 546.160156 245.351562 L 546.160156 266.074219 L 525.4375 266.074219 Z M 525.4375 245.351562 "/>
<path style=" stroke:none;fill-rule:nonzero;fill:rgb(3.921569%,62.745098%,12.156863%);fill-opacity:1;" d="M 445.519531 220.007812 C 445.519531 223.828125 439.789062 223.828125 439.789062 220.007812 C 439.789062 216.1875 445.519531 216.1875 445.519531 220.007812 "/>
<path style=" stroke:none;fill-rule:nonzero;fill:rgb(3.921569%,62.745098%,12.156863%);fill-opacity:1;" d="M 414.480469 327.410156 L 435.203125 327.410156 L 435.203125 348.132812 L 414.480469 348.132812 Z M 414.480469 327.410156 "/>
<path style=" stroke:none;fill-rule:nonzero;fill:rgb(3.921569%,62.745098%,12.156863%);fill-opacity:1;" d="M 416.664062 377.378906 L 437.386719 377.378906 L 437.386719 398.101562 L 416.664062 398.101562 Z M 416.664062 377.378906 "/>
<path style=" stroke:none;fill-rule:nonzero;fill:rgb(3.921569%,62.745098%,12.156863%);fill-opacity:1;" d="M 379.144531 611.847656 C 379.144531 615.832031 373.167969 615.832031 373.167969 611.847656 C 373.167969 607.863281 379.144531 607.863281 379.144531 611.847656 "/>
<path style=" stroke:none;fill-rule:nonzero;fill:rgb(3.921569%,62.745098%,12.156863%);fill-opacity:1;" d="M 537.121094 359.675781 L 557.84375 359.675781 L 557.84375 380.398438 L 537.121094 380.398438 Z M 537.121094 359.675781 "/>
<path style=" stroke:none;fill-rule:nonzero;fill:rgb(3.921569%,62.745098%,12.156863%);fill-opacity:1;" d="M 252.964844 567.945312 C 252.964844 574.601562 242.984375 574.601562 242.984375 567.945312 C 242.984375 561.292969 252.964844 561.292969 252.964844 567.945312 "/>
<path style=" stroke:none;fill-rule:nonzero;fill:rgb(3.921569%,62.745098%,12.156863%);fill-opacity:1;" d="M 557.234375 413.789062 C 557.234375 417.300781 551.96875 417.300781 551.96875 413.789062 C 551.96875 410.28125 557.234375 410.28125 557.234375 413.789062 "/>
<path style=" stroke:none;fill-rule:nonzero;fill:rgb(3.921569%,62.745098%,12.156863%);fill-opacity:1;" d="M 637.554688 413.179688 C 637.554688 417.929688 633.699219 421.785156 628.949219 421.785156 C 624.195312 421.785156 620.34375 417.929688 620.34375 413.179688 C 620.34375 408.425781 624.195312 404.574219 628.949219 404.574219 C 633.699219 404.574219 637.554688 408.425781 637.554688 413.179688 "/>
<path style=" stroke:none;fill-rule:nonzero;fill:rgb(3.921569%,62.745098%,12.156863%);fill-opacity:1;" d="M 431.386719 433.4375 C 431.386719 439.875 421.734375 439.875 421.734375 433.4375 C 421.734375 427 431.386719 427 431.386719 433.4375 "/>
<path style=" stroke:none;fill-rule:nonzero;fill:rgb(3.921569%,62.745098%,12.156863%);fill-opacity:1;" d="M 161.152344 337.574219 C 161.152344 344.730469 155.355469 350.527344 148.203125 350.527344 C 141.046875 350.527344 135.25 344.730469 135.25 337.574219 C 135.25 330.421875 141.046875 324.625 148.203125 324.625 C 155.355469 324.625 161.152344 330.421875 161.152344 337.574219 "/>
<path style=" stroke:none;fill-rule:nonzero;fill:rgb(3.921569%,62.745098%,12.156863%);fill-opacity:1;" d="M 117.960938 358.980469 C 117.960938 362.457031 112.742188 362.457031 112.742188 358.980469 C 112.742188 355.5 117.960938 355.5 117.960938 358.980469 "/>
<path style=" stroke:none;fill-rule:nonzero;fill:rgb(3.921569%,62.745098%,12.156863%);fill-opacity:1;" d="M 469.730469 313.492188 C 469.730469 317.152344 464.238281 317.152344 464.238281 313.492188 C 464.238281 309.828125 469.730469 309.828125 469.730469 313.492188 "/>
<path style=" stroke:none;fill-rule:nonzero;fill:rgb(3.921569%,62.745098%,12.156863%);fill-opacity:1;" d="M 383.371094 459.816406 C 383.371094 463.464844 377.894531 463.464844 377.894531 459.816406 C 377.894531 456.164062 383.371094 456.164062 383.371094 459.816406 "/>
<path style=" stroke:none;fill-rule:nonzero;fill:rgb(3.921569%,62.745098%,12.156863%);fill-opacity:1;" d="M 386.929688 102.441406 C 386.929688 106.011719 381.574219 106.011719 381.574219 102.441406 C 381.574219 98.867188 386.929688 98.867188 386.929688 102.441406 "/>
<path style=" stroke:none;fill-rule:nonzero;fill:rgb(3.921569%,62.745098%,12.156863%);fill-opacity:1;" d="M 237.578125 280.359375 C 237.578125 285.171875 230.359375 285.171875 230.359375 280.359375 C 230.359375 275.550781 237.578125 275.550781 237.578125 280.359375 "/>
<path style=" stroke:none;fill-rule:nonzero;fill:rgb(3.921569%,62.745098%,12.156863%);fill-opacity:1;" d="M 578.984375 195.65625 C 578.984375 202.226562 569.125 202.226562 569.125 195.65625 C 569.125 189.082031 578.984375 189.082031 578.984375 195.65625 "/>
<path style=" stroke:none;fill-rule:nonzero;fill:rgb(3.921569%,62.745098%,12.156863%);fill-opacity:1;" d="M 258.203125 591.566406 C 258.203125 596.621094 250.621094 596.621094 250.621094 591.566406 C 250.621094 586.511719 258.203125 586.511719 258.203125 591.566406 "/>
<path style=" stroke:none;fill-rule:nonzero;fill:rgb(3.921569%,62.745098%,12.156863%);fill-opacity:1;" d="M 190.96875 183.023438 C 190.96875 186.507812 185.742188 186.507812 185.742188 183.023438 C 185.742188 179.542969 190.96875 179.542969 190.96875 183.023438 "/>
<path style=" stroke:none;fill-rule:nonzero;fill:rgb(15.294118%,28.627451%,27.058824%);fill-opacity:1;" d="M 362.519531 316.640625 C 362.519531 320.125 357.285156 320.125 357.285156 316.640625 C 357.285156 313.152344 362.519531 313.152344 362.519531 316.640625 "/>
<path style=" stroke:none;fill-rule:nonzero;fill:rgb(15.294118%,28.627451%,27.058824%);fill-opacity:1;" d="M 192.449219 439.292969 L 213.171875 439.292969 L 213.171875 460.015625 L 192.449219 460.015625 Z M 192.449219 439.292969 "/>
<path style=" stroke:none;fill-rule:nonzero;fill:rgb(15.294118%,28.627451%,27.058824%);fill-opacity:1;" d="M 257.390625 335.082031 L 278.113281 335.082031 L 278.113281 355.804688 L 257.390625 355.804688 Z M 257.390625 335.082031 "/>
<path style=" stroke:none;fill-rule:nonzero;fill:rgb(15.294118%,28.627451%,27.058824%);fill-opacity:1;" d="M 392.007812 547.269531 C 392.007812 552.917969 383.539062 552.917969 383.539062 547.269531 C 383.539062 541.625 392.007812 541.625 392.007812 547.269531 "/>
<path style=" stroke:none;fill-rule:nonzero;fill:rgb(70.196078%,14.901961%,35.686275%);fill-opacity:1;" d="M 288.027344 392.507812 C 288.027344 396.140625 282.578125 396.140625 282.578125 392.507812 C 282.578125 388.871094 288.027344 388.871094 288.027344 392.507812 "/>
<path style=" stroke:none;fill-rule:nonzero;fill:rgb(18.039216%,73.72549%,27.058824%);fill-opacity:1;" d="M 248.242188 278.691406 L 268.964844 278.691406 L 268.964844 299.414062 L 248.242188 299.414062 Z M 248.242188 278.691406 "/>
<path style=" stroke:none;fill-rule:nonzero;fill:rgb(18.039216%,73.72549%,27.058824%);fill-opacity:1;" d="M 491.53125 469.101562 L 512.253906 469.101562 L 512.253906 489.824219 L 491.53125 489.824219 Z M 491.53125 469.101562 "/>
<path style=" stroke:none;fill-rule:nonzero;fill:rgb(18.039216%,73.72549%,27.058824%);fill-opacity:1;" d="M 242.511719 132.992188 C 242.511719 136.625 237.0625 136.625 237.0625 132.992188 C 237.0625 129.359375 242.511719 129.359375 242.511719 132.992188 "/>
<path style=" stroke:none;fill-rule:nonzero;fill:rgb(18.039216%,73.72549%,27.058824%);fill-opacity:1;" d="M 227 372.824219 C 227 376.410156 221.617188 376.410156 221.617188 372.824219 C 221.617188 369.234375 227 369.234375 227 372.824219 "/>
<path style=" stroke:none;fill-rule:nonzero;fill:rgb(18.039216%,73.72549%,27.058824%);fill-opacity:1;" d="M 136.285156 464.835938 L 157.007812 464.835938 L 157.007812 485.558594 L 136.285156 485.558594 Z M 136.285156 464.835938 "/>
<path style=" stroke:none;fill-rule:nonzero;fill:rgb(18.039216%,73.72549%,27.058824%);fill-opacity:1;" d="M 327.078125 193.433594 L 347.800781 193.433594 L 347.800781 214.15625 L 327.078125 214.15625 Z M 327.078125 193.433594 "/>
<path style=" stroke:none;fill-rule:nonzero;fill:rgb(18.039216%,73.72549%,27.058824%);fill-opacity:1;" d="M 581.050781 383.707031 L 601.773438 383.707031 L 601.773438 404.429688 L 581.050781 404.429688 Z M 581.050781 383.707031 "/>
<path style=" stroke:none;fill-rule:nonzero;fill:rgb(18.039216%,73.72549%,27.058824%);fill-opacity:1;" d="M 368.558594 349.445312 L 389.28125 349.445312 L 389.28125 370.167969 L 368.558594 370.167969 Z M 368.558594 349.445312 "/>
<path style=" stroke:none;fill-rule:nonzero;fill:rgb(18.039216%,73.72549%,27.058824%);fill-opacity:1;" d="M 623.085938 322.765625 L 643.808594 322.765625 L 643.808594 343.488281 L 623.085938 343.488281 Z M 623.085938 322.765625 "/>
<path style=" stroke:none;fill-rule:nonzero;fill:rgb(18.039216%,73.72549%,27.058824%);fill-opacity:1;" d="M 405.027344 174.175781 L 425.75 174.175781 L 425.75 194.898438 L 405.027344 194.898438 Z M 405.027344 174.175781 "/>
<path style=" stroke:none;fill-rule:nonzero;fill:rgb(18.039216%,73.72549%,27.058824%);fill-opacity:1;" d="M 400.019531 565.28125 L 420.742188 565.28125 L 420.742188 586.003906 L 400.019531 586.003906 Z M 400.019531 565.28125 "/>
<path style=" stroke:none;fill-rule:nonzero;fill:rgb(18.039216%,73.72549%,27.058824%);fill-opacity:1;" d="M 436.261719 138.40625 L 456.984375 138.40625 L 456.984375 159.128906 L 436.261719 159.128906 Z M 436.261719 138.40625 "/>
<path style=" stroke:none;fill-rule:nonzero;fill:rgb(18.039216%,73.72549%,27.058824%);fill-opacity:1;" d="M 264.960938 230.265625 L 285.683594 230.265625 L 285.683594 250.988281 L 264.960938 250.988281 Z M 264.960938 230.265625 "/>
<path style=" stroke:none;fill-rule:nonzero;fill:rgb(18.039216%,73.72549%,27.058824%);fill-opacity:1;" d="M 607.820312 255.082031 L 628.542969 255.082031 L 628.542969 275.804688 L 607.820312 275.804688 Z M 607.820312 255.082031 "/>
<path style=" stroke:none;fill-rule:nonzero;fill:rgb(18.039216%,73.72549%,27.058824%);fill-opacity:1;" d="M 157.628906 368.679688 L 178.351562 368.679688 L 178.351562 389.402344 L 157.628906 389.402344 Z M 157.628906 368.679688 "/>
<path style=" stroke:none;fill-rule:nonzero;fill:rgb(18.039216%,73.72549%,27.058824%);fill-opacity:1;" d="M 288.058594 145.816406 C 288.058594 150.085938 281.652344 150.085938 281.652344 145.816406 C 281.652344 141.542969 288.058594 141.542969 288.058594 145.816406 "/>
<path style=" stroke:none;fill-rule:nonzero;fill:rgb(18.039216%,73.72549%,27.058824%);fill-opacity:1;" d="M 354.34375 502.289062 C 354.34375 508.550781 344.957031 508.550781 344.957031 502.289062 C 344.957031 496.027344 354.34375 496.027344 354.34375 502.289062 "/>
<path style=" stroke:none;fill-rule:nonzero;fill:rgb(18.039216%,73.72549%,27.058824%);fill-opacity:1;" d="M 434.242188 605.640625 C 434.242188 609.195312 428.914062 609.195312 428.914062 605.640625 C 428.914062 602.089844 434.242188 602.089844 434.242188 605.640625 "/>
<path style=" stroke:none;fill-rule:nonzero;fill:rgb(18.039216%,73.72549%,27.058824%);fill-opacity:1;" d="M 348.71875 130.789062 C 348.71875 134.332031 343.402344 134.332031 343.402344 130.789062 C 343.402344 127.246094 348.71875 127.246094 348.71875 130.789062 "/>
<path style=" stroke:none;fill-rule:nonzero;fill:rgb(18.039216%,73.72549%,27.058824%);fill-opacity:1;" d="M 607.871094 474.453125 C 607.871094 478.910156 604.253906 482.527344 599.796875 482.527344 C 595.335938 482.527344 591.722656 478.910156 591.722656 474.453125 C 591.722656 469.992188 595.335938 466.378906 599.796875 466.378906 C 604.253906 466.378906 607.871094 469.992188 607.871094 474.453125 "/>
<path style=" stroke:none;fill-rule:nonzero;fill:rgb(18.039216%,73.72549%,27.058824%);fill-opacity:1;" d="M 200.21875 412.007812 C 200.21875 416.449219 193.554688 416.449219 193.554688 412.007812 C 193.554688 407.566406 200.21875 407.566406 200.21875 412.007812 "/>
<path style=" stroke:none;fill-rule:nonzero;fill:rgb(18.039216%,73.72549%,27.058824%);fill-opacity:1;" d="M 592.25 347.566406 C 592.25 351.363281 586.554688 351.363281 586.554688 347.566406 C 586.554688 343.769531 592.25 343.769531 592.25 347.566406 "/>
<path style=" stroke:none;fill-rule:nonzero;fill:rgb(18.039216%,73.72549%,27.058824%);fill-opacity:1;" d="M 343.433594 548.484375 C 343.433594 552.113281 337.992188 552.113281 337.992188 548.484375 C 337.992188 544.855469 343.433594 544.855469 343.433594 548.484375 "/>
<path style=" stroke:none;fill-rule:nonzero;fill:rgb(18.039216%,73.72549%,27.058824%);fill-opacity:1;" d="M 475.503906 564.636719 C 475.503906 567.859375 472.894531 570.472656 469.671875 570.472656 C 466.449219 570.472656 463.835938 567.859375 463.835938 564.636719 C 463.835938 561.414062 466.449219 558.804688 469.671875 558.804688 C 472.894531 558.804688 475.503906 561.414062 475.503906 564.636719 "/>
<path style=" stroke:none;fill-rule:nonzero;fill:rgb(18.039216%,73.72549%,27.058824%);fill-opacity:1;" d="M 317.785156 99.980469 C 317.785156 103.308594 315.085938 106.003906 311.761719 106.003906 C 308.433594 106.003906 305.738281 103.308594 305.738281 99.980469 C 305.738281 96.652344 308.433594 93.957031 311.761719 93.957031 C 315.085938 93.957031 317.785156 96.652344 317.785156 99.980469 "/>
<path style=" stroke:none;fill-rule:nonzero;fill:rgb(18.039216%,73.72549%,27.058824%);fill-opacity:1;" d="M 161.953125 218.117188 C 161.953125 222.023438 158.789062 225.1875 154.882812 225.1875 C 150.980469 225.1875 147.816406 222.023438 147.816406 218.117188 C 147.816406 214.214844 150.980469 211.050781 154.882812 211.050781 C 158.789062 211.050781 161.953125 214.214844 161.953125 218.117188 "/>
<path style=" stroke:none;fill-rule:nonzero;fill:rgb(18.039216%,73.72549%,27.058824%);fill-opacity:1;" d="M 134.152344 276.765625 C 134.152344 281.007812 130.714844 284.445312 126.476562 284.445312 C 122.234375 284.445312 118.796875 281.007812 118.796875 276.765625 C 118.796875 272.527344 122.234375 269.089844 126.476562 269.089844 C 130.714844 269.089844 134.152344 272.527344 134.152344 276.765625 "/>
<path style=" stroke:none;fill-rule:nonzero;fill:rgb(18.039216%,73.72549%,27.058824%);fill-opacity:1;" d="M 308.269531 513.3125 C 308.269531 518.683594 300.21875 518.683594 300.21875 513.3125 C 300.21875 507.945312 308.269531 507.945312 308.269531 513.3125 "/>
<path style=" stroke:none;fill-rule:nonzero;fill:rgb(18.039216%,73.72549%,27.058824%);fill-opacity:1;" d="M 323.042969 252.878906 C 323.042969 256.769531 317.207031 256.769531 317.207031 252.878906 C 317.207031 248.988281 323.042969 248.988281 323.042969 252.878906 "/>
<path style=" stroke:none;fill-rule:nonzero;fill:rgb(18.039216%,73.72549%,27.058824%);fill-opacity:1;" d="M 452.363281 267.484375 C 452.363281 271.480469 446.367188 271.480469 446.367188 267.484375 C 446.367188 263.488281 452.363281 263.488281 452.363281 267.484375 "/>
<path style=" stroke:none;fill-rule:nonzero;fill:rgb(18.039216%,73.72549%,27.058824%);fill-opacity:1;" d="M 299.832031 572.257812 C 299.832031 578.863281 289.921875 578.863281 289.921875 572.257812 C 289.921875 565.652344 299.832031 565.652344 299.832031 572.257812 "/>
<path style=" stroke:none;fill-rule:nonzero;fill:rgb(18.039216%,73.72549%,27.058824%);fill-opacity:1;" d="M 405.65625 504.449219 C 405.65625 508.617188 399.402344 508.617188 399.402344 504.449219 C 399.402344 500.277344 405.65625 500.277344 405.65625 504.449219 "/>
<path style=" stroke:none;fill-rule:nonzero;fill:rgb(18.039216%,73.72549%,27.058824%);fill-opacity:1;" d="M 379.015625 211.414062 C 379.015625 214.878906 373.816406 214.878906 373.816406 211.414062 C 373.816406 207.949219 379.015625 207.949219 379.015625 211.414062 "/>
<path style=" stroke:none;fill-rule:nonzero;fill:rgb(18.039216%,73.72549%,27.058824%);fill-opacity:1;" d="M 557.070312 164.566406 C 557.070312 167.675781 554.554688 170.191406 551.445312 170.191406 C 548.339844 170.191406 545.820312 167.675781 545.820312 164.566406 C 545.820312 161.460938 548.339844 158.941406 551.445312 158.941406 C 554.554688 158.941406 557.070312 161.460938 557.070312 164.566406 "/>
<path style=" stroke:none;fill-rule:nonzero;fill:rgb(18.039216%,73.72549%,27.058824%);fill-opacity:1;" d="M 562.46875 324.023438 C 562.46875 329.632812 554.054688 329.632812 554.054688 324.023438 C 554.054688 318.414062 562.46875 318.414062 562.46875 324.023438 "/>
<path style=" stroke:none;fill-rule:nonzero;fill:rgb(18.039216%,73.72549%,27.058824%);fill-opacity:1;" d="M 439.132812 474.214844 C 439.132812 477.695312 433.914062 477.695312 433.914062 474.214844 C 433.914062 470.738281 439.132812 470.738281 439.132812 474.214844 "/>
<path style=" stroke:none;fill-rule:nonzero;fill:rgb(18.039216%,73.72549%,27.058824%);fill-opacity:1;" d="M 618.648438 302.382812 C 618.648438 306.792969 612.03125 306.792969 612.03125 302.382812 C 612.03125 297.972656 618.648438 297.972656 618.648438 302.382812 "/>
<path style=" stroke:none;fill-rule:nonzero;fill:rgb(49.803922%,27.058824%,38.039216%);fill-opacity:1;" d="M 324.140625 606.886719 C 324.140625 610.441406 318.808594 610.441406 318.808594 606.886719 C 318.808594 603.335938 324.140625 603.335938 324.140625 606.886719 "/>
<path style=" stroke:none;fill-rule:nonzero;fill:rgb(80.784314%,49.411765%,0%);fill-opacity:1;" d="M 413.746094 135.652344 C 413.746094 139.28125 408.304688 139.28125 408.304688 135.652344 C 408.304688 132.023438 413.746094 132.023438 413.746094 135.652344 "/>
<path style=" stroke:none;fill-rule:nonzero;fill:rgb(41.568627%,32.156863%,77.647059%);fill-opacity:1;" d="M 555.84375 456.871094 C 555.84375 460.332031 550.652344 460.332031 550.652344 456.871094 C 550.652344 453.414062 555.84375 453.414062 555.84375 456.871094 "/>
<path style=" stroke:none;fill-rule:nonzero;fill:rgb(67.843137%,55.294118%,55.294118%);fill-opacity:1;" d="M 507.425781 290.300781 L 528.148438 290.300781 L 528.148438 311.023438 L 507.425781 311.023438 Z M 507.425781 290.300781 "/>
<path style=" stroke:none;fill-rule:nonzero;fill:rgb(67.843137%,55.294118%,55.294118%);fill-opacity:1;" d="M 248.449219 167.492188 L 269.171875 167.492188 L 269.171875 188.214844 L 248.449219 188.214844 Z M 248.449219 167.492188 "/>
<path style=" stroke:none;fill-rule:nonzero;fill:rgb(67.843137%,55.294118%,55.294118%);fill-opacity:1;" d="M 205.175781 147.203125 L 225.898438 147.203125 L 225.898438 167.925781 L 205.175781 167.925781 Z M 205.175781 147.203125 "/>
<path style=" stroke:none;fill-rule:nonzero;fill:rgb(81.176471%,90.588235%,12.156863%);fill-opacity:1;" d="M 481.4375 523.925781 L 502.160156 523.925781 L 502.160156 544.648438 L 481.4375 544.648438 Z M 481.4375 523.925781 "/>
</g>
</svg>
