<?xml version="1.0" encoding="UTF-8"?>
<svg xmlns="http://www.w3.org/2000/svg" xmlns:xlink="http://www.w3.org/1999/xlink" width="720pt" height="720pt" viewBox="0 0 720 720" version="1.1">
<g id="surface3028">
<path style=" stroke:none;fill-rule:nonzero;fill:rgb(95.686275%,95.686275%,95.686275%);fill-opacity:1;" d="M 480.136719 530.738281 L 477.863281 530.449219 L 475.632812 529.621094 L 473.496094 528.332031 L 471.488281 526.710938 L 469.59375 524.902344 L 467.734375 523.039062 L 465.867188 521.105469 L 464.019531 519.058594 L 462.246094 516.917969 L 460.617188 514.734375 L 459.851562 513.605469 L 458.386719 511.175781 L 457.21875 508.839844 L 456.335938 506.652344 L 455.6875 504.636719 L 455.15625 502.726562 L 454.707031 500.757812 L 454.488281 498.632812 L 454.628906 496.34375 L 455.203125 493.9375 L 455.507812 493.089844 L 456.5625 490.867188 L 457.949219 488.664062 L 459.589844 486.53125 L 461.394531 484.511719 L 463.269531 482.59375 L 465.167969 480.722656 L 467.160156 478.976562 L 469.285156 477.519531 L 471.523438 476.488281 L 473.828125 475.992188 L 474.617188 475.957031 L 476.890625 476.246094 L 479.121094 477.074219 L 481.257812 478.363281 L 483.265625 479.984375 L 485.160156 481.792969 L 487.019531 483.65625 L 488.886719 485.589844 L 490.734375 487.636719 L 492.507812 489.777344 L 494.136719 491.957031 L 494.902344 493.089844 L 496.363281 495.519531 L 497.535156 497.855469 L 498.417969 500.042969 L 499.066406 502.058594 L 499.597656 503.96875 L 500.046875 505.9375 L 500.265625 508.0625 L 500.121094 510.351562 L 499.550781 512.757812 L 499.242188 513.605469 L 498.191406 515.828125 L 496.804688 518.03125 L 495.164062 520.164062 L 493.359375 522.179688 L 491.484375 524.101562 L 489.582031 525.972656 L 487.59375 527.71875 L 485.46875 529.175781 L 483.230469 530.207031 L 480.925781 530.703125 Z M 480.136719 530.738281 "/>
<path style=" stroke:none;fill-rule:nonzero;fill:rgb(95.686275%,95.686275%,95.686275%);fill-opacity:1;" d="M 518.914062 164.402344 L 516.445312 165.117188 L 514.132812 165.335938 L 512.019531 165.113281 L 510.109375 164.535156 L 508.371094 163.734375 L 506.695312 162.859375 L 504.949219 161.90625 L 503.078125 160.808594 L 501.078125 159.523438 L 498.984375 158.0625 L 497.378906 156.859375 L 495.199219 155.109375 L 493.035156 153.253906 L 490.9375 151.34375 L 488.949219 149.441406 L 487.058594 147.570312 L 485.214844 145.714844 L 483.464844 143.785156 L 481.960938 141.730469 L 480.832031 139.558594 L 480.195312 137.3125 L 480.074219 135.832031 L 480.363281 133.542969 L 481.195312 131.296875 L 482.488281 129.144531 L 484.117188 127.121094 L 485.9375 125.210938 L 487.8125 123.339844 L 489.757812 121.46875 L 491.816406 119.621094 L 493.964844 117.859375 L 496.164062 116.257812 L 497.378906 115.464844 L 499.5625 114.203125 L 501.683594 113.1875 L 503.691406 112.417969 L 505.558594 111.855469 L 507.308594 111.441406 L 509.03125 111.082031 L 510.871094 110.855469 L 512.910156 110.902344 L 515.167969 111.324219 L 517.613281 112.179688 L 518.914062 112.789062 L 521.230469 114.109375 L 523.605469 115.746094 L 525.988281 117.632812 L 528.332031 119.695312 L 530.605469 121.859375 L 532.820312 124.054688 L 534.996094 126.277344 L 537.042969 128.59375 L 538.8125 131.046875 L 540.179688 133.625 L 541.039062 136.285156 L 541.328125 138.925781 L 541.023438 141.644531 L 540.136719 144.324219 L 538.742188 146.914062 L 536.941406 149.378906 L 534.871094 151.707031 L 532.671875 153.941406 L 530.441406 156.148438 L 528.144531 158.292969 L 525.78125 160.285156 L 523.378906 162.035156 L 520.988281 163.457031 Z M 518.914062 164.402344 "/>
<path style=" stroke:none;fill-rule:nonzero;fill:rgb(95.686275%,95.686275%,95.686275%);fill-opacity:1;" d="M 183.363281 349.007812 L 181.300781 349.496094 L 179.378906 349.535156 L 177.625 349.179688 L 176.050781 348.527344 L 174.601562 347.714844 L 173.148438 346.84375 L 171.550781 345.820312 L 169.746094 344.558594 L 167.730469 343.027344 L 165.53125 341.238281 L 165.515625 341.222656 L 163.457031 339.441406 L 161.324219 337.515625 L 159.175781 335.496094 L 157.0625 333.449219 L 155.003906 331.414062 L 152.988281 329.398438 L 151.027344 327.339844 L 149.25 325.167969 L 147.800781 322.863281 L 146.796875 320.457031 L 146.320312 317.996094 L 146.289062 317.199219 L 146.601562 314.644531 L 147.5 312.136719 L 148.902344 309.726562 L 150.683594 307.453125 L 152.6875 305.304688 L 154.769531 303.222656 L 156.890625 301.195312 L 159.078125 299.324219 L 161.300781 297.738281 L 163.503906 296.535156 L 165.515625 295.824219 L 167.84375 295.554688 L 169.964844 295.921875 L 171.847656 296.816406 L 173.5 298.078125 L 175.023438 299.5 L 176.59375 300.996094 L 178.335938 302.664062 L 180.28125 304.542969 L 182.402344 306.609375 L 183.363281 307.550781 L 185.363281 309.511719 L 187.402344 311.527344 L 189.4375 313.546875 L 191.414062 315.515625 L 193.320312 317.421875 L 195.1875 319.300781 L 196.972656 321.242188 L 198.527344 323.308594 L 199.71875 325.492188 L 200.4375 327.761719 L 200.617188 329.601562 L 200.3125 331.984375 L 199.4375 334.324219 L 198.074219 336.558594 L 196.363281 338.660156 L 194.460938 340.640625 L 192.507812 342.582031 L 190.496094 344.457031 L 188.410156 346.171875 L 186.289062 347.613281 L 184.1875 348.691406 Z M 183.363281 349.007812 "/>
<path style=" stroke:none;fill-rule:nonzero;fill:rgb(95.686275%,95.686275%,95.686275%);fill-opacity:1;" d="M 309.152344 156.761719 L 306.855469 156.46875 L 304.601562 155.628906 L 302.441406 154.328125 L 300.414062 152.6875 L 298.5 150.859375 L 296.625 148.976562 L 294.761719 147.011719 L 292.96875 144.917969 L 291.316406 142.707031 L 289.882812 140.429688 L 289.261719 139.269531 L 288.167969 136.757812 L 287.429688 134.308594 L 287.015625 131.984375 L 286.859375 129.816406 L 286.835938 127.757812 L 286.84375 125.667969 L 286.917969 123.457031 L 287.097656 121.121094 L 287.402344 118.71875 L 287.632812 117.335938 L 288.128906 114.972656 L 288.734375 112.691406 L 289.410156 110.550781 L 290.121094 108.570312 L 290.84375 106.703125 L 291.613281 104.808594 L 292.546875 102.773438 L 293.714844 100.574219 L 295.140625 98.257812 L 296.171875 96.742188 L 297.804688 94.558594 L 299.578125 92.394531 L 301.4375 90.296875 L 303.320312 88.304688 L 305.183594 86.417969 L 307.042969 84.574219 L 308.980469 82.832031 L 311.042969 81.339844 L 313.222656 80.238281 L 315.476562 79.636719 L 316.789062 79.539062 L 318.847656 79.777344 L 320.878906 80.460938 L 322.839844 81.535156 L 324.699219 82.917969 L 326.457031 84.5 L 328.144531 86.171875 L 329.816406 87.902344 L 331.429688 89.8125 L 332.917969 91.988281 L 334.210938 94.449219 L 335.246094 97.179688 L 335.757812 99.105469 L 336.253906 101.957031 L 336.480469 104.953125 L 336.460938 108.023438 L 336.230469 111.105469 L 335.835938 114.144531 L 335.339844 117.128906 L 334.8125 120.089844 L 334.234375 123.089844 L 333.550781 126.148438 L 332.734375 129.234375 L 331.765625 132.289062 L 330.648438 135.246094 L 329.835938 137.117188 L 328.265625 140.207031 L 326.550781 143.011719 L 324.75 145.492188 L 322.917969 147.65625 L 321.097656 149.566406 L 319.285156 151.375 L 317.417969 153.101562 L 315.433594 154.625 L 313.332031 155.804688 L 311.152344 156.539062 Z M 309.152344 156.761719 "/>
<path style=" stroke:none;fill-rule:nonzero;fill:rgb(95.686275%,95.686275%,95.686275%);fill-opacity:1;" d="M 436.726562 299.417969 L 434.78125 298.464844 L 432.773438 297.144531 L 430.757812 295.546875 L 428.792969 293.761719 L 426.886719 291.890625 L 425.003906 289.996094 L 423.171875 288.046875 L 421.476562 286.023438 L 420.015625 283.96875 L 418.878906 281.941406 L 418.570312 281.261719 L 417.910156 279.238281 L 417.671875 277.359375 L 417.800781 275.652344 L 418.207031 274.128906 L 418.757812 272.71875 L 419.375 271.28125 L 420.207031 269.652344 L 421.359375 267.742188 L 422.886719 265.550781 L 424.359375 263.640625 L 426.097656 261.539062 L 428.039062 259.328125 L 430.121094 257.0625 L 432.289062 254.792969 L 434.480469 252.558594 L 436.667969 250.363281 L 438.867188 248.199219 L 441.160156 246.160156 L 443.585938 244.382812 L 446.136719 242.992188 L 448.769531 242.09375 L 451.449219 241.753906 L 451.640625 241.753906 L 454.179688 242.019531 L 456.683594 242.792969 L 459.117188 244.019531 L 461.445312 245.621094 L 463.652344 247.492188 L 465.761719 249.511719 L 467.824219 251.582031 L 469.820312 253.710938 L 471.632812 255.949219 L 473.148438 258.308594 L 474.269531 260.761719 L 474.917969 263.277344 L 475.070312 265.179688 L 474.773438 267.859375 L 473.914062 270.5 L 472.558594 273.054688 L 470.804688 275.488281 L 468.777344 277.789062 L 466.621094 279.992188 L 464.429688 282.179688 L 462.203125 284.378906 L 459.949219 286.5625 L 457.707031 288.679688 L 455.53125 290.667969 L 453.472656 292.476562 L 453.320312 292.601562 L 450.980469 294.535156 L 448.921875 296.09375 L 447.167969 297.292969 L 445.695312 298.183594 L 444.382812 298.902344 L 443.046875 299.554688 L 441.5625 300.007812 L 439.878906 300.136719 L 438.015625 299.847656 Z M 436.726562 299.417969 "/>
<path style=" stroke:none;fill-rule:nonzero;fill:rgb(95.686275%,95.686275%,95.686275%);fill-opacity:1;" d="M 310.527344 627.03125 L 307.277344 626.292969 L 303.785156 625.269531 L 300.09375 623.980469 L 296.246094 622.457031 L 292.304688 620.734375 L 288.3125 618.859375 L 284.3125 616.878906 L 280.332031 614.835938 L 276.367188 612.765625 L 272.398438 610.683594 L 268.40625 608.574219 L 264.40625 606.4375 L 260.429688 604.273438 L 256.519531 602.101562 L 252.734375 599.945312 L 249.121094 597.832031 L 245.726562 595.78125 L 243.910156 594.65625 L 239.664062 591.90625 L 236.007812 589.371094 L 232.96875 587.085938 L 230.507812 585.054688 L 228.527344 583.25 L 226.835938 581.589844 L 225.222656 579.941406 L 223.683594 578.175781 L 222.316406 576.222656 L 221.203125 574.0625 L 220.417969 571.695312 L 220.015625 569.164062 L 219.996094 568.898438 L 220.035156 566.253906 L 220.449219 563.515625 L 221.199219 560.746094 L 222.226562 558 L 223.445312 555.3125 L 224.765625 552.695312 L 226.117188 550.085938 L 227.53125 547.421875 L 229.042969 544.691406 L 230.664062 541.921875 L 232.371094 539.175781 L 234.140625 536.503906 L 234.65625 535.757812 L 236.644531 533.027344 L 238.640625 530.492188 L 240.59375 528.191406 L 242.472656 526.136719 L 244.265625 524.289062 L 246.011719 522.542969 L 247.832031 520.847656 L 249.847656 519.304688 L 252.117188 518.027344 L 254.644531 517.121094 L 257.398438 516.652344 L 258.027344 516.613281 L 260.652344 516.6875 L 263.375 517.121094 L 266.148438 517.875 L 268.910156 518.898438 L 271.621094 520.113281 L 274.269531 521.4375 L 276.898438 522.796875 L 279.582031 524.21875 L 282.371094 525.757812 L 285.261719 527.445312 L 288.207031 529.273438 L 291.164062 531.226562 L 293.160156 532.621094 L 295.957031 534.679688 L 298.660156 536.789062 L 301.230469 538.914062 L 303.640625 541.019531 L 305.886719 543.066406 L 308 545.0625 L 310.054688 547.027344 L 312.140625 549.027344 L 314.292969 551.09375 L 316.511719 553.230469 L 318.769531 555.410156 L 321.023438 557.59375 L 323.199219 559.714844 L 325.652344 562.113281 L 327.980469 564.402344 L 330.144531 566.539062 L 332.125 568.507812 L 333.941406 570.316406 L 335.671875 572.050781 L 337.375 573.824219 L 339.007812 575.742188 L 340.492188 577.832031 L 341.75 580.085938 L 342.71875 582.46875 L 342.953125 583.238281 L 343.507812 585.839844 L 343.703125 588.480469 L 343.582031 591.09375 L 343.199219 593.621094 L 342.65625 596.046875 L 342.050781 598.433594 L 341.375 600.875 L 340.554688 603.417969 L 339.539062 606.039062 L 338.320312 608.679688 L 337.128906 610.902344 L 335.871094 612.953125 L 334.511719 614.929688 L 333.078125 616.800781 L 331.605469 618.554688 L 330.125 620.179688 L 328.648438 621.703125 L 327.183594 623.171875 L 325.636719 624.585938 L 323.824219 625.84375 L 321.613281 626.828125 L 318.929688 627.4375 L 315.746094 627.609375 L 312.070312 627.289062 Z M 310.527344 627.03125 "/>
<path style=" stroke:none;fill-rule:nonzero;fill:rgb(95.686275%,95.686275%,95.686275%);fill-opacity:1;" d="M 115.351562 350.957031 L 112.992188 350.65625 L 110.675781 349.789062 L 108.457031 348.445312 L 106.375 346.753906 L 104.410156 344.875 L 102.488281 342.941406 L 100.617188 340.933594 L 98.886719 338.820312 L 97.402344 336.632812 L 96.25 334.417969 L 95.855469 333.417969 L 95.238281 331.003906 L 95.109375 328.695312 L 95.402344 326.558594 L 96 324.605469 L 96.726562 322.757812 L 97.53125 320.855469 L 98.535156 318.792969 L 99.796875 316.554688 L 101.324219 314.199219 L 101.898438 313.386719 L 103.527344 311.238281 L 105.300781 309.097656 L 107.15625 307.015625 L 109.039062 305.03125 L 110.902344 303.140625 L 112.761719 301.296875 L 114.703125 299.558594 L 116.769531 298.074219 L 118.949219 296.980469 L 121.203125 296.386719 L 122.464844 296.300781 L 124.785156 296.597656 L 127.058594 297.460938 L 129.234375 298.792969 L 131.277344 300.464844 L 133.203125 302.320312 L 135.09375 304.226562 L 136.929688 306.210938 L 138.628906 308.300781 L 140.089844 310.472656 L 141.222656 312.671875 L 141.511719 313.386719 L 142.1875 315.785156 L 142.394531 318.078125 L 142.203125 320.214844 L 141.71875 322.171875 L 141.113281 324.03125 L 140.421875 325.949219 L 139.515625 328.042969 L 138.328125 330.316406 L 136.84375 332.722656 L 136.367188 333.417969 L 134.78125 335.582031 L 133.027344 337.742188 L 131.167969 339.855469 L 129.269531 341.871094 L 127.371094 343.796875 L 125.480469 345.675781 L 123.515625 347.460938 L 121.425781 349 L 119.214844 350.160156 L 116.925781 350.824219 Z M 115.351562 350.957031 "/>
<path style=" stroke:none;fill-rule:nonzero;fill:rgb(95.686275%,95.686275%,95.686275%);fill-opacity:1;" d="M 357.179688 140.453125 L 354.882812 140.164062 L 352.632812 139.320312 L 350.480469 138.011719 L 348.457031 136.363281 L 346.546875 134.535156 L 344.675781 132.65625 L 342.824219 130.691406 L 341.054688 128.605469 L 339.445312 126.417969 L 338.074219 124.175781 L 337.574219 123.207031 L 336.550781 120.734375 L 335.902344 118.335938 L 335.601562 116.078125 L 335.558594 113.980469 L 335.640625 111.992188 L 335.800781 109.957031 L 336.167969 107.765625 L 336.832031 105.417969 L 337.847656 102.964844 L 338.378906 101.914062 L 339.714844 99.671875 L 341.292969 97.457031 L 343.039062 95.324219 L 344.878906 93.3125 L 346.75 91.402344 L 348.628906 89.542969 L 350.589844 87.796875 L 352.683594 86.3125 L 354.894531 85.234375 L 357.171875 84.671875 L 358.28125 84.605469 L 360.582031 84.894531 L 362.835938 85.742188 L 364.996094 87.050781 L 367.027344 88.699219 L 368.941406 90.53125 L 370.816406 92.417969 L 372.671875 94.382812 L 374.445312 96.472656 L 376.058594 98.660156 L 377.429688 100.90625 L 377.949219 101.914062 L 378.964844 104.390625 L 379.601562 106.792969 L 379.886719 109.050781 L 379.914062 111.144531 L 379.8125 113.136719 L 379.636719 115.171875 L 379.257812 117.359375 L 378.578125 119.703125 L 377.558594 122.152344 L 377.019531 123.207031 L 375.675781 125.445312 L 374.097656 127.65625 L 372.351562 129.785156 L 370.515625 131.796875 L 368.648438 133.699219 L 366.773438 135.554688 L 364.8125 137.296875 L 362.726562 138.769531 L 360.519531 139.835938 L 358.246094 140.390625 Z M 357.179688 140.453125 "/>
<path style=" stroke:none;fill-rule:nonzero;fill:rgb(95.686275%,95.686275%,95.686275%);fill-opacity:1;" d="M 449.5 616.921875 L 447.171875 616.625 L 444.890625 615.773438 L 442.703125 614.445312 L 440.648438 612.78125 L 438.710938 610.925781 L 436.8125 609.015625 L 434.945312 607.035156 L 433.179688 604.945312 L 431.609375 602.769531 L 430.308594 600.558594 L 429.824219 599.554688 L 428.929688 597.082031 L 428.476562 594.714844 L 428.414062 592.519531 L 428.632812 590.503906 L 428.96875 588.585938 L 429.34375 586.605469 L 429.800781 584.472656 L 430.355469 582.195312 L 431.011719 579.835938 L 431.125 579.453125 L 431.828125 577.230469 L 432.589844 575.050781 L 433.371094 572.96875 L 434.15625 571.015625 L 434.925781 569.164062 L 435.734375 567.285156 L 436.71875 565.253906 L 437.964844 563.023438 L 439.503906 560.621094 L 440.914062 558.636719 L 442.640625 556.40625 L 444.527344 554.15625 L 446.511719 551.9375 L 448.535156 549.792969 L 450.554688 547.734375 L 452.554688 545.734375 L 454.597656 543.789062 L 456.753906 542.027344 L 459.042969 540.585938 L 461.429688 539.589844 L 463.871094 539.121094 L 464.65625 539.089844 L 466.933594 539.339844 L 469.175781 540.0625 L 471.351562 541.207031 L 473.425781 542.6875 L 475.382812 544.398438 L 477.261719 546.230469 L 479.105469 548.105469 L 480.878906 550.097656 L 482.488281 552.296875 L 483.839844 554.71875 L 484.851562 557.355469 L 485.472656 560.171875 L 485.542969 560.746094 L 485.660156 563.59375 L 485.398438 566.535156 L 484.796875 569.507812 L 483.910156 572.453125 L 482.8125 575.332031 L 481.585938 578.140625 L 480.320312 580.917969 L 479.011719 583.730469 L 477.613281 586.605469 L 476.117188 589.519531 L 474.523438 592.417969 L 472.855469 595.246094 L 471.507812 597.382812 L 469.488281 600.34375 L 467.457031 603.050781 L 465.457031 605.480469 L 463.535156 607.617188 L 461.691406 609.523438 L 459.894531 611.320312 L 458.046875 613.050781 L 456.09375 614.59375 L 454.019531 615.816406 L 451.863281 616.617188 L 449.664062 616.921875 Z M 449.5 616.921875 "/>
<path style=" stroke:none;fill-rule:nonzero;fill:rgb(95.686275%,95.686275%,95.686275%);fill-opacity:1;" d="M 184.707031 413.09375 L 182.425781 412.804688 L 180.1875 411.972656 L 178.042969 410.683594 L 176.023438 409.054688 L 174.121094 407.242188 L 172.257812 405.375 L 170.386719 403.433594 L 168.539062 401.378906 L 166.777344 399.226562 L 165.164062 397.03125 L 164.378906 395.84375 L 162.960938 393.402344 L 161.84375 391.050781 L 161.019531 388.847656 L 160.429688 386.8125 L 159.960938 384.878906 L 159.574219 382.898438 L 159.417969 380.75 L 159.628906 378.421875 L 160.273438 375.960938 L 160.664062 374.945312 L 161.785156 372.699219 L 163.222656 370.457031 L 164.914062 368.28125 L 166.765625 366.203125 L 168.6875 364.226562 L 170.632812 362.292969 L 172.65625 360.46875 L 174.808594 358.894531 L 177.085938 357.726562 L 179.441406 357.070312 L 180.929688 356.953125 L 183.277344 357.242188 L 185.585938 358.082031 L 187.796875 359.394531 L 189.882812 361.046875 L 191.851562 362.90625 L 193.769531 364.824219 L 195.683594 366.804688 L 197.566406 368.890625 L 199.34375 371.070312 L 200.953125 373.292969 L 202 374.945312 L 203.335938 377.453125 L 204.316406 379.851562 L 204.96875 382.082031 L 205.359375 384.132812 L 205.621094 386.074219 L 205.804688 388.066406 L 205.761719 390.21875 L 205.382812 392.535156 L 204.605469 394.960938 L 204.226562 395.84375 L 203.046875 398.070312 L 201.578125 400.277344 L 199.886719 402.410156 L 198.0625 404.429688 L 196.1875 406.347656 L 194.292969 408.21875 L 192.3125 409.96875 L 190.199219 411.445312 L 187.972656 412.503906 L 185.675781 413.039062 Z M 184.707031 413.09375 "/>
<path style=" stroke:none;fill-rule:nonzero;fill:rgb(95.686275%,95.686275%,95.686275%);fill-opacity:1;" d="M 586.628906 514.664062 L 584.351562 514.378906 L 582.113281 513.550781 L 579.972656 512.265625 L 577.957031 510.644531 L 576.054688 508.835938 L 574.195312 506.96875 L 572.320312 505.03125 L 570.460938 502.972656 L 568.671875 500.808594 L 567.015625 498.582031 L 566.144531 497.285156 L 564.816406 495.082031 L 563.710938 492.929688 L 562.828125 490.875 L 562.148438 488.953125 L 561.609375 487.140625 L 561.125 485.371094 L 560.75 483.503906 L 560.617188 481.46875 L 560.828125 479.242188 L 561.449219 476.859375 L 562.109375 475.1875 L 563.324219 472.851562 L 564.867188 470.476562 L 566.679688 468.125 L 568.675781 465.835938 L 570.773438 463.632812 L 572.90625 461.488281 L 575.070312 459.390625 L 577.351562 457.457031 L 579.761719 455.832031 L 582.292969 454.640625 L 584.890625 453.980469 L 586.519531 453.863281 L 589.136719 454.164062 L 591.710938 455.03125 L 594.203125 456.402344 L 596.5625 458.160156 L 598.792969 460.171875 L 600.9375 462.292969 L 603.0625 464.453125 L 605.132812 466.6875 L 607.070312 469.003906 L 608.796875 471.371094 L 610.230469 473.734375 L 610.953125 475.1875 L 611.875 477.652344 L 612.371094 479.988281 L 612.480469 482.15625 L 612.273438 484.132812 L 611.863281 485.957031 L 611.386719 487.726562 L 610.828125 489.570312 L 610.101562 491.542969 L 609.160156 493.632812 L 607.996094 495.808594 L 607.09375 497.285156 L 605.554688 499.523438 L 603.84375 501.726562 L 602.019531 503.851562 L 600.148438 505.859375 L 598.28125 507.761719 L 596.414062 509.613281 L 594.46875 511.359375 L 592.394531 512.859375 L 590.207031 513.960938 L 587.945312 514.566406 Z M 586.628906 514.664062 "/>
<path style=" stroke:none;fill-rule:nonzero;fill:rgb(95.686275%,95.686275%,95.686275%);fill-opacity:1;" d="M 147.859375 263.777344 L 145.773438 263.539062 L 143.722656 262.839844 L 141.738281 261.746094 L 139.859375 260.339844 L 138.085938 258.734375 L 136.378906 257.042969 L 134.691406 255.292969 L 133.082031 253.378906 L 131.617188 251.234375 L 130.382812 248.847656 L 129.441406 246.246094 L 129.058594 244.691406 L 128.660156 241.953125 L 128.574219 239.113281 L 128.765625 236.230469 L 129.199219 233.367188 L 129.804688 230.570312 L 130.503906 227.835938 L 131.234375 225.101562 L 132.046875 222.300781 L 133.003906 219.414062 L 134.128906 216.476562 L 135.433594 213.542969 L 136.902344 210.675781 L 137.105469 210.3125 L 138.84375 207.425781 L 140.71875 204.714844 L 142.671875 202.210938 L 144.652344 199.941406 L 146.617188 197.875 L 148.5625 195.925781 L 150.539062 194.023438 L 152.621094 192.289062 L 154.828125 190.847656 L 157.140625 189.820312 L 159.507812 189.285156 L 160.640625 189.222656 L 163.101562 189.519531 L 165.519531 190.375 L 167.847656 191.710938 L 170.050781 193.414062 L 172.125 195.339844 L 174.136719 197.34375 L 176.132812 199.398438 L 178.078125 201.550781 L 179.894531 203.789062 L 181.507812 206.078125 L 182.84375 208.359375 L 182.953125 208.574219 L 184.101562 211.214844 L 184.804688 213.730469 L 185.109375 216.050781 L 185.109375 218.171875 L 184.96875 220.171875 L 184.773438 222.207031 L 184.441406 224.339844 L 183.921875 226.550781 L 183.183594 228.765625 L 182.886719 229.503906 L 181.902344 231.570312 L 180.753906 233.519531 L 179.5 235.3125 L 178.203125 236.933594 L 176.898438 238.449219 L 175.550781 239.996094 L 174.042969 241.695312 L 172.339844 243.582031 L 170.445312 245.628906 L 169.222656 246.933594 L 167.320312 248.933594 L 165.351562 250.964844 L 163.378906 252.980469 L 161.445312 254.933594 L 159.570312 256.8125 L 157.71875 258.652344 L 155.789062 260.398438 L 153.738281 261.902344 L 151.570312 263.023438 L 149.328125 263.65625 Z M 147.859375 263.777344 "/>
<path style=" stroke:none;fill-rule:nonzero;fill:rgb(95.686275%,95.686275%,95.686275%);fill-opacity:1;" d="M 371.257812 631.324219 L 368.445312 630.5625 L 365.84375 629.476562 L 363.484375 628.121094 L 361.378906 626.566406 L 359.496094 624.890625 L 357.742188 623.167969 L 356.039062 621.414062 L 354.453125 619.578125 L 353.101562 617.632812 L 352.085938 615.59375 L 351.488281 613.488281 L 351.34375 611.847656 L 351.628906 609.527344 L 352.457031 607.25 L 353.75 605.0625 L 355.382812 603.003906 L 357.214844 601.058594 L 359.109375 599.164062 L 361.058594 597.25 L 363.101562 595.320312 L 365.214844 593.421875 L 367.355469 591.613281 L 368.984375 590.328125 L 371.332031 588.613281 L 373.558594 587.15625 L 375.609375 585.960938 L 377.472656 584.996094 L 379.226562 584.152344 L 381.019531 583.324219 L 382.957031 582.523438 L 385.0625 581.789062 L 387.285156 581.164062 L 388.367188 580.914062 L 390.691406 580.5 L 393 580.234375 L 395.222656 580.109375 L 397.320312 580.089844 L 399.335938 580.121094 L 401.402344 580.226562 L 403.621094 580.539062 L 406 581.164062 L 408.476562 582.144531 L 409.453125 582.621094 L 411.707031 583.933594 L 413.929688 585.488281 L 416.066406 587.226562 L 418.085938 589.0625 L 419.992188 590.929688 L 421.855469 592.8125 L 423.601562 594.777344 L 425.085938 596.871094 L 426.15625 599.082031 L 426.71875 601.359375 L 426.785156 602.449219 L 426.515625 604.65625 L 425.734375 606.828125 L 424.515625 608.910156 L 422.972656 610.875 L 421.234375 612.726562 L 419.429688 614.53125 L 417.511719 616.355469 L 415.34375 618.210938 L 412.882812 620.058594 L 410.125 621.84375 L 407.464844 623.335938 L 404.671875 624.695312 L 401.757812 625.933594 L 398.777344 627.03125 L 395.804688 627.992188 L 392.882812 628.832031 L 390.019531 629.585938 L 387.171875 630.308594 L 384.273438 630.964844 L 381.308594 631.476562 L 378.3125 631.769531 L 375.335938 631.800781 L 372.453125 631.53125 Z M 371.257812 631.324219 "/>
<path style=" stroke:none;fill-rule:nonzero;fill:rgb(95.686275%,95.686275%,95.686275%);fill-opacity:1;" d="M 283.503906 211.304688 L 281.207031 211.015625 L 278.953125 210.179688 L 276.792969 208.882812 L 274.765625 207.246094 L 272.847656 205.421875 L 270.972656 203.539062 L 269.101562 201.582031 L 267.273438 199.507812 L 265.554688 197.328125 L 264.023438 195.09375 L 263.28125 193.863281 L 262.019531 191.378906 L 261.089844 188.976562 L 260.46875 186.714844 L 260.097656 184.617188 L 259.851562 182.625 L 259.679688 180.589844 L 259.71875 178.40625 L 260.082031 176.0625 L 260.828125 173.609375 L 261.316406 172.449219 L 262.503906 170.1875 L 263.984375 167.957031 L 265.679688 165.808594 L 267.503906 163.777344 L 269.382812 161.855469 L 271.28125 159.980469 L 273.261719 158.21875 L 275.375 156.730469 L 277.601562 155.652344 L 279.902344 155.097656 L 280.96875 155.035156 L 283.261719 155.324219 L 285.511719 156.15625 L 287.667969 157.457031 L 289.699219 159.089844 L 291.613281 160.914062 L 293.484375 162.792969 L 295.355469 164.75 L 297.183594 166.824219 L 298.898438 169 L 300.429688 171.234375 L 301.164062 172.449219 L 302.429688 174.929688 L 303.363281 177.332031 L 303.988281 179.59375 L 304.367188 181.691406 L 304.621094 183.683594 L 304.800781 185.714844 L 304.769531 187.902344 L 304.410156 190.246094 L 303.667969 192.699219 L 303.183594 193.863281 L 301.996094 196.125 L 300.519531 198.355469 L 298.824219 200.507812 L 296.996094 202.539062 L 295.117188 204.464844 L 293.21875 206.34375 L 291.234375 208.105469 L 289.121094 209.597656 L 286.890625 210.679688 L 284.589844 211.242188 Z M 283.503906 211.304688 "/>
<path style=" stroke:none;fill-rule:nonzero;fill:rgb(95.686275%,95.686275%,95.686275%);fill-opacity:1;" d="M 201.277344 566.746094 L 198.789062 566.453125 L 196.335938 565.605469 L 193.976562 564.28125 L 191.738281 562.585938 L 189.628906 560.65625 L 187.589844 558.632812 L 185.550781 556.574219 L 183.5 554.453125 L 181.480469 552.28125 L 179.554688 550.101562 L 177.78125 547.964844 L 177.167969 547.1875 L 175.492188 544.921875 L 174.101562 542.828125 L 173.003906 540.941406 L 172.160156 539.261719 L 171.472656 537.730469 L 170.84375 536.207031 L 170.363281 534.5625 L 170.15625 532.757812 L 170.3125 530.796875 L 170.878906 528.722656 L 170.898438 528.667969 L 171.875 526.570312 L 173.210938 524.449219 L 174.832031 522.367188 L 176.636719 520.359375 L 178.523438 518.4375 L 180.4375 516.554688 L 182.449219 514.804688 L 184.597656 513.355469 L 186.859375 512.351562 L 189.179688 511.894531 L 189.792969 511.875 L 192.039062 512.15625 L 194.246094 512.964844 L 196.359375 514.226562 L 198.351562 515.820312 L 200.226562 517.601562 L 202.066406 519.4375 L 203.953125 521.332031 L 205.910156 523.304688 L 207.90625 525.339844 L 209.898438 527.382812 L 211.140625 528.667969 L 213.21875 530.84375 L 215.152344 532.890625 L 216.902344 534.765625 L 218.46875 536.464844 L 219.921875 538.054688 L 221.292969 539.6875 L 222.40625 541.503906 L 223.078125 543.558594 L 223.167969 545.828125 L 222.933594 547.1875 L 222.167969 549.363281 L 220.941406 551.601562 L 219.332031 553.851562 L 217.445312 556.054688 L 215.402344 558.191406 L 213.308594 560.285156 L 211.148438 562.300781 L 208.859375 564.09375 L 206.4375 565.507812 L 203.914062 566.417969 L 201.347656 566.742188 Z M 201.277344 566.746094 "/>
<path style=" stroke:none;fill-rule:nonzero;fill:rgb(95.686275%,95.686275%,95.686275%);fill-opacity:1;" d="M 532.15625 575.703125 L 529.722656 576.390625 L 527.402344 576.601562 L 525.253906 576.390625 L 523.289062 575.886719 L 521.425781 575.246094 L 519.511719 574.527344 L 517.425781 573.605469 L 515.167969 572.40625 L 512.78125 570.921875 L 512 570.390625 L 509.839844 568.796875 L 507.683594 567.039062 L 505.582031 565.183594 L 503.578125 563.292969 L 501.667969 561.410156 L 499.800781 559.53125 L 498.035156 557.574219 L 496.519531 555.496094 L 495.390625 553.296875 L 494.757812 551.019531 L 494.644531 549.585938 L 494.941406 547.246094 L 495.800781 544.949219 L 497.136719 542.753906 L 498.816406 540.691406 L 500.679688 538.746094 L 502.597656 536.839844 L 504.59375 534.980469 L 506.691406 533.246094 L 508.871094 531.738281 L 511.078125 530.542969 L 512 530.152344 L 514.421875 529.429688 L 516.734375 529.171875 L 518.882812 529.324219 L 520.851562 529.761719 L 522.714844 530.328125 L 524.644531 530.980469 L 526.742188 531.847656 L 529.023438 533 L 531.4375 534.460938 L 532.15625 534.941406 L 534.324219 536.511719 L 536.492188 538.257812 L 538.609375 540.113281 L 540.636719 542.015625 L 542.566406 543.914062 L 544.453125 545.8125 L 546.242188 547.78125 L 547.792969 549.878906 L 548.960938 552.09375 L 549.636719 554.390625 L 549.777344 556.007812 L 549.476562 558.371094 L 548.613281 560.691406 L 547.269531 562.910156 L 545.582031 564.996094 L 543.703125 566.964844 L 541.765625 568.890625 L 539.761719 570.769531 L 537.652344 572.519531 L 535.460938 574.042969 L 533.246094 575.246094 Z M 532.15625 575.703125 "/>
<path style=" stroke:none;fill-rule:nonzero;fill:rgb(95.686275%,95.686275%,95.686275%);fill-opacity:1;" d="M 164.453125 495.933594 L 161.972656 496.675781 L 159.648438 496.929688 L 157.519531 496.742188 L 155.59375 496.203125 L 153.839844 495.441406 L 152.144531 494.605469 L 150.382812 493.695312 L 148.496094 492.636719 L 146.484375 491.390625 L 144.378906 489.964844 L 142.75 488.769531 L 140.558594 487.042969 L 138.386719 485.203125 L 136.289062 483.304688 L 134.296875 481.40625 L 132.410156 479.539062 L 130.566406 477.683594 L 128.824219 475.753906 L 127.324219 473.703125 L 126.203125 471.53125 L 125.574219 469.285156 L 125.460938 467.847656 L 125.746094 465.5625 L 126.578125 463.324219 L 127.867188 461.179688 L 129.496094 459.160156 L 131.308594 457.253906 L 133.179688 455.390625 L 135.121094 453.519531 L 137.175781 451.667969 L 139.328125 449.898438 L 141.53125 448.277344 L 142.75 447.472656 L 144.933594 446.183594 L 147.058594 445.132812 L 149.070312 444.316406 L 150.953125 443.707031 L 152.714844 443.242188 L 154.449219 442.832031 L 156.289062 442.550781 L 158.332031 442.535156 L 160.585938 442.898438 L 163.023438 443.691406 L 164.453125 444.332031 L 166.78125 445.632812 L 169.164062 447.25 L 171.554688 449.125 L 173.902344 451.183594 L 176.175781 453.34375 L 178.390625 455.542969 L 180.570312 457.765625 L 182.613281 460.082031 L 184.382812 462.539062 L 185.75 465.117188 L 186.609375 467.78125 L 186.890625 470.40625 L 186.585938 473.121094 L 185.703125 475.800781 L 184.308594 478.390625 L 182.511719 480.851562 L 180.445312 483.179688 L 178.25 485.410156 L 176.019531 487.617188 L 173.722656 489.761719 L 171.359375 491.757812 L 168.953125 493.519531 L 166.558594 494.960938 Z M 164.453125 495.933594 "/>
<path style=" stroke:none;fill-rule:nonzero;fill:rgb(95.686275%,95.686275%,95.686275%);fill-opacity:1;" d="M 607.101562 261.167969 L 604.925781 261.460938 L 602.953125 261.15625 L 601.210938 260.351562 L 599.6875 259.222656 L 598.253906 257.96875 L 596.71875 256.597656 L 594.9375 254.980469 L 592.882812 253.066406 L 590.585938 250.886719 L 590.558594 250.863281 L 588.578125 248.953125 L 586.511719 246.941406 L 584.414062 244.875 L 582.332031 242.8125 L 580.300781 240.785156 L 578.308594 238.789062 L 576.367188 236.75 L 574.617188 234.59375 L 573.191406 232.308594 L 572.214844 229.925781 L 571.765625 227.488281 L 571.742188 226.796875 L 572.003906 224.472656 L 572.765625 222.179688 L 573.960938 219.960938 L 575.507812 217.851562 L 577.28125 215.863281 L 579.160156 213.949219 L 581.082031 212.078125 L 583.085938 210.328125 L 585.214844 208.832031 L 587.445312 207.691406 L 589.746094 207.003906 L 591.730469 206.8125 L 594.171875 207.101562 L 596.578125 207.9375 L 598.894531 209.246094 L 601.085938 210.921875 L 603.15625 212.820312 L 605.15625 214.808594 L 607.167969 216.832031 L 609.21875 218.90625 L 611.273438 221.019531 L 613.285156 223.121094 L 615.199219 225.160156 L 615.707031 225.714844 L 617.824219 228.054688 L 619.667969 230.171875 L 621.210938 232.019531 L 622.503906 233.628906 L 623.675781 235.128906 L 624.730469 236.71875 L 625.476562 238.511719 L 625.742188 240.527344 L 625.429688 242.734375 L 625.390625 242.875 L 624.585938 244.917969 L 623.355469 247.023438 L 621.773438 249.121094 L 619.960938 251.164062 L 618.03125 253.144531 L 616.070312 255.089844 L 614.058594 256.957031 L 611.984375 258.628906 L 609.898438 259.984375 L 607.855469 260.925781 Z M 607.101562 261.167969 "/>
<path style=" stroke:none;fill-rule:nonzero;fill:rgb(95.686275%,95.686275%,95.686275%);fill-opacity:1;" d="M 238.664062 230.554688 L 236.375 230.261719 L 234.132812 229.425781 L 231.984375 228.121094 L 229.960938 226.484375 L 228.054688 224.664062 L 226.1875 222.789062 L 224.332031 220.832031 L 222.53125 218.757812 L 220.863281 216.578125 L 219.398438 214.347656 L 218.796875 213.289062 L 217.730469 211.0625 L 216.941406 208.890625 L 216.425781 206.824219 L 216.136719 204.890625 L 215.996094 203.074219 L 215.90625 201.285156 L 215.929688 199.40625 L 216.167969 197.371094 L 216.703125 195.195312 L 217.566406 192.910156 L 218.066406 191.855469 L 219.363281 189.589844 L 220.925781 187.328125 L 222.699219 185.125 L 224.59375 183.019531 L 226.539062 181.015625 L 228.5 179.0625 L 230.527344 177.199219 L 232.679688 175.5625 L 234.960938 174.304688 L 237.324219 173.539062 L 239.347656 173.328125 L 241.75 173.625 L 244.109375 174.476562 L 246.371094 175.808594 L 248.507812 177.492188 L 250.523438 179.386719 L 252.480469 181.351562 L 254.425781 183.371094 L 256.292969 185.5 L 258.007812 187.71875 L 259.484375 189.992188 L 260.480469 191.855469 L 261.492188 194.40625 L 262.082031 196.851562 L 262.285156 199.128906 L 262.199219 201.222656 L 261.972656 203.195312 L 261.675781 205.214844 L 261.183594 207.382812 L 260.40625 209.707031 L 259.304688 212.136719 L 258.679688 213.289062 L 257.277344 215.523438 L 255.65625 217.730469 L 253.886719 219.855469 L 252.042969 221.863281 L 250.175781 223.761719 L 248.304688 225.617188 L 246.347656 227.359375 L 244.265625 228.839844 L 242.066406 229.914062 L 239.796875 230.480469 Z M 238.664062 230.554688 "/>
<path style=" stroke:none;fill-rule:nonzero;fill:rgb(95.686275%,95.686275%,95.686275%);fill-opacity:1;" d="M 137.226562 414.804688 L 134.910156 415.285156 L 132.71875 415.246094 L 130.707031 414.769531 L 128.878906 413.992188 L 127.152344 413.09375 L 125.351562 412.101562 L 123.363281 410.894531 L 121.183594 409.421875 L 118.851562 407.6875 L 118.414062 407.339844 L 116.324219 405.628906 L 114.21875 403.789062 L 112.144531 401.878906 L 110.144531 399.957031 L 108.230469 398.058594 L 106.355469 396.175781 L 104.578125 394.21875 L 103.035156 392.132812 L 101.875 389.933594 L 101.207031 387.652344 L 101.066406 386.042969 L 101.371094 383.667969 L 102.246094 381.339844 L 103.605469 379.113281 L 105.3125 377.019531 L 107.207031 375.046875 L 109.15625 373.113281 L 111.171875 371.253906 L 113.277344 369.566406 L 115.441406 368.171875 L 117.609375 367.160156 L 118.414062 366.890625 L 120.746094 366.46875 L 122.941406 366.585938 L 124.953125 367.15625 L 126.773438 368.039062 L 128.484375 369.058594 L 130.261719 370.15625 L 132.210938 371.449219 L 134.34375 372.984375 L 136.617188 374.75 L 137.226562 375.246094 L 139.300781 377 L 141.386719 378.863281 L 143.433594 380.769531 L 145.398438 382.671875 L 147.277344 384.535156 L 149.117188 386.390625 L 150.851562 388.320312 L 152.335938 390.378906 L 153.433594 392.550781 L 154.035156 394.796875 L 154.128906 396.101562 L 153.828125 398.433594 L 152.953125 400.722656 L 151.605469 402.910156 L 149.914062 404.960938 L 148.046875 406.894531 L 146.128906 408.792969 L 144.136719 410.621094 L 142.050781 412.269531 L 139.90625 413.636719 L 137.757812 414.625 Z M 137.226562 414.804688 "/>
<path style=" stroke:none;fill-rule:nonzero;fill:rgb(95.686275%,95.686275%,95.686275%);fill-opacity:1;" d="M 289.828125 259.582031 L 287.664062 258.839844 L 285.480469 257.648438 L 283.335938 256.097656 L 281.277344 254.300781 L 279.304688 252.378906 L 277.371094 250.421875 L 275.570312 248.367188 L 274.066406 246.175781 L 273.003906 243.867188 L 272.488281 241.492188 L 272.453125 240.671875 L 272.738281 238.375 L 273.558594 236.121094 L 274.839844 233.957031 L 276.457031 231.917969 L 278.273438 229.996094 L 280.148438 228.117188 L 282.078125 226.210938 L 284.09375 224.265625 L 286.175781 222.320312 L 288.277344 220.425781 L 289.828125 219.085938 L 292.136719 217.175781 L 294.316406 215.476562 L 296.316406 214.015625 L 298.128906 212.769531 L 299.828125 211.640625 L 301.582031 210.59375 L 303.5 209.792969 L 305.601562 209.394531 L 307.839844 209.503906 L 308.703125 209.6875 L 310.851562 210.464844 L 313.015625 211.671875 L 315.132812 213.222656 L 317.15625 215.003906 L 319.09375 216.898438 L 320.988281 218.828125 L 322.742188 220.859375 L 324.1875 223.023438 L 325.179688 225.304688 L 325.613281 227.640625 L 325.628906 228.152344 L 325.34375 230.40625 L 324.53125 232.621094 L 323.261719 234.742188 L 321.660156 236.738281 L 319.871094 238.625 L 318.027344 240.46875 L 316.125 242.351562 L 314.128906 244.285156 L 312.066406 246.234375 L 309.984375 248.144531 L 308.703125 249.289062 L 306.445312 251.238281 L 304.304688 253.003906 L 302.332031 254.558594 L 300.535156 255.917969 L 298.851562 257.160156 L 297.117188 258.324219 L 295.222656 259.25 L 293.136719 259.773438 L 290.902344 259.773438 Z M 289.828125 259.582031 "/>
<path style=" stroke:none;fill-rule:nonzero;fill:rgb(95.686275%,95.686275%,95.686275%);fill-opacity:1;" d="M 514.546875 200.839844 L 512.324219 201.769531 L 510.164062 202.386719 L 508.113281 202.707031 L 506.203125 202.785156 L 504.40625 202.714844 L 502.636719 202.589844 L 500.769531 202.355469 L 498.746094 201.902344 L 496.574219 201.164062 L 494.296875 200.121094 L 493.359375 199.613281 L 491.109375 198.210938 L 488.863281 196.574219 L 486.671875 194.757812 L 484.574219 192.84375 L 482.574219 190.894531 L 480.625 188.9375 L 478.753906 186.917969 L 477.113281 184.773438 L 475.839844 182.5 L 475.054688 180.144531 L 474.820312 178.011719 L 475.117188 175.597656 L 475.980469 173.222656 L 477.320312 170.949219 L 479.015625 168.800781 L 480.921875 166.777344 L 482.894531 164.808594 L 484.929688 162.867188 L 487.066406 161.019531 L 489.292969 159.351562 L 491.5625 157.957031 L 493.359375 157.085938 L 495.890625 156.230469 L 498.308594 155.835938 L 500.558594 155.851562 L 502.621094 156.164062 L 504.566406 156.621094 L 506.550781 157.152344 L 508.6875 157.871094 L 510.988281 158.855469 L 513.398438 160.140625 L 514.546875 160.839844 L 516.761719 162.351562 L 518.949219 164.042969 L 521.0625 165.855469 L 523.066406 167.722656 L 524.964844 169.589844 L 526.816406 171.457031 L 528.5625 173.40625 L 530.050781 175.480469 L 531.144531 177.671875 L 531.734375 179.933594 L 531.820312 181.179688 L 531.527344 183.480469 L 530.683594 185.738281 L 529.371094 187.898438 L 527.722656 189.929688 L 525.886719 191.847656 L 524 193.726562 L 522.03125 195.582031 L 519.949219 197.355469 L 517.765625 198.964844 L 515.535156 200.328125 Z M 514.546875 200.839844 "/>
<path style=" stroke:none;fill-rule:nonzero;fill:rgb(95.686275%,95.686275%,95.686275%);fill-opacity:1;" d="M 569.210938 410.769531 L 566.925781 411.441406 L 564.753906 411.675781 L 562.742188 411.523438 L 560.910156 411.0625 L 559.214844 410.421875 L 557.550781 409.722656 L 555.796875 408.925781 L 553.902344 407.949219 L 551.871094 406.761719 L 549.75 405.359375 L 548.886719 404.746094 L 546.738281 403.105469 L 544.59375 401.324219 L 542.511719 399.460938 L 540.527344 397.574219 L 538.640625 395.710938 L 536.792969 393.847656 L 535.054688 391.910156 L 533.566406 389.84375 L 532.46875 387.664062 L 531.871094 385.410156 L 531.777344 384.121094 L 532.070312 381.816406 L 532.921875 379.554688 L 534.238281 377.394531 L 535.894531 375.359375 L 537.734375 373.441406 L 539.625 371.5625 L 541.589844 369.707031 L 543.664062 367.945312 L 545.820312 366.355469 L 548.003906 365.019531 L 548.886719 364.566406 L 551.070312 363.660156 L 553.175781 363.085938 L 555.15625 362.820312 L 556.988281 362.804688 L 558.699219 362.9375 L 560.398438 363.121094 L 562.21875 363.441406 L 564.214844 364.007812 L 566.386719 364.882812 L 568.6875 366.085938 L 569.210938 366.398438 L 571.421875 367.855469 L 573.65625 369.546875 L 575.867188 371.414062 L 578.003906 373.378906 L 580.058594 375.378906 L 582.0625 377.382812 L 584 379.441406 L 585.734375 381.621094 L 587.121094 383.929688 L 588.039062 386.335938 L 588.410156 388.789062 L 588.417969 389.117188 L 588.113281 391.605469 L 587.242188 394.054688 L 585.878906 396.40625 L 584.144531 398.628906 L 582.191406 400.722656 L 580.160156 402.753906 L 578.082031 404.753906 L 575.914062 406.648438 L 573.675781 408.34375 L 571.410156 409.746094 Z M 569.210938 410.769531 "/>
<path style="fill:none;stroke-width:0.75;stroke-linecap:round;stroke-linejoin:round;stroke:rgb(66.27451%,66.27451%,66.27451%);stroke-opacity:1;stroke-miterlimit:10;" d="M 475.3125 495.828125 L 479.441406 510.867188 "/>
<path style="fill:none;stroke-width:0.75;stroke-linecap:round;stroke-linejoin:round;stroke:rgb(66.27451%,66.27451%,66.27451%);stroke-opacity:1;stroke-miterlimit:10;" d="M 500.398438 136.257812 L 507.539062 137.347656 "/>
<path style="fill:none;stroke-width:0.75;stroke-linecap:round;stroke-linejoin:round;stroke:rgb(66.27451%,66.27451%,66.27451%);stroke-opacity:1;stroke-miterlimit:10;" d="M 171.5625 321.0625 L 179.921875 327.507812 "/>
<path style="fill:none;stroke-width:0.75;stroke-linecap:round;stroke-linejoin:round;stroke:rgb(66.27451%,66.27451%,66.27451%);stroke-opacity:1;stroke-miterlimit:10;" d="M 309.226562 120.160156 L 309.164062 136.429688 "/>
<path style="fill:none;stroke-width:0.75;stroke-linecap:round;stroke-linejoin:round;stroke:rgb(66.27451%,66.27451%,66.27451%);stroke-opacity:1;stroke-miterlimit:10;" d="M 310.304688 114.285156 L 315.839844 99.488281 "/>
<path style="fill:none;stroke-width:0.75;stroke-linecap:round;stroke-linejoin:round;stroke:rgb(66.27451%,66.27451%,66.27451%);stroke-opacity:1;stroke-miterlimit:10;" d="M 439.339844 278.625 L 442.160156 275.542969 "/>
<path style="fill:none;stroke-width:0.75;stroke-linecap:round;stroke-linejoin:round;stroke:rgb(66.27451%,66.27451%,66.27451%);stroke-opacity:1;stroke-miterlimit:10;" d="M 240.355469 569 L 255.863281 560.332031 "/>
<path style="fill:none;stroke-width:0.75;stroke-linecap:round;stroke-linejoin:round;stroke:rgb(66.27451%,66.27451%,66.27451%);stroke-opacity:1;stroke-miterlimit:10;" d="M 116.5 329.933594 L 121.546875 316.179688 "/>
<path style="fill:none;stroke-width:0.75;stroke-linecap:round;stroke-linejoin:round;stroke:rgb(66.27451%,66.27451%,66.27451%);stroke-opacity:1;stroke-miterlimit:10;" d="M 321.703125 583.597656 L 306.140625 591.011719 "/>
<path style="fill:none;stroke-width:0.75;stroke-linecap:round;stroke-linejoin:round;stroke:rgb(66.27451%,66.27451%,66.27451%);stroke-opacity:1;stroke-miterlimit:10;" d="M 357.316406 120.460938 L 358.136719 104.757812 "/>
<path style="fill:none;stroke-width:0.75;stroke-linecap:round;stroke-linejoin:round;stroke:rgb(66.27451%,66.27451%,66.27451%);stroke-opacity:1;stroke-miterlimit:10;" d="M 450.410156 596.378906 L 454.007812 584.9375 "/>
<path style="fill:none;stroke-width:0.75;stroke-linecap:round;stroke-linejoin:round;stroke:rgb(66.27451%,66.27451%,66.27451%);stroke-opacity:1;stroke-miterlimit:10;" d="M 462.183594 564.816406 L 458 574.3125 "/>
<path style="fill:none;stroke-width:0.75;stroke-linecap:round;stroke-linejoin:round;stroke:rgb(66.27451%,66.27451%,66.27451%);stroke-opacity:1;stroke-miterlimit:10;" d="M 184.207031 392.953125 L 181.628906 379.03125 "/>
<path style="fill:none;stroke-width:0.75;stroke-linecap:round;stroke-linejoin:round;stroke:rgb(66.27451%,66.27451%,66.27451%);stroke-opacity:1;stroke-miterlimit:10;" d="M 586.5625 484.519531 L 586.613281 494.382812 "/>
<path style="fill:none;stroke-width:0.75;stroke-linecap:round;stroke-linejoin:round;stroke:rgb(66.27451%,66.27451%,66.27451%);stroke-opacity:1;stroke-miterlimit:10;" d="M 314.902344 609.515625 L 304.824219 596.550781 "/>
<path style="fill:none;stroke-width:0.75;stroke-linecap:round;stroke-linejoin:round;stroke:rgb(66.27451%,66.27451%,66.27451%);stroke-opacity:1;stroke-miterlimit:10;" d="M 277.761719 572.957031 L 260.300781 560.570312 "/>
<path style="fill:none;stroke-width:0.75;stroke-linecap:round;stroke-linejoin:round;stroke:rgb(66.27451%,66.27451%,66.27451%);stroke-opacity:1;stroke-miterlimit:10;" d="M 284.234375 577.964844 L 298.558594 590.035156 "/>
<path style="fill:none;stroke-width:0.75;stroke-linecap:round;stroke-linejoin:round;stroke:rgb(66.27451%,66.27451%,66.27451%);stroke-opacity:1;stroke-miterlimit:10;" d="M 283.207031 571.8125 L 292.515625 556.261719 "/>
<path style="fill:none;stroke-width:0.75;stroke-linecap:round;stroke-linejoin:round;stroke:rgb(66.27451%,66.27451%,66.27451%);stroke-opacity:1;stroke-miterlimit:10;" d="M 161.789062 227.179688 L 161.003906 214.753906 "/>
<path style="fill:none;stroke-width:0.75;stroke-linecap:round;stroke-linejoin:round;stroke:rgb(66.27451%,66.27451%,66.27451%);stroke-opacity:1;stroke-miterlimit:10;" d="M 160.113281 232.144531 L 149.691406 244.183594 "/>
<path style="fill:none;stroke-width:0.75;stroke-linecap:round;stroke-linejoin:round;stroke:rgb(66.27451%,66.27451%,66.27451%);stroke-opacity:1;stroke-miterlimit:10;" d="M 257.96875 556.433594 L 256.5625 536.90625 "/>
<path style="fill:none;stroke-width:0.75;stroke-linecap:round;stroke-linejoin:round;stroke:rgb(66.27451%,66.27451%,66.27451%);stroke-opacity:1;stroke-miterlimit:10;" d="M 390.75 602.074219 L 406.636719 602.394531 "/>
<path style="fill:none;stroke-width:0.75;stroke-linecap:round;stroke-linejoin:round;stroke:rgb(66.27451%,66.27451%,66.27451%);stroke-opacity:1;stroke-miterlimit:10;" d="M 385.722656 603.265625 L 372.644531 610.167969 "/>
<path style="fill:none;stroke-width:0.75;stroke-linecap:round;stroke-linejoin:round;stroke:rgb(66.27451%,66.27451%,66.27451%);stroke-opacity:1;stroke-miterlimit:10;" d="M 281.308594 175.421875 L 283.15625 190.84375 "/>
<path style="fill:none;stroke-width:0.75;stroke-linecap:round;stroke-linejoin:round;stroke:rgb(66.27451%,66.27451%,66.27451%);stroke-opacity:1;stroke-miterlimit:10;" d="M 197.542969 540.683594 L 191.253906 531.371094 "/>
<path style="fill:none;stroke-width:0.75;stroke-linecap:round;stroke-linejoin:round;stroke:rgb(66.27451%,66.27451%,66.27451%);stroke-opacity:1;stroke-miterlimit:10;" d="M 515.21875 550.539062 L 528.53125 554.929688 "/>
<path style="fill:none;stroke-width:0.75;stroke-linecap:round;stroke-linejoin:round;stroke:rgb(66.27451%,66.27451%,66.27451%);stroke-opacity:1;stroke-miterlimit:10;" d="M 153.101562 469.113281 L 145.691406 468.191406 "/>
<path style="fill:none;stroke-width:0.75;stroke-linecap:round;stroke-linejoin:round;stroke:rgb(66.27451%,66.27451%,66.27451%);stroke-opacity:1;stroke-miterlimit:10;" d="M 603.792969 239.519531 L 595.847656 231.140625 "/>
<path style="fill:none;stroke-width:0.75;stroke-linecap:round;stroke-linejoin:round;stroke:rgb(66.27451%,66.27451%,66.27451%);stroke-opacity:1;stroke-miterlimit:10;" d="M 238.753906 210.503906 L 239.199219 196.707031 "/>
<path style="fill:none;stroke-width:0.75;stroke-linecap:round;stroke-linejoin:round;stroke:rgb(66.27451%,66.27451%,66.27451%);stroke-opacity:1;stroke-miterlimit:10;" d="M 134.480469 394.804688 L 121.804688 387.660156 "/>
<path style="fill:none;stroke-width:0.75;stroke-linecap:round;stroke-linejoin:round;stroke:rgb(66.27451%,66.27451%,66.27451%);stroke-opacity:1;stroke-miterlimit:10;" d="M 306.070312 229.675781 L 293.0625 238.769531 "/>
<path style="fill:none;stroke-width:0.75;stroke-linecap:round;stroke-linejoin:round;stroke:rgb(66.27451%,66.27451%,66.27451%);stroke-opacity:1;stroke-miterlimit:10;" d="M 511.679688 180.765625 L 498.261719 178.707031 "/>
<path style="fill:none;stroke-width:0.75;stroke-linecap:round;stroke-linejoin:round;stroke:rgb(66.27451%,66.27451%,66.27451%);stroke-opacity:1;stroke-miterlimit:10;" d="M 551.785156 384.792969 L 563 387.679688 "/>
<path style=" stroke:none;fill-rule:nonzero;fill:rgb(3.137255%,81.960784%,81.960784%);fill-opacity:1;" d="M 477.238281 493.300781 C 477.238281 496.796875 471.992188 496.796875 471.992188 493.300781 C 471.992188 489.800781 477.238281 489.800781 477.238281 493.300781 "/>
<path style=" stroke:none;fill-rule:nonzero;fill:rgb(3.137255%,81.960784%,81.960784%);fill-opacity:1;" d="M 500.433594 135.832031 C 500.433594 139.621094 494.746094 139.621094 494.746094 135.832031 C 494.746094 132.039062 500.433594 132.039062 500.433594 135.832031 "/>
<path style=" stroke:none;fill-rule:nonzero;fill:rgb(3.137255%,81.960784%,81.960784%);fill-opacity:1;" d="M 403.003906 407 C 403.003906 413.371094 393.453125 413.371094 393.453125 407 C 393.453125 400.632812 403.003906 400.632812 403.003906 407 "/>
<path style=" stroke:none;fill-rule:nonzero;fill:rgb(3.137255%,81.960784%,81.960784%);fill-opacity:1;" d="M 146.570312 354.996094 C 146.570312 359.003906 140.558594 359.003906 140.558594 354.996094 C 140.558594 350.988281 146.570312 350.988281 146.570312 354.996094 "/>
<path style=" stroke:none;fill-rule:nonzero;fill:rgb(3.137255%,81.960784%,81.960784%);fill-opacity:1;" d="M 352.183594 494.476562 C 352.183594 498.015625 346.871094 498.015625 346.871094 494.476562 C 346.871094 490.933594 352.183594 490.933594 352.183594 494.476562 "/>
<path style=" stroke:none;fill-rule:nonzero;fill:rgb(3.137255%,81.960784%,81.960784%);fill-opacity:1;" d="M 172.878906 317.199219 C 172.878906 320.695312 170.046875 323.53125 166.546875 323.53125 C 163.050781 323.53125 160.21875 320.695312 160.21875 317.199219 C 160.21875 313.703125 163.050781 310.867188 166.546875 310.867188 C 170.046875 310.867188 172.878906 313.703125 172.878906 317.199219 "/>
<path style=" stroke:none;fill-rule:nonzero;fill:rgb(3.137255%,81.960784%,81.960784%);fill-opacity:1;" d="M 476.101562 450.457031 C 476.101562 453.925781 473.289062 456.742188 469.816406 456.742188 C 466.34375 456.742188 463.53125 453.925781 463.53125 450.457031 C 463.53125 446.984375 466.34375 444.167969 469.816406 444.167969 C 473.289062 444.167969 476.101562 446.984375 476.101562 450.457031 "/>
<path style=" stroke:none;fill-rule:nonzero;fill:rgb(3.137255%,81.960784%,81.960784%);fill-opacity:1;" d="M 312.273438 117.128906 C 312.273438 121.171875 306.207031 121.171875 306.207031 117.128906 C 306.207031 113.082031 312.273438 113.082031 312.273438 117.128906 "/>
<path style=" stroke:none;fill-rule:nonzero;fill:rgb(3.137255%,81.960784%,81.960784%);fill-opacity:1;" d="M 527.75 421.050781 C 527.75 426.65625 519.34375 426.65625 519.34375 421.050781 C 519.34375 415.449219 527.75 415.449219 527.75 421.050781 "/>
<path style=" stroke:none;fill-rule:nonzero;fill:rgb(3.137255%,81.960784%,81.960784%);fill-opacity:1;" d="M 575.699219 194.839844 C 575.699219 198.554688 570.125 198.554688 570.125 194.839844 C 570.125 191.121094 575.699219 191.121094 575.699219 194.839844 "/>
<path style=" stroke:none;fill-rule:nonzero;fill:rgb(3.137255%,81.960784%,81.960784%);fill-opacity:1;" d="M 168.648438 429.585938 C 168.648438 433.152344 163.296875 433.152344 163.296875 429.585938 C 163.296875 426.023438 168.648438 426.023438 168.648438 429.585938 "/>
<path style=" stroke:none;fill-rule:nonzero;fill:rgb(3.137255%,81.960784%,81.960784%);fill-opacity:1;" d="M 440.1875 280.546875 C 440.1875 284.027344 434.972656 284.027344 434.972656 280.546875 C 434.972656 277.070312 440.1875 277.070312 440.1875 280.546875 "/>
<path style=" stroke:none;fill-rule:nonzero;fill:rgb(3.137255%,81.960784%,81.960784%);fill-opacity:1;" d="M 219.714844 478.378906 C 219.714844 481.914062 214.410156 481.914062 214.410156 478.378906 C 214.410156 474.84375 219.714844 474.84375 219.714844 478.378906 "/>
<path style=" stroke:none;fill-rule:nonzero;fill:rgb(3.137255%,81.960784%,81.960784%);fill-opacity:1;" d="M 332.738281 528.613281 C 332.738281 534.371094 324.105469 534.371094 324.105469 528.613281 C 324.105469 522.859375 332.738281 522.859375 332.738281 528.613281 "/>
<path style=" stroke:none;fill-rule:nonzero;fill:rgb(3.137255%,81.960784%,81.960784%);fill-opacity:1;" d="M 213.621094 359.453125 L 234.34375 359.453125 L 234.34375 380.175781 L 213.621094 380.175781 Z M 213.621094 359.453125 "/>
<path style=" stroke:none;fill-rule:nonzero;fill:rgb(3.137255%,81.960784%,81.960784%);fill-opacity:1;" d="M 240.714844 570.378906 C 240.714844 574.152344 235.054688 574.152344 235.054688 570.378906 C 235.054688 566.605469 240.714844 566.605469 240.714844 570.378906 "/>
<path style=" stroke:none;fill-rule:nonzero;fill:rgb(3.137255%,81.960784%,81.960784%);fill-opacity:1;" d="M 118.683594 333.058594 C 118.683594 337.5 112.023438 337.5 112.023438 333.058594 C 112.023438 328.621094 118.683594 328.621094 118.683594 333.058594 "/>
<path style=" stroke:none;fill-rule:nonzero;fill:rgb(3.137255%,81.960784%,81.960784%);fill-opacity:1;" d="M 125.128906 313.675781 C 125.128906 317.230469 119.796875 317.230469 119.796875 313.675781 C 119.796875 310.121094 125.128906 310.121094 125.128906 313.675781 "/>
<path style=" stroke:none;fill-rule:nonzero;fill:rgb(74.901961%,43.921569%,13.333333%);fill-opacity:1;" d="M 424.339844 447.277344 C 424.339844 451.054688 418.671875 451.054688 418.671875 447.277344 C 418.671875 443.496094 424.339844 443.496094 424.339844 447.277344 "/>
<path style=" stroke:none;fill-rule:nonzero;fill:rgb(18.039216%,73.72549%,50.980392%);fill-opacity:1;" d="M 326.667969 582.476562 C 326.667969 585.957031 321.449219 585.957031 321.449219 582.476562 C 321.449219 578.996094 326.667969 578.996094 326.667969 582.476562 "/>
<path style=" stroke:none;fill-rule:nonzero;fill:rgb(18.039216%,56.862745%,73.72549%);fill-opacity:1;" d="M 399.414062 132.578125 C 399.414062 136.074219 394.167969 136.074219 394.167969 132.578125 C 394.167969 129.082031 399.414062 129.082031 399.414062 132.578125 "/>
<path style=" stroke:none;fill-rule:nonzero;fill:rgb(18.039216%,35.294118%,73.72549%);fill-opacity:1;" d="M 359.820312 123.097656 C 359.820312 126.621094 354.535156 126.621094 354.535156 123.097656 C 354.535156 119.574219 359.820312 119.574219 359.820312 123.097656 "/>
<path style=" stroke:none;fill-rule:nonzero;fill:rgb(18.039216%,35.294118%,73.72549%);fill-opacity:1;" d="M 561.015625 293.523438 C 561.015625 297.109375 555.636719 297.109375 555.636719 293.523438 C 555.636719 289.9375 561.015625 289.9375 561.015625 293.523438 "/>
<path style=" stroke:none;fill-rule:nonzero;fill:rgb(18.039216%,35.294118%,73.72549%);fill-opacity:1;" d="M 452.527344 599.265625 C 452.527344 603.296875 446.476562 603.296875 446.476562 599.265625 C 446.476562 595.230469 452.527344 595.230469 452.527344 599.265625 "/>
<path style=" stroke:none;fill-rule:nonzero;fill:rgb(18.039216%,35.294118%,73.72549%);fill-opacity:1;" d="M 612.585938 420.828125 C 612.585938 424.507812 607.066406 424.507812 607.066406 420.828125 C 607.066406 417.148438 612.585938 417.148438 612.585938 420.828125 "/>
<path style=" stroke:none;fill-rule:nonzero;fill:rgb(18.039216%,35.294118%,73.72549%);fill-opacity:1;" d="M 288.410156 456.703125 C 288.410156 460.382812 282.890625 460.382812 282.890625 456.703125 C 282.890625 453.023438 288.410156 453.023438 288.410156 456.703125 "/>
<path style=" stroke:none;fill-rule:nonzero;fill:rgb(18.039216%,35.294118%,73.72549%);fill-opacity:1;" d="M 225.777344 510.703125 C 225.777344 514.238281 220.476562 514.238281 220.476562 510.703125 C 220.476562 507.171875 225.777344 507.171875 225.777344 510.703125 "/>
<path style=" stroke:none;fill-rule:nonzero;fill:rgb(18.039216%,35.294118%,73.72549%);fill-opacity:1;" d="M 470.796875 559.195312 C 470.796875 562.585938 468.050781 565.335938 464.65625 565.335938 C 461.265625 565.335938 458.519531 562.585938 458.519531 559.195312 C 458.519531 555.804688 461.265625 553.058594 464.65625 553.058594 C 468.050781 553.058594 470.796875 555.804688 470.796875 559.195312 "/>
<path style=" stroke:none;fill-rule:nonzero;fill:rgb(18.039216%,35.294118%,73.72549%);fill-opacity:1;" d="M 311.980469 139.257812 C 311.980469 143.027344 306.324219 143.027344 306.324219 139.257812 C 306.324219 135.488281 311.980469 135.488281 311.980469 139.257812 "/>
<path style=" stroke:none;fill-rule:nonzero;fill:rgb(18.039216%,35.294118%,73.72549%);fill-opacity:1;" d="M 187.453125 395.652344 C 187.453125 399.316406 181.960938 399.316406 181.960938 395.652344 C 181.960938 391.992188 187.453125 391.992188 187.453125 395.652344 "/>
<path style=" stroke:none;fill-rule:nonzero;fill:rgb(18.039216%,35.294118%,73.72549%);fill-opacity:1;" d="M 184.53125 181.671875 C 184.53125 185.796875 178.339844 185.796875 178.339844 181.671875 C 178.339844 177.542969 184.53125 177.542969 184.53125 181.671875 "/>
<path style=" stroke:none;fill-rule:nonzero;fill:rgb(18.039216%,35.294118%,73.72549%);fill-opacity:1;" d="M 317.269531 166.21875 L 337.992188 166.21875 L 337.992188 186.941406 L 317.269531 186.941406 Z M 317.269531 166.21875 "/>
<path style=" stroke:none;fill-rule:nonzero;fill:rgb(18.039216%,35.294118%,73.72549%);fill-opacity:1;" d="M 595.125 475.910156 C 595.125 480.664062 591.273438 484.519531 586.519531 484.519531 C 581.765625 484.519531 577.910156 480.664062 577.910156 475.910156 C 577.910156 471.15625 581.765625 467.300781 586.519531 467.300781 C 591.273438 467.300781 595.125 471.15625 595.125 475.910156 "/>
<path style=" stroke:none;fill-rule:nonzero;fill:rgb(3.529412%,80.784314%,55.294118%);fill-opacity:1;" d="M 396.777344 93.753906 C 396.777344 97.265625 391.507812 97.265625 391.507812 93.753906 C 391.507812 90.238281 396.777344 90.238281 396.777344 93.753906 "/>
<path style=" stroke:none;fill-rule:nonzero;fill:rgb(3.529412%,44.705882%,39.607843%);fill-opacity:1;" d="M 507.539062 128.5625 L 528.261719 128.5625 L 528.261719 149.285156 L 507.539062 149.285156 Z M 507.539062 128.5625 "/>
<path style=" stroke:none;fill-rule:nonzero;fill:rgb(3.529412%,44.705882%,39.607843%);fill-opacity:1;" d="M 319.273438 611.652344 C 319.273438 615.261719 313.855469 615.261719 313.855469 611.652344 C 313.855469 608.042969 319.273438 608.042969 319.273438 611.652344 "/>
<path style=" stroke:none;fill-rule:nonzero;fill:rgb(3.529412%,44.705882%,39.607843%);fill-opacity:1;" d="M 285.199219 575.324219 C 285.199219 580.785156 277.007812 580.785156 277.007812 575.324219 C 277.007812 569.863281 285.199219 569.863281 285.199219 575.324219 "/>
<path style=" stroke:none;fill-rule:nonzero;fill:rgb(67.058824%,33.72549%,84.705882%);fill-opacity:1;" d="M 128.003906 432.058594 C 128.003906 435.777344 122.421875 435.777344 122.421875 432.058594 C 122.421875 428.335938 128.003906 428.335938 128.003906 432.058594 "/>
<path style=" stroke:none;fill-rule:nonzero;fill:rgb(67.058824%,33.72549%,84.705882%);fill-opacity:1;" d="M 489.695312 412.753906 C 489.695312 417.039062 483.261719 417.039062 483.261719 412.753906 C 483.261719 408.464844 489.695312 408.464844 489.695312 412.753906 "/>
<path style=" stroke:none;fill-rule:nonzero;fill:rgb(67.058824%,33.72549%,84.705882%);fill-opacity:1;" d="M 221.789062 139.523438 C 221.789062 143.730469 215.476562 143.730469 215.476562 139.523438 C 215.476562 135.316406 221.789062 135.316406 221.789062 139.523438 "/>
<path style=" stroke:none;fill-rule:nonzero;fill:rgb(67.058824%,33.72549%,84.705882%);fill-opacity:1;" d="M 238.445312 332.269531 C 238.445312 335.5 235.828125 338.121094 232.59375 338.121094 C 229.363281 338.121094 226.742188 335.5 226.742188 332.269531 C 226.742188 329.035156 229.363281 326.414062 232.59375 326.414062 C 235.828125 326.414062 238.445312 329.035156 238.445312 332.269531 "/>
<path style=" stroke:none;fill-rule:nonzero;fill:rgb(67.058824%,33.72549%,84.705882%);fill-opacity:1;" d="M 164.796875 230.007812 C 164.796875 233.78125 159.136719 233.78125 159.136719 230.007812 C 159.136719 226.230469 164.796875 226.230469 164.796875 230.007812 "/>
<path style=" stroke:none;fill-rule:nonzero;fill:rgb(67.058824%,33.72549%,84.705882%);fill-opacity:1;" d="M 202.304688 450.027344 C 202.304688 453.507812 197.085938 453.507812 197.085938 450.027344 C 197.085938 446.550781 202.304688 446.550781 202.304688 450.027344 "/>
<path style=" stroke:none;fill-rule:nonzero;fill:rgb(67.058824%,33.72549%,84.705882%);fill-opacity:1;" d="M 260.785156 559.050781 C 260.785156 562.554688 255.53125 562.554688 255.53125 559.050781 C 255.53125 555.550781 260.785156 555.550781 260.785156 559.050781 "/>
<path style=" stroke:none;fill-rule:nonzero;fill:rgb(3.921569%,62.745098%,12.156863%);fill-opacity:1;" d="M 440.492188 529.179688 C 440.492188 532.738281 435.148438 532.738281 435.148438 529.179688 C 435.148438 525.617188 440.492188 525.617188 440.492188 529.179688 "/>
<path style=" stroke:none;fill-rule:nonzero;fill:rgb(3.921569%,62.745098%,12.156863%);fill-opacity:1;" d="M 390.75 602.023438 C 390.75 605.578125 385.414062 605.578125 385.414062 602.023438 C 385.414062 598.464844 390.75 598.464844 390.75 602.023438 "/>
<path style=" stroke:none;fill-rule:nonzero;fill:rgb(3.921569%,62.745098%,12.156863%);fill-opacity:1;" d="M 283.839844 172.570312 C 283.839844 176.402344 278.09375 176.402344 278.09375 172.570312 C 278.09375 168.742188 283.839844 168.742188 283.839844 172.570312 "/>
<path style=" stroke:none;fill-rule:nonzero;fill:rgb(3.921569%,62.745098%,12.156863%);fill-opacity:1;" d="M 292.75 414.835938 C 292.75 418.304688 287.546875 418.304688 287.546875 414.835938 C 287.546875 411.367188 292.75 411.367188 292.75 414.835938 "/>
<path style=" stroke:none;fill-rule:nonzero;fill:rgb(3.921569%,62.745098%,12.156863%);fill-opacity:1;" d="M 207.953125 546.214844 C 207.953125 549.902344 204.964844 552.890625 201.277344 552.890625 C 197.589844 552.890625 194.601562 549.902344 194.601562 546.214844 C 194.601562 542.53125 197.589844 539.539062 201.277344 539.539062 C 204.964844 539.539062 207.953125 542.53125 207.953125 546.214844 "/>
<path style=" stroke:none;fill-rule:nonzero;fill:rgb(3.921569%,62.745098%,12.156863%);fill-opacity:1;" d="M 378.859375 247.027344 C 378.859375 250.742188 373.285156 250.742188 373.285156 247.027344 C 373.285156 243.3125 378.859375 243.3125 378.859375 247.027344 "/>
<path style=" stroke:none;fill-rule:nonzero;fill:rgb(3.921569%,62.745098%,12.156863%);fill-opacity:1;" d="M 313.453125 331.148438 C 313.453125 334.605469 308.273438 334.605469 308.273438 331.148438 C 308.273438 327.695312 313.453125 327.695312 313.453125 331.148438 "/>
<path style=" stroke:none;fill-rule:nonzero;fill:rgb(3.921569%,62.745098%,12.156863%);fill-opacity:1;" d="M 515.371094 549.585938 C 515.371094 553.652344 509.269531 553.652344 509.269531 549.585938 C 509.269531 545.515625 515.371094 545.515625 515.371094 549.585938 "/>
<path style=" stroke:none;fill-rule:nonzero;fill:rgb(3.921569%,62.745098%,12.156863%);fill-opacity:1;" d="M 153.101562 460.042969 L 173.824219 460.042969 L 173.824219 480.765625 L 153.101562 480.765625 Z M 153.101562 460.042969 "/>
<path style=" stroke:none;fill-rule:nonzero;fill:rgb(3.921569%,62.745098%,12.156863%);fill-opacity:1;" d="M 192.40625 529.207031 C 192.40625 532.6875 187.183594 532.6875 187.183594 529.207031 C 187.183594 525.722656 192.40625 525.722656 192.40625 529.207031 "/>
<path style=" stroke:none;fill-rule:nonzero;fill:rgb(3.921569%,62.745098%,12.156863%);fill-opacity:1;" d="M 262.734375 488.917969 C 262.734375 492.710938 257.046875 492.710938 257.046875 488.917969 C 257.046875 485.128906 262.734375 485.128906 262.734375 488.917969 "/>
<path style=" stroke:none;fill-rule:nonzero;fill:rgb(3.921569%,62.745098%,12.156863%);fill-opacity:1;" d="M 609.691406 242.054688 C 609.691406 246.714844 602.703125 246.714844 602.703125 242.054688 C 602.703125 237.398438 609.691406 237.398438 609.691406 242.054688 "/>
<path style=" stroke:none;fill-rule:nonzero;fill:rgb(3.921569%,62.745098%,12.156863%);fill-opacity:1;" d="M 582.867188 300.394531 L 603.589844 300.394531 L 603.589844 321.117188 L 582.867188 321.117188 Z M 582.867188 300.394531 "/>
<path style=" stroke:none;fill-rule:nonzero;fill:rgb(3.921569%,62.745098%,12.156863%);fill-opacity:1;" d="M 241.335938 213.171875 C 241.335938 216.734375 235.992188 216.734375 235.992188 213.171875 C 235.992188 209.609375 241.335938 209.609375 241.335938 213.171875 "/>
<path style=" stroke:none;fill-rule:nonzero;fill:rgb(3.921569%,62.745098%,12.156863%);fill-opacity:1;" d="M 139.414062 396.101562 C 139.414062 399.617188 134.140625 399.617188 134.140625 396.101562 C 134.140625 392.585938 139.414062 392.585938 139.414062 396.101562 "/>
<path style=" stroke:none;fill-rule:nonzero;fill:rgb(3.921569%,62.745098%,12.156863%);fill-opacity:1;" d="M 434.441406 485.902344 C 434.441406 489.972656 428.335938 489.972656 428.335938 485.902344 C 428.335938 481.828125 434.441406 481.828125 434.441406 485.902344 "/>
<path style=" stroke:none;fill-rule:nonzero;fill:rgb(3.921569%,62.745098%,12.156863%);fill-opacity:1;" d="M 372.644531 164.726562 C 372.644531 169.933594 368.425781 174.152344 363.21875 174.152344 C 358.015625 174.152344 353.796875 169.933594 353.796875 164.726562 C 353.796875 159.523438 358.015625 155.304688 363.21875 155.304688 C 368.425781 155.304688 372.644531 159.523438 372.644531 164.726562 "/>
<path style=" stroke:none;fill-rule:nonzero;fill:rgb(3.921569%,62.745098%,12.156863%);fill-opacity:1;" d="M 310.917969 228.152344 C 310.917969 231.703125 305.589844 231.703125 305.589844 228.152344 C 305.589844 224.601562 310.917969 224.601562 310.917969 228.152344 "/>
<path style=" stroke:none;fill-rule:nonzero;fill:rgb(3.921569%,62.745098%,12.156863%);fill-opacity:1;" d="M 636.175781 358.671875 C 636.175781 362.3125 630.71875 362.3125 630.71875 358.671875 C 630.71875 355.03125 636.175781 355.03125 636.175781 358.671875 "/>
<path style=" stroke:none;fill-rule:nonzero;fill:rgb(3.921569%,62.745098%,12.156863%);fill-opacity:1;" d="M 166.382812 209.019531 C 166.382812 212.191406 163.8125 214.765625 160.640625 214.765625 C 157.464844 214.765625 154.894531 212.191406 154.894531 209.019531 C 154.894531 205.847656 157.464844 203.277344 160.640625 203.277344 C 163.8125 203.277344 166.382812 205.847656 166.382812 209.019531 "/>
<path style=" stroke:none;fill-rule:nonzero;fill:rgb(3.921569%,62.745098%,12.156863%);fill-opacity:1;" d="M 517.128906 181.179688 C 517.128906 184.832031 511.648438 184.832031 511.648438 181.179688 C 511.648438 177.523438 517.128906 177.523438 517.128906 181.179688 "/>
<path style=" stroke:none;fill-rule:nonzero;fill:rgb(3.921569%,62.745098%,12.156863%);fill-opacity:1;" d="M 145.710938 467.847656 C 145.710938 471.558594 140.144531 471.558594 140.144531 467.847656 C 140.144531 464.136719 145.710938 464.136719 145.710938 467.847656 "/>
<path style=" stroke:none;fill-rule:nonzero;fill:rgb(3.921569%,62.745098%,12.156863%);fill-opacity:1;" d="M 382.011719 276.160156 L 402.734375 276.160156 L 402.734375 296.882812 L 382.011719 296.882812 Z M 382.011719 276.160156 "/>
<path style=" stroke:none;fill-rule:nonzero;fill:rgb(3.921569%,62.745098%,12.156863%);fill-opacity:1;" d="M 624.589844 284.480469 C 624.589844 288.023438 619.269531 288.023438 619.269531 284.480469 C 619.269531 280.933594 624.589844 280.933594 624.589844 284.480469 "/>
<path style=" stroke:none;fill-rule:nonzero;fill:rgb(3.921569%,62.745098%,12.156863%);fill-opacity:1;" d="M 360.683594 342.222656 C 360.683594 346.3125 354.546875 346.3125 354.546875 342.222656 C 354.546875 338.128906 360.683594 338.128906 360.683594 342.222656 "/>
<path style=" stroke:none;fill-rule:nonzero;fill:rgb(3.921569%,62.745098%,12.156863%);fill-opacity:1;" d="M 551.914062 248.464844 C 551.914062 252.09375 546.46875 252.09375 546.46875 248.464844 C 546.46875 244.832031 551.914062 244.832031 551.914062 248.464844 "/>
<path style=" stroke:none;fill-rule:nonzero;fill:rgb(3.921569%,62.745098%,12.156863%);fill-opacity:1;" d="M 532.171875 511.609375 C 532.171875 517.5 527.398438 522.277344 521.507812 522.277344 C 515.617188 522.277344 510.839844 517.5 510.839844 511.609375 C 510.839844 505.71875 515.617188 500.945312 521.507812 500.945312 C 527.398438 500.945312 532.171875 505.71875 532.171875 511.609375 "/>
<path style=" stroke:none;fill-rule:nonzero;fill:rgb(3.921569%,62.745098%,12.156863%);fill-opacity:1;" d="M 293.660156 240.671875 C 293.660156 245.097656 287.023438 245.097656 287.023438 240.671875 C 287.023438 236.246094 293.660156 236.246094 293.660156 240.671875 "/>
<path style=" stroke:none;fill-rule:nonzero;fill:rgb(3.921569%,62.745098%,12.156863%);fill-opacity:1;" d="M 551.871094 384.121094 C 551.871094 387.714844 546.480469 387.714844 546.480469 384.121094 C 546.480469 380.527344 551.871094 380.527344 551.871094 384.121094 "/>
<path style=" stroke:none;fill-rule:nonzero;fill:rgb(3.921569%,62.745098%,12.156863%);fill-opacity:1;" d="M 432.984375 98.953125 C 432.984375 102.628906 427.476562 102.628906 427.476562 98.953125 C 427.476562 95.28125 432.984375 95.28125 432.984375 98.953125 "/>
<path style=" stroke:none;fill-rule:nonzero;fill:rgb(3.921569%,62.745098%,12.156863%);fill-opacity:1;" d="M 274.46875 348.335938 C 274.46875 351.84375 269.207031 351.84375 269.207031 348.335938 C 269.207031 344.828125 274.46875 344.828125 274.46875 348.335938 "/>
<path style=" stroke:none;fill-rule:nonzero;fill:rgb(3.921569%,62.745098%,12.156863%);fill-opacity:1;" d="M 174.085938 277.671875 C 174.085938 281.230469 168.746094 281.230469 168.746094 277.671875 C 168.746094 274.113281 174.085938 274.113281 174.085938 277.671875 "/>
<path style=" stroke:none;fill-rule:nonzero;fill:rgb(3.921569%,62.745098%,12.156863%);fill-opacity:1;" d="M 372.136719 439.464844 C 372.136719 443.269531 366.425781 443.269531 366.425781 439.464844 C 366.425781 435.65625 372.136719 435.65625 372.136719 439.464844 "/>
<path style=" stroke:none;fill-rule:nonzero;fill:rgb(3.921569%,62.745098%,12.156863%);fill-opacity:1;" d="M 488.195312 324.019531 L 508.917969 324.019531 L 508.917969 344.742188 L 488.195312 344.742188 Z M 488.195312 324.019531 "/>
<path style=" stroke:none;fill-rule:nonzero;fill:rgb(3.921569%,62.745098%,12.156863%);fill-opacity:1;" d="M 253.507812 143.402344 C 253.507812 146.910156 248.242188 146.910156 248.242188 143.402344 C 248.242188 139.890625 253.507812 139.890625 253.507812 143.402344 "/>
<path style=" stroke:none;fill-rule:nonzero;fill:rgb(3.921569%,62.745098%,12.156863%);fill-opacity:1;" d="M 367.085938 382.132812 C 367.085938 386.332031 360.789062 386.332031 360.789062 382.132812 C 360.789062 377.9375 367.085938 377.9375 367.085938 382.132812 "/>
<path style=" stroke:none;fill-rule:nonzero;fill:rgb(3.921569%,62.745098%,12.156863%);fill-opacity:1;" d="M 633.925781 394.304688 C 633.925781 399.800781 629.46875 404.257812 623.972656 404.257812 C 618.472656 404.257812 614.015625 399.800781 614.015625 394.304688 C 614.015625 388.804688 618.472656 384.347656 623.972656 384.347656 C 629.46875 384.347656 633.925781 388.804688 633.925781 394.304688 "/>
<path style=" stroke:none;fill-rule:nonzero;fill:rgb(3.921569%,62.745098%,12.156863%);fill-opacity:1;" d="M 392.378906 477.855469 C 392.378906 481.296875 389.59375 484.082031 386.152344 484.082031 C 382.714844 484.082031 379.925781 481.296875 379.925781 477.855469 C 379.925781 474.417969 382.714844 471.628906 386.152344 471.628906 C 389.59375 471.628906 392.378906 474.417969 392.378906 477.855469 "/>
<path style=" stroke:none;fill-rule:nonzero;fill:rgb(3.921569%,62.745098%,12.156863%);fill-opacity:1;" d="M 213.042969 171.519531 C 213.042969 175.25 207.445312 175.25 207.445312 171.519531 C 207.445312 167.785156 213.042969 167.785156 213.042969 171.519531 "/>
<path style=" stroke:none;fill-rule:nonzero;fill:rgb(3.921569%,62.745098%,12.156863%);fill-opacity:1;" d="M 402.644531 517.398438 C 402.644531 520.953125 397.308594 520.953125 397.308594 517.398438 C 397.308594 513.839844 402.644531 513.839844 402.644531 517.398438 "/>
<path style=" stroke:none;fill-rule:nonzero;fill:rgb(3.921569%,62.745098%,12.156863%);fill-opacity:1;" d="M 374.296875 535.902344 C 374.296875 539.121094 371.6875 541.730469 368.46875 541.730469 C 365.253906 541.730469 362.644531 539.121094 362.644531 535.902344 C 362.644531 532.6875 365.253906 530.078125 368.46875 530.078125 C 371.6875 530.078125 374.296875 532.6875 374.296875 535.902344 "/>
<path style=" stroke:none;fill-rule:nonzero;fill:rgb(3.921569%,62.745098%,12.156863%);fill-opacity:1;" d="M 351.574219 300.726562 C 351.574219 304.242188 346.296875 304.242188 346.296875 300.726562 C 346.296875 297.207031 351.574219 297.207031 351.574219 300.726562 "/>
<path style=" stroke:none;fill-rule:nonzero;fill:rgb(3.921569%,62.745098%,12.156863%);fill-opacity:1;" d="M 354.347656 210.457031 C 354.347656 214.242188 348.671875 214.242188 348.671875 210.457031 C 348.671875 206.675781 354.347656 206.675781 354.347656 210.457031 "/>
<path style=" stroke:none;fill-rule:nonzero;fill:rgb(3.921569%,62.745098%,12.156863%);fill-opacity:1;" d="M 540.898438 332.125 C 540.898438 336.460938 534.390625 336.460938 534.390625 332.125 C 534.390625 327.785156 540.898438 327.785156 540.898438 332.125 "/>
<path style=" stroke:none;fill-rule:nonzero;fill:rgb(3.921569%,62.745098%,12.156863%);fill-opacity:1;" d="M 555.613281 490.058594 C 555.613281 494.042969 552.386719 497.269531 548.40625 497.269531 C 544.421875 497.269531 541.195312 494.042969 541.195312 490.058594 C 541.195312 486.078125 544.421875 482.851562 548.40625 482.851562 C 552.386719 482.851562 555.613281 486.078125 555.613281 490.058594 "/>
<path style=" stroke:none;fill-rule:nonzero;fill:rgb(3.921569%,62.745098%,12.156863%);fill-opacity:1;" d="M 301.320312 289.546875 C 301.320312 293.230469 295.796875 293.230469 295.796875 289.546875 C 295.796875 285.863281 301.320312 285.863281 301.320312 289.546875 "/>
<path style=" stroke:none;fill-rule:nonzero;fill:rgb(3.921569%,62.745098%,12.156863%);fill-opacity:1;" d="M 551.203125 519.292969 L 571.925781 519.292969 L 571.925781 540.015625 L 551.203125 540.015625 Z M 551.203125 519.292969 "/>
<path style=" stroke:none;fill-rule:nonzero;fill:rgb(3.921569%,62.745098%,12.156863%);fill-opacity:1;" d="M 271.601562 116.785156 C 271.601562 120.664062 265.785156 120.664062 265.785156 116.785156 C 265.785156 112.90625 271.601562 112.90625 271.601562 116.785156 "/>
<path style=" stroke:none;fill-rule:nonzero;fill:rgb(3.921569%,62.745098%,12.156863%);fill-opacity:1;" d="M 507.660156 254.878906 C 507.660156 257.878906 505.230469 260.308594 502.230469 260.308594 C 499.234375 260.308594 496.800781 257.878906 496.800781 254.878906 C 496.800781 251.878906 499.234375 249.449219 502.230469 249.449219 C 505.230469 249.449219 507.660156 251.878906 507.660156 254.878906 "/>
<path style=" stroke:none;fill-rule:nonzero;fill:rgb(15.294118%,28.627451%,27.058824%);fill-opacity:1;" d="M 500.761719 584.691406 C 500.761719 590.015625 492.769531 590.015625 492.769531 584.691406 C 492.769531 579.363281 500.761719 579.363281 500.761719 584.691406 "/>
<path style=" stroke:none;fill-rule:nonzero;fill:rgb(15.294118%,28.627451%,27.058824%);fill-opacity:1;" d="M 412.085938 602.449219 C 412.085938 606.085938 406.636719 606.085938 406.636719 602.449219 C 406.636719 598.816406 412.085938 598.816406 412.085938 602.449219 "/>
<path style=" stroke:none;fill-rule:nonzero;fill:rgb(15.294118%,28.627451%,27.058824%);fill-opacity:1;" d="M 512.332031 374.046875 C 512.332031 378.351562 505.871094 378.351562 505.871094 374.046875 C 505.871094 369.738281 512.332031 369.738281 512.332031 374.046875 "/>
<path style=" stroke:none;fill-rule:nonzero;fill:rgb(15.294118%,28.627451%,27.058824%);fill-opacity:1;" d="M 482.757812 513.394531 C 482.757812 516.890625 477.515625 516.890625 477.515625 513.394531 C 477.515625 509.898438 482.757812 509.898438 482.757812 513.394531 "/>
<path style=" stroke:none;fill-rule:nonzero;fill:rgb(15.294118%,28.627451%,27.058824%);fill-opacity:1;" d="M 472.664062 113.382812 C 472.664062 116.847656 467.464844 116.847656 467.464844 113.382812 C 467.464844 109.917969 472.664062 109.917969 472.664062 113.382812 "/>
<path style=" stroke:none;fill-rule:nonzero;fill:rgb(15.294118%,28.627451%,27.058824%);fill-opacity:1;" d="M 329.34375 461.585938 C 329.34375 465.304688 323.769531 465.304688 323.769531 461.585938 C 323.769531 457.871094 329.34375 457.871094 329.34375 461.585938 "/>
<path style=" stroke:none;fill-rule:nonzero;fill:rgb(15.294118%,28.627451%,27.058824%);fill-opacity:1;" d="M 186.074219 329.601562 C 186.074219 334.175781 179.210938 334.175781 179.210938 329.601562 C 179.210938 325.027344 186.074219 325.027344 186.074219 329.601562 "/>
<path style=" stroke:none;fill-rule:nonzero;fill:rgb(30.588235%,22.352941%,47.843137%);fill-opacity:1;" d="M 513.882812 467.09375 C 513.882812 472.613281 505.605469 472.613281 505.605469 467.09375 C 505.605469 461.578125 513.882812 461.578125 513.882812 467.09375 "/>
<path style=" stroke:none;fill-rule:nonzero;fill:rgb(18.039216%,73.72549%,27.058824%);fill-opacity:1;" d="M 319.5 96.949219 C 319.5 100.566406 314.078125 100.566406 314.078125 96.949219 C 314.078125 93.335938 319.5 93.335938 319.5 96.949219 "/>
<path style=" stroke:none;fill-rule:nonzero;fill:rgb(18.039216%,73.72549%,27.058824%);fill-opacity:1;" d="M 430.703125 367.421875 C 430.703125 374.574219 424.902344 380.375 417.75 380.375 C 410.597656 380.375 404.796875 374.574219 404.796875 367.421875 C 404.796875 360.269531 410.597656 354.46875 417.75 354.46875 C 424.902344 354.46875 430.703125 360.269531 430.703125 367.421875 "/>
<path style=" stroke:none;fill-rule:nonzero;fill:rgb(18.039216%,73.72549%,27.058824%);fill-opacity:1;" d="M 587.96875 269.375 C 587.96875 273.402344 581.929688 273.402344 581.929688 269.375 C 581.929688 265.347656 587.96875 265.347656 587.96875 269.375 "/>
<path style=" stroke:none;fill-rule:nonzero;fill:rgb(18.039216%,73.72549%,27.058824%);fill-opacity:1;" d="M 603.179688 363.96875 C 603.179688 368.027344 597.085938 368.027344 597.085938 363.96875 C 597.085938 359.90625 603.179688 359.90625 603.179688 363.96875 "/>
<path style=" stroke:none;fill-rule:nonzero;fill:rgb(18.039216%,73.72549%,27.058824%);fill-opacity:1;" d="M 441.296875 130.101562 C 441.296875 133.703125 435.894531 133.703125 435.894531 130.101562 C 435.894531 126.5 441.296875 126.5 441.296875 130.101562 "/>
<path style=" stroke:none;fill-rule:nonzero;fill:rgb(18.039216%,73.72549%,27.058824%);fill-opacity:1;" d="M 211.847656 405.21875 L 232.570312 405.21875 L 232.570312 425.941406 L 211.847656 425.941406 Z M 211.847656 405.21875 "/>
<path style=" stroke:none;fill-rule:nonzero;fill:rgb(18.039216%,73.72549%,27.058824%);fill-opacity:1;" d="M 502.839844 219.425781 C 502.839844 223.09375 497.335938 223.09375 497.335938 219.425781 C 497.335938 215.761719 502.839844 215.761719 502.839844 219.425781 "/>
<path style=" stroke:none;fill-rule:nonzero;fill:rgb(18.039216%,73.72549%,27.058824%);fill-opacity:1;" d="M 267.09375 299.925781 C 267.09375 303.765625 263.980469 306.878906 260.136719 306.878906 C 256.296875 306.878906 253.183594 303.765625 253.183594 299.925781 C 253.183594 296.082031 256.296875 292.96875 260.136719 292.96875 C 263.980469 292.96875 267.09375 296.082031 267.09375 299.925781 "/>
<path style=" stroke:none;fill-rule:nonzero;fill:rgb(18.039216%,73.72549%,27.058824%);fill-opacity:1;" d="M 365.054688 569.617188 C 365.054688 573.128906 359.785156 573.128906 359.785156 569.617188 C 359.785156 566.105469 365.054688 566.105469 365.054688 569.617188 "/>
<path style=" stroke:none;fill-rule:nonzero;fill:rgb(18.039216%,73.72549%,27.058824%);fill-opacity:1;" d="M 405.480469 328.824219 C 405.480469 334.898438 396.371094 334.898438 396.371094 328.824219 C 396.371094 322.75 405.480469 322.75 405.480469 328.824219 "/>
<path style=" stroke:none;fill-rule:nonzero;fill:rgb(18.039216%,73.72549%,27.058824%);fill-opacity:1;" d="M 338.660156 261.09375 C 338.660156 264.609375 333.386719 264.609375 333.386719 261.09375 C 333.386719 257.578125 338.660156 257.578125 338.660156 261.09375 "/>
<path style=" stroke:none;fill-rule:nonzero;fill:rgb(18.039216%,73.72549%,27.058824%);fill-opacity:1;" d="M 628.546875 323.199219 C 628.546875 326.691406 623.304688 326.691406 623.304688 323.199219 C 623.304688 319.703125 628.546875 319.703125 628.546875 323.199219 "/>
<path style=" stroke:none;fill-rule:nonzero;fill:rgb(18.039216%,73.72549%,27.058824%);fill-opacity:1;" d="M 554.917969 167.316406 C 554.917969 172.078125 547.777344 172.078125 547.777344 167.316406 C 547.777344 162.554688 554.917969 162.554688 554.917969 167.316406 "/>
<path style=" stroke:none;fill-rule:nonzero;fill:rgb(18.039216%,73.72549%,27.058824%);fill-opacity:1;" d="M 436.472656 182.015625 L 457.195312 182.015625 L 457.195312 202.738281 L 436.472656 202.738281 Z M 436.472656 182.015625 "/>
<path style=" stroke:none;fill-rule:nonzero;fill:rgb(18.039216%,73.72549%,27.058824%);fill-opacity:1;" d="M 589.429688 497.183594 C 589.429688 500.917969 583.828125 500.917969 583.828125 497.183594 C 583.828125 493.449219 589.429688 493.449219 589.429688 497.183594 "/>
<path style=" stroke:none;fill-rule:nonzero;fill:rgb(18.039216%,73.72549%,27.058824%);fill-opacity:1;" d="M 214.398438 263.175781 C 214.398438 266.9375 208.753906 266.9375 208.753906 263.175781 C 208.753906 259.414062 214.398438 259.414062 214.398438 263.175781 "/>
<path style=" stroke:none;fill-rule:nonzero;fill:rgb(18.039216%,73.72549%,27.058824%);fill-opacity:1;" d="M 237.761719 432.929688 L 258.484375 432.929688 L 258.484375 453.652344 L 237.761719 453.652344 Z M 237.761719 432.929688 "/>
<path style=" stroke:none;fill-rule:nonzero;fill:rgb(18.039216%,73.72549%,27.058824%);fill-opacity:1;" d="M 306.582031 592.964844 C 306.582031 599.023438 297.488281 599.023438 297.488281 592.964844 C 297.488281 586.902344 306.582031 586.902344 306.582031 592.964844 "/>
<path style=" stroke:none;fill-rule:nonzero;fill:rgb(18.039216%,73.72549%,27.058824%);fill-opacity:1;" d="M 441.28125 254.820312 L 462.003906 254.820312 L 462.003906 275.542969 L 441.28125 275.542969 Z M 441.28125 254.820312 "/>
<path style=" stroke:none;fill-rule:nonzero;fill:rgb(18.039216%,73.72549%,27.058824%);fill-opacity:1;" d="M 302.300781 499.546875 C 302.300781 503.054688 297.042969 503.054688 297.042969 499.546875 C 297.042969 496.042969 302.300781 496.042969 302.300781 499.546875 "/>
<path style=" stroke:none;fill-rule:nonzero;fill:rgb(18.039216%,73.72549%,27.058824%);fill-opacity:1;" d="M 150.660156 246.296875 C 150.660156 250.027344 145.0625 250.027344 145.0625 246.296875 C 145.0625 242.566406 150.660156 242.566406 150.660156 246.296875 "/>
<path style=" stroke:none;fill-rule:nonzero;fill:rgb(18.039216%,73.72549%,27.058824%);fill-opacity:1;" d="M 184.773438 375.253906 C 184.773438 380.375 177.089844 380.375 177.089844 375.253906 C 177.089844 370.128906 184.773438 370.128906 184.773438 375.253906 "/>
<path style=" stroke:none;fill-rule:nonzero;fill:rgb(18.039216%,73.72549%,27.058824%);fill-opacity:1;" d="M 471.34375 369.582031 C 471.34375 372.820312 468.71875 375.445312 465.480469 375.445312 C 462.242188 375.445312 459.621094 372.820312 459.621094 369.582031 C 459.621094 366.347656 462.242188 363.722656 465.480469 363.722656 C 468.71875 363.722656 471.34375 366.347656 471.34375 369.582031 "/>
<path style=" stroke:none;fill-rule:nonzero;fill:rgb(18.039216%,73.72549%,27.058824%);fill-opacity:1;" d="M 461.394531 579.515625 C 461.394531 582.652344 458.851562 585.199219 455.710938 585.199219 C 452.570312 585.199219 450.027344 582.652344 450.027344 579.515625 C 450.027344 576.375 452.570312 573.832031 455.710938 573.832031 C 458.851562 573.832031 461.394531 576.375 461.394531 579.515625 "/>
<path style=" stroke:none;fill-rule:nonzero;fill:rgb(18.039216%,73.72549%,27.058824%);fill-opacity:1;" d="M 450.351562 329.183594 C 450.351562 332.863281 444.828125 332.863281 444.828125 329.183594 C 444.828125 325.503906 450.351562 325.503906 450.351562 329.183594 "/>
<path style=" stroke:none;fill-rule:nonzero;fill:rgb(18.039216%,73.72549%,27.058824%);fill-opacity:1;" d="M 335.761719 417.121094 C 335.761719 421.035156 329.886719 421.035156 329.886719 417.121094 C 329.886719 413.203125 335.761719 413.203125 335.761719 417.121094 "/>
<path style=" stroke:none;fill-rule:nonzero;fill:rgb(18.039216%,73.72549%,27.058824%);fill-opacity:1;" d="M 615.074219 452.390625 C 615.074219 455.890625 609.824219 455.890625 609.824219 452.390625 C 609.824219 448.890625 615.074219 448.890625 615.074219 452.390625 "/>
<path style=" stroke:none;fill-rule:nonzero;fill:rgb(18.039216%,73.72549%,27.058824%);fill-opacity:1;" d="M 535.230469 556.007812 C 535.230469 560.589844 528.359375 560.589844 528.359375 556.007812 C 528.359375 551.425781 535.230469 551.425781 535.230469 556.007812 "/>
<path style=" stroke:none;fill-rule:nonzero;fill:rgb(18.039216%,73.72549%,27.058824%);fill-opacity:1;" d="M 597.714844 226.796875 C 597.714844 230.105469 595.035156 232.785156 591.730469 232.785156 C 588.421875 232.785156 585.742188 230.105469 585.742188 226.796875 C 585.742188 223.492188 588.421875 220.8125 591.730469 220.8125 C 595.035156 220.8125 597.714844 223.492188 597.714844 226.796875 "/>
<path style=" stroke:none;fill-rule:nonzero;fill:rgb(18.039216%,73.72549%,27.058824%);fill-opacity:1;" d="M 243.882812 192.171875 C 243.882812 198.21875 234.8125 198.21875 234.8125 192.171875 C 234.8125 186.125 243.882812 186.125 243.882812 192.171875 "/>
<path style=" stroke:none;fill-rule:nonzero;fill:rgb(18.039216%,73.72549%,27.058824%);fill-opacity:1;" d="M 373.058594 611.847656 C 373.058594 616.652344 365.851562 616.652344 365.851562 611.847656 C 365.851562 607.042969 373.058594 607.042969 373.058594 611.847656 "/>
<path style=" stroke:none;fill-rule:nonzero;fill:rgb(18.039216%,73.72549%,27.058824%);fill-opacity:1;" d="M 122.226562 386.042969 C 122.226562 390.433594 115.640625 390.433594 115.640625 386.042969 C 115.640625 381.652344 122.226562 381.652344 122.226562 386.042969 "/>
<path style=" stroke:none;fill-rule:nonzero;fill:rgb(18.039216%,73.72549%,27.058824%);fill-opacity:1;" d="M 394.910156 199.703125 C 394.910156 203.574219 389.105469 203.574219 389.105469 199.703125 C 389.105469 195.832031 394.910156 195.832031 394.910156 199.703125 "/>
<path style=" stroke:none;fill-rule:nonzero;fill:rgb(18.039216%,73.72549%,27.058824%);fill-opacity:1;" d="M 259.023438 534.261719 C 259.023438 537.796875 253.71875 537.796875 253.71875 534.261719 C 253.71875 530.722656 259.023438 530.722656 259.023438 534.261719 "/>
<path style=" stroke:none;fill-rule:nonzero;fill:rgb(18.039216%,73.72549%,27.058824%);fill-opacity:1;" d="M 576.957031 429.28125 C 576.957031 432.90625 571.519531 432.90625 571.519531 429.28125 C 571.519531 425.65625 576.957031 425.65625 576.957031 429.28125 "/>
<path style=" stroke:none;fill-rule:nonzero;fill:rgb(18.039216%,73.72549%,27.058824%);fill-opacity:1;" d="M 250.214844 380.078125 L 270.9375 380.078125 L 270.9375 400.800781 L 250.214844 400.800781 Z M 250.214844 380.078125 "/>
<path style=" stroke:none;fill-rule:nonzero;fill:rgb(18.039216%,73.72549%,27.058824%);fill-opacity:1;" d="M 498.316406 178.011719 C 498.316406 184.144531 489.117188 184.144531 489.117188 178.011719 C 489.117188 171.878906 498.316406 171.878906 498.316406 178.011719 "/>
<path style=" stroke:none;fill-rule:nonzero;fill:rgb(18.039216%,73.72549%,27.058824%);fill-opacity:1;" d="M 433.339844 399.136719 L 454.0625 399.136719 L 454.0625 419.859375 L 433.339844 419.859375 Z M 433.339844 399.136719 "/>
<path style=" stroke:none;fill-rule:nonzero;fill:rgb(18.039216%,73.72549%,27.058824%);fill-opacity:1;" d="M 118.804688 266.796875 L 139.527344 266.796875 L 139.527344 287.519531 L 118.804688 287.519531 Z M 118.804688 266.796875 "/>
<path style=" stroke:none;fill-rule:nonzero;fill:rgb(18.039216%,73.72549%,27.058824%);fill-opacity:1;" d="M 415.304688 559.578125 C 415.304688 566.257812 405.285156 566.257812 405.285156 559.578125 C 405.285156 552.902344 415.304688 552.902344 415.304688 559.578125 "/>
<path style=" stroke:none;fill-rule:nonzero;fill:rgb(18.039216%,73.72549%,27.058824%);fill-opacity:1;" d="M 169.144531 504.175781 C 169.144531 507.75 163.785156 507.75 163.785156 504.175781 C 163.785156 500.605469 169.144531 500.605469 169.144531 504.175781 "/>
<path style=" stroke:none;fill-rule:nonzero;fill:rgb(18.039216%,73.72549%,27.058824%);fill-opacity:1;" d="M 574.371094 389.117188 C 574.371094 392.308594 571.785156 394.894531 568.59375 394.894531 C 565.402344 394.894531 562.816406 392.308594 562.816406 389.117188 C 562.816406 385.925781 565.402344 383.339844 568.59375 383.339844 C 571.785156 383.339844 574.371094 385.925781 574.371094 389.117188 "/>
<path style=" stroke:none;fill-rule:nonzero;fill:rgb(18.039216%,73.72549%,27.058824%);fill-opacity:1;" d="M 286.417969 193.738281 C 286.417969 197.621094 280.589844 197.621094 280.589844 193.738281 C 280.589844 189.851562 286.417969 189.851562 286.417969 193.738281 "/>
<path style=" stroke:none;fill-rule:nonzero;fill:rgb(18.039216%,73.72549%,27.058824%);fill-opacity:1;" d="M 254.621094 258.25 C 254.621094 262.347656 248.472656 262.347656 248.472656 258.25 C 248.472656 254.152344 254.621094 254.152344 254.621094 258.25 "/>
<path style=" stroke:none;fill-rule:nonzero;fill:rgb(18.039216%,73.72549%,27.058824%);fill-opacity:1;" d="M 316.8125 374.632812 C 316.8125 378.109375 311.597656 378.109375 311.597656 374.632812 C 311.597656 371.152344 316.8125 371.152344 316.8125 374.632812 "/>
<path style=" stroke:none;fill-rule:nonzero;fill:rgb(18.039216%,73.72549%,27.058824%);fill-opacity:1;" d="M 412.964844 166.808594 C 412.964844 169.90625 410.453125 172.414062 407.355469 172.414062 C 404.261719 172.414062 401.75 169.90625 401.75 166.808594 C 401.75 163.710938 404.261719 161.203125 407.355469 161.203125 C 410.453125 161.203125 412.964844 163.710938 412.964844 166.808594 "/>
<path style=" stroke:none;fill-rule:nonzero;fill:rgb(80.784314%,49.411765%,0%);fill-opacity:1;" d="M 404.671875 221.382812 L 425.394531 221.382812 L 425.394531 242.105469 L 404.671875 242.105469 Z M 404.671875 221.382812 "/>
<path style=" stroke:none;fill-rule:nonzero;fill:rgb(73.72549%,18.039216%,63.137255%);fill-opacity:1;" d="M 296.765625 553.855469 C 296.765625 557.597656 291.152344 557.597656 291.152344 553.855469 C 291.152344 550.109375 296.765625 550.109375 296.765625 553.855469 "/>
<path style=" stroke:none;fill-rule:nonzero;fill:rgb(41.568627%,32.156863%,77.647059%);fill-opacity:1;" d="M 526.140625 286.230469 C 526.140625 289.804688 520.777344 289.804688 520.777344 286.230469 C 520.777344 282.65625 526.140625 282.65625 526.140625 286.230469 "/>
<path style=" stroke:none;fill-rule:nonzero;fill:rgb(41.568627%,32.156863%,77.647059%);fill-opacity:1;" d="M 550.695312 451.617188 C 550.695312 457.394531 542.03125 457.394531 542.03125 451.617188 C 542.03125 445.839844 550.695312 445.839844 550.695312 451.617188 "/>
<path style=" stroke:none;fill-rule:nonzero;fill:rgb(41.568627%,32.156863%,77.647059%);fill-opacity:1;" d="M 545.445312 214.011719 C 545.445312 219.039062 537.902344 219.039062 537.902344 214.011719 C 537.902344 208.984375 545.445312 208.984375 545.445312 214.011719 "/>
<path style=" stroke:none;fill-rule:nonzero;fill:rgb(41.568627%,32.156863%,77.647059%);fill-opacity:1;" d="M 193.109375 217.699219 L 213.832031 217.699219 L 213.832031 238.421875 L 193.109375 238.421875 Z M 193.109375 217.699219 "/>
<path style=" stroke:none;fill-rule:nonzero;fill:rgb(41.568627%,32.156863%,77.647059%);fill-opacity:1;" d="M 462.046875 224.914062 C 462.046875 228.652344 456.441406 228.652344 456.441406 224.914062 C 456.441406 221.179688 462.046875 221.179688 462.046875 224.914062 "/>
<path style=" stroke:none;fill-rule:nonzero;fill:rgb(41.568627%,32.156863%,77.647059%);fill-opacity:1;" d="M 439.441406 149.410156 L 460.164062 149.410156 L 460.164062 170.132812 L 439.441406 170.132812 Z M 439.441406 149.410156 "/>
<path style=" stroke:none;fill-rule:nonzero;fill:rgb(67.843137%,55.294118%,55.294118%);fill-opacity:1;" d="M 575.167969 341.285156 C 575.167969 344.894531 569.757812 344.894531 569.757812 341.285156 C 569.757812 337.679688 575.167969 337.679688 575.167969 341.285156 "/>
<path style=" stroke:none;fill-rule:nonzero;fill:rgb(67.843137%,55.294118%,55.294118%);fill-opacity:1;" d="M 218.097656 298.761719 C 218.097656 305.71875 207.664062 305.71875 207.664062 298.761719 C 207.664062 291.808594 218.097656 291.808594 218.097656 298.761719 "/>
<path style=" stroke:none;fill-rule:nonzero;fill:rgb(67.843137%,55.294118%,55.294118%);fill-opacity:1;" d="M 361.011719 102.03125 C 361.011719 105.675781 355.550781 105.675781 355.550781 102.03125 C 355.550781 98.386719 361.011719 98.386719 361.011719 102.03125 "/>
<path style=" stroke:none;fill-rule:nonzero;fill:rgb(81.176471%,90.588235%,12.156863%);fill-opacity:1;" d="M 486.507812 298.203125 C 486.507812 301.777344 481.148438 301.777344 481.148438 298.203125 C 481.148438 294.628906 486.507812 294.628906 486.507812 298.203125 "/>
</g>
</svg>
